<?xml version="1.0" encoding="UTF-8"?>
<svg xmlns="http://www.w3.org/2000/svg" xmlns:xlink="http://www.w3.org/1999/xlink" width="124px" height="124px" viewBox="0 0 124 124">
  <!-- Generator: Sketch 50.2 (55047) - http://www.bohemiancoding.com/sketch -->
  <title>icon 3</title>
  <desc>Created with Sketch.</desc>
  <defs></defs>
  <g id="Design" stroke="none" stroke-width="1" fill="none" fill-rule="evenodd">
    <g id="new_account_on-boarding" transform="translate(-1069.000000, -1019.000000)">
      <g id="main-content" transform="translate(176.000000, 1021.000000)">
        <g id="pre-features">
          <g id="icon-3" transform="translate(895.000000, 0.000000)">
            <circle id="Oval-Copy-2" stroke="#704C9F" stroke-width="3" fill="#FFFFFF" cx="60" cy="60" r="60"></circle>
            <g id="Page-1" transform="translate(27.000000, 31.000000)" fill="#36246A">
              <path d="M25.3690161,39.7798742 L42.4686646,39.7798742 L42.4686646,28.3398336 L25.3690161,28.3398336 L25.3690161,39.7798742 Z M33.9182408,18.6699694 C35.2120155,18.6699694 36.4278519,19.1865769 37.3523193,20.1279778 C38.2731895,21.0681545 38.7791885,22.3131541 38.7791885,23.6328292 L38.7791885,25.4629908 L29.0572931,25.4629908 L29.0572931,23.6328292 C29.0572931,20.8955439 31.2359665,18.6699694 33.9182408,18.6699694 Z M39.3427419,18.0946009 C37.8906926,16.607212 35.9638197,15.7906783 33.9182408,15.7906783 C29.6855952,15.7906783 26.2395262,19.3089958 26.2395262,23.6328292 L26.2395262,25.4629908 L24.7622969,25.4629908 C23.5416643,25.4629908 22.5500501,26.477843 22.5500501,27.725291 L22.5500501,40.3980893 C22.5500501,41.6430889 23.5416643,42.6579411 24.7622969,42.6579411 L43.0741847,42.6579411 C44.2936183,42.6579411 45.2888296,41.6430889 45.2888296,40.3980893 L45.2888296,27.725291 C45.2888296,26.477843 44.2936183,25.4629908 43.0741847,25.4629908 L41.5969554,25.4629908 L41.5969554,23.6328292 C41.5969554,21.545588 40.7995873,19.577093 39.3427419,18.0946009 Z" id="Fill-1"></path>
              <path d="M34.0796329,34.5321458 C33.4597242,34.5321458 32.9549242,34.0155383 32.9549242,33.3826328 C32.9549242,32.7472791 33.4597242,32.2331199 34.0796329,32.2331199 C34.6995416,32.2331199 35.2043416,32.7472791 35.2043416,33.3826328 C35.2043416,34.0155383 34.6995416,34.5321458 34.0796329,34.5321458 M34.0796329,37.4102127 C36.2559082,37.4102127 38.0233075,35.6020864 38.0233075,33.3826328 C38.0233075,31.1607309 36.2559082,29.355053 34.0796329,29.355053 C31.9069548,29.355053 30.1359583,31.1607309 30.1359583,33.3826328 C30.1359583,35.6020864 31.9069548,37.4102127 34.0796329,37.4102127" id="Fill-3"></path>
              <path d="M53.297163,9.10758902 C48.0609127,3.76278247 41.0992299,0.818609375 33.7010929,0.818609375 C26.1662643,0.818609375 19.1170508,3.85214822 13.8568195,9.36099601 C13.2860718,9.95839995 13.2980623,10.9218362 13.8808005,11.5216885 C14.4647377,12.1044022 15.410788,12.0921603 15.9971233,11.4935322 C20.6950003,6.58208835 26.9732247,3.87785618 33.7010929,3.87785618 C47.3414829,3.86439011 58.431494,15.1881328 58.431494,29.1157242 C58.431494,43.0408672 47.3414829,54.3646099 33.7010929,54.3646099 C20.0595039,54.3646099 8.96949274,43.0408672 8.96949274,29.1157242 L8.96949274,28.7974352 L11.4323409,31.310694 C11.7189138,31.603275 12.1038088,31.7550744 12.4911019,31.7550744 C12.8747978,31.7550744 13.2489013,31.603275 13.5462656,31.310694 C14.1314019,30.7145142 14.1314019,29.7486296 13.5462656,29.1524498 L8.54862628,24.0353423 C7.96229095,23.4403868 7.0186388,23.4403868 6.43590062,24.0353423 L1.42387266,29.1524498 C0.837537332,29.7486296 0.837537332,30.7145142 1.42387266,31.310694 C1.7116446,31.603275 2.09534052,31.7550744 2.48143454,31.7550744 C2.86513046,31.7550744 3.23803493,31.603275 3.53659832,31.310694 L6.00064556,28.7974352 L6.00064556,29.1157242 C6.00064556,36.6677424 8.88436021,43.7753803 14.1194114,49.121411 C19.3520645,54.4637692 26.3173445,57.4103906 33.7142824,57.4103906 C41.1112204,57.4103906 48.0765004,54.4637692 53.3091535,49.121411 C58.5442047,43.7753803 61.4159288,36.6677424 61.4159288,29.1157242 C61.4159288,21.5612576 58.5322142,14.4523956 53.297163,9.10758902" id="Fill-4"></path>
            </g>
          </g>
        </g>
      </g>
    </g>
  </g>
</svg>
