<?xml version="1.0" encoding="UTF-8"?>
<svg xmlns="http://www.w3.org/2000/svg" xmlns:xlink="http://www.w3.org/1999/xlink" width="124px" height="124px" viewBox="0 0 124 124">
  <!-- Generator: Sketch 50.2 (55047) - http://www.bohemiancoding.com/sketch -->
  <title>Banking Applications</title>
  <desc>Created with Sketch.</desc>
  <defs>
    <polygon id="path-1" points="0.000110344828 0.836381395 63.5508966 0.836381395 63.5508966 47 0.000110344828 47"></polygon>
  </defs>
  <g id="Design" stroke="none" stroke-width="1" fill="none" fill-rule="evenodd">
    <g id="digital_banking_platform" transform="translate(-297.000000, -969.000000)">
      <g id="why?" transform="translate(208.000000, 856.000000)">
        <g id="icon-section" transform="translate(1.000000, 115.000000)">
          <g id="Banking-Applications" transform="translate(90.000000, 0.000000)">
            <g id="icon-1" fill="#FFFFFF" stroke="#704C9F" stroke-width="3">
              <circle id="Oval" cx="60" cy="60" r="60"></circle>
            </g>
            <g id="Group-16" transform="translate(28.000000, 36.000000)">
              <g id="Group-3">
                <mask id="mask-2" fill="white">
                  <use xlink:href="#path-1"></use>
                </mask>
                <g id="Clip-2"></g>
                <path d="M61.4323862,43.8523116 C61.4323862,44.431614 60.9579034,44.901614 60.3730759,44.901614 L19.0643862,44.901614 L19.0643862,2.93389302 L60.3730759,2.93389302 C60.9579034,2.93389302 61.4323862,3.40389302 61.4323862,3.98319535 L61.4323862,43.8523116 Z M16.946869,44.901614 L3.17693793,44.901614 C2.59211034,44.901614 2.11873103,44.431614 2.11873103,43.8523116 L2.11873103,3.98319535 C2.11873103,3.40389302 2.59211034,2.93389302 3.17693793,2.93389302 L16.946869,2.93389302 L16.946869,44.901614 Z M60.3730759,0.836381395 L3.17693793,0.836381395 C1.42245517,0.836381395 0.000110344828,2.2463814 0.000110344828,3.98319535 L0.000110344828,43.8523116 C0.000110344828,45.5902186 1.42245517,47.0002186 3.17693793,47.0002186 L60.3730759,47.0002186 C62.1286621,47.0002186 63.5510069,45.5902186 63.5510069,43.8523116 L63.5510069,3.98319535 C63.5510069,2.2463814 62.1286621,0.836381395 60.3730759,0.836381395 Z" id="Fill-1" fill="#36246A" mask="url(#mask-2)"></path>
              </g>
              <path d="M9.53257931,28.1155093 C7.19326897,28.1155093 5.29533793,26.2355093 5.29533793,23.9183 C5.29533793,21.5999977 7.19326897,19.7210907 9.53257931,19.7210907 C11.8718897,19.7210907 13.7698207,21.5999977 13.7698207,23.9183 C13.7698207,26.2355093 11.8718897,28.1155093 9.53257931,28.1155093 M9.53257931,17.622486 C6.02251034,17.622486 3.17671724,20.441393 3.17671724,23.9183 C3.17671724,27.395207 6.02251034,30.2130209 9.53257931,30.2130209 C13.0426483,30.2130209 15.8884414,27.395207 15.8884414,23.9183 C15.885131,20.442486 13.0415448,17.6257651 9.53257931,17.622486" id="Fill-4" fill="#36246A"></path>
              <path d="M5.29544828,12.3773953 L13.769931,12.3773953 L13.769931,8.18018605 L5.29544828,8.18018605 L5.29544828,12.3773953 Z M14.8292414,6.0815814 L4.23724138,6.0815814 C3.65241379,6.0815814 3.17682759,6.5515814 3.17682759,7.13088372 L3.17682759,13.4256047 C3.17682759,14.006 3.65241379,14.474907 4.23724138,14.474907 L14.8292414,14.474907 C15.4129655,14.474907 15.8885517,14.006 15.8885517,13.4256047 L15.8885517,7.13088372 C15.8885517,6.5515814 15.4129655,6.0815814 14.8292414,6.0815814 Z" id="Fill-6" fill="#36246A"></path>
              <path d="M5.29544828,39.6548837 L13.769931,39.6548837 L13.769931,35.4576744 L5.29544828,35.4576744 L5.29544828,39.6548837 Z M14.8292414,33.3612558 L4.23724138,33.3612558 C3.65241379,33.3612558 3.17682759,33.8301628 3.17682759,34.4094651 L3.17682759,40.704186 C3.17682759,41.2845814 3.65241379,41.7534884 4.23724138,41.7534884 L14.8292414,41.7534884 C15.4129655,41.7534884 15.8885517,41.2845814 15.8885517,40.704186 L15.8885517,34.4094651 C15.8885517,33.8301628 15.4129655,33.3612558 14.8292414,33.3612558 Z" id="Fill-8" fill="#36246A"></path>
              <path d="M34.8321103,27.1644698 L37.3181793,25.5708419 L29.2056276,22.6972837 L32.1065931,30.7331907 L33.7154207,28.2706093 L35.4566621,29.996493 C35.7656276,30.3014465 36.2654897,30.3014465 36.5744552,29.996493 C36.8823172,29.6904465 36.8823172,29.194214 36.5744552,28.8892605 L34.8321103,27.1644698 Z" id="Fill-9" fill="#36246A"></path>
              <path d="M24.8816552,16.2029767 L33.3561379,16.2029767 L33.3561379,8.71686047 L24.8816552,8.71686047 L24.8816552,16.2029767 Z M34.4154483,6.61934884 L23.8234483,6.61934884 C23.2386207,6.61934884 22.7630345,7.08825581 22.7630345,7.66865116 L22.7630345,17.251186 C22.7630345,17.8315814 23.2386207,18.3004884 23.8234483,18.3004884 L34.4154483,18.3004884 C34.9991724,18.3004884 35.4747586,17.8315814 35.4747586,17.251186 L35.4747586,7.66865116 C35.4747586,7.08825581 34.9991724,6.61934884 34.4154483,6.61934884 Z" id="Fill-10" fill="#36246A"></path>
              <path d="M40.4678621,16.2029767 L55.3633103,16.2029767 L55.3633103,8.71686047 L40.4678621,8.71686047 L40.4678621,16.2029767 Z M56.4226207,6.61934884 L39.4096552,6.61934884 C38.8248276,6.61934884 38.3492414,7.08825581 38.3492414,7.66865116 L38.3492414,17.251186 C38.3492414,17.8315814 38.8248276,18.3004884 39.4096552,18.3004884 L56.4226207,18.3004884 C57.0074483,18.3004884 57.481931,17.8315814 57.481931,17.251186 L57.481931,7.66865116 C57.481931,7.08825581 57.0074483,6.61934884 56.4226207,6.61934884 Z" id="Fill-11" fill="#36246A"></path>
              <path d="M24.8816552,44.6215814 L33.3561379,44.6215814 L33.3561379,37.1354651 L24.8816552,37.1354651 L24.8816552,44.6215814 Z M34.4154483,35.0379535 L23.8234483,35.0379535 C23.2386207,35.0379535 22.7630345,35.5068605 22.7630345,36.0872558 L22.7630345,45.6697907 C22.7630345,46.250186 23.2386207,46.719093 23.8234483,46.719093 L34.4154483,46.719093 C34.9991724,46.719093 35.4747586,46.250186 35.4747586,45.6697907 L35.4747586,36.0872558 C35.4747586,35.5068605 34.9991724,35.0379535 34.4154483,35.0379535 Z" id="Fill-12" fill="#36246A"></path>
              <path d="M40.4678621,44.6215814 L55.3633103,44.6215814 L55.3633103,37.1354651 L40.4678621,37.1354651 L40.4678621,44.6215814 Z M56.4226207,35.0379535 L39.4096552,35.0379535 C38.8248276,35.0379535 38.3492414,35.5068605 38.3492414,36.0872558 L38.3492414,45.6697907 C38.3492414,46.250186 38.8248276,46.719093 39.4096552,46.719093 L56.4226207,46.719093 C57.0074483,46.719093 57.481931,46.250186 57.481931,45.6697907 L57.481931,36.0872558 C57.481931,35.5068605 57.0074483,35.0379535 56.4226207,35.0379535 Z" id="Fill-13" fill="#36246A"></path>
              <path d="M46.889931,30.548907 L55.3633103,30.548907 L55.3633103,23.0627907 L46.889931,23.0627907 L46.889931,30.548907 Z M45.8295172,32.6464186 L56.4226207,32.6464186 C57.0074483,32.6464186 57.481931,32.1775116 57.481931,31.5971163 L57.481931,22.0134884 C57.481931,21.433093 57.0074483,20.9652791 56.4226207,20.9652791 L45.8295172,20.9652791 C45.2457931,20.9652791 44.7713103,21.433093 44.7713103,22.0134884 L44.7713103,31.5971163 C44.7713103,32.1775116 45.2457931,32.6464186 45.8295172,32.6464186 Z" id="Fill-14" fill="#36246A"></path>
            </g>
          </g>
        </g>
      </g>
    </g>
  </g>
</svg>
