<?xml version="1.0" encoding="UTF-8"?>
<svg xmlns="http://www.w3.org/2000/svg" xmlns:xlink="http://www.w3.org/1999/xlink" width="29px" height="27px" viewBox="0 0 29 27">
  <!-- Generator: Sketch 50 (54983) - http://www.bohemiancoding.com/sketch -->
  <title>bb-icon</title>
  <desc>Created with Sketch.</desc>
  <defs>
    <polygon id="path-1" points="0.2165 0.2813 28.6615 0.2813 28.6615 4 0.2165 4"></polygon>
    <polygon id="path-3" points="0 0.18545 28.8779476 0.18545 28.8779476 7.9432 0 7.9432"></polygon>
  </defs>
  <g id="Design" stroke="none" stroke-width="1" fill="none" fill-rule="evenodd">
    <g id="dropdown_menu" transform="translate(-488.000000, -358.000000)">
      <g id="bb-icon" transform="translate(488.000000, 358.000000)">
        <g id="Group-3" transform="translate(0.000000, 23.000000)">
          <mask id="mask-2" fill="white">
            <use xlink:href="#path-1"></use>
          </mask>
          <g id="Clip-2"></g>
          <path d="M1.1205,0.8123 C0.9115,0.8123 0.7475,0.9753 0.7475,1.1843 L0.7475,3.0973 C0.7475,3.3053 0.9115,3.4683 1.1205,3.4683 L27.7585,3.4683 C27.9665,3.4683 28.1305,3.3053 28.1305,3.0973 L28.1305,1.1843 C28.1305,0.9753 27.9665,0.8123 27.7585,0.8123 L1.1205,0.8123 Z M27.7585,4.0003 L1.1205,4.0003 C0.6215,4.0003 0.2165,3.5953 0.2165,3.0973 L0.2165,1.1843 C0.2165,0.6863 0.6215,0.2813 1.1205,0.2813 L27.7585,0.2813 C28.2565,0.2813 28.6615,0.6863 28.6615,1.1843 L28.6615,3.0973 C28.6615,3.5953 28.2565,4.0003 27.7585,4.0003 Z" id="Fill-1" fill="#36246A" mask="url(#mask-2)"></path>
        </g>
        <path d="M3.2988,23.2098 L25.5088,23.2098 L25.5088,22.5548 C25.5088,22.2058 25.2028,21.8988 24.8538,21.8988 L3.9538,21.8988 C3.6048,21.8988 3.2988,22.2058 3.2988,22.5548 L3.2988,23.2098 Z M25.7748,23.7408 L3.0328,23.7408 C2.8858,23.7408 2.7678,23.6218 2.7678,23.4758 L2.7678,22.5548 C2.7678,21.9108 3.3108,21.3678 3.9538,21.3678 L24.8538,21.3678 C25.4968,21.3678 26.0398,21.9108 26.0398,22.5548 L26.0398,23.4758 C26.0398,23.6218 25.9218,23.7408 25.7748,23.7408 Z" id="Fill-4" fill="#36246A"></path>
        <path d="M5.7782,20.0926 L9.0722,20.0926 L9.0722,19.9466 C8.7032,19.8326 8.4352,19.4886 8.4352,19.0826 L8.4352,12.1406 C8.4352,11.7346 8.7032,11.3906 9.0722,11.2776 L9.0722,11.1306 L5.7782,11.1306 L5.7782,11.2776 C6.1472,11.3906 6.4162,11.7346 6.4162,12.1406 L6.4162,19.0826 C6.4162,19.4886 6.1472,19.8326 5.7782,19.9466 L5.7782,20.0926 Z M9.3382,20.6236 L5.5122,20.6236 C5.3652,20.6236 5.2472,20.5046 5.2472,20.3586 L5.2472,19.7206 C5.2472,19.5736 5.3652,19.4546 5.5122,19.4546 C5.7212,19.4546 5.8842,19.2916 5.8842,19.0826 L5.8842,12.1406 C5.8842,11.9316 5.7212,11.7686 5.5122,11.7686 C5.3652,11.7686 5.2472,11.6496 5.2472,11.5026 L5.2472,10.8646 C5.2472,10.7186 5.3652,10.5996 5.5122,10.5996 L9.3382,10.5996 C9.4852,10.5996 9.6042,10.7186 9.6042,10.8646 L9.6042,11.5026 C9.6042,11.6496 9.4852,11.7686 9.3382,11.7686 C9.1292,11.7686 8.9662,11.9316 8.9662,12.1406 L8.9662,19.0826 C8.9662,19.2916 9.1292,19.4546 9.3382,19.4546 C9.4852,19.4546 9.6042,19.5736 9.6042,19.7206 L9.6042,20.3586 C9.6042,20.5046 9.4852,20.6236 9.3382,20.6236 Z M12.7922,20.0926 L16.0862,20.0926 L16.0862,19.9466 C15.7172,19.8326 15.4482,19.4886 15.4482,19.0826 L15.4482,12.1406 C15.4482,11.7346 15.7172,11.3906 16.0862,11.2776 L16.0862,11.1306 L12.7922,11.1306 L12.7922,11.2776 C13.1612,11.3906 13.4292,11.7346 13.4292,12.1406 L13.4292,19.0826 C13.4292,19.4886 13.1612,19.8326 12.7922,19.9466 L12.7922,20.0926 Z M16.3522,20.6236 L12.5262,20.6236 C12.3792,20.6236 12.2602,20.5046 12.2602,20.3586 L12.2602,19.7206 C12.2602,19.5736 12.3792,19.4546 12.5262,19.4546 C12.7352,19.4546 12.8982,19.2916 12.8982,19.0826 L12.8982,12.1406 C12.8982,11.9316 12.7352,11.7686 12.5262,11.7686 C12.3792,11.7686 12.2602,11.6496 12.2602,11.5026 L12.2602,10.8646 C12.2602,10.7186 12.3792,10.5996 12.5262,10.5996 L16.3522,10.5996 C16.4992,10.5996 16.6172,10.7186 16.6172,10.8646 L16.6172,11.5026 C16.6172,11.6496 16.4992,11.7686 16.3522,11.7686 C16.1432,11.7686 15.9802,11.9316 15.9802,12.1406 L15.9802,19.0826 C15.9802,19.2916 16.1432,19.4546 16.3522,19.4546 C16.4992,19.4546 16.6172,19.5736 16.6172,19.7206 L16.6172,20.3586 C16.6172,20.5046 16.4992,20.6236 16.3522,20.6236 Z M19.7352,20.0926 L23.0292,20.0926 L23.0292,19.9466 C22.6602,19.8326 22.3912,19.4886 22.3912,19.0826 L22.3912,12.1406 C22.3912,11.7346 22.6602,11.3906 23.0292,11.2776 L23.0292,11.1306 L19.7352,11.1306 L19.7352,11.2776 C20.1042,11.3906 20.3722,11.7346 20.3722,12.1406 L20.3722,19.0826 C20.3722,19.4886 20.1042,19.8326 19.7352,19.9466 L19.7352,20.0926 Z M23.2952,20.6236 L19.4692,20.6236 C19.3222,20.6236 19.2032,20.5046 19.2032,20.3586 L19.2032,19.7206 C19.2032,19.5736 19.3222,19.4546 19.4692,19.4546 C19.6772,19.4546 19.8412,19.2916 19.8412,19.0826 L19.8412,12.1406 C19.8412,11.9316 19.6772,11.7686 19.4692,11.7686 C19.3222,11.7686 19.2032,11.6496 19.2032,11.5026 L19.2032,10.8646 C19.2032,10.7186 19.3222,10.5996 19.4692,10.5996 L23.2952,10.5996 C23.4412,10.5996 23.5602,10.7186 23.5602,10.8646 L23.5602,11.5026 C23.5602,11.6496 23.4412,11.7686 23.2952,11.7686 C23.0862,11.7686 22.9232,11.9316 22.9232,12.1406 L22.9232,19.0826 C22.9232,19.2916 23.0862,19.4546 23.2952,19.4546 C23.4412,19.4546 23.5602,19.5736 23.5602,19.7206 L23.5602,20.3586 C23.5602,20.5046 23.4412,20.6236 23.2952,20.6236 Z" id="Fill-6" fill="#36246A"></path>
        <path d="M3.2988,7.9432 L3.2988,8.5982 C3.2988,8.9472 3.6048,9.2542 3.9538,9.2542 L24.9238,9.2542 C25.2738,9.2542 25.5798,8.9472 25.5798,8.5982 L25.5798,7.9432 L3.2988,7.9432 Z M24.9238,9.7852 L3.9538,9.7852 C3.3108,9.7852 2.7678,9.2412 2.7678,8.5982 L2.7678,7.6772 C2.7678,7.5302 2.8858,7.4122 3.0328,7.4122 L25.8458,7.4122 C25.9918,7.4122 26.1108,7.5302 26.1108,7.6772 L26.1108,8.5982 C26.1108,9.2412 25.5678,9.7852 24.9238,9.7852 Z" id="Fill-8" fill="#36246A"></path>
        <g id="Group-12">
          <mask id="mask-4" fill="white">
            <use xlink:href="#path-3"></use>
          </mask>
          <g id="Clip-11"></g>
          <path d="M0.5878,7.3602 C0.6728,7.3832 0.8338,7.4122 1.1208,7.4122 L27.7578,7.4122 C28.0458,7.4122 28.2058,7.3842 28.2908,7.3602 C28.2268,7.2982 28.0988,7.1972 27.8448,7.0602 L15.4548,0.9012 C14.8298,0.6522 14.0608,0.6512 13.4138,0.9062 L1.0258,7.0652 C0.7768,7.1992 0.6498,7.2982 0.5878,7.3602 M27.7578,7.9432 L1.1208,7.9432 C0.6918,7.9432 0.1118,7.8972 0.0128,7.5062 C-0.0862,7.1122 0.4038,6.7972 0.7818,6.5932 L13.1878,0.4252 C13.1938,0.4222 13.2008,0.4202 13.2068,0.4172 C13.9788,0.1082 14.8998,0.1082 15.6708,0.4172 L28.0888,6.5892 C28.4738,6.7972 28.9648,7.1122 28.8648,7.5062 C28.7668,7.8972 28.1858,7.9432 27.7578,7.9432" id="Fill-10" fill="#36246A" mask="url(#mask-4)"></path>
        </g>
      </g>
    </g>
  </g>
</svg>
