<?xml version="1.0" encoding="UTF-8"?>
<svg xmlns="http://www.w3.org/2000/svg" xmlns:xlink="http://www.w3.org/1999/xlink" width="124px" height="124px" viewBox="0 0 124 124">
  <!-- Generator: Sketch 50.2 (55047) - http://www.bohemiancoding.com/sketch -->
  <title>Box Icon</title>
  <desc>Created with Sketch.</desc>
  <defs>
    <polygon id="path-1" points="0.000231701516 0.250070414 63.998 0.250070414 63.998 51 0.000231701516 51"></polygon>
  </defs>
  <g id="Design" stroke="none" stroke-width="1" fill="none" fill-rule="evenodd">
    <g id="retail_banking" transform="translate(-662.000000, -1028.000000)">
      <g id="Box-Icon" transform="translate(664.000000, 1030.000000)">
        <g id="Group-16">
          <circle id="Oval-Copy" stroke="#704C9F" stroke-width="3" fill="#FFFFFF" cx="60" cy="60" r="60"></circle>
          <g id="Group-11" transform="translate(28.000000, 39.000000)">
            <mask id="mask-2" fill="white">
              <use xlink:href="#path-1"></use>
            </mask>
            <g id="Clip-10"></g>
            <path d="M24.3266,2.8872 L29.1796,6.1222 L9.6026,12.6472 L4.3896,9.9622 L24.3266,2.8872 Z M39.6716,2.8872 L59.6076,9.9622 L54.3946,12.6472 L34.8186,6.1222 L39.6716,2.8872 Z M42.1876,27.5792 L34.6576,21.9312 L54.2406,15.4032 L60.3136,20.3722 L42.1876,27.5792 Z M53.2486,41.3482 L33.2496,48.0152 L33.2496,24.0002 L41.2486,30.0002 C41.5946,30.2592 42.0536,30.3232 42.4606,30.1612 L53.2486,25.8722 L53.2486,41.3482 Z M10.7496,25.8722 L21.5376,30.1612 C21.6856,30.2202 21.8436,30.2502 21.9986,30.2502 C22.2646,30.2502 22.5296,30.1642 22.7496,30.0002 L30.7496,24.0002 L30.7496,48.0152 L10.7496,41.3482 L10.7496,25.8722 Z M31.9996,7.8172 L50.5466,14.0002 L31.9996,20.1822 L13.4516,14.0002 L31.9996,7.8172 Z M9.7576,15.4042 L29.3406,21.9312 L21.8096,27.5792 L3.6836,20.3722 L9.7576,15.4042 Z M0.7876,21.9112 L8.2496,24.8782 L8.2496,42.2502 C8.2496,42.7882 8.5936,43.2652 9.1036,43.4352 L31.6036,50.9352 C31.6056,50.9362 31.6076,50.9362 31.6106,50.9372 C31.7336,50.9772 31.8756,51.0002 31.9996,51.0002 C32.1346,51.0002 32.2656,50.9772 32.3896,50.9362 C32.3906,50.9362 32.3916,50.9362 32.3936,50.9352 L54.8936,43.4352 C55.4046,43.2652 55.7486,42.7882 55.7486,42.2502 L55.7486,24.8782 L63.2106,21.9112 C64.0946,21.5602 64.2766,20.3852 63.5406,19.7822 L56.7646,14.2392 L63.3206,10.8612 C64.2926,10.3612 64.1966,8.9372 63.1666,8.5722 L39.9176,0.3222 C39.5456,0.1902 39.1336,0.2412 38.8056,0.4602 L31.9996,4.9972 L25.1926,0.4602 C24.8646,0.2412 24.4526,0.1902 24.0816,0.3222 L0.8316,8.5722 C0.8196,8.5752 0.8096,8.5812 0.7996,8.5852 C-0.2074,8.9732 -0.2724,10.3542 0.6606,10.8512 C0.6666,10.8542 0.6716,10.8582 0.6776,10.8612 L7.2326,14.2392 L0.4576,19.7822 L0.4546,19.7852 C-0.2874,20.3952 -0.0814,21.5662 0.7876,21.9112 Z" id="Fill-9" fill="#36246A" mask="url(#mask-2)"></path>
          </g>
        </g>
        <g id="Page-1" transform="translate(28.000000, 26.000000)" fill="#36246A">
          <path d="M49.4985,52.75 C50.1885,52.75 50.7485,52.189 50.7485,51.5 C50.7485,50.81 50.1885,50.25 49.4985,50.25 C48.8095,50.25 48.2485,50.81 48.2485,51.5 C48.2485,52.189 48.8095,52.75 49.4985,52.75" id="Fill-1"></path>
          <path d="M44.4985,5.75 C45.1885,5.75 45.7485,5.19 45.7485,4.5 C45.7485,3.81 45.1885,3.25 44.4985,3.25 C43.8095,3.25 43.2485,3.81 43.2485,4.5 C43.2485,5.19 43.8095,5.75 44.4985,5.75" id="Fill-3"></path>
          <path d="M19.4995,5.75 C20.1885,5.75 20.7495,5.19 20.7495,4.5 C20.7495,3.81 20.1885,3.25 19.4995,3.25 C18.8095,3.25 18.2495,3.81 18.2495,4.5 C18.2495,5.19 18.8095,5.75 19.4995,5.75" id="Fill-5"></path>
          <path d="M35.813,56.207 C36.031,56.861 36.738,57.217 37.394,56.998 L45.197,54.398 C45.852,54.18 46.206,53.472 45.988,52.817 C45.769,52.162 45.062,51.808 44.407,52.026 L36.604,54.626 C35.949,54.845 35.595,55.553 35.813,56.207" id="Fill-7"></path>
          <path d="M29.4995,5 L30.7495,5 L30.7495,6.25 C30.7495,6.94 31.3095,7.5 31.9995,7.5 C32.6885,7.5 33.2495,6.94 33.2495,6.25 L33.2495,5 L34.4995,5 C35.1885,5 35.7495,4.44 35.7495,3.75 C35.7495,3.06 35.1885,2.5 34.4995,2.5 L33.2495,2.5 L33.2495,1.25 C33.2495,0.56 32.6885,0 31.9995,0 C31.3095,0 30.7495,0.56 30.7495,1.25 L30.7495,2.5 L29.4995,2.5 C28.8095,2.5 28.2495,3.06 28.2495,3.75 C28.2495,4.44 28.8095,5 29.4995,5" id="Fill-12"></path>
          <path d="M9.4995,10.75 L10.7495,10.75 L10.7495,12 C10.7495,12.69 11.3095,13.25 11.9995,13.25 C12.6885,13.25 13.2495,12.69 13.2495,12 L13.2495,10.75 L14.4995,10.75 C15.1885,10.75 15.7495,10.19 15.7495,9.5 C15.7495,8.81 15.1885,8.25 14.4995,8.25 L13.2495,8.25 L13.2495,7 C13.2495,6.31 12.6885,5.75 11.9995,5.75 C11.3095,5.75 10.7495,6.31 10.7495,7 L10.7495,8.25 L9.4995,8.25 C8.8095,8.25 8.2495,8.81 8.2495,9.5 C8.2495,10.19 8.8095,10.75 9.4995,10.75" id="Fill-14"></path>
          <path d="M49.4985,10.75 L50.7485,10.75 L50.7485,12 C50.7485,12.69 51.3095,13.25 51.9985,13.25 C52.6885,13.25 53.2485,12.69 53.2485,12 L53.2485,10.75 L54.4985,10.75 C55.1885,10.75 55.7485,10.19 55.7485,9.5 C55.7485,8.81 55.1885,8.25 54.4985,8.25 L53.2485,8.25 L53.2485,7 C53.2485,6.31 52.6885,5.75 51.9985,5.75 C51.3095,5.75 50.7485,6.31 50.7485,7 L50.7485,8.25 L49.4985,8.25 C48.8095,8.25 48.2485,8.81 48.2485,9.5 C48.2485,10.19 48.8095,10.75 49.4985,10.75" id="Fill-16"></path>
        </g>
      </g>
    </g>
  </g>
</svg>
