<?xml version="1.0" encoding="UTF-8"?>
<svg xmlns="http://www.w3.org/2000/svg" xmlns:xlink="http://www.w3.org/1999/xlink" width="30px" height="30px" viewBox="0 0 30 30">
  <!-- Generator: Sketch 50.2 (55047) - http://www.bohemiancoding.com/sketch -->
  <title>check</title>
  <desc>Created with Sketch.</desc>
  <defs>
    <polygon id="path-1" points="0 0.9665 29.032 0.9665 29.032 30 0 30"></polygon>
  </defs>
  <g id="Design" stroke="none" stroke-width="1" fill="none" fill-rule="evenodd">
    <g id="retail_banking" transform="translate(-733.000000, -2219.000000)">
      <g id="Platform" transform="translate(0.000000, 1962.000000)">
        <g id="check" transform="translate(733.000000, 256.000000)">
          <g id="Group-3" transform="translate(0.000000, 0.033500)">
            <mask id="mask-2" fill="white">
              <use xlink:href="#path-1"></use>
            </mask>
            <g id="Clip-2"></g>
            <path d="M14.5164,0.9665 C6.5114,0.9665 -0.0006,7.4785 -0.0006,15.4825 C-0.0006,23.4875 6.5114,30.0005 14.5164,30.0005 C22.5214,30.0005 29.0324,23.4875 29.0324,15.4825 C29.0324,7.4785 22.5214,0.9665 14.5164,0.9665 M14.5164,28.8565 C7.1424,28.8565 1.1424,22.8575 1.1424,15.4825 C1.1424,8.1085 7.1424,2.1105 14.5164,2.1105 C21.8904,2.1105 27.8894,8.1085 27.8894,15.4825 C27.8894,22.8575 21.8904,28.8565 14.5164,28.8565" id="Fill-1" fill="#704C9F" mask="url(#mask-2)"></path>
          </g>
          <path d="M21.6971,10.1777 L12.2321,19.6427 L9.2401,16.6507 C9.0171,16.4277 8.6551,16.4277 8.4321,16.6507 C8.2091,16.8747 8.2091,17.2357 8.4321,17.4597 L11.8291,20.8557 C11.9401,20.9667 12.0871,21.0227 12.2321,21.0227 C12.3791,21.0227 12.5251,20.9667 12.6361,20.8557 L22.5071,10.9867 C22.7291,10.7627 22.7291,10.4007 22.5071,10.1777 C22.2821,9.9547 21.9211,9.9547 21.6971,10.1777" id="Fill-4" fill="#704C9F"></path>
        </g>
      </g>
    </g>
  </g>
</svg>
