<?xml version="1.0" encoding="UTF-8"?>
<svg xmlns="http://www.w3.org/2000/svg" xmlns:xlink="http://www.w3.org/1999/xlink" width="124px" height="124px" viewBox="0 0 124 124">
  <!-- Generator: Sketch 50.2 (55047) - http://www.bohemiancoding.com/sketch -->
  <title>check-target</title>
  <desc>Created with Sketch.</desc>
  <defs></defs>
  <g id="Design" stroke="none" stroke-width="1" fill="none" fill-rule="evenodd">
    <g id="digital_wallet" transform="translate(-1069.000000, -972.000000)">
      <g id="check-target" transform="translate(1071.000000, 974.000000)">
        <g id="icon-3" fill="#FFFFFF" stroke="#704C9F" stroke-width="3">
          <circle id="Oval-Copy-2" cx="60" cy="60" r="60"></circle>
        </g>
        <g id="Page-1" transform="translate(32.000000, 30.000000)" fill="#36246A">
          <path d="M28.25,54.324 C13.873,54.324 2.176,42.627 2.176,28.25 C2.176,13.873 13.873,2.176 28.25,2.176 C42.627,2.176 54.324,13.873 54.324,28.25 C54.324,42.627 42.627,54.324 28.25,54.324 M28.25,0 C12.674,0 0,12.674 0,28.25 C0,43.826 12.674,56.5 28.25,56.5 C43.826,56.5 56.5,43.826 56.5,28.25 C56.5,12.674 43.826,0 28.25,0" id="Fill-1"></path>
          <path d="M41.5231564,17.3677189 L24.8231564,36.1527189 L14.7631564,28.1047189 C14.2971564,27.7277189 13.6131564,27.8077189 13.2351564,28.2747189 C12.8651564,28.7427189 12.9391564,29.4257189 13.4051564,29.8027189 L24.2701564,38.4917189 C24.4721564,38.6507189 24.7111564,38.7307189 24.9491564,38.7307189 C25.2521564,38.7307189 25.5491564,38.6087189 25.7661564,38.3637189 L43.1461564,18.8097189 C43.5491564,18.3597189 43.5061564,17.6747189 43.0551564,17.2767189 C42.6101564,16.8737189 41.9211564,16.9167189 41.5231564,17.3677189" id="Fill-3"></path>
        </g>
      </g>
    </g>
  </g>
</svg>
