<?xml version="1.0" encoding="UTF-8"?>
<svg xmlns="http://www.w3.org/2000/svg" xmlns:xlink="http://www.w3.org/1999/xlink" width="45px" height="45px" viewBox="0 0 45 45">
  <!-- Generator: Sketch 50.2 (55047) - http://www.bohemiancoding.com/sketch -->
  <title>check_wht</title>
  <desc>Created with Sketch.</desc>
  <defs></defs>
  <g id="Design" stroke="none" stroke-width="1" fill="none" fill-rule="evenodd">
    <g id="products" transform="translate(-720.000000, -1492.000000)">
      <g id="check_wht" transform="translate(720.000000, 1492.000000)">
        <ellipse id="Oval-Copy-3" fill="#FFFFFF" fill-rule="nonzero" cx="22.2906977" cy="22.2681818" rx="22.2906977" ry="22.2681818"></ellipse>
        <path d="M22.0005167,7 C13.7288947,7 7,13.7286629 7,21.9989667 C7,30.2703038 13.7288947,37 22.0005167,37 C30.2721386,37 37,30.2703038 37,21.9989667 C37,13.7286629 30.2721386,7 22.0005167,7 M22.0005167,35.8179376 C14.3809114,35.8179376 8.18106982,29.6193428 8.18106982,21.9989667 C8.18106982,14.3796239 14.3809114,8.18206241 22.0005167,8.18206241 C29.6201219,8.18206241 35.8189302,14.3796239 35.8189302,21.9989667 C35.8189302,29.6193428 29.6201219,35.8179376 22.0005167,35.8179376" id="Fill-1" fill="#704C9F"></path>
        <path d="M28.9834302,16.1822516 L19.1300425,26.4962201 L16.0152685,23.235851 C15.7831179,22.9928489 15.4062636,22.9928489 15.174113,23.235851 C14.9419623,23.4799428 14.9419623,23.8733229 15.174113,24.1174147 L18.7105058,27.8180208 C18.8260606,27.938977 18.9790926,28 19.1300425,28 C19.2830745,28 19.4350655,27.938977 19.5506203,27.8180208 L29.8266678,17.0638153 C30.0577774,16.8197235 30.0577774,16.4252537 29.8266678,16.1822516 C29.5924352,15.9392495 29.2166218,15.9392495 28.9834302,16.1822516" id="Fill-4" fill="#704C9F"></path>
      </g>
    </g>
  </g>
</svg>
