<?xml version="1.0" encoding="UTF-8"?>
<svg xmlns="http://www.w3.org/2000/svg" xmlns:xlink="http://www.w3.org/1999/xlink" width="124px" height="124px" viewBox="0 0 124 124">
  <!-- Generator: Sketch 50.2 (55047) - http://www.bohemiancoding.com/sketch -->
  <title>code icon</title>
  <desc>Created with Sketch.</desc>
  <defs>
    <polygon id="path-1" points="0 0 57 0 57 56.9998 0 56.9998"></polygon>
  </defs>
  <g id="Design" stroke="none" stroke-width="1" fill="none" fill-rule="evenodd">
    <g id="retail_banking" transform="translate(-1025.000000, -1028.000000)">
      <g id="code-icon" transform="translate(1027.000000, 1030.000000)">
        <circle id="Oval-Copy-2" stroke="#704C9F" stroke-width="3" fill="#FFFFFF" cx="60" cy="60" r="60"></circle>
        <g id="Page-1" transform="translate(33.000000, 33.000000)">
          <path d="M5.9375,4.75 C6.5935,4.75 7.1245,5.282 7.1245,5.937 C7.1245,6.593 6.5935,7.125 5.9375,7.125 C5.2815,7.125 4.7505,6.593 4.7505,5.937 C4.7505,5.282 5.2815,4.75 5.9375,4.75" id="Fill-1" fill="#533279"></path>
          <path d="M10.6875,4.75 C11.3435,4.75 11.8745,5.282 11.8745,5.937 C11.8745,6.593 11.3435,7.125 10.6875,7.125 C10.0315,7.125 9.5005,6.593 9.5005,5.937 C9.5005,5.282 10.0315,4.75 10.6875,4.75" id="Fill-3" fill="#533279"></path>
          <path d="M15.4375,4.75 C16.0935,4.75 16.6245,5.282 16.6245,5.937 C16.6245,6.593 16.0935,7.125 15.4375,7.125 C14.7815,7.125 14.2505,6.593 14.2505,5.937 C14.2505,5.282 14.7815,4.75 15.4375,4.75" id="Fill-5" fill="#533279"></path>
          <path d="M15.0127,21.8018 C14.5917,21.3008 13.8467,21.2288 13.3397,21.6508 L6.2147,27.5888 C5.9447,27.8138 5.7877,28.1478 5.7877,28.4998 C5.7877,28.8528 5.9447,29.1868 6.2147,29.4118 L13.3397,35.3488 C13.5627,35.5348 13.8307,35.6248 14.0987,35.6248 C14.4407,35.6248 14.7777,35.4788 15.0127,35.1978 C15.4327,34.6948 15.3647,33.9458 14.8617,33.5258 L8.8307,28.4998 L14.8617,23.4738 C15.3647,23.0538 15.4327,22.3048 15.0127,21.8018" id="Fill-7" fill="#533279"></path>
          <path d="M27.3125,35.1982 C27.5475,35.4792 27.8855,35.6252 28.2265,35.6252 C28.4945,35.6252 28.7635,35.5342 28.9865,35.3492 L36.1115,29.4112 C36.3805,29.1862 36.5385,28.8522 36.5385,28.5002 C36.5385,28.1472 36.3805,27.8132 36.1115,27.5882 L28.9865,21.6512 C28.4815,21.2292 27.7345,21.3012 27.3125,21.8022 C26.8925,22.3052 26.9605,23.0542 27.4645,23.4742 L33.4955,28.5002 L27.4645,33.5262 C26.9605,33.9462 26.8925,34.6952 27.3125,35.1982" id="Fill-9" fill="#533279"></path>
          <path d="M25.1504,19.0952 C24.5514,18.8402 23.8494,19.1162 23.5914,19.7192 L16.4664,36.3442 C16.2094,36.9472 16.4884,37.6452 17.0904,37.9052 C17.2434,37.9702 17.4024,38.0002 17.5584,38.0002 C18.0184,38.0002 18.4574,37.7312 18.6494,37.2812 L25.7744,20.6562 C26.0334,20.0532 25.7544,19.3552 25.1504,19.0952" id="Fill-11" fill="#533279"></path>
          <g id="Group-15">
            <mask id="mask-2" fill="white">
              <use xlink:href="#path-1"></use>
            </mask>
            <g id="Clip-14"></g>
            <path d="M54.625,45.3848 L52.585,45.8948 C52.198,45.9918 51.885,46.2778 51.753,46.6558 C51.646,46.9598 51.531,47.2568 51.391,47.5438 C51.216,47.9058 51.234,48.3298 51.44,48.6758 L52.518,50.4708 L50.471,52.5168 L48.675,51.4408 C48.33,51.2318 47.903,51.2138 47.544,51.3898 C47.255,51.5308 46.957,51.6468 46.652,51.7538 C46.276,51.8858 45.992,52.1988 45.896,52.5868 L45.386,54.6248 L42.489,54.6248 L41.979,52.5868 C41.883,52.1988 41.599,51.8858 41.223,51.7538 C40.918,51.6468 40.62,51.5308 40.331,51.3898 C39.971,51.2158 39.545,51.2318 39.2,51.4408 L37.404,52.5168 L35.357,50.4708 L36.435,48.6758 C36.641,48.3298 36.659,47.9058 36.484,47.5438 C36.344,47.2568 36.229,46.9598 36.122,46.6558 C35.99,46.2778 35.677,45.9918 35.29,45.8948 L33.25,45.3848 L33.25,42.4898 L35.29,41.9798 C35.677,41.8828 35.99,41.5968 36.122,41.2188 C36.229,40.9158 36.344,40.6188 36.484,40.3308 C36.659,39.9688 36.641,39.5448 36.435,39.1988 L35.357,37.4038 L37.404,35.3588 L39.2,36.4348 C39.545,36.6408 39.968,36.6568 40.331,36.4858 C40.62,36.3438 40.918,36.2278 41.223,36.1218 C41.599,35.9888 41.883,35.6768 41.979,35.2888 L42.489,33.2498 L45.386,33.2498 L45.896,35.2888 C45.992,35.6768 46.276,35.9888 46.652,36.1218 C46.957,36.2278 47.255,36.3438 47.544,36.4858 C47.904,36.6568 48.33,36.6428 48.675,36.4348 L50.471,35.3588 L52.518,37.4038 L51.44,39.1988 C51.234,39.5448 51.216,39.9688 51.391,40.3308 C51.531,40.6188 51.646,40.9158 51.753,41.2188 C51.885,41.5968 52.198,41.8828 52.585,41.9798 L54.625,42.4898 L54.625,45.3848 Z M2.375,47.4998 L2.375,11.8748 L49.875,11.8748 L49.875,32.9458 L48.033,34.0508 L47.464,31.7748 C47.332,31.2458 46.857,30.8748 46.312,30.8748 L41.562,30.8748 C41.018,30.8748 40.543,31.2458 40.411,31.7748 L39.842,34.0508 L37.831,32.8438 C37.362,32.5638 36.764,32.6348 36.38,33.0228 L33.021,36.3808 C32.637,36.7658 32.563,37.3638 32.843,37.8328 L34.049,39.8418 L31.773,40.4098 C31.246,40.5418 30.875,41.0178 30.875,41.5628 L30.875,46.3128 C30.875,46.8578 31.246,47.3328 31.773,47.4658 L34.049,48.0338 L32.943,49.8748 L4.75,49.8748 C3.44,49.8748 2.375,48.8108 2.375,47.4998 Z M4.75,2.3748 L47.5,2.3748 C48.81,2.3748 49.875,3.4398 49.875,4.7498 L49.875,9.4998 L2.375,9.4998 L2.375,4.7498 C2.375,3.4398 3.44,2.3748 4.75,2.3748 Z M56.102,40.4098 L53.826,39.8418 L55.032,37.8328 C55.312,37.3638 55.238,36.7658 54.854,36.3808 L52.25,33.7778 L52.25,4.7498 C52.25,2.1318 50.12,-0.0002 47.5,-0.0002 L4.75,-0.0002 C2.13,-0.0002 0,2.1318 0,4.7498 L0,47.4998 C0,50.1188 2.13,52.2498 4.75,52.2498 L33.777,52.2498 L36.38,54.8528 C36.764,55.2378 37.361,55.3088 37.831,55.0308 L39.842,53.8248 L40.411,56.0998 C40.543,56.6288 41.018,56.9998 41.562,56.9998 L46.312,56.9998 C46.857,56.9998 47.332,56.6288 47.464,56.0998 L48.033,53.8248 L50.044,55.0308 C50.512,55.3118 51.11,55.2378 51.495,54.8528 L54.854,51.4938 C55.238,51.1088 55.312,50.5108 55.032,50.0418 L53.826,48.0338 L56.102,47.4658 C56.629,47.3328 57,46.8578 57,46.3128 L57,41.5628 C57,41.0178 56.629,40.5418 56.102,40.4098 Z" id="Fill-13" fill="#533279" mask="url(#mask-2)"></path>
          </g>
          <path d="M43.9375,47.5 C41.9725,47.5 40.3745,45.902 40.3745,43.937 C40.3745,41.973 41.9725,40.375 43.9375,40.375 C45.9025,40.375 47.5005,41.973 47.5005,43.937 C47.5005,45.902 45.9025,47.5 43.9375,47.5 M43.9375,38 C40.6645,38 38.0005,40.663 38.0005,43.937 C38.0005,47.212 40.6645,49.875 43.9375,49.875 C47.2105,49.875 49.8745,47.212 49.8745,43.937 C49.8745,40.663 47.2105,38 43.9375,38" id="Fill-16" fill="#533279"></path>
        </g>
      </g>
    </g>
  </g>
</svg>
