<?xml version="1.0" encoding="UTF-8"?>
<svg xmlns="http://www.w3.org/2000/svg" xmlns:xlink="http://www.w3.org/1999/xlink" width="45px" height="45px" viewBox="0 0 45 45">
  <!-- Generator: Sketch 50.2 (55047) - http://www.bohemiancoding.com/sketch -->
  <title>computer-screen</title>
  <desc>Created with Sketch.</desc>
  <defs></defs>
  <g id="Design" stroke="none" stroke-width="1" fill="none" fill-rule="evenodd">
    <g id="products" transform="translate(-132.000000, -1700.000000)">
      <g id="computer-screen" transform="translate(132.000000, 1700.000000)">
        <ellipse id="Oval" fill="#FFFFFF" fill-rule="nonzero" cx="22.2906977" cy="22.2681818" rx="22.2906977" ry="22.2681818"></ellipse>
        <g transform="translate(7.000000, 10.000000)" fill="#704C9F">
          <path d="M29.2081061,17.1293519 C29.2081061,17.3247222 29.0484091,17.4821296 28.850197,17.4821296 L1.43210606,17.4821296 C1.23577273,17.4821296 1.07419697,17.3247222 1.07419697,17.1293519 L1.07419697,1.41175926 C1.07419697,1.21731481 1.23577273,1.05898148 1.43210606,1.05898148 L28.850197,1.05898148 C29.0484091,1.05898148 29.2081061,1.21731481 29.2081061,1.41175926 L29.2081061,17.1293519 Z M16.2388333,21.9525 C17.2937727,21.9525 18.1815,22.6719444 18.4229242,23.639537 L11.5230758,23.639537 C11.7645,22.6719444 12.6512879,21.9525 13.7062273,21.9525 L16.2388333,21.9525 Z M28.850197,-0.000277777777 L1.43210606,-0.000277777777 C0.643015152,-0.000277777777 -0.00046969697,0.633055556 -0.00046969697,1.41175926 L-0.00046969697,17.1293519 C-0.00046969697,17.9080556 0.643015152,18.540463 1.43210606,18.540463 L14.6042879,18.540463 L14.6042879,20.8932407 L13.7062273,20.8932407 C11.8744091,20.8932407 10.3835909,22.3626852 10.3835909,24.1700926 C10.3835909,24.4608333 10.6240758,24.6987963 10.9199848,24.6987963 L19.0250758,24.6987963 L19.0260152,24.6987963 C19.3228636,24.6987963 19.5624091,24.4608333 19.5624091,24.1700926 C19.5624091,24.1534259 19.5624091,24.1367593 19.5605303,24.1219444 C19.5351667,22.3367593 18.0546818,20.8932407 16.2388333,20.8932407 L15.6789545,20.8932407 L15.6789545,18.540463 L28.850197,18.540463 C29.6402273,18.540463 30.2827727,17.9080556 30.2827727,17.1293519 L30.2827727,1.41175926 C30.2827727,0.633055556 29.6402273,-0.000277777777 28.850197,-0.000277777777 Z" id="Fill-1"></path>
          <path d="M16.834597,9.31055556 C16.834597,10.2309259 16.0746273,10.98 15.1408697,10.98 C14.2071121,10.98 13.4480818,10.2309259 13.4480818,9.31055556 C13.4480818,8.39018519 14.2071121,7.64203704 15.1408697,7.64203704 C16.0746273,7.64203704 16.834597,8.39018519 16.834597,9.31055556 M15.1408697,6.95407407 C13.8229,6.95407407 12.7501121,8.01148148 12.7501121,9.31055556 C12.7501121,10.6105556 13.8229,11.667963 15.1408697,11.667963 C16.4607182,11.667963 17.5325667,10.6105556 17.5325667,9.31055556 C17.5325667,8.01148148 16.4607182,6.95407407 15.1408697,6.95407407" id="Fill-4"></path>
          <path d="M18.5913576,10.6673148 C18.458903,10.9812037 18.5284182,11.3247222 18.7707818,11.564537 L18.9192061,11.7099074 C18.9455091,11.7349074 18.9596,11.7691667 18.9596,11.8052778 C18.9596,11.8413889 18.9455091,11.8756481 18.9192061,11.9006481 L17.7975697,13.0062037 C17.7468424,13.0571296 17.6566606,13.0562037 17.6049939,13.0052778 L17.4969636,12.8987963 C17.3382061,12.7423148 17.1287212,12.6562037 16.908903,12.6562037 C16.4467212,12.6562037 16.0709636,13.0256481 16.0709636,13.4802778 L16.0709636,13.5932407 C16.0709636,13.6682407 16.009903,13.7284259 15.9338121,13.7284259 L14.3481152,13.7284259 C14.2729636,13.7284259 14.211903,13.6682407 14.211903,13.5932407 L14.211903,13.4423148 C14.211903,12.9876852 13.8361455,12.6173148 13.3730242,12.6173148 C13.1532061,12.6173148 12.9446606,12.7043519 12.785903,12.8599074 L12.6788121,12.9663889 C12.6252667,13.0182407 12.5369636,13.0191667 12.485297,12.9673148 L11.3636606,11.8617593 C11.3364182,11.8358333 11.3232667,11.8034259 11.3232667,11.7663889 C11.3232667,11.7302778 11.3373576,11.6978704 11.3646,11.6710185 L11.4716909,11.564537 C11.7149939,11.3256481 11.7845091,10.9821296 11.6529939,10.6673148 C11.5224182,10.3543519 11.2255697,10.1599074 10.8817515,10.1599074 L10.7276909,10.1599074 C10.6525394,10.1599074 10.5905394,10.0997222 10.5905394,10.0247222 L10.5905394,8.46268519 C10.5905394,8.38768519 10.6525394,8.3275 10.7276909,8.3275 L10.8432364,8.3275 C11.1870545,8.3275 11.4829636,8.13305556 11.6135394,7.81916667 C11.7459939,7.5062037 11.6774182,7.16268519 11.4341152,6.92287037 L11.3636606,6.85342593 C11.3373576,6.82842593 11.3232667,6.79416667 11.3232667,6.75805556 C11.3232667,6.72194444 11.3373576,6.68953704 11.3646,6.66268519 L12.485297,5.55712963 C12.5369636,5.50712963 12.6262061,5.50712963 12.6778727,5.55805556 L12.785903,5.66546296 C12.9446606,5.82101852 13.1532061,5.90712963 13.3730242,5.90712963 C13.8361455,5.90712963 14.211903,5.53675926 14.211903,5.08305556 L14.211903,4.89416667 C14.211903,4.81916667 14.2729636,4.75898148 14.3481152,4.75898148 L15.9338121,4.75898148 C16.009903,4.75898148 16.0709636,4.81916667 16.0709636,4.89416667 L16.0709636,5.04509259 C16.0709636,5.2775 16.1639636,5.49046296 16.3330545,5.64416667 C16.6515091,5.93768519 17.1888424,5.93212963 17.4969636,5.62657407 L17.6049939,5.51916667 C17.6566606,5.46916667 17.7468424,5.46731481 17.7975697,5.52009259 L18.9192061,6.62472222 C18.9727515,6.67657407 18.9727515,6.76268519 18.9192061,6.81546296 L18.8111758,6.92287037 C18.5678727,7.16175926 18.4974182,7.50527778 18.6298727,7.81916667 C18.7613879,8.13305556 19.0563576,8.3275 19.4011152,8.3275 L19.5542364,8.3275 C19.6293879,8.3275 19.6913879,8.38768519 19.6913879,8.46268519 L19.6913879,10.0247222 C19.6913879,10.0997222 19.6293879,10.1599074 19.5542364,10.1599074 L19.3616606,10.1599074 C19.0178424,10.1599074 18.7228727,10.3543519 18.5913576,10.6673148 M19.5542364,7.63861111 L19.4011152,7.63861111 C19.3409939,7.63861111 19.2977818,7.61083333 19.2752364,7.55712963 C19.2583273,7.51824074 19.2508121,7.46175926 19.305297,7.40898148 L19.4133273,7.30157407 C19.7383576,6.9812037 19.7383576,6.45898148 19.4133273,6.13768519 L18.2926303,5.03398148 C17.9788727,4.7237963 17.4293273,4.72101852 17.1108727,5.03398148 L17.0028424,5.14046296 C16.9464788,5.19694444 16.8600545,5.18953704 16.8102667,5.14324074 C16.7820848,5.11731481 16.7689333,5.08490741 16.7689333,5.04509259 L16.7689333,4.89416667 C16.7689333,4.43953704 16.3941152,4.07009259 15.9338121,4.07009259 L14.3481152,4.07009259 C13.8887515,4.07009259 13.5148727,4.43953704 13.5148727,4.89416667 L13.5148727,5.08305556 C13.5148727,5.18212963 13.4275091,5.21916667 13.3720848,5.21916667 C13.3232364,5.21175926 13.3082061,5.2062037 13.2809636,5.17842593 L13.1710545,5.07194444 C12.8544788,4.75990741 12.3068121,4.76175926 11.9911758,5.07194444 L10.8704788,6.17657407 C10.7126606,6.3312037 10.6262364,6.53861111 10.6262364,6.75805556 C10.6262364,6.97935185 10.7126606,7.18583333 10.8695394,7.33953704 L10.9390545,7.40898148 C10.9926,7.46175926 10.9850848,7.51824074 10.9691152,7.55712963 C10.9559636,7.58768519 10.9230848,7.63861111 10.8432364,7.63861111 L10.7276909,7.63861111 C10.2683273,7.63861111 9.89350909,8.00805556 9.89350909,8.46268519 L9.89350909,10.0247222 C9.89350909,10.4784259 10.2683273,10.8478704 10.7276909,10.8478704 L10.8817515,10.8478704 C10.9616,10.8478704 10.9944788,10.8987963 11.0085697,10.9330556 C11.018903,10.9571296 11.0376909,11.0191667 10.9785091,11.0784259 L10.8704788,11.1849074 C10.7126606,11.340463 10.6262364,11.5469444 10.6262364,11.7663889 C10.6262364,11.9867593 10.7126606,12.1932407 10.8695394,12.3487963 L11.9911758,13.4534259 C12.3068121,13.7636111 12.8535394,13.765463 13.1719939,13.4534259 L13.2809636,13.3469444 C13.3082061,13.3191667 13.3382667,13.3062037 13.3730242,13.3062037 C13.4275091,13.3062037 13.5148727,13.3432407 13.5148727,13.4423148 L13.5148727,13.5932407 C13.5148727,14.0469444 13.8887515,14.415463 14.3481152,14.415463 L15.9338121,14.415463 C16.3941152,14.415463 16.7689333,14.0469444 16.7689333,13.5932407 L16.7689333,13.4802778 C16.7689333,13.3812037 16.8544182,13.3450926 16.908903,13.3450926 C16.9446,13.3450926 16.9756,13.3580556 17.0028424,13.3839815 L17.1118121,13.4923148 C17.4293273,13.8043519 17.9779333,13.8015741 18.2926303,13.4923148 L19.4133273,12.3867593 C19.7383576,12.0663889 19.7383576,11.5441667 19.4123879,11.2237963 L19.2658424,11.0784259 C19.2057212,11.0191667 19.2245091,10.9571296 19.2367212,10.9302778 C19.2489333,10.8987963 19.2818121,10.8478704 19.3616606,10.8478704 L19.5542364,10.8478704 C20.0154788,10.8478704 20.3893576,10.4784259 20.3893576,10.0247222 L20.3893576,8.46268519 C20.3893576,8.00805556 20.0154788,7.63861111 19.5542364,7.63861111" id="Fill-6"></path>
        </g>
      </g>
    </g>
  </g>
</svg>
