<?xml version="1.0" encoding="UTF-8"?>
<!-- Generator: Adobe Illustrator 22.1.0, SVG Export Plug-In . SVG Version: 6.00 Build 0)  -->
<svg xmlns="http://www.w3.org/2000/svg" xmlns:xlink="http://www.w3.org/1999/xlink" id="Layer_1" x="0px" y="0px" viewBox="0 0 24 29" style="enable-background:new 0 0 24 29;" xml:space="preserve">
<style type="text/css">
	.st0{fill:#36246A;}
</style>
<title>rb-icon</title>
<desc>Created with Sketch.</desc>
<g>
	<path class="st0" d="M12.9,18.5c0.2,0,0.4-0.2,0.4-0.4c0-0.2-0.2-0.4-0.4-0.4H1c0,0-0.1,0-0.1-0.1V4c0,0,0-0.1,0.1-0.1h18.2   c0,0,0.1,0,0.1,0.1v6.6c0,0.2,0.2,0.4,0.4,0.4c0.2,0,0.4-0.2,0.4-0.4V4c0-0.4-0.4-0.8-0.8-0.8H1C0.6,3.1,0.2,3.5,0.2,4v13.8   c0,0.4,0.4,0.8,0.8,0.8h6.8v2.3H4.9c-0.2,0-0.4,0.2-0.4,0.4c0,0.2,0.2,0.4,0.4,0.4h8c0.2,0,0.4-0.2,0.4-0.4c0-0.2-0.2-0.4-0.4-0.4   h-0.5v-2.3H12.9z M11.6,20.8H8.6v-2.3h3.1V20.8z M11.6,20.8"></path>
	<path class="st0" d="M12.9,15.2H2.1c-0.2,0-0.4,0.2-0.4,0.4c0,0.2,0.2,0.4,0.4,0.4h10.8c0.2,0,0.4-0.2,0.4-0.4   C13.3,15.4,13.1,15.2,12.9,15.2L12.9,15.2z M12.9,15.2"></path>
	<path class="st0" d="M23,11.7h-8.1c-0.4,0-0.8,0.4-0.8,0.8v13.4c0,0.4,0.4,0.8,0.8,0.8H23c0.4,0,0.8-0.4,0.8-0.8V12.5   C23.8,12.1,23.4,11.7,23,11.7L23,11.7z M14.8,14H23v9h-8.2V14z M14.9,12.5H23c0,0,0.1,0,0.1,0.1v0.7h-8.2L14.9,12.5   C14.8,12.5,14.8,12.5,14.9,12.5L14.9,12.5z M23,26h-8.1c0,0-0.1,0-0.1-0.1v-2.2H23L23,26C23,26,23,26,23,26L23,26z M23,26"></path>
	<path class="st0" d="M19.7,24.5h-1.5c-0.2,0-0.4,0.2-0.4,0.4c0,0.2,0.2,0.4,0.4,0.4h1.5c0.2,0,0.4-0.2,0.4-0.4   C20.1,24.7,19.9,24.5,19.7,24.5L19.7,24.5z M19.7,24.5"></path>
</g>
</svg>
