<?xml version="1.0" encoding="UTF-8"?>
<svg xmlns="http://www.w3.org/2000/svg" xmlns:xlink="http://www.w3.org/1999/xlink" width="24px" height="24px" viewBox="0 0 24 24">
  <!-- Generator: Sketch 50.2 (55047) - http://www.bohemiancoding.com/sketch -->
  <title>dbx_platform_nav</title>
  <desc>Created with Sketch.</desc>
  <defs></defs>
  <g id="Design" stroke="none" stroke-width="1" fill="none" fill-rule="evenodd">
    <g id="dropdown_menu" transform="translate(-1055.000000, -446.000000)" fill="#36246A" fill-rule="nonzero">
      <g id="dbx_platform_nav" transform="translate(1055.000000, 446.000000)">
        <path d="M12.9,15.5 C13.1,15.5 13.3,15.3 13.3,15.1 C13.3,14.9 13.1,14.7 12.9,14.7 L1,14.7 C1,14.7 0.9,14.7 0.9,14.6 L0.9,1 C0.9,1 0.9,0.9 1,0.9 L19.2,0.9 C19.2,0.9 19.3,0.9 19.3,1 L19.3,7.6 C19.3,7.8 19.5,8 19.7,8 C19.9,8 20.1,7.8 20.1,7.6 L20.1,1 C20.1,0.6 19.7,0.2 19.3,0.2 L1,0.2 C0.6,0.1 0.2,0.5 0.2,1 L0.2,14.8 C0.2,15.2 0.6,15.6 1,15.6 L7.8,15.6 L7.8,17.9 L4.9,17.9 C4.7,17.9 4.5,18.1 4.5,18.3 C4.5,18.5 4.7,18.7 4.9,18.7 L12.9,18.7 C13.1,18.7 13.3,18.5 13.3,18.3 C13.3,18.1 13.1,17.9 12.9,17.9 L12.4,17.9 L12.4,15.6 L12.9,15.6 L12.9,15.5 Z M11.6,17.8 L8.6,17.8 L8.6,15.5 L11.7,15.5 L11.7,17.8 L11.6,17.8 Z" id="Shape"></path>
        <path d="M12.9,12.2 L2.1,12.2 C1.9,12.2 1.7,12.4 1.7,12.6 C1.7,12.8 1.9,13 2.1,13 L12.9,13 C13.1,13 13.3,12.8 13.3,12.6 C13.3,12.4 13.1,12.2 12.9,12.2 Z" id="Shape"></path>
        <path d="M23,8.7 L14.9,8.7 C14.5,8.7 14.1,9.1 14.1,9.5 L14.1,22.9 C14.1,23.3 14.5,23.7 14.9,23.7 L23,23.7 C23.4,23.7 23.8,23.3 23.8,22.9 L23.8,9.5 C23.8,9.1 23.4,8.7 23,8.7 Z M14.8,11 L23,11 L23,20 L14.8,20 L14.8,11 Z M14.9,9.5 L23,9.5 C23,9.5 23.1,9.5 23.1,9.6 L23.1,10.3 L14.9,10.3 L14.9,9.5 C14.8,9.5 14.8,9.5 14.9,9.5 Z M23,23 L14.9,23 C14.9,23 14.8,23 14.8,22.9 L14.8,20.7 L23,20.7 L23,23 C23,23 23,23 23,23 Z" id="Shape"></path>
        <path d="M19.7,21.5 L18.2,21.5 C18,21.5 17.8,21.7 17.8,21.9 C17.8,22.1 18,22.3 18.2,22.3 L19.7,22.3 C19.9,22.3 20.1,22.1 20.1,21.9 C20.1,21.7 19.9,21.5 19.7,21.5 Z" id="Shape"></path>
      </g>
    </g>
  </g>
</svg>
