<?xml version="1.0" encoding="UTF-8"?>
<svg xmlns="http://www.w3.org/2000/svg" xmlns:xlink="http://www.w3.org/1999/xlink" width="124px" height="124px" viewBox="0 0 124 124">
  <!-- Generator: Sketch 50.2 (55047) - http://www.bohemiancoding.com/sketch -->
  <title>devices</title>
  <desc>Created with Sketch.</desc>
  <defs>
    <polygon id="path-1" points="0 0.221 64.6247 0.221 64.6247 59.9997 0 59.9997"></polygon>
  </defs>
  <g id="Design" stroke="none" stroke-width="1" fill="none" fill-rule="evenodd">
    <g id="digital_banking_platform" transform="translate(-1025.000000, -969.000000)">
      <g id="why?" transform="translate(208.000000, 856.000000)">
        <g id="icon-section" transform="translate(1.000000, 115.000000)">
          <g id="devices" transform="translate(818.000000, 0.000000)">
            <g id="icon-3" fill="#FFFFFF" stroke="#704C9F" stroke-width="3">
              <circle id="Oval-Copy-2" cx="60" cy="60" r="60"></circle>
            </g>
            <path d="M84.90225,64.32325 L77.64925,71.56925 L75.86925,69.79525 C75.44125,69.36325 74.74925,69.36325 74.32325,69.79525 C73.89225,70.22025 73.89225,70.91325 74.32325,71.34025 L76.87425,73.89525 C77.09025,74.10525 77.36625,74.21425 77.64925,74.21425 C77.92625,74.21425 78.20925,74.10525 78.41925,73.89525 L86.45125,65.86725 C86.87825,65.44125 86.87825,64.74925 86.45125,64.32325 C86.02525,63.89225 85.33325,63.89225 84.90225,64.32325" id="Fill-1" fill="#36246A"></path>
            <path d="M57.12675,50.67925 C57.33175,50.88525 57.60875,51.00425 57.90075,51.00425 C58.18875,51.00425 58.46575,50.88525 58.67075,50.67925 L67.48375,41.86625 C67.91075,41.44125 67.91075,40.74825 67.48375,40.32325 C67.05275,39.89225 66.35975,39.89225 65.93475,40.32325 L57.90075,48.35525 L55.86875,46.32725 C55.43775,45.89725 54.74475,45.89725 54.31875,46.32725 C53.89375,46.75325 53.89375,47.44725 54.31875,47.87225 L57.12675,50.67925 Z" id="Fill-3" fill="#36246A"></path>
            <path d="M46.0085,74.31875 C45.5825,73.89375 44.8905,73.89375 44.4645,74.31875 L39.8185,78.96475 L38.8695,78.01475 C38.4385,77.58475 37.7495,77.58475 37.3195,78.01475 C36.8935,78.44075 36.8935,79.13275 37.3195,79.56075 L39.0435,81.28475 C39.2485,81.48975 39.5265,81.60775 39.8185,81.60775 C40.1065,81.60775 40.3885,81.48975 40.5935,81.28475 L46.0085,75.86975 C46.4405,75.43875 46.4405,74.74675 46.0085,74.31875" id="Fill-5" fill="#36246A"></path>
            <g id="Group-9" transform="translate(28.000000, 30.000000)">
              <mask id="mask-2" fill="white">
                <use xlink:href="#path-1"></use>
              </mask>
              <g id="Clip-8"></g>
              <path d="M61.3457,57.8087 L42.2047,57.8087 C41.6047,57.8087 41.1127,57.3157 41.1127,56.7147 L41.1127,54.7337 L62.4387,54.7337 L62.4387,56.7147 C62.4387,57.3157 61.9467,57.8087 61.3457,57.8087 Z M27.8087,50.0167 L27.8087,42.8827 C27.8087,42.7337 27.7827,42.5897 27.7627,42.4417 C27.9107,42.3127 28.0447,42.1597 28.1067,41.9577 L29.6507,36.7537 L32.5257,36.7537 L34.0807,43.1747 C34.5067,44.9057 35.9027,46.2447 37.6477,46.5937 L38.9197,46.8497 L38.9197,50.0167 L27.8087,50.0167 Z M25.6217,52.8497 C25.6217,53.4507 25.1287,53.9427 24.5237,53.9427 L23.5697,53.9427 L23.5697,41.7887 L24.5237,41.7887 C25.1287,41.7887 25.6217,42.2817 25.6217,42.8867 L25.6217,52.8497 Z M2.1917,52.8497 L2.1917,42.8867 C2.1917,42.2817 2.6847,41.7887 3.2847,41.7887 L21.3777,41.7887 L21.3777,53.9427 L3.2847,53.9427 C2.6847,53.9427 2.1917,53.4507 2.1917,52.8497 Z M5.3017,34.5617 C3.9717,34.5617 2.8947,33.4847 2.8947,32.1607 L2.8947,29.7577 L38.9197,29.7577 L38.9197,34.5617 L5.3017,34.5617 Z M5.3017,2.4127 L56.4177,2.4127 C57.7417,2.4127 58.8207,3.4907 58.8207,4.8147 L58.8207,24.6767 L42.2047,24.6767 C40.5327,24.6767 39.1617,25.9457 38.9607,27.5667 L2.8947,27.5667 L2.8947,4.8147 C2.8947,3.4907 3.9717,2.4127 5.3017,2.4127 Z M38.9197,39.2797 L38.9197,44.6177 L38.0747,44.4487 C37.1587,44.2627 36.4317,43.5657 36.2107,42.6577 L34.7737,36.7537 L38.9197,36.7537 L38.9197,39.2797 Z M62.4387,27.9617 L62.4387,52.5417 L41.1127,52.5417 L41.1127,27.9617 C41.1127,27.3617 41.6047,26.8697 42.2047,26.8697 L61.3397,26.8697 C61.9467,26.8697 62.4387,27.3617 62.4387,27.9617 Z M61.3397,24.6767 L61.0117,24.6767 L61.0117,4.8147 C61.0117,2.2837 58.9477,0.2207 56.3807,0.2207 L5.2967,0.2207 C2.7657,0.2207 0.7027,2.2837 0.7027,4.8147 L0.7027,32.1607 C0.7027,34.6907 2.7657,36.7537 5.3327,36.7537 L27.3667,36.7537 L26.3517,40.1567 C25.8267,39.8087 25.2007,39.5987 24.5237,39.5987 L3.2847,39.5987 C1.4727,39.5987 -0.0003,41.0717 -0.0003,42.8827 L-0.0003,52.8457 C-0.0003,54.6567 1.4727,56.1297 3.2847,56.1297 L24.5237,56.1297 C26.3347,56.1297 27.8087,54.6567 27.8087,52.8457 L27.8087,52.2037 L38.9197,52.2037 L38.9197,56.7147 C38.9197,58.5277 40.3937,59.9997 42.2047,59.9997 L61.3397,59.9997 C63.1507,59.9997 64.6247,58.5277 64.6247,56.7147 L64.6247,27.9617 C64.6247,26.1507 63.1507,24.6767 61.3397,24.6767 Z" id="Fill-7" fill="#36246A" mask="url(#mask-2)"></path>
            </g>
          </g>
        </g>
      </g>
    </g>
  </g>
</svg>
