<?xml version="1.0" encoding="UTF-8"?>
<svg xmlns="http://www.w3.org/2000/svg" xmlns:xlink="http://www.w3.org/1999/xlink" width="124px" height="124px" viewBox="0 0 124 124">
  <!-- Generator: Sketch 50.2 (55047) - http://www.bohemiancoding.com/sketch -->
  <title>devices-sm</title>
  <desc>Created with Sketch.</desc>
  <defs></defs>
  <g id="Design" stroke="none" stroke-width="1" fill="none" fill-rule="evenodd">
    <g id="loans" transform="translate(-300.000000, -1020.000000)">
      <g id="icons" transform="translate(232.000000, 1022.000000)">
        <g id="devices-sm" transform="translate(70.000000, 0.000000)">
          <circle id="Oval" stroke="#704C9F" stroke-width="3" fill="#FFFFFF" cx="60" cy="60" r="60"></circle>
          <g id="Page-1" transform="translate(29.000000, 32.000000)" fill="#36246A">
            <path d="M21.8,46.1082 L29.848,46.1082 L29.848,40.1712 L21.8,40.1712 L21.8,46.1082 Z M33.231,40.1712 C33.773,40.1712 34.215,39.7312 34.215,39.1882 C34.215,38.6442 33.773,38.2042 33.231,38.2042 L2.112,38.2042 C2.034,38.2042 1.966,38.1362 1.966,38.0592 L1.966,2.1122 C1.966,2.0352 2.035,1.9662 2.112,1.9662 L49.536,1.9662 C49.614,1.9662 49.682,2.0352 49.682,2.1122 L49.682,19.4162 C49.682,19.9592 50.123,20.3992 50.665,20.3992 C51.208,20.3992 51.648,19.9592 51.648,19.4162 L51.648,2.1122 C51.648,0.9472 50.701,0.0002 49.536,0.0002 L2.112,0.0002 C0.947,0.0002 0,0.9472 0,2.1122 L0,38.0592 C0,39.2232 0.947,40.1712 2.112,40.1712 L19.834,40.1712 L19.834,46.1082 L12.275,46.1082 C11.731,46.1082 11.292,46.5492 11.292,47.0922 C11.292,47.6342 11.731,48.0752 12.275,48.0752 L33.231,48.0752 C33.773,48.0752 34.215,47.6342 34.215,47.0922 C34.215,46.5492 33.773,46.1082 33.231,46.1082 L31.814,46.1082 L31.814,40.1712 L33.231,40.1712 Z" id="Fill-1"></path>
            <path d="M33.2311,31.5415 L4.9161,31.5415 C4.3731,31.5415 3.9321,31.9815 3.9321,32.5245 C3.9321,33.0675 4.3731,33.5075 4.9161,33.5075 L33.2311,33.5075 C33.7731,33.5075 34.2141,33.0675 34.2141,32.5245 C34.2141,31.9815 33.7731,31.5415 33.2311,31.5415" id="Fill-3"></path>
            <path d="M59.4987,59.6451 L38.2927,59.6451 C38.2147,59.6451 38.1467,59.5761 38.1467,59.4991 L38.1467,53.7461 L59.6447,53.7461 L59.6447,59.4991 C59.6447,59.5761 59.5767,59.6451 59.4987,59.6451 Z M38.2927,24.3321 L59.4987,24.3321 C59.5767,24.3321 59.6447,24.3991 59.6447,24.4781 L59.6447,26.2981 L38.1467,26.2981 L38.1467,24.4781 C38.1467,24.3991 38.2157,24.3321 38.2927,24.3321 Z M38.1467,51.7801 L59.6447,51.7801 L59.6447,28.2651 L38.1467,28.2651 L38.1467,51.7801 Z M59.4987,22.3661 L38.2927,22.3661 C37.1277,22.3661 36.1807,23.3131 36.1807,24.4781 L36.1807,59.4991 C36.1807,60.6641 37.1277,61.6111 38.2927,61.6111 L59.4987,61.6111 C60.6637,61.6111 61.6107,60.6641 61.6107,59.4991 L61.6107,24.4781 C61.6107,23.3131 60.6637,22.3661 59.4987,22.3661 Z" id="Fill-4"></path>
            <path d="M50.862,55.7124 L46.929,55.7124 C46.386,55.7124 45.946,56.1524 45.946,56.6954 C45.946,57.2384 46.386,57.6784 46.929,57.6784 L50.862,57.6784 C51.405,57.6784 51.844,57.2384 51.844,56.6954 C51.844,56.1524 51.405,55.7124 50.862,55.7124" id="Fill-5"></path>
          </g>
        </g>
      </g>
    </g>
  </g>
</svg>
