<?xml version="1.0" encoding="UTF-8"?>
<svg xmlns="http://www.w3.org/2000/svg" xmlns:xlink="http://www.w3.org/1999/xlink" width="124px" height="124px" viewBox="0 0 124 124">
  <!-- Generator: Sketch 50.2 (55047) - http://www.bohemiancoding.com/sketch -->
  <title>Group 6</title>
  <desc>Created with Sketch.</desc>
  <defs>
    <polygon id="path-1" points="0 0 59.808 0 59.808 59.9998 0 59.9998"></polygon>
  </defs>
  <g id="Design" stroke="none" stroke-width="1" fill="none" fill-rule="evenodd">
    <g id="digital_wallet" transform="translate(-662.000000, -972.000000)">
      <g id="Group-6" transform="translate(664.000000, 974.000000)">
        <circle id="Oval-Copy" stroke="#704C9F" stroke-width="3" fill="#FFFFFF" cx="60" cy="60" r="60"></circle>
        <g id="Page-1" transform="translate(37.000000, 30.000000)">
          <path d="M16.879,7.758 L21.277,7.758 C21.763,7.758 22.157,7.364 22.157,6.879 C22.157,6.393 21.763,6 21.277,6 L16.879,6 C16.394,6 16,6.393 16,6.879 C16,7.364 16.394,7.758 16.879,7.758" id="Fill-1" fill="#36246A"></path>
          <path d="M12.879,7.758 L14.456,7.758 C14.942,7.758 15.335,7.364 15.335,6.879 C15.335,6.393 14.942,6 14.456,6 L12.879,6 C12.393,6 12,6.393 12,6.879 C12,7.364 12.393,7.758 12.879,7.758" id="Fill-3" fill="#36246A"></path>
          <path d="M16.414,57.068 C15.501,57.068 14.759,56.325 14.759,55.413 C14.759,54.501 15.501,53.758 16.414,53.758 C17.326,53.758 18.068,54.501 18.068,55.413 C18.068,56.325 17.326,57.068 16.414,57.068 M16.414,52 C14.531,52 13,53.531 13,55.413 C13,57.295 14.531,58.826 16.414,58.826 C18.296,58.826 19.826,57.295 19.826,55.413 C19.826,53.531 18.296,52 16.414,52" id="Fill-5" fill="#36246A"></path>
          <g id="Group-9" transform="translate(0.000000, 0.999500)">
            <mask id="mask-2" fill="white">
              <use xlink:href="#path-1"></use>
            </mask>
            <g id="Clip-8"></g>
            <path d="M58.049,40.637 L25.07,40.637 L14.869,40.637 L14.869,19.363 L52.497,19.363 L53.24,19.363 L58.049,19.363 L58.049,40.637 Z M13.99,42.395 L23.709,42.395 L25.07,42.395 L28.26,42.395 L28.26,47.534 L5.517,47.534 L5.517,9.951 L12.736,9.951 L13.57,9.951 L28.26,9.951 L28.26,17.605 L13.99,17.605 C13.505,17.605 13.111,17.998 13.111,18.484 L13.111,41.516 C13.111,42.002 13.505,42.395 13.99,42.395 Z M32.018,55.028 C32.018,56.8 30.576,58.241 28.805,58.241 L4.972,58.241 C3.2,58.241 1.758,56.8 1.758,55.028 L1.758,4.972 C1.758,3.2 3.2,1.759 4.972,1.759 L28.805,1.759 C30.576,1.759 32.018,3.2 32.018,4.972 L32.018,17.605 L30.019,17.605 L30.019,9.073 C30.019,8.587 29.625,8.193 29.139,8.193 L13.57,8.193 L12.736,8.193 L4.637,8.193 C4.152,8.193 3.758,8.587 3.758,9.073 L3.758,48.413 C3.758,48.899 4.152,49.293 4.637,49.293 L29.139,49.293 C29.625,49.293 30.019,48.899 30.019,48.413 L30.019,42.395 L32.018,42.395 L32.018,55.028 Z M58.929,17.605 L53.24,17.605 L52.497,17.605 L33.777,17.605 L33.777,4.972 C33.777,2.23 31.546,0 28.805,0 L4.972,0 C2.231,0 0,2.23 0,4.972 L0,55.028 C0,57.769 2.231,60 4.972,60 L28.805,60 C31.546,60 33.777,57.769 33.777,55.028 L33.777,42.395 L58.929,42.395 C59.414,42.395 59.808,42.002 59.808,41.516 L59.808,18.484 C59.808,17.998 59.414,17.605 58.929,17.605 Z" id="Fill-7" fill="#36246A" mask="url(#mask-2)"></path>
          </g>
          <path d="M55.127,26.576 L55.127,36.371 C53.736,36.702 52.64,37.799 52.309,39.19 L20.576,39.19 C20.246,37.799 19.149,36.702 17.759,36.371 L17.759,26.576 C19.149,26.245 20.246,25.149 20.576,23.758 L52.309,23.758 C52.64,25.149 53.736,26.245 55.127,26.576 Z M19.8,22 C19.314,22 18.921,22.393 18.921,22.879 C18.921,24.005 18.005,24.921 16.879,24.921 C16.394,24.921 16,25.314 16,25.8 L16,37.148 C16,37.634 16.394,38.027 16.879,38.027 C18.005,38.027 18.921,38.943 18.921,40.069 C18.921,40.555 19.314,40.948 19.8,40.948 L53.085,40.948 C53.571,40.948 53.965,40.555 53.965,40.069 C53.965,38.943 54.88,38.027 56.007,38.027 C56.492,38.027 56.886,37.634 56.886,37.148 L56.886,25.8 C56.886,25.314 56.492,24.921 56.007,24.921 C54.88,24.921 53.965,24.005 53.965,22.879 C53.965,22.393 53.571,22 53.085,22 L19.8,22 Z" id="Fill-10" fill="#36246A"></path>
          <path d="M36.814,36.872 C34.026,36.872 31.757,34.603 31.757,31.815 C31.757,29.027 34.026,26.758 36.814,26.758 C39.603,26.758 41.872,29.027 41.872,31.815 C41.872,34.603 39.603,36.872 36.814,36.872 M36.814,25 C33.056,25 30,28.057 30,31.815 C30,35.573 33.056,38.63 36.814,38.63 C40.572,38.63 43.629,35.573 43.629,31.815 C43.629,28.057 40.572,25 36.814,25" id="Fill-12" fill="#36246A"></path>
        </g>
      </g>
    </g>
  </g>
</svg>
