<?xml version="1.0" encoding="UTF-8"?>
<svg xmlns="http://www.w3.org/2000/svg" xmlns:xlink="http://www.w3.org/1999/xlink" width="45px" height="46px" viewBox="0 0 45 46">
  <!-- Generator: Sketch 50.2 (55047) - http://www.bohemiancoding.com/sketch -->
  <title>directions_purp</title>
  <desc>Created with Sketch.</desc>
  <defs></defs>
  <g id="Design" stroke="none" stroke-width="1" fill="none" fill-rule="evenodd">
    <g id="retail_banking" transform="translate(-132.000000, -2211.000000)" fill-rule="nonzero">
      <g id="directions_purp" transform="translate(132.000000, 2211.000000)">
        <ellipse id="Oval" fill="#704C9F" cx="22.3953488" cy="23.2090909" rx="22.2906977" ry="22.2681818"></ellipse>
        <g id="Design" transform="translate(5.232558, 7.318182)" fill="#FFFFFF">
          <g id="retail_banking">
            <g id="Platform">
              <g id="directions">
                <path d="M32.5465116,15.0545455 L27.3139535,11.5 C27.2093023,11.3954545 27,11.3954545 26.8953488,11.3954545 C26.4767442,11.3954545 26.0581395,11.8136364 26.0581395,12.2318182 L26.0581395,15.2636364 L17.4767442,15.2636364 L17.4767442,6.69090909 L20.1976744,6.69090909 C20.5116279,6.69090909 20.8255814,6.48181818 20.9302326,6.27272727 C21.0348837,5.95909091 21.0348837,5.64545455 20.9302326,5.43636364 L17.372093,0.313636364 C17.2674419,0.104545455 16.9534884,-2.66453526e-15 16.6395349,-2.66453526e-15 C16.3255814,-2.66453526e-15 16.1162791,0.104545455 15.9069767,0.313636364 L12.3488372,5.43636364 C12.1395349,5.64545455 12.1395349,6.06363636 12.3488372,6.27272727 C12.4534884,6.58636364 12.7674419,6.69090909 13.0813953,6.69090909 L16.1162791,6.69090909 L16.1162791,15.2636364 L7.63953488,15.2636364 L7.63953488,12.3363636 C7.63953488,11.9181818 7.22093023,11.5 6.80232558,11.5 C6.59302326,11.5 6.48837209,11.5 6.38372093,11.6045455 L1.25581395,15.1590909 C1.04651163,15.2636364 0.941860465,15.5772727 0.941860465,15.8909091 C0.941860465,16.2045455 1.04651163,16.4136364 1.25581395,16.6227273 L6.38372093,20.1772727 C6.48837209,20.2818182 6.69767442,20.2818182 6.80232558,20.2818182 C7.22093023,20.2818182 7.63953488,19.8636364 7.63953488,19.4454545 L7.63953488,16.5181818 L16.1162791,16.5181818 L16.1162791,25.0909091 L13.1860465,25.0909091 C12.872093,25.0909091 12.5581395,25.3 12.4534884,25.5090909 C12.3488372,25.8227273 12.3488372,26.1363636 12.4534884,26.3454545 L16.0116279,31.5727273 C16.1162791,31.7818182 16.4302326,31.8863636 16.744186,31.8863636 C17.0581395,31.8863636 17.2674419,31.7818182 17.4767442,31.5727273 L21.0348837,26.3454545 C21.244186,26.1363636 21.244186,25.7181818 21.0348837,25.5090909 C20.9302326,25.1954545 20.6162791,25.0909091 20.3023256,25.0909091 L17.372093,25.0909091 L17.372093,16.5181818 L25.9534884,16.5181818 L25.9534884,19.2363636 C25.9534884,19.6545455 26.372093,20.0727273 26.7906977,20.0727273 C27,20.0727273 27.1046512,20.0727273 27.2093023,19.9681818 L32.3372093,16.4136364 C32.5465116,16.3090909 32.6511628,15.9954545 32.6511628,15.6818182 C32.8604651,15.3681818 32.755814,15.1590909 32.5465116,15.0545455 Z M16.6395349,1.35909091 L19.4651163,5.54090909 L13.8139535,5.54090909 L16.6395349,1.35909091 Z M6.59302326,18.7136364 L2.40697674,15.8909091 L6.59302326,13.0681818 L6.59302326,18.7136364 Z M16.8488372,30.3181818 L14.0232558,26.1363636 L19.6744186,26.1363636 L16.8488372,30.3181818 Z M27.3139535,18.5045455 L27.3139535,12.8590909 L31.5,15.6818182 L27.3139535,18.5045455 Z" id="Fill-1"></path>
              </g>
            </g>
          </g>
        </g>
      </g>
    </g>
  </g>
</svg>
