<?xml version="1.0" encoding="UTF-8"?>
<svg xmlns="http://www.w3.org/2000/svg" xmlns:xlink="http://www.w3.org/1999/xlink" width="31px" height="31px" viewBox="0 0 31 31">
  <!-- Generator: Sketch 50.2 (55047) - http://www.bohemiancoding.com/sketch -->
  <title>directions</title>
  <desc>Created with Sketch.</desc>
  <defs>
    <polygon id="path-1" points="0.0001 0.000100000001 30.546 0.000100000001 30.546 30.5456 0.0001 30.5456"></polygon>
  </defs>
  <g id="Design" stroke="none" stroke-width="1" fill="none" fill-rule="evenodd">
    <g id="retail_banking" transform="translate(-145.000000, -2217.000000)">
      <g id="Platform" transform="translate(0.000000, 1962.000000)">
        <g id="directions" transform="translate(145.000000, 255.000000)">
          <mask id="mask-2" fill="white">
            <use xlink:href="#path-1"></use>
          </mask>
          <g id="Clip-2"></g>
          <path d="M30.1991,14.4526 L25.2501,11.1006 C25.1181,11.0116 24.9661,10.9646 24.8071,10.9646 C24.3721,10.9646 24.0171,11.3186 24.0171,11.7546 L24.0171,14.7016 L15.7711,14.7016 L15.7711,6.5286 L18.3841,6.5286 C18.6771,6.5286 18.9441,6.3686 19.0811,6.1096 C19.2201,5.8506 19.2021,5.5386 19.0371,5.2966 L15.6861,0.3486 C15.5381,0.1306 15.2941,-0.000400000001 15.0321,-0.000400000001 C14.7701,-0.000400000001 14.5251,0.1306 14.3781,0.3486 L11.0261,5.2966 C10.8611,5.5386 10.8451,5.8506 10.9821,6.1096 C11.1191,6.3686 11.3871,6.5286 11.6801,6.5286 L14.6271,6.5286 L14.6271,14.7016 L6.5291,14.7016 L6.5291,11.9216 C6.5291,11.4856 6.1741,11.1316 5.7381,11.1316 C5.5801,11.1316 5.4281,11.1786 5.2961,11.2666 L0.3481,14.6196 C0.1311,14.7666 0.0001,15.0116 0.0001,15.2736 C0.0001,15.5356 0.1311,15.7796 0.3471,15.9276 L5.2961,19.2806 C5.4281,19.3696 5.5801,19.4156 5.7381,19.4156 C6.1741,19.4156 6.5291,19.0616 6.5291,18.6256 L6.5291,15.8456 L14.6271,15.8456 L14.6271,24.0176 L11.8461,24.0176 C11.5531,24.0176 11.2861,24.1786 11.1491,24.4376 C11.0121,24.6956 11.0281,25.0076 11.1931,25.2496 L14.5451,30.1996 C14.6921,30.4166 14.9361,30.5456 15.1991,30.5456 C15.4611,30.5456 15.7061,30.4166 15.8531,30.1996 L19.2051,25.2496 C19.3691,25.0076 19.3861,24.6956 19.2481,24.4376 C19.1111,24.1786 18.8441,24.0176 18.5511,24.0176 L15.7711,24.0176 L15.7711,15.8456 L24.0171,15.8456 L24.0171,18.4586 C24.0171,18.8946 24.3721,19.2486 24.8071,19.2486 C24.9661,19.2486 25.1181,19.2026 25.2501,19.1126 L30.1991,15.7596 C30.4161,15.6126 30.5461,15.3696 30.5461,15.1066 C30.5461,14.8446 30.4161,14.5996 30.1991,14.4526 Z M15.0321,1.4216 L17.7171,5.3866 L12.3461,5.3866 L15.0321,1.4216 Z M5.3851,17.9586 L1.4211,15.2736 L5.3851,12.5876 L5.3851,17.9586 Z M15.1991,29.1256 L12.5131,25.1606 L17.8841,25.1606 L15.1991,29.1256 Z M25.1611,17.7916 L25.1611,12.4206 L29.1261,15.1066 L25.1611,17.7916 Z" id="Fill-1" fill="#704C9F" mask="url(#mask-2)"></path>
        </g>
      </g>
    </g>
  </g>
</svg>
