<?xml version="1.0" encoding="UTF-8"?>
<svg xmlns="http://www.w3.org/2000/svg" xmlns:xlink="http://www.w3.org/1999/xlink" width="45px" height="45px" viewBox="0 0 45 45">
  <!-- Generator: Sketch 50.2 (55047) - http://www.bohemiancoding.com/sketch -->
  <title>actionable</title>
  <desc>Created with Sketch.</desc>
  <defs></defs>
  <g id="Design" stroke="none" stroke-width="1" fill="none" fill-rule="evenodd">
    <g id="retail_banking" transform="translate(-431.000000, -2212.000000)">
      <g id="actionable" transform="translate(431.000000, 2212.000000)">
        <ellipse id="Oval-Copy-3" fill="#704C9F" fill-rule="nonzero" cx="22.2906977" cy="22.2681818" rx="22.2906977" ry="22.2681818"></ellipse>
        <path d="M36.7437164,11.4173468 C36.5286078,11.1529949 36.2153795,11 35.8823385,11 C35.8106357,11 35.7398763,11.0067783 35.6672299,11.0203348 L27.0713773,12.7178033 C26.6628596,12.7991423 26.334536,13.1012588 26.2118864,13.5098907 C26.0911236,13.9175543 26.196791,14.3571725 26.4920936,14.6602573 L29.662115,17.9138193 L20.7171826,27.0954489 L16.2470751,22.5075391 C16.1951848,22.4542814 16.13386,22.4126435 16.0687614,22.3864988 C15.8744089,22.3061281 15.6432615,22.3458293 15.4847604,22.5075391 L7.15779348,31.0539494 C6.94740217,31.2708535 6.94740217,31.6213861 7.15779348,31.8373219 C7.26346086,31.945774 7.40026237,32 7.53895081,32 C7.67669579,32 7.81538422,31.945774 7.92010814,31.8373219 L15.8659177,23.6821137 L20.3350818,28.2690552 C20.4407492,28.3784756 20.5784942,28.4317333 20.7171826,28.4317333 C20.8549276,28.4317333 20.9926726,28.3784756 21.0983399,28.2690552 L30.4263166,18.6981602 L33.4340631,21.7861392 C33.6463413,22.0030433 33.9265486,22.1231152 34.2227946,22.1231152 C34.7605661,22.1231152 35.2247478,21.7299765 35.3256979,21.1896528 L36.9795811,12.3653341 C37.0427928,12.028358 36.9578815,11.6816987 36.7437164,11.4173468 Z M34.2671372,20.9804952 C34.260533,21.0124499 34.2350596,21.0153548 34.2227946,21.0153548 C34.2143035,21.0153548 34.2076993,21.0134182 34.1973212,21.0027666 L27.2534648,13.8759164 C27.2468606,13.8681699 27.2364826,13.8584867 27.2440302,13.8333103 C27.2506344,13.8110389 27.2647863,13.8071656 27.2761078,13.8052289 L35.8719605,12.1077604 C35.8757343,12.1077604 35.8795082,12.1067921 35.8823385,12.1067921 C35.8974339,12.1067921 35.9078119,12.118412 35.9125292,12.1232536 C35.9229073,12.1358417 35.9219638,12.1474616 35.9200769,12.1581132 L34.2671372,20.9804952 Z" id="Fill-1" fill="#FFFFFF"></path>
      </g>
    </g>
  </g>
</svg>
