<?xml version="1.0" encoding="UTF-8"?>
<svg xmlns="http://www.w3.org/2000/svg" xmlns:xlink="http://www.w3.org/1999/xlink" width="124px" height="124px" viewBox="0 0 124 124">
  <!-- Generator: Sketch 50.2 (55047) - http://www.bohemiancoding.com/sketch -->
  <title>graph</title>
  <desc>Created with Sketch.</desc>
  <defs></defs>
  <g id="Design" stroke="none" stroke-width="1" fill="none" fill-rule="evenodd">
    <g id="digital_banking_platform" transform="translate(-662.000000, -969.000000)">
      <g id="why?" transform="translate(208.000000, 856.000000)">
        <g id="icon-section" transform="translate(1.000000, 115.000000)">
          <g id="graph" transform="translate(455.000000, 0.000000)">
            <circle id="Oval-Copy" stroke="#704C9F" stroke-width="3" fill="#FFFFFF" cx="60" cy="60" r="60"></circle>
            <g id="analytics" transform="translate(30.000000, 29.000000)" fill="#36246A">
              <path d="M46.805,53.8262 L51.486,53.8262 L51.486,21.0622 L46.805,21.0622 L46.805,53.8262 Z M32.763,53.8262 L37.444,53.8262 L37.444,35.1032 L32.763,35.1032 L32.763,53.8262 Z M18.721,53.8252 L23.403,53.8252 L23.403,30.4232 L18.721,30.4232 L18.721,53.8252 Z M4.68,53.8252 L9.361,53.8252 L9.361,42.1242 L4.68,42.1242 L4.68,53.8252 Z M54.996,53.8262 L53.826,53.8262 L53.826,19.8912 C53.826,19.2462 53.301,18.7222 52.656,18.7222 L45.635,18.7222 C44.989,18.7222 44.465,19.2462 44.465,19.8912 L44.465,53.8262 L39.785,53.8262 L39.785,33.9342 C39.785,33.2882 39.26,32.7632 38.615,32.7632 L31.593,32.7632 C30.948,32.7632 30.424,33.2882 30.424,33.9342 L30.424,53.8262 L25.743,53.8262 L25.743,29.2522 C25.743,28.6072 25.218,28.0822 24.573,28.0822 L17.552,28.0822 C16.906,28.0822 16.382,28.6072 16.382,29.2522 L16.382,53.8262 L11.701,53.8262 L11.701,40.9552 C11.701,40.3082 11.177,39.7842 10.531,39.7842 L3.51,39.7842 C2.865,39.7842 2.34,40.3082 2.34,40.9552 L2.34,53.8262 L1.171,53.8262 C0.524,53.8262 0,54.3492 0,54.9962 C0,55.6412 0.524,56.1662 1.171,56.1662 L3.51,56.1662 L10.531,56.1662 L17.552,56.1662 L24.573,56.1662 L31.593,56.1662 L38.615,56.1662 L45.635,56.1662 L52.656,56.1662 L54.996,56.1662 C55.642,56.1662 56.167,55.6412 56.167,54.9962 C56.167,54.3492 55.642,53.8262 54.996,53.8262 Z" id="Fill-1"></path>
              <path d="M7.0202,23.402 C8.3132,23.402 9.3612,24.454 9.3612,25.743 C9.3612,27.032 8.3132,28.083 7.0202,28.083 C5.7282,28.083 4.6802,27.032 4.6802,25.743 C4.6802,24.453 5.7282,23.402 7.0202,23.402 M21.0622,11.701 C22.3542,11.701 23.4032,12.752 23.4032,14.041 C23.4032,15.331 22.3542,16.381 21.0622,16.381 C19.7702,16.381 18.7222,15.331 18.7222,14.041 C18.7222,12.752 19.7702,11.701 21.0622,11.701 M35.1042,16.381 C36.3962,16.381 37.4442,17.432 37.4442,18.722 C37.4442,20.011 36.3962,21.062 35.1042,21.062 C33.8122,21.062 32.7632,20.011 32.7632,18.722 C32.7632,17.432 33.8122,16.381 35.1042,16.381 M49.1452,2.34 C50.4372,2.34 51.4862,3.39 51.4862,4.68 C51.4862,5.969 50.4372,7.02 49.1452,7.02 C48.5022,7.02 47.9212,6.759 47.4982,6.34 C47.4962,6.338 47.4962,6.335 47.4942,6.333 C47.4912,6.331 47.4882,6.33 47.4862,6.328 C47.0652,5.904 46.8052,5.322 46.8052,4.68 C46.8052,3.39 47.8542,2.34 49.1452,2.34 M7.0202,30.423 C9.6022,30.423 11.7012,28.324 11.7012,25.743 C11.7012,24.921 11.4692,24.16 11.0962,23.488 L18.2652,17.772 C19.0482,18.36 20.0092,18.722 21.0622,18.722 C22.7782,18.722 24.2652,17.784 25.0802,16.404 L30.5012,17.95 C30.4582,18.203 30.4232,18.458 30.4232,18.722 C30.4232,21.303 32.5232,23.402 35.1042,23.402 C37.6852,23.402 39.7852,21.303 39.7852,18.722 C39.7852,17.856 39.5332,17.055 39.1222,16.359 L46.7832,8.698 C47.4792,9.109 48.2802,9.361 49.1452,9.361 C51.7272,9.361 53.8262,7.261 53.8262,4.68 C53.8262,2.099 51.7272,0 49.1452,0 C46.5642,0 44.4642,2.099 44.4642,4.68 C44.4642,5.546 44.7172,6.347 45.1282,7.044 L37.4672,14.704 C36.7712,14.293 35.9692,14.041 35.1042,14.041 C33.6352,14.041 32.3392,14.734 31.4812,15.795 L25.7312,14.155 C25.7322,14.116 25.7432,14.08 25.7432,14.041 C25.7432,11.46 23.6442,9.361 21.0622,9.361 C18.4812,9.361 16.3812,11.46 16.3812,14.041 C16.3812,14.721 16.5352,15.364 16.7962,15.948 L9.4832,21.779 C8.7652,21.333 7.9262,21.062 7.0202,21.062 C4.4392,21.062 2.3402,23.162 2.3402,25.743 C2.3402,28.324 4.4392,30.423 7.0202,30.423" id="Fill-3"></path>
            </g>
          </g>
        </g>
      </g>
    </g>
  </g>
</svg>
