<?xml version="1.0" encoding="UTF-8"?>
<svg xmlns="http://www.w3.org/2000/svg" xmlns:xlink="http://www.w3.org/1999/xlink" width="124px" height="124px" viewBox="0 0 124 124">
  <!-- Generator: Sketch 50.2 (55047) - http://www.bohemiancoding.com/sketch -->
  <title>graph-alt</title>
  <desc>Created with Sketch.</desc>
  <defs>
    <polygon id="path-1" points="0.0003 0.667 63.333 0.667 63.333 64 0.0003 64"></polygon>
  </defs>
  <g id="Design" stroke="none" stroke-width="1" fill="none" fill-rule="evenodd">
    <g id="loans" transform="translate(-1037.000000, -1020.000000)">
      <g id="icons" transform="translate(232.000000, 1022.000000)">
        <g id="graph-alt" transform="translate(807.000000, 0.000000)">
          <circle id="Oval-Copy-2" stroke="#704C9F" stroke-width="3" fill="#FFFFFF" cx="60" cy="60" r="60"></circle>
          <g id="Page-1" transform="translate(28.000000, 27.000000)">
            <g id="Group-3" transform="translate(0.000000, 0.333400)">
              <mask id="mask-2" fill="white">
                <use xlink:href="#path-1"></use>
              </mask>
              <g id="Clip-2"></g>
              <path d="M62.3223,57.9362 L6.0633,57.9362 L6.0633,1.6772 C6.0633,1.1192 5.6113,0.6662 5.0523,0.6662 C4.4953,0.6662 4.0433,1.1192 4.0433,1.6772 L4.0433,10.2112 L1.0103,10.2112 C0.4533,10.2112 0.0003,10.6642 0.0003,11.2222 C0.0003,11.7802 0.4533,12.2332 1.0103,12.2332 L4.0433,12.2332 L4.0433,19.7562 L1.0103,19.7562 C0.4533,19.7562 0.0003,20.2092 0.0003,20.7672 C0.0003,21.3252 0.4533,21.7772 1.0103,21.7772 L4.0433,21.7772 L4.0433,29.3012 L1.0103,29.3012 C0.4533,29.3012 0.0003,29.7542 0.0003,30.3122 C0.0003,30.8702 0.4533,31.3232 1.0103,31.3232 L4.0433,31.3232 L4.0433,38.8462 L1.0103,38.8462 C0.4533,38.8462 0.0003,39.2982 0.0003,39.8572 C0.0003,40.4152 0.4533,40.8682 1.0103,40.8682 L4.0433,40.8682 L4.0433,48.3912 L1.0103,48.3912 C0.4533,48.3912 0.0003,48.8442 0.0003,49.4012 C0.0003,49.9592 0.4533,50.4122 1.0103,50.4122 L4.0433,50.4122 L4.0433,58.9472 C4.0433,59.5042 4.4953,59.9572 5.0523,59.9572 L19.9883,59.9572 L19.9883,62.9892 C19.9883,63.5472 20.4403,64.0002 20.9993,64.0002 C21.5563,64.0002 22.0093,63.5472 22.0093,62.9892 L22.0093,59.9572 L45.3663,59.9572 L45.3663,62.9892 C45.3663,63.5472 45.8193,64.0002 46.3773,64.0002 C46.9353,64.0002 47.3873,63.5472 47.3873,62.9892 L47.3873,59.9572 L62.3223,59.9572 C62.8813,59.9572 63.3333,59.5042 63.3333,58.9472 C63.3333,58.3892 62.8813,57.9362 62.3223,57.9362" id="Fill-1" fill="#36246A" mask="url(#mask-2)"></path>
            </g>
            <path d="M10.4434,56.2481 C11.0014,56.2481 11.4544,55.7951 11.4544,55.2381 L11.4544,31.6561 L19.9884,31.6561 L19.9884,55.2381 C19.9884,55.7951 20.4404,56.2481 20.9994,56.2481 C21.5564,56.2481 22.0094,55.7951 22.0094,55.2381 L22.0094,41.2011 L29.9824,41.2011 L29.9824,55.2381 C29.9824,55.7951 30.4344,56.2481 30.9934,56.2481 C31.5504,56.2481 32.0044,55.7951 32.0044,55.2381 L32.0044,40.1901 C32.0044,39.6321 31.5504,39.1801 30.9934,39.1801 L22.0094,39.1801 L22.0094,30.6451 C22.0094,30.0871 21.5564,29.6351 20.9994,29.6351 L10.4434,29.6351 C9.8854,29.6351 9.4324,30.0871 9.4324,30.6451 L9.4324,55.2381 C9.4324,55.7951 9.8854,56.2481 10.4434,56.2481" id="Fill-4" fill="#36246A"></path>
            <path d="M36.3828,56.2481 C36.9408,56.2481 37.3938,55.7951 37.3938,55.2381 L37.3938,12.5661 L45.3658,12.5661 L45.3658,55.2381 C45.3658,55.7951 45.8198,56.2481 46.3768,56.2481 C46.9358,56.2481 47.3878,55.7951 47.3878,55.2381 L47.3878,22.1111 L55.9218,22.1111 L55.9218,55.2381 C55.9218,55.7951 56.3748,56.2481 56.9328,56.2481 C57.4898,56.2481 57.9438,55.7951 57.9438,55.2381 L57.9438,21.1001 C57.9438,20.5421 57.4898,20.0901 56.9328,20.0901 L47.3878,20.0901 L47.3878,11.5561 C47.3878,10.9971 46.9358,10.5451 46.3768,10.5451 L36.3828,10.5451 C35.8248,10.5451 35.3718,10.9971 35.3718,11.5561 L35.3718,55.2381 C35.3718,55.7951 35.8248,56.2481 36.3828,56.2481" id="Fill-6" fill="#36246A"></path>
          </g>
        </g>
      </g>
    </g>
  </g>
</svg>
