<?xml version="1.0" encoding="UTF-8"?>
<svg xmlns="http://www.w3.org/2000/svg" xmlns:xlink="http://www.w3.org/1999/xlink" width="32px" height="21px" viewBox="0 0 32 21">
  <!-- Generator: Sketch 50.2 (55047) - http://www.bohemiancoding.com/sketch -->
  <title>graph</title>
  <desc>Created with Sketch.</desc>
  <defs>
    <polygon id="path-1" points="0.00015 0 31.798 0 31.798 21.6868 0.00015 21.6868"></polygon>
  </defs>
  <g id="Design" stroke="none" stroke-width="1" fill="none" fill-rule="evenodd">
    <g id="retail_banking" transform="translate(-437.000000, -2221.000000)">
      <g id="Platform" transform="translate(0.000000, 1962.000000)">
        <g id="graph" transform="translate(437.000000, 258.000000)">
          <mask id="mask-2" fill="white">
            <use xlink:href="#path-1"></use>
          </mask>
          <g id="Clip-2"></g>
          <path d="M31.5264,1.4308 C31.2984,1.1578 30.9664,0.9998 30.6134,0.9998 C30.5374,0.9998 30.4624,1.0068 30.3854,1.0208 L21.2744,2.7738 C20.8414,2.8578 20.4934,3.1698 20.3634,3.5918 C20.2354,4.0128 20.3474,4.4668 20.6604,4.7798 L24.0204,8.1398 L14.5394,17.6218 L9.8014,12.8838 C9.7464,12.8288 9.6814,12.7858 9.6124,12.7588 C9.4064,12.6758 9.1614,12.7168 8.9934,12.8838 L0.1674,21.7098 C-0.0556,21.9338 -0.0556,22.2958 0.1674,22.5188 C0.2794,22.6308 0.4244,22.6868 0.5714,22.6868 C0.7174,22.6868 0.8644,22.6308 0.9754,22.5188 L9.3974,14.0968 L14.1344,18.8338 C14.2464,18.9468 14.3924,19.0018 14.5394,19.0018 C14.6854,19.0018 14.8314,18.9468 14.9434,18.8338 L24.8304,8.9498 L28.0184,12.1388 C28.2434,12.3628 28.5404,12.4868 28.8544,12.4868 C29.4244,12.4868 29.9164,12.0808 30.0234,11.5228 L31.7764,2.4098 C31.8434,2.0618 31.7534,1.7038 31.5264,1.4308 Z M28.9014,11.3068 C28.8944,11.3398 28.8674,11.3428 28.8544,11.3428 C28.8454,11.3428 28.8384,11.3408 28.8274,11.3298 L21.4674,3.9698 C21.4604,3.9618 21.4494,3.9518 21.4574,3.9258 C21.4644,3.9028 21.4794,3.8988 21.4914,3.8968 L30.6024,2.1438 C30.6064,2.1438 30.6104,2.1428 30.6134,2.1428 C30.6294,2.1428 30.6404,2.1548 30.6454,2.1598 C30.6564,2.1728 30.6554,2.1848 30.6534,2.1958 L28.9014,11.3068 Z" id="Fill-1" fill="#704C9F" mask="url(#mask-2)"></path>
        </g>
      </g>
    </g>
  </g>
</svg>
