<?xml version="1.0" encoding="UTF-8"?>
<svg xmlns="http://www.w3.org/2000/svg" xmlns:xlink="http://www.w3.org/1999/xlink" width="124px" height="124px" viewBox="0 0 124 124">
  <!-- Generator: Sketch 50.2 (55047) - http://www.bohemiancoding.com/sketch -->
  <title>icon 1</title>
  <desc>Created with Sketch.</desc>
  <defs>
    <polygon id="path-1" points="0.000172004002 0.316461538 31.7650766 0.316461538 31.7650766 32.2422081 0.000172004002 32.2422081"></polygon>
    <polygon id="path-3" points="0.757707277 0.234772029 32.6835385 0.234772029 32.6835385 31.9997613 0.757707277 31.9997613"></polygon>
  </defs>
  <g id="Design" stroke="none" stroke-width="1" fill="none" fill-rule="evenodd">
    <g id="customer_story" transform="translate(-256.000000, -1466.000000)">
      <g id="Group-4" transform="translate(186.000000, 1468.000000)">
        <g id="icon-1" transform="translate(72.000000, 0.000000)">
          <circle id="Oval" stroke="#704C9F" stroke-width="3" fill="#FFFFFF" cx="60" cy="60" r="60"></circle>
          <g id="Page-1" transform="translate(28.000000, 29.000000)">
            <g id="Group-3">
              <mask id="mask-2" fill="white">
                <use xlink:href="#path-1"></use>
              </mask>
              <g id="Clip-2"></g>
              <path d="M31.7649684,11.0890154 C31.7750737,10.2318615 31.0761263,9.5304 30.2087579,9.52532308 C29.3674947,9.52701538 28.6643368,10.2335538 28.6677053,11.0737846 L28.6693895,26.9230923 L2.64581053,0.7744 C2.03781053,0.163476923 1.07023158,0.163476923 0.463073684,0.7744 C-0.144926316,1.38532308 -0.1584,2.37109231 0.448757895,2.98116923 L26.4723368,29.1298615 L10.7123368,29.1154769 C9.8576,29.1298615 9.15865263,29.8330154 9.15696842,30.6783231 C9.15865263,31.5540923 9.85675789,32.2555538 10.7123368,32.2420154 L30.2188632,32.2420154 C31.0752842,32.2555538 31.7784421,31.5490154 31.7599158,30.6935538 L31.7649684,11.0890154 Z" id="Fill-1" fill="#36246A" mask="url(#mask-2)"></path>
            </g>
            <g id="Group-6" transform="translate(33.000000, 33.000000)">
              <mask id="mask-4" fill="white">
                <use xlink:href="#path-3"></use>
              </mask>
              <g id="Clip-5"></g>
              <path d="M2.30636154,0.239915789 C1.4509,0.221389474 0.744361538,0.924547368 0.7579,1.78096842 L0.7579,21.2874947 C0.744361538,22.1430737 1.44582308,22.8420211 2.32159231,22.8428632 C3.1669,22.8420211 3.87005385,22.1422316 3.88443846,21.2874947 L3.87005385,5.52749474 L30.0179,31.5510737 C30.6288231,32.1582316 31.6145923,32.1447579 32.2255154,31.5376 C32.8364385,30.9296 32.8364385,29.9620211 32.2255154,29.3540211 L6.07682308,3.33044211 L21.9261308,3.33212632 C22.7663615,3.33549474 23.4729,2.63233684 23.4745923,1.79107368 C23.4695154,0.923705263 22.7680538,0.2256 21.9109,0.234863158 L2.30636154,0.239915789 Z" id="Fill-4" fill="#36246A" mask="url(#mask-4)"></path>
            </g>
          </g>
        </g>
      </g>
    </g>
  </g>
</svg>
