<?xml version="1.0" encoding="UTF-8"?>
<svg xmlns="http://www.w3.org/2000/svg" xmlns:xlink="http://www.w3.org/1999/xlink" width="124px" height="124px" viewBox="0 0 124 124">
  <!-- Generator: Sketch 50.2 (55047) - http://www.bohemiancoding.com/sketch -->
  <title>icon 2</title>
  <desc>Created with Sketch.</desc>
  <defs></defs>
  <g id="Design" stroke="none" stroke-width="1" fill="none" fill-rule="evenodd">
    <g id="customer_story" transform="translate(-658.000000, -1466.000000)">
      <g id="Group-4" transform="translate(186.000000, 1468.000000)">
        <g id="icon-2" transform="translate(474.000000, 0.000000)">
          <circle id="Oval-Copy" stroke="#704C9F" stroke-width="3" fill="#FFFFFF" cx="60" cy="60" r="60"></circle>
          <g id="Page-1" transform="translate(33.000000, 30.000000)" fill="#36246A">
            <path d="M1.92498182,57.0310483 L52.0750182,57.0310483 L52.0750182,16.718782 L1.92498182,16.718782 L1.92498182,57.0310483 Z M1.92498182,5.90074659 L7.71257411,5.90074659 L7.71257411,8.84840502 C7.71257411,9.39137687 8.14522909,9.83322021 8.67839314,9.83322021 L15.4251482,9.83322021 C15.962306,9.83322021 16.3909672,9.39137687 16.3909672,8.84840502 L16.3909672,5.90074659 L37.6090328,5.90074659 L37.6090328,8.84840502 C37.6090328,9.39137687 38.037694,9.83322021 38.5748518,9.83322021 L45.3216069,9.83322021 C45.8547709,9.83322021 46.2874259,9.39137687 46.2874259,8.84840502 L46.2874259,5.90074659 L52.0750182,5.90074659 L52.0750182,14.7498303 L1.92498182,14.7498303 L1.92498182,5.90074659 Z M9.64354654,7.86426854 L14.4653198,7.86426854 L14.4653198,1.96895167 L9.64354654,1.96895167 L9.64354654,7.86426854 Z M39.5346802,7.86426854 L44.3564535,7.86426854 L44.3564535,1.96895167 L39.5346802,1.96895167 L39.5346802,7.86426854 Z M53.0408372,3.93179491 L46.2874259,3.93179491 L46.2874259,0.984136479 C46.2874259,0.440485914 45.8547709,0 45.3216069,0 L38.5748518,0 C38.037694,0 37.6090328,0.440485914 37.6090328,0.984136479 L37.6090328,3.93179491 L16.3909672,3.93179491 L16.3909672,0.984136479 C16.3909672,0.440485914 15.962306,0 15.4251482,0 L8.67839314,0 C8.14522909,0 7.71257411,0.440485914 7.71257411,0.984136479 L7.71257411,3.93179491 L0.959162794,3.93179491 C0.427995612,3.93179491 0,4.37431697 0,4.91661011 L0,58.0158635 C0,58.5588354 0.427995612,59 0.959162794,59 L53.0408372,59 C53.5720044,59 54,58.5588354 54,58.0158635 L54,4.91661011 C54,4.37431697 53.5720044,3.93179491 53.0408372,3.93179491 Z" id="Fill-1"></path>
            <path d="M36.2371074,30.6925731 L43.0562751,30.6925731 L43.0562751,23.9329415 L36.2371074,23.9329415 L36.2371074,30.6925731 Z M36.2371074,39.3798158 L43.0562751,39.3798158 L43.0562751,32.6201842 L36.2371074,32.6201842 L36.2371074,39.3798158 Z M36.2371074,48.0663922 L43.0562751,48.0663922 L43.0562751,41.3067606 L36.2371074,41.3067606 L36.2371074,48.0663922 Z M27.4748869,48.0663922 L34.2873336,48.0663922 L34.2873336,41.3067606 L27.4748869,41.3067606 L27.4748869,48.0663922 Z M18.7126664,48.0663922 L25.5251131,48.0663922 L25.5251131,41.3067606 L18.7126664,41.3067606 L18.7126664,48.0663922 Z M9.94305281,48.0663922 L16.7622205,48.0663922 L16.7622205,41.3067606 L9.94305281,41.3067606 L9.94305281,48.0663922 Z M9.94372491,39.3798158 L16.7628926,39.3798158 L16.7628926,32.6201842 L9.94372491,32.6201842 L9.94372491,39.3798158 Z M9.94372491,30.6925731 L16.7628926,30.6925731 L16.7628926,23.9329415 L9.94372491,23.9329415 L9.94372491,30.6925731 Z M18.7126664,30.6925731 L25.5251131,30.6925731 L25.5251131,23.9329415 L18.7126664,23.9329415 L18.7126664,30.6925731 Z M18.7126664,39.3798158 L25.5251131,39.3798158 L25.5251131,32.6201842 L18.7126664,32.6201842 L18.7126664,39.3798158 Z M27.4748869,39.3798158 L34.2873336,39.3798158 L34.2873336,32.6201842 L27.4748869,32.6201842 L27.4748869,39.3798158 Z M27.4748869,30.6925731 L34.2873336,30.6925731 L34.2873336,23.9329415 L27.4748869,23.9329415 L27.4748869,30.6925731 Z M34.2873336,22 L8,22 L8,50 L45,50 L45,22 L34.2873336,22 Z" id="Fill-3"></path>
          </g>
        </g>
      </g>
    </g>
  </g>
</svg>
