<?xml version="1.0" encoding="UTF-8"?>
<svg xmlns="http://www.w3.org/2000/svg" xmlns:xlink="http://www.w3.org/1999/xlink" width="124px" height="124px" viewBox="0 0 124 124">
  <!-- Generator: Sketch 50.2 (55047) - http://www.bohemiancoding.com/sketch -->
  <title>icon 3</title>
  <desc>Created with Sketch.</desc>
  <defs>
    <polygon id="path-1" points="0 0.175707071 39.9778571 0.175707071 39.9778571 71 0 71"></polygon>
  </defs>
  <g id="Design" stroke="none" stroke-width="1" fill="none" fill-rule="evenodd">
    <g id="customer_story" transform="translate(-1065.000000, -1466.000000)">
      <g id="Group-4" transform="translate(186.000000, 1468.000000)">
        <g id="icon-3" transform="translate(881.000000, 0.000000)">
          <circle id="Oval-Copy-2" stroke="#704C9F" stroke-width="3" fill="#FFFFFF" cx="60" cy="60" r="60"></circle>
          <g id="Page-1" transform="translate(40.000000, 24.000000)">
            <path d="M23.1822758,23.2830586 C22.8136921,22.9056471 22.2031809,22.9056471 21.8210777,23.2830586 C21.4532056,23.651925 21.4532056,24.2678891 21.8210777,24.6324829 L28.7217043,31.5362654 L5.95490213,31.5362654 C5.42337315,31.5362654 5,31.9606754 5,32.492612 C5,33.0245486 5.42337315,33.45964 5.95490213,33.45964 L28.7217043,33.45964 L21.8210777,40.352029 C21.4532056,40.733001 21.4532056,41.3454046 21.8210777,41.714271 C22.2031809,42.095243 22.8136921,42.095243 23.1822758,41.714271 L31.71449,33.1755132 C32.09517,32.8066469 32.09517,32.1906828 31.71449,31.826089 L23.1822758,23.2830586 Z" id="Fill-1" fill="#36246A"></path>
            <g id="Group-5">
              <mask id="mask-2" fill="white">
                <use xlink:href="#path-1"></use>
              </mask>
              <g id="Clip-4"></g>
              <path d="M34.7933571,68.636202 L5.18478571,68.636202 C3.62264286,68.636202 2.35407143,67.3632222 2.35407143,65.8019394 L2.35407143,56.8322727 L37.6240714,56.8322727 L37.6240714,65.8019394 C37.6240714,67.3632222 36.3555,68.636202 34.7933571,68.636202 Z M5.18478571,2.53950505 L34.7933571,2.53950505 C36.3555,2.53950505 37.6240714,3.81248485 37.6240714,5.37376768 L37.6240714,7.25921212 L2.35407143,7.25921212 L2.35407143,5.37376768 C2.35407143,3.81248485 3.62264286,2.53950505 5.18478571,2.53950505 Z M2.35407143,54.4756465 L37.6233571,54.4756465 L37.6233571,9.61583838 L2.35407143,9.61583838 L2.35407143,54.4756465 Z M34.7933571,0.175707071 L5.18478571,0.175707071 C2.32478571,0.175707071 -0.000214285714,2.51010101 -0.000214285714,5.37376768 L-0.000214285714,65.8019394 C-0.000214285714,68.6656061 2.32478571,71 5.18478571,71 L34.7933571,71 C37.6533571,71 39.9783571,68.6656061 39.9783571,65.8019394 L39.9783571,5.37376768 C39.9783571,2.51010101 37.6533571,0.175707071 34.7933571,0.175707071 Z" id="Fill-3" fill="#36246A" mask="url(#mask-2)"></path>
            </g>
            <path d="M21,65.4979124 C19.6197204,65.4979124 18.4962018,64.3751613 18.4962018,62.9958248 C18.4962018,61.6240796 19.6197204,60.5013285 21,60.5013285 C22.3802796,60.5013285 23.5037982,61.6240796 23.5037982,62.9958248 C23.5037982,64.3751613 22.3802796,65.4979124 21,65.4979124 M21,58 C18.2402005,58 16,60.2455022 16,62.9958248 C16,65.7537387 18.2402005,68 21,68 C23.7597995,68 26,65.7537387 26,62.9958248 C26,60.2455022 23.7597995,58 21,58" id="Fill-6" fill="#36246A"></path>
            <path d="M15.167966,6 L19.8327427,6 C20.4755493,6 21,5.3273665 21,4.5 C21,3.67445388 20.4755493,3 19.8327427,3 L15.167966,3 C14.523742,3 14,3.67445388 14,4.5 C14,5.3273665 14.523742,6 15.167966,6" id="Fill-8" fill="#36246A"></path>
            <path d="M23.9959465,6 L24.9979732,6 C25.5512769,6 26,5.3273665 26,4.5 C26,3.67445388 25.5512769,3 24.9979732,3 L23.9959465,3 C23.444467,3 23,3.67445388 23,4.5 C23,5.3273665 23.444467,6 23.9959465,6" id="Fill-10" fill="#36246A"></path>
          </g>
        </g>
      </g>
    </g>
  </g>
</svg>
