<?xml version="1.0" encoding="UTF-8"?>
<svg xmlns="http://www.w3.org/2000/svg" xmlns:xlink="http://www.w3.org/1999/xlink" width="26px" height="26px" viewBox="0 0 26 26">
  <!-- Generator: Sketch 50.2 (55047) - http://www.bohemiancoding.com/sketch -->
  <title>inner arrows</title>
  <desc>Created with Sketch.</desc>
  <defs>
    <polygon id="path-1" points="0.0154052872 0.288006922 11.791 0.288006922 11.791 11.9389 0.0154052872 11.9389"></polygon>
    <polygon id="path-3" points="0.98871535 0.305 12.44745 0.305 12.44745 11.94 0.98871535 11.94"></polygon>
  </defs>
  <g id="Design" stroke="none" stroke-width="1" fill="none" fill-rule="evenodd">
    <g id="retail_banking" transform="translate(-1029.000000, -2220.000000)">
      <g id="Platform" transform="translate(0.000000, 1962.000000)">
        <g id="inner-arrows" transform="translate(1029.000000, 257.000000)">
          <g id="Group-3" transform="translate(14.000000, 14.695300)">
            <mask id="mask-2" fill="white">
              <use xlink:href="#path-1"></use>
            </mask>
            <g id="Clip-2"></g>
            <path d="M11.6239,10.9629 L5.3299,4.6689 L7.2339,2.7659 C7.4419,2.5579 7.5169,2.2549 7.4309,1.9749 C7.3459,1.6949 7.1119,1.4869 6.8249,1.4309 L0.9549,0.3019 C0.6729,0.2479 0.3799,0.3539 0.1959,0.5749 C0.0459,0.7569 -0.0151,0.9949 0.0299,1.2269 L1.1589,7.0969 C1.2299,7.4679 1.5579,7.7369 1.9359,7.7369 C2.1449,7.7369 2.3449,7.6549 2.4939,7.5059 L4.5219,5.4779 L10.8139,11.7719 C10.9269,11.8839 11.0729,11.9389 11.2199,11.9389 C11.3659,11.9389 11.5119,11.8839 11.6239,11.7719 C11.8469,11.5479 11.8469,11.1869 11.6239,10.9629 Z M2.1569,6.2269 L1.2519,1.5239 L5.9549,2.4289 L2.1569,6.2269 Z" id="Fill-1" fill="#704C9F" mask="url(#mask-2)"></path>
          </g>
          <path d="M6.2401,8.3638 L4.3301,10.2738 C4.1231,10.4808 4.0471,10.7838 4.1341,11.0638 C4.2191,11.3438 4.4511,11.5518 4.7401,11.6088 L10.6081,12.7368 C10.6581,12.7468 10.7091,12.7508 10.7591,12.7508 C10.9951,12.7508 11.2171,12.6468 11.3671,12.4648 C11.5171,12.2818 11.5791,12.0438 11.5341,11.8128 L10.4041,5.9428 C10.3331,5.5718 10.0071,5.3008 9.6291,5.3008 C9.4181,5.3008 9.2201,5.3838 9.0711,5.5328 L7.0491,7.5548 L0.9751,1.4828 C0.7531,1.2588 0.3901,1.2588 0.1681,1.4828 C-0.0559,1.7058 -0.0559,2.0678 0.1681,2.2908 L6.2401,8.3638 Z M9.4081,6.8128 L10.3121,11.5148 L5.6101,10.6108 L7.3061,8.9138 C7.3711,8.8858 7.4301,8.8488 7.4821,8.7978 C7.5341,8.7458 7.5711,8.6848 7.5981,8.6218 L9.4081,6.8128 Z" id="Fill-4" fill="#704C9F"></path>
          <path d="M10.7225,15.022 L4.8525,16.151 C4.5655,16.206 4.3325,16.415 4.2465,16.694 C4.1605,16.976 4.2365,17.277 4.4435,17.485 L6.4385,19.48 L0.2015,25.72 C-0.0235,25.943 -0.0235,26.305 0.2015,26.528 C0.3115,26.641 0.4585,26.695 0.6045,26.695 C0.7505,26.695 0.8975,26.641 1.0085,26.528 L7.2475,20.289 L9.1835,22.226 C9.3325,22.375 9.5325,22.457 9.7415,22.457 C10.1195,22.457 10.4475,22.189 10.5185,21.816 L11.6465,15.947 C11.6925,15.714 11.6315,15.478 11.4815,15.295 C11.2975,15.074 11.0045,14.968 10.7225,15.022 Z M9.5215,20.946 L5.7235,17.148 L10.4265,16.244 L9.5215,20.946 Z" id="Fill-6" fill="#704C9F"></path>
          <g id="Group-10" transform="translate(13.000000, 0.695300)">
            <mask id="mask-4" fill="white">
              <use xlink:href="#path-3"></use>
            </mask>
            <g id="Clip-9"></g>
            <path d="M1.7782,11.94 C1.8292,11.94 1.8792,11.936 1.9282,11.926 L7.7982,10.796 C8.0862,10.741 8.3172,10.533 8.4032,10.253 C8.4902,9.972 8.4142,9.67 8.2072,9.462 L6.1522,7.408 L12.2802,1.281 C12.5032,1.057 12.5032,0.694 12.2802,0.472 C12.0562,0.249 11.6942,0.249 11.4712,0.472 L5.3442,6.599 L3.4662,4.722 C3.3172,4.573 3.1192,4.49 2.9092,4.49 C2.5302,4.49 2.2042,4.759 2.1322,5.131 L1.0032,11.001 C0.9582,11.233 1.0192,11.47 1.1702,11.652 C1.3202,11.835 1.5422,11.94 1.7782,11.94 Z M3.1292,6.002 L6.9262,9.799 L2.2242,10.704 L3.1292,6.002 Z" id="Fill-8" fill="#704C9F" mask="url(#mask-4)"></path>
          </g>
        </g>
      </g>
    </g>
  </g>
</svg>
