<?xml version="1.0" encoding="UTF-8"?>
<svg xmlns="http://www.w3.org/2000/svg" xmlns:xlink="http://www.w3.org/1999/xlink" width="45px" height="45px" viewBox="0 0 45 45">
  <!-- Generator: Sketch 50.2 (55047) - http://www.bohemiancoding.com/sketch -->
  <title>inner-arrows_wht</title>
  <desc>Created with Sketch.</desc>
  <defs></defs>
  <g id="Design" stroke="none" stroke-width="1" fill="none" fill-rule="evenodd">
    <g id="products" transform="translate(-1018.000000, -1492.000000)">
      <g id="inner-arrows_wht" transform="translate(1018.000000, 1492.000000)">
        <ellipse id="Oval-Copy-3" fill="#FFFFFF" fill-rule="nonzero" cx="22.2906977" cy="22.2681818" rx="22.2906977" ry="22.2681818"></ellipse>
        <g id="inner-arrows" transform="translate(9.000000, 9.000000)" fill="#704C9F">
          <path d="M6.2401,7.3638 L4.3301,9.2738 C4.1231,9.4808 4.0471,9.7838 4.1341,10.0638 C4.2191,10.3438 4.4511,10.5518 4.7401,10.6088 L10.6081,11.7368 C10.6581,11.7468 10.7091,11.7508 10.7591,11.7508 C10.9951,11.7508 11.2171,11.6468 11.3671,11.4648 C11.5171,11.2818 11.5791,11.0438 11.5341,10.8128 L10.4041,4.9428 C10.3331,4.5718 10.0071,4.3008 9.6291,4.3008 C9.4181,4.3008 9.2201,4.3838 9.0711,4.5328 L7.0491,6.5548 L0.9751,0.4828 C0.7531,0.2588 0.3901,0.2588 0.1681,0.4828 C-0.0559,0.7058 -0.0559,1.0678 0.1681,1.2908 L6.2401,7.3638 Z M9.4081,5.8128 L10.3121,10.5148 L5.6101,9.6108 L7.3061,7.9138 C7.3711,7.8858 7.4301,7.8488 7.4821,7.7978 C7.5341,7.7458 7.5711,7.6848 7.5981,7.6218 L9.4081,5.8128 Z" id="Fill-4"></path>
          <path d="M25.6239,24.6582 L19.3299,18.3642 L21.2339,16.4612 C21.4419,16.2532 21.5169,15.9502 21.4309,15.6702 C21.3459,15.3902 21.1119,15.1822 20.8249,15.1262 L14.9549,13.9972 C14.6729,13.9432 14.3799,14.0492 14.1959,14.2702 C14.0459,14.4522 13.9849,14.6902 14.0299,14.9222 L15.1589,20.7922 C15.2299,21.1632 15.5579,21.4322 15.9359,21.4322 C16.1449,21.4322 16.3449,21.3502 16.4939,21.2012 L18.5219,19.1732 L24.8139,25.4672 C24.9269,25.5792 25.0729,25.6342 25.2199,25.6342 C25.3659,25.6342 25.5119,25.5792 25.6239,25.4672 C25.8469,25.2432 25.8469,24.8822 25.6239,24.6582 Z M16.1569,19.9222 L15.2519,15.2192 L19.9549,16.1242 L16.1569,19.9222 Z" id="Fill-1"></path>
          <path d="M10.7225,14.022 L4.8525,15.151 C4.5655,15.206 4.3325,15.415 4.2465,15.694 C4.1605,15.976 4.2365,16.277 4.4435,16.485 L6.4385,18.48 L0.2015,24.72 C-0.0235,24.943 -0.0235,25.305 0.2015,25.528 C0.3115,25.641 0.4585,25.695 0.6045,25.695 C0.7505,25.695 0.8975,25.641 1.0085,25.528 L7.2475,19.289 L9.1835,21.226 C9.3325,21.375 9.5325,21.457 9.7415,21.457 C10.1195,21.457 10.4475,21.189 10.5185,20.816 L11.6465,14.947 C11.6925,14.714 11.6315,14.478 11.4815,14.295 C11.2975,14.074 11.0045,13.968 10.7225,14.022 Z M9.5215,19.946 L5.7235,16.148 L10.4265,15.244 L9.5215,19.946 Z" id="Fill-6"></path>
          <path d="M14.7782,11.6353 C14.8292,11.6353 14.8792,11.6313 14.9282,11.6213 L20.7982,10.4913 C21.0862,10.4363 21.3172,10.2283 21.4032,9.9483 C21.4902,9.6673 21.4142,9.3653 21.2072,9.1573 L19.1522,7.1033 L25.2802,0.9763 C25.5032,0.7523 25.5032,0.3893 25.2802,0.1673 C25.0562,-0.0557 24.6942,-0.0557 24.4712,0.1673 L18.3442,6.2943 L16.4662,4.4173 C16.3172,4.2683 16.1192,4.1853 15.9092,4.1853 C15.5302,4.1853 15.2042,4.4543 15.1322,4.8263 L14.0032,10.6963 C13.9582,10.9283 14.0192,11.1653 14.1702,11.3473 C14.3202,11.5303 14.5422,11.6353 14.7782,11.6353 Z M16.1292,5.6973 L19.9262,9.4943 L15.2242,10.3993 L16.1292,5.6973 Z" id="Fill-8"></path>
        </g>
      </g>
    </g>
  </g>
</svg>
