<?xml version="1.0" encoding="UTF-8"?>
<svg xmlns="http://www.w3.org/2000/svg" xmlns:xlink="http://www.w3.org/1999/xlink" width="45px" height="45px" viewBox="0 0 45 45">
  <!-- Generator: Sketch 50.2 (55047) - http://www.bohemiancoding.com/sketch -->
  <title>list_wht</title>
  <desc>Created with Sketch.</desc>
  <defs></defs>
  <g id="Design" stroke="none" stroke-width="1" fill="none" fill-rule="evenodd">
    <g id="products" transform="translate(-725.000000, -1700.000000)">
      <g id="list_wht" transform="translate(725.000000, 1700.000000)">
        <ellipse id="Oval" fill="#FFFFFF" fill-rule="nonzero" cx="22.2906977" cy="22.2681818" rx="22.2906977" ry="22.2681818"></ellipse>
        <g id="list" transform="translate(8.000000, 13.000000)" fill="#704C9F">
          <path d="M8.8785,3.4626 L26.4125,3.4626 C26.7295,3.4626 26.9845,3.2066 26.9845,2.8906 C26.9845,2.5746 26.7295,2.3186 26.4125,2.3186 L8.8785,2.3186 C8.5625,2.3186 8.3065,2.5746 8.3065,2.8906 C8.3065,3.2066 8.5625,3.4626 8.8785,3.4626" id="Fill-1"></path>
          <path d="M26.4127,9.3044 L8.8787,9.3044 C8.5617,9.3044 8.3067,9.5604 8.3067,9.8764 C8.3067,10.1924 8.5617,10.4484 8.8787,10.4484 L26.4127,10.4484 C26.7287,10.4484 26.9847,10.1924 26.9847,9.8764 C26.9847,9.5604 26.7287,9.3044 26.4127,9.3044" id="Fill-3"></path>
          <path d="M26.4127,16.1306 L8.8787,16.1306 C8.5617,16.1306 8.3067,16.3866 8.3067,16.7016 C8.3067,17.0176 8.5617,17.2746 8.8787,17.2746 L26.4127,17.2746 C26.7287,17.2746 26.9847,17.0176 26.9847,16.7016 C26.9847,16.3866 26.7287,16.1306 26.4127,16.1306" id="Fill-5"></path>
          <path d="M3.8912,-0.0003 C2.2972,-0.0003 0.9992,1.2967 0.9992,2.8917 C0.9992,4.4847 2.2972,5.7807 3.8912,5.7807 C5.4852,5.7807 6.7832,4.4847 6.7832,2.8917 C6.7832,1.2967 5.4852,-0.0003 3.8912,-0.0003 M3.8912,4.6377 C2.9272,4.6377 2.1442,3.8537 2.1442,2.8917 C2.1442,1.9277 2.9272,1.1437 3.8912,1.1437 C4.8552,1.1437 5.6382,1.9277 5.6382,2.8917 C5.6382,3.8537 4.8552,4.6377 3.8912,4.6377" id="Fill-7"></path>
          <path d="M3.8912,6.9861 C2.2972,6.9861 0.9992,8.2821 0.9992,9.8761 C0.9992,11.4701 2.2972,12.7671 3.8912,12.7671 C5.4852,12.7671 6.7832,11.4701 6.7832,9.8761 C6.7832,8.2821 5.4852,6.9861 3.8912,6.9861 M3.8912,11.6231 C2.9272,11.6231 2.1442,10.8401 2.1442,9.8761 C2.1442,8.9131 2.9272,8.1301 3.8912,8.1301 C4.8552,8.1301 5.6382,8.9131 5.6382,9.8761 C5.6382,10.8401 4.8552,11.6231 3.8912,11.6231" id="Fill-10"></path>
          <path d="M3.8912,13.8113 C2.2972,13.8113 0.9992,15.1093 0.9992,16.7033 C0.9992,18.2963 2.2972,19.5923 3.8912,19.5923 C5.4852,19.5923 6.7832,18.2963 6.7832,16.7033 C6.7832,15.1093 5.4852,13.8113 3.8912,13.8113 M3.8912,18.4493 C2.9272,18.4493 2.1442,17.6653 2.1442,16.7033 C2.1442,15.7393 2.9272,14.9553 3.8912,14.9553 C4.8552,14.9553 5.6382,15.7393 5.6382,16.7033 C5.6382,17.6653 4.8552,18.4493 3.8912,18.4493" id="Fill-13"></path>
        </g>
      </g>
    </g>
  </g>
</svg>
