<?xml version="1.0" encoding="UTF-8"?>
<svg xmlns="http://www.w3.org/2000/svg" xmlns:xlink="http://www.w3.org/1999/xlink" width="124px" height="124px" viewBox="0 0 124 124">
  <!-- Generator: Sketch 50.2 (55047) - http://www.bohemiancoding.com/sketch -->
  <title>list icon</title>
  <desc>Created with Sketch.</desc>
  <defs>
    <polygon id="path-1" points="0.72 0.1075 25.613 0.1075 25.613 25 0.72 25"></polygon>
    <polygon id="path-3" points="0 0.429 51.6963 0.429 51.6963 52.124 0 52.124"></polygon>
  </defs>
  <g id="Design" stroke="none" stroke-width="1" fill="none" fill-rule="evenodd">
    <g id="business_banking" transform="translate(-260.000000, -1016.000000)">
      <g id="main-info" transform="translate(175.000000, 1018.000000)">
        <g id="pre-features">
          <g id="list-icon" transform="translate(87.000000, 0.000000)">
            <circle id="Oval" stroke="#704C9F" stroke-width="3" fill="#FFFFFF" cx="60" cy="60" r="60"></circle>
            <g id="Page-1" transform="translate(34.000000, 33.000000)">
              <g id="Group-3" transform="translate(28.000000, 30.571600)">
                <mask id="mask-2" fill="white">
                  <use xlink:href="#path-1"></use>
                </mask>
                <g id="Clip-2"></g>
                <path d="M23.696,13.2755 L23.06,13.3795 C21.76,13.5755 20.676,14.4115 20.152,15.6135 C19.63,16.8145 19.756,18.1785 20.49,19.2635 L20.836,19.7775 L20.101,20.5125 L19.928,20.3855 C18.848,19.5955 17.465,19.4265 16.226,19.9415 C14.988,20.4515 14.128,21.5495 13.922,22.8725 L13.894,23.0835 L12.851,23.0835 L12.734,22.4745 C12.486,21.1895 11.613,20.1325 10.392,19.6565 C9.172,19.1785 7.812,19.3575 6.756,20.1285 L6.231,20.5125 L5.498,19.7725 L5.843,19.2635 C6.579,18.1785 6.704,16.8145 6.18,15.6135 C5.657,14.4115 4.568,13.5755 3.273,13.3745 L2.637,13.2755 L2.637,12.2385 L3.24,12.1215 C4.531,11.8735 5.582,10.9985 6.064,9.7795 C6.54,8.5585 6.363,7.1995 5.592,6.1375 L5.209,5.6185 L5.942,4.8845 L6.793,5.4595 C7.854,6.1795 9.196,6.3145 10.383,5.8245 C11.565,5.3335 12.416,4.2915 12.66,3.0285 L12.851,2.0185 L13.894,2.0185 L13.992,2.6605 C14.188,3.9555 15.025,5.0445 16.226,5.5665 C17.432,6.0905 18.797,5.9635 19.883,5.2305 L20.392,4.8845 L21.126,5.6185 L20.741,6.1375 C19.97,7.1995 19.794,8.5535 20.27,9.7795 C20.751,10.9985 21.802,11.8735 23.092,12.1215 L23.696,12.2385 L23.696,13.2755 Z M24.837,10.5075 L23.453,10.2425 C22.803,10.1155 22.294,9.6905 22.05,9.0785 C21.812,8.4605 21.896,7.8055 22.289,7.2735 L23.154,6.0905 C23.434,5.7075 23.392,5.1785 23.06,4.8475 L21.186,2.9725 C20.858,2.6455 20.348,2.5985 19.97,2.8565 L18.806,3.6465 C18.259,4.0145 17.596,4.0755 16.993,3.8095 C16.385,3.5475 15.983,3.0185 15.881,2.3695 L15.655,0.9165 C15.586,0.4535 15.184,0.1075 14.712,0.1075 L12.061,0.1075 C11.603,0.1075 11.206,0.4345 11.121,0.8825 L10.775,2.6685 C10.654,3.3045 10.243,3.8095 9.649,4.0575 C9.05,4.3055 8.401,4.2345 7.869,3.8755 L6.363,2.8565 C5.98,2.5985 5.47,2.6455 5.147,2.9725 L3.273,4.8475 C2.937,5.1785 2.898,5.7075 3.175,6.0905 L4.044,7.2735 C4.436,7.8055 4.521,8.4605 4.278,9.0785 C4.039,9.6955 3.526,10.1155 2.881,10.2425 L1.496,10.5075 C1.048,10.5925 0.72,10.9905 0.72,11.4475 L0.72,14.0975 C0.72,14.5705 1.066,14.9725 1.53,15.0425 L2.983,15.2675 C3.638,15.3705 4.161,15.7725 4.428,16.3795 C4.689,16.9825 4.629,17.6465 4.259,18.1935 L3.469,19.3575 C3.213,19.7355 3.259,20.2455 3.587,20.5725 L5.461,22.4475 C5.792,22.7785 6.321,22.8205 6.704,22.5415 L7.886,21.6755 C8.421,21.2835 9.078,21.1995 9.691,21.4425 C10.308,21.6805 10.728,22.1905 10.855,22.8395 L11.121,24.2235 C11.206,24.6715 11.603,25.0005 12.061,25.0005 L14.712,25.0005 C15.184,25.0005 15.586,24.6545 15.66,24.1865 L15.814,23.1665 C15.918,22.5085 16.343,21.9645 16.96,21.7095 C17.577,21.4565 18.259,21.5355 18.797,21.9325 L19.63,22.5415 C20.012,22.8205 20.54,22.7785 20.873,22.4475 L22.747,20.5725 C23.07,20.2455 23.122,19.7355 22.864,19.3575 L22.074,18.1935 C21.705,17.6465 21.643,16.9825 21.906,16.3795 C22.173,15.7725 22.695,15.3705 23.35,15.2675 L24.8,15.0425 C25.267,14.9725 25.613,14.5705 25.613,14.0975 L25.613,11.4475 C25.613,10.9905 25.285,10.5925 24.837,10.5075 Z" id="Fill-1" fill="#36246A" mask="url(#mask-2)"></path>
              </g>
              <path d="M41.1638,45.9985 C39.5838,45.9985 38.2948,44.7065 38.2948,43.1225 C38.2948,41.5375 39.5838,40.2525 41.1638,40.2525 C42.7498,40.2525 44.0398,41.5375 44.0398,43.1225 C44.0398,44.7065 42.7498,45.9985 41.1638,45.9985 M41.1638,38.3355 C38.5268,38.3355 36.3768,40.4855 36.3768,43.1225 C36.3768,45.7635 38.5268,47.9095 41.1638,47.9095 C43.8058,47.9095 45.9508,45.7635 45.9508,43.1225 C45.9508,40.4855 43.8058,38.3355 41.1638,38.3355" id="Fill-4" fill="#36246A"></path>
              <path d="M25.8513,12.4907 C25.3173,12.4907 24.8923,12.9157 24.8923,13.4427 C24.8923,13.9767 25.3173,14.4017 25.8513,14.4017 L43.0803,14.4017 C43.6093,14.4017 44.0393,13.9767 44.0393,13.4427 C44.0393,12.9157 43.6093,12.4907 43.0803,12.4907 L25.8513,12.4907 Z" id="Fill-6" fill="#36246A"></path>
              <path d="M44.0398,26.851 C44.0398,26.317 43.6088,25.892 43.0808,25.892 L25.8518,25.892 C25.3168,25.892 24.8928,26.317 24.8928,26.851 C24.8928,27.378 25.3168,27.803 25.8518,27.803 L43.0808,27.803 C43.6088,27.803 44.0398,27.378 44.0398,26.851" id="Fill-8" fill="#36246A"></path>
              <path d="M19.7038,7.9321 C19.3018,7.5861 18.6978,7.6331 18.3518,8.0361 L12.3688,15.0141 L8.7138,12.2701 C8.2878,11.9521 7.6898,12.0371 7.3718,12.4621 C7.0548,12.8831 7.1428,13.4821 7.5628,13.7981 L11.9388,17.0811 C12.1118,17.2111 12.3128,17.2731 12.5138,17.2731 C12.7858,17.2731 13.0518,17.1601 13.2428,16.9401 L19.8068,9.2791 C20.1518,8.8811 20.1048,8.2791 19.7038,7.9321" id="Fill-10" fill="#36246A"></path>
              <path d="M19.7038,21.3344 C19.3018,20.9934 18.6978,21.0344 18.3518,21.4374 L12.3688,28.4164 L8.7138,25.6724 C8.2878,25.3554 7.6898,25.4384 7.3718,25.8634 C7.0548,26.2844 7.1428,26.8884 7.5628,27.2014 L11.9388,30.4874 C12.1118,30.6134 12.3128,30.6794 12.5138,30.6794 C12.7858,30.6794 13.0518,30.5624 13.2428,30.3434 L19.8068,22.6854 C20.1518,22.2824 20.1048,21.6804 19.7038,21.3344" id="Fill-12" fill="#36246A"></path>
              <path d="M18.3523,35.7973 L12.3693,42.7763 L8.7133,40.0323 C8.2883,39.7153 7.6903,39.7993 7.3723,40.2243 C7.0543,40.6453 7.1433,41.2483 7.5633,41.5623 L11.9393,44.8483 C12.1123,44.9743 12.3133,45.0393 12.5133,45.0393 C12.7863,45.0393 13.0513,44.9223 13.2433,44.7033 L19.8063,37.0453 C20.1523,36.6433 20.1053,36.0403 19.7043,35.6943 C19.3013,35.3533 18.6983,35.3953 18.3523,35.7973" id="Fill-14" fill="#36246A"></path>
              <g id="Group-18" transform="translate(0.000000, 0.571600)">
                <mask id="mask-4" fill="white">
                  <use xlink:href="#path-3"></use>
                </mask>
                <g id="Clip-17"></g>
                <path d="M22.0163,50.213 L11.6583,50.213 C6.2833,50.213 1.9163,45.842 1.9163,40.471 L1.9163,12.087 C1.9163,6.711 6.2833,2.346 11.6583,2.346 L40.0423,2.346 C45.4133,2.346 49.7853,6.711 49.7853,12.087 L49.7853,32.019 C49.7853,32.553 50.2093,32.978 50.7373,32.978 C51.2713,32.978 51.6963,32.553 51.6963,32.019 L51.6963,12.087 C51.6963,5.659 46.4703,0.429 40.0423,0.429 L11.6583,0.429 C5.2313,0.429 -0.0007,5.659 -0.0007,12.087 L-0.0007,40.471 C-0.0007,46.899 5.2313,52.124 11.6583,52.124 L22.0163,52.124 C22.5503,52.124 22.9753,51.699 22.9753,51.166 C22.9753,50.638 22.5503,50.213 22.0163,50.213" id="Fill-16" fill="#36246A" mask="url(#mask-4)"></path>
              </g>
            </g>
          </g>
        </g>
      </g>
    </g>
  </g>
</svg>
