<?xml version="1.0" encoding="UTF-8"?>
<svg xmlns="http://www.w3.org/2000/svg" xmlns:xlink="http://www.w3.org/1999/xlink" width="26px" height="20px" viewBox="0 0 26 20">
  <!-- Generator: Sketch 50.2 (55047) - http://www.bohemiancoding.com/sketch -->
  <title>list</title>
  <desc>Created with Sketch.</desc>
  <defs>
    <polygon id="path-1" points="0 0.4072 5.7832 0.4072 5.7832 6.1882 0 6.1882"></polygon>
    <polygon id="path-3" points="0 0.3936 5.7832 0.3936 5.7832 6.1746 0 6.1746"></polygon>
    <polygon id="path-5" points="0 0.2188 5.7832 0.2188 5.7832 5.9998 0 5.9998"></polygon>
  </defs>
  <g id="Design" stroke="none" stroke-width="1" fill="none" fill-rule="evenodd">
    <g id="retail_banking" transform="translate(-734.000000, -2430.000000)">
      <g id="Platform" transform="translate(0.000000, 1962.000000)">
        <g id="list" transform="translate(734.000000, 467.000000)">
          <path d="M7.8785,4.4626 L25.4125,4.4626 C25.7295,4.4626 25.9845,4.2066 25.9845,3.8906 C25.9845,3.5746 25.7295,3.3186 25.4125,3.3186 L7.8785,3.3186 C7.5625,3.3186 7.3065,3.5746 7.3065,3.8906 C7.3065,4.2066 7.5625,4.4626 7.8785,4.4626" id="Fill-1" fill="#704C9F"></path>
          <path d="M25.4127,10.3044 L7.8787,10.3044 C7.5617,10.3044 7.3067,10.5604 7.3067,10.8764 C7.3067,11.1924 7.5617,11.4484 7.8787,11.4484 L25.4127,11.4484 C25.7287,11.4484 25.9847,11.1924 25.9847,10.8764 C25.9847,10.5604 25.7287,10.3044 25.4127,10.3044" id="Fill-3" fill="#704C9F"></path>
          <path d="M25.4127,17.1306 L7.8787,17.1306 C7.5617,17.1306 7.3067,17.3866 7.3067,17.7016 C7.3067,18.0176 7.5617,18.2746 7.8787,18.2746 L25.4127,18.2746 C25.7287,18.2746 25.9847,18.0176 25.9847,17.7016 C25.9847,17.3866 25.7287,17.1306 25.4127,17.1306" id="Fill-5" fill="#704C9F"></path>
          <g id="Group-9" transform="translate(0.000000, 0.592500)">
            <mask id="mask-2" fill="white">
              <use xlink:href="#path-1"></use>
            </mask>
            <g id="Clip-8"></g>
            <path d="M2.8912,0.4072 C1.2972,0.4072 -0.0008,1.7042 -0.0008,3.2992 C-0.0008,4.8922 1.2972,6.1882 2.8912,6.1882 C4.4852,6.1882 5.7832,4.8922 5.7832,3.2992 C5.7832,1.7042 4.4852,0.4072 2.8912,0.4072 M2.8912,5.0452 C1.9272,5.0452 1.1442,4.2612 1.1442,3.2992 C1.1442,2.3352 1.9272,1.5512 2.8912,1.5512 C3.8552,1.5512 4.6382,2.3352 4.6382,3.2992 C4.6382,4.2612 3.8552,5.0452 2.8912,5.0452" id="Fill-7" fill="#704C9F" mask="url(#mask-2)"></path>
          </g>
          <g id="Group-12" transform="translate(0.000000, 7.592500)">
            <mask id="mask-4" fill="white">
              <use xlink:href="#path-3"></use>
            </mask>
            <g id="Clip-11"></g>
            <path d="M2.8912,0.3936 C1.2972,0.3936 -0.0008,1.6896 -0.0008,3.2836 C-0.0008,4.8776 1.2972,6.1746 2.8912,6.1746 C4.4852,6.1746 5.7832,4.8776 5.7832,3.2836 C5.7832,1.6896 4.4852,0.3936 2.8912,0.3936 M2.8912,5.0306 C1.9272,5.0306 1.1442,4.2476 1.1442,3.2836 C1.1442,2.3206 1.9272,1.5376 2.8912,1.5376 C3.8552,1.5376 4.6382,2.3206 4.6382,3.2836 C4.6382,4.2476 3.8552,5.0306 2.8912,5.0306" id="Fill-10" fill="#704C9F" mask="url(#mask-4)"></path>
          </g>
          <g id="Group-15" transform="translate(0.000000, 14.592500)">
            <mask id="mask-6" fill="white">
              <use xlink:href="#path-5"></use>
            </mask>
            <g id="Clip-14"></g>
            <path d="M2.8912,0.2188 C1.2972,0.2188 -0.0008,1.5168 -0.0008,3.1108 C-0.0008,4.7038 1.2972,5.9998 2.8912,5.9998 C4.4852,5.9998 5.7832,4.7038 5.7832,3.1108 C5.7832,1.5168 4.4852,0.2188 2.8912,0.2188 M2.8912,4.8568 C1.9272,4.8568 1.1442,4.0728 1.1442,3.1108 C1.1442,2.1468 1.9272,1.3628 2.8912,1.3628 C3.8552,1.3628 4.6382,2.1468 4.6382,3.1108 C4.6382,4.0728 3.8552,4.8568 2.8912,4.8568" id="Fill-13" fill="#704C9F" mask="url(#mask-6)"></path>
          </g>
        </g>
      </g>
    </g>
  </g>
</svg>
