<?xml version="1.0" encoding="UTF-8"?>
<svg xmlns="http://www.w3.org/2000/svg" xmlns:xlink="http://www.w3.org/1999/xlink" width="27px" height="29px" viewBox="0 0 27 29">
  <!-- Generator: Sketch 50 (54983) - http://www.bohemiancoding.com/sketch -->
  <title>loan-icon</title>
  <desc>Created with Sketch.</desc>
  <defs>
    <polygon id="path-1" points="0.0001 0.194055209 26.599 0.194055209 26.599 10.9998 0.0001 10.9998"></polygon>
    <polygon id="path-3" points="0.305736888 0.242 22.5052842 0.242 22.5052842 16.4486 0.305736888 16.4486"></polygon>
  </defs>
  <g id="Design" stroke="none" stroke-width="1" fill="none" fill-rule="evenodd">
    <g id="dropdown_menu" transform="translate(-490.000000, -302.000000)">
      <g id="loan-icon" transform="translate(490.000000, 302.000000)">
        <g id="Group-3" transform="translate(0.000000, 18.000000)">
          <mask id="mask-2" fill="white">
            <use xlink:href="#path-1"></use>
          </mask>
          <g id="Clip-2"></g>
          <path d="M13.2331,10.9998 C12.9621,10.9998 12.6861,10.9738 12.4031,10.9198 L4.5781,9.2898 C3.8491,9.1698 3.1881,9.2278 2.5071,9.4758 L0.3631,10.3188 C0.2811,10.3518 0.1891,10.3408 0.1161,10.2918 C0.0441,10.2418 0.0001,10.1598 0.0001,10.0718 L0.0001,2.5778 C0.0001,2.4648 0.0711,2.3638 0.1781,2.3268 L3.3721,1.2188 C4.2161,0.9878 4.9421,0.8788 5.6091,0.8788 C6.6011,0.8788 7.7101,1.1568 8.7391,1.6628 L15.5251,1.9218 C16.5051,1.9218 17.2791,2.6958 17.2791,3.6858 C17.2791,4.6748 16.5041,5.4508 15.5151,5.4508 L8.4771,5.4508 C8.3301,5.4508 8.2111,5.3318 8.2111,5.1858 C8.2111,5.0378 8.3301,4.9198 8.4771,4.9198 L15.5151,4.9198 C16.2181,4.9198 16.7481,4.3888 16.7481,3.6858 C16.7481,2.9828 16.2181,2.4528 15.5151,2.4528 L8.6621,2.1918 C8.6241,2.1898 8.5871,2.1808 8.5531,2.1638 C7.5961,1.6858 6.5231,1.4098 5.6091,1.4098 C4.9901,1.4098 4.3101,1.5138 3.5291,1.7268 L0.5311,2.7678 L0.5311,9.6828 L2.3191,8.9788 C3.0861,8.6988 3.8551,8.6318 4.6751,8.7678 L12.5061,10.3988 C13.4401,10.5738 14.2941,10.4178 15.1881,9.9068 L25.3531,3.9778 C25.8041,3.6948 26.0671,3.2548 26.0671,2.7728 C26.0671,2.0088 25.4691,1.4098 24.7041,1.4098 C24.3221,1.4098 23.9421,1.5758 23.7381,1.8318 C23.6851,1.8978 23.6041,1.9298 23.5191,1.9318 C23.4351,1.9268 23.3571,1.8838 23.3091,1.8128 C23.0831,1.4738 22.7331,1.2398 22.3501,1.1748 C21.9931,1.1138 21.6391,1.2018 21.3441,1.4218 C21.2821,1.4668 21.2061,1.4838 21.1331,1.4708 C21.0601,1.4558 20.9951,1.4108 20.9571,1.3458 C20.5421,0.6528 19.9771,0.5548 18.9421,0.9968 L16.8541,1.8468 C16.7161,1.9008 16.5631,1.8368 16.5071,1.7008 C16.4511,1.5638 16.5181,1.4098 16.6521,1.3538 L18.7381,0.5068 C19.5441,0.1628 20.5431,-0.0952 21.2591,0.8468 C21.6221,0.6488 22.0341,0.5818 22.4401,0.6498 C22.8651,0.7238 23.2591,0.9438 23.5561,1.2688 C23.8631,1.0228 24.2791,0.8788 24.7041,0.8788 C25.7671,0.8788 26.5991,1.7108 26.5991,2.7728 C26.5991,3.4408 26.2441,4.0468 25.6261,4.4328 L15.4531,10.3668 C14.7091,10.7928 13.9881,10.9998 13.2331,10.9998" id="Fill-1" fill="#36246A" mask="url(#mask-2)"></path>
        </g>
        <g id="Group-6" transform="translate(2.000000, 0.000000)">
          <mask id="mask-4" fill="white">
            <use xlink:href="#path-3"></use>
          </mask>
          <g id="Clip-5"></g>
          <path d="M10.2726,12.8026 C10.5266,12.8026 10.7856,13.0636 10.7856,13.3496 L10.7856,13.9166 C10.7856,13.9596 10.8516,14.0016 10.8776,14.0046 L11.4406,14.0046 C11.4846,14.0046 11.5266,13.9396 11.5296,13.9126 L11.5296,13.2796 C11.5296,12.9796 11.7176,12.7506 11.9726,12.7316 C13.0106,12.4916 13.6556,11.7536 13.6556,10.7996 C13.6556,9.8296 13.1146,9.2266 11.8496,8.7826 C10.7506,8.3436 10.1836,8.0876 10.1836,7.4696 C10.1836,7.0206 10.5316,6.4946 11.5116,6.4946 C12.1786,6.4946 12.6336,6.6406 13.0276,6.7976 C13.0426,6.8056 13.0546,6.8116 13.0646,6.8156 C13.0816,6.7986 13.0946,6.7816 13.1006,6.7736 L13.2986,6.0266 C13.2936,5.9966 13.2786,5.9576 13.2346,5.9366 C12.9846,5.8106 12.5606,5.7416 12.1116,5.6776 L12.1076,5.6776 C11.8596,5.6776 11.6006,5.4176 11.6006,5.1316 L11.6006,4.7066 C11.6006,4.6626 11.5346,4.6206 11.5086,4.6176 L10.9456,4.6176 C10.9016,4.6176 10.8596,4.6836 10.8566,4.7096 L10.8566,5.2736 C10.8566,5.5776 10.6776,5.8936 10.3776,5.8936 C9.4746,6.1276 8.8726,6.8426 8.8726,7.7526 C8.8726,8.6826 9.4946,9.3036 10.8876,9.7676 C12.1056,10.2366 12.2146,10.5166 12.2556,10.6216 C12.2836,10.6966 12.2896,10.7726 12.2726,10.8436 C12.2516,11.3356 11.8756,11.8446 10.8746,11.8446 C10.2576,11.8446 9.6506,11.7176 9.0696,11.4686 C9.0576,11.4616 9.0466,11.4576 9.0376,11.4536 C9.0216,11.4706 9.0076,11.4866 9.0016,11.4946 L8.7936,12.3516 C9.1666,12.5876 9.6896,12.7306 10.2696,12.8026 L10.2726,12.8026 Z M11.4406,14.5366 L10.8746,14.5366 C10.5816,14.5366 10.2546,14.2716 10.2546,13.9166 L10.2546,13.3496 C9.5646,13.2496 8.9806,13.0896 8.5596,12.8786 C8.4326,12.8166 8.3346,12.7156 8.2836,12.5956 C8.2246,12.4576 8.2296,12.3066 8.2976,12.1686 L8.4916,11.3726 C8.4826,11.2566 8.6086,11.1296 8.7016,11.0376 C8.9316,10.8076 9.1936,10.9376 9.2926,10.9866 C9.7936,11.2006 10.3306,11.3126 10.8746,11.3126 C11.1986,11.3126 11.7416,11.2456 11.7426,10.7996 C11.6766,10.7356 11.4426,10.5506 10.7086,10.2686 C9.6986,9.9316 8.3416,9.3006 8.3416,7.7526 C8.3416,6.5896 9.0946,5.6776 10.3066,5.3716 C10.3156,5.3466 10.3256,5.3076 10.3256,5.2736 L10.3256,4.7066 C10.3256,4.4136 10.5906,4.0866 10.9456,4.0866 L11.5116,4.0866 C11.8046,4.0866 12.1316,4.3516 12.1316,4.7066 L12.1316,5.1316 C12.6996,5.2256 13.1506,5.2996 13.4726,5.4606 C13.6946,5.5726 13.8326,5.7986 13.8326,6.0526 C13.8326,6.0756 13.8296,6.1006 13.8226,6.1226 L13.6166,6.8776 C13.5976,7.0336 13.4856,7.1466 13.4016,7.2316 C13.1686,7.4606 12.9076,7.3306 12.8096,7.2816 C12.5106,7.1626 12.1176,7.0276 11.5116,7.0276 C11.0126,7.0276 10.7146,7.1926 10.7146,7.4696 C10.7146,7.7136 11.0606,7.8956 12.0356,8.2856 C13.5196,8.8056 14.1866,9.5816 14.1866,10.7996 C14.1866,12.0036 13.3556,12.9666 12.0696,13.2536 L12.0606,13.9166 C12.0606,14.2086 11.7956,14.5366 11.4406,14.5366 Z M3.2226,7.6286 C3.2716,7.6286 3.3196,7.6426 3.3626,7.6686 C3.4406,7.7176 3.4886,7.8026 3.4886,7.8946 L3.4886,15.3326 C3.4886,15.6156 3.7236,15.9176 4.0726,15.9176 L18.6676,15.9176 C18.9496,15.9176 19.2516,15.6826 19.2516,15.3326 L19.2516,7.8946 C19.2516,7.8046 19.2966,7.7206 19.3736,7.6706 C19.4496,7.6226 19.5436,7.6156 19.6266,7.6536 L20.4076,8.0066 C20.6726,8.1546 20.9536,8.1916 21.2176,8.1166 C21.4796,8.0436 21.7006,7.8686 21.8356,7.6236 C22.1196,7.1136 21.9476,6.4936 21.4426,6.2136 L21.4416,6.2136 L11.9486,0.9006 C11.6166,0.7346 11.2166,0.7306 10.9396,0.8966 L8.2396,2.3886 C8.1576,2.4346 8.0576,2.4326 7.9766,2.3846 C7.8956,2.3366 7.8456,2.2496 7.8456,2.1566 L7.8456,0.7926 L5.2596,0.7926 L5.2596,3.9276 C5.2596,4.0246 5.2066,4.1146 5.1216,4.1596 L1.3666,6.2146 C1.1236,6.3506 0.9486,6.5696 0.8756,6.8316 C0.8026,7.0946 0.8376,7.3756 0.9756,7.6236 C1.1116,7.8686 1.3306,8.0436 1.5936,8.1166 C1.8566,8.1906 2.1376,8.1546 2.3856,8.0166 L3.1046,7.6566 C3.1416,7.6386 3.1826,7.6286 3.2226,7.6286 Z M18.6676,16.4486 L4.0726,16.4486 C3.4056,16.4486 2.9576,15.8716 2.9576,15.3326 L2.9576,8.3246 L2.6326,8.4866 C1.8716,8.9096 0.9356,8.6466 0.5106,7.8816 C0.0826,7.1116 0.3456,6.1736 1.1096,5.7496 L4.7286,3.7696 L4.7286,0.5276 C4.7286,0.3796 4.8476,0.2616 4.9936,0.2616 L8.1116,0.2616 C8.2576,0.2616 8.3766,0.3796 8.3766,0.5276 L8.3766,1.7056 L10.6746,0.4356 C11.1016,0.1796 11.6886,0.1756 12.1966,0.4306 L21.7026,5.7496 C22.4646,6.1746 22.7286,7.1116 22.3006,7.8816 C22.0946,8.2516 21.7606,8.5176 21.3596,8.6286 C20.9616,8.7406 20.5386,8.6866 20.1686,8.4816 L19.7836,8.3066 L19.7836,15.3326 C19.7836,16.0006 19.2066,16.4486 18.6676,16.4486 Z" id="Fill-4" fill="#36246A" mask="url(#mask-4)"></path>
        </g>
      </g>
    </g>
  </g>
</svg>
