<?xml version="1.0" encoding="UTF-8"?>
<svg xmlns="http://www.w3.org/2000/svg" xmlns:xlink="http://www.w3.org/1999/xlink" width="28px" height="26px" viewBox="0 0 28 26">
  <!-- Generator: Sketch 50.2 (55047) - http://www.bohemiancoding.com/sketch -->
  <title>lock screen</title>
  <desc>Created with Sketch.</desc>
  <defs>
    <polygon id="path-1" points="0.0129 0.6201 23.8039846 0.6201 23.8039846 22 0.0129 22"></polygon>
  </defs>
  <g id="Design" stroke="none" stroke-width="1" fill="none" fill-rule="evenodd">
    <g id="retail_banking" transform="translate(-441.000000, -2427.000000)">
      <g id="Platform" transform="translate(0.000000, 1962.000000)">
        <g id="lock-screen" transform="translate(441.000000, 465.000000)">
          <path d="M9.421,10.4022 L9.421,5.2272 C9.421,4.8432 9.107,4.5302 8.724,4.5302 L7.951,4.5302 L7.951,3.2352 C7.951,1.4512 6.499,0.0002 4.716,0.0002 C2.933,0.0002 1.475,1.4512 1.475,3.2352 L1.475,4.5302 L0.697,4.5302 C0.314,4.5302 0,4.8432 0,5.2272 L0,10.4022 C0,10.7852 0.314,11.0992 0.697,11.0992 L8.717,11.0992 C9.107,11.0992 9.421,10.7852 9.421,10.4022 Z M2.869,3.2352 C2.869,2.2182 3.693,1.3942 4.71,1.3942 C5.726,1.3942 6.552,2.2182 6.552,3.2352 L6.552,4.5302 L2.869,4.5302 L2.869,3.2352 Z M8.027,9.7052 L1.394,9.7052 L1.394,5.9232 L8.022,5.9232 L8.022,9.7052 L8.027,9.7052 Z" id="Fill-1" fill="#704C9F"></path>
          <g id="Group-5" transform="translate(4.000000, 3.880700)">
            <mask id="mask-2" fill="white">
              <use xlink:href="#path-1"></use>
            </mask>
            <g id="Clip-4"></g>
            <path d="M23.1129,0.6201 L6.9949,0.6201 C6.6119,0.6201 6.2979,0.9341 6.2979,1.3171 C6.2979,1.7001 6.6119,2.0151 6.9949,2.0151 L22.4159,2.0151 L22.4159,16.4821 L1.4069,16.4821 L1.4069,8.7521 C1.4069,8.3681 1.0939,8.0551 0.7099,8.0551 C0.3269,8.0551 0.0129,8.3681 0.0129,8.7521 L0.0129,17.1791 C0.0129,17.5631 0.3269,17.8761 0.7099,17.8761 L11.2109,17.8761 L11.2109,20.6071 L7.1169,20.6071 C6.7339,20.6071 6.4199,20.9201 6.4199,21.3031 C6.4199,21.6871 6.7339,22.0001 7.1169,22.0001 L16.6999,22.0001 C17.0829,22.0001 17.3969,21.6871 17.3969,21.3031 C17.3969,20.9201 17.0829,20.6071 16.6999,20.6071 L12.6049,20.6071 L12.6049,17.8761 L23.1069,17.8761 C23.4899,17.8761 23.8039,17.5631 23.8039,17.1791 L23.8039,1.3171 C23.8099,0.9341 23.4959,0.6201 23.1129,0.6201" id="Fill-3" fill="#704C9F" mask="url(#mask-2)"></path>
          </g>
        </g>
      </g>
    </g>
  </g>
</svg>
