<?xml version="1.0" encoding="UTF-8"?>
<svg xmlns="http://www.w3.org/2000/svg" xmlns:xlink="http://www.w3.org/1999/xlink" width="45px" height="45px" viewBox="0 0 45 45">
  <!-- Generator: Sketch 50.2 (55047) - http://www.bohemiancoding.com/sketch -->
  <title>lock-screen</title>
  <desc>Created with Sketch.</desc>
  <defs></defs>
  <g id="Design" stroke="none" stroke-width="1" fill="none" fill-rule="evenodd">
    <g id="retail_banking" transform="translate(-433.000000, -2420.000000)">
      <g id="lock-screen" transform="translate(433.000000, 2420.000000)">
        <ellipse id="Oval" fill="#704C9F" fill-rule="nonzero" cx="22.2906977" cy="22.2681818" rx="22.2906977" ry="22.2681818"></ellipse>
        <g transform="translate(7.000000, 9.000000)" fill="#FFFFFF">
          <path d="M9.421,10.4022 L9.421,5.2272 C9.421,4.8432 9.107,4.5302 8.724,4.5302 L7.951,4.5302 L7.951,3.2352 C7.951,1.4512 6.499,0.0002 4.716,0.0002 C2.933,0.0002 1.475,1.4512 1.475,3.2352 L1.475,4.5302 L0.697,4.5302 C0.314,4.5302 0,4.8432 0,5.2272 L0,10.4022 C0,10.7852 0.314,11.0992 0.697,11.0992 L8.717,11.0992 C9.107,11.0992 9.421,10.7852 9.421,10.4022 Z M2.869,3.2352 C2.869,2.2182 3.693,1.3942 4.71,1.3942 C5.726,1.3942 6.552,2.2182 6.552,3.2352 L6.552,4.5302 L2.869,4.5302 L2.869,3.2352 Z M8.027,9.7052 L1.394,9.7052 L1.394,5.9232 L8.022,5.9232 L8.022,9.7052 L8.027,9.7052 Z" id="Fill-1"></path>
          <path d="M27.1129,4.5008 L10.9949,4.5008 C10.6119,4.5008 10.2979,4.8148 10.2979,5.1978 C10.2979,5.5808 10.6119,5.8958 10.9949,5.8958 L26.4159,5.8958 L26.4159,20.3628 L5.4069,20.3628 L5.4069,12.6328 C5.4069,12.2488 5.0939,11.9358 4.7099,11.9358 C4.3269,11.9358 4.0129,12.2488 4.0129,12.6328 L4.0129,21.0598 C4.0129,21.4438 4.3269,21.7568 4.7099,21.7568 L15.2109,21.7568 L15.2109,24.4878 L11.1169,24.4878 C10.7339,24.4878 10.4199,24.8008 10.4199,25.1838 C10.4199,25.5678 10.7339,25.8808 11.1169,25.8808 L20.6999,25.8808 C21.0829,25.8808 21.3969,25.5678 21.3969,25.1838 C21.3969,24.8008 21.0829,24.4878 20.6999,24.4878 L16.6049,24.4878 L16.6049,21.7568 L27.1069,21.7568 C27.4899,21.7568 27.8039,21.4438 27.8039,21.0598 L27.8039,5.1978 C27.8099,4.8148 27.4959,4.5008 27.1129,4.5008" id="Fill-3"></path>
        </g>
      </g>
    </g>
  </g>
</svg>
