<?xml version="1.0" encoding="UTF-8"?>
<svg xmlns="http://www.w3.org/2000/svg" xmlns:xlink="http://www.w3.org/1999/xlink" width="124px" height="124px" viewBox="0 0 124 124">
  <!-- Generator: Sketch 50.2 (55047) - http://www.bohemiancoding.com/sketch -->
  <title>Group 8</title>
  <desc>Created with Sketch.</desc>
  <defs>
    <polygon id="path-1" points="0 0.0002 55.4997 0.0002 55.4997 55.5 0 55.5"></polygon>
  </defs>
  <g id="Design" stroke="none" stroke-width="1" fill="none" fill-rule="evenodd">
    <g id="whykonyfx" transform="translate(-645.000000, -1564.000000)">
      <g id="Group-13" transform="translate(158.000000, 1566.000000)">
        <g id="Group-11" transform="translate(401.000000, 0.000000)">
          <g id="Group-8" transform="translate(88.000000, 0.000000)">
            <circle id="Oval-Copy" stroke="#704C9F" stroke-width="3" fill="#FFFFFF" cx="60" cy="60" r="60"></circle>
            <g id="Page-1" transform="translate(32.000000, 29.000000)">
              <mask id="mask-2" fill="white">
                <use xlink:href="#path-1"></use>
              </mask>
              <g id="Clip-2"></g>
              <path d="M48.9717,53.6182 L38.5677,53.6182 L38.5677,43.2712 C38.5677,42.7522 38.1467,42.3302 37.6267,42.3302 L31.0417,42.3302 L31.0417,41.3892 C31.0417,40.8702 30.6207,40.4492 30.1017,40.4492 C29.5817,40.4492 29.1607,40.8702 29.1607,41.3892 L29.1607,45.1522 C29.1607,45.6722 29.5817,46.0932 30.1017,46.0932 C30.6207,46.0932 31.0417,45.6722 31.0417,45.1522 L31.0417,44.2122 L36.6867,44.2122 L36.6867,53.6182 L15.9917,53.6182 L15.9917,44.2122 L21.6357,44.2122 L21.6357,45.1522 C21.6357,45.6722 22.0567,46.0932 22.5757,46.0932 C23.0957,46.0932 23.5167,45.6722 23.5167,45.1522 L23.5167,41.3892 C23.5167,40.8702 23.0957,40.4492 22.5757,40.4492 C22.0567,40.4492 21.6357,40.8702 21.6357,41.3892 L21.6357,42.3302 L15.0507,42.3302 C14.5317,42.3302 14.1107,42.7522 14.1107,43.2712 L14.1107,53.6182 L1.8817,53.6182 L1.8817,47.9392 C8.2007,47.4592 13.1697,42.1882 13.1697,35.7462 C13.1697,35.2262 12.7477,34.8052 12.2287,34.8052 L1.8817,34.8052 L1.8817,31.0422 L14.1107,31.0422 C14.6297,31.0422 15.0507,30.6212 15.0507,30.1012 L15.0507,23.5162 L15.9917,23.5162 C16.5107,23.5162 16.9327,23.0962 16.9327,22.5762 C16.9327,22.0562 16.5107,21.6362 15.9917,21.6362 L12.2287,21.6362 C11.7087,21.6362 11.2877,22.0562 11.2877,22.5762 C11.2877,23.0962 11.7087,23.5162 12.2287,23.5162 L13.1697,23.5162 L13.1697,29.1612 L1.8817,29.1612 L1.8817,8.4662 L13.1697,8.4662 L13.1697,14.1102 L12.2287,14.1102 C11.7087,14.1102 11.2877,14.5312 11.2877,15.0512 C11.2877,15.5702 11.7087,15.9912 12.2287,15.9912 L15.9917,15.9912 C16.5107,15.9912 16.9327,15.5702 16.9327,15.0512 C16.9327,14.5312 16.5107,14.1102 15.9917,14.1102 L15.0507,14.1102 L15.0507,8.4662 L19.7537,8.4662 L19.7537,18.8132 C19.7537,19.3332 20.1757,19.7542 20.6957,19.7542 L24.4577,19.7542 L24.4577,20.6942 C24.4577,21.2142 24.8787,21.6352 25.3987,21.6352 C25.9177,21.6352 26.3387,21.2142 26.3387,20.6942 L26.3387,16.9322 C26.3387,16.4132 25.9177,15.9912 25.3987,15.9912 C24.8787,15.9912 24.4577,16.4132 24.4577,16.9322 L24.4577,17.8732 L21.6357,17.8732 L21.6357,8.4662 L37.6267,8.4662 L37.6267,17.8732 L33.8647,17.8732 L33.8647,16.9322 C33.8647,16.4132 33.4437,15.9912 32.9237,15.9912 C32.4047,15.9912 31.9837,16.4132 31.9837,16.9322 L31.9837,20.6942 C31.9837,21.2142 32.4047,21.6352 32.9237,21.6352 C33.4437,21.6352 33.8647,21.2142 33.8647,20.6942 L33.8647,19.7542 L38.5677,19.7542 C39.0867,19.7542 39.5087,19.3332 39.5087,18.8132 L39.5087,8.4662 L42.3297,8.4662 L42.3297,48.9152 C42.3297,50.1702 44.2117,50.1702 44.2117,48.9152 C44.2117,46.3172 46.3177,44.2122 48.9147,44.2122 C51.5127,44.2122 53.6177,46.3172 53.6177,48.9152 C53.6177,51.5372 51.5367,53.6182 48.9717,53.6182 Z M1.8817,36.6862 L11.2457,36.6862 C10.7997,41.6552 6.8497,45.6042 1.8817,46.0512 L1.8817,36.6862 Z M44.2117,6.5852 C44.2117,3.9872 46.3177,1.8822 48.9147,1.8822 C51.5127,1.8822 53.6177,3.9872 53.6177,6.5852 L53.6177,44.3062 C52.9407,43.6142 52.1097,43.0722 51.1817,42.7312 C51.1707,42.7272 51.1597,42.7242 51.1487,42.7202 C51.0597,42.6872 50.9697,42.6572 50.8777,42.6292 C50.8527,42.6202 50.8267,42.6142 50.8007,42.6062 C50.7237,42.5832 50.6457,42.5602 50.5677,42.5402 C50.5287,42.5292 50.4897,42.5212 50.4507,42.5132 C50.3827,42.4962 50.3167,42.4792 50.2487,42.4662 C50.1997,42.4562 50.1497,42.4482 50.0997,42.4382 C50.0407,42.4292 49.9827,42.4172 49.9237,42.4072 C49.8647,42.3982 49.8037,42.3912 49.7437,42.3852 C49.6937,42.3782 49.6437,42.3702 49.5927,42.3652 C49.5207,42.3572 49.4487,42.3532 49.3757,42.3482 C49.3357,42.3462 49.2967,42.3412 49.2557,42.3392 C49.1437,42.3332 49.0297,42.3302 48.9147,42.3302 C47.0727,42.3302 45.4077,43.0872 44.2117,44.3062 L44.2117,7.5252 L44.2117,6.5852 Z M55.4997,6.5852 C55.4997,2.9482 52.5517,0.0002 48.9147,0.0002 C45.2787,0.0002 42.3297,2.9482 42.3297,6.5852 L38.5677,6.5852 L20.6957,6.5852 L14.1107,6.5852 L0.9407,6.5852 C0.4207,6.5852 -0.0003,7.0062 -0.0003,7.5252 L-0.0003,30.1012 L-0.0003,35.7462 L-0.0003,47.0342 L-0.0003,54.5592 C-0.0003,55.0792 0.4207,55.5002 0.9407,55.5002 L15.0507,55.5002 L37.6267,55.5002 L48.9717,55.5002 C52.5757,55.5002 55.4997,52.5762 55.4997,48.9722 C55.4997,48.9592 55.4987,48.9472 55.4987,48.9342 C55.4987,48.9282 55.4997,48.9222 55.4997,48.9152 L55.4997,6.5852 Z" id="Fill-1" fill="#36246A" mask="url(#mask-2)"></path>
            </g>
          </g>
        </g>
      </g>
    </g>
  </g>
</svg>
