<?xml version="1.0" encoding="UTF-8"?>
<svg xmlns="http://www.w3.org/2000/svg" xmlns:xlink="http://www.w3.org/1999/xlink" width="124px" height="124px" viewBox="0 0 124 124">
  <!-- Generator: Sketch 50.2 (55047) - http://www.bohemiancoding.com/sketch -->
  <title>Group 9</title>
  <desc>Created with Sketch.</desc>
  <defs>
    <polygon id="path-1" points="0.9291 0.667 34.1921 0.667 34.1921 51.9994 0.9291 51.9994"></polygon>
  </defs>
  <g id="Design" stroke="none" stroke-width="1" fill="none" fill-rule="evenodd">
    <g id="whykonyfx" transform="translate(-1052.000000, -1564.000000)">
      <g id="Group-13" transform="translate(158.000000, 1566.000000)">
        <g id="Group-12" transform="translate(791.000000, 0.000000)">
          <g id="Group-9" transform="translate(105.000000, 0.000000)">
            <g id="icon-3" fill="#FFFFFF" stroke="#704C9F" stroke-width="3">
              <circle id="Oval-Copy-2" cx="60" cy="60" r="60"></circle>
            </g>
            <g id="Page-1" transform="translate(25.000000, 34.000000)">
              <g id="Group-3" transform="translate(17.000000, 0.333300)">
                <mask id="mask-2" fill="white">
                  <use xlink:href="#path-1"></use>
                </mask>
                <g id="Clip-2"></g>
                <path d="M31.4291,49.4284 L3.6921,49.4284 C3.5891,49.4284 3.5001,49.3384 3.5001,49.2374 L3.5001,41.7124 L31.6201,41.7124 L31.6201,49.2374 C31.6201,49.3384 31.5311,49.4284 31.4291,49.4284 Z M3.6921,3.2394 L31.4291,3.2394 C31.5311,3.2394 31.6201,3.3274 31.6201,3.4294 L31.6201,5.8104 L3.5001,5.8104 L3.5001,3.4294 C3.5001,3.3274 3.5901,3.2394 3.6921,3.2394 Z M3.5001,39.1404 L31.6201,39.1404 L31.6201,8.3824 L3.5001,8.3824 L3.5001,39.1404 Z M31.4291,0.6664 L3.6921,0.6664 C2.1671,0.6664 0.9291,1.9064 0.9291,3.4294 L0.9291,49.2374 C0.9291,50.7614 2.1671,51.9994 3.6921,51.9994 L31.4291,51.9994 C32.9531,51.9994 34.1921,50.7614 34.1921,49.2374 L34.1921,3.4294 C34.1921,1.9064 32.9531,0.6664 31.4291,0.6664 Z" id="Fill-1" fill="#36246A" mask="url(#mask-2)"></path>
              </g>
              <path d="M37.1322,44.6172 L31.9872,44.6172 C31.2782,44.6172 30.7012,45.1932 30.7012,45.9032 C30.7012,46.6132 31.2782,47.1892 31.9872,47.1892 L37.1322,47.1892 C37.8432,47.1892 38.4172,46.6132 38.4172,45.9032 C38.4172,45.1932 37.8432,44.6172 37.1322,44.6172" id="Fill-4" fill="#36246A"></path>
              <path d="M55.8617,17.373 C55.5077,17.373 55.1637,17.187 54.9747,16.858 C54.6987,16.369 54.8697,15.749 55.3587,15.471 L68.1897,8.185 C68.6797,7.906 69.2977,8.081 69.5777,8.568 C69.8537,9.058 69.6827,9.678 69.1947,9.956 L56.3627,17.241 C56.2037,17.331 56.0317,17.373 55.8617,17.373" id="Fill-6" fill="#36246A"></path>
              <path d="M57.7006,20.6181 C57.1686,20.6181 56.7206,20.2041 56.6856,19.6631 C56.6516,19.1021 57.0786,18.6201 57.6396,18.5841 L66.1206,18.0611 C66.6826,18.0171 67.1636,18.4531 67.1986,19.0141 C67.2326,19.5751 66.8066,20.0571 66.2446,20.0941 L57.7646,20.6171 C57.7436,20.6181 57.7216,20.6181 57.7006,20.6181" id="Fill-8" fill="#36246A"></path>
              <path d="M54.101,14.2763 C53.904,14.2763 53.704,14.2193 53.529,14.0993 C53.064,13.7823 52.946,13.1493 53.262,12.6853 L58.056,5.6723 C58.374,5.2083 59.009,5.0863 59.47,5.4053 C59.935,5.7223 60.053,6.3553 59.737,6.8193 L54.943,13.8333 C54.745,14.1223 54.425,14.2763 54.101,14.2763" id="Fill-10" fill="#36246A"></path>
              <path d="M13.8481,17.373 C13.6781,17.373 13.5061,17.331 13.3471,17.241 L0.5151,9.956 C0.0271,9.678 -0.1439,9.058 0.1321,8.568 C0.4101,8.082 1.0301,7.909 1.5201,8.185 L14.3511,15.471 C14.8401,15.749 15.0111,16.369 14.7351,16.858 C14.5461,17.187 14.2021,17.373 13.8481,17.373" id="Fill-12" fill="#36246A"></path>
              <path d="M12.0072,20.6181 C11.9862,20.6181 11.9652,20.6181 11.9442,20.6171 L3.4632,20.0941 C2.9022,20.0571 2.4752,19.5751 2.5092,19.0141 C2.5452,18.4531 3.0212,18.0141 3.5882,18.0611 L12.0692,18.5841 C12.6302,18.6201 13.0572,19.1021 13.0232,19.6631 C12.9872,20.2041 12.5402,20.6181 12.0072,20.6181" id="Fill-14" fill="#36246A"></path>
              <path d="M15.6078,14.2763 C15.2828,14.2763 14.9628,14.1223 14.7658,13.8333 L9.9718,6.8193 C9.6558,6.3553 9.7738,5.7223 10.2388,5.4053 C10.7028,5.0863 11.3358,5.2083 11.6528,5.6723 L16.4468,12.6853 C16.7628,13.1493 16.6448,13.7823 16.1798,14.0993 C16.0048,14.2193 15.8048,14.2763 15.6078,14.2763" id="Fill-16" fill="#36246A"></path>
            </g>
          </g>
        </g>
      </g>
    </g>
  </g>
</svg>
