<?xml version="1.0" encoding="UTF-8"?>
<!-- Generator: Adobe Illustrator 22.1.0, SVG Export Plug-In . SVG Version: 6.00 Build 0)  -->
<svg xmlns="http://www.w3.org/2000/svg" xmlns:xlink="http://www.w3.org/1999/xlink" id="Layer_1" x="0px" y="0px" viewBox="0 0 124 124" style="enable-background:new 0 0 124 124;" xml:space="preserve">
<style type="text/css">
	.st0{fill:#FFFFFF;stroke:#704C9F;stroke-width:3;}
	.st1{fill:#36246A;}
</style>
<title>graph</title>
<desc>Created with Sketch.</desc>
<circle id="Oval-Copy" class="st0" cx="62" cy="62" r="60"></circle>
<g>
	<path class="st1" d="M59.5,70.9l-0.8,7.5c0,0.4,0.1,0.7,0.3,1c0.2,0.3,0.6,0.4,1,0.4h5.3c0.4,0,0.7-0.2,1-0.4   c0.2-0.3,0.4-0.7,0.3-1l-0.8-7.5c1.3-1,2.2-2.5,2.2-4.2c0-2.9-2.4-5.3-5.3-5.3c-2.9,0-5.3,2.4-5.3,5.3   C57.3,68.4,58.1,69.9,59.5,70.9L59.5,70.9z M62.6,64c1.4,0,2.6,1.2,2.6,2.6c0,1-0.6,1.9-1.5,2.4c-0.5,0.2-0.8,0.8-0.7,1.3l0.8,6.8   h-2.3l0.8-6.8c0.1-0.6-0.2-1.1-0.7-1.3c-0.9-0.4-1.5-1.3-1.5-2.4C60,65.2,61.2,64,62.6,64L62.6,64z M62.6,64"></path>
	<path class="st1" d="M84.9,50.9H81v-5.3c0-10.1-8.3-18.4-18.4-18.4s-18.4,8.3-18.4,18.4v5.3h-3.9c-0.7,0-1.3,0.6-1.3,1.3v32.8   c0,2.9,2.4,5.3,5.3,5.3H81c2.9,0,5.3-2.4,5.3-5.3V52.2C86.2,51.5,85.7,50.9,84.9,50.9L84.9,50.9z M46.8,45.6   c0-8.7,7.1-15.8,15.8-15.8c8.7,0,15.8,7.1,15.8,15.8v5.3h-2.6v-5.3c0-7.2-5.9-13.1-13.1-13.1s-13.1,5.9-13.1,13.1v5.3h-2.6V45.6z    M73.1,45.6v5.3h-21v-5.3c0-5.8,4.7-10.5,10.5-10.5C68.4,35.1,73.1,39.8,73.1,45.6L73.1,45.6z M83.6,85.1c0,1.4-1.2,2.6-2.6,2.6   H44.2c-1.4,0-2.6-1.2-2.6-2.6V53.5h42V85.1z M83.6,85.1"></path>
</g>
</svg>
