<?xml version="1.0" encoding="UTF-8"?>
<!-- Generator: Adobe Illustrator 22.1.0, SVG Export Plug-In . SVG Version: 6.00 Build 0)  -->
<svg xmlns="http://www.w3.org/2000/svg" xmlns:xlink="http://www.w3.org/1999/xlink" id="Layer_1" x="0px" y="0px" viewBox="0 0 124 124" style="enable-background:new 0 0 124 124;" xml:space="preserve">
<style type="text/css">
	.st0{fill:#FFFFFF;stroke:#704C9F;stroke-width:3;}
	.st1{fill:#36246A;}
</style>
<title>graph</title>
<desc>Created with Sketch.</desc>
<circle id="Oval-Copy" class="st0" cx="62" cy="62" r="60"></circle>
<g>
	<path class="st1" d="M53.1,79.5c-3.1,0-5.6,2.5-5.6,5.6c0,3.1,2.5,5.6,5.6,5.6c3.1,0,5.6-2.5,5.6-5.6C58.7,82,56.2,79.5,53.1,79.5   L53.1,79.5z M53.1,87.6c-1.4,0-2.5-1.1-2.5-2.5c0-1.4,1.1-2.5,2.5-2.5c1.4,0,2.5,1.1,2.5,2.5C55.6,86.5,54.5,87.6,53.1,87.6   L53.1,87.6z M53.1,87.6"></path>
	<path class="st1" d="M72.8,79.5c-3.1,0-5.6,2.5-5.6,5.6c0,3.1,2.5,5.6,5.6,5.6c3.1,0,5.6-2.5,5.6-5.6C78.4,82,75.9,79.5,72.8,79.5   L72.8,79.5z M72.8,87.6c-1.4,0-2.5-1.1-2.5-2.5c0-1.4,1.1-2.5,2.5-2.5c1.4,0,2.5,1.1,2.5,2.5C75.3,86.5,74.2,87.6,72.8,87.6   L72.8,87.6z M72.8,87.6"></path>
	<path class="st1" d="M74.2,50H51.8c-0.9,0-1.6,0.7-1.6,1.6c0,0.9,0.7,1.6,1.6,1.6h22.4c0.9,0,1.6-0.7,1.6-1.6   C75.8,50.7,75.1,50,74.2,50L74.2,50z M74.2,50"></path>
	<g>
		<path class="st1" d="M73,58.1H53c-0.9,0-1.6,0.7-1.6,1.6c0,0.9,0.7,1.6,1.6,1.6h20c0.9,0,1.6-0.7,1.6-1.6    C74.5,58.8,73.8,58.1,73,58.1L73,58.1z M73,58.1"></path>
		<path class="st1" d="M89.5,43c-0.6-0.7-1.5-1.2-2.4-1.2H38.3l-1-4.8c-0.2-1-0.9-1.8-1.8-2.2l-6.9-3c-0.8-0.3-1.7,0-2.1,0.8    c-0.3,0.8,0,1.7,0.8,2.1l6.9,3l7.6,36.8c0.3,1.4,1.6,2.5,3.1,2.5h37.5c0.9,0,1.6-0.7,1.6-1.6c0-0.9-0.7-1.6-1.6-1.6H44.9l-0.9-4.5    h38.7c1.5,0,2.8-1.1,3.1-2.5l4.4-21.3C90.3,44.7,90.1,43.7,89.5,43L89.5,43z M82.7,66.2H43.3L38.9,45L87,45L82.7,66.2z M82.7,66.2    "></path>
	</g>
</g>
</svg>
