<?xml version="1.0" encoding="UTF-8"?>
<svg xmlns="http://www.w3.org/2000/svg" xmlns:xlink="http://www.w3.org/1999/xlink" width="45px" height="45px" viewBox="0 0 45 45">
  <!-- Generator: Sketch 50.2 (55047) - http://www.bohemiancoding.com/sketch -->
  <title>stacks_purp</title>
  <desc>Created with Sketch.</desc>
  <defs></defs>
  <g id="Design" stroke="none" stroke-width="1" fill="none" fill-rule="evenodd">
    <g id="retail_banking" transform="translate(-1020.000000, -2420.000000)">
      <g id="stacks_purp" transform="translate(1020.000000, 2420.000000)">
        <ellipse id="Oval" fill="#704C9F" fill-rule="nonzero" cx="22.2906977" cy="22.2681818" rx="22.2906977" ry="22.2681818"></ellipse>
        <g id="stacks" transform="translate(8.000000, 9.000000)" fill="#FFFFFF">
          <path d="M25.1259517,6.190956 C24.7951241,6.064916 24.4284345,6.239716 24.3056069,6.578276 C24.0339517,7.337276 22.245331,8.157916 19.8282276,8.157916 C17.4747793,8.157916 15.7121586,7.381436 15.371469,6.632556 C15.2217448,6.305956 14.8389172,6.163356 14.5197448,6.316076 C14.1987793,6.469716 14.0616069,6.861636 14.2104345,7.190076 C14.8335379,8.556276 17.0919517,9.468916 19.8282276,9.468916 C21.1327103,9.468916 22.3995379,9.249956 23.405469,8.846076 C24.5136069,8.402636 25.2425034,7.775196 25.5096759,7.026316 C25.6262276,6.693276 25.4549862,6.316076 25.1259517,6.190956" id="Fill-4"></path>
          <path d="M25.1259517,9.534052 C24.7951241,9.408932 24.4284345,9.583732 24.3056069,9.922292 C24.0339517,10.681292 22.245331,11.501012 19.8282276,11.501012 C17.4747793,11.501012 15.7121586,10.725452 15.371469,9.976572 C15.2217448,9.649052 14.8389172,9.507372 14.5197448,9.660092 C14.1987793,9.813732 14.0616069,10.205652 14.2104345,10.534092 C14.8335379,11.899372 17.0919517,12.812012 19.8282276,12.812012 C21.1327103,12.812012 22.3995379,12.593972 23.405469,12.189172 C24.5136069,11.746652 25.2425034,11.119212 25.5096759,10.370332 C25.6262276,10.037292 25.4549862,9.660092 25.1259517,9.534052" id="Fill-6"></path>
          <path d="M25.1259517,12.87264 C24.7951241,12.74752 24.4284345,12.92232 24.3056069,13.26088 C24.0339517,14.01988 22.245331,14.8396 19.8282276,14.8396 C17.4747793,14.8396 15.7121586,14.06404 15.371469,13.31424 C15.2217448,12.98764 14.8389172,12.84596 14.5197448,12.99776 C14.1987793,13.1514 14.0616069,13.54424 14.2104345,13.87268 C14.8335379,15.23796 17.0919517,16.1506 19.8282276,16.1506 C21.1327103,16.1506 22.3995379,15.93256 23.405469,15.52776 C24.5136069,15.08524 25.2425034,14.45688 25.5096759,13.70892 C25.6262276,13.37588 25.4549862,12.99776 25.1259517,12.87264" id="Fill-8"></path>
          <path d="M25.1259517,16.216656 C24.7951241,16.090616 24.4284345,16.266336 24.3056069,16.603976 C24.0339517,17.363896 22.245331,18.182696 19.8282276,18.182696 C17.4747793,18.182696 15.7121586,17.407136 15.371469,16.658256 C15.2217448,16.331656 14.8389172,16.189056 14.5197448,16.341776 C14.1987793,16.495416 14.0616069,16.887336 14.2104345,17.216696 C14.8335379,18.581056 17.0919517,19.494616 19.8282276,19.494616 C21.1327103,19.494616 22.3995379,19.275656 23.405469,18.871776 C24.5136069,18.428336 25.2425034,17.800896 25.5096759,17.052016 C25.6262276,16.713456 25.4549862,16.337176 25.1259517,16.216656" id="Fill-10"></path>
          <path d="M25.1259517,19.554324 C24.7951241,19.429204 24.4284345,19.604004 24.3056069,19.942564 C24.0339517,20.701564 22.245331,21.522204 19.8282276,21.522204 C17.4747793,21.522204 15.7121586,20.746644 15.371469,19.996844 C15.2217448,19.669324 14.8389172,19.527644 14.5197448,19.680364 C14.1987793,19.834004 14.0616069,20.225924 14.2104345,20.554364 C14.8335379,21.920564 17.0919517,22.832284 19.8282276,22.832284 C21.1327103,22.832284 22.3995379,22.614244 23.405469,22.209444 C24.5136069,21.766924 25.2425034,21.139484 25.5096759,20.390604 C25.6262276,20.057564 25.4549862,19.680364 25.1259517,19.554324" id="Fill-12"></path>
          <path d="M11.0848759,12.87264 C10.7558414,12.74752 10.3882552,12.92232 10.2654276,13.26088 C9.99377241,14.01988 8.20515172,14.8396 5.78804828,14.8396 C3.4346,14.8396 1.67108276,14.06404 1.33128966,13.31424 C1.18246207,12.98764 0.798737931,12.84596 0.478668966,12.99776 C0.159496552,13.1514 0.0214275862,13.54424 0.169358621,13.87268 C0.793358621,15.23796 3.05087586,16.1506 5.78804828,16.1506 C7.09163448,16.1506 8.35935862,15.93256 9.36528966,15.52776 C10.472531,15.08524 11.2023241,14.45688 11.4694966,13.70892 C11.5851517,13.37588 11.4148069,12.99776 11.0848759,12.87264" id="Fill-14"></path>
          <path d="M11.0848759,16.216656 C10.7558414,16.090616 10.3882552,16.266336 10.2654276,16.603976 C9.99377241,17.363896 8.20515172,18.182696 5.78804828,18.182696 C3.4346,18.182696 1.67108276,17.407136 1.33128966,16.658256 C1.18246207,16.331656 0.798737931,16.189056 0.478668966,16.341776 C0.159496552,16.495416 0.0214275862,16.887336 0.169358621,17.216696 C0.793358621,18.581056 3.05087586,19.494616 5.78804828,19.494616 C7.09163448,19.494616 8.35935862,19.275656 9.36528966,18.871776 C10.472531,18.428336 11.2023241,17.800896 11.4694966,17.052016 C11.5851517,16.713456 11.4148069,16.337176 11.0848759,16.216656" id="Fill-16"></path>
          <path d="M11.0848759,19.554324 C10.7558414,19.429204 10.3882552,19.604004 10.2654276,19.942564 C9.99377241,20.701564 8.20515172,21.522204 5.78804828,21.522204 C3.4346,21.522204 1.67108276,20.746644 1.33128966,19.996844 C1.18246207,19.669324 0.798737931,19.527644 0.478668966,19.680364 C0.159496552,19.834004 0.0214275862,20.225924 0.169358621,20.554364 C0.793358621,21.920564 3.05087586,22.832284 5.78804828,22.832284 C7.09163448,22.832284 8.35935862,22.614244 9.36528966,22.209444 C10.472531,21.766924 11.2023241,21.139484 11.4694966,20.390604 C11.5851517,20.057564 11.4148069,19.680364 11.0848759,19.554324" id="Fill-18"></path>
          <path d="M19.8227586,6.130788 C23.1238621,6.130788 25.61,4.813348 25.61,3.066268 C25.61,1.317348 23.1238621,-9.2000001e-05 19.8227586,-9.2000001e-05 C16.5207586,-9.2000001e-05 14.0355172,1.317348 14.0355172,3.066268 C14.0355172,4.813348 16.5207586,6.130788 19.8227586,6.130788 M19.8227586,1.317348 C22.5751724,1.317348 24.3324138,2.355108 24.3324138,3.070868 C24.3324138,3.786628 22.5751724,4.824388 19.8227586,4.824388 C17.0703448,4.824388 15.3131034,3.786628 15.3131034,3.070868 C15.3131034,2.355108 17.0703448,1.317348 19.8227586,1.317348" id="Fill-1"></path>
          <path d="M5.78706207,6.68242 C2.48595862,6.68242 -0.000179310345,7.99894 -0.000179310345,9.74694 C-0.000179310345,11.49586 2.48595862,12.81238 5.78706207,12.81238 C9.08816552,12.81238 11.5752,11.49586 11.5752,9.74694 C11.5752,7.99894 9.08816552,6.68242 5.78706207,6.68242 M5.78706207,11.50046 C3.03554483,11.50046 1.2774069,10.4627 1.2774069,9.74694 C1.2774069,9.03118 3.03554483,7.99434 5.78706207,7.99434 C8.53947586,7.99434 10.2976138,9.03118 10.2976138,9.74694 C10.2976138,10.4627 8.53947586,11.50046 5.78706207,11.50046" id="Fill-20"></path>
        </g>
      </g>
    </g>
  </g>
</svg>
