<?xml version="1.0" encoding="UTF-8"?>
<svg xmlns="http://www.w3.org/2000/svg" xmlns:xlink="http://www.w3.org/1999/xlink" width="29px" height="25px" viewBox="0 0 29 25">
  <!-- Generator: Sketch 50.2 (55047) - http://www.bohemiancoding.com/sketch -->
  <title>stacks</title>
  <desc>Created with Sketch.</desc>
  <defs>
    <polygon id="path-1" points="0.655 0.182 13.565 0.182 13.565 6.8459 0.655 6.8459"></polygon>
    <polygon id="path-3" points="0 0.4455 12.9108 0.4455 12.9108 7.1085 0 7.1085"></polygon>
  </defs>
  <g id="Design" stroke="none" stroke-width="1" fill="none" fill-rule="evenodd">
    <g id="retail_banking" transform="translate(-1026.000000, -2427.000000)">
      <g id="Platform" transform="translate(0.000000, 1962.000000)">
        <g id="stacks" transform="translate(1026.000000, 464.000000)">
          <g id="Group-3" transform="translate(15.000000, 0.818000)">
            <mask id="mask-2" fill="white">
              <use xlink:href="#path-1"></use>
            </mask>
            <g id="Clip-2"></g>
            <path d="M7.11,6.8459 C10.792,6.8459 13.565,5.4139 13.565,3.5149 C13.565,1.6139 10.792,0.1819 7.11,0.1819 C3.427,0.1819 0.655,1.6139 0.655,3.5149 C0.655,5.4139 3.427,6.8459 7.11,6.8459 M7.11,1.6139 C10.18,1.6139 12.14,2.7419 12.14,3.5199 C12.14,4.2979 10.18,5.4259 7.11,5.4259 C4.04,5.4259 2.08,4.2979 2.08,3.5199 C2.08,2.7419 4.04,1.6139 7.11,1.6139" id="Fill-1" fill="#704C9F" mask="url(#mask-2)"></path>
          </g>
          <path d="M28.0251,7.7293 C27.6561,7.5923 27.2471,7.7823 27.1101,8.1503 C26.8071,8.9753 24.8121,9.8673 22.1161,9.8673 C19.4911,9.8673 17.5251,9.0233 17.1451,8.2093 C16.9781,7.8543 16.5511,7.6993 16.1951,7.8653 C15.8371,8.0323 15.6841,8.4583 15.8501,8.8153 C16.5451,10.3003 19.0641,11.2923 22.1161,11.2923 C23.5711,11.2923 24.9841,11.0543 26.1061,10.6153 C27.3421,10.1333 28.1551,9.4513 28.4531,8.6373 C28.5831,8.2753 28.3921,7.8653 28.0251,7.7293" id="Fill-4" fill="#704C9F"></path>
          <path d="M28.0251,11.3631 C27.6561,11.2271 27.2471,11.4171 27.1101,11.7851 C26.8071,12.6101 24.8121,13.5011 22.1161,13.5011 C19.4911,13.5011 17.5251,12.6581 17.1451,11.8441 C16.9781,11.4881 16.5511,11.3341 16.1951,11.5001 C15.8371,11.6671 15.6841,12.0931 15.8501,12.4501 C16.5451,13.9341 19.0641,14.9261 22.1161,14.9261 C23.5711,14.9261 24.9841,14.6891 26.1061,14.2491 C27.3421,13.7681 28.1551,13.0861 28.4531,12.2721 C28.5831,11.9101 28.3921,11.5001 28.0251,11.3631" id="Fill-6" fill="#704C9F"></path>
          <path d="M28.0251,14.992 C27.6561,14.856 27.2471,15.046 27.1101,15.414 C26.8071,16.239 24.8121,17.13 22.1161,17.13 C19.4911,17.13 17.5251,16.287 17.1451,15.472 C16.9781,15.117 16.5511,14.963 16.1951,15.128 C15.8371,15.295 15.6841,15.722 15.8501,16.079 C16.5451,17.563 19.0641,18.555 22.1161,18.555 C23.5711,18.555 24.9841,18.318 26.1061,17.878 C27.3421,17.397 28.1551,16.714 28.4531,15.901 C28.5831,15.539 28.3921,15.128 28.0251,14.992" id="Fill-8" fill="#704C9F"></path>
          <path d="M28.0251,18.6268 C27.6561,18.4898 27.2471,18.6808 27.1101,19.0478 C26.8071,19.8738 24.8121,20.7638 22.1161,20.7638 C19.4911,20.7638 17.5251,19.9208 17.1451,19.1068 C16.9781,18.7518 16.5511,18.5968 16.1951,18.7628 C15.8371,18.9298 15.6841,19.3558 15.8501,19.7138 C16.5451,21.1968 19.0641,22.1898 22.1161,22.1898 C23.5711,22.1898 24.9841,21.9518 26.1061,21.5128 C27.3421,21.0308 28.1551,20.3488 28.4531,19.5348 C28.5831,19.1668 28.3921,18.7578 28.0251,18.6268" id="Fill-10" fill="#704C9F"></path>
          <path d="M28.0251,22.2547 C27.6561,22.1187 27.2471,22.3087 27.1101,22.6767 C26.8071,23.5017 24.8121,24.3937 22.1161,24.3937 C19.4911,24.3937 17.5251,23.5507 17.1451,22.7357 C16.9781,22.3797 16.5511,22.2257 16.1951,22.3917 C15.8371,22.5587 15.6841,22.9847 15.8501,23.3417 C16.5451,24.8267 19.0641,25.8177 22.1161,25.8177 C23.5711,25.8177 24.9841,25.5807 26.1061,25.1407 C27.3421,24.6597 28.1551,23.9777 28.4531,23.1637 C28.5831,22.8017 28.3921,22.3917 28.0251,22.2547" id="Fill-12" fill="#704C9F"></path>
          <path d="M12.3639,14.992 C11.9969,14.856 11.5869,15.046 11.4499,15.414 C11.1469,16.239 9.1519,17.13 6.4559,17.13 C3.8309,17.13 1.8639,16.287 1.4849,15.472 C1.3189,15.117 0.8909,14.963 0.5339,15.128 C0.1779,15.295 0.0239,15.722 0.1889,16.079 C0.8849,17.563 3.4029,18.555 6.4559,18.555 C7.9099,18.555 9.3239,18.318 10.4459,17.878 C11.6809,17.397 12.4949,16.714 12.7929,15.901 C12.9219,15.539 12.7319,15.128 12.3639,14.992" id="Fill-14" fill="#704C9F"></path>
          <path d="M12.3639,18.6268 C11.9969,18.4898 11.5869,18.6808 11.4499,19.0478 C11.1469,19.8738 9.1519,20.7638 6.4559,20.7638 C3.8309,20.7638 1.8639,19.9208 1.4849,19.1068 C1.3189,18.7518 0.8909,18.5968 0.5339,18.7628 C0.1779,18.9298 0.0239,19.3558 0.1889,19.7138 C0.8849,21.1968 3.4029,22.1898 6.4559,22.1898 C7.9099,22.1898 9.3239,21.9518 10.4459,21.5128 C11.6809,21.0308 12.4949,20.3488 12.7929,19.5348 C12.9219,19.1668 12.7319,18.7578 12.3639,18.6268" id="Fill-16" fill="#704C9F"></path>
          <path d="M12.3639,22.2547 C11.9969,22.1187 11.5869,22.3087 11.4499,22.6767 C11.1469,23.5017 9.1519,24.3937 6.4559,24.3937 C3.8309,24.3937 1.8639,23.5507 1.4849,22.7357 C1.3189,22.3797 0.8909,22.2257 0.5339,22.3917 C0.1779,22.5587 0.0239,22.9847 0.1889,23.3417 C0.8849,24.8267 3.4029,25.8177 6.4559,25.8177 C7.9099,25.8177 9.3239,25.5807 10.4459,25.1407 C11.6809,24.6597 12.4949,23.9777 12.7929,23.1637 C12.9219,22.8017 12.7319,22.3917 12.3639,22.2547" id="Fill-18" fill="#704C9F"></path>
          <g id="Group-22" transform="translate(0.000000, 7.818000)">
            <mask id="mask-4" fill="white">
              <use xlink:href="#path-3"></use>
            </mask>
            <g id="Clip-21"></g>
            <path d="M6.4548,0.4455 C2.7728,0.4455 -0.0002,1.8765 -0.0002,3.7765 C-0.0002,5.6775 2.7728,7.1085 6.4548,7.1085 C10.1368,7.1085 12.9108,5.6775 12.9108,3.7765 C12.9108,1.8765 10.1368,0.4455 6.4548,0.4455 M6.4548,5.6825 C3.3858,5.6825 1.4248,4.5545 1.4248,3.7765 C1.4248,2.9985 3.3858,1.8715 6.4548,1.8715 C9.5248,1.8715 11.4858,2.9985 11.4858,3.7765 C11.4858,4.5545 9.5248,5.6825 6.4548,5.6825" id="Fill-20" fill="#704C9F" mask="url(#mask-4)"></path>
          </g>
        </g>
      </g>
    </g>
  </g>
</svg>
