<?xml version="1.0" encoding="UTF-8"?>
<svg xmlns="http://www.w3.org/2000/svg" xmlns:xlink="http://www.w3.org/1999/xlink" width="124px" height="124px" viewBox="0 0 124 124">
  <!-- Generator: Sketch 50.2 (55047) - http://www.bohemiancoding.com/sketch -->
  <title>Stopwatch Icon</title>
  <desc>Created with Sketch.</desc>
  <defs>
    <polygon id="path-1" points="0.837119736 0.443 34.9997 0.443 34.9997 60 0.837119736 60"></polygon>
    <polygon id="path-3" points="0 0.1848 20.8462 0.1848 20.8462 2.1718 0 2.1718"></polygon>
  </defs>
  <g id="Design" stroke="none" stroke-width="1" fill="none" fill-rule="evenodd">
    <g id="business_banking" transform="translate(-662.000000, -1016.000000)">
      <g id="main-info" transform="translate(175.000000, 1018.000000)">
        <g id="pre-features">
          <g id="Stopwatch-Icon" transform="translate(489.000000, 0.000000)">
            <circle id="Oval-Copy" stroke="#704C9F" stroke-width="3" fill="#FFFFFF" cx="60" cy="60" r="60"></circle>
            <g id="Page-1" transform="translate(31.000000, 28.000000)">
              <path d="M27.7956,35.0634 C27.8356,34.6074 28.0676,34.1954 28.4316,33.9284 L36.2686,28.2584 L30.6026,36.0954 C30.3306,36.4634 29.9186,36.6924 29.4636,36.7304 C29.0136,36.7584 28.5706,36.6044 28.2476,36.2804 C27.9276,35.9594 27.7626,35.5134 27.7956,35.0634 M29.6186,38.7084 C30.6556,38.6294 31.5966,38.1014 32.2066,37.2584 L41.5026,24.4104 C41.7846,24.0174 41.7456,23.4744 41.3966,23.1304 C41.0526,22.7874 40.5086,22.7424 40.1166,23.0234 L27.2636,32.3194 C26.4246,32.9294 25.9006,33.8764 25.8186,34.9084 C25.7356,35.9404 26.1146,36.9544 26.8466,37.6844 C27.5106,38.3494 28.4076,38.7164 29.3416,38.7164 C29.4356,38.7164 29.5266,38.7164 29.6186,38.7084" id="Fill-1" fill="#36246A"></path>
              <g id="Group-5" transform="translate(21.000000, 0.557300)">
                <mask id="mask-2" fill="white">
                  <use xlink:href="#path-1"></use>
                </mask>
                <g id="Clip-4"></g>
                <path d="M6.7907,6.4182 L6.7907,3.4182 L3.3217,3.4182 C3.0447,3.4182 2.8217,3.1952 2.8217,2.9242 C2.8217,2.6522 3.0447,2.4302 3.3217,2.4302 L12.2537,2.4302 C12.5257,2.4302 12.7477,2.6522 12.7477,2.9242 C12.7477,3.1952 12.5257,3.4182 12.2537,3.4182 L8.7787,3.4182 L8.7787,6.4182 C8.4357,6.4042 8.1047,6.3992 7.7847,6.3992 L7.6977,6.3992 L7.6247,6.3992 C7.4607,6.3992 7.3007,6.4092 7.1357,6.4132 C7.0197,6.4132 6.9127,6.4132 6.7907,6.4182 Z M30.7877,8.6342 L32.1877,10.0332 L30.7877,11.4392 L29.3817,10.0332 L30.7877,8.6342 Z M30.8557,19.8632 C30.8457,19.8402 30.8457,19.8192 30.8357,19.8012 C30.8217,19.7812 30.8027,19.7672 30.7927,19.7482 C29.7897,18.0262 28.6027,16.4282 27.2547,14.9742 L29.3817,12.8462 L30.7877,14.2462 L34.9997,10.0332 L30.7877,5.8272 L26.5757,10.0332 L27.9817,11.4392 L25.8497,13.5722 C24.3997,12.2252 22.7957,11.0372 21.0747,10.0332 C21.0567,10.0202 21.0467,10.0002 21.0257,9.9902 C21.0067,9.9772 20.9827,9.9772 20.9637,9.9672 C17.8917,8.1972 14.4437,7.0202 10.7667,6.5882 L10.7667,5.4052 L12.2537,5.4052 C13.6197,5.4052 14.7357,4.2912 14.7357,2.9242 C14.7357,1.5572 13.6197,0.4422 12.2537,0.4422 L3.3217,0.4422 C1.9497,0.4422 0.8407,1.5572 0.8407,2.9242 C0.8407,4.2912 1.9497,5.4052 3.3217,5.4052 L4.8097,5.4052 L4.8097,6.5552 C3.7387,6.6662 2.6667,6.8402 1.6107,7.0832 C1.0717,7.2082 0.7377,7.7372 0.8637,8.2742 C0.9847,8.8082 1.5177,9.1432 2.0517,9.0172 C2.9617,8.8082 3.8887,8.6522 4.8097,8.5462 L5.8757,8.4642 C6.1997,8.4392 6.5007,8.4212 6.7907,8.4052 L6.7907,10.3682 C6.7907,10.9162 7.2377,11.3622 7.7847,11.3622 C8.3337,11.3622 8.7787,10.9162 8.7787,10.3682 L8.7787,8.4162 C12.5117,8.5842 16.0297,9.5882 19.1547,11.2362 L18.1767,12.9322 C17.9047,13.4072 18.0697,14.0142 18.5397,14.2892 C18.6997,14.3762 18.8697,14.4212 19.0397,14.4212 C19.3787,14.4212 19.7127,14.2412 19.8967,13.9262 L20.8707,12.2342 C23.9777,14.2022 26.6197,16.8442 28.5877,19.9512 L26.8957,20.9252 C26.4267,21.1972 26.2617,21.8082 26.5367,22.2822 C26.7217,22.5972 27.0557,22.7762 27.3947,22.7762 C27.5647,22.7762 27.7337,22.7332 27.8947,22.6472 L29.5867,21.6662 C31.2577,24.8362 32.2667,28.4132 32.4167,32.2042 L30.4537,32.2042 C29.9047,32.2042 29.4597,32.6492 29.4597,33.1962 C29.4597,33.7452 29.9047,34.1902 30.4537,34.1902 L32.4167,34.1902 C32.2667,37.9852 31.2577,41.5582 29.5867,44.7312 L27.8947,43.7532 C27.4187,43.4782 26.8087,43.6372 26.5367,44.1162 C26.2617,44.5922 26.4267,45.1972 26.8997,45.4742 L28.5927,46.4482 C26.6197,49.5552 23.9827,52.1912 20.8767,54.1642 L19.9017,52.4742 C19.6257,51.9932 19.0157,51.8332 18.5447,52.1092 C18.0697,52.3802 17.9047,52.9922 18.1817,53.4662 L19.1597,55.1582 C16.0297,56.8112 12.5167,57.8092 8.7787,57.9832 L8.7787,56.0302 C8.7787,55.4822 8.3387,55.0362 7.7897,55.0362 C7.2377,55.0362 6.7957,55.4822 6.7957,56.0302 L6.7957,57.9882 C5.2117,57.9352 3.6217,57.7362 2.0567,57.3782 C1.5217,57.2512 0.9897,57.5922 0.8637,58.1242 C0.7417,58.6572 1.0767,59.1902 1.6107,59.3122 C3.5927,59.7672 5.6187,60.0002 7.6247,60.0002 C7.6737,60.0002 7.7177,59.9952 7.7707,59.9952 C7.7747,59.9952 7.7797,60.0002 7.7847,60.0002 C7.7947,60.0002 7.7997,59.9952 7.8097,59.9952 C12.5777,59.9612 17.0577,58.6722 20.9297,56.4472 C20.9637,56.4332 20.9927,56.4282 21.0207,56.4072 C21.0467,56.3992 21.0567,56.3792 21.0747,56.3642 C25.0837,54.0292 28.4327,50.6842 30.7737,46.6762 C30.7927,46.6512 30.8167,46.6282 30.8307,46.5982 C30.8457,46.5792 30.8457,46.5552 30.8557,46.5352 C33.1237,42.6042 34.4237,38.0532 34.4237,33.1962 C34.4237,28.3452 33.1237,23.7942 30.8557,19.8632 Z" id="Fill-3" fill="#36246A" mask="url(#mask-2)"></path>
              </g>
              <path d="M19.8522,14.8955 L14.8892,14.8955 C14.3422,14.8955 13.8952,15.3415 13.8952,15.8895 C13.8952,16.4365 14.3422,16.8825 14.8892,16.8825 L19.8522,16.8825 C20.4002,16.8825 20.8462,16.4365 20.8462,15.8895 C20.8462,15.3415 20.4002,14.8955 19.8522,14.8955" id="Fill-6" fill="#36246A"></path>
              <path d="M19.8522,21.8466 L9.9262,21.8466 C9.3782,21.8466 8.9322,22.2866 8.9322,22.8396 C8.9322,23.3876 9.3782,23.8276 9.9262,23.8276 L19.8522,23.8276 C20.4002,23.8276 20.8462,23.3876 20.8462,22.8396 C20.8462,22.2866 20.4002,21.8466 19.8522,21.8466" id="Fill-8" fill="#36246A"></path>
              <path d="M19.8522,28.791 L4.9632,28.791 C4.4152,28.791 3.9692,29.237 3.9692,29.785 C3.9692,30.333 4.4152,30.778 4.9632,30.778 L19.8522,30.778 C20.4002,30.778 20.8462,30.333 20.8462,29.785 C20.8462,29.237 20.4002,28.791 19.8522,28.791" id="Fill-10" fill="#36246A"></path>
              <g id="Group-14" transform="translate(0.000000, 35.557300)">
                <mask id="mask-4" fill="white">
                  <use xlink:href="#path-3"></use>
                </mask>
                <g id="Clip-13"></g>
                <path d="M19.8522,0.1848 L0.9942,0.1848 C0.4452,0.1848 -0.0008,0.6298 -0.0008,1.1778 C-0.0008,1.7258 0.4452,2.1718 0.9942,2.1718 L19.8522,2.1718 C20.4002,2.1718 20.8462,1.7258 20.8462,1.1778 C20.8462,0.6298 20.4002,0.1848 19.8522,0.1848" id="Fill-12" fill="#36246A" mask="url(#mask-4)"></path>
              </g>
              <path d="M19.8522,42.6923 L6.9512,42.6923 C6.3972,42.6923 5.9562,43.1323 5.9562,43.6803 C5.9562,44.2333 6.3972,44.6733 6.9512,44.6733 L19.8522,44.6733 C20.4002,44.6733 20.8462,44.2333 20.8462,43.6803 C20.8462,43.1323 20.4002,42.6923 19.8522,42.6923" id="Fill-15" fill="#36246A"></path>
              <path d="M19.8522,49.6377 L12.9022,49.6377 C12.3542,49.6377 11.9142,50.0837 11.9142,50.6307 C11.9142,51.1787 12.3542,51.6247 12.9022,51.6247 L19.8522,51.6247 C20.4002,51.6247 20.8462,51.1787 20.8462,50.6307 C20.8462,50.0837 20.4002,49.6377 19.8522,49.6377" id="Fill-17" fill="#36246A"></path>
            </g>
          </g>
        </g>
      </g>
    </g>
  </g>
</svg>
