<?xml version="1.0" encoding="UTF-8"?>
<!-- Generator: Adobe Illustrator 22.1.0, SVG Export Plug-In . SVG Version: 6.00 Build 0)  -->
<svg xmlns="http://www.w3.org/2000/svg" xmlns:xlink="http://www.w3.org/1999/xlink" id="Layer_1" x="0px" y="0px" viewBox="0 0 124 124" style="enable-background:new 0 0 124 124;" xml:space="preserve">
<style type="text/css">
	.st0{fill:#FFFFFF;stroke:#704C9F;stroke-width:3;}
	.st1{fill:#36246A;}
</style>
<title>graph</title>
<desc>Created with Sketch.</desc>
<circle id="Oval-Copy" class="st0" cx="62" cy="62" r="60"></circle>
<g>
	<path class="st1" d="M95.3,62c0-18.3-14.9-33.3-33.3-33.3S28.7,43.7,28.7,62S43.7,95.3,62,95.3S95.3,80.3,95.3,62L95.3,62z    M32.1,62c0-16.5,13.4-29.9,29.9-29.9c16.5,0,29.9,13.4,29.9,29.9c0,16.5-13.4,29.9-29.9,29.9C45.5,91.9,32.1,78.5,32.1,62L32.1,62   z M32.1,62"></path>
	<path class="st1" d="M63.7,76.5V51.6l6.5,6.5c0.7,0.7,1.7,0.7,2.3,0c0.3-0.3,0.5-0.7,0.5-1.2c0-0.4-0.2-0.9-0.5-1.2l-9.3-9.4   c-0.7-0.7-1.7-0.7-2.3,0l-9.4,9.4c-0.7,0.7-0.7,1.7,0,2.3c0.7,0.7,1.7,0.7,2.3,0l6.5-6.5v24.9c0,0.9,0.7,1.7,1.7,1.7   C62.9,78.1,63.7,77.4,63.7,76.5L63.7,76.5z M63.7,76.5"></path>
</g>
</svg>
