<?xml version="1.0" encoding="UTF-8"?>
<!-- Generator: Adobe Illustrator 22.1.0, SVG Export Plug-In . SVG Version: 6.00 Build 0)  -->
<svg xmlns="http://www.w3.org/2000/svg" xmlns:xlink="http://www.w3.org/1999/xlink" id="Layer_1" x="0px" y="0px" viewBox="0 0 124 124" style="enable-background:new 0 0 124 124;" xml:space="preserve">
<style type="text/css">
	.st0{fill:#FFFFFF;stroke:#704C9F;stroke-width:3;}
	.st1{fill:#36246A;stroke:#36246A;stroke-width:1.5;}
</style>
<title>block icon</title>
<desc>Created with Sketch.</desc>
<circle id="Oval" class="st0" cx="62" cy="62" r="60"></circle>
<g>
	<g>
		<g>
			<path class="st1" d="M57.6,62.4c-8.6,0-15.6-7-15.6-15.6c0-8.6,7-15.6,15.6-15.6c8.6,0,15.6,7,15.6,15.6     C73.2,55.4,66.2,62.4,57.6,62.4z M57.6,32.3c-8,0-14.5,6.5-14.5,14.5c0,8,6.5,14.5,14.5,14.5c8,0,14.5-6.5,14.5-14.5     C72.1,38.8,65.6,32.3,57.6,32.3z"></path>
		</g>
		<g>
			<path class="st1" d="M71.3,84.1c0,0.3-0.1,0.6-0.4,0.6H31c-0.3,0-0.5-0.2-0.6-0.5c-0.2-0.9-0.3-1.9-0.3-3c0-8.6,7-15.6,15.6-15.6     h25.6V84.1z M70.2,66.7H45.7c-8,0-14.5,6.5-14.5,14.5c0,0.9,0.1,1.6,0.2,2.4h38.7V66.7z"></path>
		</g>
	</g>
</g>
<g>
	<path class="st1" d="M90.7,54.3H77.8c-1.2,0-2.2,1-2.2,2.2v26.1c0,1.2,1,2.2,2.2,2.2h12.9c1.2,0,2.2-1,2.2-2.2V56.6   C92.9,55.3,91.9,54.3,90.7,54.3L90.7,54.3z M76.6,59.8h15.3v18H76.6V59.8z M77.8,55.4h12.9c0.7,0,1.2,0.6,1.2,1.2v2.2H76.6v-2.2   C76.6,55.9,77.1,55.4,77.8,55.4L77.8,55.4z M90.7,84H77.8c-0.7,0-1.2-0.6-1.2-1.2v-3.9h15.3v3.9C91.9,83.4,91.4,84,90.7,84L90.7,84   z M90.7,84"></path>
	<path class="st1" d="M84.3,82.4"></path>
	<g>
		<path class="st1" d="M85.8,56.9"></path>
	</g>
</g>
</svg>
