<?xml version="1.0" standalone="no"?>
<!DOCTYPE svg PUBLIC "-//W3C//DTD SVG 20010904//EN"
 "http://www.w3.org/TR/2001/REC-SVG-20010904/DTD/svg10.dtd">
<svg version="1.0" xmlns="http://www.w3.org/2000/svg"
 width="640.000000pt" height="640.000000pt" viewBox="0 0 640.000000 640.000000"
 preserveAspectRatio="xMidYMid meet">
<metadata>
Created by potrace 1.11, written by Peter Selinger 2001-2013
</metadata>
<g transform="translate(0.000000,640.000000) scale(0.100000,-0.100000)"
fill="#000000" stroke="none">
<path d="M257 5958 c15 -24 30 -45 33 -48 3 -3 28 -36 55 -75 27 -38 53 -71
57 -73 4 -2 8 -9 8 -15 0 -7 17 -34 38 -62 36 -48 116 -160 137 -193 6 -9 33
-48 60 -86 54 -75 84 -119 100 -145 6 -9 13 -18 16 -21 3 -3 36 -50 74 -105
38 -55 72 -102 75 -105 3 -3 23 -32 45 -65 22 -33 44 -64 48 -70 5 -5 56 -77
113 -160 58 -82 110 -157 117 -166 7 -8 17 -23 22 -31 45 -69 81 -118 87 -118
5 0 8 -4 8 -9 0 -5 39 -65 87 -133 48 -68 107 -152 132 -188 25 -36 48 -67 51
-70 3 -3 10 -13 15 -22 6 -9 51 -74 100 -145 50 -70 116 -165 148 -211 33 -47
63 -90 68 -96 26 -32 99 -137 99 -143 0 -3 8 -15 17 -25 11 -13 14 -22 7 -26
-6 -4 -37 -45 -69 -92 -59 -86 -116 -165 -135 -187 -6 -7 -7 -13 -3 -13 4 0 0
-5 -10 -11 -9 -5 -17 -15 -17 -21 0 -5 -10 -23 -23 -38 -29 -36 -58 -77 -71
-100 -11 -19 -383 -549 -410 -585 -9 -11 -99 -139 -201 -285 -101 -146 -191
-274 -199 -285 -8 -11 -62 -87 -120 -170 -57 -82 -109 -155 -115 -162 -6 -7
-11 -14 -11 -17 0 -4 -125 -183 -147 -211 -30 -37 -83 -117 -83 -124 0 -5 -4
-11 -8 -13 -4 -1 -32 -39 -62 -83 -30 -44 -59 -84 -63 -90 -4 -5 -35 -48 -68
-95 -32 -47 -66 -94 -73 -105 -8 -11 -52 -74 -99 -140 l-84 -120 226 -3 c226
-3 271 0 271 18 0 8 91 140 126 183 7 9 14 19 14 21 0 3 63 94 140 203 77 109
145 205 150 213 6 8 25 36 43 61 18 26 72 104 122 175 49 71 94 134 100 141
30 35 35 43 30 43 -3 0 -1 6 5 13 15 17 85 115 225 315 66 95 198 283 292 418
95 134 173 247 173 249 0 3 7 13 16 23 9 9 74 100 145 202 71 102 133 192 140
201 22 31 130 185 147 209 9 14 54 78 99 142 46 64 83 124 83 133 0 12 -108
177 -158 240 -4 6 -18 26 -32 45 -13 19 -27 37 -30 40 -3 3 -27 39 -55 80 -27
41 -53 80 -58 85 -4 6 -41 57 -82 115 -40 58 -99 141 -130 185 -31 44 -110
157 -175 250 -66 94 -124 175 -130 182 -5 7 -10 15 -10 17 0 3 -7 14 -15 23
-8 10 -50 70 -94 133 -44 63 -84 120 -88 125 -5 6 -40 55 -78 110 -38 55 -73
105 -78 110 -10 13 -149 212 -162 234 -5 9 -12 18 -15 21 -3 3 -53 73 -110
155 -57 83 -108 155 -112 160 -5 6 -35 48 -68 95 -32 47 -82 118 -110 158
l-51 72 -240 0 -239 0 27 -42z"/>
<path d="M1040 5995 c0 -3 22 -36 50 -75 67 -94 129 -182 181 -260 24 -36 46
-67 50 -70 3 -3 30 -41 60 -85 30 -44 57 -84 62 -90 39 -51 117 -167 117 -174
0 -5 4 -11 8 -13 4 -1 34 -41 67 -88 33 -47 63 -86 67 -88 4 -2 8 -8 8 -12 0
-5 13 -28 30 -52 31 -45 281 -402 300 -428 6 -8 57 -82 114 -165 58 -82 113
-161 123 -175 11 -14 50 -70 88 -125 38 -55 80 -116 94 -136 14 -20 32 -45 39
-55 46 -68 153 -221 160 -229 4 -5 43 -62 87 -125 43 -63 88 -128 99 -145 12
-16 25 -33 30 -36 4 -4 4 -8 -1 -10 -5 -2 -29 -34 -53 -71 -24 -38 -47 -68
-51 -68 -3 0 -11 -11 -17 -25 -7 -14 -17 -31 -22 -38 -6 -7 -42 -57 -80 -112
-38 -55 -73 -104 -77 -110 -5 -5 -44 -62 -88 -125 -43 -63 -103 -149 -132
-190 -29 -41 -58 -83 -65 -93 -7 -11 -29 -41 -48 -67 -32 -44 -57 -80 -173
-249 -21 -31 -45 -65 -53 -76 -8 -11 -51 -72 -95 -135 -44 -63 -87 -124 -95
-135 -32 -44 -451 -645 -498 -715 -28 -41 -57 -81 -64 -89 -7 -8 -21 -26 -30
-40 -9 -14 -78 -114 -152 -221 -75 -107 -169 -241 -208 -297 l-72 -103 728 0
727 1 70 101 c39 55 77 110 85 123 55 81 75 111 80 115 3 3 25 34 50 70 24 36
48 67 52 68 4 2 8 10 8 18 0 8 5 14 10 14 6 0 10 4 10 10 0 5 7 18 15 27 28
35 162 230 168 247 4 9 10 16 15 16 5 0 15 14 22 30 7 17 15 30 19 30 4 0 15
15 26 33 10 17 21 34 24 37 3 3 26 34 51 70 24 36 48 66 52 68 4 2 8 8 8 13 0
7 107 163 147 214 4 6 26 37 48 70 22 33 42 62 45 65 3 3 19 25 35 50 17 25
35 50 40 57 6 6 35 48 65 93 30 45 65 93 77 108 13 15 23 32 23 39 0 6 4 13 8
15 5 2 28 31 52 65 l44 62 25 -37 c14 -20 29 -41 34 -47 5 -5 53 -75 108 -155
54 -80 102 -149 106 -155 5 -5 21 -30 38 -55 16 -25 58 -84 92 -132 35 -48 63
-92 63 -97 0 -5 4 -11 8 -13 5 -2 29 -32 53 -68 24 -36 47 -66 51 -68 5 -2 8
-10 8 -17 0 -7 4 -15 8 -17 5 -1 28 -32 52 -68 24 -36 47 -66 52 -68 4 -2 8
-8 8 -14 0 -11 51 -81 63 -86 4 -2 7 -9 7 -15 0 -7 11 -24 25 -39 14 -15 25
-30 25 -33 0 -4 34 -54 76 -113 42 -59 143 -204 225 -322 82 -118 156 -223
164 -233 8 -9 15 -21 15 -25 1 -4 9 -17 19 -29 l19 -23 726 0 725 0 -47 68
c-25 37 -50 68 -54 70 -4 2 -8 10 -8 18 0 8 -3 14 -8 14 -4 0 -12 9 -17 20 -6
11 -77 115 -160 232 -82 117 -152 217 -154 223 -2 5 -7 12 -11 15 -3 3 -31 41
-61 85 -94 135 -307 439 -316 450 -5 6 -18 25 -28 42 -11 18 -23 33 -27 33 -4
0 -8 5 -8 11 0 10 -13 29 -60 86 -6 7 -10 15 -10 18 0 4 -77 114 -99 141 -11
13 -102 145 -179 259 -26 39 -49 72 -53 75 -3 3 -20 28 -39 55 -19 28 -36 52
-39 55 -3 3 -10 13 -16 22 -25 42 -260 373 -267 376 -4 2 -8 9 -8 16 0 7 -9
21 -20 31 -11 10 -20 24 -20 31 0 7 -4 14 -8 16 -5 2 -23 26 -42 53 -19 28
-38 55 -42 60 -5 6 -40 55 -78 110 -38 55 -74 107 -80 115 -38 53 -152 218
-198 285 -31 44 -58 82 -61 85 -3 3 -10 13 -16 22 -5 10 -66 97 -135 195 -69
98 -127 182 -129 188 -2 5 -8 12 -12 15 -7 5 -74 100 -186 265 -26 39 -55 78
-65 88 -10 10 -18 22 -18 27 0 5 -6 15 -13 22 -6 7 -37 49 -66 93 -30 44 -57
82 -60 85 -3 3 -10 13 -16 22 -11 19 -310 448 -323 463 -4 6 -23 33 -42 60
-18 28 -36 52 -39 55 -3 3 -10 13 -16 22 -5 9 -71 104 -145 210 -74 105 -157
224 -184 263 -27 38 -52 72 -55 75 -3 3 -10 13 -16 22 -5 10 -44 67 -85 127
l-75 110 -722 1 c-398 0 -723 -2 -723 -5z"/>
<path d="M4813 5958 c-16 -24 -53 -79 -83 -123 -30 -44 -57 -82 -60 -85 -3 -3
-9 -13 -15 -22 -5 -10 -82 -122 -170 -250 -88 -128 -188 -273 -222 -322 -34
-50 -65 -96 -70 -101 -4 -6 -35 -51 -68 -100 -33 -50 -63 -91 -67 -93 -5 -2
-8 -9 -8 -15 0 -6 -9 -20 -19 -31 -11 -12 -21 -28 -22 -36 -3 -15 96 -172 113
-178 4 -2 8 -9 8 -16 0 -6 13 -27 30 -46 16 -19 29 -40 30 -47 0 -6 3 -13 8
-15 4 -1 31 -39 61 -83 30 -44 75 -109 99 -145 25 -36 80 -114 121 -175 41
-60 79 -111 83 -113 4 -2 8 -8 8 -13 0 -6 18 -34 40 -64 22 -30 40 -59 40 -65
0 -5 3 -10 8 -10 4 0 14 -11 23 -25 15 -26 15 -25 165 192 82 119 150 223 152
230 2 7 7 13 12 13 4 0 23 25 41 55 18 30 37 55 41 55 4 0 8 4 8 10 0 5 23 41
50 80 28 39 50 72 50 75 0 3 7 13 16 23 24 26 179 255 187 275 3 9 10 17 15
17 5 0 15 14 22 30 7 17 17 30 22 30 5 0 12 8 15 17 6 15 75 120 119 180 9 13
65 94 125 180 125 183 150 220 164 237 6 6 15 19 20 28 9 16 106 157 176 258
17 25 60 87 95 138 l64 92 -699 0 -700 0 -28 -42z"/>
</g>
</svg>
