<?xml version="1.0" encoding="UTF-8"?>
<svg width="140px" height="49px" viewBox="0 0 140 49" version="1.1" xmlns="http://www.w3.org/2000/svg" xmlns:xlink="http://www.w3.org/1999/xlink">
    <!-- Generator: Sketch 52.6 (67491) - http://www.bohemiancoding.com/sketch -->
    <title>arvest-bank-logo copy 3</title>
    <desc>Created with Sketch.</desc>
    <g id="Design" stroke="none" stroke-width="1" fill="none" fill-rule="evenodd">
        <g id="customers" transform="translate(-187.000000, -934.000000)" fill="#4B6987">
            <g id="arvest-bank-logo-copy-3" transform="translate(187.000000, 934.000000)">
                <path d="M119.993548,1.40648148 L138.780645,1.13425926 L138.780645,5.85277778 C138.374194,5.12685185 137.922581,4.4462963 137.064516,4.4462963 L131.509677,4.4462963 C131.630108,13.9135802 131.750538,23.3959877 131.870968,32.8935185 C131.870968,34.0731481 132.864516,34.7083333 133.587097,35.5703704 L125.909677,35.6611111 C126.541935,34.8898148 127.490323,34.1638889 127.445161,33.1657407 L127.129032,4.53703704 L121.43871,4.53703704 C120.716129,4.53703704 120.219355,5.53518519 119.903226,6.03425926 L119.993548,1.31574074 L119.993548,1.40648148 Z M118.141935,1.45185185 L118.141935,7.66759259 L117.690323,7.66759259 C117.182447,6.7064579 116.435664,5.89369758 115.522581,5.30833333 C112.722581,3.44814815 108.612903,3.35740741 106.716129,6.80555556 C104.819355,10.2537037 110.012903,12.6583333 112.180645,14.1101852 C114.348387,15.562037 117.464516,17.512963 119.180645,20.0537037 C121.845161,24.0009259 121.258065,28.2203704 118.864516,31.2601852 C116.785167,33.8414915 113.719154,35.4227747 110.419355,35.6157407 C109.20113,35.7113779 107.976794,35.6961926 106.76129,35.5703704 C105.406452,35.4342593 103.464516,35.0259259 102.832258,36.2509259 L102.56129,36.2509259 L102.56129,30.5796296 L103.103226,30.5796296 C104.698324,31.9439084 106.745372,32.6564051 108.83871,32.5759259 C110.55755,32.576844 112.244012,32.1062137 113.716129,31.2148148 C117.058065,29.037037 118.051613,24.2277778 115.567742,21.0518519 C114.032258,19.0555556 111.458065,17.6490741 109.380645,16.4694444 C106.490323,14.8361111 103.735484,13.1574074 102.922581,9.70925926 C102.109677,4.4462963 106.535484,1.08888889 111.277419,1.08888889 C112.319254,1.11032571 113.35296,1.27831697 114.348387,1.58796296 C115.387097,1.90555556 116.335484,2.35925926 116.922581,2.26851852 C117.401969,2.15209813 117.830234,1.88120129 118.141935,1.49722222 L118.141935,1.45185185 Z M101.341935,1.36111111 L101.341935,6.35185185 L101.116129,6.35185185 C100.754839,5.12685185 100.032258,4.53703704 99.0387097,4.4462963 L87.0709677,4.53703704 L87.0709677,16.6962963 L96.1032258,16.6962963 C96.916129,16.6962963 97.0516129,16.0611111 97.5032258,15.4259259 L97.5032258,21.7777778 C97.0516129,21.2787037 96.6,20.5074074 95.9225806,20.5074074 L87.0258065,20.5074074 L87.0258065,32.5759259 L98.9032258,32.5759259 C99.8457677,32.6091499 100.662562,31.9253366 100.8,30.987963 L101.206452,30.987963 L101.116129,35.7064815 L81.4709677,35.7064815 L81.4709677,35.3888889 C82.5096774,34.3453704 83.0064516,33.6194444 82.916129,32.5305556 C82.916129,22.912037 82.916129,13.1574074 82.916129,3.53888889 C82.916129,2.58611111 82.4645161,2.08703704 82.0580645,1.9962963 C81.6516129,1.90555556 80.0709677,3.08518519 79.7548387,3.85648148 L65.7548387,36.4324074 L50.6258065,3.17592593 C50.1917348,2.5454955 49.6395012,2.00611611 49,1.58796296 L54.9612903,1.58796296 C54.401435,2.07330648 54.2513517,2.88373891 54.6,3.53888889 L65.5290323,27.5851852 L75.5096774,3.62962963 C75.8258065,2.85833333 75.8258065,1.81481481 75.0129032,1.31574074 L101.341935,1.36111111 Z M17.6129032,0.362962963 L30.8903226,28.9462963 C30.8451613,20.6888889 30.8903226,12.3407407 30.8451613,4.08333333 C30.6645161,2.85833333 30.0322581,2.04166667 29.083871,1.27037037 L31.5677419,1.58796296 C32.5096031,1.72686742 33.4641687,1.75731138 34.4129032,1.6787037 C35.5005579,1.57788922 36.5750198,1.36504264 37.6193548,1.04351852 C39.6133338,0.636777977 41.6763822,0.730278709 43.6258065,1.31574074 C49.6774194,3.13055556 53.5612903,9.57314815 49.2709677,16.1972222 C48.0064516,18.1481481 46.2451613,19.4185185 44.2129032,20.7342593 C51.483871,29.8083333 58.7096774,39.1546296 65.9806452,48.2287037 L65.7548387,48.5462963 L61.8258065,48.637037 L38.7483871,19.1462963 C42.0451613,18.375 44.3032258,17.15 45.4322581,15.4259259 C47.3290323,12.612963 47.3290323,9.98148148 46.2903226,7.93981481 C44.8,5.03611111 42.2258065,3.2212963 37.0774194,3.72037037 C36.1290323,3.81111111 34.7741935,3.62962963 34.683871,4.9 C34.5935484,14.1555556 34.7741935,23.4111111 34.683871,32.6666667 C34.683871,33.937037 35.1354839,34.7083333 35.9032258,35.7518519 L28.1806452,35.7518519 C29.8516129,35.1166667 29.2645161,33.5740741 28.7225806,32.3944444 L25.8322581,26.3601852 L9.75483871,26.3601852 L7.18064516,32.7574074 C6.63870968,34.1638889 6.86451613,34.9805556 8.26451613,35.7518519 L8.26451613,36.0694444 L0.225806452,36.0694444 L0.225806452,35.6611111 C1.70468993,35.0733319 2.9014767,33.9359951 3.56774194,32.4851852 L17.6129032,0.362962963 Z M24.3419355,23.1842593 L17.0709677,7.93981481 L10.9741935,23.1842593 L24.3419355,23.1842593 Z" id="Shape"></path>
                <path d="M136.251613,12.9305556 L136.251613,10.5259259 L137.832258,10.5259259 C137.945233,10.5690719 138.04061,10.6489204 138.103226,10.7527778 C138.166495,10.8629121 138.197785,10.9886517 138.193548,11.1157407 C138.208307,11.2788681 138.159767,11.441417 138.058065,11.5694444 C137.937291,11.6940523 137.778142,11.7739951 137.606452,11.7962963 L137.877419,11.9777778 L138.148387,12.3861111 L138.419355,12.8398148 L137.832258,12.8398148 L137.470968,12.3407407 L137.2,11.9777778 L137.064516,11.887037 L136.703226,11.887037 L136.703226,12.8851852 L136.251613,12.9305556 Z M136.748387,11.5694444 L137.516129,11.5694444 L137.651613,11.4787037 C137.684461,11.4241368 137.700198,11.3608991 137.696774,11.2972222 C137.703532,11.2332682 137.687533,11.1689758 137.651613,11.1157407 L137.470968,11.025 L136.748387,11.025 L136.748387,11.6148148 L136.748387,11.5694444 Z M137.335484,9.21018519 C137.995247,9.20755648 138.628944,9.46873829 139.096774,9.93611111 C139.565613,10.4044805 139.829225,11.0413121 139.829225,11.7055556 C139.829225,12.369799 139.565613,13.0066306 139.096774,13.475 C138.630563,13.946009 137.996666,14.2108421 137.335484,14.2108421 C136.674301,14.2108421 136.040405,13.946009 135.574194,13.475 C135.105355,13.0066306 134.841742,12.369799 134.841742,11.7055556 C134.841742,11.0413121 135.105355,10.4044805 135.574194,9.93611111 C136.042024,9.46873829 136.675721,9.20755648 137.335484,9.21018519 Z M138.780645,10.2537037 C138.099269,9.56141648 137.026129,9.44877377 136.217027,9.98461221 C135.407926,10.5204507 135.087988,11.5556779 135.45273,12.4576605 C135.817472,13.3596431 136.765407,13.8774123 137.717247,13.6945563 C138.669087,13.5117003 139.35999,12.6790971 139.367742,11.7055556 C139.372067,11.1624155 139.160786,10.6399316 138.780645,10.2537037 Z" id="Shape"></path>
            </g>
        </g>
    </g>
</svg>