<?xml version="1.0" encoding="UTF-8"?>
<svg width="181px" height="21px" viewBox="0 0 181 21" version="1.1" xmlns="http://www.w3.org/2000/svg" xmlns:xlink="http://www.w3.org/1999/xlink">
    <!-- Generator: Sketch 52.6 (67491) - http://www.bohemiancoding.com/sketch -->
    <title>cooperative-bank</title>
    <desc>Created with Sketch.</desc>
    <g id="Design" stroke="none" stroke-width="1" fill="none" fill-rule="evenodd">
        <g id="customers" transform="translate(-1117.000000, -939.000000)" fill-rule="nonzero">
            <g id="cooperative-bank" transform="translate(1117.000000, 939.000000)">
                <g id="Group" transform="translate(90.601767, 10.321500) scale(-1, 1) rotate(-180.000000) translate(-90.601767, -10.321500) translate(0.646948, 0.259000)">
                    <path d="M4.14337349,18.281375 L0.0781425703,18.281375 L0.0781425703,19.43025 L9.61880522,19.43025 L9.61880522,18.281375 L5.55175703,18.281375 L5.55175703,4.102 L4.14337349,4.102 L4.14337349,18.281375 Z M10.4565663,19.429375 L11.7813554,19.429375 L11.7813554,13.820625 L11.8267871,13.820625 C12.1593474,14.966875 13.3033183,15.649375 14.696255,15.649375 C16.4862651,15.649375 17.6992922,14.755125 17.6992922,12.630625 L17.6992922,4.101125 L16.3735944,4.101125 L16.3735944,12.268375 C16.3735944,13.8215 15.7102912,14.587125 14.365512,14.587125 C12.8162902,14.587125 11.7795382,13.439125 11.7795382,11.692625 L11.7795382,4.102 L10.454749,4.102 L10.454749,19.43025 L10.4565663,19.429375 Z M25.4163253,10.75725 C25.3708936,13.566 24.5549398,14.58625 22.9175803,14.58625 C21.2865813,14.58625 20.4697189,13.565125 20.4251958,10.75725 L25.4154167,10.75725 L25.4163253,10.75725 Z M26.7183986,7.846125 C26.518499,5.4425 25.1500954,3.84475 22.9439307,3.84475 C20.4706275,3.84475 19.0140863,5.504625 19.0140863,9.7615 C19.0140863,13.671 20.4706275,15.65025 23.0538755,15.65025 C25.6589307,15.65025 26.8301606,13.9265 26.8301606,10.16225 L26.8301606,9.69325 L20.4261044,9.69325 L20.4261044,9.163875 C20.4261044,5.908875 21.6164157,4.90875 22.918489,4.90875 C24.3114257,4.90875 25.1737199,5.865125 25.3936094,7.846125 L26.7183986,7.846125 Z M37.9463956,11.27 C37.9463956,12.95 37.5484137,13.65 36.5970733,13.65 C35.406762,13.65 35.2495683,12.20275 35.2495683,9.842 C35.2495683,7.24675 35.4058534,6.0585 36.5970733,6.0585 C37.6583584,6.0585 37.9036898,6.7585 37.9463956,8.77975 L41.2574598,8.77975 C41.234744,5.229875 39.7782028,3.801 36.5325602,3.801 C32.0275502,3.801 31.6740914,6.846 31.6740914,10.26725 C31.6740914,13.500375 32.6445131,15.90575 36.5325602,15.90575 C40.2852209,15.90575 41.2574598,14.013125 41.2574598,11.26825 L37.9445783,11.26825 L37.9463956,11.27 Z M46.9882179,13.65 C45.92875,13.65 45.617997,12.6525 45.617997,9.86475 C45.617997,7.056 45.92875,6.0585 46.9882179,6.0585 C48.0903916,6.0585 48.313007,7.01225 48.313007,9.842875 C48.313007,12.693625 48.0913002,13.649125 46.9891265,13.649125 L46.9882179,13.65 Z M42.0425201,9.821 C42.0425201,13.26675 42.8348494,15.90575 46.9673193,15.90575 C51.3378514,15.90575 51.8893926,13.330625 51.8893926,9.88575 C51.8893926,6.43825 51.0943373,3.801 46.9664106,3.801 C42.5913353,3.801 42.0416114,6.376125 42.0416114,9.821 L42.0425201,9.821 Z M61.5481777,13.65 C60.4896185,13.65 60.1797741,12.6525 60.1797741,9.86475 C60.1797741,7.056 60.4905271,6.0585 61.5490863,6.0585 C62.6558032,6.0585 62.8756928,7.01225 62.8756928,9.842875 C62.8756928,12.693625 62.6558032,13.649125 61.5490863,13.649125 L61.5481777,13.65 Z M56.6042972,9.821 C56.6042972,13.26675 57.3984438,15.90575 61.5290964,15.90575 C65.9014458,15.90575 66.4538956,13.330625 66.4538956,9.88575 C66.4538956,6.43825 65.6579317,3.801 61.5290964,3.801 C57.1549297,3.801 56.6042972,6.376125 56.6042972,9.821 Z M71.9802108,6.311375 C73.2795582,6.311375 73.3477058,7.695625 73.3477058,9.779875 C73.3477058,11.62875 73.305,13.395375 71.957495,13.395375 C70.8980271,13.395375 70.6763203,12.161625 70.6763203,9.926875 C70.6763203,7.888125 70.7653665,6.3105 71.9793022,6.3105 L71.9802108,6.311375 Z M67.1671737,15.605625 L70.6108986,15.605625 L70.6108986,14.200375 L70.6536044,14.200375 C70.920743,14.989625 71.6494679,15.904875 73.237761,15.904875 C75.6474598,15.904875 76.9295432,14.245 76.9295432,9.94875 C76.9295432,6.377 76.3989006,3.801875 73.4612851,3.801875 C72.4654217,3.801875 71.3850552,4.123 70.7898996,5.355 L70.7444679,5.355 L70.7444679,0.3605 L67.1662651,0.3605 L67.1662651,15.6065 L67.1671737,15.605625 Z M83.7515713,11.28925 C83.7515713,12.908 83.5316817,13.77775 82.5385442,13.77775 C81.3664056,13.77775 81.1692319,12.8415 81.1692319,11.28925 L83.7524799,11.28925 L83.7515713,11.28925 Z M81.1692319,9.291625 L81.1692319,8.589875 C81.1692319,6.8005 81.4354618,5.929875 82.4731225,5.929875 C83.3999297,5.929875 83.6870582,6.589625 83.7751958,8.036875 L87.0889859,8.036875 C87.0235643,5.184375 85.408012,3.801875 82.449498,3.801875 C77.9453966,3.801875 77.5901205,6.845125 77.5901205,10.268125 C77.5901205,13.4995 78.5623594,15.90575 82.4485894,15.90575 C86.8890863,15.90575 87.1962048,13.202 87.1962048,9.29075 L81.1683233,9.29075 L81.1692319,9.291625 Z M87.9103916,15.6065 L91.3568424,15.6065 L91.3568424,13.990375 L91.4004568,13.990375 C91.8656777,15.00975 92.7697691,15.904875 94.271742,15.904875 C94.4461998,15.904875 94.6224749,15.904875 94.8478163,15.861125 L94.8478163,12.62975 C94.5192217,12.6892312 94.1853789,12.7176579 93.8510442,12.714625 C92.4154016,12.714625 91.4904116,12.137125 91.4904116,10.6295 L91.4904116,4.099375 L87.9103916,4.099375 L87.9103916,15.605625 L87.9103916,15.6065 Z M106.380206,13.223875 L104.902766,13.223875 L104.902766,15.6065 L106.381114,15.6065 L106.381114,19.439 L109.959317,19.439 L109.959317,15.6065 L111.614849,15.6065 L111.614849,13.223875 L109.959317,13.223875 L109.959317,7.419125 C109.959317,6.610625 110.27007,6.355125 111.104197,6.355125 C111.258665,6.355125 111.458564,6.376125 111.613032,6.398875 L111.613032,4.10025 C110.933056,4.01449369 110.248026,3.97123649 109.562244,3.97075 C107.087123,3.97075 106.380206,4.3995 106.380206,7.07525 L106.380206,13.222125 L106.380206,13.223875 Z M112.582545,15.6065 L116.160748,15.6065 L116.160748,4.10025 L112.583454,4.10025 L112.583454,15.6065 L112.582545,15.6065 Z M112.582545,19.453875 L116.160748,19.453875 L116.160748,16.820125 L112.583454,16.820125 L112.583454,19.453875 L112.582545,19.453875 Z M116.908554,15.6065 L120.618509,15.6065 L122.00872,7.119 L122.054152,7.119 L123.467987,15.6065 L127.04619,15.6065 L124.085858,4.10025 L119.847987,4.10025 L116.909463,15.6065 L116.908554,15.6065 Z M132.953223,11.28925 C132.953223,12.908 132.733333,13.77775 131.739287,13.77775 C130.570783,13.77775 130.372701,12.8415 130.372701,11.28925 L132.953223,11.28925 Z M130.372701,9.291625 L130.372701,8.589875 C130.372701,6.8005 130.636205,5.929875 131.672048,5.929875 C132.603399,5.929875 132.885984,6.589625 132.975939,8.036875 L136.287912,8.036875 C136.224307,5.184375 134.611481,3.801875 131.652058,3.801875 C127.145231,3.801875 126.795407,6.845125 126.795407,10.268125 C126.795407,13.4995 127.76492,15.90575 131.652058,15.90575 C136.090738,15.90575 136.400582,13.202 136.400582,9.29075 L130.372701,9.29075 L130.372701,9.291625 Z M52.4136747,8.48575 L55.9900602,8.48575 L55.9900602,11.2945 L52.4136747,11.2945 L52.4136747,8.48575 Z M100.922038,7.76125 C100.922038,6.6115 100.236019,6.18625 99.4863956,6.18625 C98.8230924,6.18625 98.4487349,6.7375 98.4487349,7.65275 C98.4487349,8.2915 98.6259187,8.652875 99.0002761,8.93025 C99.3310191,9.18575 99.8180472,9.205 100.944754,9.779 C100.944754,9.31175 100.922038,8.71675 100.922038,7.76125 Z M104.256727,6.58875 L104.256727,12.502 C104.256727,14.92575 102.953745,15.90575 100.017947,15.90575 C98.5368725,15.90575 97.5210191,15.70975 96.683258,15.16025 C95.94999,14.679 95.4856777,13.88625 95.365738,12.64725 L98.5686747,12.64725 C98.6867972,13.2895 99.030261,13.65 99.8171386,13.65 C100.611285,13.65 100.943845,13.202 100.943845,12.502 C100.943845,11.627 100.745763,11.458125 99.6626707,11.1825 C98.6677159,10.92875 97.3456526,10.714375 96.4597339,10.24625 C95.5765412,9.779875 95.0013755,8.65375 95.0013755,7.3115 C95.0013755,4.823875 96.1735141,3.80275 98.1834137,3.80275 C99.3737249,3.80275 100.500432,4.400375 100.98746,5.418875 L101.030166,5.418875 C101.051973,4.972625 101.096496,4.505375 101.230065,4.101125 L104.67379,4.101125 C104.255818,4.61125 104.255818,5.71725 104.255818,6.589625 L104.256727,6.58875 Z" id="Shape" fill="#243D72"></path>
                    <path d="M145.46512,4.930625 C146.825346,4.930625 148.092892,5.607875 148.092892,9.909375 C148.092892,14.1855 146.825346,14.861875 145.46512,14.861875 C144.083996,14.861875 142.836441,14.1855 142.836441,9.909375 C142.836441,5.607875 144.08127,4.930625 145.464212,4.930625 L145.46512,4.930625 Z M141.475306,19.68575 L142.835532,19.68575 L142.835532,13.94575 L142.879147,13.94575 C143.173544,15.168125 144.194849,15.95475 145.689553,15.95475 C148.342766,15.95475 149.543981,13.901125 149.543981,9.9085 C149.543981,5.89225 148.341857,3.838625 145.69137,3.838625 C144.262997,3.838625 143.107214,4.690875 142.744669,6.022625 L142.699237,6.022625 L142.699237,4.101125 L141.47258,4.101125 L141.47258,19.684875 L141.475306,19.68575 Z M157.181054,10.64875 L157.135622,10.64875 C156.999327,10.257625 156.230622,10.017 155.68635,9.884875 L154.553283,9.60225 C153.193966,9.25225 152.490683,8.57675 152.490683,7.200375 C152.490683,5.8485 153.21759,4.92975 154.394272,4.92975 C156.049804,4.92975 157.181963,6.131125 157.181963,8.204875 L157.181963,10.64875 L157.181054,10.64875 Z M151.425763,12.243875 C151.425763,14.62125 152.603353,15.953875 155.142078,15.953875 C157.63628,15.953875 158.542189,14.707875 158.542189,12.875625 L158.542189,6.022625 C158.542189,5.368125 158.769347,5.060125 159.243655,5.060125 L159.630733,5.060125 L159.630733,4.101125 C159.380858,4.013625 159.176416,3.971625 158.994689,3.971625 C157.931586,3.971625 157.25011,4.2105 157.25011,5.410125 L157.25011,5.803875 L157.204679,5.803875 C156.662224,4.27525 155.437385,3.83775 154.098966,3.83775 C151.990934,3.83775 151.039593,5.10475 151.039593,7.112875 C151.039593,8.640625 151.766501,9.862125 153.465648,10.3215 L156.02618,11.01975 C156.97752,11.28225 157.180146,11.49925 157.180146,12.852875 C157.180146,14.336875 156.321486,14.861 155.096647,14.861 C153.488363,14.861 152.78508,13.922125 152.78508,12.243 L151.425763,12.243 L151.425763,12.243875 Z M161.32988,15.69225 L162.554719,15.69225 L162.554719,14.077 L162.600151,14.077 C163.279809,15.365 164.459217,15.95475 165.683148,15.95475 C167.518589,15.95475 168.765236,15.03775 168.765236,12.85375 L168.765236,4.101125 L167.40501,4.101125 L167.40501,12.483625 C167.40501,14.076125 166.723534,14.863625 165.34241,14.863625 C163.755934,14.863625 162.689197,13.682375 162.689197,11.89475 L162.689197,4.101125 L161.32988,4.101125 L161.32988,15.69225 Z M171.256712,19.68575 L172.617846,19.68575 L172.617846,9.9295 L172.663278,9.9295 L177.330934,15.69225 L179.008273,15.69225 L175.381004,11.3925 L179.665216,4.101125 L177.990602,4.101125 L174.408765,10.212125 L172.618755,8.162 L172.618755,4.102 L171.25762,4.102 L171.25762,19.68575 L171.256712,19.68575 Z" id="Shape" fill="#0D9AD2"></path>
                </g>
            </g>
        </g>
    </g>
</svg>