<?xml version="1.0" encoding="UTF-8"?>
<svg width="139px" height="41px" viewBox="0 0 139 41" version="1.1" xmlns="http://www.w3.org/2000/svg" xmlns:xlink="http://www.w3.org/1999/xlink">
    <!-- Generator: Sketch 52.6 (67491) - http://www.bohemiancoding.com/sketch -->
    <title>DBS-logo Copy</title>
    <desc>Created with Sketch.</desc>
    <g id="Design" stroke="none" stroke-width="1" fill="none" fill-rule="evenodd">
        <g id="customers" transform="translate(-405.000000, -929.000000)" fill-rule="nonzero">
            <g id="DBS-logo-Copy" transform="translate(405.000000, 929.000000)">
                <path d="M136.167983,2.47163121 L136.514761,2.47163121 L136.630353,8.92695035 L136.254678,8.92695035 C135.618919,6.30992908 133.104782,3.83829787 128.076507,3.57659574 C122.152391,3.25673759 119.551559,6.83333333 119.551559,10.206383 C119.522661,14.6843972 122.990437,15.6148936 128.134304,16.8652482 C130.561746,17.4758865 139.549064,18.6390071 138.826611,28.787234 C138.306445,35.8822695 132.237838,39.2553191 123.626195,38.993617 C123.626195,38.993617 120.042827,38.877305 115.043451,37.4815603 C114.118711,37.2198582 113.887526,37.5397163 113.482952,38.2375887 L113.078378,38.2375887 L113.078378,31.2588652 L113.482952,31.2588652 C113.685239,31.9567376 113.714137,33.2652482 114.985655,34.3992908 C116.257173,35.5333333 118.077755,37.2489362 122.845946,37.3070922 C127.614137,37.3652482 131.399792,35.3879433 131.919958,30.1248227 C132.064449,28.7 131.89106,25.4432624 128.741164,23.9602837 C126.284823,22.7971631 119.435967,22.0411348 116.112682,19.1042553 C116.112682,19.1042553 112.182536,16.341844 112.818295,11.1950355 C113.685239,3.92553191 119.724948,2.09361702 125.157796,1.97730496 C125.157796,1.97730496 130.012682,1.91914894 133.856133,2.93687943 C134.435264,3.08999625 135.045087,3.07993693 135.618919,2.90780142 C135.840516,2.81978459 136.031471,2.66809269 136.167983,2.47163121" id="Shape" fill="#000000"></path>
                <path d="M102.270478,19.2205674 C102.790644,18.9297872 109.81289,16.2546099 109.206029,9.82836879 C108.483576,1.80283688 99.7852391,2.38439716 96.8954262,2.38439716 L81.2037422,2.38439716 L81.2037422,2.76241135 C82.8509356,2.96595745 83.631185,3.86737589 83.6022869,6.86241135 L83.4577963,34.4283688 C83.4577963,37.1035461 82.3307692,37.9468085 80.8280665,38.1503546 L80.8280665,38.5574468 L101.605821,38.5574468 C104.322245,38.5574468 111.055509,37.6560284 111.460083,29.6304965 C111.575676,27.8276596 111.055509,21.4304965 102.24158,19.2496454 M104.55343,29.6886525 C104.437838,35.1843972 101.287942,36.5219858 99.4384615,36.929078 C97.5889813,37.3361702 94.5546778,37.2780142 92.3006237,37.1617021 C90.0465696,37.0453901 90.2488565,36.1439716 90.2199584,35.2716312 C90.2199584,35.2716312 90.2199584,31.5496454 90.3066528,26.722695 C90.4511435,17.8539007 90.7112266,5.23404255 90.7112266,5.05957447 C90.7112266,3.80921986 91.0002079,3.72198582 92.1272349,3.6929078 L94.7280665,3.6929078 C96.6931393,3.72198582 102.039293,3.86737589 102.357173,10.9914894 C102.675052,18.1156028 95.0748441,19.1624113 93.1675676,19.2205674 C93.0808732,19.2205674 93.0519751,19.5404255 93.1675676,19.5404255 C99.0338877,19.8602837 104.697921,21.9248227 104.55343,29.6886525" id="Shape" fill="#000000"></path>
                <path d="M63.1713098,2.35531915 L46.2948025,2.35531915 L46.2948025,2.73333333 C47.5085239,2.93687943 48.5199584,3.75106383 48.6355509,5.03049645 C49.0112266,9.10141844 49.1557173,33.8468085 48.5488565,36.5510638 C48.3465696,37.2489362 47.1617464,37.9177305 46.0925156,38.1212766 L46.0925156,38.5283688 L64.9918919,38.5283688 C72.4476091,38.5283688 80.481289,31.6078014 80.5101871,20.3836879 C80.5390852,7.47304965 70.6848233,2.32624113 63.2002079,2.35531915 M66.6390852,36.2021277 C63.9804574,37.1617021 61.0617464,37.4524823 57.5361746,37.1035461 C55.6,36.9 55.5422037,35.7950355 55.5133056,35.3297872 C55.3110187,31.9276596 55.368815,8.34539007 55.5711019,5.29219858 C55.6866944,3.66382979 56.0045738,3.72198582 57.5072765,3.75106383 C59.0099792,3.78014184 60.5704782,3.86737589 60.5704782,3.86737589 C69.4422037,4.5070922 72.7654886,11.3985816 73.4301455,20.1801418 C74.0948025,28.9617021 69.9623701,35.0099291 66.6101871,36.2021277" id="Shape" fill="#000000"></path>
                <path d="M37.6831601,20.441844 C37.6831601,17.7666667 37.7698545,15.3822695 39.7638254,11.1659574 C40.3417879,9.94468085 41.5844075,8.14184397 39.7349272,6.07730496 C38.6103494,4.84946317 36.7747818,4.60482826 35.3713098,5.49574468 C36.2376532,4.07425574 35.9833954,2.23464105 34.7644491,1.10496454 C32.7126819,-0.756028369 30.9209979,0.494326241 29.7072765,1.07588652 C25.5459459,3.05319149 23.1762994,3.16950355 20.4887734,3.16950355 C17.8012474,3.16950355 15.460499,3.05319149 11.2702703,1.07588652 C10.0565489,0.494326241 8.26486486,-0.756028369 6.21309771,1.10496454 C4.71039501,2.61702128 4.97047817,4.33262411 5.60623701,5.49574468 C4.20276497,4.60482826 2.36719741,4.84946317 1.24261954,6.07730496 C-0.606860707,8.14184397 0.635758836,9.94468085 1.21372141,11.1659574 C3.17879418,15.3531915 3.29438669,17.7666667 3.29438669,20.441844 C3.29438669,23.1170213 3.17879418,25.5014184 1.21372141,29.7177305 C0.635758836,30.9390071 -0.606860707,32.712766 1.24261954,34.806383 C2.36530754,36.0329171 4.19354182,36.2887575 5.60623701,35.4170213 C4.73989359,36.8385102 4.99415134,38.6781249 6.21309771,39.8078014 C8.26486486,41.6687943 10.0565489,40.4184397 11.2702703,39.8368794 C15.4316008,37.8595745 17.8012474,37.7432624 20.4887734,37.7432624 C23.1762994,37.7432624 25.5170478,37.8595745 29.7072765,39.8368794 C30.9209979,40.4184397 32.7126819,41.6687943 34.7644491,39.8078014 C35.9833954,38.6781249 36.2376532,36.8385102 35.3713098,35.4170213 C36.784005,36.2887575 38.6122392,36.0329171 39.7349272,34.806383 C41.5844075,32.741844 40.3417879,30.9390071 39.7638254,29.7177305 C37.7987526,25.5014184 37.6831601,23.1170213 37.6831601,20.441844 Z M33.1172557,33.1489362 L23.32079,24.8907801 C23.32079,24.8907801 21.9914761,23.5822695 20.5176715,23.5822695 C19.0438669,23.5822695 17.6856549,24.8907801 17.6856549,24.8907801 L7.88918919,33.1780142 L7.86029106,33.1780142 L16.0673597,23.3205674 C16.0673597,23.3205674 17.3677755,21.9829787 17.3677755,20.470922 C17.3677755,18.9588652 16.0673597,17.6503546 16.0673597,17.6503546 L7.86029106,7.76382979 L7.88918919,7.76382979 L17.6856549,15.9929078 C17.6856549,15.9929078 19.0149688,17.3014184 20.5176715,17.3014184 C22.0203742,17.3014184 23.32079,15.9929078 23.32079,15.9929078 L33.0883576,7.73475177 L33.1172557,7.73475177 L24.9101871,17.6212766 C24.9101871,17.6212766 23.6097713,18.9588652 23.6097713,20.441844 C23.6097713,21.9248227 24.9101871,23.2914894 24.9101871,23.2914894 L33.1172557,33.1198582 L33.1172557,33.1489362 Z" id="Shape" fill="#ED1C24"></path>
                <path d="M33.0883576,33.1780142 L23.32079,24.8907801 C23.32079,24.8907801 21.9914761,23.5822695 20.4887734,23.5822695 C18.9860707,23.5822695 17.6567568,24.8907801 17.6567568,24.8907801 L7.88918919,33.1780142 L7.86029106,33.1780142 L16.0673597,23.3205674 C16.0673597,23.3205674 17.3677755,21.9829787 17.3677755,20.470922 C17.3677755,18.9588652 16.0673597,17.6212766 16.0673597,17.6212766 L7.86029106,7.76382979 L7.88918919,7.76382979 L17.6856549,15.9929078 C17.6856549,15.9929078 19.0149688,17.3014184 20.5176715,17.3014184 C22.0203742,17.3014184 23.3496881,15.9929078 23.3496881,15.9929078 L33.1172557,7.73475177 L33.1461538,7.73475177 L24.9101871,17.6212766 C24.9101871,17.6212766 23.6097713,18.9588652 23.6097713,20.470922 C23.6097713,21.9829787 24.9101871,23.3205674 24.9101871,23.3205674 L33.1172557,33.1780142 L33.0883576,33.1780142" id="Shape" fill="#FFFFFF"></path>
            </g>
        </g>
    </g>
</svg>