<?xml version="1.0" encoding="UTF-8"?>
<svg width="158px" height="29px" viewBox="0 0 158 29" version="1.1" xmlns="http://www.w3.org/2000/svg" xmlns:xlink="http://www.w3.org/1999/xlink">
    <!-- Generator: Sketch 52.6 (67491) - http://www.bohemiancoding.com/sketch -->
    <title>HSBC-logo Copy 2</title>
    <desc>Created with Sketch.</desc>
    <g id="Design" stroke="none" stroke-width="1" fill="none" fill-rule="evenodd">
        <g id="customers" transform="translate(-895.000000, -935.000000)" fill-rule="nonzero">
            <g id="HSBC-logo-Copy-2" transform="translate(895.000000, 935.000000)">
                <g id="g13" transform="translate(14.183641, 15.305906) scale(-1, 1) rotate(-180.000000) translate(-14.183641, -15.305906) translate(0.010153, 1.071040)" fill="#000000">
                    <path d="M20.9521131,13.6159586 C20.9336259,13.6159586 20.9521131,3.99195149 20.9521131,3.99195149 C20.9521131,2.78136899 19.9168322,1.72056204 18.5611072,1.72056204 L17.2620762,1.72056204 L17.2620762,1.23038753 L28.2570057,1.23038753 L28.2570057,1.72056204 L26.9579747,1.72056204 C25.6207368,1.72056204 24.5669688,2.79869839 24.5669688,3.99195149 L24.5669688,13.7669719 L24.5669688,25.4333728 C24.5669688,26.6068209 25.6022497,27.7022866 26.9579747,27.7022866 L28.2570057,27.7022866 L28.2570057,28.1949368 L17.2620762,28.1949368 L17.2620762,27.7022866 L18.5611072,27.7022866 C19.9353193,27.7022866 20.9521131,26.6068209 20.9521131,25.4333728 L20.9521131,14.9775544 L7.92482865,14.9775544 L7.92482865,25.4333728 C7.92482865,26.6068209 8.97859669,27.7022866 10.3158345,27.7022866 L11.613633,27.7022866 L11.613633,28.1949368 L0.618703574,28.1949368 L0.618703574,27.7022866 L1.91896706,27.7022866 C3.27345955,27.7022866 4.30997291,26.6068209 4.30997291,25.4333728 L4.30997291,13.7669719 L4.30997291,3.99195149 C4.30997291,2.79869839 3.27345955,1.72056204 1.91896706,1.72056204 L0.618703574,1.72056204 L0.618703574,1.23038753 L11.613633,1.23038753 L11.613633,1.72056204 L10.3158345,1.72056204 C8.97859669,1.72056204 7.92482865,2.79869839 7.92482865,3.99195149 C7.92482865,3.99195149 7.94208333,13.6159586 7.92482865,13.6159586 L20.9521131,13.6159586 Z" id="path15"></path>
                </g>
                <g id="g17" transform="translate(39.098304, 15.065868) scale(-1, 1) rotate(-180.000000) translate(-39.098304, -15.065868) translate(29.854724, 0.212095)" fill="#000000">
                    <path d="M17.2546813,8.66470091 C17.3495821,7.08029846 16.3709952,4.67522505 15.0140377,3.44731315 C13.7100768,2.26396257 11.8515011,1.23410097 9.36682702,1.23410097 C6.54322166,1.23410097 4.11400902,2.74671019 3.22909037,3.08710915 C2.69296277,3.29382416 1.99045074,3.2715435 1.57140848,3.01160247 C1.08211502,2.70833794 0.78139057,2.21816343 0.668002664,1.30960765 L0.253890311,1.30960765 L0.253890311,10.651393 L0.668002664,10.651393 C1.0451407,7.77718797 2.38114603,6.08880911 3.21060321,5.12950294 C4.56632817,3.55995426 7.1261834,2.67120351 9.59237035,3.06854194 C11.5520092,3.38418461 13.6965196,5.51941448 13.4611164,8.16462389 C13.377308,9.1189788 13.1690193,10.5078066 11.1933583,11.8037983 C9.95348618,12.6182802 8.19227621,13.773161 6.52350203,14.8859562 C4.41719843,16.2883999 2.50562623,17.8071982 1.96826615,18.422392 C1.26328917,19.2282091 0.385765376,20.3880412 0.385765376,22.2422872 C0.385765376,23.8304031 0.988446746,25.6450391 2.2689906,26.8556216 C3.54953445,28.0649662 5.28116497,28.9722842 7.76583908,28.9722842 C10.2517457,28.9722842 12.1349709,27.6490606 12.7746266,27.3470339 C13.4142823,27.0450072 14.1217242,27.1155626 14.5247443,27.3470339 C14.9203695,27.5747917 15.1841196,27.9151907 15.2975075,28.8225087 L15.7116198,28.8225087 L15.7116198,19.9721356 L15.2975075,19.9721356 C14.9203695,22.8475785 13.6780324,25.0013756 12.8116009,25.7960524 C11.9464019,26.5907293 10.2517457,27.6874329 7.72886477,27.1960205 C5.30827947,26.7244132 4.13003123,25.625234 3.90695285,23.6793898 C3.73687099,22.1964881 4.53798119,21.2842189 4.99892768,20.729678 C5.94054029,19.59584 11.9143575,16.1955638 14.619645,13.8461921 C16.0135768,12.6368474 17.1055516,11.198507 17.2546813,8.66470091" id="path19"></path>
                </g>
                <g id="g21" transform="translate(59.559247, 15.026282) scale(-1, 1) rotate(-180.000000) translate(-59.559247, -15.026282) translate(48.466952, 0.791416)" fill="#000000">
                    <path d="M7.39486344,2.47562883 C9.25467159,1.8975695 12.7955787,1.45319412 15.2629981,3.22945781 C18.2234085,5.35726079 18.8470419,10.5573192 14.6689441,13.2668949 C12.9866127,14.3586472 8.78879519,14.2831405 7.39486344,13.9538819 L7.39486344,2.47562883 Z M7.39486344,15.473918 C8.7123816,15.1347569 12.59222,15.0431586 14.0970747,16.0037026 C16.4560361,17.5076471 17.274401,19.9213852 16.8393365,22.0553773 C16.5780513,23.337753 15.9026538,24.5211036 14.7367303,25.3442502 C12.4406253,26.9707383 9.12772643,26.7070838 7.39486344,26.1772993 L7.39486344,15.473918 Z M16.055481,14.7188512 C20.8411901,13.0688446 22.2055424,9.67599529 21.3169263,6.18040738 C20.2742506,2.07086352 15.6598558,1.23533879 14.1636284,1.03605067 C13.4882309,0.948165842 11.7639952,0.955592729 10.0594792,0.955592729 C7.0177254,0.951879286 3.16993146,0.961781801 0.0801110205,0.961781801 L0.0801110205,1.45319412 L1.6626118,1.45319412 C2.66831322,1.45319412 3.81698201,2.30481044 3.81698201,3.58966181 L3.81698201,25.1177301 C3.81698201,26.4038193 2.66831322,27.272765 1.67123914,27.272765 L0.0899708385,27.272765 L0.0899708385,27.7654152 C2.81867545,27.7654152 6.79341454,27.766653 9.63550706,27.7654152 C11.9316122,27.7654152 13.1788791,27.5438464 13.9849192,27.3866439 C15.3394117,27.1229895 19.2944312,25.9495414 20.2348113,22.2447629 C20.9632054,19.3755091 19.5384617,15.7586153 16.055481,14.7188512 Z" id="path23"></path>
                </g>
                <g id="g25" transform="translate(84.474391, 14.814822) scale(-1, 1) rotate(-180.000000) translate(-84.474391, -14.814822) translate(71.533380, 0.579957)" fill="#000000">
                    <path d="M23.4170675,27.2319171 L23.8040654,18.0993224 L23.258078,18.0795174 C22.9943279,20.3880412 22.1278964,22.0132916 21.0359215,23.0728607 C20.7216398,23.3773631 20.1251208,23.9937946 19.2648517,24.538433 C17.8314807,25.4457509 15.6992951,26.2478547 13.1665543,25.7948146 C9.36312959,25.1140167 7.40472325,22.5901131 6.42613633,20.1602834 C5.22077359,17.1734372 4.45787017,12.0649771 6.50254991,7.75490731 C8.1602318,4.25684378 11.3474179,2.79993621 13.80621,2.42364063 C15.9014213,2.10304669 20.5466281,2.20207185 24.0863027,6.99860271 L24.6507773,6.62106931 C21.9011205,2.72566734 18.2492905,0.230233481 14.0699602,0.268605728 C8.7234739,0.315642676 5.36374095,3.27525694 3.8280743,5.03295341 C2.20859921,6.8859616 0.966262156,10.4025924 0.950239951,13.466183 C0.937915179,16.1893747 1.53566664,19.2195444 2.50932366,20.9920947 C4.1854927,24.0358803 7.68696054,27.0610988 12.2988904,27.5153766 C15.7535241,27.8545378 18.0237471,27.1749777 19.9636663,26.0597069 C20.9323934,25.5014526 21.4771484,25.4370862 22.0046486,25.6623685 C22.5309164,25.8901263 22.9561211,26.3431664 22.9561211,27.2319171 L23.4170675,27.2319171 Z" id="path27"></path>
                </g>
                <polygon id="path29" fill="#FFFFFF" points="144.428011 28.3079242 117.604376 28.3079242 117.604376 1.37427947 144.428011 1.37427947"></polygon>
                <g id="g31" transform="translate(110.967611, 14.840834) scale(-1, 1) rotate(-180.000000) translate(-110.967611, -14.840834) translate(104.188986, 1.224876)" fill="#E71D1C">
                    <polygon id="path33" points="0 13.6159586 13.4130498 0.146062101 13.4130498 27.0870929"></polygon>
                </g>
                <g id="g35" transform="translate(131.161258, 21.501919) scale(-1, 1) rotate(-180.000000) translate(-131.161258, -21.501919) translate(117.604008, 14.693939)" fill="#E71D1C">
                    <polygon id="path37" points="0 0 26.8248671 0 13.4118173 13.4698965"></polygon>
                </g>
                <g id="g39" transform="translate(131.016317, 8.032375) scale(-1, 1) rotate(-180.000000) translate(-131.016317, -8.032375) translate(117.459067, 1.224396)" fill="#E71D1C">
                    <polygon id="path41" points="13.5572496 0 26.9702994 13.4711343 0.145432314 13.4711343"></polygon>
                </g>
                <g id="g43" transform="translate(151.208362, 14.985651) scale(-1, 1) rotate(-180.000000) translate(-151.208362, -14.985651) translate(144.429737, 1.369693)" fill="#E71D1C">
                    <polygon id="path45" points="0 27.2319171 0 0.290886388 13.4130498 13.7607829"></polygon>
                </g>
            </g>
        </g>
    </g>
</svg>