<?xml version="1.0" encoding="UTF-8"?>
<svg width="194px" height="39px" viewBox="0 0 194 39" version="1.1" xmlns="http://www.w3.org/2000/svg" xmlns:xlink="http://www.w3.org/1999/xlink">
    <!-- Generator: Sketch 52.6 (67491) - http://www.bohemiancoding.com/sketch -->
    <title>huntington-logo copy 5</title>
    <desc>Created with Sketch.</desc>
    <g id="Design" stroke="none" stroke-width="1" fill="none" fill-rule="evenodd">
        <g id="customers" transform="translate(-623.000000, -932.000000)" fill-rule="nonzero">
            <g id="huntington-logo-copy-5" transform="translate(623.000000, 932.000000)">
                <path d="M107.72188,9.65409836 L113.287196,9.65409836 C113.538736,9.65409836 113.727391,9.84590164 113.727391,10.1016393 L113.727391,29.7614754 C113.727391,30.0172131 113.538736,30.2090164 113.287196,30.2090164 L107.72188,30.2090164 C107.47034,30.2090164 107.281686,30.0172131 107.281686,29.7614754 L107.281686,10.1016393 C107.281686,9.84590164 107.47034,9.65409836 107.72188,9.65409836 Z" id="Shape" fill="#726963"></path>
                <path d="M58.8917342,1.72622951 L52.8862237,1.72622951 C52.634684,1.72622951 52.4460292,1.91803279 52.4460292,2.17377049 L52.4460292,12.4352459 L47.5724473,12.4352459 L47.5724473,2.17377049 C47.5724473,1.91803279 47.3837925,1.72622951 47.1322528,1.72622951 L41.1581848,1.72622951 C40.9066451,1.72622951 40.7179903,1.91803279 40.7179903,2.17377049 L40.7179903,29.7614754 C40.7179903,30.0172131 40.9066451,30.2090164 41.1581848,30.2090164 L47.1636953,30.2090164 C47.415235,30.2090164 47.6038898,30.0172131 47.6038898,29.7614754 L47.6038898,18.604918 L52.4460292,18.604918 L52.4460292,29.7614754 C52.4460292,30.0172131 52.634684,30.2090164 52.8862237,30.2090164 L58.8917342,30.2090164 C59.1432739,30.2090164 59.3319287,30.0172131 59.3319287,29.7614754 L59.3319287,2.17377049 C59.3319287,1.91803279 59.1432739,1.72622951 58.8917342,1.72622951 Z" id="Shape" fill="#726963"></path>
                <path d="M115.865478,29.7614754 C115.865478,30.0172131 116.054133,30.2090164 116.305673,30.2090164 L121.745219,30.2090164 C121.996759,30.2090164 122.185413,30.0172131 122.185413,29.7614754 L122.185413,14.257377 L123.631767,14.257377 C124.354943,14.257377 124.95235,14.8647541 124.95235,15.6 L124.95235,29.7614754 C124.95235,30.0172131 125.141005,30.2090164 125.392545,30.2090164 L130.863533,30.2090164 C131.115073,30.2090164 131.303728,30.0172131 131.303728,29.7614754 L131.303728,14.2893443 C131.303728,11.7319672 129.259968,9.65409836 126.744571,9.65409836 C126.744571,9.65409836 126.713128,9.65409836 126.713128,9.65409836 L116.557212,9.65409836 C116.179903,9.65409836 115.865478,9.97377049 115.865478,10.357377 L115.865478,29.7614754 Z" id="Shape" fill="#726963"></path>
                <path d="M178.247326,29.7614754 C178.247326,30.0172131 178.435981,30.2090164 178.68752,30.2090164 L184.127066,30.2090164 C184.378606,30.2090164 184.567261,30.0172131 184.567261,29.7614754 C184.567261,29.7614754 184.567261,29.7614754 184.567261,29.7614754 L184.567261,14.257377 L186.013614,14.257377 C186.736791,14.257377 187.334198,14.8647541 187.334198,15.6 L187.334198,29.7614754 C187.334198,30.0172131 187.522853,30.2090164 187.774392,30.2090164 L193.245381,30.2090164 C193.496921,30.2090164 193.685575,30.0172131 193.685575,29.7614754 C193.685575,29.7614754 193.685575,29.7614754 193.685575,29.7614754 L193.685575,14.2893443 C193.685575,11.7319672 191.641815,9.65409836 189.126418,9.65409836 L178.93906,9.65409836 C178.56175,9.65409836 178.247326,9.97377049 178.247326,10.357377 L178.247326,29.7614754 Z" id="Shape" fill="#726963"></path>
                <path d="M79.1092382,29.7614754 C79.1092382,30.0172131 79.297893,30.2090164 79.5494327,30.2090164 L84.9889789,30.2090164 C85.2405186,30.2090164 85.4291734,30.0172131 85.4291734,29.7614754 L85.4291734,14.257377 L86.8755267,14.257377 C87.5987034,14.257377 88.1961102,14.8647541 88.1961102,15.6 L88.1961102,29.7614754 C88.1961102,30.0172131 88.384765,30.2090164 88.6363047,30.2090164 L94.1072934,30.2090164 C94.3588331,30.2090164 94.5474878,30.0172131 94.5474878,29.7614754 L94.5474878,14.2893443 C94.5474878,11.7319672 92.5037277,9.65409836 89.9883306,9.65409836 C89.9568882,9.65409836 89.9568882,9.65409836 89.9254457,9.65409836 L79.8009724,9.65409836 C79.4236629,9.65409836 79.1092382,9.97377049 79.1092382,10.357377 L79.1092382,29.7614754 Z" id="Shape" fill="#726963"></path>
                <path d="M76.8768233,10.1016393 C76.8768233,9.84590164 76.6881686,9.65409836 76.4366288,9.65409836 L70.9970827,9.65409836 C70.7455429,9.65409836 70.5568882,9.84590164 70.5568882,10.1016393 L70.5568882,25.6057377 L69.1105348,25.6057377 C68.3873582,25.6057377 67.7899514,24.9983607 67.7899514,24.2631148 L67.7899514,10.1016393 C67.7899514,9.84590164 67.6012966,9.65409836 67.3497569,9.65409836 L61.9102107,9.65409836 C61.658671,9.65409836 61.4700162,9.84590164 61.4700162,10.1016393 L61.4700162,25.5737705 C61.4700162,28.1311475 63.5137763,30.2090164 66.0291734,30.2090164 L76.1536467,30.2090164 C76.5309562,30.2090164 76.8453809,29.8893443 76.8453809,29.5057377 L76.8768233,10.1016393 Z" id="Shape" fill="#726963"></path>
                <path d="M104.860616,25.6057377 L103.791572,25.6057377 C103.068395,25.6057377 102.470989,24.9983607 102.470989,24.2631148 L102.470989,15.1844262 L104.860616,15.1844262 C105.112156,15.1844262 105.30081,14.992623 105.30081,14.7368852 L105.30081,10.1016393 C105.30081,9.84590164 105.112156,9.65409836 104.860616,9.65409836 L102.470989,9.65409836 L102.470989,5.88196721 C102.470989,5.62622951 102.282334,5.43442623 102.030794,5.43442623 L96.8113452,5.43442623 C96.5598055,5.43442623 96.3711507,5.62622951 96.3711507,5.88196721 L96.3711507,25.5737705 C96.3711507,28.1311475 98.4149109,30.2090164 100.930308,30.2090164 L104.829173,30.2090164 C105.080713,30.2090164 105.269368,30.0172131 105.269368,29.7614754 L105.269368,26.0532787 C105.269368,25.8295082 105.080713,25.6377049 104.860616,25.6057377 Z" id="Shape" fill="#726963"></path>
                <path d="M158.973096,25.6057377 L157.904052,25.6057377 C157.180875,25.6057377 156.583468,24.9983607 156.583468,24.2631148 L156.583468,15.1844262 L158.973096,15.1844262 C159.224635,15.1844262 159.41329,14.992623 159.41329,14.7368852 C159.41329,14.7368852 159.41329,14.7368852 159.41329,14.7368852 L159.41329,10.1016393 C159.41329,9.84590164 159.224635,9.65409836 158.973096,9.65409836 L156.583468,9.65409836 L156.583468,5.88196721 C156.583468,5.62622951 156.394814,5.43442623 156.143274,5.43442623 L150.955267,5.43442623 C150.703728,5.43442623 150.515073,5.62622951 150.515073,5.88196721 C150.515073,5.88196721 150.515073,5.88196721 150.515073,5.88196721 L150.515073,25.5737705 C150.515073,28.1311475 152.558833,30.2090164 155.07423,30.2090164 L158.973096,30.2090164 C159.224635,30.2090164 159.41329,30.0172131 159.41329,29.7614754 C159.41329,29.7614754 159.41329,29.7614754 159.41329,29.7614754 L159.41329,26.0532787 C159.41329,25.797541 159.224635,25.6057377 158.973096,25.6057377 Z" id="Shape" fill="#726963"></path>
                <path d="M148.094003,9.65409836 L137.71799,9.65409836 C135.202593,9.65409836 133.158833,11.7319672 133.158833,14.2893443 L133.158833,25.5737705 C133.158833,28.1311475 135.202593,30.2090164 137.71799,30.2090164 L142.214263,30.2090164 L142.214263,32.9262295 C142.214263,33.5336066 141.742626,34.0131148 141.145219,34.0131148 L140.51637,34.0131148 C139.918963,34.0131148 139.447326,33.5336066 139.447326,32.9262295 C139.447326,32.9262295 139.447326,32.9262295 139.447326,32.9262295 L139.447326,32.0631148 C139.447326,31.807377 139.258671,31.6155738 139.007131,31.6155738 L133.599028,31.6155738 C133.347488,31.6155738 133.158833,31.807377 133.158833,32.0631148 L133.158833,33.6934426 C133.158833,36.8901639 134.793841,37.9770492 137.59222,38.6163934 C138.661264,38.8401639 139.730308,38.9360656 140.830794,38.9360656 C141.93128,38.9360656 143.000324,38.8401639 144.069368,38.6163934 C146.867747,37.9770492 148.502755,36.8901639 148.502755,33.6934426 L148.502755,10.1016393 C148.502755,9.87786885 148.3141,9.68606557 148.094003,9.65409836 Z M142.214263,25.6057377 L140.767909,25.6057377 C140.044733,25.6057377 139.447326,24.9983607 139.447326,24.2631148 L139.447326,15.6319672 C139.447326,14.8967213 140.044733,14.2893443 140.767909,14.2893443 L142.214263,14.2893443 L142.214263,25.6057377 Z" id="Shape" fill="#726963"></path>
                <path d="M171.864506,9.62213115 C169.726418,9.17459016 167.525446,9.17459016 165.387358,9.62213115 C162.588979,10.2614754 160.953971,11.3483607 160.953971,14.545082 L160.953971,25.2540984 C160.953971,28.4508197 162.588979,29.5377049 165.387358,30.1770492 C167.525446,30.6245902 169.726418,30.6245902 171.864506,30.1770492 C174.662885,29.5377049 176.297893,28.4508197 176.297893,25.2540984 L176.297893,14.5770492 C176.297893,11.3483607 174.662885,10.2934426 171.864506,9.62213115 Z M170.229498,24.2311475 C170.229498,24.9663934 169.632091,25.5737705 168.908914,25.5737705 L168.374392,25.5737705 C167.651216,25.5737705 167.053809,24.9663934 167.053809,24.2311475 L167.053809,15.6 C167.053809,14.8647541 167.651216,14.257377 168.374392,14.257377 L168.908914,14.257377 C169.632091,14.257377 170.229498,14.8647541 170.229498,15.6 L170.229498,24.2311475 Z" id="Shape" fill="#726963"></path>
                <polygon id="Shape" fill="#6CBE45" points="16.1614263 12.2434426 16.1614263 0.223770492 11.8538088 2.74918033 11.8538088 14.7368852"></polygon>
                <polygon id="Shape" fill="#6CBE45" points="17.7649919 26.9483607 17.7649919 38.9360656 22.0411669 36.442623 22.0411669 24.4229508"></polygon>
                <polygon id="Shape" fill="#6CBE45" points="11.8538088 23.4639344 11.8538088 36.442623 16.1614263 38.9360656 16.1614263 26.0852459 23.6447326 21.6737705 23.6447326 35.4836066 27.9523501 32.9581967 27.9523501 6.20163934 23.6447326 3.67622951 23.6447326 16.5590164"></polygon>
                <polygon id="Shape" fill="#6CBE45" points="10.2502431 3.67622951 5.94262561 6.20163934 5.94262561 32.9581967 10.2502431 35.4836066 10.2502431 22.6327869 22.0411669 15.6959016 22.0411669 2.71721311 17.7649919 0.223770492 17.7649919 13.0745902 10.2502431 17.4860656"></polygon>
                <path d="M4.33905997,7.12868852 L0.723176661,9.2704918 C0.345867099,9.4942623 0.0943273906,9.87786885 0.0628849271,10.3254098 L0.0628849271,28.8344262 C0.0943273906,29.2819672 0.345867099,29.6655738 0.723176661,29.8893443 L4.37050243,32.0311475 L4.33905997,7.12868852 Z" id="Shape" fill="#6CBE45"></path>
                <path d="M29.5559157,32.0311475 L33.2032415,29.8893443 C33.5805511,29.6655738 33.8320908,29.2819672 33.8635332,28.8344262 L33.8635332,10.3254098 C33.8320908,9.87786885 33.5805511,9.4942623 33.2032415,9.2704918 L29.5559157,7.12868852 L29.5559157,32.0311475 Z" id="Shape" fill="#6CBE45"></path>
            </g>
        </g>
    </g>
</svg>