<?xml version="1.0" encoding="UTF-8"?>
<svg width="178px" height="50px" viewBox="0 0 178 50" version="1.1" xmlns="http://www.w3.org/2000/svg" xmlns:xlink="http://www.w3.org/1999/xlink">
    <!-- Generator: Sketch 50 (54983) - http://www.bohemiancoding.com/sketch -->
    <title>ornl logo</title>
    <desc>Created with Sketch.</desc>
    <defs></defs>
    <g id="Design" stroke="none" stroke-width="1" fill="none" fill-rule="evenodd">
        <g id="home" transform="translate(-845.000000, -910.000000)">
            <g id="featured-clients" transform="translate(90.000000, 800.000000)">
                <g id="row-1" transform="translate(60.000000, 110.000000)">
                    <g id="ornl-logo" transform="translate(695.000000, 0.000000)">
                        <path d="M57.8583338,10.6195799 L60.9675443,10.6195799 L60.9675443,3.67574805 L57.8583338,3.67574805 L57.8583338,10.6195799 Z M62.6038102,14.0719399 C62.1695587,14.2156002 61.713938,14.2968322 61.1751303,14.2968322 L57.651511,14.2968322 C57.1127033,14.2968322 56.6570827,14.2156002 56.2419107,14.0719399 C55.703103,13.8884158 55.2688515,13.5815393 54.9154974,13.173875 C54.3972956,12.5405663 54.128655,11.7026732 54.128655,10.620332 L54.128655,3.67574805 C54.128655,2.594159 54.3972956,1.7570181 54.9154974,1.1229572 C55.2688515,0.714540751 55.703103,0.40841645 56.2419107,0.2248923 C56.6570827,0.0819841493 57.1127033,0 57.651511,0 L61.1751303,0 C61.713938,0 62.1695587,0.0819841493 62.6038102,0.2248923 C63.122012,0.40841645 63.5577899,0.714540751 63.9096176,1.1229572 C64.4484253,1.7570181 64.6972232,2.594159 64.6972232,3.67574805 L64.6972232,10.620332 C64.6972232,11.7026732 64.4484253,12.5405663 63.9096176,13.173875 C63.5577899,13.5815393 63.122012,13.8884158 62.6038102,14.0719399 Z" id="Fill-56" fill="#6C6C6C"></path>
                        <path d="M70.3503251,7.35224825 L72.8375409,7.35224825 L72.8375409,3.67574805 L70.3503251,3.67574805 L70.3503251,7.35224825 Z M76.7541997,14.2968322 L72.547531,14.2968322 L70.3923002,10.2119156 L70.3503251,10.2119156 L70.3503251,14.2968322 L66.619883,14.2968322 L66.619883,0 L73.0451268,0 C73.5839345,0 74.038792,0.0819841493 74.453964,0.2248923 C74.9935349,0.40841645 75.4277864,0.714540751 75.7597713,1.1229572 C76.298579,1.7570181 76.5679829,2.594159 76.5679829,3.67574805 L76.5679829,6.53541535 C76.5679829,7.61775655 76.298579,8.4556496 75.7597713,9.08895835 C75.4277864,9.4973748 74.9935349,9.8034991 74.4753331,9.9877754 L76.7541997,14.2968322 Z" id="Fill-58" fill="#6C6C6C"></path>
                        <polygon id="Fill-59" fill="#6C6C6C" points="82.8415532 14.2968322 79.1111111 14.2968322 79.1111111 0 82.4691195 0 85.6401479 6.53541535 85.6401479 0 89.3705899 0 89.3705899 14.2968322 86.0118184 14.2968322 82.8415532 7.76141685"></polygon>
                        <polygon id="Fill-60" fill="#6C6C6C" points="95.3327812 10.620332 99.4783952 10.620332 99.4783952 14.2968322 91.6023392 14.2968322 91.6023392 0 95.3327812 0"></polygon>
                        <polygon id="Fill-61" fill="#6C6C6C" points="57.859097 32.0051655 54.128655 32.0051655 54.128655 17.7083333 63.0403513 17.7083333 63.0403513 21.3848335 57.859097 21.3848335 57.859097 24.2437487 62.6251794 24.2437487 62.6251794 27.5118324 57.859097 27.5118324"></polygon>
                        <polygon id="Fill-62" fill="#6C6C6C" points="73.3459151 32.0051655 64.5380117 32.0051655 64.5380117 17.7083333 73.3459151 17.7083333 73.3459151 21.3848335 68.2684537 21.3848335 68.2684537 23.4276679 72.9322695 23.4276679 72.9322695 26.2865831 68.2684537 26.2865831 68.2684537 28.3286653 73.3459151 28.3286653"></polygon>
                        <path d="M79.717983,28.3286653 L82.2051987,28.3286653 L82.2051987,21.3848335 L79.717983,21.3848335 L79.717983,28.3286653 Z M83.8216219,31.7802732 C83.4072131,31.9231814 82.9508292,32.0051655 82.4127847,32.0051655 L75.9883041,32.0051655 L75.9883041,17.7083333 L82.4127847,17.7083333 C82.9508292,17.7083333 83.4072131,17.7903175 83.8216219,17.9332256 C84.3611927,18.1167498 84.7954443,18.4236262 85.1480352,18.8320427 C85.6662369,19.4645993 85.9356408,20.3024923 85.9356408,21.3848335 L85.9356408,28.5129416 C85.9356408,29.5132987 85.645631,30.2895156 85.1480352,30.8822083 C84.7954443,31.2898726 84.3611927,31.5967491 83.8216219,31.7802732 Z" id="Fill-63" fill="#6C6C6C"></path>
                        <polygon id="Fill-64" fill="#6C6C6C" points="97.2874355 32.0051655 88.4795322 32.0051655 88.4795322 17.7083333 97.2874355 17.7083333 97.2874355 21.3848335 92.2099742 21.3848335 92.2099742 23.4276679 96.87379 23.4276679 96.87379 26.2865831 92.2099742 26.2865831 92.2099742 28.3286653 97.2874355 28.3286653"></polygon>
                        <path d="M102.619331,25.0613337 L105.106547,25.0613337 L105.106547,21.3848335 L102.619331,21.3848335 L102.619331,25.0613337 Z M109.023206,32.0051655 L104.815774,32.0051655 L102.660543,27.9202489 L102.619331,27.9202489 L102.619331,32.0051655 L98.8888889,32.0051655 L98.8888889,17.7083333 L105.313369,17.7083333 C105.852177,17.7083333 106.307798,17.7903175 106.72297,17.9332256 C107.261778,18.1167498 107.696792,18.4236262 108.028777,18.8320427 C108.566822,19.4645993 108.836989,20.3024923 108.836989,21.3848335 L108.836989,24.2437487 C108.836989,25.3260899 108.566822,26.1639829 108.028777,26.7972917 C107.696792,27.2057081 107.261778,27.5118324 106.743576,27.6953566 L109.023206,32.0051655 Z" id="Fill-65" fill="#6C6C6C"></path>
                        <path d="M116.31181,26.8988317 L118.30143,26.8988317 L117.306239,22.3032064 L116.31181,26.8988317 Z M115.19222,32.0051655 L111.380117,32.0051655 L115.254801,17.7083333 L119.35844,17.7083333 L123.233123,32.0051655 L119.398888,32.0051655 L118.922662,29.7577468 L115.689815,29.7577468 L115.19222,32.0051655 Z" id="Fill-66" fill="#6C6C6C"></path>
                        <polygon id="Fill-67" fill="#6C6C6C" points="128.642723 28.3294175 132.788337 28.3294175 132.788337 32.0059177 124.912281 32.0059177 124.912281 17.7083333 128.642723 17.7083333"></polygon>
                        <path d="M54.9162606,48.5905417 C54.3766897,47.9572329 54.128655,47.120092 54.128655,46.0369987 L54.128655,39.0931669 C54.128655,38.0115778 54.3766897,37.1736848 54.9162606,36.540376 C55.2688515,36.1319596 55.7038662,35.8250831 56.2213047,35.641559 C56.6578458,35.4986508 57.1134665,35.4166667 57.651511,35.4166667 L62.9365583,35.4166667 L62.9365583,39.0931669 L57.859097,39.0931669 L57.859097,46.0369987 L62.9365583,46.0369987 L62.9365583,49.7134989 L57.651511,49.7134989 C57.1134665,49.7134989 56.6578458,49.6322669 56.2213047,49.4893587 C55.7038662,49.3050824 55.2688515,48.998206 54.9162606,48.5905417" id="Fill-68" fill="#6C6C6C"></path>
                        <path d="M68.2676906,42.7696671 L70.7549063,42.7696671 L70.7549063,39.0931669 L68.2676906,39.0931669 L68.2676906,42.7696671 Z M74.6715652,49.7134989 L70.4648965,49.7134989 L68.3089025,45.6285822 L68.2676906,45.6285822 L68.2676906,49.7134989 L64.5380117,49.7134989 L64.5380117,35.4166667 L70.9617291,35.4166667 C71.5013,35.4166667 71.9569207,35.4986508 72.3713295,35.641559 C72.9101372,35.8250831 73.3451519,36.1319596 73.6771368,36.5396239 C74.2159445,37.1729326 74.4853484,38.0108257 74.4853484,39.0931669 L74.4853484,41.952082 C74.4853484,43.0344232 74.2159445,43.8723163 73.6771368,44.5048729 C73.3451519,44.9140415 72.9101372,45.2201658 72.3926986,45.4036899 L74.6715652,49.7134989 Z" id="Fill-69" fill="#6C6C6C"></path>
                        <polygon id="Fill-70" fill="#6C6C6C" points="85.8371431 49.7134989 77.0292398 49.7134989 77.0292398 35.4166667 85.8371431 35.4166667 85.8371431 39.0931669 80.7596818 39.0931669 80.7596818 41.1360013 85.4234976 41.1360013 85.4234976 43.9949164 80.7596818 43.9949164 80.7596818 46.0369987 85.8371431 46.0369987"></polygon>
                        <path d="M92.2099742,46.0369987 L94.69719,46.0369987 L94.69719,39.0931669 L92.2099742,39.0931669 L92.2099742,46.0369987 Z M96.3143763,49.4886066 C95.8992043,49.6315147 95.4428205,49.7134989 94.9047759,49.7134989 L88.4795322,49.7134989 L88.4795322,35.4166667 L94.9047759,35.4166667 C95.4428205,35.4166667 95.8992043,35.4986508 96.3143763,35.641559 C96.853184,35.8250831 97.2874355,36.1319596 97.6400264,36.5396239 C98.1582282,37.1729326 98.4283952,38.0108257 98.4283952,39.0931669 L98.4283952,46.221275 C98.4283952,47.221632 98.1376222,47.9978489 97.6400264,48.5897895 C97.2874355,48.998206 96.853184,49.3050824 96.3143763,49.4886066 Z" id="Fill-71" fill="#6C6C6C"></path>
                        <polygon id="Fill-72" fill="#6C6C6C" points="100.97076 49.7134989 104.701202 49.7134989 104.701202 35.4166667 100.97076 35.4166667"></polygon>
                        <polygon id="Fill-73" fill="#6C6C6C" points="116.123538 35.4166667 116.123538 39.0931669 113.015091 39.0931669 113.015091 49.7134989 109.285412 49.7134989 109.285412 39.0931669 106.175439 39.0931669 106.175439 35.4166667"></polygon>
                        <path d="M129.670062,35.4166667 L133.398978,35.4166667 L133.398978,46.0369987 C133.398978,47.120092 133.129574,47.9564808 132.611372,48.5905417 C132.260307,48.998206 131.82453,49.3050824 131.306328,49.4886066 C130.871313,49.6315147 130.415692,49.7134989 129.876885,49.7134989 L126.354029,49.7134989 C125.814458,49.7134989 125.3596,49.6315147 124.923059,49.4886066 C124.405621,49.3050824 123.970606,48.998206 123.618015,48.5905417 C123.099813,47.9564808 122.830409,47.120092 122.830409,46.0369987 L122.830409,35.4166667 L126.560851,35.4166667 L126.560851,46.0369987 L129.670062,46.0369987 L129.670062,35.4166667 Z" id="Fill-74" fill="#6C6C6C"></path>
                        <polygon id="Fill-75" fill="#6C6C6C" points="140.093015 49.7134989 136.362573 49.7134989 136.362573 35.4166667 139.720581 35.4166667 142.89161 41.952082 142.89161 35.4166667 146.622052 35.4166667 146.622052 49.7134989 143.26328 49.7134989 140.093015 43.1780835"></polygon>
                        <polygon id="Fill-76" fill="#6C6C6C" points="148.853801 49.7134989 152.584243 49.7134989 152.584243 35.4166667 148.853801 35.4166667"></polygon>
                        <path d="M158.829094,46.0377508 L161.938305,46.0377508 L161.938305,39.0931669 L158.829094,39.0931669 L158.829094,46.0377508 Z M163.575334,49.4893587 C163.140319,49.6322669 162.684698,49.714251 162.145127,49.714251 L158.622271,49.714251 C158.083464,49.714251 157.627843,49.6322669 157.212671,49.4893587 C156.673863,49.3050824 156.238849,48.9989581 155.886258,48.5905417 C155.368819,47.9572329 155.099415,47.120092 155.099415,46.0369987 L155.099415,39.0931669 C155.099415,38.0108257 155.368819,37.1736848 155.886258,36.540376 C156.238849,36.1319596 156.673863,35.8258353 157.212671,35.6423111 C157.627843,35.4986508 158.083464,35.4166667 158.622271,35.4166667 L162.145127,35.4166667 C162.684698,35.4166667 163.140319,35.4986508 163.575334,35.6423111 C164.092772,35.8258353 164.529313,36.1319596 164.880378,36.540376 C165.419186,37.1736848 165.667983,38.0108257 165.667983,39.0931669 L165.667983,46.0369987 C165.667983,47.120092 165.419186,47.9572329 164.880378,48.5905417 C164.529313,48.9989581 164.092772,49.3050824 163.575334,49.4893587 Z" id="Fill-77" fill="#6C6C6C"></path>
                        <polygon id="Fill-78" fill="#6C6C6C" points="171.321085 49.7134989 167.590643 49.7134989 167.590643 35.4166667 170.948652 35.4166667 174.11968 41.952082 174.11968 35.4166667 177.849359 35.4166667 177.849359 49.7134989 174.491351 49.7134989 171.321085 43.1780835"></polygon>
                        <polygon id="Fill-79" fill="#006EB6" points="49.6298377 48.8821089 0 48.8821089 0 0 14.0425805 0 14.0425805 35.018514 35.6345745 35.018514 35.6345745 0 49.6298377 0"></polygon>
                        <path d="M16.9854762,3.90590539 L18.1294886,3.90590539 L18.1294886,1.35161024 L16.9854762,1.35161024 L16.9854762,3.90590539 Z M18.7308774,5.17553148 C18.5706088,5.22742971 18.4034716,5.25751563 18.2050438,5.25751563 L16.9091579,5.25751563 C16.7107301,5.25751563 16.5435929,5.22742971 16.3909561,5.17553148 C16.1932915,5.10783815 16.033023,4.99426378 15.9040449,4.84458629 C15.7124858,4.61142036 15.6140351,4.30379177 15.6140351,3.90590539 L15.6140351,1.35161024 C15.6140351,0.954476014 15.7124858,0.646095269 15.9040449,0.412929339 C16.033023,0.263251856 16.1932915,0.149677484 16.3909561,0.0827362975 C16.5435929,0.0300859264 16.7107301,0 16.9091579,0 L18.2050438,0 C18.4034716,0 18.5706088,0.0300859264 18.7308774,0.0827362975 C18.9216734,0.149677484 19.0811788,0.263251856 19.21092,0.412929339 C19.4093478,0.646095269 19.5001666,0.954476014 19.5001666,1.35161024 L19.5001666,3.90590539 C19.5001666,4.30379177 19.4093478,4.61142036 19.21092,4.84458629 C19.0811788,4.99426378 18.9216734,5.10783815 18.7308774,5.17553148 Z" id="Fill-80" fill="#006EB6"></path>
                        <path d="M22.1893914,2.70397263 L23.1036855,2.70397263 L23.1036855,1.35161024 L22.1893914,1.35161024 L22.1893914,2.70397263 Z M24.5453396,5.25751563 L22.9983662,5.25751563 L22.2046551,3.75547576 L22.1901546,3.75547576 L22.1901546,5.25751563 L20.8187135,5.25751563 L20.8187135,0 L23.1800039,0 C23.3784317,0 23.5470953,0.0300859264 23.699732,0.0827362975 C23.8973966,0.149677484 24.0576652,0.263251856 24.1790114,0.412929339 C24.3774392,0.646095269 24.476653,0.954476014 24.476653,1.35161024 L24.476653,2.40386552 C24.476653,2.80099974 24.3774392,3.10938049 24.1790114,3.34179427 C24.0576652,3.49297605 23.8973966,3.60504613 23.7073639,3.67349161 L24.5453396,5.25751563 Z" id="Fill-81" fill="#006EB6"></path>
                        <polygon id="Fill-82" fill="#006EB6" points="26.3531341 5.25751563 24.9824561 5.25751563 24.9824561 0 26.215761 0 27.382669 2.40386552 27.382669 0 28.7541101 0 28.7541101 5.25751563 27.5185157 5.25751563 26.3531341 2.85365012"></polygon>
                        <polygon id="Fill-83" fill="#006EB6" points="31.5578125 3.90590539 33.0818904 3.90590539 33.0818904 5.25751563 30.1871345 5.25751563 30.1871345 0 31.5578125 0"></polygon>
                        <polygon id="Fill-84" fill="#006EB6" points="33.2420528 19.2651132 33.2519742 7.29166667 15.6140351 7.29166667 15.6140351 33.1888799 33.2519742 33.1888799 33.2519742 21.2154334 24.2319057 21.2154334 24.2319057 19.2651132"></polygon>
                    </g>
                </g>
            </g>
        </g>
    </g>
</svg>