<?xml version="1.0" encoding="UTF-8"?>
<svg width="29px" height="30px" viewBox="0 0 29 30" version="1.1" xmlns="http://www.w3.org/2000/svg" xmlns:xlink="http://www.w3.org/1999/xlink">
    <!-- Generator: Sketch 50.2 (55047) - http://www.bohemiancoding.com/sketch -->
    <title>arrow_primary</title>
    <desc>Created with Sketch.</desc>
    <defs>
        <radialGradient cx="50%" cy="49.811%" fx="50%" fy="49.811%" r="49.8275%" id="radialGradient-1">
            <stop stop-color="#FFFFFF" offset="0%"></stop>
            <stop stop-color="#EBEBEB" offset="100%"></stop>
        </radialGradient>
        <linearGradient x1="0.621568627%" y1="50.2430233%" x2="100.22549%" y2="50.2430233%" id="linearGradient-2">
            <stop stop-color="#5E4F88" offset="16.28%"></stop>
            <stop stop-color="#64568D" offset="59.34%"></stop>
            <stop stop-color="#5B4D86" offset="71%"></stop>
            <stop stop-color="#443375" offset="90.35%"></stop>
            <stop stop-color="#36246A" offset="100%"></stop>
        </linearGradient>
        <linearGradient x1="49.7895238%" y1="99.2568182%" x2="49.7895238%" y2="-0.0920454545%" id="linearGradient-3">
            <stop stop-color="#5E4F88" offset="16.28%"></stop>
            <stop stop-color="#64568D" offset="59.34%"></stop>
            <stop stop-color="#5B4D86" offset="71%"></stop>
            <stop stop-color="#443375" offset="90.35%"></stop>
            <stop stop-color="#36246A" offset="100%"></stop>
        </linearGradient>
    </defs>
    <g id="Design" stroke="none" stroke-width="1" fill="none" fill-rule="evenodd">
        <g id="digital_wallet" transform="translate(-435.000000, -570.000000)">
            <g id="reverse-button" transform="translate(250.000000, 562.000000)">
                <g id="arrow_primary" transform="translate(184.000000, 8.000000)">
                    <g id="button_lol_so_lil-copy">
                        <g id="Group" transform="translate(1.428571, 0.000000)" fill-rule="nonzero">
                            <path d="M27,14.8571429 C27,22 21.2857143,27.7142857 14.1428571,27.7142857 C7,27.7142857 1.28571429,22 1.28571429,14.8571429 C1.28571429,7.71428571 7,2 14.1428571,2 C21.2857143,2 27,7.71428571 27,14.8571429 Z" id="Shape" fill="#D8DFE1"></path>
                            <path d="M2,14.8571429 C2,8.14285714 7.42857143,2.71428571 14.1428571,2.71428571 C20.8571429,2.71428571 26.2857143,8.14285714 26.2857143,14.8571429 C26.2857143,21.5714286 20.8571429,27 14.1428571,27 C7.42857143,26.8571429 2,21.5714286 2,14.8571429 Z M0.571428571,14.8571429 C0.571428571,22.2857143 6.57142857,28.4285714 14.1428571,28.4285714 C21.7142857,28.4285714 27.7142857,22.4285714 27.7142857,14.8571429 C27.7142857,7.28571429 21.7142857,1.28571429 14.1428571,1.28571429 C6.57142857,1.28571429 0.571428571,7.28571429 0.571428571,14.8571429 Z" id="Shape" fill="#808080"></path>
                            <path d="M0.571428571,14.8571429 C0.571428571,7.42857143 6.57142857,1.28571429 14.1428571,1.28571429 C21.7142857,1.28571429 27.7142857,7.28571429 27.7142857,14.8571429 C27.7142857,22.4285714 21.7142857,28.4285714 14.1428571,28.4285714 C6.57142857,28.4285714 0.571428571,22.2857143 0.571428571,14.8571429 Z M0.428571429,14.8571429 C0.428571429,22.4285714 6.57142857,28.5714286 14.1428571,28.5714286 C21.7142857,28.5714286 27.8571429,22.2857143 27.8571429,14.8571429 C27.8571429,7.42857143 21.7142857,1 14.1428571,1 C6.57142857,1 0.428571429,7.28571429 0.428571429,14.8571429 Z" id="Shape" fill="#333333"></path>
                        </g>
                        <path d="M29.8571429,14.8571429 C29.8571429,22.7142857 23.5714286,29.1428571 15.5714286,29.1428571 C7.71428571,29 1.28571429,22.7142857 1.28571429,14.8571429 C1.28571429,7 7.57142857,0.571428571 15.5714286,0.571428571 C23.4285714,0.571428571 29.8571429,7 29.8571429,14.8571429 Z M2.71428571,14.8571429 C2.71428571,22 8.42857143,27.7142857 15.5714286,27.7142857 C22.7142857,27.7142857 28.4285714,22 28.4285714,14.8571429 C28.4285714,7.71428571 22.7142857,2 15.5714286,2 C8.42857143,2 2.71428571,7.71428571 2.71428571,14.8571429 Z" id="Shape" fill="url(#radialGradient-1)" fill-rule="nonzero"></path>
                        <g id="Group" transform="translate(8.571429, 8.571429)" fill-rule="nonzero">
                            <path d="M8.71428571,12.2857143 L6.71428571,10.2857143 L10.8571429,6.14285714 L6.71428571,2 L8.71428571,3.55271368e-15 L14.7640555,6.42857143 L8.71428571,12.2857143 Z M2.14285714,12.2857143 L0.142857143,10.2857143 L4.28571429,6.14285714 L0.142857143,2 L2.14285714,3.55271368e-15 L8.19262695,6.42857143 L2.14285714,12.2857143 Z" id="Shape" fill="url(#linearGradient-2)"></path>
                            <path d="M0.428571429,2.14285714 L2.14285714,0.428571429 L8,6.28571429 L2.14285714,12.1428571 L0.428571429,10.4285714 L4.42857143,6.42857143 L4.57142857,6.28571429 L4.42857143,6.14285714 L0.428571429,2.14285714 Z M7,2.14285714 L8.71428571,0.428571429 L14.5714286,6.28571429 L8.71428571,12.1428571 L7,10.4285714 L11,6.42857143 L11.1428571,6.28571429 L11,6.14285714 L7,2.14285714 Z M0,2.14285714 L4.14285714,6.28571429 L0,10.4285714 L2.14285714,12.5714286 L8.42857143,6.28571429 L2.14285714,0 L0,2.14285714 Z M6.57142857,2.14285714 L10.7142857,6.28571429 L6.57142857,10.4285714 L8.71428571,12.5714286 L15,6.28571429 L8.71428571,0 L6.57142857,2.14285714 Z" id="Shape" fill="url(#linearGradient-3)"></path>
                            <path d="M0.428571429,2.14285714 L2.14285714,0.428571429 L8,6.28571429 L2.14285714,12.1428571 L0.428571429,10.4285714 L4.42857143,6.42857143 L4.57142857,6.28571429 L4.42857143,6.14285714 L0.428571429,2.14285714 Z M7,2.14285714 L8.71428571,0.428571429 L14.5714286,6.28571429 L8.71428571,12.1428571 L7,10.4285714 L11,6.42857143 L11.1428571,6.28571429 L11,6.14285714 L7,2.14285714 Z M0,2.14285714 L4.14285714,6.28571429 L0,10.4285714 L2.14285714,12.5714286 L8.42857143,6.28571429 L2.14285714,0 L0,2.14285714 Z M6.57142857,2.14285714 L10.7142857,6.28571429 L6.57142857,10.4285714 L8.71428571,12.5714286 L15,6.28571429 L8.71428571,0 L6.57142857,2.14285714 Z" id="Shape" fill="url(#linearGradient-3)"></path>
                        </g>
                    </g>
                </g>
            </g>
        </g>
    </g>
</svg>