<?xml version="1.0" encoding="UTF-8"?>
<svg width="127px" height="37px" viewBox="0 0 127 37" version="1.1" xmlns="http://www.w3.org/2000/svg" xmlns:xlink="http://www.w3.org/1999/xlink">
    <!-- Generator: Sketch 50.2 (55047) - http://www.bohemiancoding.com/sketch -->
    <title>appstore</title>
    <desc>Created with Sketch.</desc>
    <defs></defs>
    <g id="Design" stroke="none" stroke-width="1" fill="none" fill-rule="evenodd">
        <g id="products_sub_quickview" transform="translate(-282.000000, -516.000000)" fill-rule="nonzero">
            <g id="Group-7" transform="translate(234.000000, 435.000000)">
                <g id="DOWNLOAD" transform="translate(39.000000, 72.000000)">
                    <g id="appstore" transform="translate(9.000000, 9.000000)">
                        <path d="M122.296296,37 L4.7037037,37 C2.06962963,37 0,34.965 0,32.375 L0,4.625 C0,2.035 2.06962963,0 4.7037037,0 L122.296296,0 C124.93037,0 127,2.035 127,4.625 L127,32.375 C127,34.8725 124.836296,37 122.296296,37 Z" id="Shape" fill="#000000"></path>
                        <path d="M122.296296,0.74 C124.46,0.74 126.247407,2.4975 126.247407,4.625 L126.247407,32.375 C126.247407,34.5025 124.46,36.26 122.296296,36.26 L4.7037037,36.26 C2.54,36.26 0.752592593,34.5025 0.752592593,32.375 L0.752592593,4.625 C0.752592593,2.4975 2.54,0.74 4.7037037,0.74 L122.296296,0.74 Z M122.296296,0 L4.7037037,0 C2.06962963,0 0,2.035 0,4.625 L0,32.375 C0,34.965 2.06962963,37 4.7037037,37 L122.296296,37 C124.93037,37 127,34.965 127,32.375 L127,4.625 C127,2.1275 124.836296,0 122.296296,0 Z" id="Shape" fill="#A6A6A6"></path>
                        <g id="Group" transform="translate(12.000000, 6.000000)" fill="#FFFFFF">
                            <path d="M16.9376147,12.662069 C16.9376147,9.68275862 19.3706422,8.2862069 19.4642202,8.19310345 C18.0605505,6.14482759 15.9082569,5.86551724 15.159633,5.86551724 C13.3816514,5.67931034 11.6036697,6.98275862 10.6678899,6.98275862 C9.73211009,6.98275862 8.32844037,5.95862069 6.73761468,5.95862069 C4.77247706,5.95862069 2.90091743,7.16896552 1.87155963,8.84482759 C-0.187155963,12.4758621 1.31009174,17.6896552 3.36880734,20.6689655 C4.39816514,22.0655172 5.52110092,23.6482759 7.11192661,23.6482759 C8.60917431,23.5551724 9.1706422,22.7172414 10.9486239,22.7172414 C12.7266055,22.7172414 13.2880734,23.6482759 14.7853211,23.6482759 C16.3761468,23.6482759 17.4055046,22.2517241 18.3412844,20.762069 C19.4642202,19.0862069 19.9321101,17.5034483 20.0256881,17.4103448 C20.0256881,17.4103448 16.9376147,16.2 16.9376147,12.662069 Z M13.9431193,4.00344828 C14.7853211,2.97931034 15.253211,1.67586207 15.159633,0.279310345 C14.0366972,0.372413793 12.5394495,1.11724138 11.6972477,2.04827586 C10.9486239,2.8862069 10.293578,4.28275862 10.4807339,5.67931034 C11.7908257,5.77241379 13.1009174,4.93448276 13.9431193,4.00344828 Z" id="Shape"></path>
                            <path d="M38.5541284,23.3689655 L36.4954128,23.3689655 L35.3724771,19.8310345 L31.3486239,19.8310345 L30.2256881,23.3689655 L28.1669725,23.3689655 L32.1908257,11.1724138 L34.6238532,11.1724138 L38.5541284,23.3689655 Z M34.9981651,18.3413793 L33.9688073,15.1758621 C33.8752294,14.8965517 33.6880734,14.0586207 33.3137615,12.8482759 C33.2201835,13.4068966 33.0330275,14.1517241 32.7522936,15.1758621 L31.7229358,18.3413793 L34.9981651,18.3413793 Z M48.7541284,18.9 C48.7541284,20.3896552 48.3798165,21.6 47.5376147,22.437931 C46.7889908,23.1827586 45.853211,23.5551724 44.8238532,23.5551724 C43.6073394,23.5551724 42.7651376,23.1827586 42.2972477,22.3448276 L42.2972477,27 L40.2385321,27 L40.2385321,17.5034483 C40.2385321,16.5724138 40.2385321,15.6413793 40.1449541,14.6172414 L41.8293578,14.6172414 L41.9229358,16.0137931 C42.5779817,14.9896552 43.6073394,14.4310345 44.9174312,14.4310345 C45.946789,14.4310345 46.7889908,14.8034483 47.5376147,15.6413793 C48.3798165,16.4793103 48.7541284,17.5965517 48.7541284,18.9 Z M46.6954128,18.9931034 C46.6954128,18.1551724 46.5082569,17.4103448 46.133945,16.8517241 C45.666055,16.2931034 45.1045872,16.0137931 44.4495413,16.0137931 C43.9816514,16.0137931 43.5137615,16.2 43.1394495,16.4793103 C42.7651376,16.7586207 42.4844037,17.2241379 42.3908257,17.7827586 C42.2972477,17.9689655 42.2972477,18.1551724 42.2972477,18.3413793 L42.2972477,19.8310345 C42.2972477,20.4827586 42.4844037,21.0413793 42.8587156,21.4137931 C43.2330275,21.8793103 43.7944954,22.0655172 44.3559633,22.0655172 C45.1045872,22.0655172 45.666055,21.7862069 46.040367,21.2275862 C46.5082569,20.6689655 46.6954128,19.9241379 46.6954128,18.9931034 Z M58.8605505,18.9 C58.8605505,20.3896552 58.4862385,21.6 57.6440367,22.437931 C56.8954128,23.1827586 55.959633,23.5551724 54.9302752,23.5551724 C53.7137615,23.5551724 52.8715596,23.1827586 52.4036697,22.3448276 L52.4036697,27 L50.4385321,27 L50.4385321,17.5034483 C50.4385321,16.5724138 50.4385321,15.6413793 50.3449541,14.6172414 L52.0293578,14.6172414 L52.1229358,16.0137931 C52.7779817,14.9896552 53.8073394,14.4310345 55.1174312,14.4310345 C56.146789,14.4310345 56.9889908,14.8034483 57.7376147,15.6413793 C58.5798165,16.4793103 58.8605505,17.5965517 58.8605505,18.9 Z M56.8954128,18.9931034 C56.8954128,18.1551724 56.7082569,17.4103448 56.333945,16.8517241 C55.866055,16.2931034 55.3045872,16.0137931 54.6495413,16.0137931 C54.1816514,16.0137931 53.7137615,16.2 53.3394495,16.4793103 C52.9651376,16.7586207 52.6844037,17.2241379 52.5908257,17.7827586 C52.4036697,17.9689655 52.4036697,18.1551724 52.4036697,18.3413793 L52.4036697,19.8310345 C52.4036697,20.4827586 52.5908257,21.0413793 52.9651376,21.4137931 C53.3394495,21.8793103 53.9009174,22.0655172 54.4623853,22.0655172 C55.2110092,22.0655172 55.7724771,21.7862069 56.146789,21.2275862 C56.7082569,20.6689655 56.8954128,19.9241379 56.8954128,18.9931034 Z M70.2770642,20.0172414 C70.2770642,21.0413793 69.9027523,21.8793103 69.1541284,22.5310345 C68.3119266,23.2758621 67.2825688,23.5551724 65.7853211,23.5551724 C64.4752294,23.5551724 63.4458716,23.2758621 62.6036697,22.8103448 L63.0715596,21.2275862 C63.9137615,21.6931034 64.8495413,21.9724138 65.8788991,21.9724138 C66.6275229,21.9724138 67.1889908,21.7862069 67.5633028,21.5068966 C67.9376147,21.1344828 68.2183486,20.762069 68.2183486,20.2034483 C68.2183486,19.737931 68.0311927,19.2724138 67.7504587,18.9931034 C67.3761468,18.6206897 66.8146789,18.3413793 66.066055,18.062069 C63.9137615,17.2241379 62.8844037,16.1068966 62.8844037,14.5241379 C62.8844037,13.5 63.2587156,12.662069 64.0073394,12.1034483 C64.7559633,11.4517241 65.7853211,11.1724138 67.0018349,11.1724138 C68.1247706,11.1724138 69.0605505,11.3586207 69.8091743,11.7310345 L69.3412844,13.3137931 C68.6862385,12.9413793 67.8440367,12.7551724 67.0018349,12.7551724 C66.346789,12.7551724 65.7853211,12.9413793 65.4110092,13.2206897 C65.1302752,13.5 64.9431193,13.8724138 64.9431193,14.337931 C64.9431193,14.8034483 65.1302752,15.1758621 65.5045872,15.5482759 C65.7853211,15.8275862 66.440367,16.1068966 67.2825688,16.4793103 C68.3119266,16.9448276 69.1541284,17.4103448 69.6220183,17.9689655 C69.9963303,18.4344828 70.2770642,19.1793103 70.2770642,20.0172414 Z M76.733945,16.1068966 L74.5816514,16.1068966 L74.5816514,20.3896552 C74.5816514,21.5068966 74.9559633,21.9724138 75.7045872,21.9724138 C76.0788991,21.9724138 76.359633,21.9724138 76.546789,21.8793103 L76.640367,23.3689655 C76.266055,23.5551724 75.7045872,23.5551724 75.1431193,23.5551724 C74.3944954,23.5551724 73.7394495,23.2758621 73.3651376,22.8103448 C72.8972477,22.3448276 72.7100917,21.5068966 72.7100917,20.4827586 L72.7100917,16.0137931 L71.4,16.0137931 L71.4,14.5241379 L72.7100917,14.5241379 L72.7100917,13.0344828 L74.6752294,12.4758621 L74.6752294,14.7103448 L76.8275229,14.7103448 L76.733945,16.1068966 Z M86.559633,18.9 C86.559633,20.2965517 86.1853211,21.3206897 85.4366972,22.2517241 C84.5944954,23.1827586 83.5651376,23.5551724 82.1614679,23.5551724 C80.8513761,23.5551724 79.8220183,23.0896552 79.0733945,22.2517241 C78.3247706,21.4137931 77.9504587,20.2965517 77.9504587,18.9931034 C77.9504587,17.5965517 78.3247706,16.4793103 79.1669725,15.6413793 C79.9155963,14.8034483 81.0385321,14.337931 82.3486239,14.337931 C83.6587156,14.337931 84.6880734,14.8034483 85.4366972,15.6413793 C86.1853211,16.5724138 86.559633,17.5965517 86.559633,18.9 Z M84.5009174,18.9931034 C84.5009174,18.1551724 84.3137615,17.5034483 83.9394495,16.9448276 C83.5651376,16.2 82.9100917,15.9206897 82.1614679,15.9206897 C81.412844,15.9206897 80.7577982,16.2931034 80.3834862,16.9448276 C80.0091743,17.5034483 79.8220183,18.2482759 79.8220183,19.0862069 C79.8220183,19.9241379 80.0091743,20.5758621 80.3834862,21.1344828 C80.8513761,21.8793103 81.412844,22.1586207 82.1614679,22.1586207 C82.9100917,22.1586207 83.4715596,21.7862069 83.9394495,21.1344828 C84.3137615,20.4827586 84.5009174,19.8310345 84.5009174,18.9931034 Z M92.9229358,16.2931034 C92.7357798,16.2931034 92.5486239,16.2 92.2678899,16.2 C91.612844,16.2 91.0513761,16.4793103 90.6770642,16.9448276 C90.3963303,17.4103448 90.2091743,17.9689655 90.2091743,18.7137931 L90.2091743,23.3689655 L88.2440367,23.3689655 L88.2440367,17.3172414 C88.2440367,16.3862069 88.2440367,15.4551724 88.1504587,14.5241379 L89.8348624,14.5241379 L89.9284404,16.2 L90.0220183,16.2 C90.2091743,15.6413793 90.5834862,15.1758621 90.9577982,14.8034483 C91.3321101,14.5241379 91.893578,14.337931 92.3614679,14.337931 C92.5486239,14.337931 92.7357798,14.337931 92.8293578,14.337931 L92.9229358,16.2931034 Z M101.719266,18.6206897 C101.719266,18.9 101.719266,19.1793103 101.625688,19.5517241 L95.7302752,19.5517241 C95.7302752,20.3896552 96.0110092,21.0413793 96.5724771,21.5068966 C97.040367,21.8793103 97.6954128,22.1586207 98.5376147,22.1586207 C99.3798165,22.1586207 100.222018,22.0655172 100.877064,21.7862069 L101.157798,23.1827586 C100.315596,23.5551724 99.3798165,23.7413793 98.1633028,23.7413793 C96.759633,23.7413793 95.7302752,23.3689655 94.8880734,22.5310345 C94.1394495,21.6931034 93.6715596,20.6689655 93.6715596,19.2724138 C93.6715596,17.9689655 94.0458716,16.8517241 94.7944954,15.9206897 C95.5431193,14.9896552 96.5724771,14.5241379 97.8825688,14.5241379 C99.1926606,14.5241379 100.12844,14.9896552 100.783486,15.9206897 C101.438532,16.5724138 101.719266,17.5034483 101.719266,18.6206897 Z M99.8477064,18.062069 C99.8477064,17.5034483 99.7541284,16.9448276 99.4733945,16.5724138 C99.0990826,16.0137931 98.6311927,15.7344828 97.8825688,15.7344828 C97.2275229,15.7344828 96.759633,16.0137931 96.2917431,16.5724138 C96.0110092,17.037931 95.7302752,17.5034483 95.7302752,18.062069 L99.8477064,18.062069 Z" id="Shape"></path>
                            <path d="M30.787156,6.88965517 C30.2256881,6.88965517 29.7577982,6.88965517 29.3834862,6.79655172 L29.3834862,0.931034483 C29.9449541,0.837931034 30.506422,0.837931034 31.0678899,0.837931034 C33.3137615,0.837931034 34.3431193,1.95517241 34.3431193,3.72413793 C34.3431193,5.77241379 33.1266055,6.88965517 30.787156,6.88965517 Z M31.1614679,1.58275862 C30.8807339,1.58275862 30.6,1.58275862 30.412844,1.67586207 L30.412844,6.14482759 C30.506422,6.14482759 30.787156,6.14482759 31.0678899,6.14482759 C32.5651376,6.14482759 33.4073394,5.30689655 33.4073394,3.72413793 C33.3137615,2.32758621 32.5651376,1.58275862 31.1614679,1.58275862 Z M37.5247706,6.98275862 C36.2146789,6.98275862 35.466055,6.05172414 35.466055,4.74827586 C35.466055,3.44482759 36.3082569,2.42068966 37.6183486,2.42068966 C38.8348624,2.42068966 39.6770642,3.35172414 39.6770642,4.65517241 C39.7706422,6.05172414 38.8348624,6.98275862 37.5247706,6.98275862 Z M37.6183486,3.16551724 C36.9633028,3.16551724 36.4954128,3.81724138 36.4954128,4.74827586 C36.4954128,5.67931034 36.9633028,6.33103448 37.6183486,6.33103448 C38.2733945,6.33103448 38.7412844,5.67931034 38.7412844,4.74827586 C38.7412844,3.81724138 38.2733945,3.16551724 37.6183486,3.16551724 Z M46.9761468,2.5137931 L45.5724771,6.79655172 L44.7302752,6.79655172 L44.1688073,4.93448276 C44.0752294,4.46896552 43.8880734,4.00344828 43.7944954,3.53793103 C43.7009174,4.00344828 43.6073394,4.46896552 43.4201835,4.93448276 L42.8587156,6.79655172 L41.9229358,6.79655172 L40.612844,2.5137931 L41.6422018,2.5137931 L42.1100917,4.56206897 C42.2036697,5.02758621 42.2972477,5.49310345 42.3908257,5.95862069 C42.4844037,5.5862069 42.5779817,5.12068966 42.7651376,4.56206897 L43.4201835,2.5137931 L44.1688073,2.5137931 L44.7302752,4.56206897 C44.9174312,5.02758621 45.0110092,5.49310345 45.1045872,5.95862069 C45.1981651,5.49310345 45.2917431,5.02758621 45.3853211,4.56206897 L45.946789,2.5137931 L46.9761468,2.5137931 Z M51.9357798,6.88965517 L51,6.88965517 L51,4.37586207 C51,3.63103448 50.7192661,3.25862069 50.1577982,3.25862069 C49.5963303,3.25862069 49.2220183,3.72413793 49.2220183,4.28275862 L49.2220183,6.88965517 L48.2862385,6.88965517 L48.2862385,3.72413793 C48.2862385,3.35172414 48.2862385,2.8862069 48.2862385,2.5137931 L49.1284404,2.5137931 L49.1284404,3.16551724 C49.4091743,2.7 49.8770642,2.42068966 50.5321101,2.42068966 C51.4678899,2.42068966 52.0293578,3.07241379 52.0293578,4.28275862 L51.9357798,6.88965517 Z M54.6495413,6.88965517 L53.7137615,6.88965517 L53.7137615,0.55862069 L54.6495413,0.55862069 L54.6495413,6.88965517 Z M58.1119266,6.98275862 C56.8018349,6.98275862 56.053211,6.05172414 56.053211,4.74827586 C56.053211,3.44482759 56.8954128,2.42068966 58.2055046,2.42068966 C59.4220183,2.42068966 60.2642202,3.35172414 60.2642202,4.65517241 C60.3577982,6.05172414 59.4220183,6.98275862 58.1119266,6.98275862 Z M58.2055046,3.16551724 C57.5504587,3.16551724 57.0825688,3.81724138 57.0825688,4.74827586 C57.0825688,5.67931034 57.5504587,6.33103448 58.2055046,6.33103448 C58.8605505,6.33103448 59.3284404,5.67931034 59.3284404,4.74827586 C59.3284404,3.81724138 58.8605505,3.16551724 58.2055046,3.16551724 Z M64.1009174,6.88965517 L64.0073394,6.42413793 C63.7266055,6.79655172 63.2587156,6.98275862 62.6972477,6.98275862 C61.9486239,6.98275862 61.387156,6.42413793 61.387156,5.67931034 C61.387156,4.65517241 62.3229358,4.09655172 63.9137615,4.09655172 L63.9137615,4.00344828 C63.9137615,3.44482759 63.6330275,3.16551724 62.9779817,3.16551724 C62.5100917,3.16551724 62.1357798,3.25862069 61.8550459,3.44482759 L61.7614679,2.79310345 C62.1357798,2.5137931 62.6972477,2.42068966 63.2587156,2.42068966 C64.3816514,2.42068966 64.9431193,2.97931034 64.9431193,4.18965517 L64.9431193,5.77241379 C64.9431193,6.23793103 64.9431193,6.51724138 65.0366972,6.79655172 L64.1009174,6.88965517 Z M64.0073394,4.65517241 C62.9779817,4.65517241 62.4165138,4.93448276 62.4165138,5.49310345 C62.4165138,5.95862069 62.6972477,6.14482759 63.0715596,6.14482759 C63.5394495,6.14482759 64.0073394,5.77241379 64.0073394,5.30689655 L64.0073394,4.65517241 Z M69.6220183,6.88965517 L69.6220183,6.23793103 C69.3412844,6.79655172 68.8733945,7.07586207 68.2183486,7.07586207 C67.1889908,7.07586207 66.440367,6.14482759 66.440367,4.84137931 C66.440367,3.44482759 67.2825688,2.5137931 68.3119266,2.5137931 C68.8733945,2.5137931 69.3412844,2.7 69.5284404,3.07241379 L69.5284404,0.55862069 L70.4642202,0.55862069 L70.4642202,5.67931034 C70.4642202,6.05172414 70.4642202,6.51724138 70.4642202,6.88965517 L69.6220183,6.88965517 Z M69.4348624,4.28275862 C69.4348624,3.72413793 69.0605505,3.16551724 68.4055046,3.16551724 C67.6568807,3.16551724 67.2825688,3.81724138 67.2825688,4.65517241 C67.2825688,5.49310345 67.7504587,6.14482759 68.4055046,6.14482759 C68.9669725,6.14482759 69.4348624,5.5862069 69.4348624,5.02758621 L69.4348624,4.28275862 Z M76.546789,6.98275862 C75.2366972,6.98275862 74.4880734,6.05172414 74.4880734,4.74827586 C74.4880734,3.44482759 75.3302752,2.42068966 76.640367,2.42068966 C77.8568807,2.42068966 78.6990826,3.35172414 78.6990826,4.65517241 C78.6990826,6.05172414 77.8568807,6.98275862 76.546789,6.98275862 Z M76.640367,3.16551724 C75.9853211,3.16551724 75.5174312,3.81724138 75.5174312,4.74827586 C75.5174312,5.67931034 75.9853211,6.33103448 76.640367,6.33103448 C77.2954128,6.33103448 77.7633028,5.67931034 77.7633028,4.74827586 C77.7633028,3.81724138 77.2954128,3.16551724 76.640367,3.16551724 Z M83.9394495,6.88965517 L83.0036697,6.88965517 L83.0036697,4.37586207 C83.0036697,3.63103448 82.7229358,3.25862069 82.1614679,3.25862069 C81.6,3.25862069 81.2256881,3.72413793 81.2256881,4.28275862 L81.2256881,6.88965517 L80.2899083,6.88965517 L80.2899083,3.72413793 C80.2899083,3.35172414 80.2899083,2.8862069 80.2899083,2.5137931 L81.1321101,2.5137931 L81.1321101,3.16551724 C81.412844,2.7 81.8807339,2.42068966 82.5357798,2.42068966 C83.4715596,2.42068966 84.0330275,3.07241379 84.0330275,4.28275862 L84.0330275,6.88965517 L83.9394495,6.88965517 Z M90.3963303,3.25862069 L89.3669725,3.25862069 L89.3669725,5.4 C89.3669725,5.95862069 89.5541284,6.23793103 89.9284404,6.23793103 C90.1155963,6.23793103 90.2091743,6.23793103 90.3963303,6.23793103 L90.3963303,6.98275862 C90.2091743,7.07586207 89.9284404,7.07586207 89.6477064,7.07586207 C88.8990826,7.07586207 88.4311927,6.70344828 88.4311927,5.5862069 L88.4311927,3.44482759 L87.7761468,3.44482759 L87.7761468,2.7 L88.4311927,2.7 L88.4311927,1.86206897 L89.3669725,1.58275862 L89.3669725,2.7 L90.3963303,2.7 L90.3963303,3.25862069 Z M95.5431193,6.88965517 L94.6073394,6.88965517 L94.6073394,4.46896552 C94.6073394,3.72413793 94.3266055,3.25862069 93.7651376,3.25862069 C93.2972477,3.25862069 92.8293578,3.63103448 92.8293578,4.28275862 L92.8293578,6.88965517 L91.893578,6.88965517 L91.893578,0.55862069 L92.8293578,0.55862069 L92.8293578,3.16551724 C93.1100917,2.7 93.5779817,2.42068966 94.1394495,2.42068966 C95.0752294,2.42068966 95.6366972,3.16551724 95.6366972,4.28275862 L95.6366972,6.88965517 L95.5431193,6.88965517 Z M100.783486,4.93448276 L97.8825688,4.93448276 C97.8825688,5.77241379 98.4440367,6.23793103 99.2862385,6.23793103 C99.7541284,6.23793103 100.12844,6.14482759 100.502752,6.05172414 L100.689908,6.70344828 C100.315596,6.88965517 99.7541284,6.98275862 99.1926606,6.98275862 C97.7889908,6.98275862 97.040367,6.14482759 97.040367,4.84137931 C97.040367,3.53793103 97.8825688,2.5137931 99.0990826,2.5137931 C100.222018,2.5137931 100.877064,3.35172414 100.877064,4.56206897 C100.783486,4.65517241 100.783486,4.74827586 100.783486,4.93448276 Z M99.8477064,4.28275862 C99.8477064,3.63103448 99.4733945,3.16551724 98.9119266,3.16551724 C98.3504587,3.16551724 97.8825688,3.63103448 97.8825688,4.28275862 L99.8477064,4.28275862 Z" id="Shape"></path>
                        </g>
                    </g>
                </g>
            </g>
        </g>
    </g>
</svg>