<?xml version="1.0" encoding="UTF-8"?>
<svg width="29px" height="29px" viewBox="0 0 29 29" version="1.1" xmlns="http://www.w3.org/2000/svg" xmlns:xlink="http://www.w3.org/1999/xlink">
    <!-- Generator: Sketch 50 (54983) - http://www.bohemiancoding.com/sketch -->
    <title>arrow-border-icon</title>
    <desc>Created with Sketch.</desc>
    <defs></defs>
    <g id="Design" stroke="none" stroke-width="1" fill="none" fill-rule="evenodd">
        <g id="whykonyfx" transform="translate(-493.000000, -913.000000)">
            <g id="arrow-border-icon" transform="translate(493.000000, 913.000000)">
                <path d="M28,14.25 C28,21.844 21.844,28 14.25,28 C6.656,28 0.5,21.844 0.5,14.25 C0.5,6.656 6.656,0.5 14.25,0.5 C21.844,0.5 28,6.656 28,14.25" id="Fill-1" fill="#FEFEFE"></path>
                <path d="M14.25,1 C6.944,1 1,6.944 1,14.25 C1,21.556 6.944,27.5 14.25,27.5 C21.556,27.5 27.5,21.556 27.5,14.25 C27.5,6.944 21.556,1 14.25,1 M14.25,28.5 C6.393,28.5 0,22.107 0,14.25 C0,6.393 6.393,0 14.25,0 C22.107,0 28.5,6.393 28.5,14.25 C28.5,22.107 22.107,28.5 14.25,28.5" id="Fill-3" fill="#758592"></path>
                <path d="M22.7998,14.4629 C22.8278,14.3949 22.8428,14.3219 22.8438,14.2499 C22.8428,14.2479 22.8438,14.2459 22.8438,14.2449 C22.8438,14.2429 22.8428,14.2419 22.8438,14.2409 C22.8428,14.1669 22.8278,14.0939 22.7998,14.0249 C22.7718,13.9559 22.7298,13.8929 22.6768,13.8399 L17.4748,8.6379 C17.2518,8.4149 16.8898,8.4149 16.6658,8.6379 C16.4428,8.8609 16.4438,9.2239 16.6658,9.4469 L20.8928,13.6729 L6.1238,13.6729 L6.1248,14.8159 L20.8918,14.8159 L17.0888,18.6179 C16.8658,18.8409 16.8658,19.2039 17.0888,19.4269 C17.3128,19.6499 17.6748,19.6499 17.8978,19.4269 L22.6768,14.6489 C22.7298,14.5959 22.7708,14.5329 22.7998,14.4629" id="Fill-5" fill="#758592"></path>
            </g>
        </g>
    </g>
</svg>