<?xml version="1.0" encoding="UTF-8"?>
<svg width="62px" height="62px" viewBox="0 0 62 62" version="1.1" xmlns="http://www.w3.org/2000/svg" xmlns:xlink="http://www.w3.org/1999/xlink">
    <!-- Generator: Sketch 52.6 (67491) - http://www.bohemiancoding.com/sketch -->
    <title>Group 4</title>
    <desc>Created with Sketch.</desc>
    <defs>
        <polygon id="path-1" points="0 0.314697674 33.6776476 0.314697674 33.6776476 33.2093023 0 33.2093023"></polygon>
    </defs>
    <g id="Design" stroke="none" stroke-width="1" fill="none" fill-rule="evenodd">
        <g id="client_story-simple" transform="translate(-990.000000, -481.000000)">
            <g id="Group-4" transform="translate(991.000000, 482.000000)">
                <circle id="Oval-Copy" stroke="#704C9F" stroke-width="1.5" cx="30" cy="30" r="30"></circle>
                <g id="Group-6" transform="translate(13.000000, 12.000000)">
                    <g id="Group-3" transform="translate(0.000000, 0.476000)">
                        <mask id="mask-2" fill="white">
                            <use xlink:href="#path-1"></use>
                        </mask>
                        <g id="Clip-2"></g>
                        <path d="M16.8387429,31.9426047 C8.26912381,31.9426047 1.29669524,25.1323256 1.29669524,16.762 C1.29669524,8.39167442 8.26912381,1.58139535 16.8387429,1.58139535 C25.4083619,1.58139535 32.3807905,8.39167442 32.3807905,16.762 C32.3807905,25.1323256 25.4083619,31.9426047 16.8387429,31.9426047 M16.8387429,0.314697674 C7.55431429,0.314697674 -0.000161904762,7.69348837 -0.000161904762,16.762 C-0.000161904762,25.8305116 7.55431429,33.2093023 16.8387429,33.2093023 C26.1231714,33.2093023 33.6776476,25.8305116 33.6776476,16.762 C33.6776476,7.69348837 26.1231714,0.314697674 16.8387429,0.314697674" id="Fill-1" fill="#FFFFFF" mask="url(#mask-2)"></path>
                    </g>
                    <path d="M24.7727238,10.4925581 L14.818819,21.4294884 L8.82186667,16.743814 C8.54500952,16.524 8.1362,16.5706512 7.91115238,16.8426512 C7.69015238,17.1146512 7.73548571,17.5123721 8.01234286,17.732186 L14.4885333,22.7910698 C14.6091524,22.8835814 14.7524381,22.9302326 14.8932952,22.9302326 C15.0746286,22.9302326 15.2511048,22.8590698 15.3806286,22.7167442 L25.7401048,11.3322791 C25.9805333,11.0697674 25.9546286,10.6712558 25.6866762,10.4395814 C25.4211524,10.2047442 25.0099143,10.2300465 24.7727238,10.4925581" id="Fill-4" fill="#FFFFFF"></path>
                </g>
            </g>
        </g>
    </g>
</svg>