<?xml version="1.0" encoding="UTF-8"?>
<svg width="24px" height="20px" viewBox="0 0 24 20" version="1.1" xmlns="http://www.w3.org/2000/svg" xmlns:xlink="http://www.w3.org/1999/xlink">
    <!-- Generator: Sketch 50.2 (55047) - http://www.bohemiancoding.com/sketch -->
    <title>contact-twitter</title>
    <desc>Created with Sketch.</desc>
    <defs></defs>
    <g id="Design" stroke="none" stroke-width="1" fill="none" fill-rule="evenodd">
        <g id="contact" transform="translate(-836.000000, -562.000000)" fill="#AD95C7">
            <g id="links" transform="translate(490.000000, 284.000000)">
                <g id="Group" transform="translate(249.000000, 275.000000)">
                    <path d="M117.209009,4.5930281 C116.313166,3.61260453 115.032841,3 113.615385,3 C110.898379,3 108.693376,5.26074141 108.693376,8.04886098 C108.693376,8.4448752 108.735669,8.82871424 108.820255,9.19845567 C104.728086,8.98763257 101.100499,6.98000705 98.6705738,3.92146999 C98.2463621,4.66992407 98.0041385,5.53820768 98.0041385,6.46288168 C98.0041385,8.21354651 98.8730676,9.75915543 100.195044,10.6646054 C99.3889141,10.640255 98.6282808,10.4108487 97.9631271,10.0353401 L97.9631271,10.0968569 C97.9631271,12.544071 99.6606146,14.5856589 101.91496,15.0476755 C101.502283,15.1662234 101.066537,15.2258178 100.617334,15.2258178 C100.300136,15.2258178 99.9906283,15.1950594 99.6907324,15.1361059 C100.317438,17.1411682 102.134756,18.6015507 104.289777,18.6406395 C102.605105,19.9952901 100.480843,20.8026978 98.1745922,20.8026978 C97.7772942,20.8026978 97.3844819,20.779629 97,20.7334914 C99.1787307,22.1637564 101.768216,23 104.54802,23 C113.605773,23 118.557258,15.3078402 118.557258,8.63519272 C118.557258,8.41539842 118.553414,8.19624491 118.545083,7.98093621 C119.506929,7.26900772 120.342536,6.38021851 121,5.36775496 C120.118255,5.76889558 119.168585,6.04059466 118.172777,6.16234661 C119.189731,5.53820768 119.970229,4.54881292 120.33805,3.36974144 C119.385817,3.94774278 118.333618,4.3681074 117.209009,4.5930281 Z" id="contact-twitter"></path>
                </g>
            </g>
        </g>
    </g>
</svg>