<?xml version="1.0" encoding="UTF-8"?>
<svg width="19px" height="19px" viewBox="0 0 19 19" version="1.1" xmlns="http://www.w3.org/2000/svg" xmlns:xlink="http://www.w3.org/1999/xlink">
    <!-- Generator: Sketch 50.2 (55047) - http://www.bohemiancoding.com/sketch -->
    <title>contact-facebook</title>
    <desc>Created with Sketch.</desc>
    <defs></defs>
    <g id="Design" stroke="none" stroke-width="1" fill="none" fill-rule="evenodd">
        <g id="contact" transform="translate(-788.000000, -562.000000)" fill="#AD95C7">
            <g id="links" transform="translate(490.000000, 284.000000)">
                <g id="Group" transform="translate(249.000000, 275.000000)">
                    <path d="M68,20.9509425 C68,21.5300719 67.5305767,22 66.9514315,22 L62.1096946,22 L62.1096946,14.6421061 L64.5794721,14.6421061 L64.9495247,11.7749237 L62.1096946,11.7749237 L62.1096946,9.94386032 C62.1096946,9.11372303 62.3405246,8.54804968 63.5309035,8.54804968 L65.049413,8.54753214 L65.049413,5.98259425 C64.7864945,5.94791894 63.8854294,5.8697701 62.8368609,5.8697701 C60.6475988,5.8697701 59.1487565,7.20606341 59.1487565,9.66024733 L59.1487565,11.7749237 L56.6727684,11.7749237 L56.6727684,14.6421061 L59.1487565,14.6421061 L59.1487565,22 L50.0485685,22 C49.4694233,22 49,21.5300719 49,20.9509425 L49,4.04905753 C49,3.46941055 49.4694233,3 50.0485685,3 L66.9514315,3 C67.5305767,3 68,3.46941055 68,4.04905753 L68,20.9509425" id="contact-facebook"></path>
                </g>
            </g>
        </g>
    </g>
</svg>