<?xml version="1.0" encoding="UTF-8"?>
<svg width="12px" height="22px" viewBox="0 0 12 22" version="1.1" xmlns="http://www.w3.org/2000/svg" xmlns:xlink="http://www.w3.org/1999/xlink">
    <!-- Generator: Sketch 50.2 (55047) - http://www.bohemiancoding.com/sketch -->
    <title>Icon Copy</title>
    <desc>Created with Sketch.</desc>
    <defs></defs>
    <g id="Design" stroke="none" stroke-width="1" fill="none" fill-rule="evenodd" opacity="0.8">
        <g id="contact" transform="translate(-682.000000, -461.000000)" fill="#AD95C7">
            <g id="links" transform="translate(490.000000, 284.000000)">
                <path d="M192.354116,188.458015 C191.881961,187.974917 191.881961,187.19175 192.354116,186.708652 L201.659875,177.181162 C201.895648,176.939613 202.278476,176.939613 202.51425,177.181162 L203.368624,178.055843 C203.604398,178.297392 203.604398,178.688975 203.368624,178.930525 L195.34382,187.145681 C195.108047,187.38723 195.108047,187.779436 195.34382,188.020363 L203.368624,196.236142 C203.604398,196.477691 203.604398,196.869275 203.368624,197.110824 L202.51425,197.985505 C202.278476,198.227054 201.895648,198.227054 201.659875,197.985505 L192.354116,188.458015 Z" id="Icon-Copy" transform="translate(197.772727, 187.583333) scale(-1, 1) translate(-197.772727, -187.583333) "></path>
            </g>
        </g>
    </g>
</svg>