<?xml version="1.0" encoding="UTF-8"?>
<svg width="24px" height="22px" viewBox="0 0 24 22" version="1.1" xmlns="http://www.w3.org/2000/svg" xmlns:xlink="http://www.w3.org/1999/xlink">
    <!-- Generator: Sketch 50.2 (55047) - http://www.bohemiancoding.com/sketch -->
    <title>contact-linkedin</title>
    <desc>Created with Sketch.</desc>
    <defs>
        <polygon id="path-1" points="0 0 24 0 24 22 0 22"></polygon>
    </defs>
    <g id="Design" stroke="none" stroke-width="1" fill="none" fill-rule="evenodd">
        <g id="contact" transform="translate(-739.000000, -559.000000)">
            <g id="links" transform="translate(490.000000, 284.000000)">
                <g id="Group" transform="translate(249.000000, 275.000000)">
                    <g id="contact-linkedin">
                        <g>
                            <mask id="mask-2" fill="white">
                                <use xlink:href="#path-1"></use>
                            </mask>
                            <g id="Clip-2"></g>
                            <path d="M24,22 L18.6950187,22 L18.6950187,14.2659567 C18.6950187,12.2414409 17.8665092,10.8600529 16.0409529,10.8600529 C14.6454026,10.8600529 13.8696594,11.7925095 13.5081709,12.6911586 C13.3727112,13.0127225 13.3939752,13.4632264 13.3939752,13.912944 L13.3939752,22 L8.13860996,22 C8.13860996,22 8.20712739,8.30012151 8.13860996,7.05396326 L13.3939752,7.05396326 L13.3939752,9.40004288 C13.7042725,8.37481238 15.3833432,6.91087127 18.0641859,6.91087127 C21.3884623,6.91087127 24,9.06118219 24,13.6896576 L24,22 Z M2.82417799,5.18433279 L2.79031305,5.18433279 C1.09706635,5.18433279 0,4.04195554 0,2.59452505 C0,1.11879065 1.13014373,0 2.85725537,0 C4.58279189,0 5.64441819,1.11643199 5.67828313,2.59059395 C5.67828313,4.03881066 4.58279189,5.18433279 2.82417799,5.18433279 Z M0.604843473,22 L5.28292971,22 L5.28292971,7.05396326 L0.604843473,7.05396326 L0.604843473,22 Z" id="Fill-1" fill="#AD95C7" mask="url(#mask-2)"></path>
                        </g>
                    </g>
                </g>
            </g>
        </g>
    </g>
</svg>