<?xml version="1.0" encoding="UTF-8"?>
<svg width="80px" height="75px" viewBox="0 0 80 75" version="1.1" xmlns="http://www.w3.org/2000/svg" xmlns:xlink="http://www.w3.org/1999/xlink">
    <!-- Generator: Sketch 50 (54983) - http://www.bohemiancoding.com/sketch -->
    <title>Page 1</title>
    <desc>Created with Sketch.</desc>
    <defs>
        <polygon id="path-1" points="0 1.8 80.0213143 1.8 80.0213143 22.1996 0 22.1996"></polygon>
    </defs>
    <g id="Design" stroke="none" stroke-width="1" fill="none" fill-rule="evenodd">
        <g id="products" transform="translate(-679.000000, -927.000000)">
            <g id="Group-13" transform="translate(0.000000, 921.000000)">
                <g id="Group-9" transform="translate(557.000000, 4.000000)">
                    <g id="Page-1" transform="translate(122.000000, 0.000000)">
                        <path d="M2.4112,67.1992 L77.6112,67.1992 C78.6112,67.1992 79.4112,67.9992 79.4112,68.9992 L79.4112,74.4012 C79.4112,75.4012 78.6112,76.1992 77.6112,76.1992 L2.4112,76.1992 C1.4112,76.1992 0.6112,75.4012 0.6112,74.4012 L0.6112,68.9992 C0.6112,67.9992 1.4112,67.1992 2.4112,67.1992" id="Fill-1" fill="#AD95C7"></path>
                        <path d="M7.8106,64.4004 C7.8106,63.0004 9.0106,61.8004 10.4106,61.8004 L69.4106,61.8004 C70.8106,61.8004 72.0106,63.0004 72.0106,64.4004 L72.0106,67.0004 L7.8106,67.0004 L7.8106,64.4004 Z" id="Fill-3" fill="#533279"></path>
                        <path d="M25.6104,33.2002 C24.6104,33.2002 23.8104,34.0002 23.8104,35.0002 L23.8104,54.6002 C23.8104,55.6002 24.6104,56.4002 25.6104,56.4002 L25.6104,58.2002 L14.8104,58.2002 L14.8104,56.4002 C15.8104,56.4002 16.6104,55.6002 16.6104,54.6002 L16.6104,35.0002 C16.6104,34.0002 15.8104,33.2002 14.8104,33.2002 L14.8104,31.4002 L25.6104,31.4002 L25.6104,33.2002 Z M45.4104,33.2002 C44.4104,33.2002 43.6104,34.0002 43.6104,35.0002 L43.6104,54.6002 C43.6104,55.6002 44.4104,56.4002 45.4104,56.4002 L45.4104,58.2002 L34.6104,58.2002 L34.6104,56.4002 C35.6104,56.4002 36.4104,55.6002 36.4104,54.6002 L36.4104,35.0002 C36.4104,34.0002 35.6104,33.2002 34.6104,33.2002 L34.6104,31.4002 L45.4104,31.4002 L45.4104,33.2002 Z M65.0104,33.2002 C64.0104,33.2002 63.2104,34.0002 63.2104,35.0002 L63.2104,54.6002 C63.2104,55.6002 64.0104,56.4002 65.0104,56.4002 L65.0104,58.2002 L54.2104,58.2002 L54.2104,56.4002 C55.2104,56.4002 56.0104,55.6002 56.0104,54.6002 L56.0104,35.0002 C56.0104,34.0002 55.2104,33.2002 54.2104,33.2002 L54.2104,31.4002 L65.0104,31.4002 L65.0104,33.2002 Z" id="Fill-5" fill="#AD95C7"></path>
                        <path d="M7.8106,22.4004 L72.2106,22.4004 L72.2106,25.0004 C72.2106,26.4004 71.0106,27.6004 69.6106,27.6004 L10.4106,27.6004 C9.0106,27.6004 7.8106,26.4004 7.8106,25.0004 L7.8106,22.4004 Z" id="Fill-7" fill="#533279"></path>
                        <g id="Group-11" transform="translate(0.000000, 0.200000)">
                            <mask id="mask-2" fill="white">
                                <use xlink:href="#path-1"></use>
                            </mask>
                            <g id="Clip-10"></g>
                            <path d="M36.8106,2.3996 C38.8106,1.5996 41.2106,1.5996 43.2106,2.3996 L78.2106,19.7996 C80.8106,21.1996 80.6106,22.1996 77.6106,22.1996 L2.4106,22.1996 C-0.5894,22.1996 -0.7894,21.1996 1.8106,19.7996 L36.8106,2.3996 Z" id="Fill-9" fill="#AD95C7" mask="url(#mask-2)"></path>
                        </g>
                    </g>
                </g>
            </g>
        </g>
    </g>
</svg>