<?xml version="1.0" encoding="UTF-8"?>
<svg width="24px" height="24px" viewBox="0 0 24 24" version="1.1" xmlns="http://www.w3.org/2000/svg" xmlns:xlink="http://www.w3.org/1999/xlink">
    <!-- Generator: Sketch 50.2 (55047) - http://www.bohemiancoding.com/sketch -->
    <title>dbx_overview</title>
    <desc>Created with Sketch.</desc>
    <defs></defs>
    <g id="Design" stroke="none" stroke-width="1" fill="none" fill-rule="evenodd">
        <g id="dropdown_menu" transform="translate(-1058.000000, -500.000000)" stroke="#36246A" stroke-width="0.57">
            <g id="dbx_overview" transform="translate(1058.000000, 501.000000)">
                <path d="M15.9,6.6 L8.2,6.6 C7.8,6.6 7.4,6.2 7.4,5.8 L7.4,0.9 C7.4,0.5 7.8,0.1 8.2,0.1 L15.9,0.1 C16.3,0.1 16.7,0.5 16.7,0.9 L16.7,5.7 C16.7,6.2 16.4,6.6 15.9,6.6 Z" id="Shape"></path>
                <path d="M7.3,5.1 L16.7,5.1" id="Shape"></path>
                <g id="Group" transform="translate(0.000000, 14.000000)">
                    <path d="M5.1,8.4 L1.5,8.4 C1.1,8.4 0.7,8 0.7,7.6 L0.7,1.2 C0.7,0.8 1.1,0.4 1.5,0.4 L5.1,0.4 C5.5,0.4 5.9,0.8 5.9,1.2 L5.9,7.6 C5.9,8 5.6,8.4 5.1,8.4 Z" id="Shape"></path>
                    <path d="M0.7,6.6 L5.9,6.6" id="Shape"></path>
                </g>
                <g id="Group" transform="translate(9.000000, 14.000000)">
                    <path d="M4.8,8.4 L1.2,8.4 C0.8,8.4 0.4,8 0.4,7.6 L0.4,1.2 C0.4,0.8 0.8,0.4 1.2,0.4 L4.8,0.4 C5.2,0.4 5.6,0.8 5.6,1.2 L5.6,7.6 C5.6,8 5.2,8.4 4.8,8.4 Z" id="Shape"></path>
                    <path d="M0.3,6.6 L5.5,6.6" id="Shape"></path>
                </g>
                <g id="Group" transform="translate(18.000000, 14.000000)">
                    <path d="M4.5,8.4 L0.9,8.4 C0.5,8.4 0.1,8 0.1,7.6 L0.1,1.2 C0.1,0.8 0.5,0.4 0.9,0.4 L4.5,0.4 C4.9,0.4 5.3,0.8 5.3,1.2 L5.3,7.6 C5.3,8 4.9,8.4 4.5,8.4 Z" id="Shape"></path>
                    <path d="M0,6.6 L5.2,6.6" id="Shape"></path>
                </g>
                <path d="M9.1,7.9 L14.9,7.9" id="Shape" stroke-linecap="round"></path>
                <path d="M12,6.5 L12,7.8" id="Shape"></path>
                <polyline id="Shape" stroke-linecap="round" stroke-linejoin="round" points="3.3 13 3.3 11.4 20.6 11.4 20.6 13"></polyline>
                <path d="M12,9.1 L12,13" id="Shape" stroke-linecap="round"></path>
            </g>
        </g>
    </g>
</svg>