<?xml version="1.0" encoding="UTF-8"?>
<svg width="331px" height="84px" viewBox="0 0 331 84" version="1.1" xmlns="http://www.w3.org/2000/svg" xmlns:xlink="http://www.w3.org/1999/xlink">
    <!-- Generator: Sketch 49.3 (51167) - http://www.bohemiancoding.com/sketch -->
    <title>Page 1</title>
    <desc>Created with Sketch.</desc>
    <defs>
        <polygon id="path-1" points="0 83.8652291 330.969666 83.8652291 330.969666 0.175760108 0 0.175760108"></polygon>
    </defs>
    <g id="Design" stroke="none" stroke-width="1" fill="none" fill-rule="evenodd">
        <g id="thought_leadership" transform="translate(-649.000000, -3372.000000)">
            <g id="Digital-Wallet" transform="translate(-1.000000, 3260.000000)">
                <g id="Page-1" transform="translate(650.000000, 111.121294)">
                    <path d="M0,42.6615283 L6.04097305,42.6615283 L6.04097305,1.16786792 L0,1.16786792 L0,42.6615283 Z M17.6955633,15.6310512 L6.28543127,28.0172318 L18.1844798,42.6615283 L25.3843989,42.6615283 L13.2417844,27.8950027 L25.1390485,15.6310512 L17.6955633,15.6310512 Z" id="Fill-1" fill="#FFFFFF"></path>
                    <g id="Group-33" transform="translate(0.000000, 0.716423)">
                        <path d="M39.3335062,19.4908146 C34.8172744,19.4908146 31.5233337,22.9694372 31.5233337,28.4599332 C31.5233337,33.8906528 34.8172744,37.3701677 39.3335062,37.3701677 C43.9701827,37.3701677 47.2043472,33.8906528 47.2043472,28.4599332 C47.2043472,22.9694372 43.9701827,19.4908146 39.3335062,19.4908146 M39.3335062,14.3045531 C47.4488054,14.3045531 53.3059887,20.0403995 53.3059887,28.4599332 C53.3059887,36.8196906 47.4488054,42.5555369 39.3335062,42.5555369 C31.2788755,42.5555369 25.4208,36.8196906 25.4208,28.4599332 C25.4208,20.0403995 31.2788755,14.3045531 39.3335062,14.3045531" id="Fill-2" fill="#FFFFFF"></path>
                        <path d="M58.4322062,16.6229806 C62.2150633,15.1580156 66.8526321,14.303304 70.819279,14.303304 C77.7140714,14.303304 82.1062898,16.9281073 82.1062898,24.55449 L82.1062898,41.9458189 L76.1268774,41.9458189 L76.1268774,25.1040749 C76.1268774,21.1980965 73.6876482,19.7964765 70.3294704,19.7964765 C68.1953679,19.7964765 66.0594811,20.1016032 64.4731792,20.5896275 L64.4731792,41.9458189 L58.4322062,41.9458189 L58.4322062,16.6229806 Z" id="Fill-4" fill="#FFFFFF"></path>
                        <polygon id="Fill-6" fill="#FFFFFF" points="98.3561593 36.2100617 105.921874 14.9145388 112.146636 14.9145388 97.5023399 52.9286844 91.583596 52.9286844 95.3673453 43.1646305 84.1998871 14.9145388 90.6682159 14.9145388"></polygon>
                        <path d="M165.67808,20.5921256 C165.67808,32.894441 158.030285,39.6696809 144.143452,39.6696809 C142.475069,39.6696809 140.870031,39.5760016 138.982171,39.3672307 L138.982171,3.19276712 C140.633603,3.06518491 141.81753,3.01522264 143.12101,3.01522264 C150.602859,3.01522264 156.343166,4.61044636 160.183123,7.75896119 C163.829476,10.7477752 165.67808,15.0659423 165.67808,20.5921256 M162.705325,5.95139784 C158.352363,2.16497197 151.762697,0.244101348 143.12101,0.244101348 C140.970848,0.244101348 138.661878,0.382389757 136.259228,0.655397844 L135.938042,0.691977358 L135.938042,41.8528534 L136.254767,41.8930016 C138.888492,42.2213251 141.237611,42.4408022 144.143452,42.4408022 C159.763797,42.4408022 168.722209,34.4771741 168.722209,20.5921256 C168.722209,14.3504113 166.697845,9.42466739 162.705325,5.95139784" id="Fill-8" fill="#FFFFFF"></path>
                        <path d="M174.762825,22.4549151 L178.833858,22.4549151 C184.830222,22.4549151 191.977502,23.9064973 191.977502,30.8235943 C191.977502,36.8592143 187.952863,39.6695916 179.311176,39.6695916 C177.836397,39.6695916 176.160877,39.5384407 174.762825,39.3153949 L174.762825,22.4549151 Z M178.766052,19.684686 L174.762825,19.684686 L174.762825,3.12397978 C176.352696,3.00353504 177.719521,2.94643531 179.038168,2.94643531 C186.628863,2.94643531 190.47685,5.62476954 190.47685,10.9064946 C190.47685,16.4844245 186.208645,19.684686 178.766052,19.684686 Z M185.96151,20.838279 C190.663316,19.4687776 193.589677,15.7546186 193.589677,10.9064946 C193.589677,3.78597978 188.693375,0.176206199 179.038168,0.176206199 C177.310009,0.176206199 174.825278,0.346613208 172.040774,0.655308625 L171.718696,0.690995957 L171.718696,41.6921712 L172.007763,41.7510553 C174.312273,42.2256968 177.042354,42.5094111 179.311176,42.5094111 C184.523311,42.5094111 188.524753,41.4566348 191.205763,39.3805243 C193.782389,37.3847102 195.089437,34.5056348 195.089437,30.8235943 C195.089437,25.6346563 191.577804,21.8839178 185.96151,20.838279 Z" id="Fill-10" fill="#FFFFFF"></path>
                        <polygon id="Fill-12" fill="#FFFFFF" points="212.582207 20.1377367 198.672178 0.272383558 195.040099 0.272383558 208.950129 20.1377367 193.326215 42.4503485 196.957401 42.4503485"></polygon>
                        <polygon id="Fill-14" fill="#FFFFFF" points="213.335388 0.296650943 202.411496 0.296650943 216.293868 20.122748 200.687798 42.4103787 211.5992 42.4103787 221.755814 27.9043706 223.572299 30.4979474 223.565162 30.5068693 231.90083 42.4103787 242.82383 42.4103787"></polygon>
                        <polygon id="Fill-16" fill="#FFFFFF" points="241.097188 0.296650943 230.176865 0.296650943 223.573816 9.73148922 229.032194 17.5273868"></polygon>
                        <path d="M138.158954,74.5147022 C139.101992,74.6324704 140.004881,74.6717264 140.869407,74.6717264 C147.548291,74.6717264 152.26348,71.3322844 152.26348,64.2206914 C152.26348,58.7203814 148.767013,54.8697183 140.43759,54.8697183 C139.690833,54.8697183 138.984223,54.9089744 138.158954,54.9874865 L138.158954,74.5147022 Z M135.723294,52.9836429 C137.451453,52.7873625 139.062736,52.6704865 140.516102,52.6704865 C151.202674,52.6704865 154.816908,58.2100526 154.816908,64.1814353 C154.816908,70.7425512 151.006393,76.7933383 140.830151,76.7933383 C138.865563,76.7933383 137.37294,76.636314 135.723294,76.4391415 L135.723294,52.9836429 Z" id="Fill-18" fill="#FFFFFF"></path>
                        <mask id="mask-2" fill="white">
                            <use xlink:href="#path-1"></use>
                        </mask>
                        <g id="Clip-21"></g>
                        <path d="M159.530402,76.4003315 L161.88755,76.4003315 L161.88755,59.2704124 L159.530402,59.2704124 L159.530402,76.4003315 Z M158.940668,53.9271267 C158.940668,52.9448329 159.765938,52.1588194 160.708976,52.1588194 C161.690377,52.1588194 162.476391,52.9448329 162.476391,53.9271267 C162.476391,54.8701644 161.690377,55.695434 160.708976,55.695434 C159.765938,55.695434 158.940668,54.8701644 158.940668,53.9271267 Z" id="Fill-20" fill="#FFFFFF" mask="url(#mask-2)"></path>
                        <path d="M179.566162,61.5493162 C178.623124,61.2343755 177.562318,61.0389873 176.344488,61.0389873 C171.590935,61.0389873 168.840334,63.5531598 168.840334,67.7571275 C168.840334,71.8816908 171.590935,74.4752677 176.030439,74.4752677 C177.44455,74.4752677 178.387588,74.2397313 179.566162,73.8070224 L179.566162,61.5493162 Z M179.566162,75.810866 C178.977321,76.2043189 177.405294,76.5576235 176.030439,76.5576235 C170.412361,76.5576235 166.483186,73.6116342 166.483186,67.7571275 C166.483186,62.2166693 170.332957,58.8772272 176.344488,58.8772272 C178.112795,58.8772272 180.469943,59.3491922 181.924202,59.9772892 L181.924202,76.5968795 C181.924202,81.822397 177.995027,83.8654968 174.065852,83.8654968 C171.983496,83.8654968 170.018908,83.3935318 168.761822,82.8046908 L168.761822,80.5644186 C170.254445,81.2719199 172.219032,81.8616531 174.065852,81.8616531 C176.894965,81.8616531 179.566162,80.4867987 179.566162,76.1650628 L179.566162,75.810866 Z" id="Fill-22" fill="#FFFFFF" mask="url(#mask-2)"></path>
                        <path d="M187.815288,76.4003315 L190.172437,76.4003315 L190.172437,59.2704124 L187.815288,59.2704124 L187.815288,76.4003315 Z M187.225555,53.9271267 C187.225555,52.9448329 188.050825,52.1588194 188.993863,52.1588194 C189.976156,52.1588194 190.76217,52.9448329 190.76217,53.9271267 C190.76217,54.8701644 189.976156,55.695434 188.993863,55.695434 C188.050825,55.695434 187.225555,54.8701644 187.225555,53.9271267 Z" id="Fill-23" fill="#FFFFFF" mask="url(#mask-2)"></path>
                        <path d="M193.707802,59.2700555 L196.339743,59.2700555 L196.339743,55.1053439 L198.697783,55.1053439 L198.697783,59.2700555 L203.529848,59.2700555 L203.529848,61.2738992 L198.697783,61.2738992 L198.697783,71.7249342 C198.697783,73.9250582 199.562309,74.7895838 201.1727,74.7895838 C202.272762,74.7895838 203.176543,74.4362792 204.355118,73.8465461 L204.355118,75.9289019 C203.333568,76.4392307 202.154994,76.7934275 200.661479,76.7934275 C198.186562,76.7934275 196.339743,75.496193 196.339743,71.9613628 L196.339743,61.2738992 L193.707802,61.2738992 L193.707802,59.2700555 Z" id="Fill-24" fill="#FFFFFF" mask="url(#mask-2)"></path>
                        <path d="M217.358064,68.4245698 L215.590649,68.4245698 C212.054035,68.4245698 209.46135,69.3676075 209.46135,71.6462437 C209.46135,73.9248798 211.818498,74.7501493 214.96166,74.7501493 C215.668269,74.7501493 216.533687,74.6716372 217.358064,74.5146129 L217.358064,68.4245698 Z M217.358064,64.4177747 C217.358064,62.2167585 215.943954,61.0783326 213.74383,61.0783326 C211.779242,61.0783326 210.28662,61.6279175 208.714593,62.4531871 L208.714593,60.213807 C210.167959,59.4277935 212.014779,58.8773164 214.018622,58.8773164 C217.475833,58.8773164 219.716105,60.4100873 219.716105,64.2598582 L219.716105,76.0857477 C218.144078,76.5184566 216.297258,76.7147369 214.843892,76.7147369 C210.207215,76.7147369 207.10331,75.2613704 207.10331,71.6462437 C207.10331,68.2675456 210.207215,66.5001305 215.432733,66.5001305 L217.358064,66.5001305 L217.358064,64.4177747 Z" id="Fill-25" fill="#FFFFFF" mask="url(#mask-2)"></path>
                        <polygon id="Fill-26" fill="#FFFFFF" mask="url(#mask-2)" points="225.331596 76.4003315 227.688744 76.4003315 227.688744 49.683903 225.331596 49.683903"></polygon>
                        <polygon id="Fill-27" fill="#FFFFFF" mask="url(#mask-2)" points="254.561394 53.0631364 259.746763 74.1605946 265.247965 53.0631364 267.64437 53.0631364 261.31879 76.3999747 258.097116 76.3999747 253.067879 55.8521013 248.038642 76.3999747 244.81786 76.3999747 238.492281 53.0631364 241.006453 53.0631364 246.467507 74.1605946 251.693025 53.0631364"></polygon>
                        <path d="M279.467582,68.4245698 L277.700167,68.4245698 C274.163553,68.4245698 271.570868,69.3676075 271.570868,71.6462437 C271.570868,73.9248798 273.928016,74.7501493 277.071178,74.7501493 C277.777787,74.7501493 278.643205,74.6716372 279.467582,74.5146129 L279.467582,68.4245698 Z M279.467582,64.4177747 C279.467582,62.2167585 278.053472,61.0783326 275.853348,61.0783326 C273.88876,61.0783326 272.396138,61.6279175 270.824111,62.4531871 L270.824111,60.213807 C272.277477,59.4277935 274.124297,58.8773164 276.12814,58.8773164 C279.585351,58.8773164 281.825623,60.4100873 281.825623,64.2598582 L281.825623,76.0857477 C280.253596,76.5184566 278.406777,76.7147369 276.95341,76.7147369 C272.316733,76.7147369 269.212828,75.2613704 269.212828,71.6462437 C269.212828,68.2675456 272.316733,66.5001305 277.542251,66.5001305 L279.467582,66.5001305 L279.467582,64.4177747 Z" id="Fill-28" fill="#FFFFFF" mask="url(#mask-2)"></path>
                        <polygon id="Fill-29" fill="#FFFFFF" mask="url(#mask-2)" points="287.440935 76.4003315 289.798976 76.4003315 289.798976 49.683903 287.440935 49.683903"></polygon>
                        <polygon id="Fill-30" fill="#FFFFFF" mask="url(#mask-2)" points="295.690954 76.4003315 298.048102 76.4003315 298.048102 49.683903 295.690954 49.683903"></polygon>
                        <path d="M315.609749,65.9884633 C315.452725,62.4134849 313.527393,60.9592261 310.659024,60.9592261 C307.987827,60.9592261 305.826959,62.7676817 305.158714,65.9884633 L315.609749,65.9884633 Z M305.00169,67.9530509 L305.00169,68.0315631 C305.00169,72.2355307 308.027083,74.7104472 311.366525,74.7104472 C313.803078,74.7104472 315.491981,74.0823501 317.221032,72.7860078 L317.221032,75.1431561 C315.688261,76.2824741 313.488137,76.792803 311.366525,76.792803 C306.4158,76.792803 302.644542,73.4141049 302.644542,67.8352827 C302.644542,62.6891695 306.181156,58.8768704 310.777684,58.8768704 C315.09942,58.8768704 317.967789,61.4713394 317.967789,66.3417679 L317.967789,67.9530509 L305.00169,67.9530509 Z" id="Fill-31" fill="#FFFFFF" mask="url(#mask-2)"></path>
                        <path d="M320.32244,59.2700555 L322.95438,59.2700555 L322.95438,55.1053439 L325.312421,55.1053439 L325.312421,59.2700555 L330.144485,59.2700555 L330.144485,61.2738992 L325.312421,61.2738992 L325.312421,71.7249342 C325.312421,73.9250582 326.176946,74.7895838 327.786445,74.7895838 C328.887399,74.7895838 329.790289,74.4362792 330.969755,73.8465461 L330.969755,75.9289019 C329.948205,76.4392307 328.769631,76.7934275 327.276116,76.7934275 C324.8012,76.7934275 322.95438,75.496193 322.95438,71.9613628 L322.95438,61.2738992 L320.32244,61.2738992 L320.32244,59.2700555 Z" id="Fill-32" fill="#FFFFFF" mask="url(#mask-2)"></path>
                    </g>
                </g>
            </g>
        </g>
    </g>
</svg>