<?xml version="1.0" encoding="UTF-8"?>
<svg width="19px" height="18px" viewBox="0 0 19 18" version="1.1" xmlns="http://www.w3.org/2000/svg" xmlns:xlink="http://www.w3.org/1999/xlink">
    <!-- Generator: Sketch 50.2 (55047) - http://www.bohemiancoding.com/sketch -->
    <title>Fill 1</title>
    <desc>Created with Sketch.</desc>
    <defs></defs>
    <g id="Design" stroke="none" stroke-width="1" fill="none" fill-rule="evenodd">
        <g id="retail_banking" transform="translate(-627.000000, -1348.000000)" fill="#704C9F">
            <g id="download" transform="translate(627.000000, 1346.000000)">
                <path d="M17.9791436,14.6524875 C17.9791436,14.3772887 18.2040394,14.1609025 18.4864403,14.1609025 C18.7688412,14.1609025 19,14.3772887 19,14.6524875 L19,19.5012021 C19,19.7741816 18.7688412,20 18.4864403,20 L0.507296755,20 C0.224895868,20 0,19.7741816 0,19.5012021 L0,14.6524875 C0,14.3772887 0.224895868,14.1609025 0.507296755,14.1609025 C0.787420215,14.1609025 1.01857901,14.3772887 1.01857901,14.6524875 L1.01857901,19.0073978 L17.9791436,19.0073978 L17.9791436,14.6524875 Z M14.3870726,11.4189014 C14.5897636,11.2219345 14.5897636,10.9123359 14.3870726,10.7148141 C14.1917833,10.5172924 13.8666807,10.5172924 13.6713913,10.7148141 L10.0058734,14.2801923 L10.0058734,2.50046236 C10.0058734,2.22581838 9.78154685,2 9.50142339,2 C9.21845315,2 8.98729436,2.22581838 8.98729436,2.50046236 L8.98729436,14.2801923 L5.32860867,10.7148141 C5.12648707,10.5172924 4.80195379,10.5172924 4.60609511,10.7148141 C4.40340415,10.9123359 4.40340415,11.2219345 4.60609511,11.4189014 L9.13874322,15.8365082 C9.3346019,16.0273719 9.65913518,16.0273719 9.86125678,15.8365082 L14.3870726,11.4189014 Z" id="Fill-1"></path>
            </g>
        </g>
    </g>
</svg>