<?xml version="1.0" encoding="UTF-8"?>
<svg width="5px" height="10px" viewBox="0 0 5 10" version="1.1" xmlns="http://www.w3.org/2000/svg" xmlns:xlink="http://www.w3.org/1999/xlink">
    <!-- Generator: Sketch 50.2 (55047) - http://www.bohemiancoding.com/sketch -->
    <title>facebook-small</title>
    <desc>Created with Sketch.</desc>
    <defs></defs>
    <g id="Design" stroke="none" stroke-width="1" fill="none" fill-rule="evenodd">
        <g id="thought_leadership" transform="translate(-140.000000, -989.000000)" fill="#704C9F">
            <g id="share" transform="translate(-66.000000, 841.000000)">
                <g id="social-sidebar" transform="translate(0.000000, 148.000000)">
                    <path d="M206,3.28416291 L207.071037,3.28416291 L207.071037,2.28636124 C207.071037,1.84672129 207.082612,1.16770237 207.416474,0.747913367 C207.767394,0.303018764 208.249909,0 209.079079,0 C210.430364,0 211,0.185080825 211,0.185080825 L210.731936,1.70601316 C210.731936,1.70601316 210.285366,1.58223671 209.869258,1.58223671 C209.452541,1.58223671 209.079079,1.72528025 209.079079,2.12463446 L209.079079,3.28416291 L210.787377,3.28416291 L210.668576,4.76948032 L209.079079,4.76948032 L209.079079,9.93072479 L207.071037,9.93072479 L207.071037,4.76948032 L206,4.76948032 L206,3.28416291 Z" id="facebook-small"></path>
                </g>
            </g>
        </g>
    </g>
</svg>