<?xml version="1.0" encoding="UTF-8"?>
<svg width="62px" height="62px" viewBox="0 0 62 62" version="1.1" xmlns="http://www.w3.org/2000/svg" xmlns:xlink="http://www.w3.org/1999/xlink">
    <!-- Generator: Sketch 52.6 (67491) - http://www.bohemiancoding.com/sketch -->
    <title>Group 4</title>
    <desc>Created with Sketch.</desc>
    <g id="Design" stroke="none" stroke-width="1" fill="none" fill-rule="evenodd">
        <g id="client_story-simple" transform="translate(-990.000000, -366.000000)">
            <g id="Group-4" transform="translate(991.000000, 367.000000)">
                <circle id="Oval" stroke="#704C9F" stroke-width="1.5" cx="30" cy="30" r="30"></circle>
                <path d="M41.8131643,39.4865397 C40.6039726,38.9393612 39.3500444,38.4962412 38.0650946,38.1629489 C38.7926342,35.8512365 39.1800239,33.4459149 39.2148553,31.0223068 L39.2148553,31.0432056 L44.9271948,31.0432056 C44.819653,34.1185951 43.7282348,37.0778438 41.8131643,39.4865397 Z M34.3316105,44.4323721 C35.8669106,42.9841503 37.0306038,41.1872887 37.7241829,39.1939565 C38.8776444,39.4738045 40.0069417,39.8441052 41.1027138,40.301593 C39.2752659,42.2833873 36.9294841,43.7141934 34.3316105,44.4323721 Z M31.0223068,44.9064048 L31.0223068,38.3581132 C32.934003,38.3815155 34.8392772,38.5821223 36.7138563,38.9572122 C35.4111643,42.3424918 33.3629727,44.6066376 31.0223068,44.9064048 Z M31.0223068,31.0432056 L38.1629489,31.0432056 C38.1361723,33.4064031 37.7653274,35.7533822 37.0621697,38.0094733 C35.075695,37.585946 33.0534092,37.352576 31.0223068,37.3129554 L31.0223068,31.0432056 Z M31.0223068,23.6870446 C33.0517765,23.66103 35.0743888,23.4421368 37.0621697,23.0322155 C37.7653274,25.2883066 38.1361723,27.6352857 38.1629489,29.9984832 L31.0223068,29.9984832 L31.0223068,23.6870446 Z M31.0223068,16.0935952 C33.3629727,16.3933624 35.4111643,18.6642568 36.7138563,22.0360392 C34.8397126,22.4130884 32.9344384,22.615981 31.0223068,22.6418868 L31.0223068,16.0935952 Z M41.095421,20.7051555 C40.0001931,21.1626434 38.8704604,21.5330529 37.71689,21.8132275 C37.0263588,19.8178272 35.865169,18.0183532 34.3316105,16.5671925 C36.9277425,17.2887455 39.2710208,18.722055 41.095421,20.7051555 Z M41.8131643,21.555149 C43.7282348,23.9638449 44.819653,26.9230937 44.9271948,29.9984832 L39.2148553,29.9984832 C39.1833982,27.5634461 38.7960084,25.14626 38.0650946,22.8230098 C39.3483029,22.5075684 40.602231,22.0831704 41.8131643,21.555149 Z M29.9776932,22.6418868 C28.065997,22.6184845 26.1607228,22.4177689 24.2860348,22.0427878 C25.5888357,18.6575082 27.6370273,16.3933624 29.9776932,16.0935952 L29.9776932,22.6418868 Z M29.9776932,29.956359 L22.8370511,29.956359 C22.8638277,27.5931615 23.2345638,25.2466178 23.9378303,22.9900913 C25.924305,23.414054 27.9464819,23.647424 29.9776932,23.6870446 L29.9776932,29.956359 Z M29.9776932,37.2712666 C27.9482235,37.2968459 25.9256112,37.5161745 23.9378303,37.9260958 C23.2405504,35.6895973 22.8698144,33.3647143 22.8370511,31.0223068 L22.8370511,31.0015168 L29.9776932,31.0015168 L29.9776932,37.2712666 Z M29.9776932,44.9064048 C27.6370273,44.6066376 25.5888357,42.3357432 24.2860348,38.9639608 C26.1602874,38.5868027 28.0655616,38.3835836 29.9776932,38.3581132 L29.9776932,44.9064048 Z M19.8972862,40.2944091 L19.8972862,40.2527203 C20.9926229,39.7956679 22.1223556,39.4253672 23.2758171,39.1450838 C23.9625388,41.156267 25.1266674,42.9705443 26.6683895,44.4323721 C24.0696451,43.7120165 21.7238633,42.2787069 19.8972862,40.2944091 Z M19.1868357,39.4308096 C17.2717652,37.0221137 16.180347,34.0628649 16.0726964,30.9874755 L21.7851447,31.0015168 C21.8179079,33.4318735 22.2051889,35.8443791 22.93447,38.1629489 C21.6515883,38.4783902 20.397769,38.9027883 19.1868357,39.4308096 Z M19.1868357,21.5134603 C20.3960274,22.0606388 21.6499556,22.5033234 22.93447,22.8370511 C22.2073658,25.1487635 21.8199761,27.5540851 21.7851447,29.9776932 L21.7851447,29.956359 L16.0726964,29.956359 C16.180347,26.8814049 17.2717652,23.9217208 19.1868357,21.5134603 Z M26.6683895,16.5671925 C25.1339602,18.0137816 23.9701581,19.8080309 23.2758171,21.7991861 C22.1223556,21.5190115 20.9926229,21.148602 19.8972862,20.6915495 C21.7256049,18.7122587 24.0709513,17.2836296 26.6683895,16.5671925 Z M30.4997279,15 C21.9394911,15 15,21.9394911 15,30.4997279 C15,39.0605089 21.9394911,46 30.4997279,46 C39.0605089,46 46,39.0605089 46,30.4997279 C45.9884621,21.9441715 39.0553931,15.011429 30.4997279,15 Z" id="Fill-1" fill="#FFFFFF"></path>
            </g>
        </g>
    </g>
</svg>