<?xml version="1.0" encoding="UTF-8"?>
<svg width="16px" height="10px" viewBox="0 0 16 10" version="1.1" xmlns="http://www.w3.org/2000/svg" xmlns:xlink="http://www.w3.org/1999/xlink">
    <!-- Generator: Sketch 50.2 (55047) - http://www.bohemiancoding.com/sketch -->
    <title>Fill 1</title>
    <desc>Created with Sketch.</desc>
    <defs></defs>
    <g id="Design" stroke="none" stroke-width="1" fill="none" fill-rule="evenodd">
        <g id="thought_leadership" transform="translate(-163.000000, -991.000000)" fill="#704C9F">
            <g id="share" transform="translate(-66.000000, 841.000000)">
                <g id="social-sidebar" transform="translate(0.000000, 71.000000)">
                    <path d="M242.633659,82.998634 L242.633659,81.3122934 L241.429633,81.3122934 L241.429633,82.998634 L239.694709,82.998634 L239.694709,84.2026601 L241.429633,84.2026601 L241.429633,85.9375842 L242.633659,85.9375842 L242.633659,84.2026601 L244.32,84.2026601 L244.32,82.998634 L242.633659,82.998634 Z M233.866096,82.9021711 L233.866096,84.8293169 C233.866096,84.8293169 235.735505,84.8272046 236.496647,84.8272046 C236.084039,86.0762936 235.4433,86.7564628 233.866096,86.7564628 C232.269177,86.7564628 231.023609,85.4623107 231.023609,83.8653919 C231.023609,82.2691772 232.269177,80.9750252 233.866096,80.9750252 C234.709618,80.9750252 235.255303,81.2721592 235.754516,81.685471 C236.155154,81.2848331 236.121357,81.2278003 237.140202,80.2666918 C236.275556,79.4794981 235.126451,79 233.866096,79 C231.178513,79 229,81.1785127 229,83.8653919 C229,86.5529753 231.178513,88.731488 233.866096,88.731488 C237.882333,88.731488 238.86386,85.2341795 238.538562,82.9021711 L233.866096,82.9021711 Z" id="Fill-1"></path>
                </g>
            </g>
        </g>
    </g>
</svg>