<?xml version="1.0" encoding="UTF-8"?>
<svg width="128px" height="38px" viewBox="0 0 128 38" version="1.1" xmlns="http://www.w3.org/2000/svg" xmlns:xlink="http://www.w3.org/1999/xlink">
    <!-- Generator: Sketch 50.2 (55047) - http://www.bohemiancoding.com/sketch -->
    <title>google</title>
    <desc>Created with Sketch.</desc>
    <defs>
        <linearGradient x1="91.5361538%" y1="4.8388%" x2="-37.5592308%" y2="71.9684%" id="linearGradient-1">
            <stop stop-color="#00A0FF" offset="0%"></stop>
            <stop stop-color="#00A1FF" offset="0.657445%"></stop>
            <stop stop-color="#00BEFF" offset="26.01%"></stop>
            <stop stop-color="#00D2FF" offset="51.22%"></stop>
            <stop stop-color="#00DFFF" offset="76.04%"></stop>
            <stop stop-color="#00E3FF" offset="100%"></stop>
        </linearGradient>
        <linearGradient x1="107.728079%" y1="49.4282353%" x2="-130.665025%" y2="49.4282353%" id="linearGradient-2">
            <stop stop-color="#FFE000" offset="0%"></stop>
            <stop stop-color="#FFBD00" offset="40.87%"></stop>
            <stop stop-color="#FFA500" offset="77.54%"></stop>
            <stop stop-color="#FF9C00" offset="100%"></stop>
        </linearGradient>
        <linearGradient x1="86.3892216%" y1="17.8150459%" x2="-49.888024%" y2="194.392791%" id="linearGradient-3">
            <stop stop-color="#FF3A44" offset="0%"></stop>
            <stop stop-color="#C31162" offset="100%"></stop>
        </linearGradient>
        <linearGradient x1="-18.5790419%" y1="-54.5266535%" x2="42.2748503%" y2="24.6901019%" id="linearGradient-4">
            <stop stop-color="#32A071" offset="0%"></stop>
            <stop stop-color="#2DA771" offset="6.85%"></stop>
            <stop stop-color="#15CF74" offset="47.62%"></stop>
            <stop stop-color="#06E775" offset="80.09%"></stop>
            <stop stop-color="#00F076" offset="100%"></stop>
        </linearGradient>
    </defs>
    <g id="Design" stroke="none" stroke-width="1" fill="none" fill-rule="evenodd">
        <g id="products_sub_quickview" transform="translate(-428.000000, -516.000000)" fill-rule="nonzero">
            <g id="Group-7" transform="translate(234.000000, 435.000000)">
                <g id="DOWNLOAD" transform="translate(39.000000, 72.000000)">
                    <g id="google" transform="translate(155.000000, 9.000000)">
                        <path d="M122.870968,37.6666667 L5.12903226,37.6666667 C2.4916129,37.6666667 0.419354839,35.6133333 0.419354839,33 L0.419354839,5 C0.419354839,2.38666667 2.4916129,0.333333333 5.12903226,0.333333333 L122.870968,0.333333333 C125.508387,0.333333333 127.580645,2.38666667 127.580645,5 L127.580645,33 C127.580645,35.52 125.508387,37.6666667 122.870968,37.6666667 Z" id="Shape" fill="#000000"></path>
                        <path d="M122.870968,1.08 C125.037419,1.08 126.827097,2.85333333 126.827097,5 L126.827097,33 C126.827097,35.1466667 125.037419,36.92 122.870968,36.92 L5.12903226,36.92 C2.96258065,36.92 1.17290323,35.1466667 1.17290323,33 L1.17290323,5 C1.17290323,2.85333333 2.96258065,1.08 5.12903226,1.08 L122.870968,1.08 Z M122.870968,0.333333333 L5.12903226,0.333333333 C2.4916129,0.333333333 0.419354839,2.38666667 0.419354839,5 L0.419354839,33 C0.419354839,35.6133333 2.4916129,37.6666667 5.12903226,37.6666667 L122.870968,37.6666667 C125.508387,37.6666667 127.580645,35.6133333 127.580645,33 L127.580645,5 C127.580645,2.48 125.508387,0.333333333 122.870968,0.333333333 Z" id="Shape" fill="#A6A6A6"></path>
                        <g id="Group" transform="translate(39.038710, 5.933333)" fill="#FFFFFF" stroke="#FFFFFF" stroke-width="0.2">
                            <path d="M6.0283871,3.92 C6.0283871,4.66666667 5.84,5.32 5.36903226,5.78666667 C4.80387097,6.34666667 4.14451613,6.62666667 3.29677419,6.62666667 C2.44903226,6.62666667 1.78967742,6.34666667 1.22451613,5.78666667 C0.659354839,5.22666667 0.376774194,4.57333333 0.376774194,3.73333333 C0.376774194,2.89333333 0.659354839,2.24 1.22451613,1.68 C1.78967742,1.12 2.44903226,0.84 3.29677419,0.84 C3.67354839,0.84 4.05032258,0.933333333 4.42709677,1.12 C4.80387097,1.30666667 5.08645161,1.49333333 5.27483871,1.77333333 L4.80387097,2.24 C4.42709677,1.77333333 3.95612903,1.58666667 3.29677419,1.58666667 C2.7316129,1.58666667 2.16645161,1.77333333 1.78967742,2.24 C1.31870968,2.61333333 1.13032258,3.17333333 1.13032258,3.82666667 C1.13032258,4.48 1.31870968,5.04 1.78967742,5.41333333 C2.26064516,5.78666667 2.7316129,6.06666667 3.29677419,6.06666667 C3.95612903,6.06666667 4.42709677,5.88 4.89806452,5.41333333 C5.18064516,5.13333333 5.36903226,4.76 5.36903226,4.29333333 L3.29677419,4.29333333 L3.29677419,3.64 L6.0283871,3.64 C6.0283871,3.64 6.0283871,3.82666667 6.0283871,3.92 Z" id="Shape"></path>
                            <polygon id="Shape" points="10.3612903 1.58666667 7.81806452 1.58666667 7.81806452 3.36 10.1729032 3.36 10.1729032 4.01333333 7.81806452 4.01333333 7.81806452 5.78666667 10.3612903 5.78666667 10.3612903 6.53333333 7.06451613 6.53333333 7.06451613 0.933333333 10.3612903 0.933333333"></polygon>
                            <polygon id="Shape" points="13.4696774 6.53333333 12.716129 6.53333333 12.716129 1.58666667 11.1148387 1.58666667 11.1148387 0.933333333 14.9767742 0.933333333 14.9767742 1.58666667 13.3754839 1.58666667 13.3754839 6.53333333"></polygon>
                            <polygon id="Shape" points="17.8025806 6.53333333 17.8025806 0.933333333 18.556129 0.933333333 18.556129 6.53333333"></polygon>
                            <polygon id="Shape" points="21.7587097 6.53333333 21.0051613 6.53333333 21.0051613 1.58666667 19.403871 1.58666667 19.403871 0.933333333 23.2658065 0.933333333 23.2658065 1.58666667 21.6645161 1.58666667 21.6645161 6.53333333"></polygon>
                            <path d="M30.7070968,5.78666667 C30.1419355,6.34666667 29.4825806,6.62666667 28.6348387,6.62666667 C27.7870968,6.62666667 27.1277419,6.34666667 26.5625806,5.78666667 C25.9974194,5.22666667 25.7148387,4.57333333 25.7148387,3.73333333 C25.7148387,2.89333333 25.9974194,2.24 26.5625806,1.68 C27.1277419,1.12 27.7870968,0.84 28.6348387,0.84 C29.4825806,0.84 30.1419355,1.12 30.7070968,1.68 C31.2722581,2.24 31.5548387,2.89333333 31.5548387,3.73333333 C31.5548387,4.57333333 31.2722581,5.22666667 30.7070968,5.78666667 Z M27.1277419,5.32 C27.5045161,5.69333333 28.0696774,5.97333333 28.6348387,5.97333333 C29.2,5.97333333 29.7651613,5.78666667 30.1419355,5.32 C30.5187097,4.94666667 30.8012903,4.38666667 30.8012903,3.73333333 C30.8012903,3.08 30.6129032,2.52 30.1419355,2.14666667 C29.7651613,1.77333333 29.2,1.49333333 28.6348387,1.49333333 C28.0696774,1.49333333 27.5045161,1.68 27.1277419,2.14666667 C26.7509677,2.52 26.4683871,3.08 26.4683871,3.73333333 C26.4683871,4.38666667 26.6567742,4.94666667 27.1277419,5.32 Z" id="Shape"></path>
                            <polygon id="Shape" points="32.5909677 6.53333333 32.5909677 0.933333333 33.4387097 0.933333333 36.1703226 5.32 36.1703226 5.32 36.1703226 4.2 36.1703226 0.933333333 36.923871 0.933333333 36.923871 6.53333333 36.1703226 6.53333333 33.2503226 1.96 33.2503226 1.96 33.2503226 3.08 33.2503226 6.53333333"></polygon>
                        </g>
                        <path d="M64.5651613,20.68 C62.3045161,20.68 60.5148387,22.36 60.5148387,24.6933333 C60.5148387,26.9333333 62.3045161,28.7066667 64.5651613,28.7066667 C66.8258065,28.7066667 68.6154839,27.0266667 68.6154839,24.6933333 C68.6154839,22.2666667 66.8258065,20.68 64.5651613,20.68 Z M64.5651613,27.0266667 C63.3406452,27.0266667 62.3045161,26 62.3045161,24.6 C62.3045161,23.2 63.3406452,22.1733333 64.5651613,22.1733333 C65.7896774,22.1733333 66.8258065,23.1066667 66.8258065,24.6 C66.8258065,26 65.7896774,27.0266667 64.5651613,27.0266667 Z M55.8051613,20.68 C53.5445161,20.68 51.7548387,22.36 51.7548387,24.6933333 C51.7548387,26.9333333 53.5445161,28.7066667 55.8051613,28.7066667 C58.0658065,28.7066667 59.8554839,27.0266667 59.8554839,24.6933333 C59.8554839,22.2666667 58.0658065,20.68 55.8051613,20.68 Z M55.8051613,27.0266667 C54.5806452,27.0266667 53.5445161,26 53.5445161,24.6 C53.5445161,23.2 54.5806452,22.1733333 55.8051613,22.1733333 C57.0296774,22.1733333 58.0658065,23.1066667 58.0658065,24.6 C58.0658065,26 57.0296774,27.0266667 55.8051613,27.0266667 Z M45.3496774,21.8933333 L45.3496774,23.5733333 L49.4,23.5733333 C49.3058065,24.5066667 48.9290323,25.2533333 48.4580645,25.72 C47.8929032,26.28 46.9509677,26.9333333 45.3496774,26.9333333 C42.8064516,26.9333333 40.9225806,24.9733333 40.9225806,22.4533333 C40.9225806,19.9333333 42.9006452,17.9733333 45.3496774,17.9733333 C46.6683871,17.9733333 47.7045161,18.5333333 48.4580645,19.1866667 L49.6825806,17.9733333 C48.6464516,17.04 47.3277419,16.2933333 45.443871,16.2933333 C42.0529032,16.2933333 39.1329032,19.0933333 39.1329032,22.4533333 C39.1329032,25.8133333 42.0529032,28.6133333 45.443871,28.6133333 C47.3277419,28.6133333 48.6464516,28.0533333 49.7767742,26.84 C50.9070968,25.72 51.283871,24.1333333 51.283871,22.92 C51.283871,22.5466667 51.283871,22.1733333 51.1896774,21.8933333 L45.3496774,21.8933333 Z M88.1135484,23.2 C87.7367742,22.2666667 86.7948387,20.68 84.7225806,20.68 C82.6503226,20.68 80.9548387,22.2666667 80.9548387,24.6933333 C80.9548387,26.9333333 82.6503226,28.7066667 84.9109677,28.7066667 C86.7006452,28.7066667 87.8309677,27.5866667 88.2077419,26.9333333 L86.8890323,26 C86.4180645,26.6533333 85.8529032,27.12 84.9109677,27.12 C83.9690323,27.12 83.403871,26.7466667 82.9329032,25.9066667 L88.3019355,23.6666667 L88.1135484,23.2 Z M82.6503226,24.5066667 C82.6503226,23.0133333 83.8748387,22.1733333 84.7225806,22.1733333 C85.3819355,22.1733333 86.0412903,22.5466667 86.2296774,23.0133333 L82.6503226,24.5066667 Z M78.2232258,28.3333333 L80.0129032,28.3333333 L80.0129032,16.6666667 L78.2232258,16.6666667 L78.2232258,28.3333333 Z M75.3974194,21.52 C74.9264516,21.0533333 74.1729032,20.5866667 73.2309677,20.5866667 C71.2529032,20.5866667 69.3690323,22.36 69.3690323,24.6 C69.3690323,26.84 71.1587097,28.52 73.2309677,28.52 C74.1729032,28.52 74.9264516,28.0533333 75.3032258,27.5866667 L75.3974194,27.5866667 L75.3974194,28.1466667 C75.3974194,29.64 74.5496774,30.48 73.2309677,30.48 C72.1948387,30.48 71.4412903,29.7333333 71.2529032,29.08 L69.7458065,29.7333333 C70.2167742,30.76 71.3470968,32.0666667 73.3251613,32.0666667 C75.3974194,32.0666667 77.0929032,30.8533333 77.0929032,27.96 L77.0929032,20.8666667 L75.3974194,20.8666667 L75.3974194,21.52 Z M73.3251613,27.0266667 C72.1006452,27.0266667 71.0645161,26 71.0645161,24.6 C71.0645161,23.2 72.1006452,22.1733333 73.3251613,22.1733333 C74.5496774,22.1733333 75.4916129,23.2 75.4916129,24.6 C75.4916129,26 74.5496774,27.0266667 73.3251613,27.0266667 Z M96.3083871,16.6666667 L92.0696774,16.6666667 L92.0696774,28.3333333 L93.8593548,28.3333333 L93.8593548,23.9466667 L96.3083871,23.9466667 C98.2864516,23.9466667 100.170323,22.5466667 100.170323,20.3066667 C100.170323,18.0666667 98.2864516,16.6666667 96.3083871,16.6666667 Z M96.4025806,22.2666667 L93.8593548,22.2666667 L93.8593548,18.2533333 L96.4025806,18.2533333 C97.7212903,18.2533333 98.4748387,19.3733333 98.4748387,20.2133333 C98.3806452,21.24 97.6270968,22.2666667 96.4025806,22.2666667 Z M107.234839,20.5866667 C105.916129,20.5866667 104.597419,21.1466667 104.126452,22.36 L105.727742,23.0133333 C106.104516,22.36 106.669677,22.1733333 107.329032,22.1733333 C108.270968,22.1733333 109.11871,22.7333333 109.212903,23.6666667 L109.212903,23.76 C108.930323,23.5733333 108.176774,23.2933333 107.423226,23.2933333 C105.727742,23.2933333 104.032258,24.2266667 104.032258,25.9066667 C104.032258,27.4933333 105.445161,28.52 106.952258,28.52 C108.176774,28.52 108.741935,27.96 109.212903,27.4 L109.307097,27.4 L109.307097,28.3333333 L111.002581,28.3333333 L111.002581,23.8533333 C110.814194,21.8 109.212903,20.5866667 107.234839,20.5866667 Z M107.046452,27.0266667 C106.48129,27.0266667 105.633548,26.7466667 105.633548,26 C105.633548,25.0666667 106.669677,24.7866667 107.517419,24.7866667 C108.270968,24.7866667 108.647742,24.9733333 109.11871,25.16 C108.930323,26.28 107.988387,27.0266667 107.046452,27.0266667 Z M116.936774,20.8666667 L114.95871,25.9066667 L114.864516,25.9066667 L112.792258,20.8666667 L110.908387,20.8666667 L114.016774,27.96 L112.227097,31.88 L114.016774,31.88 L118.820645,20.8666667 L116.936774,20.8666667 Z M101.112258,28.3333333 L102.901935,28.3333333 L102.901935,16.6666667 L101.112258,16.6666667 L101.112258,28.3333333 Z" id="Shape" fill="#FFFFFF"></path>
                        <g id="Group" transform="translate(8.896774, 6.866667)">
                            <path d="M1.31870968,0.466666667 C1.03612903,0.746666667 0.847741935,1.21333333 0.847741935,1.77333333 L0.847741935,22.4 C0.847741935,22.96 1.03612903,23.4266667 1.31870968,23.7066667 L1.41290323,23.8 L13.0929032,12.2266667 L13.0929032,12.1333333 L13.0929032,12.04 L1.31870968,0.466666667 Z" id="Shape" fill="url(#linearGradient-1)"></path>
                            <path d="M16.9548387,16.1466667 L13.0929032,12.32 L13.0929032,12.1333333 L13.0929032,12.04 L16.9548387,8.21333333 L17.0490323,8.30666667 L21.6645161,10.92 C22.9832258,11.6666667 22.9832258,12.88 21.6645161,13.6266667 L16.9548387,16.1466667 Z" id="Shape" fill="url(#linearGradient-2)"></path>
                            <path d="M17.0490323,16.0533333 L13.0929032,12.1333333 L1.31870968,23.8 C1.78967742,24.2666667 2.44903226,24.2666667 3.29677419,23.8933333 L17.0490323,16.0533333" id="Shape" fill="url(#linearGradient-3)"></path>
                            <path d="M17.0490323,8.21333333 L3.29677419,0.466666667 C2.44903226,2.77555756e-17 1.78967742,0.0933333333 1.31870968,0.56 L13.0929032,12.1333333 L17.0490323,8.21333333 Z" id="Shape" fill="url(#linearGradient-4)"></path>
                            <g transform="translate(0.000000, 15.866667)" fill="#000000" id="Shape">
                                <path d="M16.9548387,0.0933333333 L3.29677419,7.74666667 C2.54322581,8.21333333 1.88387097,8.12 1.41290323,7.74666667 L1.31870968,7.84 L1.41290323,7.93333333 C1.88387097,8.30666667 2.54322581,8.4 3.29677419,7.93333333 L16.9548387,0.0933333333 Z" opacity="0.2"></path>
                                <path d="M1.31870968,7.74666667 C1.03612903,7.46666667 0.847741935,7 0.847741935,6.44 L0.847741935,6.53333333 C0.847741935,7.09333333 1.03612903,7.56 1.31870968,7.84 L1.31870968,7.74666667 Z" opacity="0.12"></path>
                            </g>
                            <path d="M21.6645161,13.3466667 L16.9548387,15.96 L17.0490323,16.0533333 L21.6645161,13.44 C22.323871,13.0666667 22.6064516,12.6 22.6064516,12.1333333 C22.6064516,12.6 22.2296774,12.9733333 21.6645161,13.3466667 Z" id="Shape" fill="#000000" opacity="0.12"></path>
                            <path d="M3.29677419,0.56 L21.6645161,10.92 C22.2296774,11.2933333 22.6064516,11.6666667 22.6064516,12.1333333 C22.6064516,11.6666667 22.323871,11.2 21.6645161,10.8266667 L3.29677419,0.466666667 C1.97806452,-0.28 0.941935484,0.373333333 0.941935484,1.86666667 L0.941935484,1.96 C0.941935484,0.466666667 1.97806452,-0.186666667 3.29677419,0.56 Z" id="Shape" fill="#FFFFFF" opacity="0.25"></path>
                        </g>
                    </g>
                </g>
            </g>
        </g>
    </g>
</svg>