<?xml version="1.0" encoding="UTF-8"?>
<svg width="124px" height="124px" viewBox="0 0 124 124" version="1.1" xmlns="http://www.w3.org/2000/svg" xmlns:xlink="http://www.w3.org/1999/xlink">
    <!-- Generator: Sketch 50 (54983) - http://www.bohemiancoding.com/sketch -->
    <title>Group 7</title>
    <desc>Created with Sketch.</desc>
    <defs>
        <polygon id="path-1" points="0.3635 0.3021 28.7995 0.3021 28.7995 42 0.3635 42"></polygon>
    </defs>
    <g id="Design" stroke="none" stroke-width="1" fill="none" fill-rule="evenodd">
        <g id="whykonyfx" transform="translate(-243.000000, -1515.000000)">
            <g id="Group-13" transform="translate(158.000000, 1517.000000)">
                <g id="Group-10">
                    <g id="Group-7" transform="translate(87.000000, 0.000000)">
                        <g id="icon-1" fill="#FFFFFF" stroke="#704C9F" stroke-width="3">
                            <circle id="Oval" cx="60" cy="60" r="60"></circle>
                        </g>
                        <g id="Page-1" transform="translate(28.000000, 36.000000)">
                            <g id="Group-3" transform="translate(18.000000, 0.697900)">
                                <mask id="mask-2" fill="white">
                                    <use xlink:href="#path-1"></use>
                                </mask>
                                <g id="Clip-2"></g>
                                <path d="M14.5815,20.5751 C15.6885,20.5751 16.7455,20.3511 17.7075,19.9471 L17.7075,20.3351 C17.7075,20.8851 17.8595,21.4101 18.1305,21.8641 L14.5815,25.4121 L11.0325,21.8641 C11.3035,21.4101 11.4555,20.8851 11.4555,20.3351 L11.4555,19.9461 C12.4175,20.3511 13.4745,20.5751 14.5815,20.5751 M8.3945,12.4791 L8.3945,12.0501 C8.9895,11.8131 9.5715,11.4381 10.1285,10.9251 C10.5155,10.5671 10.5395,9.9631 10.1825,9.5761 C9.8245,9.1881 9.2215,9.1641 8.8335,9.5211 C8.3555,9.9631 7.8785,10.2471 7.4155,10.3681 C7.4045,10.3711 7.3955,10.3721 7.3905,10.3731 C7.3835,10.3591 7.3745,10.3311 7.3745,10.2861 L7.3745,8.3981 C7.3745,4.9871 10.1495,2.2111 13.5605,2.2111 L15.6025,2.2111 C19.0135,2.2111 21.7885,4.9871 21.7885,8.3981 L21.7885,8.6061 C21.7885,8.6371 21.7695,8.6641 21.7455,8.6691 C16.0295,9.7981 13.1625,7.6711 12.1955,6.7031 C11.8225,6.3301 11.2185,6.3301 10.8465,6.7031 C10.4735,7.0761 10.4735,7.6801 10.8465,8.0531 C13.8105,11.0171 18.1355,11.0701 20.7685,10.7541 L20.7685,12.4791 C20.7685,15.8901 17.9925,18.6661 14.5815,18.6661 C11.1705,18.6661 8.3945,15.8901 8.3945,12.4791 M25.8085,23.7931 L20.2625,21.3271 C19.8695,21.1531 19.6165,20.7631 19.6165,20.3351 L19.6165,18.8111 C21.4795,17.3271 22.6775,15.0411 22.6775,12.4791 L22.6775,10.3351 C23.2915,9.9961 23.6975,9.3411 23.6975,8.6061 L23.6975,8.3981 C23.6975,3.9341 20.0655,0.3021 15.6025,0.3021 L13.5605,0.3021 C9.0975,0.3021 5.4655,3.9341 5.4655,8.3981 L5.4655,10.2861 C5.4655,10.9311 5.7425,11.5161 6.2275,11.8901 C6.3095,11.9531 6.3955,12.0101 6.4855,12.0571 L6.4855,12.4791 C6.4855,15.0411 7.6835,17.3271 9.5465,18.8111 L9.5465,20.3351 C9.5465,20.7631 9.2935,21.1531 8.9005,21.3271 L3.3545,23.7931 C1.5375,24.5991 0.3635,26.4061 0.3635,28.3931 L0.3635,41.0451 C0.3635,41.5721 0.7915,42.0001 1.3185,42.0001 C1.8465,42.0001 2.2725,41.5721 2.2725,41.0451 L2.2725,28.3941 C2.2725,28.2831 2.2805,28.1741 2.2925,28.0651 L4.8485,30.6211 C5.2465,31.0191 5.4655,31.5481 5.4655,32.1111 L5.4655,41.0451 C5.4655,41.5721 5.8935,42.0001 6.4195,42.0001 C6.9465,42.0001 7.3745,41.5721 7.3745,41.0451 L7.3745,32.1111 C7.3745,31.0381 6.9565,30.0301 6.1985,29.2711 L3.1515,26.2241 C3.4265,25.9391 3.7555,25.7041 4.1305,25.5371 L9.5835,23.1131 L13.6275,27.1571 L13.6275,41.0451 C13.6275,41.5721 14.0545,42.0001 14.5815,42.0001 C15.1085,42.0001 15.5365,41.5721 15.5365,41.0451 L15.5365,27.1571 L19.5805,23.1131 L25.0335,25.5371 C25.4075,25.7041 25.7375,25.9391 26.0125,26.2241 L22.9655,29.2711 C22.2065,30.0301 21.7885,31.0381 21.7885,32.1111 L21.7885,41.0451 C21.7885,41.5721 22.2165,42.0001 22.7435,42.0001 C23.2705,42.0001 23.6975,41.5721 23.6975,41.0451 L23.6975,32.1111 C23.6975,31.5491 23.9175,31.0191 24.3145,30.6211 L26.8705,28.0651 C26.8825,28.1741 26.8905,28.2831 26.8905,28.3931 L26.8905,41.0451 C26.8905,41.5721 27.3165,42.0001 27.8445,42.0001 C28.3715,42.0001 28.7995,41.5721 28.7995,41.0451 L28.7995,28.3941 C28.7985,26.4061 27.6245,24.5991 25.8085,23.7931" id="Fill-1" fill="#36246A" mask="url(#mask-2)"></path>
                            </g>
                            <path d="M10.1362,24.4654 C7.2872,24.4654 4.9692,22.1474 4.9692,19.2984 L4.9692,19.1004 C5.7312,18.9254 6.8602,18.5194 8.0362,17.5724 C8.4532,17.9654 9.0492,18.4474 9.8072,18.8614 C10.7032,19.3504 11.9422,19.8024 13.4542,19.8024 C14.0302,19.8024 14.6452,19.7364 15.2952,19.5824 C15.1472,22.2994 12.8902,24.4654 10.1362,24.4654 Z M12.3422,27.9854 L10.1362,30.1914 L7.9312,27.9854 C7.9952,27.7384 8.0312,27.4834 8.0312,27.2194 L8.0312,26.0544 C8.6962,26.2624 9.4042,26.3744 10.1362,26.3744 C10.8692,26.3744 11.5762,26.2624 12.2422,26.0544 L12.2422,27.2194 C12.2422,27.4834 12.2782,27.7384 12.3422,27.9854 Z M10.1362,12.0914 C12.9862,12.0914 15.3032,14.4084 15.3032,17.2584 L15.3032,17.6044 C11.3292,18.8204 8.9602,15.7974 8.8602,15.6644 C8.6942,15.4444 8.4402,15.3054 8.1632,15.2854 C7.8882,15.2664 7.6162,15.3664 7.4212,15.5634 C6.5102,16.4744 5.6172,16.9134 4.9732,17.1254 C5.0432,14.3374 7.3312,12.0914 10.1362,12.0914 Z M8.0312,10.1164 C8.0312,8.9544 8.9752,8.0104 10.1362,8.0104 C11.2982,8.0104 12.2422,8.9544 12.2422,10.1164 C12.2422,10.2444 12.2312,10.3694 12.2092,10.4924 C11.5532,10.2904 10.8582,10.1824 10.1362,10.1824 C9.4162,10.1824 8.7212,10.2904 8.0672,10.4914 C8.0442,10.3684 8.0312,10.2434 8.0312,10.1164 Z M17.2122,17.2574 C17.2122,14.7684 15.9182,12.5754 13.9682,11.3144 C14.0882,10.9274 14.1522,10.5234 14.1522,10.1164 C14.1522,7.9024 12.3502,6.1014 10.1362,6.1014 C7.9222,6.1014 6.1212,7.9034 6.1212,10.1164 C6.1212,10.5274 6.1842,10.9294 6.3042,11.3144 C4.3552,12.5754 3.0612,14.7684 3.0612,17.2574 L3.0612,19.2984 C3.0612,21.7094 4.2742,23.8424 6.1212,25.1194 L6.1212,27.2194 C6.1212,27.6334 5.8912,28.0054 5.5212,28.1904 L2.2192,29.8414 C0.8502,30.5264 0.0002,31.9024 0.0002,33.4324 L0.0002,41.7434 C0.0002,42.2704 0.4272,42.6974 0.9542,42.6974 C1.4822,42.6974 1.9082,42.2704 1.9082,41.7434 L1.9082,33.8454 L3.4642,35.4004 C3.8622,35.7984 4.0802,36.3264 4.0802,36.8904 L4.0802,41.7434 C4.0802,42.2704 4.5082,42.6974 5.0352,42.6974 C5.5632,42.6974 5.9902,42.2704 5.9902,41.7434 L5.9902,36.8904 C5.9902,35.8174 5.5732,34.8094 4.8142,34.0504 L2.6502,31.8864 C2.6392,31.8754 2.6282,31.8664 2.6172,31.8574 C2.7532,31.7364 2.9062,31.6324 3.0742,31.5484 L6.3742,29.8984 C6.5442,29.8134 6.7012,29.7134 6.8482,29.6034 L9.1822,31.9364 L9.1822,41.7434 C9.1822,42.2704 9.6092,42.6974 10.1362,42.6974 C10.6632,42.6974 11.0912,42.2704 11.0912,41.7434 L11.0912,31.9364 L13.4252,29.6024 C13.5722,29.7134 13.7292,29.8134 13.8982,29.8984 L14.8092,30.3534 C14.9462,30.4214 15.0912,30.4544 15.2352,30.4544 C15.5852,30.4544 15.9222,30.2614 16.0892,29.9264 C16.3242,29.4544 16.1342,28.8814 15.6622,28.6464 L14.7522,28.1914 C14.3812,28.0054 14.1522,27.6334 14.1522,27.2194 L14.1522,25.1204 C15.9992,23.8424 17.2122,21.7094 17.2122,19.2984 L17.2122,17.2574 Z" id="Fill-4" fill="#36246A"></path>
                            <path d="M52.9858,24.3336 C53.7258,24.3336 54.4358,24.1996 55.0918,23.9556 L55.0918,24.1586 C55.0918,24.4216 55.1278,24.6786 55.1918,24.9246 L52.9858,27.1306 L50.7798,24.9246 C50.8438,24.6786 50.8798,24.4216 50.8798,24.1586 L50.8798,23.9556 C51.5358,24.1996 52.2458,24.3336 52.9858,24.3336 Z M48.8398,16.7396 C49.5068,16.4726 50.2868,16.0476 51.0798,15.3726 C52.0818,15.8946 54.1788,16.7956 57.1318,17.0936 L57.1318,18.2776 C57.1318,20.5646 55.2718,22.4246 52.9858,22.4246 C50.6998,22.4246 48.8398,20.5646 48.8398,18.2776 L48.8398,16.7396 Z M47.8188,14.1966 C47.8188,11.9106 49.6788,10.0506 51.9648,10.0506 L54.0068,10.0506 C56.2928,10.0506 58.1528,11.9106 58.1528,14.1966 L58.1528,15.2576 C54.0038,15.0336 51.4998,13.4186 51.4748,13.4026 C51.3128,13.2956 51.1298,13.2426 50.9458,13.2426 C50.6998,13.2426 50.4548,13.3376 50.2698,13.5216 C49.3568,14.4366 48.4628,14.8756 47.8188,15.0866 L47.8188,14.1966 Z M62.9428,27.8006 L57.6008,25.1296 C57.2308,24.9446 57.0018,24.5726 57.0018,24.1586 L57.0018,22.8066 C58.2518,21.6956 59.0418,20.0776 59.0418,18.2776 L59.0418,17.1916 L59.1068,17.1916 C59.6338,17.1916 60.0618,16.7656 60.0618,16.2376 L60.0618,14.1976 C60.0618,10.8576 57.3448,8.1426 54.0068,8.1426 L51.9648,8.1426 C48.6268,8.1426 45.9098,10.8576 45.9098,14.1976 L45.9098,16.2376 C45.9098,16.7656 46.3378,17.1916 46.8648,17.1916 C46.8728,17.1916 46.8948,17.1916 46.9298,17.1906 L46.9298,18.2776 C46.9298,20.0776 47.7198,21.6956 48.9698,22.8066 L48.9698,24.1586 C48.9698,24.5726 48.7408,24.9446 48.3708,25.1296 C47.8988,25.3656 47.7078,25.9386 47.9438,26.4106 C48.1108,26.7446 48.4478,26.9376 48.7988,26.9376 C48.9418,26.9376 49.0878,26.9056 49.2238,26.8376 C49.3928,26.7526 49.5498,26.6526 49.6978,26.5416 L52.0318,28.8756 L52.0318,41.7436 C52.0318,42.2706 52.4588,42.6976 52.9858,42.6976 C53.5128,42.6976 53.9398,42.2706 53.9398,41.7436 L53.9398,28.8756 L56.2738,26.5416 C56.4218,26.6526 56.5788,26.7526 56.7478,26.8376 L61.9168,29.4216 L60.3488,30.9896 C59.5898,31.7486 59.1728,32.7566 59.1728,33.8286 L59.1728,41.7426 C59.1728,42.2706 59.5998,42.6976 60.1278,42.6976 C60.6548,42.6976 61.0818,42.2706 61.0818,41.7426 L61.0818,33.8286 C61.0818,33.2666 61.3008,32.7376 61.6988,32.3396 L63.1838,30.8546 C63.2288,31.0266 63.2538,31.2076 63.2538,31.3926 L63.2538,41.7426 C63.2538,42.2706 63.6808,42.6976 64.2088,42.6976 C64.7348,42.6976 65.1628,42.2706 65.1628,41.7426 L65.1628,31.3926 C65.1628,29.8616 64.3118,28.4856 62.9428,27.8006 Z" id="Fill-6" fill="#36246A"></path>
                        </g>
                    </g>
                </g>
            </g>
        </g>
    </g>
</svg>