<?xml version="1.0" encoding="UTF-8"?>
<svg width="124px" height="124px" viewBox="0 0 124 124" version="1.1" xmlns="http://www.w3.org/2000/svg" xmlns:xlink="http://www.w3.org/1999/xlink">
    <!-- Generator: Sketch 50 (54983) - http://www.bohemiancoding.com/sketch -->
    <title>icon-circle-group</title>
    <desc>Created with Sketch.</desc>
    <defs></defs>
    <g id="Design" stroke="none" stroke-width="1" fill="none" fill-rule="evenodd">
        <g id="retail_banking" transform="translate(-297.000000, -1028.000000)">
            <g id="icon-circle-group" transform="translate(299.000000, 1030.000000)">
                <g id="icon-1" fill="#FFFFFF" stroke="#704C9F" stroke-width="3">
                    <circle id="Oval" cx="60" cy="60" r="60"></circle>
                </g>
                <path d="M77.3002935,83.8926777 L89.8974119,83.8926777 L89.8974119,71.2235969 L77.3002935,71.2235969 L77.3002935,83.8926777 Z M54.198239,83.8926777 L66.8013608,83.8926777 L66.8013608,71.2235969 L54.198239,71.2235969 L54.198239,83.8926777 Z M31.1031885,83.8926777 L43.6993063,83.8926777 L43.6993063,71.2235969 L31.1031885,71.2235969 L31.1031885,83.8926777 Z M54.1992396,37.4420639 C54.1992396,33.9536659 57.0248363,31.1140617 60.5008005,31.1140617 C63.9757641,31.1140617 66.8013608,33.9536659 66.8013608,37.4420639 C66.8013608,40.937503 63.9757641,43.7771072 60.5008005,43.7771072 C57.0248363,43.7771072 54.1992396,40.937503 54.1992396,37.4420639 Z M84.6474452,69.1092335 L84.6474452,56.446188 L61.5513941,56.446188 L61.5513941,45.8180413 C65.6877315,45.292971 68.8975453,41.7401966 68.8975453,37.4420639 C68.8975453,32.7878489 65.129416,28.9996982 60.5008005,28.9996982 C55.8711844,28.9996982 52.1030551,32.7878489 52.1030551,37.4420639 C52.1030551,41.7401966 55.3118683,45.292971 59.4492062,45.8180413 L59.4492062,56.446188 L36.3531551,56.446188 L36.3531551,69.1092335 L29,69.1092335 L29,86 L45.8014942,86 L45.8014942,69.1092335 L38.4483391,69.1092335 L38.4483391,58.5535103 L59.4492062,58.5535103 L59.4492062,69.1092335 L52.1030551,69.1092335 L52.1030551,86 L68.8975453,86 L68.8975453,69.1092335 L61.5513941,69.1092335 L61.5513941,58.5535103 L82.5512607,58.5535103 L82.5512607,69.1092335 L75.1991062,69.1092335 L75.1991062,86 L91.9995998,86 L91.9995998,69.1092335 L84.6474452,69.1092335 Z" id="Page-1" fill="#36246A"></path>
            </g>
        </g>
    </g>
</svg>