<?xml version="1.0" encoding="UTF-8"?>
<svg width="11px" height="11px" viewBox="0 0 11 11" version="1.1" xmlns="http://www.w3.org/2000/svg" xmlns:xlink="http://www.w3.org/1999/xlink">
    <!-- Generator: Sketch 50.2 (55047) - http://www.bohemiancoding.com/sketch -->
    <title>Fill 1</title>
    <desc>Created with Sketch.</desc>
    <defs></defs>
    <g id="Design" stroke="none" stroke-width="1" fill="none" fill-rule="evenodd">
        <g id="thought_leadership" transform="translate(-191.000000, -989.000000)" fill="#704C9F">
            <g id="share" transform="translate(-66.000000, 841.000000)">
                <g id="social-sidebar" transform="translate(0.000000, 71.000000)">
                    <path d="M268,88 L265.547509,88 L265.547509,84.2412473 C265.547509,83.2573989 265.163879,82.585753 264.320285,82.585753 C263.67503,82.585753 263.316192,83.0389942 263.14917,83.4758037 C263.086536,83.6325895 263.096323,83.8503097 263.096323,84.0693991 L263.096323,88 L260.666667,88 C260.666667,88 260.697983,81.3417359 260.666667,80.7365014 L263.096323,80.7365014 L263.096323,81.876451 C263.239858,81.3780226 264.016251,80.6666667 265.255219,80.6666667 C266.792349,80.6666667 268,81.7114493 268,83.9612237 L268,88 Z M258.140138,79.2916667 L258.12647,79.2916667 C257.443071,79.2916667 257,78.7866282 257,78.1470788 C257,77.494452 257.456169,77 258.153237,77 C258.849735,77 259.277999,77.4932065 259.291667,78.1452106 C259.291667,78.7853827 258.849735,79.2916667 258.140138,79.2916667 Z M257,88 L258.833333,88 L258.833333,80.6666667 L257,80.6666667 L257,88 Z" id="Fill-1"></path>
                </g>
            </g>
        </g>
    </g>
</svg>