<?xml version="1.0" encoding="UTF-8"?>
<svg width="213px" height="49px" viewBox="0 0 213 49" version="1.1" xmlns="http://www.w3.org/2000/svg" xmlns:xlink="http://www.w3.org/1999/xlink">
    <!-- Generator: Sketch 50 (54983) - http://www.bohemiancoding.com/sketch -->
    <title>KonyDBX_Qualifier_RBG</title>
    <desc>Created with Sketch.</desc>
    <defs>
        <linearGradient x1="67.5210646%" y1="18.2814059%" x2="22.394564%" y2="110.909184%" id="linearGradient-1">
            <stop stop-color="#5E4F88" offset="0%"></stop>
            <stop stop-color="#64568D" offset="38.03%"></stop>
            <stop stop-color="#5B4D86" offset="55.8%"></stop>
            <stop stop-color="#443375" offset="85.29%"></stop>
            <stop stop-color="#36246A" offset="100%"></stop>
        </linearGradient>
        <linearGradient x1="83.0866485%" y1="-13.4379501%" x2="9.27574932%" y2="82.6055402%" id="linearGradient-2">
            <stop stop-color="#5E4F88" offset="16.28%"></stop>
            <stop stop-color="#64568D" offset="59.34%"></stop>
            <stop stop-color="#5B4D86" offset="71%"></stop>
            <stop stop-color="#443375" offset="90.35%"></stop>
            <stop stop-color="#36246A" offset="100%"></stop>
        </linearGradient>
    </defs>
    <g id="Symbols" stroke="none" stroke-width="1" fill="none" fill-rule="evenodd">
        <g id="Header_overlay-Copy" transform="translate(-72.000000, -30.000000)" fill-rule="nonzero">
            <g id="KonyDBX_Qualifier_RBG" transform="translate(72.000000, 30.000000)">
                <g id="Group" transform="translate(113.000000, 40.000000)" fill="#323E48">
                    <path d="M0.32,0.940909091 C0.76,0.9 1.16,0.859090909 1.52,0.859090909 C4.2,0.859090909 5.08,2.29090909 5.08,3.80454545 C5.08,5.48181818 4.12,7.03636364 1.6,7.03636364 C1.12,7.03636364 0.72,6.99545455 0.32,6.95454545 L0.32,0.940909091 Z M0.92,6.42272727 C1.16,6.46363636 1.4,6.46363636 1.6,6.46363636 C3.28,6.46363636 4.44,5.60454545 4.44,3.80454545 C4.44,2.41363636 3.56,1.43181818 1.48,1.43181818 C1.28,1.43181818 1.12,1.43181818 0.92,1.47272727 L0.92,6.42272727 Z" id="Shape"></path>
                    <path d="M6.12,1.18636364 C6.12,0.940909091 6.32,0.736363636 6.56,0.736363636 C6.8,0.736363636 7,0.940909091 7,1.18636364 C7,1.43181818 6.8,1.63636364 6.56,1.63636364 C6.32,1.63636364 6.12,1.39090909 6.12,1.18636364 Z M6.84,6.91363636 L6.24,6.91363636 L6.24,2.53636364 L6.84,2.53636364 L6.84,6.91363636 Z" id="Shape"></path>
                    <path d="M11.24,6.75 C11.08,6.83181818 10.72,6.95454545 10.36,6.95454545 C8.96,6.95454545 8,6.21818182 8,4.70454545 C8,3.27272727 8.96,2.45454545 10.44,2.45454545 C10.88,2.45454545 11.48,2.57727273 11.84,2.74090909 L11.84,6.95454545 C11.84,8.30454545 10.88,8.79545455 9.88,8.79545455 C9.36,8.79545455 8.88,8.67272727 8.56,8.50909091 L8.56,7.93636364 C8.92,8.1 9.44,8.26363636 9.88,8.26363636 C10.6,8.26363636 11.24,7.89545455 11.24,6.83181818 L11.24,6.75 Z M11.24,3.10909091 C11,3.02727273 10.76,2.98636364 10.44,2.98636364 C9.24,2.98636364 8.56,3.64090909 8.56,4.70454545 C8.56,5.76818182 9.24,6.42272727 10.36,6.42272727 C10.72,6.42272727 10.96,6.38181818 11.24,6.25909091 L11.24,3.10909091 Z" id="Shape"></path>
                    <path d="M13.16,1.18636364 C13.16,0.940909091 13.36,0.736363636 13.6,0.736363636 C13.84,0.736363636 14.04,0.940909091 14.04,1.18636364 C14.04,1.43181818 13.84,1.63636364 13.6,1.63636364 C13.36,1.63636364 13.16,1.39090909 13.16,1.18636364 Z M13.92,6.91363636 L13.32,6.91363636 L13.32,2.53636364 L13.92,2.53636364 L13.92,6.91363636 Z" id="Shape"></path>
                    <path d="M14.8,2.53636364 L15.44,2.53636364 L15.44,1.47272727 L16.04,1.47272727 L16.04,2.53636364 L17.24,2.53636364 L17.24,3.02727273 L16.04,3.02727273 L16.04,5.68636364 C16.04,6.25909091 16.24,6.46363636 16.64,6.46363636 C16.92,6.46363636 17.12,6.38181818 17.44,6.21818182 L17.44,6.75 C17.2,6.87272727 16.88,6.95454545 16.52,6.95454545 C15.92,6.95454545 15.44,6.62727273 15.44,5.72727273 L15.44,2.98636364 L14.8,2.98636364 L14.8,2.53636364 Z" id="Shape"></path>
                    <path d="M20.68,3.84545455 C20.68,3.27272727 20.32,2.98636364 19.76,2.98636364 C19.28,2.98636364 18.88,3.10909091 18.52,3.35454545 L18.52,2.78181818 C18.88,2.57727273 19.36,2.45454545 19.84,2.45454545 C20.72,2.45454545 21.24,2.86363636 21.24,3.84545455 L21.24,6.87272727 C20.84,6.99545455 20.4,7.03636364 20.04,7.03636364 C18.88,7.03636364 18.12,6.66818182 18.12,5.72727273 C18.12,4.86818182 18.88,4.41818182 20.2,4.41818182 L20.68,4.41818182 L20.68,3.84545455 Z M20.68,4.86818182 L20.24,4.86818182 C19.36,4.86818182 18.72,5.11363636 18.72,5.68636364 C18.72,6.25909091 19.32,6.46363636 20.08,6.46363636 C20.24,6.46363636 20.48,6.46363636 20.68,6.42272727 L20.68,4.86818182 Z" id="Shape"></path>
                    <polygon id="Shape" points="23.24 6.91363636 22.64 6.91363636 22.64 0.122727273 23.24 0.122727273"></polygon>
                    <path d="M26.68,0.940909091 C27.08,0.9 27.52,0.859090909 27.84,0.859090909 C29.32,0.859090909 29.96,1.43181818 29.96,2.45454545 C29.96,3.23181818 29.48,3.76363636 28.72,3.84545455 C29.64,3.88636364 30.16,4.41818182 30.16,5.27727273 C30.16,6.25909091 29.52,6.99545455 27.8,6.99545455 C27.4,6.99545455 27,6.95454545 26.64,6.87272727 L26.64,0.940909091 L26.68,0.940909091 Z M27.28,3.64090909 L27.8,3.64090909 C28.76,3.64090909 29.36,3.23181818 29.36,2.49545455 C29.36,1.75909091 28.8,1.39090909 27.84,1.39090909 C27.68,1.39090909 27.48,1.39090909 27.28,1.43181818 L27.28,3.64090909 Z M27.28,6.46363636 C27.52,6.50454545 27.72,6.50454545 27.84,6.50454545 C29.08,6.50454545 29.6,6.05454545 29.6,5.31818182 C29.6,4.54090909 28.92,4.17272727 27.88,4.17272727 L27.28,4.17272727 L27.28,6.46363636 Z" id="Shape"></path>
                    <path d="M33.64,3.84545455 C33.64,3.27272727 33.28,2.98636364 32.72,2.98636364 C32.24,2.98636364 31.84,3.10909091 31.48,3.35454545 L31.48,2.78181818 C31.84,2.57727273 32.32,2.45454545 32.8,2.45454545 C33.68,2.45454545 34.2,2.86363636 34.2,3.84545455 L34.2,6.87272727 C33.8,6.99545455 33.36,7.03636364 33,7.03636364 C31.84,7.03636364 31.08,6.66818182 31.08,5.72727273 C31.08,4.86818182 31.84,4.41818182 33.16,4.41818182 L33.64,4.41818182 L33.64,3.84545455 Z M33.64,4.86818182 L33.2,4.86818182 C32.32,4.86818182 31.68,5.11363636 31.68,5.68636364 C31.68,6.25909091 32.28,6.46363636 33.04,6.46363636 C33.2,6.46363636 33.44,6.46363636 33.64,6.42272727 L33.64,4.86818182 Z" id="Shape"></path>
                    <path d="M35.64,2.78181818 C36.2,2.57727273 36.84,2.45454545 37.44,2.45454545 C38.52,2.45454545 39.16,2.90454545 39.16,3.96818182 L39.16,6.91363636 L38.56,6.91363636 L38.56,4.09090909 C38.56,3.19090909 37.96,3.02727273 37.36,3.02727273 C36.92,3.02727273 36.52,3.10909091 36.2,3.19090909 L36.2,6.95454545 L35.6,6.95454545 L35.6,2.78181818 L35.64,2.78181818 Z" id="Shape"></path>
                    <path d="M41.16,6.91363636 L40.56,6.91363636 L40.56,0.122727273 L41.16,0.122727273 L41.16,6.91363636 Z M41.2,4.54090909 L43.36,2.53636364 L44.2,2.53636364 L42,4.5 L44.24,6.87272727 L43.44,6.87272727 L41.2,4.54090909 Z" id="Shape"></path>
                    <path d="M44.92,1.18636364 C44.92,0.940909091 45.12,0.736363636 45.36,0.736363636 C45.6,0.736363636 45.8,0.940909091 45.8,1.18636364 C45.8,1.43181818 45.6,1.63636364 45.36,1.63636364 C45.12,1.63636364 44.92,1.39090909 44.92,1.18636364 Z M45.64,6.91363636 L45.04,6.91363636 L45.04,2.53636364 L45.64,2.53636364 L45.64,6.91363636 Z" id="Shape"></path>
                    <path d="M47.12,2.78181818 C47.68,2.57727273 48.32,2.45454545 48.92,2.45454545 C50,2.45454545 50.64,2.90454545 50.64,3.96818182 L50.64,6.91363636 L50.04,6.91363636 L50.04,4.09090909 C50.04,3.19090909 49.44,3.02727273 48.84,3.02727273 C48.4,3.02727273 48,3.10909091 47.68,3.19090909 L47.68,6.95454545 L47.08,6.95454545 L47.08,2.78181818 L47.12,2.78181818 Z" id="Shape"></path>
                    <path d="M55,6.75 C54.84,6.83181818 54.48,6.95454545 54.12,6.95454545 C52.72,6.95454545 51.76,6.21818182 51.76,4.70454545 C51.76,3.27272727 52.72,2.45454545 54.2,2.45454545 C54.64,2.45454545 55.24,2.57727273 55.6,2.74090909 L55.6,6.95454545 C55.6,8.30454545 54.64,8.79545455 53.64,8.79545455 C53.12,8.79545455 52.64,8.67272727 52.32,8.50909091 L52.32,7.93636364 C52.68,8.1 53.2,8.26363636 53.64,8.26363636 C54.36,8.26363636 55,7.89545455 55,6.83181818 L55,6.75 Z M55,3.10909091 C54.76,3.02727273 54.52,2.98636364 54.2,2.98636364 C53,2.98636364 52.32,3.64090909 52.32,4.70454545 C52.32,5.76818182 53,6.42272727 54.12,6.42272727 C54.48,6.42272727 54.72,6.38181818 55,6.25909091 L55,3.10909091 Z" id="Shape"></path>
                    <polygon id="Shape" points="62.36 6.34090909 62.36 6.87272727 59 6.87272727 59 0.940909091 62.32 0.940909091 62.32 1.47272727 59.6 1.47272727 59.6 3.55909091 62.12 3.55909091 62.12 4.09090909 59.6 4.09090909 59.6 6.3 62.36 6.3"></polygon>
                    <polygon id="Shape" points="65.16 4.66363636 66.76 6.91363636 66.12 6.91363636 64.84 5.07272727 63.56 6.91363636 62.92 6.91363636 64.52 4.66363636 63.04 2.53636364 63.68 2.53636364 64.88 4.21363636 66.04 2.53636364 66.68 2.53636364"></polygon>
                    <path d="M67.6,2.7 C68,2.53636364 68.56,2.41363636 69.08,2.41363636 C70.56,2.41363636 71.44,3.19090909 71.44,4.70454545 C71.44,6.13636364 70.52,6.99545455 69.12,6.99545455 C68.76,6.99545455 68.4,6.91363636 68.16,6.83181818 L68.16,8.71363636 L67.6,8.71363636 L67.6,2.7 Z M68.2,6.3 C68.48,6.42272727 68.76,6.46363636 69.16,6.46363636 C70.2,6.46363636 70.88,5.80909091 70.88,4.70454545 C70.88,3.64090909 70.24,2.98636364 69.12,2.98636364 C68.8,2.98636364 68.44,3.02727273 68.2,3.10909091 L68.2,6.3 Z" id="Shape"></path>
                    <path d="M72.92,4.74545455 C72.92,5.85 73.68,6.46363636 74.52,6.46363636 C75.12,6.46363636 75.56,6.3 75.96,5.97272727 L75.96,6.58636364 C75.56,6.87272727 75.04,6.99545455 74.52,6.99545455 C73.28,6.99545455 72.36,6.13636364 72.36,4.70454545 C72.36,3.39545455 73.24,2.41363636 74.4,2.41363636 C75.48,2.41363636 76.2,3.06818182 76.2,4.33636364 L76.2,4.74545455 L72.92,4.74545455 Z M75.56,4.25454545 C75.52,3.35454545 75.04,2.98636364 74.32,2.98636364 C73.64,2.98636364 73.12,3.43636364 72.96,4.25454545 L75.56,4.25454545 Z" id="Shape"></path>
                    <path d="M77.84,6.91363636 L77.24,6.91363636 L77.24,2.94545455 C77.68,2.65909091 78.24,2.45454545 78.84,2.45454545 C79.08,2.45454545 79.32,2.49545455 79.56,2.53636364 L79.56,3.10909091 C79.32,3.02727273 79,2.98636364 78.8,2.98636364 C78.36,2.98636364 78.08,3.06818182 77.84,3.19090909 L77.84,6.91363636 Z" id="Shape"></path>
                    <path d="M80.36,1.18636364 C80.36,0.940909091 80.56,0.736363636 80.8,0.736363636 C81.04,0.736363636 81.24,0.940909091 81.24,1.18636364 C81.24,1.43181818 81.04,1.63636364 80.8,1.63636364 C80.56,1.63636364 80.36,1.39090909 80.36,1.18636364 Z M81.08,6.91363636 L80.48,6.91363636 L80.48,2.53636364 L81.08,2.53636364 L81.08,6.91363636 Z" id="Shape"></path>
                    <path d="M82.8,4.74545455 C82.8,5.85 83.56,6.46363636 84.4,6.46363636 C85,6.46363636 85.44,6.3 85.84,5.97272727 L85.84,6.58636364 C85.44,6.87272727 84.92,6.99545455 84.4,6.99545455 C83.16,6.99545455 82.24,6.13636364 82.24,4.70454545 C82.24,3.39545455 83.12,2.41363636 84.28,2.41363636 C85.36,2.41363636 86.08,3.06818182 86.08,4.33636364 L86.08,4.74545455 L82.8,4.74545455 Z M85.44,4.25454545 C85.4,3.35454545 84.92,2.98636364 84.2,2.98636364 C83.52,2.98636364 83,3.43636364 82.84,4.25454545 L85.44,4.25454545 Z" id="Shape"></path>
                    <path d="M87.16,2.78181818 C87.72,2.57727273 88.36,2.45454545 88.96,2.45454545 C90.04,2.45454545 90.68,2.90454545 90.68,3.96818182 L90.68,6.91363636 L90.08,6.91363636 L90.08,4.09090909 C90.08,3.19090909 89.48,3.02727273 88.88,3.02727273 C88.44,3.02727273 88.04,3.10909091 87.72,3.19090909 L87.72,6.95454545 L87.12,6.95454545 L87.12,2.78181818 L87.16,2.78181818 Z" id="Shape"></path>
                    <path d="M95.24,3.39545455 C94.88,3.15 94.44,2.98636364 94.04,2.98636364 C93.16,2.98636364 92.4,3.6 92.4,4.74545455 C92.4,5.85 93.16,6.46363636 94.08,6.46363636 C94.52,6.46363636 94.92,6.3 95.32,6.05454545 L95.32,6.66818182 C94.88,6.87272727 94.48,6.99545455 94.04,6.99545455 C92.84,6.99545455 91.8,6.13636364 91.8,4.70454545 C91.8,3.23181818 92.84,2.41363636 94,2.41363636 C94.48,2.41363636 94.84,2.53636364 95.24,2.74090909 L95.24,3.39545455 Z" id="Shape"></path>
                    <path d="M96.68,4.74545455 C96.68,5.85 97.44,6.46363636 98.28,6.46363636 C98.88,6.46363636 99.32,6.3 99.72,5.97272727 L99.72,6.58636364 C99.32,6.87272727 98.8,6.99545455 98.28,6.99545455 C97.04,6.99545455 96.12,6.13636364 96.12,4.70454545 C96.12,3.39545455 97,2.41363636 98.16,2.41363636 C99.24,2.41363636 99.96,3.06818182 99.96,4.33636364 L99.96,4.74545455 L96.68,4.74545455 Z M99.32,4.25454545 C99.28,3.35454545 98.8,2.98636364 98.08,2.98636364 C97.4,2.98636364 96.88,3.43636364 96.72,4.25454545 L99.32,4.25454545 Z" id="Shape"></path>
                </g>
                <g id="Group" fill="#323E48">
                    <path d="M5.07503057,35.3918919 L0.0399608706,35.3918919 L0.0399608706,0.162162162 L5.11499144,0.162162162 L5.11499144,35.3918919 L5.07503057,35.3918919 Z M5.27483492,22.9864865 L14.825483,12.4864865 L21.0593788,12.4864865 L11.109122,22.8648649 L21.2591832,35.3918919 L15.2650526,35.3918919 L5.27483492,22.9864865 Z" id="Shape"></path>
                    <path d="M32.9677183,11.9189189 C39.7610663,11.9189189 44.6762534,16.7837838 44.6762534,23.9594595 C44.6762534,31.0540541 39.7610663,35.9189189 32.9677183,35.9189189 C26.2143311,35.9189189 21.3391049,31.0540541 21.3391049,23.9594595 C21.299144,16.7837838 26.2143311,11.9189189 32.9677183,11.9189189 M32.9677183,16.3378378 C29.1714356,16.3378378 26.4141355,19.2972973 26.4141355,23.9594595 C26.4141355,28.5810811 29.1714356,31.5405405 32.9677183,31.5405405 C36.8439227,31.5405405 39.5612619,28.5810811 39.5612619,23.9594595 C39.5612619,19.2972973 36.8439227,16.3378378 32.9677183,16.3378378" id="Shape"></path>
                    <path d="M48.9520665,13.9054054 C52.1089753,12.6486486 55.9851798,11.9189189 59.301932,11.9189189 C65.0562974,11.9189189 68.7326975,14.1486486 68.7326975,20.6351351 L68.7326975,35.3918919 L63.7375887,35.3918919 L63.7375887,21.0810811 C63.7375887,17.7567568 61.6995843,16.5810811 58.9023233,16.5810811 C57.1040841,16.5810811 55.3458058,16.8243243 53.9871362,17.2702703 L53.9871362,35.3918919 L48.9121056,35.3918919 L48.9121056,13.9054054 L48.9520665,13.9054054 Z" id="Shape"></path>
                    <polygon id="Shape" points="82.3593544 30.527027 88.6731719 12.4459459 93.908046 12.4459459 81.6400587 44.7162162 76.6849107 44.7162162 79.8418195 36.4459459 70.4909758 12.4459459 75.9256542 12.4459459"></polygon>
                </g>
                <path d="M136.048035,4.75113122 C132.471616,1.62330317 127.048035,0 119.934498,0 C118.165939,0 116.279476,0.118778281 114.275109,0.356334842 L114,0.395927602 L114,34.5248869 L114.275109,34.5644796 C116.436681,34.841629 118.362445,35 120.759825,35 C133.611354,35 141,28.388009 141,16.8665158 C141,11.719457 139.310044,7.64140271 136.048035,4.75113122 Z M138.484716,16.9061086 C138.484716,27.1210407 132.196507,32.7432127 120.759825,32.7432127 C119.384279,32.7432127 118.048035,32.6640271 116.515284,32.5056561 L116.515284,2.49434389 C117.89083,2.37556561 118.834061,2.33597285 119.934498,2.33597285 C126.104803,2.33597285 130.820961,3.64253394 133.965066,6.25565611 C136.951965,8.75 138.484716,12.3133484 138.484716,16.9061086 Z" id="Shape" fill="#323E48"></path>
                <path d="M155.228785,17.0856821 C159.236882,15.9413754 161.772617,12.903044 161.772617,8.87824126 C161.772617,2.9988726 157.560025,0 149.298438,0 C147.826076,0 145.699331,0.1578354 143.286293,0.394588501 L143,0.434047351 L143,34.3291995 L143.245394,34.3686584 C145.208543,34.7632469 147.539783,35 149.502933,35 C153.960918,35 157.396429,34.1319053 159.68677,32.3957159 C161.895314,30.7384442 162.999585,28.3709132 162.999585,25.3325817 C163.040484,21.0710259 160.054861,17.9537768 155.228785,17.0856821 Z M149.053044,16.1386697 L145.617533,16.1386697 L145.617533,2.4464487 C146.967198,2.32807215 148.153267,2.2886133 149.298438,2.2886133 C155.80137,2.2886133 159.114185,4.49830891 159.114185,8.87824126 C159.114185,13.4949267 155.43328,16.1386697 149.053044,16.1386697 Z M145.617533,18.427283 L149.093943,18.427283 C154.24721,18.427283 160.341154,19.6110485 160.341154,25.3325817 C160.341154,30.3043968 156.905642,32.632469 149.502933,32.632469 C148.235065,32.632469 146.803602,32.5140924 145.617533,32.356257 L145.617533,18.427283 Z" id="Shape" fill="#323E48"></path>
                <polygon id="Shape" fill="#323E48" points="178 16.4705882 166.435644 0 163.425743 0 174.990099 16.4705882 162 35 165.009901 35 178 16.4705882"></polygon>
                <polygon id="Shape" fill="url(#linearGradient-1)" points="177.503964 0 168.466591 0 179.961495 16.468254 167 35 176.07701 35 184.519819 22.9365079 186.026048 25.0793651 186.026048 25.1190476 192.92299 35 202 35"></polygon>
                <polygon id="Shape" fill="url(#linearGradient-2)" points="201 0 192.264305 0 187 7.67867036 191.348774 14"></polygon>
            </g>
        </g>
    </g>
</svg>