<?xml version="1.0" encoding="UTF-8"?>
<svg width="127px" height="37px" viewBox="0 0 127 37" version="1.1" xmlns="http://www.w3.org/2000/svg" xmlns:xlink="http://www.w3.org/1999/xlink">
    <!-- Generator: Sketch 50.2 (55047) - http://www.bohemiancoding.com/sketch -->
    <title>microsoft</title>
    <desc>Created with Sketch.</desc>
    <defs></defs>
    <g id="Design" stroke="none" stroke-width="1" fill="none" fill-rule="evenodd">
        <g id="products_sub_quickview" transform="translate(-573.000000, -516.000000)" fill-rule="nonzero">
            <g id="Group-7" transform="translate(234.000000, 435.000000)">
                <g id="DOWNLOAD" transform="translate(39.000000, 72.000000)">
                    <g id="microsoft" transform="translate(300.000000, 9.000000)">
                        <path d="M122.296296,37 L4.7037037,37 C2.06962963,37 0,34.965 0,32.375 L0,4.625 C0,2.035 2.06962963,0 4.7037037,0 L122.296296,0 C124.93037,0 127,2.035 127,4.625 L127,32.375 C127,34.8725 124.836296,37 122.296296,37 Z" id="Shape" fill="#000000"></path>
                        <path d="M122.296296,0.74 C124.46,0.74 126.247407,2.4975 126.247407,4.625 L126.247407,32.375 C126.247407,34.5025 124.46,36.26 122.296296,36.26 L4.7037037,36.26 C2.54,36.26 0.752592593,34.5025 0.752592593,32.375 L0.752592593,4.625 C0.752592593,2.4975 2.54,0.74 4.7037037,0.74 L122.296296,0.74 Z M122.296296,0 L4.7037037,0 C2.06962963,0 0,2.035 0,4.625 L0,32.375 C0,34.965 2.06962963,37 4.7037037,37 L122.296296,37 C124.93037,37 127,34.965 127,32.375 L127,4.625 C127,2.1275 124.836296,0 122.296296,0 Z" id="Shape" fill="#A6A6A6"></path>
                        <g id="Layer_1_1_" transform="translate(16.000000, 7.000000)">
                            <rect id="Rectangle-path" fill="#F25022" x="0.188118812" y="0.553846154" width="10.8168317" height="10.6153846"></rect>
                            <rect id="Rectangle-path" fill="#7FBA00" x="12.1336634" y="0.553846154" width="10.8168317" height="10.6153846"></rect>
                            <rect id="Rectangle-path" fill="#00A4EF" x="0.188118812" y="12.2769231" width="10.8168317" height="10.6153846"></rect>
                            <rect id="Rectangle-path" fill="#FFB900" x="12.1336634" y="12.2769231" width="10.8168317" height="10.6153846"></rect>
                            <path d="M43.9257426,12.5538462 C43.9257426,12.2769231 44.019802,12 44.3019802,11.7230769 C44.490099,11.5384615 44.7722772,11.4461538 45.1485149,11.4461538 C45.5247525,11.4461538 45.8069307,11.5384615 45.9950495,11.8153846 C46.1831683,12 46.3712871,12.2769231 46.3712871,12.5538462 C46.3712871,12.8307692 46.2772277,13.1076923 45.9950495,13.2923077 C45.8069307,13.4769231 45.5247525,13.5692308 45.1485149,13.5692308 C44.7722772,13.5692308 44.5841584,13.4769231 44.3019802,13.2923077 C44.019802,13.1076923 43.9257426,12.8307692 43.9257426,12.5538462 Z M45.9950495,22.8923077 L44.019802,22.8923077 L44.019802,14.8615385 L45.9950495,14.8615385 L45.9950495,22.8923077 Z" id="Shape" fill="#FFFFFF"></path>
                            <path d="M51.9207921,21.5076923 C52.2029703,21.5076923 52.4851485,21.4153846 52.8613861,21.3230769 C53.2376238,21.2307692 53.519802,21.0461538 53.8019802,20.7692308 L53.8019802,22.5230769 C53.519802,22.7076923 53.1435644,22.8 52.7673267,22.8923077 C52.3910891,22.9846154 51.9207921,23.0769231 51.450495,23.0769231 C50.2277228,23.0769231 49.2871287,22.7076923 48.5346535,21.9692308 C47.7821782,21.2307692 47.4059406,20.2153846 47.4059406,19.1076923 C47.4059406,17.8153846 47.7821782,16.7076923 48.5346535,15.8769231 C49.2871287,15.0461538 50.4158416,14.5846154 51.8267327,14.5846154 C52.2029703,14.5846154 52.5792079,14.6769231 52.9554455,14.7692308 C53.3316832,14.8615385 53.6138614,14.9538462 53.8019802,15.0461538 L53.8019802,16.8923077 C53.519802,16.7076923 53.2376238,16.5230769 52.8613861,16.4307692 C52.5792079,16.3384615 52.2029703,16.2461538 51.9207921,16.2461538 C51.1683168,16.2461538 50.509901,16.5230769 50.039604,16.9846154 C49.5693069,17.4461538 49.3811881,18.0923077 49.3811881,18.9230769 C49.3811881,19.7538462 49.5693069,20.4 50.039604,20.8615385 C50.509901,21.3230769 51.1683168,21.5076923 51.9207921,21.5076923" id="Shape" fill="#FFFFFF"></path>
                            <path d="M59.3514851,14.7692308 C59.539604,14.7692308 59.6336634,14.7692308 59.7277228,14.7692308 C59.8217822,14.7692308 59.9158416,14.8615385 60.009901,14.8615385 L60.009901,16.8 C59.9158416,16.7076923 59.7277228,16.6153846 59.539604,16.6153846 C59.3514851,16.5230769 59.0693069,16.5230769 58.7871287,16.5230769 C58.3168317,16.5230769 57.9405941,16.7076923 57.5643564,17.0769231 C57.2821782,17.4461538 57.0940594,18.0923077 57.0940594,18.9230769 L57.0940594,22.9846154 L55.1188119,22.9846154 L55.1188119,14.9538462 L57.0940594,14.9538462 L57.0940594,16.2461538 C57.2821782,15.7846154 57.5643564,15.4153846 57.9405941,15.2307692 C58.4108911,14.8615385 58.7871287,14.7692308 59.3514851,14.7692308" id="Shape" fill="#FFFFFF"></path>
                            <path d="M60.1980198,19.0153846 C60.1980198,17.7230769 60.5742574,16.6153846 61.3267327,15.8769231 C62.0792079,15.1384615 63.2079208,14.6769231 64.5247525,14.6769231 C65.8415842,14.6769231 66.7821782,15.0461538 67.5346535,15.7846154 C68.2871287,16.5230769 68.6633663,17.5384615 68.6633663,18.8307692 C68.6633663,20.1230769 68.2871287,21.1384615 67.5346535,21.9692308 C66.7821782,22.7076923 65.7475248,23.1692308 64.4306931,23.1692308 C63.2079208,23.1692308 62.1732673,22.8 61.4207921,22.0615385 C60.5742574,21.3230769 60.1980198,20.3076923 60.1980198,19.0153846 M62.1732673,18.9230769 C62.1732673,19.7538462 62.3613861,20.4 62.7376238,20.8615385 C63.1138614,21.3230769 63.6782178,21.5076923 64.4306931,21.5076923 C65.0891089,21.5076923 65.6534653,21.3230769 66.029703,20.8615385 C66.4059406,20.4 66.5940594,19.7538462 66.5940594,18.9230769 C66.5940594,18.0923077 66.4059406,17.3538462 66.029703,16.9846154 C65.6534653,16.5230769 65.0891089,16.3384615 64.4306931,16.3384615 C63.6782178,16.3384615 63.2079208,16.5230769 62.7376238,17.0769231 C62.3613861,17.4461538 62.1732673,18.0923077 62.1732673,18.9230769" id="Shape" fill="#FFFFFF"></path>
                            <path d="M71.4851485,16.9846154 C71.4851485,17.2615385 71.5792079,17.4461538 71.7673267,17.6307692 C71.9554455,17.8153846 72.3316832,18 72.8960396,18.1846154 C73.6485149,18.4615385 74.2128713,18.8307692 74.4950495,19.2 C74.7772277,19.5692308 74.9653465,20.0307692 74.9653465,20.5846154 C74.9653465,21.3230769 74.6831683,21.9692308 74.1188119,22.4307692 C73.5544554,22.8923077 72.7079208,23.0769231 71.6732673,23.0769231 C71.2970297,23.0769231 70.9207921,23.0769231 70.5445545,22.9846154 C70.1683168,22.8923077 69.7920792,22.8 69.509901,22.7076923 L69.509901,20.8615385 C69.8861386,21.1384615 70.2623762,21.3230769 70.6386139,21.4153846 C71.0148515,21.6 71.3910891,21.6 71.7673267,21.6 C72.2376238,21.6 72.519802,21.5076923 72.7079208,21.4153846 C72.8960396,21.3230769 72.990099,21.1384615 72.990099,20.7692308 C72.990099,20.4923077 72.8960396,20.3076923 72.7079208,20.1230769 C72.519802,19.9384615 72.049505,19.7538462 71.4851485,19.4769231 C70.7326733,19.2 70.2623762,18.8307692 69.980198,18.4615385 C69.6980198,18.0923077 69.509901,17.6307692 69.509901,17.0769231 C69.509901,16.3384615 69.7920792,15.7846154 70.3564356,15.3230769 C70.9207921,14.8615385 71.6732673,14.5846154 72.6138614,14.5846154 C72.8960396,14.5846154 73.1782178,14.5846154 73.5544554,14.6769231 C73.9306931,14.7692308 74.2128713,14.8615385 74.4009901,14.9538462 L74.4009901,16.8 C74.1188119,16.6153846 73.8366337,16.5230769 73.5544554,16.3384615 C73.1782178,16.2461538 72.8960396,16.1538462 72.519802,16.1538462 C72.1435644,16.1538462 71.8613861,16.2461538 71.6732673,16.3384615 C71.5792079,16.5230769 71.4851485,16.7076923 71.4851485,16.9846154" id="Shape" fill="#FFFFFF"></path>
                            <path d="M75.9059406,19.0153846 C75.9059406,17.7230769 76.2821782,16.6153846 77.0346535,15.8769231 C77.7871287,15.1384615 78.9158416,14.6769231 80.2326733,14.6769231 C81.549505,14.6769231 82.490099,15.0461538 83.2425743,15.7846154 C83.9950495,16.5230769 84.3712871,17.5384615 84.3712871,18.8307692 C84.3712871,20.1230769 83.9950495,21.1384615 83.2425743,21.9692308 C82.490099,22.7076923 81.4554455,23.1692308 80.1386139,23.1692308 C78.9158416,23.1692308 77.8811881,22.8 77.1287129,22.0615385 C76.2821782,21.3230769 75.9059406,20.3076923 75.9059406,19.0153846 M77.8811881,18.9230769 C77.8811881,19.7538462 78.0693069,20.4 78.4455446,20.8615385 C78.8217822,21.3230769 79.3861386,21.5076923 80.1386139,21.5076923 C80.7970297,21.5076923 81.3613861,21.3230769 81.7376238,20.8615385 C82.1138614,20.4 82.3019802,19.7538462 82.3019802,18.9230769 C82.3019802,18.0923077 82.1138614,17.3538462 81.7376238,16.9846154 C81.3613861,16.5230769 80.7970297,16.3384615 80.1386139,16.3384615 C79.3861386,16.3384615 78.9158416,16.5230769 78.4455446,17.0769231 C78.0693069,17.4461538 77.8811881,18.0923077 77.8811881,18.9230769" id="Shape" fill="#FFFFFF"></path>
                            <path d="M90.6732673,16.4307692 L90.6732673,20.5846154 C90.6732673,21.4153846 90.8613861,22.0615385 91.2376238,22.5230769 C91.6138614,22.9846154 92.2722772,23.1692308 93.1188119,23.1692308 C93.4009901,23.1692308 93.6831683,23.1692308 93.9653465,23.0769231 C94.2475248,22.9846154 94.4356436,22.9846154 94.529703,22.8923077 L94.529703,21.2307692 C94.4356436,21.3230769 94.2475248,21.4153846 94.1534653,21.4153846 C93.9653465,21.5076923 93.8712871,21.5076923 93.7772277,21.5076923 C93.4009901,21.5076923 93.1188119,21.4153846 92.9306931,21.2307692 C92.7425743,21.0461538 92.6485149,20.6769231 92.6485149,20.2153846 L92.6485149,16.4307692 L94.6237624,16.4307692 L94.6237624,14.8615385 L92.6485149,14.8615385 L92.6485149,12.4615385 L90.6732673,13.0153846 L90.6732673,14.8615385 L87.7574257,14.8615385 L87.7574257,13.8461538 C87.7574257,13.3846154 87.8514851,13.0153846 88.039604,12.7384615 C88.2277228,12.4615385 88.6039604,12.3692308 88.980198,12.3692308 C89.1683168,12.3692308 89.3564356,12.3692308 89.5445545,12.4615385 C89.7326733,12.5538462 89.8267327,12.5538462 89.9207921,12.6461538 L89.9207921,10.9846154 C89.7326733,10.8923077 89.6386139,10.8923077 89.450495,10.8923077 C89.2623762,10.8923077 89.0742574,10.8923077 88.7920792,10.8923077 C87.9455446,10.8923077 87.1930693,11.1692308 86.6287129,11.7230769 C86.0643564,12.2769231 85.7821782,12.9230769 85.7821782,13.8461538 L85.7821782,14.9538462 L84.3712871,14.9538462 L84.3712871,16.5230769 L85.7821782,16.5230769 L85.7821782,23.0769231 L87.7574257,23.0769231 L87.7574257,16.5230769 L90.6732673,16.4307692 Z" id="Shape" fill="#FFFFFF"></path>
                            <polygon id="Shape" fill="#FFFFFF" points="42.2326733 11.6307692 42.2326733 22.8923077 40.2574257 22.8923077 40.2574257 14.1230769 40.2574257 14.1230769 36.6831683 22.8923077 35.3663366 22.8923077 31.6980198 14.1230769 31.6980198 14.1230769 31.6980198 22.8923077 29.8168317 22.8923077 29.8168317 11.6307692 32.6386139 11.6307692 35.9306931 20.0307692 36.0247525 20.0307692 39.5049505 11.6307692"></polygon>
                            <path d="M35.0841584,6.83076923 C34.4257426,7.2 33.5792079,7.38461538 32.7326733,7.38461538 C32.0742574,7.38461538 31.509901,7.2 30.9455446,6.92307692 C30.4752475,6.64615385 30.0049505,6.27692308 29.7227723,5.72307692 C29.4405941,5.16923077 29.3465347,4.61538462 29.3465347,3.96923077 C29.3465347,3.32307692 29.5346535,2.67692308 29.8168317,2.12307692 C30.0990099,1.56923077 30.5693069,1.2 31.1336634,0.830769231 C31.6980198,0.553846154 32.3564356,0.369230769 33.0148515,0.369230769 C33.3910891,0.369230769 33.6732673,0.369230769 34.049505,0.461538462 C34.4257426,0.553846154 34.7079208,0.646153846 34.8960396,0.738461538 L34.8960396,1.75384615 C34.3316832,1.38461538 33.6732673,1.2 32.9207921,1.2 C32.450495,1.2 31.980198,1.29230769 31.6039604,1.56923077 C31.2277228,1.84615385 30.9455446,2.12307692 30.7574257,2.49230769 C30.5693069,2.86153846 30.4752475,3.32307692 30.4752475,3.87692308 C30.4752475,4.70769231 30.6633663,5.35384615 31.1336634,5.81538462 C31.6039604,6.27692308 32.1683168,6.55384615 32.9207921,6.55384615 C33.3910891,6.55384615 33.8613861,6.46153846 34.1435644,6.27692308 L34.1435644,4.52307692 L32.6386139,4.52307692 L32.6386139,3.69230769 L35.0841584,3.69230769 L35.0841584,6.83076923 Z" id="Shape" fill="#FFFFFF"></path>
                            <path d="M40.6336634,5.07692308 L37.2475248,5.07692308 C37.2475248,5.53846154 37.4356436,5.90769231 37.7178218,6.18461538 C38,6.46153846 38.3762376,6.55384615 38.7524752,6.55384615 C39.3168317,6.55384615 39.8811881,6.36923077 40.2574257,6.09230769 L40.2574257,6.92307692 C40.0693069,7.01538462 39.7871287,7.2 39.5049505,7.2 C39.2227723,7.2 38.9405941,7.29230769 38.5643564,7.29230769 C37.8118812,7.29230769 37.2475248,7.10769231 36.8712871,6.64615385 C36.4950495,6.18461538 36.3069307,5.63076923 36.3069307,4.8 C36.3069307,4.33846154 36.4009901,3.87692308 36.5891089,3.50769231 C36.7772277,3.13846154 37.0594059,2.76923077 37.4356436,2.58461538 C37.8118812,2.4 38.1881188,2.21538462 38.6584158,2.21538462 C39.3168317,2.21538462 39.7871287,2.4 40.1633663,2.86153846 C40.539604,3.23076923 40.7277228,3.78461538 40.7277228,4.52307692 L40.6336634,5.07692308 Z M39.6930693,4.43076923 C39.6930693,3.96923077 39.5990099,3.69230769 39.4108911,3.50769231 C39.2227723,3.32307692 38.9405941,3.13846154 38.5643564,3.13846154 C38.2821782,3.13846154 38,3.23076923 37.7178218,3.50769231 C37.4356436,3.78461538 37.3415842,4.06153846 37.2475248,4.43076923 L39.6930693,4.43076923 Z" id="Shape" fill="#FFFFFF"></path>
                            <path d="M44.3019802,7.2 C44.2079208,7.29230769 44.1138614,7.29230769 43.9257426,7.29230769 C43.7376238,7.29230769 43.6435644,7.29230769 43.4554455,7.29230769 C42.5148515,7.29230769 42.1386139,6.83076923 42.1386139,5.81538462 L42.1386139,3.13846154 L41.2920792,3.13846154 L41.2920792,2.4 L42.1386139,2.4 L42.1386139,1.29230769 L43.0792079,1.01538462 L43.0792079,2.4 L44.3019802,2.4 L44.3019802,3.13846154 L43.0792079,3.13846154 L43.0792079,5.63076923 C43.0792079,5.90769231 43.1732673,6.18461538 43.2673267,6.27692308 C43.3613861,6.36923077 43.549505,6.46153846 43.8316832,6.46153846 C44.019802,6.46153846 44.2079208,6.36923077 44.3019802,6.27692308 L44.3019802,7.2 Z" id="Shape" fill="#FFFFFF"></path>
                            <path d="M49.0049505,0.738461538 C49.0049505,0.923076923 48.9108911,1.01538462 48.8168317,1.10769231 C48.7227723,1.2 48.5346535,1.29230769 48.3465347,1.29230769 C48.1584158,1.29230769 48.0643564,1.2 47.8762376,1.10769231 C47.7821782,1.01538462 47.6881188,0.830769231 47.6881188,0.738461538 C47.6881188,0.553846154 47.7821782,0.461538462 47.8762376,0.369230769 C47.970297,0.276923077 48.1584158,0.184615385 48.2524752,0.184615385 C48.3465347,0.184615385 48.5346535,0.276923077 48.6287129,0.369230769 C48.9108911,0.461538462 49.0049505,0.553846154 49.0049505,0.738461538 Z M48.9108911,7.29230769 L47.970297,7.29230769 L47.970297,2.49230769 L48.9108911,2.49230769 L48.9108911,7.29230769 Z" id="Shape" fill="#FFFFFF"></path>
                            <path d="M52.9554455,7.2 C52.8613861,7.29230769 52.7673267,7.29230769 52.5792079,7.29230769 C52.3910891,7.29230769 52.2970297,7.29230769 52.1089109,7.29230769 C51.1683168,7.29230769 50.7920792,6.83076923 50.7920792,5.81538462 L50.7920792,3.13846154 L49.9455446,3.13846154 L49.9455446,2.4 L50.7920792,2.4 L50.7920792,1.29230769 L51.7326733,1.01538462 L51.7326733,2.4 L52.9554455,2.4 L52.9554455,3.13846154 L51.7326733,3.13846154 L51.7326733,5.63076923 C51.7326733,5.90769231 51.8267327,6.18461538 51.9207921,6.27692308 C52.0148515,6.36923077 52.2029703,6.46153846 52.4851485,6.46153846 C52.6732673,6.46153846 52.8613861,6.36923077 52.9554455,6.27692308 L52.9554455,7.2 Z" id="Shape" fill="#FFFFFF"></path>
                            <path d="M59.1633663,0.923076923 C58.9752475,0.830769231 58.8811881,0.830769231 58.5990099,0.830769231 C58.0346535,0.830769231 57.8465347,1.10769231 57.8465347,1.75384615 L57.8465347,2.4 L58.9752475,2.4 L58.9752475,3.13846154 L57.8465347,3.13846154 L57.8465347,7.2 L56.9059406,7.2 L56.9059406,3.13846154 L56.0594059,3.13846154 L56.0594059,2.4 L56.9059406,2.4 L56.9059406,1.66153846 C56.9059406,1.10769231 57.0940594,0.738461538 57.3762376,0.461538462 C57.6584158,0.184615385 58.0346535,-3.55271368e-15 58.5990099,-3.55271368e-15 C58.8811881,-3.55271368e-15 59.0693069,-3.55271368e-15 59.1633663,0.0923076923 L59.1633663,0.923076923 Z" id="Shape" fill="#FFFFFF"></path>
                            <path d="M62.6435644,3.41538462 C62.549505,3.41538462 62.4554455,3.32307692 62.3613861,3.32307692 C62.2673267,3.32307692 62.0792079,3.23076923 61.9851485,3.23076923 C61.6089109,3.23076923 61.4207921,3.41538462 61.1386139,3.69230769 C60.950495,3.96923077 60.8564356,4.33846154 60.8564356,4.8 L60.8564356,7.29230769 L59.9158416,7.29230769 L59.9158416,2.49230769 L60.8564356,2.49230769 L60.8564356,3.41538462 C60.950495,3.04615385 61.1386139,2.86153846 61.3267327,2.67692308 C61.5148515,2.49230769 61.7970297,2.4 62.0792079,2.4 C62.2673267,2.4 62.4554455,2.4 62.549505,2.49230769 L62.6435644,3.41538462 Z" id="Shape" fill="#FFFFFF"></path>
                            <path d="M68.0049505,4.8 C68.0049505,5.53846154 67.8168317,6.18461538 67.3465347,6.64615385 C66.8762376,7.10769231 66.3118812,7.29230769 65.5594059,7.29230769 C64.8069307,7.29230769 64.2425743,7.10769231 63.7722772,6.64615385 C63.3019802,6.18461538 63.1138614,5.63076923 63.1138614,4.89230769 C63.1138614,4.06153846 63.3019802,3.50769231 63.7722772,3.04615385 C64.2425743,2.58461538 64.8069307,2.4 65.6534653,2.4 C66.4059406,2.4 66.970297,2.58461538 67.3465347,3.04615385 C67.8168317,3.41538462 68.0049505,4.06153846 68.0049505,4.8 M67.0643564,4.89230769 C67.0643564,4.33846154 66.970297,3.87692308 66.6881188,3.6 C66.4059406,3.32307692 66.1237624,3.13846154 65.6534653,3.13846154 C65.1831683,3.13846154 64.8069307,3.32307692 64.5247525,3.6 C64.2425743,3.87692308 64.1485149,4.33846154 64.1485149,4.89230769 C64.1485149,5.44615385 64.2425743,5.81538462 64.5247525,6.18461538 C64.8069307,6.46153846 65.1831683,6.64615385 65.6534653,6.64615385 C66.1237624,6.64615385 66.5,6.46153846 66.7821782,6.18461538 C66.970297,5.81538462 67.0643564,5.44615385 67.0643564,4.89230769" id="Shape" fill="#FFFFFF"></path>
                            <path d="M76.470297,7.29230769 L75.529703,7.29230769 L75.529703,4.52307692 C75.529703,4.06153846 75.4356436,3.69230769 75.3415842,3.41538462 C75.1534653,3.23076923 74.8712871,3.04615385 74.4950495,3.04615385 C74.2128713,3.04615385 73.9306931,3.23076923 73.7425743,3.50769231 C73.5544554,3.78461538 73.460396,4.15384615 73.460396,4.52307692 L73.460396,7.2 L72.519802,7.2 L72.519802,4.33846154 C72.519802,3.50769231 72.1435644,3.04615385 71.4851485,3.04615385 C71.2029703,3.04615385 70.9207921,3.23076923 70.6386139,3.41538462 C70.450495,3.69230769 70.3564356,4.06153846 70.3564356,4.43076923 L70.3564356,7.10769231 L69.4158416,7.10769231 L69.4158416,2.30769231 L70.3564356,2.30769231 L70.3564356,3.04615385 C70.7326733,2.49230769 71.2029703,2.21538462 71.8613861,2.21538462 C72.1435644,2.21538462 72.4257426,2.30769231 72.7079208,2.49230769 C72.990099,2.67692308 73.1782178,2.86153846 73.2722772,3.23076923 C73.460396,2.86153846 73.6485149,2.67692308 73.9306931,2.49230769 C74.2128713,2.30769231 74.4950495,2.21538462 74.8712871,2.21538462 C75.9059406,2.21538462 76.470297,2.86153846 76.470297,4.15384615 L76.470297,7.29230769 Z" id="Shape" fill="#FFFFFF"></path>
                        </g>
                    </g>
                </g>
            </g>
        </g>
    </g>
</svg>