<?xml version="1.0" encoding="UTF-8"?>
<svg width="9px" height="18px" viewBox="0 0 9 18" version="1.1" xmlns="http://www.w3.org/2000/svg" xmlns:xlink="http://www.w3.org/1999/xlink">
    <!-- Generator: Sketch 50 (54983) - http://www.bohemiancoding.com/sketch -->
    <title>Icon Copy 5</title>
    <desc>Created with Sketch.</desc>
    <defs></defs>
    <g id="Design" stroke="none" stroke-width="1" fill="none" fill-rule="evenodd" opacity="0.8">
        <g id="dropdown_menu" transform="translate(-720.000000, -253.000000)" fill="#533279">
            <path d="M720.276043,262.598505 C719.907986,262.221917 719.907986,261.611417 720.276043,261.234828 L727.530139,253.807887 C727.71393,253.619593 728.012355,253.619593 728.196147,253.807887 L728.862156,254.489725 C729.045948,254.67802 729.045948,254.98327 728.862156,255.171564 L722.6066,261.575505 C722.422808,261.763799 722.422808,262.069534 722.6066,262.257343 L728.862156,268.66177 C729.045948,268.850064 729.045948,269.155314 728.862156,269.343608 L728.196147,270.025446 C728.012355,270.21374 727.71393,270.21374 727.530139,270.025446 L720.276043,262.598505 Z" id="Icon-Copy-5" transform="translate(724.500000, 261.916667) scale(-1, 1) translate(-724.500000, -261.916667) "></path>
        </g>
    </g>
</svg>