<?xml version="1.0" encoding="UTF-8"?>
<svg width="29px" height="25px" viewBox="0 0 29 25" version="1.1" xmlns="http://www.w3.org/2000/svg" xmlns:xlink="http://www.w3.org/1999/xlink">
    <!-- Generator: Sketch 50 (54983) - http://www.bohemiancoding.com/sketch -->
    <title>onboard-icon</title>
    <desc>Created with Sketch.</desc>
    <defs>
        <polygon id="path-1" points="0.455 0.24 14.73 0.24 14.73 14.5147 0.455 14.5147"></polygon>
    </defs>
    <g id="Design" stroke="none" stroke-width="1" fill="none" fill-rule="evenodd">
        <g id="dropdown_menu" transform="translate(-489.000000, -411.000000)">
            <g id="onboard-icon" transform="translate(489.000000, 411.000000)">
                <path d="M15.6384,16.6399 C15.6324,16.6449 15.5674,16.6799 15.5434,16.7039 C15.4794,16.7689 15.4794,16.7729 15.4794,16.7989 L15.4794,19.2799 C15.4834,19.2849 15.5184,19.3509 15.5424,19.3739 C15.6074,19.4389 15.6124,19.4389 15.6384,19.4389 L20.2434,19.4389 C20.3904,19.4389 20.5094,19.5579 20.5094,19.7039 L20.5094,24.3099 C20.5134,24.3149 20.5494,24.3809 20.5734,24.4049 C20.6374,24.4689 20.6404,24.4689 20.6684,24.4689 L23.1484,24.4689 C23.1544,24.4639 23.2194,24.4289 23.2434,24.4049 C23.3074,24.3409 23.3074,24.3359 23.3074,24.3099 L23.3074,19.7039 C23.3074,19.5579 23.4264,19.4389 23.5734,19.4389 L28.1784,19.4389 C28.1844,19.4349 28.2494,19.3989 28.2744,19.3739 C28.3374,19.3109 28.3374,19.3059 28.3374,19.2799 L28.3374,16.7989 C28.3334,16.7939 28.2984,16.7279 28.2744,16.7039 C28.2104,16.6399 28.2054,16.6399 28.1784,16.6399 L23.5734,16.6399 C23.4264,16.6399 23.3074,16.5219 23.3074,16.3739 L23.3074,11.7699 C23.3034,11.7639 23.2684,11.6989 23.2434,11.6739 C23.1804,11.6109 23.1754,11.6109 23.1484,11.6109 L20.6684,11.6109 C20.6624,11.6149 20.5974,11.6499 20.5734,11.6739 C20.5094,11.7389 20.5094,11.7429 20.5094,11.7699 L20.5094,16.3739 C20.5094,16.5219 20.3904,16.6399 20.2434,16.6399 L15.6384,16.6399 Z M23.1484,24.9999 L20.6684,24.9999 C20.4164,24.9999 20.2794,24.8629 20.1974,24.7799 C20.0904,24.6729 19.9774,24.4669 19.9774,24.3099 L19.9774,19.9699 L15.6384,19.9699 C15.3884,19.9699 15.2504,19.8339 15.1684,19.7519 C15.0594,19.6439 14.9474,19.4379 14.9474,19.2799 L14.9474,16.7989 C14.9474,16.5469 15.0854,16.4109 15.1674,16.3279 C15.2744,16.2209 15.4804,16.1089 15.6384,16.1089 L19.9774,16.1089 L19.9774,11.7699 C19.9774,11.5179 20.1154,11.3809 20.1974,11.2989 C20.3054,11.1909 20.5114,11.0789 20.6684,11.0789 L23.1484,11.0789 C23.3994,11.0789 23.5364,11.2159 23.6184,11.2979 C23.7274,11.4069 23.8394,11.6129 23.8394,11.7699 L23.8394,16.1089 L28.1784,16.1089 C28.4304,16.1089 28.5684,16.2459 28.6494,16.3289 C28.7574,16.4359 28.8694,16.6419 28.8694,16.7989 L28.8694,19.2799 C28.8694,19.5329 28.7314,19.6689 28.6494,19.7509 C28.5404,19.8589 28.3354,19.9699 28.1784,19.9699 L23.8394,19.9699 L23.8394,24.3099 C23.8394,24.5619 23.7014,24.6999 23.6184,24.7809 C23.5124,24.8879 23.3064,24.9999 23.1484,24.9999 Z" id="Fill-1" fill="#36246A"></path>
                <g id="Group-5" transform="translate(4.999500, 0.000000)">
                    <mask id="mask-2" fill="white">
                        <use xlink:href="#path-1"></use>
                    </mask>
                    <g id="Clip-4"></g>
                    <path d="M7.593,0.7707 C3.95,0.7707 0.986,3.7347 0.986,7.3767 C0.986,11.0197 3.95,13.9837 7.593,13.9837 C11.236,13.9837 14.199,11.0197 14.199,7.3767 C14.199,3.7347 11.236,0.7707 7.593,0.7707 M7.593,14.5147 C3.657,14.5147 0.455,11.3127 0.455,7.3767 C0.455,3.4417 3.657,0.2397 7.593,0.2397 C11.529,0.2397 14.73,3.4417 14.73,7.3767 C14.73,11.3127 11.529,14.5147 7.593,14.5147" id="Fill-3" fill="#36246A" mask="url(#mask-2)"></path>
                </g>
                <path d="M0.632,24.1858 L18.42,24.1858 L18.42,21.5288 L15.638,21.5288 C15.02,21.5288 14.45,21.2998 14.034,20.8838 C13.618,20.4678 13.389,19.8988 13.389,19.2798 L13.389,16.7988 C13.389,16.6928 13.389,16.5978 13.399,16.4988 L7.137,16.4988 C3.494,16.4988 0.531,19.4618 0.531,23.1048 C0.531,23.4978 0.576,23.8388 0.632,24.1858 M18.685,24.7168 L0.406,24.7168 C0.277,24.7168 0.166,24.6228 0.144,24.4958 C0.073,24.0668 0,23.6238 0,23.1048 C0,19.1688 3.201,15.9668 7.137,15.9668 L13.726,15.9668 C13.811,15.9668 13.892,16.0078 13.942,16.0778 C13.991,16.1468 14.005,16.2368 13.978,16.3178 C13.921,16.4888 13.921,16.5988 13.921,16.7988 L13.921,19.2798 C13.921,19.7558 14.094,20.1928 14.409,20.5078 C14.725,20.8248 15.161,20.9978 15.638,20.9978 L18.685,20.9978 C18.832,20.9978 18.951,21.1168 18.951,21.2628 L18.951,24.4518 C18.951,24.5978 18.832,24.7168 18.685,24.7168" id="Fill-6" fill="#36246A"></path>
            </g>
        </g>
    </g>
</svg>