<?xml version="1.0" encoding="UTF-8"?>
<svg width="62px" height="62px" viewBox="0 0 62 62" version="1.1" xmlns="http://www.w3.org/2000/svg" xmlns:xlink="http://www.w3.org/1999/xlink">
    <!-- Generator: Sketch 52.6 (67491) - http://www.bohemiancoding.com/sketch -->
    <title>Group 4</title>
    <desc>Created with Sketch.</desc>
    <defs>
        <polygon id="path-1" points="0.0001 0.557 6.59435 0.557 6.59435 28 0.0001 28"></polygon>
        <polygon id="path-3" points="0.71115 0.557 7.31 0.557 7.31 28 0.71115 28"></polygon>
    </defs>
    <g id="Design" stroke="none" stroke-width="1" fill="none" fill-rule="evenodd">
        <g id="customers" transform="translate(-237.000000, -421.000000)">
            <g id="::-Customers-Intro" transform="translate(136.000000, 241.000000)">
                <g id="Group-4" transform="translate(102.000000, 181.000000)">
                    <circle id="Oval" stroke="#704C9F" stroke-width="1.5" cx="30" cy="30" r="30"></circle>
                    <g id="Group-17" transform="translate(11.000000, 15.000000)">
                        <path d="M19.1548,13.3518 C18.4018,13.3518 17.7828,13.9648 17.7828,14.7178 C17.7828,15.4788 18.3958,16.0918 19.1548,16.0918 C19.9098,16.0918 20.5228,15.4788 20.5228,14.7178 C20.5228,13.9648 19.9098,13.3518 19.1548,13.3518 M19.1548,17.2548 C17.7598,17.2548 16.6208,16.1138 16.6208,14.7178 C16.6208,13.3228 17.7598,12.1888 19.1548,12.1888 C20.5508,12.1888 21.6858,13.3228 21.6858,14.7178 C21.6858,16.1138 20.5508,17.2548 19.1548,17.2548" id="Fill-1" fill="#36246A"></path>
                        <path d="M13.728,20.7244 C13.581,20.7244 13.433,20.6674 13.32,20.5544 C11.761,18.9954 10.899,16.9254 10.899,14.7244 C10.899,12.5184 11.761,10.4424 13.32,8.8894 C13.546,8.6624 13.91,8.6624 14.136,8.8894 C14.364,9.1154 14.364,9.4844 14.136,9.7044 C12.797,11.0494 12.062,12.8304 12.062,14.7244 C12.062,16.6124 12.797,18.3944 14.136,19.7324 C14.364,19.9594 14.364,20.3284 14.136,20.5544 C14.029,20.6674 13.876,20.7244 13.728,20.7244" id="Fill-3" fill="#36246A"></path>
                        <path d="M9.8726,24.5862 C9.7246,24.5862 9.5776,24.5242 9.4586,24.4162 C6.8716,21.8242 5.4426,18.3822 5.4426,14.7182 C5.4426,11.0612 6.8716,7.6192 9.4586,5.0272 C9.6856,4.7992 10.0536,4.7992 10.2796,5.0272 C10.5066,5.2532 10.5066,5.6222 10.2796,5.8492 C7.9096,8.2202 6.6056,11.3672 6.6056,14.7182 C6.6056,18.0702 7.9096,21.2242 10.2796,23.5942 C10.5066,23.8212 10.5066,24.1902 10.2796,24.4162 C10.1666,24.5242 10.0186,24.5862 9.8726,24.5862" id="Fill-5" fill="#36246A"></path>
                        <g id="Group-9" transform="translate(0.000000, 0.443500)">
                            <mask id="mask-2" fill="white">
                                <use xlink:href="#path-1"></use>
                            </mask>
                            <g id="Clip-8"></g>
                            <path d="M6.0161,28.0001 C5.8631,28.0001 5.7151,27.9421 5.6011,27.8291 C-1.8669,20.3541 -1.8669,8.2021 5.6011,0.7261 C5.8291,0.5001 6.1981,0.5001 6.4241,0.7261 C6.6511,0.9541 6.6511,1.3231 6.4241,1.5491 C-0.5969,8.5701 -0.5969,19.9861 6.4241,27.0071 C6.6511,27.2331 6.6511,27.6021 6.4241,27.8291 C6.3111,27.9421 6.1621,28.0001 6.0161,28.0001" id="Fill-7" fill="#36246A" mask="url(#mask-2)"></path>
                        </g>
                        <path d="M24.5777,20.7244 C24.4297,20.7244 24.2827,20.6674 24.1687,20.5544 C23.9417,20.3284 23.9417,19.9594 24.1687,19.7324 C25.5067,18.3944 26.2447,16.6124 26.2447,14.7244 C26.2447,12.8304 25.5067,11.0494 24.1687,9.7044 C23.9417,9.4844 23.9417,9.1154 24.1687,8.8894 C24.3957,8.6624 24.7647,8.6624 24.9917,8.8894 C26.5447,10.4424 27.4067,12.5184 27.4067,14.7244 C27.4067,16.9254 26.5447,19.0004 24.9917,20.5544 C24.8787,20.6674 24.7297,20.7244 24.5777,20.7244" id="Fill-10" fill="#36246A"></path>
                        <path d="M28.4331,24.5862 C28.2861,24.5862 28.1391,24.5242 28.0261,24.4162 C27.7971,24.1902 27.7971,23.8212 28.0261,23.5942 C30.3961,21.2242 31.7001,18.0702 31.7001,14.7182 C31.7001,11.3672 30.3961,8.2202 28.0261,5.8492 C27.7971,5.6222 27.7971,5.2532 28.0261,5.0272 C28.2521,4.7992 28.6201,4.7992 28.8471,5.0272 C31.4331,7.6192 32.8631,11.0612 32.8631,14.7182 C32.8631,18.3822 31.4331,21.8242 28.8471,24.4162 C28.7341,24.5242 28.5861,24.5862 28.4331,24.5862" id="Fill-12" fill="#36246A"></path>
                        <g id="Group-16" transform="translate(31.000000, 0.443500)">
                            <mask id="mask-4" fill="white">
                                <use xlink:href="#path-3"></use>
                            </mask>
                            <g id="Clip-15"></g>
                            <path d="M1.2954,28.0001 C1.1494,28.0001 0.9944,27.9421 0.8814,27.8291 C0.6544,27.6021 0.6544,27.2331 0.8814,27.0071 C7.9024,19.9861 7.9024,8.5701 0.8814,1.5491 C0.6544,1.3231 0.6544,0.9541 0.8814,0.7261 C1.1084,0.5001 1.4774,0.5001 1.7034,0.7261 C9.1794,8.2021 9.1794,20.3541 1.7034,27.8291 C1.5904,27.9421 1.4434,28.0001 1.2954,28.0001" id="Fill-14" fill="#36246A" mask="url(#mask-4)"></path>
                        </g>
                    </g>
                </g>
            </g>
        </g>
    </g>
</svg>