<?xml version="1.0" encoding="UTF-8"?>
<svg width="62px" height="62px" viewBox="0 0 62 62" version="1.1" xmlns="http://www.w3.org/2000/svg" xmlns:xlink="http://www.w3.org/1999/xlink">
    <!-- Generator: Sketch 52.6 (67491) - http://www.bohemiancoding.com/sketch -->
    <title>icon 3</title>
    <desc>Created with Sketch.</desc>
    <defs>
        <polygon id="path-1" points="0 0.0878535354 19.9889286 0.0878535354 19.9889286 35.5 0 35.5"></polygon>
    </defs>
    <g id="Design" stroke="none" stroke-width="1" fill="none" fill-rule="evenodd">
        <g id="client_story-simple" transform="translate(-990.000000, -570.000000)">
            <g id="icon-3" transform="translate(991.000000, 571.000000)">
                <circle id="Oval-Copy-2" stroke="#704C9F" stroke-width="1.5" cx="30" cy="30" r="30"></circle>
                <g id="Page-1" transform="translate(20.000000, 12.000000)">
                    <path d="M11.5911379,11.6415293 C11.406846,11.4528236 11.1015904,11.4528236 10.9105389,11.6415293 C10.7266028,11.8259625 10.7266028,12.1339446 10.9105389,12.3162414 L14.3608521,15.7681327 L2.97745106,15.7681327 C2.71168657,15.7681327 2.5,15.9803377 2.5,16.246306 C2.5,16.5122743 2.71168657,16.72982 2.97745106,16.72982 L14.3608521,16.72982 L10.9105389,20.1760145 C10.7266028,20.3665005 10.7266028,20.6727023 10.9105389,20.8571355 C11.1015904,21.0476215 11.406846,21.0476215 11.5911379,20.8571355 L15.857245,16.5877566 C16.047585,16.4033234 16.047585,16.0953414 15.857245,15.9130445 L11.5911379,11.6415293 Z" id="Fill-1" fill="#FFFFFF"></path>
                    <g id="Group-5">
                        <mask id="mask-2" fill="white">
                            <use xlink:href="#path-1"></use>
                        </mask>
                        <g id="Clip-4"></g>
                    </g>
                    <path d="M17.3966786,34.318101 L2.59239286,34.318101 C1.81132143,34.318101 1.17703571,33.6816111 1.17703571,32.9009697 L1.17703571,28.4161364 L18.8120357,28.4161364 L18.8120357,32.9009697 C18.8120357,33.6816111 18.17775,34.318101 17.3966786,34.318101 Z M2.59239286,1.26975253 L17.3966786,1.26975253 C18.17775,1.26975253 18.8120357,1.90624242 18.8120357,2.68688384 L18.8120357,3.62960606 L1.17703571,3.62960606 L1.17703571,2.68688384 C1.17703571,1.90624242 1.81132143,1.26975253 2.59239286,1.26975253 Z M1.17703571,27.2378232 L18.8116786,27.2378232 L18.8116786,4.80791919 L1.17703571,4.80791919 L1.17703571,27.2378232 Z M17.3966786,0.0878535354 L2.59239286,0.0878535354 C1.16239286,0.0878535354 -0.000107142857,1.25505051 -0.000107142857,2.68688384 L-0.000107142857,32.9009697 C-0.000107142857,34.332803 1.16239286,35.5 2.59239286,35.5 L17.3966786,35.5 C18.8266786,35.5 19.9891786,34.332803 19.9891786,32.9009697 L19.9891786,2.68688384 C19.9891786,1.25505051 18.8266786,0.0878535354 17.3966786,0.0878535354 Z" id="Fill-3" fill="#FFFFFF"></path>
                    <path d="M10.5,32.7489562 C9.80986022,32.7489562 9.24810088,32.1875807 9.24810088,31.4979124 C9.24810088,30.8120398 9.80986022,30.2506642 10.5,30.2506642 C11.1901398,30.2506642 11.7518991,30.8120398 11.7518991,31.4979124 C11.7518991,32.1875807 11.1901398,32.7489562 10.5,32.7489562 M10.5,29 C9.12010027,29 8,30.1227511 8,31.4979124 C8,32.8768694 9.12010027,34 10.5,34 C11.8798997,34 13,32.8768694 13,31.4979124 C13,30.1227511 11.8798997,29 10.5,29" id="Fill-6" fill="#FFFFFF"></path>
                    <path d="M7.58398299,3 L9.91637137,3 C10.2377746,3 10.5,2.66368325 10.5,2.25 C10.5,1.83722694 10.2377746,1.5 9.91637137,1.5 L7.58398299,1.5 C7.26187101,1.5 7,1.83722694 7,2.25 C7,2.66368325 7.26187101,3 7.58398299,3" id="Fill-8" fill="#FFFFFF"></path>
                    <path d="M11.9979732,3 L12.4989866,3 C12.7756384,3 13,2.66368325 13,2.25 C13,1.83722694 12.7756384,1.5 12.4989866,1.5 L11.9979732,1.5 C11.7222335,1.5 11.5,1.83722694 11.5,2.25 C11.5,2.66368325 11.7222335,3 11.9979732,3" id="Fill-10" fill="#FFFFFF"></path>
                </g>
            </g>
        </g>
    </g>
</svg>