<?xml version="1.0" encoding="UTF-8"?>
<svg width="11px" height="9px" viewBox="0 0 11 9" version="1.1" xmlns="http://www.w3.org/2000/svg" xmlns:xlink="http://www.w3.org/1999/xlink">
    <!-- Generator: Sketch 49.3 (51167) - http://www.bohemiancoding.com/sketch -->
    <title>arrow-r</title>
    <desc>Created with Sketch.</desc>
    <defs>
        <linearGradient x1="0.621568627%" y1="50.2430233%" x2="100.22549%" y2="50.2430233%" id="linearGradient-1">
            <stop stop-color="#5E4F88" offset="16.28%"></stop>
            <stop stop-color="#64568D" offset="59.34%"></stop>
            <stop stop-color="#5B4D86" offset="71%"></stop>
            <stop stop-color="#443375" offset="90.35%"></stop>
            <stop stop-color="#36246A" offset="100%"></stop>
        </linearGradient>
        <linearGradient x1="49.7895238%" y1="99.2568182%" x2="49.7895238%" y2="-0.0920454545%" id="linearGradient-2">
            <stop stop-color="#5E4F88" offset="16.28%"></stop>
            <stop stop-color="#64568D" offset="59.34%"></stop>
            <stop stop-color="#5B4D86" offset="71%"></stop>
            <stop stop-color="#443375" offset="90.35%"></stop>
            <stop stop-color="#36246A" offset="100%"></stop>
        </linearGradient>
    </defs>
    <g id="Symbols" stroke="none" stroke-width="1" fill="none" fill-rule="evenodd">
        <g id="Header_overlay-Copy" transform="translate(-1371.000000, -44.000000)" fill-rule="nonzero">
            <g id="reverse-button" transform="translate(1281.000000, 31.000000)">
                <g id="button_lol_so_lil" transform="translate(84.000000, 7.000000)">
                    <g id="Group" transform="translate(6.000000, 6.000000)">
                        <g id="arrow-r">
                            <path d="M6.1,8.6 L4.7,7.2 L7.6,4.3 L4.7,1.4 L6.1,3.55271368e-15 L10.3348389,4.5 L6.1,8.6 Z M1.5,8.6 L0.1,7.2 L3,4.3 L0.1,1.4 L1.5,3.55271368e-15 L5.73483887,4.5 L1.5,8.6 Z" id="Shape" fill="url(#linearGradient-1)"></path>
                            <path d="M0.3,1.5 L1.5,0.3 L5.6,4.4 L1.5,8.5 L0.3,7.3 L3.1,4.5 L3.2,4.4 L3.1,4.3 L0.3,1.5 Z M4.9,1.5 L6.1,0.3 L10.2,4.4 L6.1,8.5 L4.9,7.3 L7.7,4.5 L7.8,4.4 L7.7,4.3 L4.9,1.5 Z M0,1.5 L2.9,4.4 L0,7.3 L1.5,8.8 L5.9,4.4 L1.5,0 L0,1.5 Z M4.6,1.5 L7.5,4.4 L4.6,7.3 L6.1,8.8 L10.5,4.4 L6.1,0 L4.6,1.5 Z" id="Shape" fill="url(#linearGradient-2)"></path>
                            <path d="M0.3,1.5 L1.5,0.3 L5.6,4.4 L1.5,8.5 L0.3,7.3 L3.1,4.5 L3.2,4.4 L3.1,4.3 L0.3,1.5 Z M4.9,1.5 L6.1,0.3 L10.2,4.4 L6.1,8.5 L4.9,7.3 L7.7,4.5 L7.8,4.4 L7.7,4.3 L4.9,1.5 Z M0,1.5 L2.9,4.4 L0,7.3 L1.5,8.8 L5.9,4.4 L1.5,0 L0,1.5 Z M4.6,1.5 L7.5,4.4 L4.6,7.3 L6.1,8.8 L10.5,4.4 L6.1,0 L4.6,1.5 Z" id="Shape" fill="url(#linearGradient-2)"></path>
                        </g>
                    </g>
                </g>
            </g>
        </g>
    </g>
</svg>