<?xml version="1.0" encoding="UTF-8"?>
<svg width="21px" height="21px" viewBox="0 0 21 21" version="1.1" xmlns="http://www.w3.org/2000/svg" xmlns:xlink="http://www.w3.org/1999/xlink">
    <!-- Generator: Sketch 50.2 (55047) - http://www.bohemiancoding.com/sketch -->
    <title>purple-linkedin</title>
    <desc>Created with Sketch.</desc>
    <defs></defs>
    <g id="Design" stroke="none" stroke-width="1" fill="none" fill-rule="evenodd">
        <g id="news_post" transform="translate(-162.000000, -1041.000000)" fill="#704C9F">
            <g id="share" transform="translate(86.000000, 841.000000)">
                <g id="social-sidebar" transform="translate(73.000000, 40.000000)">
                    <path d="M24,181 L19.3179715,181 L19.3179715,173.824199 C19.3179715,171.945943 18.5855872,170.66371 16.975089,170.66371 C15.7432384,170.66371 15.0581851,171.528989 14.7393238,172.362898 C14.6197509,172.662216 14.6384342,173.077864 14.6384342,173.496125 L14.6384342,181 L10,181 C10,181 10.0597865,168.288769 10,167.133321 L14.6384342,167.133321 L14.6384342,169.309588 C14.9124555,168.358043 16.3946619,167 18.7599644,167 C21.694484,167 24,168.994585 24,173.289609 L24,181 Z M5.17662773,164.375 L5.15053429,164.375 C3.84586233,164.375 3,163.410836 3,162.189878 C3,160.943954 3.87086854,160 5.20163395,160 C6.53131213,160 7.34890656,160.941576 7.375,162.186311 C7.375,163.408458 6.53131213,164.375 5.17662773,164.375 Z M3,181 L6.5,181 L6.5,167 L3,167 L3,181 Z" id="purple-linkedin"></path>
                </g>
            </g>
        </g>
    </g>
</svg>