<?xml version="1.0" encoding="UTF-8"?>
<svg width="26px" height="21px" viewBox="0 0 26 21" version="1.1" xmlns="http://www.w3.org/2000/svg" xmlns:xlink="http://www.w3.org/1999/xlink">
    <!-- Generator: Sketch 50.2 (55047) - http://www.bohemiancoding.com/sketch -->
    <title>purple-twitter</title>
    <desc>Created with Sketch.</desc>
    <defs></defs>
    <g id="Design" stroke="none" stroke-width="1" fill="none" fill-rule="evenodd">
        <g id="news_post" transform="translate(-159.000000, -881.000000)" fill="#704C9F">
            <g id="share" transform="translate(86.000000, 841.000000)">
                <g id="social-sidebar" transform="translate(73.000000, 40.000000)">
                    <path d="M25.5180702,2.41982918 C24.5804455,2.83027 23.5694285,3.1078343 22.5119795,3.23185239 C23.5933933,2.59404507 24.4231762,1.58270706 24.812605,0.377959896 C23.8015879,0.969998639 22.6812313,1.39815633 21.4874823,1.62847565 C20.5348795,0.625996078 19.1733766,0 17.6665867,0 C14.7773247,0 12.4332629,2.31057514 12.4332629,5.16003842 C12.4332629,5.56457362 12.4766992,5.95729758 12.5680652,6.33525747 C8.21694742,6.11970222 4.36010462,4.0674981 1.77639439,0.943423334 C1.32555568,1.70820156 1.06793356,2.59404507 1.06793356,3.53894481 C1.06793356,5.32834869 1.99207803,6.90810294 3.39701727,7.83380941 C2.53877614,7.80871051 1.7314603,7.57396198 1.02449727,7.19009646 L1.02449727,7.25358191 C1.02449727,9.75461341 2.82934992,11.8407749 5.22583477,12.3132247 C4.78548068,12.43429 4.32415735,12.4948227 3.84486038,12.4948227 C3.5078547,12.4948227 3.17833803,12.4638181 2.86080379,12.4032855 C3.52582833,14.4525368 5.45949204,15.9466595 7.75113068,15.9850461 C5.95826045,17.3699147 3.70107129,18.1952256 1.24916773,18.1952256 C0.826787272,18.1952256 0.408900227,18.1716031 0,18.1243581 C2.31710129,19.5859999 5.06856545,20.4423153 8.02522863,20.4423153 C17.6561021,20.4423153 22.9208798,12.5789778 22.9208798,5.7594592 C22.9208798,5.53504551 22.9163864,5.31063182 22.9059017,5.09212375 C23.9289012,4.36277927 24.8185962,3.45478967 25.5180702,2.41982918" id="purple-twitter"></path>
                </g>
            </g>
        </g>
    </g>
</svg>