<?xml version="1.0" encoding="UTF-8"?>
<svg width="31px" height="20px" viewBox="0 0 31 20" version="1.1" xmlns="http://www.w3.org/2000/svg" xmlns:xlink="http://www.w3.org/1999/xlink">
    <!-- Generator: Sketch 50.2 (55047) - http://www.bohemiancoding.com/sketch -->
    <title>purple-googleplus</title>
    <desc>Created with Sketch.</desc>
    <defs></defs>
    <g id="Design" stroke="none" stroke-width="1" fill="none" fill-rule="evenodd">
        <g id="news_post" transform="translate(-161.000000, -989.000000)" fill="#704C9F">
            <g id="share" transform="translate(86.000000, 841.000000)">
                <g id="social-sidebar" transform="translate(73.000000, 40.000000)">
                    <path d="M28.9963832,115.917805 L28.9963832,112.578636 L26.6122581,112.578636 L26.6122581,115.917805 L23.1768871,115.917805 L23.1768871,118.30193 L26.6122581,118.30193 L26.6122581,121.737301 L28.9963832,121.737301 L28.9963832,118.30193 L32.3355526,118.30193 L32.3355526,115.917805 L28.9963832,115.917805 Z M11.6354906,115.726796 L11.6354906,119.542791 C11.6354906,119.542791 15.3371586,119.538608 16.8443161,119.538608 C16.0273001,122.011964 14.7585551,123.358785 11.6354906,123.358785 C8.47338776,123.358785 6.00700332,120.796199 6.00700332,117.634096 C6.00700332,114.473388 8.47338776,111.910802 11.6354906,111.910802 C13.3057724,111.910802 14.386297,112.499165 15.3748027,113.317575 C16.1681168,112.524261 16.101194,112.411329 18.1186379,110.508211 C16.4065293,108.949467 14.1311538,108 11.6354906,108 C6.31373287,108 2,112.313733 2,117.634096 C2,122.955854 6.31373287,127.269587 11.6354906,127.269587 C19.5881513,127.269587 21.5317013,120.34447 20.8875692,115.726796 L11.6354906,115.726796 Z" id="purple-googleplus"></path>
                </g>
            </g>
        </g>
    </g>
</svg>