<?xml version="1.0" encoding="UTF-8"?>
<svg width="24px" height="29px" viewBox="0 0 24 29" version="1.1" xmlns="http://www.w3.org/2000/svg" xmlns:xlink="http://www.w3.org/1999/xlink">
    <!-- Generator: Sketch 50 (54983) - http://www.bohemiancoding.com/sketch -->
    <title>rb-icon</title>
    <desc>Created with Sketch.</desc>
    <defs>
        <polygon id="path-1" points="0.914 0.539 22.2753 0.539 22.2753 17.3495 0.914 17.3495"></polygon>
        <polygon id="path-3" points="0.34 0.485 16.386 0.485 16.386 29 0.34 29"></polygon>
    </defs>
    <g id="Design" stroke="none" stroke-width="1" fill="none" fill-rule="evenodd">
        <g id="dropdown_menu" transform="translate(-492.000000, -247.000000)">
            <g id="rb-icon" transform="translate(492.000000, 247.000000)">
                <g id="Group-3" transform="translate(1.000000, 6.000000)">
                    <mask id="mask-2" fill="white">
                        <use xlink:href="#path-1"></use>
                    </mask>
                    <g id="Clip-2"></g>
                    <path d="M1.2343,7.7855 C0.4553,7.7855 -0.1827,8.3525 -0.1827,9.2025 C-0.1827,9.9815 0.3843,10.6195 1.2343,10.6195 C2.0133,10.6195 2.6513,9.9815 2.6513,9.2025 C2.6513,8.4235 2.0133,7.7855 1.2343,7.7855 M16.3243,7.7855 C15.5453,7.7855 14.9083,8.3525 14.9083,9.2025 C14.9083,9.9815 15.4743,10.6195 16.3243,10.6195 C17.1033,10.6195 17.7413,9.9815 17.7413,9.2025 C17.7413,8.4235 17.1743,7.7855 16.3243,7.7855 M8.8153,3.6775 C5.9813,3.6775 3.6433,5.9435 3.6433,8.9195 C3.6433,11.7535 5.9103,14.0915 8.8153,14.0915 C11.6483,14.0915 14.0573,11.8235 14.0573,8.9195 C14.0573,6.0145 11.6483,3.6775 8.8153,3.6775 M-2.5907,5.3775 C-1.2447,5.3775 -0.1827,4.3135 -0.1827,2.9685 C-0.1827,2.7555 -0.1827,2.6845 -0.2527,2.5435 L17.3163,2.5435 L17.3163,2.8265 C17.3163,4.1725 18.3083,5.2355 19.7253,5.2355 C19.9373,5.2355 20.1503,5.1645 20.2923,5.1645 L20.2203,12.3905 C20.0083,12.3195 19.8673,12.3195 19.6543,12.3195 C18.3083,12.3195 17.2463,13.3115 17.2463,14.7285 C17.2463,14.9405 17.3163,15.1535 17.3163,15.2955 L-0.2527,15.2955 C-0.1827,15.1535 -0.1827,15.0125 -0.1827,14.8705 C-0.1827,13.5235 -1.1737,12.4615 -2.5907,12.4615 C-2.7327,12.4615 -2.8737,12.4615 -3.0167,12.5325 L-3.0167,5.3065 C-2.8737,5.3775 -2.7327,5.3775 -2.5907,5.3775 M19.9373,0.4885 L-2.6617,0.4885 C-3.9377,0.4885 -4.9997,1.4805 -4.9997,2.8265 L-4.9997,15.0125 C-4.9997,16.2875 -4.0077,17.3495 -2.6617,17.3495 L19.9373,17.3495 C21.2133,17.3495 22.2753,16.3575 22.2753,15.0125 L22.2753,2.8975 C22.2753,1.5515 21.2133,0.4885 19.9373,0.4885 M1.2343,8.3165 C1.7223,8.3165 2.1203,8.7145 2.1203,9.2025 C2.1203,9.6905 1.7223,10.0885 1.2343,10.0885 C0.7133,10.0885 0.3483,9.7235 0.3483,9.2025 C0.3483,8.6815 0.7133,8.3165 1.2343,8.3165 M16.3243,8.3165 C16.8453,8.3165 17.2103,8.6815 17.2103,9.2025 C17.2103,9.6905 16.8123,10.0885 16.3243,10.0885 C15.8033,10.0885 15.4393,9.7235 15.4393,9.2025 C15.4393,8.6815 15.8033,8.3165 16.3243,8.3165 M8.8153,4.2085 C11.4133,4.2085 13.5263,6.3215 13.5263,8.9195 C13.5263,11.4775 11.4133,13.5595 8.8153,13.5595 C6.2553,13.5595 4.1743,11.4775 4.1743,8.9195 C4.1743,6.2775 6.2133,4.2085 8.8153,4.2085 M-2.5907,4.8465 C-2.6717,4.8465 -2.7487,4.8465 -2.7787,4.8305 C-2.8537,4.7935 -2.9347,4.7745 -3.0167,4.7745 C-3.1137,4.7745 -3.2097,4.8015 -3.2957,4.8535 C-3.4527,4.9505 -3.5477,5.1225 -3.5477,5.3065 L-3.5477,12.5325 C-3.5477,12.7165 -3.4527,12.8875 -3.2957,12.9845 C-3.2097,13.0375 -3.1137,13.0635 -3.0167,13.0635 C-2.9347,13.0635 -2.8537,13.0455 -2.7787,13.0075 C-2.7487,12.9925 -2.6717,12.9925 -2.5907,12.9925 C-1.5027,12.9925 -0.7137,13.7825 -0.7137,14.8705 C-0.7137,14.9515 -0.7137,15.0285 -0.7287,15.0575 C-0.8107,15.2225 -0.8017,15.4185 -0.7047,15.5745 C-0.6087,15.7315 -0.4377,15.8265 -0.2527,15.8265 L17.3163,15.8265 C17.6103,15.8265 17.8473,15.5895 17.8473,15.2955 C17.8473,15.1825 17.8283,15.0755 17.8083,14.9725 C17.7933,14.8865 17.7773,14.7975 17.7773,14.7285 C17.7773,13.6405 18.5663,12.8505 19.6543,12.8505 C19.8493,12.8505 19.9223,12.8505 20.0523,12.8945 C20.1083,12.9135 20.1653,12.9225 20.2203,12.9225 C20.3303,12.9225 20.4383,12.8885 20.5293,12.8235 C20.6683,12.7245 20.7513,12.5655 20.7533,12.3955 L20.8233,5.1695 C20.8253,5.0275 20.7693,4.8905 20.6703,4.7905 C20.5693,4.6895 20.4333,4.6335 20.2923,4.6335 C20.1793,4.6335 20.0723,4.6525 19.9683,4.6725 C19.8823,4.6875 19.7943,4.7035 19.7253,4.7035 C18.6373,4.7035 17.8473,3.9145 17.8473,2.8265 L17.8473,2.5435 C17.8473,2.2495 17.6103,2.0125 17.3163,2.0125 L-0.2527,2.0125 C-0.4377,2.0125 -0.6027,2.1185 -0.6997,2.2745 C-0.7967,2.4315 -0.7997,2.6395 -0.7177,2.8035 C-0.7097,2.8465 -0.7137,2.8935 -0.7137,2.9685 C-0.7137,4.0205 -1.5377,4.8465 -2.5907,4.8465 M19.9373,1.0195 C20.4143,1.0195 20.8643,1.2115 21.2053,1.5595 C21.5523,1.9145 21.7443,2.3895 21.7443,2.8975 L21.7443,15.0125 C21.7443,16.0245 20.9513,16.8185 19.9373,16.8185 L-2.6617,16.8185 C-3.6747,16.8185 -4.4687,16.0245 -4.4687,15.0125 L-4.4687,2.8265 C-4.4687,1.8135 -3.6747,1.0195 -2.6617,1.0195 L19.9373,1.0195" id="Fill-1" fill="#36246A" mask="url(#mask-2)"></path>
                </g>
                <g id="Group-9">
                    <g id="Group-6">
                        <mask id="mask-4" fill="white">
                            <use xlink:href="#path-3"></use>
                        </mask>
                        <g id="Clip-5"></g>
                        <path d="M8.327,3.0707 C8.192,3.0707 8.098,3.1647 8.098,3.2997 C8.098,3.5757 8.557,3.5757 8.557,3.2997 C8.557,3.1627 8.465,3.0707 8.327,3.0707 Z M8.327,4.0617 C7.9,4.0617 7.566,3.7277 7.566,3.2997 C7.566,2.8737 7.9,2.5397 8.327,2.5397 C8.754,2.5397 9.089,2.8737 9.089,3.2997 C9.089,3.7277 8.754,4.0617 8.327,4.0617 Z M7.193,26.5917 C7.072,26.5917 6.892,26.6717 6.892,26.8917 C6.892,27.0127 6.973,27.1937 7.193,27.1937 L9.461,27.1937 C9.593,27.1937 9.69,27.1307 9.736,27.0707 C9.758,27.0437 9.781,27.0017 9.769,26.9567 C9.762,26.7757 9.681,26.5917 9.461,26.5917 L7.193,26.5917 Z M9.461,27.7247 L7.193,27.7247 C6.673,27.7247 6.361,27.3007 6.361,26.8917 C6.361,26.3707 6.785,26.0597 7.193,26.0597 L9.461,26.0597 C9.981,26.0597 10.293,26.4827 10.293,26.8917 C10.334,27.0217 10.286,27.2297 10.155,27.3987 C9.995,27.6027 9.735,27.7247 9.461,27.7247 Z M2.234,1.0157 C1.457,1.0157 0.871,1.6017 0.871,2.3797 L0.871,27.1047 C0.871,27.8827 1.457,28.4687 2.234,28.4687 L14.42,28.4687 C15.198,28.4687 15.784,27.8827 15.784,27.1047 L15.784,23.6157 L15.04,23.6157 L15.04,24.5537 C15.04,24.7007 14.921,24.8197 14.774,24.8197 L1.951,24.8197 C1.805,24.8197 1.685,24.7007 1.685,24.5537 L1.685,5.2847 C1.685,5.1377 1.805,5.0187 1.951,5.0187 L14.774,5.0187 C14.921,5.0187 15.04,5.1377 15.04,5.2847 L15.04,6.2227 L15.854,6.2227 L15.854,2.3797 C15.854,1.6017 15.268,1.0157 14.49,1.0157 L2.234,1.0157 Z M14.42,29.0007 L2.234,29.0007 C1.172,29.0007 0.34,28.1677 0.34,27.1047 L0.34,2.3797 C0.34,1.3167 1.172,0.4847 2.234,0.4847 L14.49,0.4847 C15.554,0.4847 16.386,1.3167 16.386,2.3797 L16.386,6.4887 C16.386,6.6347 16.266,6.7547 16.12,6.7547 L14.774,6.7547 C14.628,6.7547 14.509,6.6347 14.509,6.4887 L14.509,5.5497 L2.217,5.5497 L2.217,24.2887 L14.509,24.2887 L14.509,23.3497 C14.509,23.2027 14.628,23.0847 14.774,23.0847 L16.05,23.0847 C16.196,23.0847 16.315,23.2027 16.315,23.3497 L16.315,27.1047 C16.315,28.1677 15.482,29.0007 14.42,29.0007 Z" id="Fill-4" fill="#36246A" mask="url(#mask-4)"></path>
                    </g>
                    <path d="M9.6552,18.2455 L10.0442,18.2455 L10.0452,17.8735 C10.0452,17.6695 10.0752,17.4605 10.4382,17.3385 C10.8692,17.1955 11.0762,17.0705 11.2312,16.8645 C11.2362,16.8575 11.2412,16.8515 11.2472,16.8455 C11.4862,16.5785 11.5822,16.2305 11.5092,15.8925 C11.4222,15.4865 11.1002,15.1355 10.6292,14.9295 C10.2942,14.8685 9.9902,14.7165 9.6952,14.5685 C9.5452,14.4935 9.3742,14.4085 9.2012,14.2355 C9.0042,14.0385 8.9142,13.7885 8.9522,13.5485 C8.9882,13.3255 9.1302,13.1375 9.3412,13.0305 C9.3782,13.0135 9.4192,13.0035 9.4602,13.0035 C9.4652,13.0005 9.4912,12.9905 9.5172,12.9805 C9.5902,12.9575 9.6652,12.9325 9.7442,12.9325 C10.0972,12.8565 10.5332,12.9325 10.8572,13.1255 C10.8942,13.0235 10.9222,12.9555 10.9502,12.8875 C10.9772,12.8165 11.0052,12.7475 11.0332,12.6675 C10.9132,12.6285 10.8172,12.5965 10.7212,12.5635 C10.6212,12.5305 10.5202,12.4975 10.3872,12.4635 C9.9842,12.3625 9.9032,12.2605 9.9032,11.8515 C9.9032,11.7985 9.9032,11.7395 9.9012,11.6935 C9.8562,11.6915 9.7982,11.6915 9.7442,11.6915 L9.5312,11.6915 C9.5262,11.6915 9.5212,11.6915 9.5172,11.6905 L9.5132,11.9935 C9.5132,12.4015 9.4312,12.5055 9.0282,12.6055 C8.4962,12.8475 8.2242,13.2065 8.1662,13.7915 C8.1672,14.2395 8.4012,14.6045 8.8832,14.8805 C9.0072,14.9405 9.1762,15.0085 9.3462,15.0765 C9.5162,15.1445 9.6862,15.2125 9.8272,15.2805 C9.9152,15.3035 9.9912,15.3585 10.0722,15.4165 C10.1172,15.4485 10.1672,15.4855 10.2172,15.5105 C10.2422,15.5235 10.2652,15.5405 10.2862,15.5605 C10.4732,15.7485 10.5632,16.0005 10.5322,16.2495 C10.4992,16.5135 10.3402,16.7495 10.0922,16.8965 C9.8272,16.9925 9.5582,17.0845 9.2782,17.0055 C9.0582,17.0015 8.6902,16.9565 8.3482,16.7445 C8.3232,16.8215 8.3112,16.8675 8.3012,16.9135 C8.2832,16.9835 8.2642,17.0555 8.2322,17.1565 C8.2542,17.1735 8.2852,17.1965 8.3332,17.2275 C8.6242,17.3385 8.9022,17.4075 9.1702,17.4745 C9.5232,17.4765 9.6552,17.5835 9.6552,18.0155 L9.6552,18.2455 Z M10.0972,18.7765 L9.6022,18.7765 C9.3112,18.7765 9.1242,18.5895 9.1242,18.2985 L9.1242,18.0155 L9.1242,17.9975 L9.1062,17.9975 C8.7572,17.9185 8.4612,17.8445 8.0872,17.6955 C7.8672,17.5565 7.5502,17.3445 7.7352,16.9745 C7.7532,16.9145 7.7682,16.8495 7.7852,16.7845 C7.8042,16.7075 7.8242,16.6305 7.8622,16.5145 C7.9032,16.3915 7.9702,16.2415 8.1272,16.1765 C8.2902,16.1075 8.4492,16.1855 8.5162,16.2195 C8.8352,16.4525 9.1812,16.4745 9.3182,16.4745 C9.3462,16.4745 9.3752,16.4795 9.4022,16.4875 C9.5302,16.5315 9.6892,16.4785 9.8722,16.4175 C9.9252,16.3785 9.9932,16.2845 10.0052,16.1845 C10.0142,16.1045 9.9902,16.0285 9.9332,15.9615 C9.8742,15.9275 9.8152,15.8865 9.7612,15.8475 C9.7342,15.8275 9.7092,15.8075 9.6872,15.7955 C9.6662,15.7915 9.6442,15.7835 9.6252,15.7725 C9.4892,15.7055 9.3192,15.6375 9.1482,15.5695 C8.9652,15.4965 8.7812,15.4225 8.6332,15.3485 C7.9762,14.9745 7.6352,14.4285 7.6352,13.7655 C7.7162,12.9595 8.1022,12.4395 8.8562,12.1045 C8.9132,12.0885 8.9532,12.0785 8.9822,12.0705 L8.9822,11.9935 L8.9822,11.7105 C8.9822,11.3505 9.1732,11.1605 9.5312,11.1605 L9.7442,11.1605 C10.3182,11.1605 10.4342,11.2765 10.4342,11.8515 C10.4342,11.8815 10.4332,11.9055 10.4332,11.9285 C10.4572,11.9335 10.4852,11.9395 10.5162,11.9485 C10.6662,11.9855 10.7772,12.0225 10.8892,12.0595 C10.9902,12.0935 11.0912,12.1275 11.2252,12.1605 C11.6982,12.3895 11.6012,12.6975 11.5412,12.8205 C11.5172,12.8975 11.4792,12.9915 11.4422,13.0845 C11.4092,13.1685 11.3752,13.2525 11.3422,13.3525 C11.3012,13.4755 11.2332,13.6265 11.0782,13.6905 C10.9122,13.7595 10.7552,13.6815 10.6872,13.6475 C10.4372,13.4655 10.0952,13.3985 9.7962,13.4585 C9.7392,13.4665 9.7132,13.4755 9.6862,13.4845 C9.6402,13.5005 9.5942,13.5165 9.5482,13.5245 C9.5092,13.5535 9.4832,13.5905 9.4762,13.6335 C9.4662,13.7025 9.5032,13.7855 9.5772,13.8595 C9.6882,13.9715 9.8012,14.0285 9.9332,14.0945 C10.2082,14.2315 10.4682,14.3605 10.7872,14.4255 C11.4712,14.7185 11.9042,15.2055 12.0282,15.7805 C12.1362,16.2845 11.9992,16.7985 11.6492,17.1915 C11.3912,17.5305 11.0592,17.6925 10.6062,17.8425 C10.5942,17.8465 10.5862,17.8495 10.5772,17.8525 L10.5762,18.2985 C10.5762,18.5895 10.3882,18.7765 10.0972,18.7765 Z" id="Fill-7" fill="#36246A"></path>
                </g>
            </g>
        </g>
    </g>
</svg>