<?xml version="1.0" encoding="UTF-8"?>
<svg width="330px" height="81px" viewBox="0 0 330 81" version="1.1" xmlns="http://www.w3.org/2000/svg" xmlns:xlink="http://www.w3.org/1999/xlink">
    <!-- Generator: Sketch 50 (54983) - http://www.bohemiancoding.com/sketch -->
    <title>KonyDBX_RetailBanking</title>
    <desc>Created with Sketch.</desc>
    <defs>
        <linearGradient x1="67.4610169%" y1="18.2309322%" x2="22.2864407%" y2="110.852542%" id="linearGradient-1">
            <stop stop-color="#5E4F88" offset="0%"></stop>
            <stop stop-color="#64568D" offset="38.03%"></stop>
            <stop stop-color="#5B4D86" offset="55.8%"></stop>
            <stop stop-color="#443375" offset="85.29%"></stop>
            <stop stop-color="#36246A" offset="100%"></stop>
        </linearGradient>
        <linearGradient x1="82.9446701%" y1="-13.5709845%" x2="9.36395939%" y2="82.5601036%" id="linearGradient-2">
            <stop stop-color="#5E4F88" offset="16.28%"></stop>
            <stop stop-color="#64568D" offset="59.34%"></stop>
            <stop stop-color="#5B4D86" offset="71%"></stop>
            <stop stop-color="#443375" offset="90.35%"></stop>
            <stop stop-color="#36246A" offset="100%"></stop>
        </linearGradient>
    </defs>
    <g id="Design" stroke="none" stroke-width="1" fill="none" fill-rule="evenodd">
        <g id="retail_banking" transform="translate(-252.000000, -231.000000)" fill-rule="nonzero">
            <g id="Hero-section" transform="translate(-26.000000, 97.000000)">
                <g id="hero-content" transform="translate(276.000000, 134.000000)">
                    <g id="KonyDBX_RetailBanking" transform="translate(2.000000, 0.000000)">
                        <g id="Group">
                            <g transform="translate(0.000000, 0.144947)" fill="#FFFFFF" id="Shape">
                                <path d="M6.05970696,40.1961804 L0.256043956,40.1961804 L0.256043956,0.0860731914 L6.05970696,0.0860731914 L6.05970696,40.1961804 Z M6.31575092,25.9941038 L17.240293,14.0299302 L24.3241758,14.0299302 L12.9728938,25.9080306 L24.5802198,40.1961804 L17.667033,40.1961804 L6.31575092,25.9941038 Z"></path>
                                <path d="M37.8945055,13.5134911 C45.6611722,13.5134911 51.2941392,19.0221753 51.2941392,27.1991285 C51.2941392,35.2900085 45.6611722,40.7986927 37.8945055,40.7986927 C30.2131868,40.7986927 24.5802198,35.2900085 24.5802198,27.1991285 C24.5802198,19.0221753 30.2131868,13.5134911 37.8945055,13.5134911 M37.8945055,18.5057362 C33.5417582,18.5057362 30.3838828,21.8625906 30.3838828,27.1991285 C30.3838828,32.4495932 33.5417582,35.8064476 37.8945055,35.8064476 C42.3326007,35.8064476 45.4051282,32.4495932 45.4051282,27.1991285 C45.4051282,21.8625906 42.3326007,18.5057362 37.8945055,18.5057362"></path>
                                <path d="M56.1589744,15.751394 C59.7435897,14.374223 64.181685,13.5134911 68.0223443,13.5134911 C74.5941392,13.5134911 78.8615385,16.0096136 78.8615385,23.4119081 L78.8615385,40.1961804 L73.1432234,40.1961804 L73.1432234,23.9283472 C73.1432234,20.1411268 70.8388278,18.8500289 67.5956044,18.8500289 C65.5472527,18.8500289 63.4989011,19.1082485 61.9626374,19.6246876 L61.9626374,40.1961804 L56.1589744,40.1961804 L56.1589744,15.751394 Z"></path>
                                <polygon points="94.3948718 34.601423 101.564103 14.1160034 107.538462 14.1160034 93.5413919 50.7831829 87.9084249 50.7831829 91.4930403 41.3151319 80.8245421 14.1160034 86.9695971 14.1160034"></polygon>
                            </g>
                            <path d="M155.930769,5.5675576 C151.748718,1.95248356 145.432967,0.0588733471 137.154212,0.0588733471 C135.105861,0.0588733471 132.886813,0.23101973 130.582418,0.489239304 L130.241026,0.489239304 L130.241026,40.1689805 L130.582418,40.1689805 C133.142857,40.5132733 135.361905,40.6854197 138.09304,40.6854197 C153.028938,40.6854197 161.563736,33.0249057 161.563736,19.5974878 C161.649084,13.6584376 159.771429,8.92441206 155.930769,5.5675576 Z M158.747253,19.683561 C158.747253,31.5616614 151.407326,38.103224 138.178388,38.103224 C136.556777,38.103224 135.020513,38.0171508 133.228205,37.8450044 L133.228205,2.89928866 C134.849817,2.81321547 135.959341,2.72714228 137.154212,2.72714228 C144.323443,2.72714228 149.785714,4.27645973 153.455678,7.28902143 C156.954945,10.2155099 158.747253,14.3470231 158.747253,19.683561 Z" id="Shape" fill="#FFFFFF"></path>
                            <path d="M178.206593,19.9417806 C182.730037,18.6506827 185.461172,15.0356087 185.461172,10.3876563 C185.461172,3.501801 180.767033,0.0588733471 171.549451,0.0588733471 C169.927839,0.0588733471 167.538095,0.23101973 164.892308,0.489239304 L164.550916,0.489239304 L164.550916,40.0829074 L164.80696,40.1689805 C167.026007,40.5993465 169.586447,40.8575661 171.805495,40.8575661 C176.755678,40.8575661 180.596337,39.8246878 183.156777,37.8450044 C185.631868,35.9513942 186.912088,33.1109789 186.912088,29.581978 C186.912088,24.5897329 183.583516,20.9746589 178.206593,19.9417806 Z M171.293407,18.8228291 L167.452747,18.8228291 L167.452747,2.81321547 C168.989011,2.72714228 170.269231,2.64106909 171.549451,2.64106909 C178.804029,2.64106909 182.473993,5.22326483 182.473993,10.3015831 C182.473993,15.7241942 178.377289,18.8228291 171.293407,18.8228291 Z M167.452747,21.491098 L171.378755,21.491098 C177.09707,21.491098 183.924908,22.8682691 183.924908,29.581978 C183.924908,35.434955 180.084249,38.103224 171.805495,38.103224 C170.354579,38.103224 168.818315,38.0171508 167.452747,37.7589312 L167.452747,21.491098 Z" id="Shape" fill="#FFFFFF"></path>
                            <polygon id="Shape" fill="#FFFFFF" points="203.640293 19.253195 190.326007 0.0588733471 186.82674 0.0588733471 200.141026 19.253195 185.205128 40.7714929 188.704396 40.7714929 203.640293 19.253195"></polygon>
                            <polygon id="Shape" fill="url(#linearGradient-1)" points="204.323077 0.144946539 193.910623 0.144946539 207.224908 19.253195 192.289011 40.7714929 202.701465 40.7714929 212.431136 26.7415627 214.138095 29.2376852 214.138095 29.2376852 222.075458 40.7714929 232.57326 40.7714929"></polygon>
                            <polygon id="Shape" fill="url(#linearGradient-2)" points="230.951648 0.144946539 220.453846 0.144946539 214.138095 9.18263164 219.344322 16.7570725"></polygon>
                        </g>
                        <g id="Group" transform="translate(131.000000, 48.000000)" fill="#FFFFFF">
                            <path d="M2.73304721,25.6384615 L0.427038627,25.6384615 L0.427038627,3.46923077 C1.45193133,3.3 3.33090129,3.13076923 4.69742489,3.13076923 C10.6759657,3.13076923 13.4090129,5.92307692 13.4090129,9.98461538 C13.4090129,13.2846154 11.5300429,15.6538462 8.54077253,16.5846154 L15.9712446,25.6384615 L13.067382,25.6384615 L6.14935622,17.0923077 L2.81845494,17.0923077 L2.81845494,25.6384615 L2.73304721,25.6384615 Z M2.73304721,15.1461538 L5.03905579,15.1461538 C8.71158798,15.1461538 10.9321888,13.4538462 10.9321888,10.0692308 C10.9321888,7.27692308 9.13862661,5.16153846 4.61201717,5.16153846 C4.18497854,5.16153846 3.24549356,5.16153846 2.73304721,5.24615385 L2.73304721,15.1461538 Z" id="Shape"></path>
                            <path d="M19.7291845,17.6 C19.7291845,21.6615385 22.6330472,24.0307692 25.793133,24.0307692 C28.0991416,24.0307692 29.7218884,23.4384615 31.4300429,22.1692308 L31.4300429,24.3692308 C29.9781116,25.4692308 27.8429185,25.8923077 25.793133,25.8923077 C21.0957082,25.8923077 17.423176,22.6769231 17.423176,17.4307692 C17.423176,12.5230769 20.839485,8.96923077 25.195279,8.96923077 C29.2948498,8.96923077 32.1133047,11.4230769 32.1133047,16.0769231 L32.1133047,17.6 L19.7291845,17.6 Z M29.8927039,15.7384615 C29.7218884,12.3538462 27.9283262,11 25.195279,11 C22.6330472,11 20.5832618,12.6923077 19.9,15.7384615 L29.8927039,15.7384615 Z" id="Shape"></path>
                            <path d="M34.4193133,9.39230769 L36.9815451,9.39230769 L36.9815451,5.41538462 L39.2021459,5.41538462 L39.2021459,9.39230769 L43.8141631,9.39230769 L43.8141631,11.2538462 L39.2021459,11.2538462 L39.2021459,21.1538462 C39.2021459,23.2692308 40.0562232,24.0307692 41.5935622,24.0307692 C42.6184549,24.0307692 43.4725322,23.6923077 44.6682403,23.1 L44.6682403,25.0461538 C43.7287554,25.5538462 42.5330472,25.8923077 41.1665236,25.8923077 C38.7751073,25.8923077 37.0669528,24.6230769 37.0669528,21.3230769 L37.0669528,11.1692308 L34.504721,11.1692308 L34.504721,9.39230769 L34.4193133,9.39230769 Z" id="Shape"></path>
                            <path d="M57.0523605,14.2153846 C57.0523605,12.1 55.6858369,11.0846154 53.5506438,11.0846154 C51.6716738,11.0846154 50.2197425,11.5923077 48.7678112,12.3538462 L48.7678112,10.2384615 C50.1343348,9.47692308 51.927897,8.96923077 53.806867,8.96923077 C57.1377682,8.96923077 59.2729614,10.4076923 59.2729614,14.0461538 L59.2729614,25.3 C57.7356223,25.7230769 56.0274678,25.8923077 54.5755365,25.8923077 C50.1343348,25.8923077 47.1450644,24.5384615 47.1450644,21.0692308 C47.1450644,17.8538462 50.1343348,16.1615385 55.0879828,16.1615385 L56.9669528,16.1615385 L56.9669528,14.2153846 L57.0523605,14.2153846 Z M57.0523605,18.0230769 L55.344206,18.0230769 C51.927897,18.0230769 49.451073,18.9538462 49.451073,21.0692308 C49.451073,23.2692308 51.6716738,24.0307692 54.7463519,24.0307692 C55.4296137,24.0307692 56.283691,23.9461538 57.0523605,23.7769231 L57.0523605,18.0230769 Z" id="Shape"></path>
                            <path d="M64.055794,4.31538462 C64.055794,3.38461538 64.8244635,2.62307692 65.7639485,2.62307692 C66.7034335,2.62307692 67.472103,3.38461538 67.472103,4.31538462 C67.472103,5.24615385 66.7034335,6.00769231 65.7639485,6.00769231 C64.9098712,6.00769231 64.055794,5.16153846 64.055794,4.31538462 Z M66.8742489,25.6384615 L64.6536481,25.6384615 L64.6536481,9.39230769 L66.8742489,9.39230769 L66.8742489,25.6384615 Z" id="Shape"></path>
                            <polygon id="Shape" points="74.8171674 25.6384615 72.5965665 25.6384615 72.5965665 0.253846154 74.8171674 0.253846154"></polygon>
                            <path d="M87.9699571,3.46923077 C89.5072961,3.3 91.1300429,3.13076923 92.4965665,3.13076923 C98.1334764,3.13076923 100.6103,5.33076923 100.6103,9.13846154 C100.6103,12.0153846 98.7313305,13.9615385 95.9128755,14.3 C99.4145923,14.5538462 101.549785,16.4153846 101.549785,19.6307692 C101.549785,23.1846154 99.0729614,25.9769231 92.5819742,25.9769231 C91.0446352,25.9769231 89.5072961,25.8076923 88.0553648,25.5538462 L88.0553648,3.46923077 L87.9699571,3.46923077 Z M90.2759657,13.4538462 L92.2403433,13.4538462 C95.9982833,13.4538462 98.2188841,12.0153846 98.2188841,9.13846154 C98.2188841,6.34615385 96.083691,5.07692308 92.4111588,5.07692308 C91.8133047,5.07692308 91.0446352,5.07692308 90.1905579,5.16153846 L90.1905579,13.4538462 L90.2759657,13.4538462 Z M90.2759657,23.9461538 C91.2154506,24.0307692 91.8987124,24.1153846 92.4965665,24.1153846 C97.1939914,24.1153846 99.1583691,22.4230769 99.1583691,19.7153846 C99.1583691,16.7538462 96.5961373,15.4846154 92.5819742,15.4846154 L90.2759657,15.4846154 L90.2759657,23.9461538 Z" id="Shape"></path>
                            <path d="M114.702575,14.2153846 C114.702575,12.1 113.336052,11.0846154 111.200858,11.0846154 C109.321888,11.0846154 107.869957,11.5923077 106.418026,12.3538462 L106.418026,10.2384615 C107.784549,9.47692308 109.578112,8.96923077 111.457082,8.96923077 C114.787983,8.96923077 116.923176,10.4076923 116.923176,14.0461538 L116.923176,25.3 C115.385837,25.7230769 113.677682,25.8923077 112.225751,25.8923077 C107.784549,25.8923077 104.795279,24.5384615 104.795279,21.0692308 C104.795279,17.8538462 107.784549,16.1615385 112.738197,16.1615385 L114.617167,16.1615385 L114.617167,14.2153846 L114.702575,14.2153846 Z M114.702575,18.0230769 L112.994421,18.0230769 C109.578112,18.0230769 107.101288,18.9538462 107.101288,21.0692308 C107.101288,23.2692308 109.321888,24.0307692 112.396567,24.0307692 C113.079828,24.0307692 113.933906,23.9461538 114.702575,23.7769231 L114.702575,18.0230769 Z" id="Shape"></path>
                            <path d="M122.303863,10.2384615 C124.524464,9.47692308 127.001288,8.96923077 129.221888,8.96923077 C133.321459,8.96923077 135.883691,10.5769231 135.883691,14.6384615 L135.883691,25.5538462 L133.66309,25.5538462 L133.66309,15.1461538 C133.66309,11.8461538 131.271674,11.0846154 129.051073,11.0846154 C127.342918,11.0846154 125.805579,11.4230769 124.609871,11.6769231 L124.609871,25.6384615 L122.38927,25.6384615 L122.38927,10.2384615 L122.303863,10.2384615 Z" id="Shape"></path>
                            <path d="M143.570386,25.6384615 L141.349785,25.6384615 L141.349785,0.253846154 L143.570386,0.253846154 L143.570386,25.6384615 Z M143.655794,16.8384615 L151.940343,9.39230769 L155.100429,9.39230769 L146.559657,16.7538462 L155.185837,25.6384615 L152.196567,25.6384615 L143.655794,16.8384615 Z" id="Shape"></path>
                            <path d="M157.918884,4.31538462 C157.918884,3.38461538 158.687554,2.62307692 159.627039,2.62307692 C160.566524,2.62307692 161.335193,3.38461538 161.335193,4.31538462 C161.335193,5.24615385 160.566524,6.00769231 159.627039,6.00769231 C158.687554,6.00769231 157.918884,5.16153846 157.918884,4.31538462 Z M160.737339,25.6384615 L158.516738,25.6384615 L158.516738,9.39230769 L160.737339,9.39230769 L160.737339,25.6384615 Z" id="Shape"></path>
                            <path d="M166.374249,10.2384615 C168.59485,9.47692308 171.071674,8.96923077 173.292275,8.96923077 C177.391845,8.96923077 179.954077,10.5769231 179.954077,14.6384615 L179.954077,25.5538462 L177.648069,25.5538462 L177.648069,15.1461538 C177.648069,11.8461538 175.256652,11.0846154 173.036052,11.0846154 C171.327897,11.0846154 169.790558,11.4230769 168.59485,11.6769231 L168.59485,25.6384615 L166.374249,25.6384615 L166.374249,10.2384615 Z" id="Shape"></path>
                            <path d="M196.608584,25.0461538 C196.01073,25.3846154 194.558798,25.7230769 193.192275,25.7230769 C187.811588,25.7230769 184.053648,22.9307692 184.053648,17.3461538 C184.053648,12.1 187.72618,8.88461538 193.533906,8.88461538 C195.24206,8.88461538 197.462661,9.30769231 198.914592,9.9 L198.914592,25.6384615 C198.914592,30.6307692 195.156652,32.4923077 191.398712,32.4923077 C189.434335,32.4923077 187.555365,32.0692308 186.359657,31.4769231 L186.359657,29.3615385 C187.811588,30.0384615 189.690558,30.6307692 191.398712,30.6307692 C194.13176,30.6307692 196.693991,29.3615385 196.693991,25.2153846 L196.693991,25.0461538 L196.608584,25.0461538 Z M196.608584,11.5076923 C195.669099,11.1692308 194.729614,11 193.533906,11 C189.007296,11 186.359657,13.3692308 186.359657,17.3461538 C186.359657,21.2384615 189.007296,23.6923077 193.277682,23.6923077 C194.644206,23.6923077 195.498283,23.4384615 196.693991,23.1 L196.693991,11.5076923 L196.608584,11.5076923 Z" id="Shape"></path>
                        </g>
                    </g>
                </g>
            </g>
        </g>
    </g>
</svg>