<?xml version="1.0" encoding="UTF-8"?>
<svg width="21px" height="12px" viewBox="0 0 21 12" version="1.1" xmlns="http://www.w3.org/2000/svg" xmlns:xlink="http://www.w3.org/1999/xlink">
    <!-- Generator: Sketch 49.3 (51167) - http://www.bohemiancoding.com/sketch -->
    <title>Arrow Right</title>
    <desc>Created with Sketch.</desc>
    <defs></defs>
    <g id="Design" stroke="none" stroke-width="1" fill="none" fill-rule="evenodd">
        <g id="trends_insights" transform="translate(-958.000000, -450.000000)" fill="#704C9F">
            <g id="filter-by" transform="translate(456.000000, 426.000000)">
                <g id="Arrow-Right" transform="translate(512.500000, 30.000000) rotate(-270.000000) translate(-512.500000, -30.000000) translate(507.000000, 20.000000)">
                    <path d="M9.67181655,19.7770435 L0.223624882,10.5270435 C-0.0745416272,10.2351685 -0.0745416272,9.76516849 0.223624882,9.47329349 L9.67181655,0.223293494 C9.97321697,-0.0723315065 10.4647713,-0.0742065065 10.7694056,0.216418494 C11.07404,0.507668494 11.0772739,0.982043494 10.7765202,1.27704349 L1.86709798,10.0001685 L10.7765202,18.7232935 C11.0772739,19.0182935 11.07404,19.4926685 10.7694056,19.7839185 C10.6180586,19.9282935 10.4214369,20.0001685 10.2241684,20.0001685 C10.023666,20.0001685 9.82381032,19.9257935 9.67181655,19.7770435 Z" id="Icon" transform="translate(5.500000, 10.000084) scale(-1, 1) translate(-5.500000, -10.000084) "></path>
                </g>
            </g>
        </g>
    </g>
</svg>