<?xml version="1.0" encoding="UTF-8"?>
<svg width="13px" height="10px" viewBox="0 0 13 10" version="1.1" xmlns="http://www.w3.org/2000/svg" xmlns:xlink="http://www.w3.org/1999/xlink">
    <!-- Generator: Sketch 50.2 (55047) - http://www.bohemiancoding.com/sketch -->
    <title>twitter-small</title>
    <desc>Created with Sketch.</desc>
    <defs></defs>
    <g id="Design" stroke="none" stroke-width="1" fill="none" fill-rule="evenodd">
        <g id="thought_leadership" transform="translate(-111.000000, -990.000000)" fill="#704C9F">
            <g id="share" transform="translate(-66.000000, 841.000000)">
                <g id="social-sidebar" transform="translate(0.000000, 148.000000)">
                    <path d="M189.522965,2.14172988 C189.080572,2.3353851 188.603552,2.46634618 188.104623,2.52486071 C188.614859,2.22392886 189.006369,1.74675682 189.19011,1.17832999 C188.71309,1.45766719 188.18448,1.65968163 187.621243,1.76835147 C187.171783,1.29535904 186.529395,1 185.818458,1 C184.455239,1 183.349258,2.09018137 183.349258,3.43462228 C183.349258,3.6254911 183.369752,3.8107871 183.412861,3.98911709 C181.359906,3.88741327 179.54016,2.91913717 178.321108,1.44512837 C178.108392,1.80596795 177.98684,2.22392886 177.98684,2.66975382 C177.98684,3.51403486 178.422872,4.25939848 179.085754,4.69616762 C178.680817,4.6843254 178.299907,4.57356576 177.966346,4.39244936 L177.966346,4.42240323 C177.966346,5.60244619 178.817916,6.58674413 179.948631,6.80965661 C179.740862,6.86677794 179.5232,6.8953386 179.297056,6.8953386 C179.13805,6.8953386 178.982576,6.88070997 178.832756,6.8521493 C179.14653,7.8190322 180.058876,8.52399293 181.140123,8.54210457 C180.294206,9.19551679 179.229214,9.58491704 178.07235,9.58491704 C177.873062,9.58491704 177.675893,9.57377141 177.482965,9.55148016 C178.576225,10.2411157 179.874428,10.6451445 181.269448,10.6451445 C185.813511,10.6451445 188.297552,6.93504488 188.297552,3.7174425 C188.297552,3.61155907 188.295432,3.50567564 188.290485,3.40257862 C188.773159,3.05845747 189.192937,2.63004754 189.522965,2.14172988" id="twitter-small"></path>
                </g>
            </g>
        </g>
    </g>
</svg>