<?xml version="1.0" encoding="UTF-8"?>
<svg width="28px" height="22px" viewBox="0 0 28 22" version="1.1" xmlns="http://www.w3.org/2000/svg" xmlns:xlink="http://www.w3.org/1999/xlink">
    <!-- Generator: Sketch 50 (54983) - http://www.bohemiancoding.com/sketch -->
    <title>wallet-icon</title>
    <desc>Created with Sketch.</desc>
    <defs></defs>
    <g id="Design" stroke="none" stroke-width="1" fill="none" fill-rule="evenodd">
        <g id="dropdown_menu" transform="translate(-489.000000, -470.000000)" fill="#36246A">
            <g id="wallet-icon" transform="translate(489.000000, 470.000000)">
                <path d="M1.682,0.531 C1.047,0.531 0.532,1.048 0.532,1.682 L0.532,15.143 C0.532,15.778 1.047,16.294 1.682,16.294 L3.542,16.294 L3.542,5.933 C3.542,4.593 4.592,3.542 5.933,3.542 L21.962,3.542 L21.962,1.682 C21.962,1.048 21.446,0.531 20.811,0.531 L1.682,0.531 Z M3.808,16.826 L1.682,16.826 C0.754,16.826 0,16.071 0,15.143 L0,1.682 C0,0.755 0.754,0 1.682,0 L20.811,0 C21.739,0 22.494,0.755 22.494,1.682 L22.494,3.807 C22.494,3.954 22.374,4.073 22.228,4.073 L5.933,4.073 C4.873,4.073 4.074,4.873 4.074,5.933 L4.074,16.56 C4.074,16.707 3.954,16.826 3.808,16.826 Z" id="Fill-1"></path>
                <path d="M5.4906,7.7927 L26.9216,7.7927 L26.9216,5.9337 C26.9216,5.6557 26.7566,5.4897 26.4786,5.4897 L5.9326,5.4897 C5.6556,5.4897 5.4906,5.6557 5.4906,5.9337 L5.4906,7.7927 Z M27.1866,8.3237 L5.2246,8.3237 C5.0786,8.3237 4.9596,8.2047 4.9596,8.0587 L4.9596,5.9337 C4.9596,5.3587 5.3596,4.9587 5.9326,4.9587 L26.4786,4.9587 C27.0526,4.9587 27.4526,5.3587 27.4526,5.9337 L27.4526,8.0587 C27.4526,8.2047 27.3336,8.3237 27.1866,8.3237 Z M5.4906,11.8657 L5.4906,20.8107 C5.4906,21.0877 5.6556,21.2537 5.9326,21.2537 L26.4786,21.2537 C26.7566,21.2537 26.9216,21.0877 26.9216,20.8107 L26.9216,11.8657 L5.4906,11.8657 Z M26.4786,21.7847 L5.9326,21.7847 C5.3596,21.7847 4.9596,21.3847 4.9596,20.8107 L4.9596,11.6007 C4.9596,11.4537 5.0786,11.3347 5.2246,11.3347 L27.1866,11.3347 C27.3336,11.3347 27.4526,11.4537 27.4526,11.6007 L27.4526,20.8107 C27.4526,21.3847 27.0526,21.7847 26.4786,21.7847 Z" id="Fill-3"></path>
                <path d="M18.3314,18.9509 C18.2654,18.9509 18.2424,18.9729 18.2424,19.0399 L18.2424,19.7479 C18.2424,19.8129 18.2654,19.8369 18.3314,19.8369 L21.1654,19.8369 C21.2304,19.8369 21.2534,19.8129 21.2534,19.7479 L21.2534,19.0399 C21.2534,18.9729 21.2304,18.9509 21.1654,18.9509 L18.3314,18.9509 Z M21.1654,20.3679 L18.3314,20.3679 C17.9724,20.3679 17.7114,20.1069 17.7114,19.7479 L17.7114,19.0399 C17.7114,18.6799 17.9724,18.4199 18.3314,18.4199 L21.1654,18.4199 C21.5234,18.4199 21.7844,18.6799 21.7844,19.0399 L21.7844,19.7479 C21.7844,20.1069 21.5234,20.3679 21.1654,20.3679 Z" id="Fill-5"></path>
                <path d="M22.5824,18.9509 C22.5164,18.9509 22.4934,18.9729 22.4934,19.0399 L22.4934,19.7479 C22.4934,19.8129 22.5164,19.8369 22.5824,19.8369 L25.4154,19.8369 C25.4814,19.8369 25.5044,19.8129 25.5044,19.7479 L25.5044,19.0399 C25.5044,18.9729 25.4814,18.9509 25.4154,18.9509 L22.5824,18.9509 Z M25.4154,20.3679 L22.5824,20.3679 C22.2234,20.3679 21.9624,20.1069 21.9624,19.7479 L21.9624,19.0399 C21.9624,18.6799 22.2234,18.4199 22.5824,18.4199 L25.4154,18.4199 C25.7744,18.4199 26.0354,18.6799 26.0354,19.0399 L26.0354,19.7479 C26.0354,20.1069 25.7744,20.3679 25.4154,20.3679 Z" id="Fill-7"></path>
            </g>
        </g>
    </g>
</svg>