<?xml version="1.0" encoding="UTF-8"?>
<svg width="15px" height="12px" viewBox="0 0 15 12" version="1.1" xmlns="http://www.w3.org/2000/svg" xmlns:xlink="http://www.w3.org/1999/xlink">
    <!-- Generator: Sketch 49.3 (51167) - http://www.bohemiancoding.com/sketch -->
    <title>Group</title>
    <desc>Created with Sketch.</desc>
    <defs></defs>
    <g id="Design" stroke="none" stroke-width="1" fill="none" fill-rule="evenodd">
        <g id="home" transform="translate(-888.000000, -498.000000)" fill="#FFFFFF" fill-rule="nonzero">
            <g id="top-stuff" transform="translate(-124.000000, 0.000000)">
                <g id="reverse-button-copy-2" transform="translate(854.000000, 481.000000)">
                    <g id="button_haha" transform="translate(165.000000, 23.000000) rotate(-90.000000) translate(-165.000000, -23.000000) translate(151.000000, 9.000000)">
                        <g id="Group" transform="translate(8.000000, 7.000000)">
                            <path d="M0.218181818,8.625 L2.07272727,6.7125 L6,10.7625 L9.92727273,6.7125 L11.7818182,8.625 L5.96363636,14.55 L0.218181818,8.625 Z M0.218181818,2.175 L2.07272727,0.2625 L6,4.3125 L9.92727273,0.2625 L11.7818182,2.175 L5.96363636,8.1375 L0.218181818,2.175 Z" id="Shape"></path>
                            <path d="M9.89090909,0.4875 L11.5272727,2.175 L5.96363636,7.9125 L0.4,2.175 L2.03636364,0.4875 L5.78181818,4.35 L5.96363636,4.5375 L6.14545455,4.35 L9.89090909,0.4875 Z M9.89090909,6.9375 L11.5272727,8.625 L5.96363636,14.3625 L0.4,8.625 L2.03636364,6.9375 L5.78181818,10.8 L5.96363636,10.9875 L6.14545455,10.8 L9.89090909,6.9375 Z M9.89090909,0.075 L5.96363636,4.125 L2.03636364,0.075 L0,2.175 L5.96363636,8.325 L11.9272727,2.175 L9.89090909,0.075 Z M9.89090909,6.525 L5.96363636,10.575 L2.03636364,6.525 L0.0363636364,8.625 L6,14.775 L11.9272727,8.625 L9.89090909,6.525 Z" id="Shape"></path>
                            <path d="M9.89090909,0.4875 L11.5272727,2.175 L5.96363636,7.9125 L0.4,2.175 L2.03636364,0.4875 L5.78181818,4.35 L5.96363636,4.5375 L6.14545455,4.35 L9.89090909,0.4875 Z M9.89090909,6.9375 L11.5272727,8.625 L5.96363636,14.3625 L0.4,8.625 L2.03636364,6.9375 L5.78181818,10.8 L5.96363636,10.9875 L6.14545455,10.8 L9.89090909,6.9375 Z M9.89090909,0.075 L5.96363636,4.125 L2.03636364,0.075 L0,2.175 L5.96363636,8.325 L11.9272727,2.175 L9.89090909,0.075 Z M9.89090909,6.525 L5.96363636,10.575 L2.03636364,6.525 L0.0363636364,8.625 L6,14.775 L11.9272727,8.625 L9.89090909,6.525 Z" id="Shape"></path>
                        </g>
                    </g>
                </g>
            </g>
        </g>
    </g>
</svg>