<?xml version="1.0" encoding="UTF-8"?>
<!-- Generator: Adobe Illustrator 22.1.0, SVG Export Plug-In . SVG Version: 6.00 Build 0)  -->
<svg xmlns="http://www.w3.org/2000/svg" xmlns:xlink="http://www.w3.org/1999/xlink" id="Layer_1" x="0px" y="0px" viewBox="0 0 800 600" style="enable-background:new 0 0 800 600;" xml:space="preserve">
<style type="text/css">
	.st0{fill:none;stroke:#FFFFFF;stroke-miterlimit:10;}
	.st1{fill:none;stroke:#FFFFFF;stroke-width:1.1426;stroke-linecap:round;stroke-linejoin:round;stroke-miterlimit:10;}
	.st2{clip-path:url(#SVGID_2_);}
	.st3{fill:#FFFFFF;}
	
		.st4{opacity:0.5;fill:none;stroke:#FFFFFF;stroke-width:1.1426;stroke-linecap:round;stroke-linejoin:round;stroke-miterlimit:10;enable-background:new    ;}
	.st5{opacity:0.5;fill:#FFFFFF;enable-background:new    ;}
</style>
<circle class="st0" cx="111.9" cy="224.3" r="48.8"></circle>
<g>
	<path class="st1" d="M267.5,174.6h15.1c1.8,0,3.2-1.4,3.2-3.2s-1.4-3.2-3.2-3.2l-14.7-0.6l0,0c-2-1-4.3-1.7-6.6-1.7   c-1.5,0-3.1,0.3-4.6,0.7l-6.9,2.4v16.1l4.6-1.8c1.5-0.6,3.1-0.7,4.8-0.4l16.8,3.5c2.2,0.4,4.2,0,6.2-1.1l21.9-12.8   c1.1-0.7,1.8-1.8,1.8-3.1c0-2-1.5-3.5-3.5-3.5c-1,0-2,0.4-2.5,1.1c-1.1-1.7-3.4-2.2-5-1c-1.3-2.1-3.1-1.8-5-1l-4.5,1.8"></path>
	<path class="st1" d="M300,137.6l-20.4-11.4c-0.9-0.5-2-0.5-2.7,0l-5.8,3.2v-3.5h-6.7v7.3l-8.1,4.4c-1.4,0.8-1.8,2.4-1.1,3.8   c0.8,1.4,2.4,1.8,3.8,1.1l1.5-0.8v16c0,0.9,0.8,1.8,1.8,1.8c10.5,0,20.9,0,31.4,0c0.9,0,1.8-0.8,1.8-1.8v-16l1.7,0.8   c1.4,0.8,3,0.3,3.8-1.1S301.4,138.4,300,137.6z M279.4,152.7c-0.3,0-0.5,0.3-0.5,0.6v1.4c0,0.3-0.3,0.8-0.8,0.8H277   c-0.3,0-0.8-0.3-0.8-0.8v-1.2c0-0.3-0.3-0.6-0.6-0.6c-1.2-0.2-2.4-0.5-3.4-0.9c-0.3-0.2-0.5-0.5-0.3-0.8l0.5-1.8   c0-0.2,0.2-0.3,0.3-0.5c0.2-0.2,0.3-0.2,0.6,0c1.1,0.5,2.3,0.8,3.7,0.8c1.5,0,2.4-0.6,2.4-1.7c0.2-0.3-0.6-0.9-2.6-1.7   c-2.7-0.9-4.7-2.3-4.7-4.9c0-2.1,1.4-4,3.8-4.6c0.3,0,0.5-0.5,0.5-0.8v-1.2c0-0.3,0.3-0.8,0.8-0.8h1.2c0.3,0,0.8,0.3,0.8,0.8v0.9   c0,0.3,0.3,0.6,0.6,0.6c1.1,0.2,2,0.3,2.6,0.6c0.3,0.2,0.5,0.5,0.5,0.8l-0.5,1.7c0,0.2-0.2,0.3-0.3,0.5s-0.3,0.2-0.6,0   c-0.8-0.3-1.7-0.6-3-0.6c-1.7,0-2.3,0.8-2.3,1.5c0,0.9,0.9,1.4,3.2,2.3c3,1.1,4.3,2.6,4.3,4.9C283.6,150.1,282.2,152.1,279.4,152.7   z"></path>
</g>
<g id="Home-_x28_v2_x29__1_">
	<g id="Artboard-3_1_">
		<path id="Shape_9_" class="st1" d="M83.3,242.7h57.3c0.8,0,1.4,0.6,1.4,1.4v4.1c0,0.8-0.6,1.4-1.4,1.4H83.3    c-0.8,0-1.4-0.6-1.4-1.4v-4.1C81.9,243.3,82.5,242.7,83.3,242.7z"></path>
		<path id="Shape_8_" class="st1" d="M87.4,240.5c0-1.1,0.9-2,2-2h44.9c1.1,0,2,0.9,2,2v2H87.4V240.5z"></path>
		<path id="Shape_7_" class="st1" d="M131,216.8c-0.8,0-1.4,0.6-1.4,1.4v14.9c0,0.8,0.6,1.4,1.4,1.4v1.4h-8.2v-1.4    c0.8,0,1.4-0.6,1.4-1.4v-14.9c0-0.8-0.6-1.4-1.4-1.4v-1.4h8.2V216.8z M116.1,216.8c-0.8,0-1.4,0.6-1.4,1.4v14.9    c0,0.8,0.6,1.4,1.4,1.4v1.4h-8.2v-1.4c0.8,0,1.4-0.6,1.4-1.4v-14.9c0-0.8-0.6-1.4-1.4-1.4v-1.4h8.2V216.8z M101,216.8    c-0.8,0-1.4,0.6-1.4,1.4v14.9c0,0.8,0.6,1.4,1.4,1.4v1.4h-8.2v-1.4c0.8,0,1.4-0.6,1.4-1.4v-14.9c0-0.8-0.6-1.4-1.4-1.4v-1.4h8.2    V216.8z"></path>
		<path id="Shape_6_" class="st1" d="M87.4,208.6h49.1v2c0,1.1-0.9,2-2,2H89.4c-1.1,0-2-0.9-2-2V208.6z"></path>
		<path id="Shape_5_" class="st1" d="M109.5,193.5c1.5-0.6,3.4-0.6,4.9,0l26.7,13.3c2,1.1,1.8,1.8-0.5,1.8H83.3    c-2.3,0-2.4-0.8-0.5-1.8L109.5,193.5L109.5,193.5z"></path>
	</g>
</g>
<g>
	<path class="st1" d="M268,375.7h9.9c0.3,0,0.5,0.2,0.6,0.3s0.3,0.5,0.3,0.6v5.3c0,0.3-0.2,0.5-0.3,0.6c-0.2,0.2-0.5,0.3-0.6,0.3   H268v9.9c0,0.3-0.2,0.5-0.3,0.6s-0.5,0.3-0.6,0.3h-5.3c-0.3,0-0.5-0.2-0.6-0.3s-0.3-0.5-0.3-0.6v-9.9H251c-0.3,0-0.5-0.2-0.6-0.3   c-0.2-0.2-0.3-0.5-0.3-0.6v-5.3c0-0.3,0.2-0.5,0.3-0.6c0.2-0.2,0.5-0.3,0.6-0.3h9.9v-9.9c0-0.3,0.2-0.5,0.3-0.6s0.5-0.3,0.6-0.3   h5.3c0.3,0,0.5,0.2,0.6,0.3c0.2,0.2,0.3,0.5,0.3,0.6L268,375.7L268,375.7z"></path>
	<g>
		<path class="st1" d="M244.4,371.1c8.1,0,14.8-6.6,14.8-14.8c0-8.1-6.6-14.8-14.8-14.8c-8.1,0-14.8,6.6-14.8,14.8    C229.6,364.4,236.1,371.1,244.4,371.1z"></path>
		<path class="st1" d="M257.5,392.8v-6.6h-6.6c-1.2,0-2.3-0.5-3-1.2c-0.8-0.8-1.2-1.8-1.2-3v-5.3c0-0.5,0-0.8,0.2-1.2h-14.2    c-8.1,0-14.8,6.6-14.8,14.8c0,1.1,0.2,2,0.3,2.9h39.3C257.5,393.1,257.5,392.9,257.5,392.8z"></path>
	</g>
</g>
<g>
	<path class="st1" d="M482.6,190.4v-4.6c0-1.7-1.4-3-3-3h-41.1c-1.7,0-3,1.4-3,3v28.9c0,1.7,1.4,3,3,3h4.6V195c0-2.6,2-4.6,4.6-4.6   H482.6z"></path>
	<path class="st1" d="M493.2,199.5V195c0-0.9-0.6-1.5-1.5-1.5h-44.2c-0.9,0-1.5,0.6-1.5,1.5v4.6h47.2V199.5z M493.2,207.2V227   c0,0.9-0.6,1.5-1.5,1.5h-44.2c-0.9,0-1.5-0.6-1.5-1.5v-19.8H493.2z"></path>
	<path class="st1" d="M474.2,222.4h6.1c0.5,0,0.8,0.3,0.8,0.8v1.5c0,0.5-0.3,0.8-0.8,0.8h-6.1c-0.5,0-0.8-0.3-0.8-0.8v-1.5   C473.4,222.7,473.7,222.4,474.2,222.4z"></path>
	<path class="st1" d="M483.3,222.4h6.1c0.5,0,0.8,0.3,0.8,0.8v1.5c0,0.5-0.3,0.8-0.8,0.8h-6.1c-0.5,0-0.8-0.3-0.8-0.8v-1.5   C482.6,222.7,482.9,222.4,483.3,222.4z"></path>
</g>
<g>
	<g>
		<g>
			<g>
				<g>
					<defs>
						<rect id="SVGID_1_" x="480.5" y="380.3" width="46" height="36.3"></rect>
					</defs>
					<clipPath id="SVGID_2_">
						<use xlink:href="#SVGID_1_" style="overflow:visible;"></use>
					</clipPath>
					<g class="st2">
						<path class="st3" d="M521.4,381.3c1,0,2,0.4,2.7,1.2c0.7,0.8,1.2,1.8,1.2,2.9v26.1c0,2.2-1.7,3.9-3.9,3.9h-48.6        c-2.2,0-3.9-1.7-3.9-3.9v-26.2c0-2.2,1.7-3.9,3.9-3.9h48.6 M473,389.5c-0.2,0-0.3,0-0.4,0c-0.2-0.1-0.3-0.1-0.5-0.1        s-0.4,0.1-0.6,0.2c-0.3,0.2-0.5,0.6-0.5,1v15.5c0,0.4,0.2,0.8,0.5,1c0.2,0.1,0.4,0.2,0.6,0.2s0.3,0,0.5-0.1c0.1,0,0.2,0,0.4,0        c2.3,0,4,1.7,4,4c0,0.2,0,0.3,0,0.4c-0.2,0.4-0.2,0.8,0.1,1.1s0.6,0.5,1,0.5h37.8c0.6,0,1.1-0.5,1.1-1.1c0-0.2,0-0.5-0.1-0.7        c0-0.2-0.1-0.4-0.1-0.5c0-2.3,1.7-4,4-4c0.4,0,0.6,0,0.9,0.1c0.1,0,0.2,0.1,0.4,0.1s0.5-0.1,0.7-0.2c0.3-0.2,0.5-0.6,0.5-0.9        l0.2-15.5c0-0.3-0.1-0.6-0.3-0.8s-0.5-0.3-0.8-0.3c-0.2,0-0.5,0-0.7,0.1c-0.2,0-0.4,0.1-0.5,0.1c-2.3,0-4-1.7-4-4V385        c0-0.6-0.5-1.1-1.1-1.1H478c-0.4,0-0.8,0.2-1,0.5s-0.2,0.8-0.1,1.1l0,0c0,0,0,0.2,0,0.4C477,387.7,475.3,389.5,473,389.5         M497.5,388.1c5.6,0,10.1,4.5,10.1,10.1c0,5.5-4.5,10-10.1,10c-5.5,0-10-4.5-10-10C487.5,392.6,491.9,388.1,497.5,388.1         M513.7,397c1.1,0,1.9,0.8,1.9,1.9s-0.9,1.9-1.9,1.9c-1.1,0-1.9-0.8-1.9-1.9C511.8,397.8,512.5,397,513.7,397 M481.2,397        c1.1,0,1.9,0.9,1.9,1.9s-0.9,1.9-1.9,1.9c-1.1,0-1.9-0.8-1.9-1.9C479.3,397.8,480.1,397,481.2,397 M521.4,380.2h-48.6        c-2.7,0-5,2.1-5,5v26.2c0,2.7,2.1,5,5,5h48.6c2.7,0,5-2.1,5-5v-26.1C526.5,382.4,524.2,380.2,521.4,380.2L521.4,380.2z         M473,390.7c2.9,0,5.2-2.3,5.2-5.2c0-0.5,0-0.6-0.2-0.9h37.8c0,0.2,0,0.5,0,0.6c0,2.9,2.1,5.2,5.2,5.2c0.5,0,0.9-0.2,1.2-0.2        l-0.2,15.5c-0.5-0.2-0.8-0.2-1.2-0.2c-2.9,0-5.2,2.1-5.2,5.2c0,0.5,0.2,0.9,0.2,1.2H478c0.2-0.3,0.2-0.6,0.2-0.9        c0-2.9-2.1-5.2-5.2-5.2c-0.3,0-0.6,0-0.9,0.2v-15.5C472.4,390.7,472.7,390.7,473,390.7L473,390.7z M497.5,387        c-6.1,0-11.1,4.9-11.1,11.3c0,6.1,4.9,11.1,11.1,11.1c6.1,0,11.3-4.9,11.3-11.1S503.6,387,497.5,387L497.5,387z M513.7,395.8        c-1.7,0-3,1.2-3,3c0,1.7,1.2,3,3,3c1.7,0,3-1.4,3-3C516.7,397.2,515.5,395.8,513.7,395.8L513.7,395.8z M481.2,395.8        c-1.7,0-3,1.2-3,3c0,1.7,1.2,3,3,3c1.7,0,3-1.4,3-3C484.3,397.2,482.9,395.8,481.2,395.8L481.2,395.8z"></path>
					</g>
				</g>
			</g>
		</g>
	</g>
	<path class="st1" d="M508.2,416.4v2.6h-27.6v-41.4h27.6v2.6h2.9v-8.8c0-2-1.5-3.5-3.5-3.5h-26.4c-2,0-3.5,1.5-3.5,3.5v53.2   c0,2,1.5,3.5,3.5,3.5h26.2c2,0,3.5-1.5,3.5-3.5v-8.1h-2.7V416.4z M494.3,372.2c0.6,0,1.1,0.5,1.1,1.1s-0.5,1.1-1.1,1.1   s-1.1-0.5-1.1-1.1C493.3,372.7,493.7,372.2,494.3,372.2z M496.8,425.2h-4.9c-0.8,0-1.2-0.6-1.2-1.2c0-0.8,0.6-1.2,1.2-1.2h4.9   c0.8,0,1.2,0.6,1.2,1.2C498.1,424.6,497.5,425.2,496.8,425.2z"></path>
</g>
<path class="st1" d="M501,402.8c-0.5,0.6-1.1,0.9-2,1.2c-0.5,0.2-0.5,0.3-0.5,0.6c0,0.5,0,0.6,0,0.9s-0.2,0.5-0.5,0.5  c-0.5,0-0.6,0-1.1,0c-0.3,0-0.5-0.2-0.5-0.5v-0.6c0-0.6,0-0.6-0.6-0.6c-0.6-0.2-1.2-0.3-2-0.6c-0.5-0.3-0.6-0.5-0.5-0.8  c0.2-0.5,0.2-0.6,0.3-1.1c0.2-0.5,0.3-0.5,0.6-0.3c0.6,0.5,1.4,0.6,2,0.6c0.5,0.2,0.9,0,1.4-0.2c0.8-0.5,0.9-1.4,0.3-2  c-0.3-0.2-0.6-0.5-0.8-0.5c-0.6-0.3-1.5-0.6-2.1-0.9c-1.1-0.6-1.8-1.5-1.8-2.9c0.2-1.5,0.9-2.4,2.3-3c0.6-0.2,0.6-0.2,0.6-0.8v-0.6  c0-0.5,0.2-0.6,0.6-0.6h0.5c0.9,0,0.9,0,0.9,0.9c0,0.6,0,0.6,0.6,0.8s0.9,0.3,1.5,0.5c0.3,0.2,0.5,0.3,0.3,0.6  c-0.2,0.5-0.3,0.8-0.5,1.2c-0.2,0.5-0.3,0.5-0.6,0.3c-0.6-0.5-1.5-0.6-2.3-0.5c-0.2,0-0.5,0.2-0.6,0.2c-0.6,0.3-0.8,1.1-0.2,1.7  c0.3,0.3,0.6,0.5,0.9,0.6c0.6,0.3,1.2,0.6,2,0.8C501.9,398.8,502.4,401.3,501,402.8z"></path>
<circle class="st1" cx="277.6" cy="155.3" r="48.8"></circle>
<circle class="st1" cx="245.3" cy="368.8" r="48.8"></circle>
<circle class="st1" cx="462.1" cy="205.6" r="48.8"></circle>
<circle class="st1" cx="498" cy="398" r="48.8"></circle>
<line class="st1" x1="145.3" y1="260.6" x2="212.3" y2="333.3"></line>
<line class="st1" x1="423.3" y1="235.3" x2="284.3" y2="340"></line>
<line class="st1" x1="471" y1="254" x2="489" y2="349.7"></line>
<line class="st1" x1="325" y1="168.5" x2="415" y2="193"></line>
<line class="st4" x1="83.7" y1="264.3" x2="34.8" y2="330.8"></line>
<circle class="st5" cx="28.7" cy="339" r="10.2"></circle>
<line class="st4" x1="436" y1="246.3" x2="390.1" y2="316.8"></line>
<circle class="st5" cx="384" cy="325" r="10.2"></circle>
<ellipse transform="matrix(0.2944 -0.9557 0.9557 0.2944 173.4581 447.2137)" class="st5" cx="389.6" cy="106.1" rx="10.2" ry="10.2"></ellipse>
<line class="st4" x1="270.7" y1="203.6" x2="252.7" y2="321"></line>
<line class="st4" x1="233.3" y1="175.6" x2="158.7" y2="208.3"></line>
<ellipse transform="matrix(0.1477 -0.989 0.989 0.1477 40.8438 284.3644)" class="st5" cx="185.4" cy="118.5" rx="10.2" ry="10.2"></ellipse>
<line class="st4" x1="231.3" y1="139.3" x2="194.5" y2="122.8"></line>
<ellipse transform="matrix(0.5349 -0.8449 0.8449 0.5349 -299.3975 340.907)" class="st5" cx="159.9" cy="442.4" rx="10.2" ry="10.2"></ellipse>
<line class="st4" x1="207.9" y1="400.1" x2="167.5" y2="435.8"></line>
<line class="st4" x1="322.6" y1="136.5" x2="380.4" y2="110.6"></line>
<line class="st4" x1="506.7" y1="183" x2="554" y2="157"></line>
<line class="st4" x1="290.7" y1="387" x2="389.3" y2="425"></line>
<circle class="st1" cx="498" cy="398" r="48.8"></circle>
<path class="st5" d="M630.9,32.3c-0.8-0.6-2-0.9-3-0.5c-1.9,0.5-3,2.5-2.4,4.4c0.2,0.8,0.7,1.4,1.3,1.8l-65.9,110.4  c-1.2-0.6-2.6-0.8-3.9-0.4c-2.9,0.8-4.5,3.8-3.7,6.7c0.5,1.8,1.9,3.1,3.6,3.7L532.4,262c-0.4-0.1-0.9,0-1.4,0.1  c-1.8,0.5-2.8,2.4-2.3,4.2c0,0.2,0.1,0.3,0.2,0.5l-111.7,65.8c-1.1-1.6-3.1-2.3-5-1.8c-2.4,0.7-3.8,3.2-3.1,5.7  c0.5,1.6,1.7,2.7,3.2,3.1l-16.8,83.6c-1.1-0.8-2.6-1.2-4-0.8c-2.4,0.7-3.8,3.2-3.1,5.7c0,0.2,0.1,0.3,0.2,0.5l-114,17.6  c-0.6-1.6-2.4-2.5-4-2c-1.8,0.5-2.8,2.4-2.3,4.2c0.2,0.9,0.8,1.6,1.5,2l-31.9,87.9c-0.6-0.1-1.2-0.2-1.8,0c-1.9,0.5-3,2.5-2.4,4.4  c0.5,1.9,2.5,3,4.4,2.4c1.2-0.3,2.1-1.3,2.4-2.4L357.1,566c-0.1,0.6,0,1.2,0.1,1.8c0,0.2,0.1,0.3,0.2,0.5L258.5,618l0.3,0.6  l98.9-49.7c1,1.6,2.9,2.5,4.8,2.1l4.6,16.1l0.7-0.2l-4.6-16.1c2-0.7,3.2-2.7,2.9-4.8l34.1-7l-4,19.6l0.7,0.1l4-19.9l160.2-27.5l0,0  c0.5,1.9,2.5,3,4.4,2.4c1.9-0.5,3-2.5,2.4-4.4c-0.1-0.3-0.2-0.5-0.3-0.7l91.9-63.4c1.1,1.3,2.9,2,4.6,1.5c2.3-0.7,3.7-3.1,3-5.5  c-0.5-1.7-1.9-2.9-3.6-3.1l6.5-88c0.2,0,0.3,0,0.5-0.1c1.4-0.4,2.3-1.5,2.5-2.9l85-26.7c0.7,1.6,2.5,2.5,4.2,2  c0.6-0.2,1.1-0.5,1.5-0.9l15.6,12.7l0.5-0.6L764.5,341c0.5-0.8,0.7-1.9,0.5-2.9c-0.4-1.3-1.4-2.2-2.6-2.4l11.4-89.5h-0.4l0.2-0.3  l-57.5-41.1c0.3-0.9,0.4-1.9,0.1-2.9c-0.5-1.9-2.2-3.2-4.1-3.3l0.4-98.4h-0.4l0.2-0.3L631.8,37c0.5-0.8,0.7-1.8,0.4-2.8  c-0.2-0.5-0.4-1-0.8-1.4L630.9,32.3z M713.1,207.5c1.2-0.3,2.1-1.1,2.7-2.1l56.9,40.6l-48,17.4c-1-2.3-3.3-3.7-5.8-3.6l-6.1-52.3  C712.9,207.5,713,207.5,713.1,207.5z M718.1,259.9c-0.2,0-0.4,0.1-0.6,0.1c-0.8,0.2-1.5,0.6-2.1,1.1L680.3,223l27.4-17.9  c0.8,1.6,2.5,2.6,4.3,2.5L718.1,259.9z M593.2,356.9l-121.6-18.4c0-0.3,0-0.6-0.1-0.9c-0.1-0.2-0.1-0.4-0.2-0.5l112.2-55.4l14,70.7  h-0.1C595.2,353,593.6,354.8,593.2,356.9z M593.7,360.9l-35.5,21.4l-11.8-5.8l47.1-16.1C593.5,360.6,593.6,360.7,593.7,360.9z   M577.7,249.1l38.1-13.8l-2.6,27.8c-0.3,0-0.6,0-0.9,0.1c-1.4,0.4-2.4,1.6-2.5,3l-28.7-0.5L577.7,249.1z M580.3,265.7l-45.1-0.7  c0-0.2,0-0.3-0.1-0.5l42-15.2L580.3,265.7z M563.7,152.7l55.9-8.6c0,0.1,0,0.2,0.1,0.3c0.6,2.1,2.3,3.5,4.3,3.8l-2.3,24.7  l-58.1-18.5C563.7,153.9,563.8,153.3,563.7,152.7z M707.4,204.4C707.4,204.4,707.5,204.4,707.4,204.4l-27.6,18.2l-4.5-4.9  c1.1-1.1,1.5-2.8,1.1-4.4c-0.7-2.4-3.2-3.8-5.7-3.1c-1.1,0.3-2,1-2.6,1.9L621,186.7l1.2-12.7l85.4,27.2  C707.3,202.1,707.1,203.3,707.4,204.4z M679.2,222.9l-16.7,10.9l7.7-15.1c0.9,0.4,2,0.5,3,0.2c0.6-0.2,1.1-0.4,1.6-0.8L679.2,222.9z   M622.4,173.2l2.3-24.9c0.5,0,1.1-0.1,1.6-0.2c1.1-0.3,2.1-1,2.8-1.9l79.2,53.9c-0.1,0.1-0.2,0.2-0.2,0.4L622.4,173.2z M621.6,173.7  l-1.2,12.6l-57.1-30.9c0-0.1,0.1-0.2,0.1-0.3L621.6,173.7z M621,187.4l46.8,25.3c-0.4,0.9-0.5,2-0.2,3.1l-51,18.5L621,187.4z   M667.8,216.4c0.4,0.9,1,1.5,1.8,2l-8.2,16.2L616,264.3c-0.5-0.6-1.3-1.1-2.1-1.2l2.6-28.1L667.8,216.4z M609.7,266.9  c0,0.2,0.1,0.4,0.1,0.7c0,0.1,0.1,0.2,0.1,0.2L584,280.6l-2.8-14.2L609.7,266.9z M584.1,281.3l26.1-12.9c0.7,1.2,2.1,1.8,3.5,1.6  l9.9,38.8l-22.2,43.8c-1-0.4-2.1-0.6-3.2-0.4L584.1,281.3z M623.9,309.9l13.5,53.1l-32.5-4.4c0.1-0.7,0-1.4-0.2-2.1  c-0.4-1.5-1.4-2.7-2.7-3.5L623.9,309.9z M614.4,269.9c1.3-0.5,2.2-1.6,2.3-3l28.4-0.2l-20.9,41.2L614.4,269.9z M616.7,266.2  c0-0.2-0.1-0.4-0.1-0.6c-0.1-0.2-0.2-0.4-0.3-0.6l44.4-29l-15.3,30L616.7,266.2z M661.9,235.1l17.8-11.7l35.2,38.2  c-1,1-1.6,2.4-1.7,3.8l-67,0.5L661.9,235.1z M711.4,198.5c-0.3,0-0.6,0.1-0.8,0.2c-0.7,0.2-1.3,0.5-1.7,1l-79.3-54  c0.7-1.2,1-2.7,0.5-4.2c-0.1-0.2-0.1-0.4-0.2-0.6l82-40.2L711.4,198.5z M629.1,38.7c0.2,0,0.5-0.1,0.7-0.1c0.6-0.2,1.1-0.5,1.6-1  l80.1,62.5l-82,40.2c-0.9-1.5-2.4-2.5-4.1-2.7L629.1,38.7z M627.4,38.3c0.3,0.1,0.6,0.3,1,0.3l-3.7,98.9c-0.4,0-0.9,0.1-1.3,0.2  c-2.5,0.7-4.1,3.1-3.9,5.6l-55.9,8.6c0-0.1,0-0.2-0.1-0.3c-0.4-1.2-1.1-2.3-2.1-2.9L627.4,38.3z M559.8,158.4  c1.3-0.4,2.4-1.2,3.1-2.3l57.4,31l-4.5,47.4l-38.3,13.9L559.8,158.4L559.8,158.4z M557.5,158.5c0.5,0.1,1,0.1,1.6,0l17.9,90.1  l-42.1,15.2c-0.4-0.8-1.1-1.4-1.9-1.7L557.5,158.5z M532.8,268.5c1.3-0.4,2.3-1.5,2.4-2.8l45.3,0.7l2.9,14.5L471,336.4  c-0.1-0.2-0.3-0.3-0.4-0.5L530,268C530.7,268.6,531.7,268.8,532.8,268.5z M529.1,267.3c0.1,0.1,0.1,0.2,0.2,0.3l-59.5,68  c-0.8-0.5-1.8-0.7-2.8-0.4c-1.3,0.4-2.1,1.4-2.4,2.5l-46.8-2.7c0-0.4,0-0.8-0.2-1.2c-0.1-0.3-0.2-0.5-0.3-0.7L529.1,267.3z   M414.6,339.5c1.8-0.5,3-2,3.3-3.8l46.7,2.7c0,0.4,0,0.7,0.1,1.1c0.4,1.3,1.5,2.3,2.8,2.5l-0.7,18.4c0.2-0.2,0.5-0.4,0.7-0.6  l0.6-17.8c0.3,0,0.6,0,0.8-0.1c0.1,0,0.2-0.1,0.3-0.1l6.4,12.8c0.2-0.1,0.4-0.2,0.6-0.3l-6.4-12.8c0.5-0.3,0.9-0.8,1.2-1.3l19.4,9.6  c0.4-0.1,0.9-0.1,1.3-0.2l-20.4-10.1c0-0.1,0.1-0.3,0.1-0.4l121.5,18.4c-0.1,0.7,0,1.4,0.2,2.1L545.5,376l-5.4-2.7  c0.2,0.4,0.4,0.7,0.6,1.1l3.8,1.9l-2.4,0.8c0.1,0.2,0.2,0.4,0.3,0.7l3-1l12.1,5.9l-11.5,6.9c0,0.3,0.1,0.5,0.1,0.8l12.1-7.3  l41.6,20.5c-0.2,0.6-0.3,1.4-0.1,2.1c0,0,0,0.1,0.1,0.1l-79.1,36.4l-0.4-0.9c-0.2,0.1-0.4,0.2-0.6,0.3l0.4,0.9l-52.6,24.2  c-0.5-1.7-1.9-2.8-3.5-3.1l0.9-24.1l4.1-2.5c-0.2-0.2-0.4-0.3-0.6-0.5l-3.4,2.1l0.2-4.8c-0.2-0.2-0.5-0.4-0.7-0.7l-0.2,5.9l-24.9,15  l-20.9-12.5l-0.9-21.1l33.2-11.3c-0.1-0.2-0.1-0.5-0.2-0.7l-33,11.3l-3.5-80.1C414.1,339.6,414.4,339.6,414.6,339.5z M458.8,466.7  c-0.3,0.9-0.3,1.8-0.1,2.7c0.3,1.2,1.1,2.1,2.1,2.7l-17.7,25.4l-22.4-1.4l-1.3-29.1l19.8-12L458.8,466.7z M439.9,454.5L464,440  l-0.8,23.6c-0.4,0-0.9,0-1.3,0.2c-1.3,0.4-2.2,1.2-2.8,2.3L439.9,454.5z M419.4,466.1l-1-23.6l20.2,12.1L419.4,466.1z M419.9,496  l-41.9-2.6c0-0.3,0-0.5-0.1-0.8c-0.1-0.2-0.1-0.3-0.2-0.5l41-24.7L419.9,496z M378,494.1l42,2.6l1.2,28.6c-0.1,0-0.3,0-0.4,0.1  c-0.6,0.2-1.1,0.5-1.5,1l-41.7-31C377.8,495,377.9,494.6,378,494.1z M420.7,496.8l21.9,1.3l-19.3,27.5c-0.4-0.2-0.9-0.4-1.4-0.4  L420.7,496.8z M443.4,498.2l41,2.5c0,0.3,0,0.6,0.1,0.9v0.1L424.6,527c-0.2-0.3-0.4-0.7-0.7-0.9L443.4,498.2z M484.5,500l-40.6-2.5  l17.6-25.1c0.9,0.4,1.9,0.4,2.9,0.2c1.6-0.5,2.8-1.8,3.2-3.3l60-2l-37.4,31.2c-0.8-0.9-2.1-1.3-3.4-1  C485.6,497.8,484.7,498.8,484.5,500z M467.7,468.5c0-0.3,0-0.7,0-1.1l52.8-24.3l10.7,21.2l-2.6,2.2L467.7,468.5z M531.4,465l0.7,1.4  l-2.5,0.1L531.4,465z M521.1,442.9l79.1-36.4l0.1,0.1l-68.6,57.2L521.1,442.9z M417.6,441.2l-20.9-12.5c0.2-0.4,0.3-0.8,0.4-1.2  l19.7-6.7L417.6,441.2z M412.8,339.7c0.1,0,0.3,0,0.4,0l3.5,80.3l-19.6,6.7c0-0.4,0-0.8-0.2-1.2c-0.2-0.7-0.6-1.3-1-1.8L412.8,339.7  z M396.3,429.3l21.3,12.7l1.1,24.5l-41.3,24.9c-0.4-0.5-0.9-0.9-1.5-1.1l18.2-59.3C395,430.7,395.7,430.1,396.3,429.3z M274.5,446.9  l114.1-17.7c1,1.5,2.8,2.4,4.6,2.1l-18,58.8c-0.5-0.1-1.1-0.1-1.7,0.1c-0.9,0.3-1.6,0.9-2.1,1.6l-97-43.6  C274.6,447.8,274.6,447.3,274.5,446.9z M239.9,540.1c-0.4-0.7-0.9-1.3-1.7-1.7l31.9-87.8c0.6,0.2,1.3,0.2,2,0c1-0.3,1.7-1,2.1-1.8  l96.9,43.6c-0.2,0.6-0.2,1.3-0.1,1.9L239.9,540.1z M362.1,561.9c-0.6-0.1-1.1,0-1.7,0.1c-1.6,0.5-2.7,1.7-3.1,3.2l-117.1-23.3  c0-0.4,0-0.8-0.1-1.1l131.2-45.7c0.4,0.9,1.3,1.6,2.2,1.9L362.1,561.9z M400.6,558.1l-34.5,7.1c-0.5-1.6-1.7-2.8-3.3-3.1l11.4-65  c0.4,0,0.8,0,1.2-0.1c0.7-0.2,1.2-0.6,1.6-1l41.7,31c-0.5,0.8-0.6,1.7-0.3,2.6c0.2,0.6,0.6,1.2,1,1.6L400.6,558.1z M561.2,530.6  L401.6,558l18.5-26.4c0.8,0.4,1.7,0.5,2.6,0.3c1.8-0.5,2.8-2.4,2.3-4.2l0,0l59.9-25.3c0.8,1.3,2.3,2,3.8,1.6c1-0.3,1.8-1,2.2-2  l70.5,27.5C561.2,529.8,561.2,530.2,561.2,530.6z M561.6,528.7l-70.5-27.5c0.1-0.5,0.1-1-0.1-1.5c-0.1-0.3-0.2-0.5-0.3-0.8  l38.1-31.8l3.7-0.1l30.4,60.3C562.3,527.7,561.9,528.2,561.6,528.7z M567.4,528.1c-0.9-1-2.3-1.5-3.7-1.1c-0.1,0-0.2,0.1-0.3,0.1  l-30.2-60l125.5-4.1c0,0.2,0.1,0.5,0.1,0.7c0.1,0.4,0.3,0.7,0.4,1L567.4,528.1z M658.8,462.3l-125.9,4.1l-0.9-1.8l68.7-57.3  c0.8,0.8,2.1,1.2,3.3,0.8c0.6-0.2,1.1-0.5,1.5-0.9l54.3,52.6C659.2,460.4,658.8,461.3,658.8,462.3z M660.3,459.2L606,406.6  c0.5-0.8,0.6-1.7,0.4-2.7c-0.5-1.8-2.4-2.8-4.2-2.3c-0.8,0.2-1.5,0.8-1.9,1.4L559,382.7l35.1-21.2c1.4,2.1,4,3.1,6.6,2.4  c2.2-0.6,3.8-2.5,4.2-4.6l32.8,4.5l24.1,94.6C661.2,458.5,660.7,458.8,660.3,459.2z M663.1,458.1c-0.2,0-0.5,0-0.7,0.1l-24-94.3  l28.1,3.8c0.4,1.5,1.7,2.4,3.2,2.5L663.1,458.1z M671.7,363.7c-0.8-0.5-1.9-0.7-2.9-0.4c-1.6,0.5-2.7,2-2.5,3.6l-28.1-3.8L624.4,309  l21.5-42.3l67.4-0.5c0,0.4,0.1,0.8,0.2,1.2c0.5,1.6,1.5,2.8,2.8,3.6L671.7,363.7z M758.1,339.8l-84.8,26.6c0-0.2-0.1-0.5-0.1-0.7  c-0.2-0.6-0.5-1.1-0.9-1.5l44.6-92.9c1.2,0.5,2.6,0.6,3.9,0.2c0.4-0.1,0.7-0.2,1-0.4l37.6,65.1C758.4,337,757.8,338.4,758.1,339.8z   M760.6,335.7c-0.2,0-0.3,0.1-0.5,0.2l-37.6-65.1c2.1-1.4,3.2-4.1,2.4-6.6l0,0l48.1-17.5l-11.4,88.9  C761.3,335.6,760.9,335.6,760.6,335.7z"></path>
</svg>
