<?xml version="1.0" encoding="UTF-8"?>
<svg xmlns="http://www.w3.org/2000/svg" xmlns:xlink="http://www.w3.org/1999/xlink" width="162px" height="73px" viewBox="0 0 162 73">
  <!-- Generator: Sketch 50.2 (55047) - http://www.bohemiancoding.com/sketch -->
  <title>Page 1</title>
  <desc>Created with Sketch.</desc>
  <defs></defs>
  <g id="Design" stroke="none" stroke-width="1" fill="none" fill-rule="evenodd">
    <g id="whykonyfx" transform="translate(-191.000000, -2190.000000)" fill="#000000">
      <g id="partners" transform="translate(90.000000, 2030.000000)">
        <g id="Page-1" transform="translate(101.000000, 160.000000)">
          <g id="Group-88" transform="translate(0.000000, 0.213000)">
            <path d="M7.2501,42.7352 C5.6391,42.7352 4.6911,41.9042 4.6911,40.2552 C4.6911,37.1402 9.2521,36.5242 11.5511,36.5242 C11.5511,39.1742 10.4621,42.7352 7.2501,42.7352 Z M16.1601,45.6442 L16.1601,30.9222 C16.1601,26.1482 13.0271,24.5002 8.6411,24.5002 C4.3491,24.5002 0.7741,26.3222 0.7741,31.0592 L5.4761,31.0592 C5.4761,29.0122 6.5621,27.8892 8.6411,27.8892 C11.0261,27.8892 11.5511,29.6182 11.5511,31.6622 L11.5511,33.7042 C6.8601,33.8342 0.0001,34.4892 0.0001,40.6992 C0.0001,44.2142 2.7811,46.1242 6.0781,46.1242 C8.3381,46.1242 10.4201,45.3852 11.4681,43.2572 L11.5511,43.2572 L11.5511,45.6442 L16.1601,45.6442 Z" id="Fill-35"></path>
            <path d="M27.715,24.4998 C21.516,24.4998 18.248,28.4008 18.248,34.3938 C18.248,41.6018 21.941,46.1238 29.319,46.1238 C31.363,46.1238 33.402,45.7818 35.359,45.1688 L35.359,42.2168 C34.227,42.6038 33.054,42.7348 31.89,42.7348 C26.407,42.7348 23.373,38.7398 23.373,33.5308 C23.373,31.0598 24.285,27.8898 27.327,27.8898 C29.842,27.8898 30.45,29.9288 30.45,32.0538 L35.575,32.0538 C35.575,26.9718 32.757,24.4998 27.715,24.4998" id="Fill-37"></path>
            <path d="M47.8405,46.1239 C49.8805,46.1239 51.9255,45.7819 53.8745,45.1689 L53.8745,42.2169 C52.7495,42.6039 51.5735,42.7349 50.4025,42.7349 C44.9345,42.7349 41.8845,38.7399 41.8845,33.5309 C41.8845,31.0599 42.8045,27.8899 45.8425,27.8899 C48.3585,27.8899 48.9685,29.9289 48.9685,32.0539 L54.0985,32.0539 C54.0985,26.9719 51.2695,24.4999 46.2345,24.4999 C40.0265,24.4999 36.7675,28.4009 36.7675,34.3939 C36.7675,41.6019 40.4555,46.1239 47.8405,46.1239" id="Fill-39"></path>
            <path d="M64.1979,27.5721 C66.4209,27.5721 67.8649,28.9281 67.8649,31.1401 L60.3099,31.1401 C60.5289,29.0521 62.1299,27.5721 64.1979,27.5721 M66.1189,46.1241 C68.0759,46.1241 70.0409,45.9091 71.8899,45.3001 L71.8899,41.9581 C70.6739,42.3881 69.2489,42.7351 67.9469,42.7351 C63.2609,42.7351 60.1679,38.4391 60.1679,34.0561 L72.4239,34.0561 L72.4239,32.8791 C72.4239,27.8431 69.8189,24.5001 64.5629,24.5001 C58.4009,24.5001 55.6989,28.3641 55.6989,34.2271 C55.6989,41.0371 58.7809,46.1241 66.1189,46.1241" id="Fill-41"></path>
            <path d="M85.9718,29.4071 C86.7878,30.1861 86.7068,32.8311 86.7068,33.8341 L86.7068,45.6441 L91.5398,45.6441 L91.5398,31.3151 C91.5398,27.7611 89.8738,24.5001 85.9268,24.5001 C82.9728,24.5001 80.8938,26.1971 79.8038,28.8391 L79.7198,28.8391 L79.7198,24.9651 L74.8898,24.9651 L74.8898,45.6441 L79.7198,45.6441 L79.7198,36.7001 C79.7198,33.9161 81.1088,29.0121 84.5728,29.0121 C85.0668,29.0121 85.6128,29.0531 85.9718,29.4071" id="Fill-43"></path>
            <path d="M101.5538,18.1141 L96.7538,20.0661 L96.7538,24.9651 L92.7098,24.9651 L92.7098,28.3191 L96.7538,28.3191 L96.7538,40.4311 C96.7538,44.7361 98.8598,46.1241 103.0858,46.1241 C104.3938,46.1241 105.7298,45.9991 107.0268,45.7821 L107.0268,42.3881 C106.3008,42.5681 105.5668,42.7351 104.8138,42.7351 C101.8108,42.7351 101.5538,40.5201 101.5538,38.0861 L101.5538,28.3191 L107.6938,28.3191 L107.6938,24.9651 L101.5538,24.9651 L101.5538,18.1141 Z" id="Fill-45"></path>
            <path d="M121.5577,41.7869 L121.6407,41.7869 L121.6407,45.6439 L126.4617,45.6439 L126.4617,24.9649 L121.6407,24.9649 L121.6407,33.9159 C121.6407,36.6999 120.2487,41.6009 116.7677,41.6009 C116.2997,41.6009 115.7237,41.5669 115.3787,41.2199 C114.5497,40.4319 114.6427,37.7809 114.6427,36.7889 L114.6427,24.9649 L109.8277,24.9649 L109.8277,39.3059 C109.8277,42.8699 111.4657,46.1239 115.4257,46.1239 C118.3447,46.1239 120.4677,44.3839 121.5577,41.7869" id="Fill-47"></path>
            <path d="M134.4073,28.7899 L134.3223,28.7899 L134.3223,24.9649 L129.4933,24.9649 L129.4933,45.6439 L134.3223,45.6439 L134.3223,36.5709 C134.3223,31.7059 136.1443,29.5389 141.0913,29.5389 L141.0913,24.4999 C137.6223,24.4999 136.0073,25.9339 134.4073,28.7899" id="Fill-49"></path>
            <path d="M150.5709,27.5721 C152.7929,27.5721 154.2269,28.9281 154.2269,31.1401 L146.6679,31.1401 C146.8839,29.0521 148.4919,27.5721 150.5709,27.5721 Z M158.2619,41.9581 C157.0489,42.3881 155.6129,42.7351 154.3189,42.7351 C149.6169,42.7351 146.5359,38.4391 146.5359,34.0561 L158.7849,34.0561 L158.7849,32.8791 C158.7849,27.8431 156.1819,24.5001 150.9249,24.5001 C144.7569,24.5001 142.0659,28.3641 142.0659,34.2271 C142.0659,41.0371 145.1499,46.1241 152.4829,46.1241 C154.4359,46.1241 156.3949,45.9091 158.2619,45.3001 L158.2619,41.9581 Z" id="Fill-51"></path>
            <path d="M92.7037,4.116 C92.7037,4.116 102.3307,7.845 103.7107,8.384 C102.3307,8.911 92.7037,12.624 92.7037,12.624 L92.7037,16.018 L107.6987,9.928 L107.6987,6.812 L92.7037,0.716 L92.7037,4.116 Z" id="Fill-53"></path>
            <polygon id="Fill-55" points="6.5987 62.283 2.0187 62.283 2.0187 57.479 0.7647 57.479 0.7647 68.568 2.0187 68.568 2.0187 63.33 6.5987 63.33 6.5987 68.568 7.8517 68.568 7.8517 57.479 6.5987 57.479"></polygon>
            <polygon id="Fill-57" points="9.585 58.926 11.031 58.926 11.031 57.48 9.585 57.48"></polygon>
            <polygon id="Fill-59" points="9.761 68.568 10.855 68.568 10.855 60.917 9.761 60.917"></polygon>
            <path d="M14.8443,67.6522 C13.4773,67.6522 13.2843,65.8192 13.2843,64.8082 C13.2843,63.8102 13.4773,61.6582 14.8753,61.6582 C16.2413,61.6582 16.6753,63.5402 16.6753,64.5982 C16.6753,65.6922 16.2413,67.6522 14.8443,67.6522 Z M16.6753,62.1732 L16.6443,62.1732 C16.4033,61.2712 15.5523,60.7412 14.6523,60.7412 C12.5613,60.7412 12.0313,63.1362 12.0313,64.7922 C12.0313,66.5102 12.5123,68.5682 14.6193,68.5682 C15.5663,68.5682 16.3543,68.0232 16.6443,67.1042 L16.6753,67.1042 L16.6753,68.4552 C16.6753,70.0952 16.1303,70.9972 14.3613,70.9972 C13.6863,70.9972 13.0603,70.8362 12.4493,70.5452 L12.4493,71.6532 C13.1573,71.7982 13.7833,71.9112 14.5233,71.9112 C16.7243,71.9112 17.7693,70.7532 17.7693,68.5852 L17.7693,60.9172 L16.6753,60.9172 L16.6753,62.1732 Z" id="Fill-60"></path>
            <path d="M22.9244,60.741 C21.5914,60.741 20.9144,61.512 20.5294,62.687 L20.4974,62.687 L20.4974,57.479 L19.4044,57.479 L19.4044,68.568 L20.4974,68.568 L20.4974,65.419 C20.4974,64.213 21.1404,61.835 22.6684,61.835 C23.9214,61.835 23.7914,63.458 23.7914,64.326 L23.7914,68.568 L24.8854,68.568 L24.8854,63.105 C24.8854,61.899 24.2744,60.741 22.9244,60.741" id="Fill-61"></path>
            <path d="M32.5568,67.8299 C31.1088,67.8299 30.7878,65.7869 30.7878,64.7099 C30.7878,63.6499 31.2058,61.6579 32.5888,61.6579 C33.9858,61.6579 34.1798,63.4089 34.1798,64.4699 C34.1798,65.5309 34.0518,67.8299 32.5568,67.8299 M32.8128,60.7409 C31.8968,60.7409 31.0768,61.3369 30.8198,62.2219 L30.7878,62.2219 L30.7878,60.9169 L29.6958,60.9169 L29.6958,72.0089 L30.7878,72.0089 L30.7878,67.3139 L30.8198,67.3139 C31.1088,68.2469 31.8498,68.7449 32.8288,68.7449 C34.9188,68.7449 35.4328,66.3349 35.4328,64.6779 C35.4328,62.8949 35.0158,60.7409 32.8128,60.7409" id="Fill-62"></path>
            <path d="M37.6495,63.1053 C37.8105,62.2693 38.3575,61.6583 39.2575,61.6583 C40.0935,61.6583 40.7195,62.2693 40.7195,63.1053 L37.6495,63.1053 Z M39.3055,60.7413 C37.0545,60.7413 36.3155,62.4933 36.3155,64.4863 C36.3155,66.9623 37.3915,68.7453 40.0455,68.7453 C40.6395,68.7453 41.2345,68.6963 41.7955,68.5213 L41.7955,67.6203 C41.2815,67.7503 40.8155,67.8303 40.2865,67.8303 C38.4055,67.8303 37.5685,66.1423 37.5685,64.4693 L37.5685,64.0183 L41.9735,64.0183 L41.9735,63.6503 C41.9735,61.9623 41.0885,60.7413 39.3055,60.7413 Z" id="Fill-63"></path>
            <path d="M44.4147,62.3973 L44.3817,62.3973 L44.3817,60.9173 L43.2897,60.9173 L43.2897,68.5683 L44.3817,68.5683 L44.3817,65.4013 C44.3817,63.7313 44.9927,61.9163 46.9697,61.9163 L46.9697,60.7413 C45.7477,60.7413 44.8957,61.2883 44.4147,62.3973" id="Fill-64"></path>
            <path d="M51.7911,58.3465 C52.1781,58.3465 52.5321,58.4275 52.9001,58.5565 L52.9001,57.5755 C52.4671,57.4795 52.0331,57.4325 51.6001,57.4325 C50.0081,57.4325 49.0921,58.2675 49.0921,59.8585 L49.0921,60.9165 L47.8071,60.9165 L47.8071,61.8345 L49.0921,61.8345 L49.0921,68.5685 L50.1851,68.5685 L50.1851,61.8345 L52.3861,61.8345 L52.3861,60.9165 L50.1851,60.9165 C50.1851,59.6005 50.0551,58.3465 51.7911,58.3465" id="Fill-65"></path>
            <path d="M55.8424,67.8299 C54.2524,67.8299 53.9784,65.9659 53.9784,64.7429 C53.9784,63.5229 54.2524,61.6579 55.8424,61.6579 C57.4334,61.6579 57.7394,63.5069 57.7394,64.7429 C57.7394,65.9809 57.4494,67.8299 55.8424,67.8299 M55.8424,60.7409 C53.4804,60.7409 52.7254,62.7019 52.7254,64.7599 C52.7254,66.8159 53.4804,68.7449 55.8424,68.7449 C58.2204,68.7449 58.9924,66.8319 58.9924,64.7599 C58.9924,62.6869 58.2204,60.7409 55.8424,60.7409" id="Fill-66"></path>
            <path d="M61.4532,62.3973 L61.4212,62.3973 L61.4212,60.9173 L60.3282,60.9173 L60.3282,68.5683 L61.4212,68.5683 L61.4212,65.4013 C61.4212,63.7313 62.0322,61.9163 64.0092,61.9163 L64.0092,60.7413 C62.7872,60.7413 61.9362,61.2883 61.4532,62.3973" id="Fill-67"></path>
            <path d="M72.3365,60.741 C71.2585,60.741 70.4885,61.512 70.1675,62.493 L70.1355,62.493 C70.0545,61.353 69.3475,60.741 68.2065,60.741 C66.9525,60.741 66.3745,61.594 66.0685,62.687 L66.0365,62.687 L66.0365,60.917 L64.9435,60.917 L64.9435,68.568 L66.0365,68.568 L66.0365,65.419 C66.0365,64.358 66.5495,61.835 67.9495,61.835 C69.2025,61.835 69.0735,63.458 69.0735,64.326 L69.0735,68.568 L70.1675,68.568 L70.1675,65.419 C70.1675,64.358 70.6655,61.835 72.0795,61.835 C73.3325,61.835 73.2045,63.458 73.2045,64.326 L73.2045,68.568 L74.2965,68.568 L74.2965,63.105 C74.2965,61.899 73.6875,60.741 72.3365,60.741" id="Fill-68"></path>
            <path d="M79.6998,66.6405 C79.3798,67.3295 78.6888,67.8295 77.9168,67.8295 C77.2718,67.8295 76.8408,67.3635 76.8408,66.7205 C76.8408,65.4975 78.3668,65.0985 79.3478,65.0985 L79.9898,65.0985 C79.9898,65.7395 79.9568,66.0605 79.6998,66.6405 M78.5118,60.7415 C77.1448,60.7415 75.7948,61.3365 75.7618,62.8785 L76.9848,62.8785 C77.0958,61.9625 77.6438,61.6585 78.5438,61.6585 C80.0698,61.6585 79.9898,62.8785 79.9898,64.0185 L79.9898,64.1805 C79.7328,64.2295 79.4918,64.2295 79.2338,64.2295 C77.8198,64.2295 75.5858,64.8555 75.5858,66.6085 C75.5858,67.9115 76.3258,68.7445 77.6438,68.7445 C78.4948,68.7445 79.5718,68.3585 79.9898,67.5555 L80.0208,67.5555 L80.0208,68.5685 L81.0818,68.5685 L81.0818,63.2015 C81.0818,61.4955 80.2468,60.7415 78.5118,60.7415" id="Fill-69"></path>
            <path d="M86.3199,60.741 C84.9869,60.741 84.3109,61.512 83.9249,62.687 L83.8929,62.687 L83.8929,60.917 L82.7999,60.917 L82.7999,68.568 L83.8929,68.568 L83.8929,65.419 C83.8929,64.213 84.5369,61.835 86.0639,61.835 C87.3159,61.835 87.1889,63.458 87.1889,64.326 L87.1889,68.568 L88.2809,68.568 L88.2809,63.105 C88.2809,61.899 87.6689,60.741 86.3199,60.741" id="Fill-70"></path>
            <path d="M92.6808,61.658 C93.6608,61.658 94.0478,62.365 94.0478,63.249 L95.3488,63.249 C95.3488,61.594 94.3538,60.741 92.7298,60.741 C90.3838,60.741 89.6108,62.477 89.6108,64.567 C89.6108,67.122 90.9148,68.745 93.5478,68.745 C94.1138,68.745 94.6108,68.696 95.1408,68.536 L95.1408,67.669 C94.7408,67.796 94.3218,67.83 93.9038,67.83 C91.7338,67.83 90.8658,66.302 90.8658,64.326 C90.8658,63.184 91.2838,61.658 92.6808,61.658" id="Fill-71"></path>
            <path d="M97.15,63.1053 C97.311,62.2693 97.858,61.6583 98.759,61.6583 C99.594,61.6583 100.22,62.2693 100.22,63.1053 L97.15,63.1053 Z M98.806,60.7413 C96.554,60.7413 95.817,62.4933 95.817,64.4863 C95.817,66.9623 96.893,68.7453 99.545,68.7453 C100.14,68.7453 100.736,68.6963 101.297,68.5213 L101.297,67.6203 C100.783,67.7503 100.317,67.8303 99.787,67.8303 C97.906,67.8303 97.07,66.1423 97.07,64.4693 L97.07,64.0183 L101.474,64.0183 L101.474,63.6503 C101.474,61.9623 100.59,60.7413 98.806,60.7413 Z" id="Fill-72"></path>
            <polygon id="Fill-73" points="102.349 68.568 103.955 68.568 103.955 66.963 102.349 66.963"></polygon>
            <path d="M112.34,67.2196 C111.76,67.4766 111.087,67.5236 110.46,67.5236 L109.607,67.5236 L109.607,58.5246 L110.315,58.5246 C110.924,58.5246 111.569,58.5566 112.132,58.7646 C113.866,59.3746 114.029,61.4486 114.029,63.0066 C114.029,64.4696 113.882,66.5106 112.34,67.2196 M110.845,57.4796 L108.354,57.4796 L108.354,68.5686 L110.443,68.5686 C111.215,68.5686 112.019,68.5216 112.758,68.2636 C115.008,67.4926 115.393,65.0986 115.393,62.9906 C115.393,59.7926 114.413,57.4796 110.845,57.4796" id="Fill-74"></path>
            <path d="M117.7213,63.1053 C117.8853,62.2693 118.4303,61.6583 119.3303,61.6583 C120.1663,61.6583 120.7933,62.2693 120.7933,63.1053 L117.7213,63.1053 Z M119.3783,60.7413 C117.1293,60.7413 116.3893,62.4933 116.3893,64.4863 C116.3893,66.9623 117.4673,68.7453 120.1173,68.7453 C120.7133,68.7453 121.3063,68.6963 121.8693,68.5213 L121.8693,67.6203 C121.3563,67.7503 120.8903,67.8303 120.3603,67.8303 C118.4793,67.8303 117.6423,66.1423 117.6423,64.4693 L117.6423,64.0183 L122.0483,64.0183 L122.0483,63.6503 C122.0483,61.9623 121.1623,60.7413 119.3783,60.7413 Z" id="Fill-75"></path>
            <polygon id="Fill-76" points="123.467 68.568 124.56 68.568 124.56 57.479 123.467 57.479"></polygon>
            <polygon id="Fill-77" points="126.331 58.926 127.776 58.926 127.776 57.48 126.331 57.48"></polygon>
            <polygon id="Fill-78" points="126.506 68.568 127.6 68.568 127.6 60.917 126.506 60.917"></polygon>
            <polygon id="Fill-79" points="131.9205 66.9627 131.8895 66.9627 129.6395 60.9167 128.4645 60.9167 131.3595 68.5677 132.4675 68.5677 135.0575 60.9167 133.8835 60.9167"></polygon>
            <path d="M136.628,63.1053 C136.788,62.2693 137.335,61.6583 138.236,61.6583 C139.07,61.6583 139.697,62.2693 139.697,63.1053 L136.628,63.1053 Z M138.283,60.7413 C136.034,60.7413 135.295,62.4933 135.295,64.4863 C135.295,66.9623 136.37,68.7453 139.024,68.7453 C139.617,68.7453 140.211,68.6963 140.774,68.5213 L140.774,67.6203 C140.26,67.7503 139.795,67.8303 139.265,67.8303 C137.383,67.8303 136.547,66.1423 136.547,64.4693 L136.547,64.0183 L140.951,64.0183 L140.951,63.6503 C140.951,61.9623 140.067,60.7413 138.283,60.7413 Z" id="Fill-80"></path>
            <path d="M143.4791,62.3973 L143.4471,62.3973 L143.4471,60.9173 L142.3561,60.9173 L142.3561,68.5683 L143.4471,68.5683 L143.4471,65.4013 C143.4471,63.7313 144.0591,61.9163 146.0361,61.9163 L146.0361,60.7413 C144.8141,60.7413 143.9621,61.2883 143.4791,62.3973" id="Fill-81"></path>
            <path d="M147.7955,63.1053 C147.9585,62.2693 148.5045,61.6583 149.4045,61.6583 C150.2385,61.6583 150.8665,62.2693 150.8665,63.1053 L147.7955,63.1053 Z M149.4515,60.7413 C147.2015,60.7413 146.4615,62.4933 146.4615,64.4863 C146.4615,66.9623 147.5385,68.7453 150.1925,68.7453 C150.7865,68.7453 151.3805,68.6963 151.9435,68.5213 L151.9435,67.6203 C151.4295,67.7503 150.9625,67.8303 150.4345,67.8303 C148.5535,67.8303 147.7155,66.1423 147.7155,64.4693 L147.7155,64.0183 L152.1195,64.0183 L152.1195,63.6503 C152.1195,61.9623 151.2355,60.7413 149.4515,60.7413 Z" id="Fill-82"></path>
            <path d="M155.8824,67.8299 C154.4694,67.8299 154.2944,66.0769 154.2944,65.0169 C154.2944,63.9559 154.4204,61.6579 155.9154,61.6579 C157.3614,61.6579 157.6834,63.6989 157.6834,64.7759 C157.6834,65.8369 157.2494,67.8299 155.8824,67.8299 Z M157.6954,62.1729 L157.6634,62.1729 C157.3424,61.2399 156.6494,60.7409 155.6534,60.7409 C153.5654,60.7409 153.0494,63.1519 153.0494,64.8089 C153.0494,66.5919 153.4694,68.7449 155.6694,68.7449 C156.5844,68.7449 157.4064,68.1519 157.6634,67.2669 L157.6954,67.2669 L157.6954,68.5679 L158.7884,68.5679 L158.7884,57.4789 L157.6954,57.4789 L157.6954,62.1729 Z" id="Fill-83"></path>
            <polygon id="Fill-84" points="160.205 68.568 161.812 68.568 161.812 66.963 160.205 66.963"></polygon>
          </g>
        </g>
      </g>
    </g>
  </g>
</svg>
