<?xml version="1.0" encoding="UTF-8"?>
<svg xmlns="http://www.w3.org/2000/svg" xmlns:xlink="http://www.w3.org/1999/xlink" width="113px" height="39px" viewBox="0 0 113 39">
  <!-- Generator: Sketch 50.2 (55047) - http://www.bohemiancoding.com/sketch -->
  <title>arvest-bank-logo_grey</title>
  <desc>Created with Sketch.</desc>
  <defs></defs>
  <g id="Design" stroke="none" stroke-width="1" fill="none" fill-rule="evenodd">
    <g id="Artboard" transform="translate(-1619.000000, -564.000000)" fill="#BFBFBF" fill-rule="nonzero">
      <g id="arvest-bank-logo_grey" transform="translate(1619.000000, 564.000000)">
        <path d="M96.6913201,0.843045112 L111.858586,0.623120303 L111.858586,4.43515038 C111.530448,3.84868421 111.16585,3.29887218 110.473115,3.29887218 L105.988562,3.29887218 C106.085789,10.9473684 106.183014,18.6080827 106.28024,26.2810151 C106.28024,27.2340226 107.082356,27.7471804 107.665712,28.443609 L101.46755,28.5169173 C101.977987,27.893797 102.743642,27.3073309 102.707183,26.5009398 L102.451964,3.37218045 L97.8580325,3.37218045 C97.2746763,3.37218045 96.8736188,4.17857143 96.6184003,4.58176691 L96.6913201,0.76973684 L96.6913201,0.843045112 Z M95.1964693,0.87969925 L95.1964693,5.9013158 L94.8318714,5.9013158 C94.4218521,5.1248275 93.8189565,4.46820895 93.0818022,3.99530075 C90.8212965,2.4924812 87.5034567,2.41917293 85.9721464,5.20488722 C84.440836,7.99060149 88.6337101,9.93327069 90.3837794,11.106203 C92.133848,12.2791353 94.6495727,13.8552631 96.0350441,15.9078947 C98.1861708,19.0968045 97.7121935,22.5056391 95.7798256,24.9614662 C94.1011181,27.0468702 91.6258531,28.3243684 88.9618479,28.4802631 C87.9783461,28.5575271 86.9899105,28.5452592 86.0086066,28.443609 C84.9148128,28.3336466 83.3470428,28.0037594 82.8366058,28.9934211 L82.6178475,28.9934211 L82.6178475,24.4116542 L83.0553647,24.4116542 C84.3431252,25.5138373 85.9957548,26.0894542 87.685756,26.0244361 C89.0734165,26.0251778 90.4349364,25.6449616 91.6234116,24.924812 C94.3214344,23.1654135 95.1235495,19.2800752 93.1182624,16.7142857 C91.8786301,15.1015038 89.8004226,13.9652256 88.1232731,13.012218 C85.7898477,11.6926691 83.5658017,10.3364662 82.9095256,7.55075186 C82.2532496,3.29887218 85.8263073,0.586466165 89.6545835,0.586466165 C90.4956813,0.6037847 91.3302166,0.739502664 92.133848,0.989661654 C92.9724233,1.2462406 93.7380782,1.61278196 94.2120556,1.53947369 C94.5990766,1.44541916 94.9448252,1.22656511 95.1964693,0.916353383 L95.1964693,0.87969925 Z M81.6334332,0.806390979 L81.6334332,4.83834587 L81.4511345,4.83834587 C81.1594564,3.84868421 80.5761002,3.37218045 79.7739851,3.29887218 L70.1121449,3.37218045 L70.1121449,13.1954887 L77.4040994,13.1954887 C78.0603755,13.1954887 78.1697549,12.6823309 78.5343528,12.1691729 L78.5343528,17.3007519 C78.1697549,16.8975564 77.805157,16.2744361 77.2582604,16.2744361 L70.0756853,16.2744361 L70.0756853,26.0244361 L79.6646056,26.0244361 C80.4255419,26.0512773 81.0849591,25.4988334 81.195916,24.7415413 L81.5240543,24.7415413 L81.4511345,28.5535714 L65.5911331,28.5535714 L65.5911331,28.2969925 C66.4297078,27.4539474 66.8307653,26.8674812 66.7578455,25.987782 C66.7578455,18.2171053 66.7578455,10.3364662 66.7578455,2.56578947 C66.7578455,1.79605263 66.3932482,1.39285714 66.0651099,1.31954887 C65.7369721,1.2462406 64.4608802,2.19924812 64.2056618,2.82236842 L52.9031317,29.1400376 L40.6891075,2.27255639 C40.3386712,1.76323981 39.8928401,1.32748218 39.3765557,0.989661654 L44.1892458,0.989661654 C43.7372613,1.3817644 43.6160956,2.03650228 43.8975676,2.56578947 L52.7208329,21.9924812 L60.7784431,2.63909774 C61.033661,2.01597744 61.033661,1.17293233 60.3773856,0.76973684 L81.6334332,0.806390979 Z M14.0370129,0 L24.7561864,23.0921053 C24.7197266,16.4210526 24.7561864,9.67669176 24.7197266,3.0056391 C24.5738875,2.01597744 24.0634507,1.35620301 23.2977954,0.733082707 L25.303083,0.989661654 C26.0634697,1.10188076 26.834113,1.12647605 27.6000487,1.06296993 C28.478138,0.981523203 29.3455764,0.809567208 30.1886927,0.54981203 C31.7984789,0.221211608 33.4640265,0.29674964 35.0378426,0.76973684 C39.9234523,2.23590226 43.0589928,7.44078947 39.5953143,12.7922932 C38.5744406,14.3684211 37.1525095,15.3947369 35.5118196,16.4577068 C41.3818432,23.7885338 47.215407,31.3392857 53.0854306,38.6701128 L52.9031317,38.9266918 L49.7311314,39 L31.100187,15.174812 C33.7617505,14.5516918 35.5847392,13.5620301 36.4962335,12.1691729 C38.027544,9.89661654 38.027544,7.7706767 37.1889692,6.12124058 C35.9857967,3.77537594 33.9075896,2.30921053 29.7511754,2.71240602 C28.9855201,2.78571429 27.8917269,2.63909774 27.8188074,3.66541353 C27.7458878,11.1428571 27.8917269,18.6203007 27.8188074,26.0977444 C27.8188074,27.1240602 28.1834051,27.7471804 28.8032212,28.5902256 L22.5685999,28.5902256 C23.9176116,28.0770677 23.4436345,26.8308271 23.0061173,25.8778196 L20.6726917,21.0028196 L7.69301226,21.0028196 L5.61480516,26.1710526 C5.17728787,27.3073309 5.35958674,27.9671053 6.48983974,28.5902256 L6.48983974,28.8468045 L0,28.8468045 L0,28.5169173 C1.19393748,28.042058 2.16013163,27.1232184 2.69802326,25.9511278 L14.0370129,0 Z M19.4695192,18.4370301 L13.5994956,6.12124058 L8.67742615,18.4370301 L19.4695192,18.4370301 Z" id="Shape"></path>
        <path d="M110.13435,9.8692031 L110.13435,7.93868819 L111.400439,7.93868819 C111.490932,7.97332724 111.567328,8.03743217 111.617483,8.12081222 C111.668161,8.2092317 111.693225,8.31017947 111.689831,8.4122107 C111.701652,8.54317471 111.662772,8.67367421 111.581309,8.77645883 C111.48457,8.87649807 111.357092,8.94067877 111.219569,8.95858286 L111.436613,9.1042821 L111.653657,9.43210538 L111.870701,9.79635351 L111.400439,9.79635351 L111.111047,9.39568058 L110.894004,9.1042821 L110.785481,9.03143251 L110.49609,9.03143251 L110.49609,9.8327783 L110.13435,9.8692031 Z M110.532264,8.77645883 L111.147221,8.77645883 L111.255743,8.70360918 C111.282054,8.65980105 111.294659,8.60903183 111.291917,8.55790994 C111.29733,8.50656564 111.284515,8.4549496 111.255743,8.4122107 L111.111047,8.33936111 L110.532264,8.33936111 L110.532264,8.81288362 L110.532264,8.77645883 Z M111.002525,6.88236871 C111.530992,6.8802583 112.038581,7.08994357 112.41331,7.46516567 C112.788848,7.84118784 113,8.35245697 113,8.88573327 C113,9.41900952 112.788848,9.93027865 112.41331,10.3063008 C112.039877,10.6844422 111.532129,10.8970588 111.002525,10.8970588 C110.472921,10.8970588 109.965173,10.6844422 109.59174,10.3063008 C109.216203,9.93027865 109.005051,9.41900952 109.005051,8.88573327 C109.005051,8.35245697 109.216203,7.84118784 109.59174,7.46516567 C109.96647,7.08994357 110.474058,6.8802583 111.002525,6.88236871 Z M112.160092,7.72013936 C111.614314,7.16434864 110.754733,7.07391538 110.106647,7.50410396 C109.458561,7.93429249 109.202292,8.76540663 109.494448,9.48954756 C109.786605,10.2136886 110.545896,10.6293705 111.308315,10.4825677 C112.070735,10.335765 112.624145,9.66732407 112.630354,8.88573327 C112.633818,8.4496827 112.464583,8.03021568 112.160092,7.72013936 Z" id="Shape"></path>
      </g>
    </g>
  </g>
</svg>
