<?xml version="1.0" encoding="UTF-8"?>
<svg xmlns="http://www.w3.org/2000/svg" viewBox="0 0 350 130">
  <title>Artboard 1</title>
  <path d="M285.7,14.1l41.6-.6V23.9c-.9-1.6-1.9-3.1-3.8-3.1H311.2q.4,31.3.8,62.7c0,2.6,2.2,4,3.8,5.9l-17,.2c1.4-1.7,3.5-3.3,3.4-5.5L301.5,21H288.9c-1.6,0-2.7,2.2-3.4,3.3l.2-10.4Zm-4.1.1V27.9h-1a13.9,13.9,0,0,0-4.8-5.2c-6.2-4.1-15.3-4.3-19.5,3.3s7.3,12.9,12.1,16.1,11.7,7.5,15.5,13.1c5.9,8.7,4.6,18-.7,24.7a26,26,0,0,1-18.7,9.6,44.9,44.9,0,0,1-8.1-.1c-3-.3-7.3-1.2-8.7,1.5h-.6V78.4h1.2A18.5,18.5,0,0,0,261,82.8a20.9,20.9,0,0,0,10.8-3c7.4-4.8,9.6-15.4,4.1-22.4-3.4-4.4-9.1-7.5-13.7-10.1-6.4-3.6-12.5-7.3-14.3-14.9-1.8-11.6,8-19,18.5-19a24.7,24.7,0,0,1,6.8,1.1c2.3.7,4.4,1.7,5.7,1.5a5,5,0,0,0,2.7-1.7Zm-37.2-.2V25h-.5c-.8-2.7-2.4-4-4.6-4.2l-26.5.2V47.8h20c1.8,0,2.1-1.4,3.1-2.8v14c-1-1.1-2-2.8-3.5-2.8H212.7V82.8h26.3a4.1,4.1,0,0,0,4.2-3.5h.9l-.2,10.4H200.4V89c2.3-2.3,3.4-3.9,3.2-6.3,0-21.2,0-42.7,0-63.9,0-2.1-1-3.2-1.9-3.4s-4.4,2.4-5.1,4.1l-31,71.8L132.1,18a13,13,0,0,0-3.6-3.5h13.2a3.5,3.5,0,0,0-.8,4.3l24.2,53,22.1-52.8c.7-1.7.7-4-1.1-5.1ZM59,11.8l29.4,63c-.1-18.2,0-36.6-.1-54.8-.4-2.7-1.8-4.5-3.9-6.2l5.5.7a27.7,27.7,0,0,0,6.3.2,35.3,35.3,0,0,0,7.1-1.4,27.4,27.4,0,0,1,13.3.6c13.4,4,22,18.2,12.5,32.8-2.8,4.3-6.7,7.1-11.2,10,16.1,20,32.1,40.6,48.2,60.6l-.5.7-8.7.2-51.1-65c7.3-1.7,12.3-4.4,14.8-8.2,4.2-6.2,4.2-12,1.9-16.5-3.3-6.4-9-10.4-20.4-9.3-2.1.2-5.1-.2-5.3,2.6-.2,20.4.2,40.8,0,61.2,0,2.8,1,4.5,2.7,6.8H82.4c3.7-1.4,2.4-4.8,1.2-7.4L77.2,69.1H41.6L35.9,83.2c-1.2,3.1-.7,4.9,2.4,6.6v.7H20.5v-.9a13.7,13.7,0,0,0,7.4-7L59,11.8ZM73.9,62.1,57.8,28.5,44.3,62.1Z" style="fill:#4b6987;fill-rule:evenodd"></path>
  <path d="M321.7,39.5V34.2h3.5a1.2,1.2,0,0,1,.6.5,1.5,1.5,0,0,1,.2.8,1.4,1.4,0,0,1-.3,1,1.7,1.7,0,0,1-1,.5l.6.4.6.9.6,1h-1.3l-.8-1.1-.6-.8-.3-.2h-.8v2.2Zm1.1-3h1.7l.3-.2a.7.7,0,0,0,.1-.4.6.6,0,0,0-.1-.4l-.4-.2h-1.6v1.3Zm1.3-5.2a5.5,5.5,0,0,1,3.9,1.6h0a5.5,5.5,0,0,1,0,7.8h0a5.5,5.5,0,0,1-7.8,0h0a5.5,5.5,0,0,1,0-7.8h0a5.5,5.5,0,0,1,3.9-1.6Zm3.2,2.3a4.5,4.5,0,1,0,1.3,3.2,4.5,4.5,0,0,0-1.3-3.2Z" style="fill:#4b6987;fill-rule:evenodd"></path>
</svg>
