<?xml version="1.0" encoding="UTF-8"?>
<svg xmlns="http://www.w3.org/2000/svg" xmlns:xlink="http://www.w3.org/1999/xlink" width="198px" height="68px" viewBox="0 0 198 68">
  <!-- Generator: Sketch 50.2 (55047) - http://www.bohemiancoding.com/sketch -->
  <title>arvest-bank-logo</title>
  <desc>Created with Sketch.</desc>
  <defs></defs>
  <g id="Design" stroke="none" stroke-width="1" fill="none" fill-rule="evenodd">
    <g id="Artboard" transform="translate(-374.000000, -827.000000)" fill="#4B6987">
      <g id="arvest-bank-logo" transform="translate(374.000000, 827.000000)">
        <path d="M169.423729,1.46992481 L196,1.08646617 L196,7.73308271 C195.425033,6.71052632 194.78618,5.7518797 193.57236,5.7518797 L185.714472,5.7518797 C185.884833,19.0877193 186.055193,32.4448622 186.225554,45.8233083 C186.225554,47.4849624 187.63103,48.3796992 188.653194,49.593985 L177.792699,49.7218045 C178.687093,48.6353383 180.028683,47.612782 179.964798,46.2067669 L179.517601,5.87969925 L171.468057,5.87969925 C170.445893,5.87969925 169.743155,7.28571429 169.295958,7.9887218 L169.423729,1.34210526 L169.423729,1.46992481 Z M166.804433,1.53383459 L166.804433,10.2894737 L166.16558,10.2894737 C165.447139,8.93559667 164.390738,7.7907233 163.099087,6.96616541 C159.138201,4.34586466 153.324641,4.21804511 150.64146,9.07518797 C147.958279,13.9323308 155.305085,17.3195489 158.371578,19.3646617 C161.43807,21.4097744 165.846154,24.1578947 168.273794,27.7368421 C172.043025,33.2969925 171.212516,39.2406015 167.826597,43.5225564 C164.885145,47.1586454 160.547955,49.3860782 155.880052,49.6578947 C154.156748,49.7926114 152.424799,49.7712212 150.705346,49.593985 C148.788787,49.4022556 146.041721,48.8270677 145.147327,50.5526316 L144.764016,50.5526316 L144.764016,42.5639098 L145.530639,42.5639098 C147.787069,44.485665 150.682827,45.4893047 153.644068,45.3759398 C156.075544,45.3772331 158.461216,44.7142921 160.543677,43.4586466 C165.271186,40.3909774 166.676662,33.6165414 163.162973,29.1428571 C160.990874,26.3308271 157.349413,24.3496241 154.410691,22.6879699 C150.322034,20.387218 146.425033,18.0225564 145.275098,13.1654135 C144.125163,5.7518797 150.385919,1.02255639 157.093872,1.02255639 C158.567654,1.05275281 160.029937,1.28938926 161.43807,1.72556391 C162.907432,2.17293233 164.249022,2.81203008 165.079531,2.68421053 C165.757674,2.52021802 166.363499,2.13862634 166.804433,1.59774436 L166.804433,1.53383459 Z M143.039113,1.40601504 L143.039113,8.43609023 L142.719687,8.43609023 C142.208605,6.71052632 141.186441,5.87969925 139.780965,5.7518797 L122.851369,5.87969925 L122.851369,23.0075188 L135.628422,23.0075188 C136.778357,23.0075188 136.970013,22.112782 137.608866,21.2180451 L137.608866,30.1654135 C136.970013,29.462406 136.33116,28.3759398 135.372881,28.3759398 L122.787484,28.3759398 L122.787484,45.3759398 L139.589309,45.3759398 C140.922631,45.4227399 142.07807,44.4595044 142.27249,43.1390977 L142.847458,43.1390977 L142.719687,49.7857143 L114.929596,49.7857143 L114.929596,49.3383459 C116.398957,47.8684211 117.101695,46.8458647 116.973924,45.3120301 C116.973924,31.7631579 116.973924,18.0225564 116.973924,4.47368421 C116.973924,3.13157895 116.335072,2.42857143 115.760104,2.30075188 C115.185137,2.17293233 112.949153,3.83458647 112.501956,4.92105263 L92.6975228,50.8082707 L71.2959583,3.96240602 C70.6819195,3.07436684 69.9007286,2.31458431 68.9960887,1.72556391 L77.4289439,1.72556391 C76.6369712,2.40923024 76.424663,3.55082449 76.9178618,4.47368421 L92.3780965,38.3458647 L106.496741,4.60150376 C106.943937,3.51503759 106.943937,2.04511278 105.794003,1.34210526 L143.039113,1.40601504 Z M24.5958279,0 L43.3780965,40.2631579 C43.3142112,28.6315789 43.3780965,16.8721805 43.3142112,5.2406015 C43.0586701,3.51503759 42.1642764,2.36466165 40.8226858,1.27819549 L44.3363755,1.72556391 C45.6687346,1.921228 47.0190652,1.96411209 48.3611473,1.85338346 C49.8997462,1.71137379 51.4196825,1.41155308 52.8970013,0.958646617 C55.7176887,0.385702291 58.6360818,0.517409628 61.3937419,1.34210526 C69.9543677,3.89849624 75.4485007,12.9736842 69.3794003,22.3045113 C67.5906128,25.0526316 65.0990874,26.8421053 62.2242503,28.6954887 C72.5097784,41.4774436 82.7314211,54.6428571 93.0169492,67.424812 L92.6975228,67.8721805 L87.1395046,68 L54.494133,26.4586466 C59.1577575,25.3721805 62.3520209,23.6466165 63.9491525,21.2180451 C66.6323338,17.2556391 66.6323338,13.5488722 65.1629726,10.6729323 C63.0547588,6.58270677 59.4132986,4.02631579 52.1303781,4.72932331 C50.7887875,4.85714286 48.8722295,4.60150376 48.7444589,6.39097744 C48.6166884,19.4285714 48.8722295,32.4661654 48.7444589,45.5037594 C48.7444589,47.2932331 49.3833116,48.3796992 50.4693611,49.8496241 L39.5449804,49.8496241 C41.9087353,48.9548872 41.0782269,46.7819549 40.3116037,45.1203008 L36.2229465,36.6203008 L13.4797914,36.6203008 L9.83833116,45.6315789 C9.07170795,47.612782 9.39113429,48.7631579 11.3715776,49.8496241 L11.3715776,50.2969925 L0,50.2969925 L0,49.7218045 C2.09203204,48.8938448 3.78500941,47.2917654 4.72750978,45.2481203 L24.5958279,0 Z M34.1147327,32.1466165 L23.8292047,10.6729323 L15.2046936,32.1466165 L34.1147327,32.1466165 Z" id="Shape"></path>
        <path d="M192.978772,17.2078413 L192.978772,13.8418153 L195.197229,13.8418153 C195.355792,13.9022116 195.489654,14.0139843 195.577536,14.1593649 C195.666336,14.3135322 195.710252,14.4895437 195.704305,14.6674443 C195.725019,14.8957918 195.656892,15.1233294 195.514152,15.3025436 C195.344645,15.476971 195.121277,15.5888758 194.880307,15.6200932 L195.260614,15.8741329 L195.640921,16.4457222 L196.021228,17.0808215 L195.197229,17.0808215 L194.690153,16.3822123 L194.309847,15.8741329 L194.119693,15.7471131 L193.612617,15.7471131 L193.612617,17.1443314 L192.978772,17.2078413 Z M193.676002,15.3025436 L194.753538,15.3025436 L194.943691,15.1755237 C194.989794,15.0991403 195.011881,15.0106196 195.007076,14.921484 C195.016561,14.8319606 194.994106,14.7419634 194.943691,14.6674443 L194.690153,14.5404245 L193.676002,14.5404245 L193.676002,15.3660535 L193.676002,15.3025436 Z M194.5,12.0000275 C195.425986,11.9963478 196.315389,12.3619529 196.971995,13.0161863 C197.630016,13.6718147 198,14.5632583 198,15.4930734 C198,16.4228884 197.630016,17.314332 196.971995,17.9699604 C196.317661,18.6292838 195.427979,19 194.5,19 C193.572021,19 192.682339,18.6292838 192.028005,17.9699604 C191.369984,17.314332 191,16.4228884 191,15.4930734 C191,14.5632583 191.369984,13.6718147 192.028005,13.0161863 C192.684611,12.3619529 193.574014,11.9963478 194.5,12.0000275 Z M196.528303,13.4607558 C195.571983,12.4916848 194.065816,12.3340063 192.930231,13.0840787 C191.794646,13.834151 191.345609,15.2832731 191.857529,16.5458778 C192.369449,17.8084826 193.699889,18.5332614 195.035809,18.2772976 C196.37173,18.0213338 197.341422,16.8558471 197.352302,15.4930734 C197.358372,14.7327801 197.061836,14.0014017 196.528303,13.4607558 Z" id="Shape"></path>
      </g>
    </g>
  </g>
</svg>
