<?xml version="1.0" encoding="UTF-8"?>
<svg xmlns="http://www.w3.org/2000/svg" xmlns:xlink="http://www.w3.org/1999/xlink" width="144px" height="49px" viewBox="0 0 144 49">
  <!-- Generator: Sketch 50.2 (55047) - http://www.bohemiancoding.com/sketch -->
  <title>arvest-bank-logo</title>
  <desc>Created with Sketch.</desc>
  <defs></defs>
  <g id="Design" stroke="none" stroke-width="1" fill="none" fill-rule="evenodd">
    <g id="dropdown_menu" transform="translate(-1183.000000, -1098.000000)" fill="#4B6987" fill-rule="nonzero">
      <g id="arvest-bank-logo" transform="translate(1183.000000, 1098.000000)">
        <path d="M123.217257,1.05921052 L142.545455,0.78289474 L142.545455,5.57236842 C142.127297,4.83552632 141.662676,4.14473684 140.779898,4.14473684 L135.065071,4.14473684 C135.188969,13.754386 135.312868,23.379386 135.436767,33.0197369 C135.436767,34.2171053 136.458931,34.8618421 137.202323,35.7368421 L129.303781,35.8289474 C129.954249,35.0460526 130.929951,34.3092106 130.883489,33.2960526 L130.558255,4.23684211 L124.704041,4.23684211 C123.960649,4.23684211 123.449567,5.25 123.124333,5.75657894 L123.217257,0.967105261 L123.217257,1.05921052 Z M121.312315,1.10526316 L121.312315,7.4144737 L120.847695,7.4144737 C120.325192,6.43888584 119.5569,5.61390355 118.617518,5.01973684 C115.736873,3.13157895 111.50883,3.03947368 109.557425,6.53947368 C107.606021,10.0394737 112.949153,12.4802632 115.179329,13.9539474 C117.409505,15.4276316 120.615385,17.4078947 122.380941,19.9868421 C125.1222,23.9934211 124.518193,28.2763158 122.055707,31.3618421 C119.916469,33.9819651 116.762149,35.5870269 113.367311,35.7828947 C112.113999,35.87997 110.854399,35.8645565 109.603888,35.7368421 C108.210027,35.5986842 106.212161,35.1842105 105.561692,36.4276316 L105.282921,36.4276316 L105.282921,30.6710526 L105.840465,30.6710526 C107.481505,32.0558468 109.587511,32.7790578 111.74114,32.6973684 C113.509487,32.6983003 115.244521,32.2205928 116.759038,31.3157895 C120.197226,29.1052631 121.219391,24.2236842 118.66398,21 C117.084272,18.9736842 114.435937,17.5460527 112.298684,16.3486842 C109.325116,14.6907894 106.490933,12.9868421 105.654617,9.48684208 C104.8183,4.14473684 109.371577,0.736842105 114.250089,0.736842105 C115.32193,0.75860129 116.385409,0.929118731 117.409505,1.24342105 C118.478132,1.56578947 119.453834,2.02631579 120.057841,1.93421053 C120.551036,1.81603946 120.991636,1.54106898 121.312315,1.15131579 L121.312315,1.10526316 Z M104.028446,1.0131579 L104.028446,6.07894737 L103.796136,6.07894737 C103.42444,4.83552632 102.681048,4.23684211 101.658884,4.14473684 L89.3464502,4.23684211 L89.3464502,16.5789474 L98.6388524,16.5789474 C99.4751687,16.5789474 99.6145549,15.9342106 100.079175,15.2894737 L100.079175,21.7368421 C99.6145549,21.2302631 99.1499345,20.4473684 98.4530044,20.4473684 L89.2999884,20.4473684 L89.2999884,32.6973684 L101.519497,32.6973684 C102.489186,32.731092 103.329505,32.0369958 103.470902,31.0855263 L103.88906,31.0855263 L103.796136,35.875 L83.5851607,35.875 L83.5851607,35.5526316 C84.6537869,34.4934211 85.1648691,33.756579 85.0719447,32.6513158 C85.0719447,22.8881579 85.0719447,12.9868421 85.0719447,3.22368421 C85.0719447,2.25657895 84.6073251,1.75 84.1891665,1.65789474 C83.7710087,1.56578947 82.1448385,2.7631579 81.8196044,3.54605263 L67.4163802,36.6118421 L51.851606,2.85526316 C51.4050324,2.21535258 50.8368935,1.66786222 50.1789736,1.24342105 L56.3119592,1.24342105 C55.7359791,1.73606297 55.5815731,2.55868235 55.9402631,3.22368421 L67.1840702,27.631579 L77.4521753,3.31578947 C77.7774087,2.53289473 77.7774087,1.47368421 76.9410931,0.967105261 L104.028446,1.0131579 Z M17.8878748,0 L31.5477065,29.0131579 C31.5012445,20.6315789 31.5477065,12.1578948 31.5012445,3.77631579 C31.3153964,2.53289473 30.6649283,1.70394737 29.689226,0.921052632 L32.2446367,1.24342105 C33.2136252,1.38441429 34.1956838,1.41531606 35.1717435,1.33552632 C36.2907245,1.23319582 37.3961327,1.01714854 38.4705464,0.690789474 C40.5219554,0.277932533 42.6444231,0.372839291 44.6499941,0.967105261 C50.8759038,2.80921053 54.8716369,9.3486842 50.4577457,16.0723684 C49.1568093,18.0526316 47.3447908,19.3421053 45.2540002,20.6776316 C52.7343843,29.8881579 60.1683063,39.375 67.6486903,48.5855263 L67.4163802,48.9078948 L63.3741852,49 L39.6320967,19.0657895 C43.0238236,18.2828948 45.3469243,17.0394737 46.5084745,15.2894737 C48.4598791,12.4342105 48.4598791,9.76315791 47.3912528,7.69078945 C45.8580064,4.74342105 43.2096717,2.90131579 37.9130023,3.40789474 C36.9373,3.5 35.5434396,3.31578947 35.4505156,4.60526316 C35.3575916,14 35.5434396,23.3947368 35.4505156,32.7894737 C35.4505156,34.0789474 35.9151357,34.8618421 36.7049899,35.9210527 L28.7599857,35.9210527 C30.4790802,35.2763158 29.8750741,33.7105263 29.31753,32.5131579 L26.3439611,26.3881579 L9.80348465,26.3881579 L7.15514993,32.8815789 C6.59760578,34.3092106 6.82991585,35.1381579 8.27023825,35.9210527 L8.27023825,36.2434211 L0,36.2434211 L0,35.8289474 C1.52147785,35.2323293 2.75273412,34.0778898 3.43818893,32.6052632 L17.8878748,0 Z M24.8107147,23.1644737 L17.3303307,7.69078945 L11.057959,23.1644737 L24.8107147,23.1644737 Z" id="Shape"></path>
        <path d="M140.348198,12.399768 L140.348198,9.97424926 L141.961621,9.97424926 C142.07694,10.0177701 142.174294,10.0983122 142.238208,10.2030718 C142.30279,10.3141629 142.334729,10.4409947 142.330404,10.5691878 C142.345468,10.7337323 142.295921,10.8976932 142.192111,11.0268329 C142.068833,11.1525232 141.906383,11.2331605 141.731132,11.2556554 L142.007719,11.4387134 L142.284306,11.8505939 L142.560893,12.308239 L141.961621,12.308239 L141.592839,11.8048295 L141.316252,11.4387134 L141.177959,11.3471844 L140.809176,11.3471844 L140.809176,12.3540035 L140.348198,12.399768 Z M140.855274,11.0268329 L141.638937,11.0268329 L141.77723,10.9353038 C141.810759,10.8802629 141.826823,10.8164759 141.823328,10.7522458 C141.830226,10.6877363 141.813895,10.6228854 141.77723,10.5691878 L141.592839,10.4776588 L140.855274,10.4776588 L140.855274,11.0725974 L140.855274,11.0268329 Z M141.454545,8.64707864 C142.12799,8.64442709 142.774828,8.90787782 143.25236,9.37931072 C143.730921,9.85174883 144,10.4941126 144,11.1641264 C144,11.8341402 143.730921,12.4765039 143.25236,12.9489421 C142.776481,13.4240427 142.129439,13.6911765 141.454545,13.6911765 C140.779652,13.6911765 140.13261,13.4240427 139.656731,12.9489421 C139.17817,12.4765039 138.909091,11.8341402 138.909091,11.1641264 C138.909091,10.4941126 139.17817,9.85174883 139.656731,9.37931072 C140.134263,8.90787782 140.781101,8.64442709 141.454545,8.64707864 Z M142.929675,9.69966227 C142.234169,9.00136111 141.138775,8.88773983 140.312895,9.42823318 C139.487015,9.96872646 139.160443,11.0129468 139.532748,11.9227649 C139.905054,12.8325831 140.872647,13.3548501 141.844225,13.1704056 C142.815804,12.9859611 143.521034,12.1461251 143.528947,11.1641264 C143.533361,10.616268 143.317699,10.0892453 142.929675,9.69966227 Z" id="Shape"></path>
      </g>
    </g>
  </g>
</svg>
