<?xml version="1.0" encoding="UTF-8"?>
<svg xmlns="http://www.w3.org/2000/svg" xmlns:xlink="http://www.w3.org/1999/xlink" width="178px" height="62px" viewBox="0 0 178 62">
  <!-- Generator: Sketch 50.2 (55047) - http://www.bohemiancoding.com/sketch -->
  <title>arvest-bank-logo_grey</title>
  <desc>Created with Sketch.</desc>
  <defs></defs>
  <g id="Design" stroke="none" stroke-width="1" fill="none" fill-rule="evenodd">
    <g id="home" transform="translate(-818.000000, -1271.000000)" fill="#BFBFBF" fill-rule="nonzero">
      <g id="arvest-bank-logo_grey" transform="translate(818.000000, 1271.000000)">
        <path d="M152.310221,1.34022556 L176.20202,0.990601507 L176.20202,7.05075189 C175.68513,6.11842105 175.110808,5.2443609 174.019597,5.2443609 L166.955434,5.2443609 C167.108588,17.4035087 167.261739,29.5820802 167.414891,41.7800753 C167.414891,43.2951129 168.678401,44.1109022 169.597316,45.2180451 L159.83384,45.3345865 C160.637891,44.343985 161.843967,43.4116543 161.786536,42.1296992 L161.38451,5.36090225 L154.148051,5.36090225 C153.229136,5.36090225 152.597382,6.64285715 152.195356,7.28383457 L152.310221,1.22368421 L152.310221,1.34022556 Z M149.9555,1.39849624 L149.9555,9.38157896 L149.381178,9.38157896 C148.735307,8.14716167 147.785613,7.10330654 146.624432,6.35150376 C143.063635,3.96240601 137.837303,3.84586466 135.425151,8.27443609 C133.012998,12.7030075 139.617703,15.7913534 142.374449,17.656015 C145.131194,19.5206766 149.094017,22.0263157 151.276441,25.2894736 C154.664942,30.3590225 153.918323,35.7781955 150.874416,39.6823309 C148.23008,42.9975885 144.33099,45.0284831 140.134592,45.2763157 C138.585359,45.3991456 137.028355,45.3796428 135.482584,45.2180451 C133.759617,45.0432331 131.290032,44.518797 130.485981,46.0921053 L130.141388,46.0921053 L130.141388,38.8082708 L130.830574,38.8082708 C132.859082,40.5604593 135.462339,41.4755426 138.124465,41.3721805 C140.310337,41.3733596 142.455033,40.7689133 144.327144,39.6240601 C148.577127,36.8270676 149.840635,30.650376 146.681865,26.5714285 C144.72917,24.0075189 141.455533,22.2011279 138.813651,20.6860902 C135.13799,18.5883457 131.634626,16.4323309 130.600846,12.0037594 C129.567066,5.2443609 135.195422,0.932330826 141.225804,0.932330826 C142.550719,0.959862856 143.865297,1.17561962 145.131194,1.57330827 C146.452136,1.98120301 147.658212,2.56390978 148.404831,2.44736843 C149.014475,2.29784584 149.559105,1.94992402 149.9555,1.45676692 L149.9555,1.39849624 Z M128.590718,1.28195489 L128.590718,7.69172933 L128.303557,7.69172933 C127.844099,6.11842105 126.925184,5.36090225 125.661676,5.2443609 L110.44214,5.36090225 L110.44214,20.9774436 L121.928581,20.9774436 C122.962361,20.9774436 123.134658,20.1616543 123.708981,19.3458646 L123.708981,27.5037594 C123.134658,26.862782 122.560336,25.8721805 121.698853,25.8721805 L110.384708,25.8721805 L110.384708,41.3721805 L125.489379,41.3721805 C126.688022,41.4148511 127.72675,40.5366069 127.901531,39.3327067 L128.418422,39.3327067 L128.303557,45.3928571 L103.320546,45.3928571 L103.320546,44.9849624 C104.641487,43.6447369 105.273241,42.712406 105.158376,41.3139098 C105.158376,28.9605264 105.158376,16.4323309 105.158376,4.07894736 C105.158376,2.85526316 104.584055,2.21428571 104.067164,2.09774436 C103.550275,1.98120301 101.540148,3.4962406 101.138122,4.4868421 L83.3341367,46.325188 L64.0943463,3.61278195 C63.5423316,2.80309919 62.840049,2.11035629 62.0267869,1.57330827 L69.6078385,1.57330827 C68.8958629,2.1966511 68.7050001,3.23751645 69.1483808,4.07894736 L83.0469757,34.962406 L95.7394944,4.19548871 C96.1415191,3.20488721 96.1415191,1.86466165 95.1077401,1.22368421 L128.590718,1.28195489 Z M22.1114009,0 L38.9964706,36.7105264 C38.9390384,26.1052631 38.9964706,15.3834587 38.9390384,4.77819549 C38.7093095,3.20488721 37.9052586,2.15601504 36.6991821,1.16541353 L39.8579538,1.57330827 C41.055731,1.75170787 42.2696647,1.79080808 43.4761829,1.68984963 C44.8593678,1.56037022 46.2257752,1.28700428 47.5538699,0.87406015 C50.0896393,0.351669736 52.7132453,0.471755838 55.1923538,1.22368421 C62.88827,3.55451129 67.82744,11.8289474 62.37138,20.3364661 C60.7632781,22.8421053 58.523422,24.4736843 55.9389725,26.1635339 C65.1855583,37.8176691 74.3747119,49.8214285 83.6212978,61.4755639 L83.3341367,61.8834588 L78.3375344,62 L48.9896751,24.1240601 C53.1822265,23.1334588 56.053837,21.5601504 57.4896422,19.3458646 C59.901795,15.7330827 59.901795,12.3533835 58.5808541,9.73120297 C56.6855913,6.0018797 53.4119553,3.67105264 46.8646834,4.31203008 C45.6586069,4.42857144 43.9356406,4.19548871 43.8207763,5.82706766 C43.7059118,17.7142856 43.9356406,29.6015037 43.8207763,41.4887219 C43.8207763,43.1203008 44.3950983,44.1109022 45.3714458,45.4511279 L35.5505379,45.4511279 C37.6755298,44.6353384 36.928911,42.6541354 36.2397246,41.1390978 L32.564063,33.3890978 L12.1181963,33.3890978 L8.84456034,41.6052631 C8.15537381,43.4116543 8.44253486,44.4605264 10.2229334,45.4511279 L10.2229334,45.8590225 L0,45.8590225 L0,45.3345865 C1.88071568,44.5796819 3.40268522,43.1189626 4.24998354,41.2556391 L22.1114009,0 Z M30.6688002,29.3101504 L21.4222143,9.73120297 L13.668866,29.3101504 L30.6688002,29.3101504 Z" id="Shape"></path>
        <path d="M173.485967,15.6895024 L173.485967,12.6204787 L175.480338,12.6204787 C175.622884,12.6755459 175.743225,12.7774563 175.82223,12.9100092 C175.902059,13.0505735 175.94154,13.2110545 175.936194,13.373258 C175.954815,13.5814572 175.89357,13.788918 175.765248,13.9523192 C175.612862,14.1113559 175.412056,14.2133868 175.195427,14.2418497 L175.53732,14.4734741 L175.879212,14.9946291 L176.221104,15.5736902 L175.480338,15.5736902 L175.024481,14.936723 L174.68259,14.4734741 L174.511643,14.3576619 L174.055788,14.3576619 L174.055788,15.6315963 L173.485967,15.6895024 Z M174.11277,13.9523192 L175.081463,13.9523192 L175.252409,13.8365069 C175.293855,13.7668632 175.313711,13.6861532 175.309391,13.6048825 C175.317918,13.5232582 175.297732,13.4412019 175.252409,13.373258 L175.024481,13.2574459 L174.11277,13.2574459 L174.11277,14.0102252 L174.11277,13.9523192 Z M174.853535,10.9412015 C175.685987,10.9378465 176.485552,11.2711923 177.075833,11.8676993 C177.667389,12.4654781 178,13.2782649 178,14.1260375 C178,14.97381 177.667389,15.7865968 177.075833,16.3843756 C176.487594,16.9855235 175.687778,17.3235294 174.853535,17.3235294 C174.019291,17.3235294 173.219476,16.9855235 172.631236,16.3843756 C172.039683,15.7865968 171.707071,14.97381 171.707071,14.1260375 C171.707071,13.2782649 172.039683,12.4654781 172.631236,11.8676993 C173.221519,11.2711923 174.021083,10.9378465 174.853535,10.9412015 Z M176.676959,12.2730421 C175.817238,11.3894773 174.463208,11.2457116 173.442329,11.9296012 C172.42145,12.6134906 172.01777,13.934749 172.47798,15.0859474 C172.938192,16.237146 174.134243,16.8979736 175.335222,16.6645948 C176.536202,16.4312162 177.407945,15.3685665 177.417726,14.1260375 C177.423182,13.4328289 177.1566,12.7659839 176.676959,12.2730421 Z" id="Shape"></path>
      </g>
    </g>
  </g>
</svg>
