<?xml version="1.0" encoding="UTF-8"?>
<svg xmlns="http://www.w3.org/2000/svg" xmlns:xlink="http://www.w3.org/1999/xlink" width="304px" height="39px" viewBox="0 0 304 39">
  <!-- Generator: Sketch 50.2 (55047) - http://www.bohemiancoding.com/sketch -->
  <title>Group 2</title>
  <desc>Created with Sketch.</desc>
  <defs>
    <polygon id="path-1" points="0.700668493 0.345395652 6.54672329 0.345395652 6.54672329 5.91304348 0.700668493 5.91304348"></polygon>
    <polygon id="path-3" points="0 0.189956522 20.6737469 0.189956522 20.6737469 22.9302619 0 22.9302619"></polygon>
  </defs>
  <g id="Design" stroke="none" stroke-width="1" fill="none" fill-rule="evenodd">
    <g id="customer_story" transform="translate(-733.000000, -3090.000000)">
      <g id="bottom-cta" transform="translate(-13.000000, 2956.000000)">
        <g id="Group-2" transform="translate(746.000000, 134.000000)">
          <polygon id="+" fill="#AD95C7" points="174.01002 17.7924528 182 17.7924528 182 19.9056604 174.01002 19.9056604 174.01002 29 171.827655 29 171.827655 19.9056604 164 19.9056604 164 17.7924528 171.827655 17.7924528 171.827655 9 174.01002 9"></polygon>
          <g id="KonyDBX_color" transform="translate(0.000000, 6.000000)" fill="#FFFFFF" fill-rule="nonzero">
            <g id="Group">
              <path d="M3.69896622,25.7938776 L0,25.7938776 L0,0.404081633 L3.69896622,0.404081633 L3.69896622,25.7938776 Z M3.83347408,16.8367347 L10.8278829,9.22653061 L15.4011503,9.22653061 L8.13772568,16.7693878 L15.5356581,25.7938776 L11.1641526,25.7938776 L3.83347408,16.8367347 Z" id="Shape"></path>
              <path d="M24.0769074,8.88979592 C29.0536983,8.88979592 32.6181567,12.3918367 32.6181567,17.577551 C32.6181567,22.6959184 29.0536983,26.1979592 24.0769074,26.1979592 C19.1673704,26.1979592 15.5356581,22.6959184 15.5356581,17.577551 C15.5356581,12.3918367 19.1673704,8.88979592 24.0769074,8.88979592 M24.0769074,12.055102 C21.3194962,12.055102 19.3018783,14.2102041 19.3018783,17.577551 C19.3018783,20.877551 21.3194962,23.0326531 24.0769074,23.0326531 C26.9015725,23.0326531 28.9191904,20.877551 28.9191904,17.577551 C28.9191904,14.2102041 26.9015725,12.055102 24.0769074,12.055102" id="Shape"></path>
              <path d="M35.7790914,10.3040816 C38.0657251,9.42857143 40.9576441,8.88979592 43.3787857,8.88979592 C47.6157833,8.88979592 50.3059406,10.5061224 50.3059406,15.1530612 L50.3059406,25.7938776 L46.6742283,25.7938776 L46.6742283,15.4897959 C46.6742283,13.0653061 45.1946418,12.2571429 43.1097699,12.2571429 C41.8319453,12.2571429 40.4868666,12.4591837 39.5453116,12.7285714 L39.5453116,25.7938776 L35.8463454,25.7938776 L35.8463454,10.3040816 L35.7790914,10.3040816 Z" id="Shape"></path>
              <polygon id="Shape" points="60.1922685 22.2918367 64.8327897 9.22653061 68.5990099 9.22653061 59.654237 32.5285714 56.0225248 32.5285714 58.3764123 26.5346939 51.5165114 9.22653061 55.4844933 9.22653061"></polygon>
            </g>
            <path d="M98.2001722,3.48476936 C95.6345243,1.20626632 91.7860525,0 86.7830392,0 C85.5002152,0 84.1532501,0.0670147955 82.806285,0.268059182 L82.6138614,0.268059182 L82.6138614,25.3315927 L82.806285,25.3315927 C84.3456737,25.5326371 85.6926388,25.6666667 87.4244511,25.6666667 C96.5325011,25.6666667 101.792079,20.8416014 101.792079,12.3307224 C101.727938,8.57789382 100.573396,5.56222802 98.2001722,3.48476936 Z M99.9319845,12.3977372 C99.9319845,19.9033943 95.4421007,24.0583116 87.3603099,24.0583116 C86.398192,24.0583116 85.436074,23.9912968 84.3456737,23.8572672 L84.3456737,1.80939948 C85.3077916,1.74238468 86.0133448,1.67536989 86.7830392,1.67536989 C91.1446406,1.67536989 94.4799828,2.68059182 96.7249247,4.55700609 C98.8415842,6.43342037 99.9319845,9.04699739 99.9319845,12.3977372 Z" id="Shape"></path>
            <path d="M113.787932,12.5333333 C116.779858,11.7333333 118.588929,9.46666667 118.588929,6.53333333 C118.588929,2.2 115.457844,0 109.404412,0 C108.291138,0 106.760385,0.133333333 104.951313,0.266666667 L104.742574,0.266666667 L104.742574,25.1333333 L104.951313,25.2 C106.412486,25.4666667 108.151978,25.6666667 109.543572,25.6666667 C112.813816,25.6666667 115.388264,25 117.058176,23.8 C118.658509,22.6 119.493465,20.8666667 119.493465,18.6 C119.563044,15.4666667 117.336495,13.2 113.787932,12.5333333 Z M109.195673,11.8666667 L106.690805,11.8666667 L106.690805,1.8 C107.66492,1.73333333 108.569456,1.66666667 109.404412,1.66666667 C114.20541,1.66666667 116.640698,3.26666667 116.640698,6.46666667 C116.640698,9.93333333 113.927091,11.8666667 109.195673,11.8666667 Z M106.690805,13.5333333 L109.265253,13.5333333 C113.092135,13.5333333 117.614814,14.4 117.614814,18.6 C117.614814,22.2666667 115.040366,23.9333333 109.613151,23.9333333 C108.708616,23.9333333 107.595341,23.8666667 106.760385,23.7333333 L106.760385,13.5333333 L106.690805,13.5333333 Z" id="Shape"></path>
            <polygon id="Shape" points="130.559406 12.0980903 121.99454 0 119.769024 0 128.33389 12.0980903 118.757426 25.6666667 120.982942 25.6666667 130.559406 12.0980903"></polygon>
            <polygon id="Shape" points="130.418814 0 123.485536 0 132.2908 12.0980903 122.445545 25.6666667 129.30949 25.6666667 135.688106 16.84375 136.866763 18.3810764 136.866763 18.3810764 142.136055 25.6666667 149 25.6666667"></polygon>
            <polygon id="Shape" points="147.524752 0 141.0949 0 137.19802 5.62377919 140.44542 10.2666667"></polygon>
          </g>
          <g id="Page-1" transform="translate(196.000000, 0.000000)">
            <path d="M5.45170685,31.6120913 C5.45170685,32.3061348 5.45170685,32.8486565 5.48795342,33.1524391 C5.51014521,33.361613 5.55378904,33.5205261 5.77274795,33.5500913 C5.87556986,33.5641348 6.03609041,33.5781783 6.1381726,33.5781783 C6.23285753,33.5781783 6.26170685,33.6003522 6.26170685,33.6358304 C6.26170685,33.6875696 6.21066575,33.7090043 6.1011863,33.7090043 C5.64107671,33.7090043 5.18170685,33.6875696 4.99233699,33.6875696 C4.8022274,33.6875696 4.34211781,33.7090043 4.06546027,33.7090043 C3.96337808,33.7090043 3.91085753,33.6942217 3.91085753,33.6358304 C3.91085753,33.6003522 3.94044658,33.5781783 4.02181644,33.5781783 C4.13129589,33.5781783 4.21858356,33.5641348 4.28441918,33.5500913 C4.43014521,33.5205261 4.46639178,33.361613 4.49598082,33.1524391 C4.5322274,32.8486565 4.5322274,32.3061348 4.5322274,31.6120913 L4.5322274,30.3393087 C4.5322274,29.2402217 4.5322274,29.0384391 4.51743288,28.8078304 C4.50263836,28.5609609 4.44493973,28.4456565 4.20378904,28.3953957 C4.14535068,28.380613 4.02181644,28.3732217 3.91899452,28.3732217 C3.84576164,28.3732217 3.79472055,28.3591783 3.79472055,28.3155696 C3.79472055,28.2571783 3.8531589,28.2431348 3.96337808,28.2431348 C4.15274795,28.2431348 4.36430959,28.249787 4.55441918,28.249787 C4.74304932,28.2571783 4.91170685,28.2645696 5.01452877,28.2645696 C5.2911863,28.2645696 6.77359726,28.2645696 6.94077534,28.2571783 C7.07984384,28.249787 7.16713151,28.249787 7.23962466,28.2290913 C7.28400822,28.2143087 7.32025479,28.1854826 7.35650137,28.1854826 C7.38609041,28.1854826 7.40754247,28.2143087 7.40754247,28.249787 C7.40754247,28.300787 7.37129589,28.3880043 7.34910411,28.5757435 C7.34244658,28.6481783 7.32765205,29.0739174 7.31285753,29.1611348 C7.30546027,29.2195261 7.29066575,29.2623957 7.23962466,29.2623957 C7.18932329,29.2623957 7.17452877,29.2254391 7.16713151,29.1470913 C7.16713151,29.0894391 7.16713151,28.9733957 7.12348767,28.8721348 C7.07244658,28.7708739 6.91932329,28.6629609 6.6411863,28.6555696 L5.51754247,28.6333957 C5.47389863,28.6333957 5.45170685,28.6555696 5.45170685,28.7346565 L5.45170685,30.5425696 C5.45170685,30.5847 5.45910411,30.6068739 5.50274795,30.6068739 L6.43702192,30.5994826 C6.56129589,30.5994826 6.66337808,30.5994826 6.76472055,30.5920913 C6.90452877,30.5847 7.00661096,30.556613 7.07984384,30.4620043 C7.11609041,30.4191348 7.13088493,30.3903087 7.17452877,30.3903087 C7.20337808,30.3903087 7.2181726,30.4117435 7.2181726,30.454613 C7.2181726,30.4989609 7.18192603,30.6793087 7.15973425,30.9032652 C7.14567945,31.0481348 7.13088493,31.3814826 7.13088493,31.4310043 C7.13088493,31.496787 7.13088493,31.5684826 7.05765205,31.5684826 C7.01400822,31.5684826 6.9992137,31.5189609 6.9992137,31.4672217 C6.9992137,31.4162217 6.9851589,31.3304826 6.95556986,31.2432652 C6.91932329,31.1420043 6.80984384,31.0119174 6.58274795,30.9830913 C6.40077534,30.9616565 5.62702192,30.9616565 5.50274795,30.9616565 C5.46650137,30.9616565 5.45170685,30.9764391 5.45170685,31.0267 L5.45170685,31.6120913" id="Fill-1" fill="#FFFFFF"></path>
            <path d="M8.86827945,30.3395304 C8.86827945,29.2404435 8.86827945,29.0379217 8.85348493,28.8065739 C8.83943014,28.5611826 8.78099178,28.4451391 8.54058082,28.3948783 C8.48214247,28.3800957 8.35712877,28.3727043 8.25504658,28.3727043 C8.17515616,28.3727043 8.1307726,28.3594 8.1307726,28.3084 C8.1307726,28.2574 8.1818137,28.2426174 8.29129315,28.2426174 C8.48953973,28.2426174 8.70036164,28.2500087 8.88307397,28.2500087 C9.07244384,28.2574 9.24036164,28.2647913 9.34244384,28.2647913 C9.57693699,28.2647913 11.0282795,28.2647913 11.1680877,28.2574 C11.3064164,28.2426174 11.4232932,28.2285739 11.4817315,28.2145304 C11.5179781,28.2064 11.5616219,28.1857043 11.5978685,28.1857043 C11.6348548,28.1857043 11.6422521,28.2145304 11.6422521,28.2500087 C11.6422521,28.3010087 11.6052658,28.387487 11.5838137,28.7208348 C11.5764164,28.7917913 11.5616219,29.1103565 11.5475671,29.1968348 C11.5401699,29.2330522 11.5253753,29.2774 11.4743342,29.2774 C11.4232932,29.2774 11.4084986,29.2404435 11.4084986,29.1761391 C11.4084986,29.1251391 11.4011014,29.0024435 11.3648548,28.9152261 C11.3138137,28.7844 11.2413205,28.6986609 10.8751562,28.6550522 C10.7516219,28.6402696 9.98526575,28.6269652 9.8388,28.6269652 C9.80255342,28.6269652 9.78849863,28.6476609 9.78849863,28.6986609 L9.78849863,30.5280087 C9.78849863,30.5782696 9.79515616,30.6070957 9.8388,30.6070957 C9.99932055,30.6070957 10.8389096,30.6070957 11.0068274,30.592313 C11.1828822,30.5782696 11.2916219,30.5560957 11.3574575,30.4844 C11.4084986,30.4260087 11.4380877,30.3905304 11.4743342,30.3905304 C11.5039233,30.3905304 11.5253753,30.4038348 11.5253753,30.4474435 C11.5253753,30.4917913 11.4957863,30.6070957 11.466937,30.9751826 C11.4595397,31.1200522 11.4380877,31.4090522 11.4380877,31.4607913 C11.4380877,31.5177043 11.4380877,31.5982696 11.3722521,31.5982696 C11.321211,31.5982696 11.3064164,31.5687043 11.3064164,31.532487 C11.2997589,31.4607913 11.2997589,31.3669217 11.2775671,31.272313 C11.2413205,31.1274435 11.1377589,31.0187913 10.8684986,30.9899652 C10.7294301,30.9751826 10.0067178,30.9685304 9.83214247,30.9685304 C9.79515616,30.9685304 9.78849863,30.9973565 9.78849863,31.0409652 L9.78849863,31.612313 C9.78849863,31.8577043 9.78036164,32.5229217 9.78849863,32.7320957 C9.80255342,33.2317478 9.91943014,33.3404 10.6643342,33.3404 C10.8537041,33.3404 11.1606904,33.3404 11.3500603,33.2531826 C11.5401699,33.1659652 11.6274575,33.0144435 11.6784986,32.717313 C11.6925534,32.6382261 11.7073479,32.6094 11.758389,32.6094 C11.8168274,32.6094 11.8168274,32.6677913 11.8168274,32.739487 C11.8168274,32.9057913 11.758389,33.3980522 11.7221425,33.5429217 C11.6711014,33.7299217 11.6052658,33.7299217 11.3286082,33.7299217 C10.7804712,33.7299217 10.3795397,33.7151391 10.0651562,33.708487 C9.75151233,33.6937043 9.52589589,33.6877913 9.30545753,33.6877913 C9.22556712,33.6877913 9.06504658,33.6877913 8.89047123,33.6937043 C8.72255342,33.6937043 8.53318356,33.708487 8.38597808,33.708487 C8.29129315,33.708487 8.24025205,33.6877913 8.24025205,33.6360522 C8.24025205,33.5998348 8.26910137,33.5784 8.35712877,33.5784 C8.46734795,33.5784 8.55463562,33.5636174 8.62047123,33.5488348 C8.76619726,33.5207478 8.80318356,33.3618348 8.83203288,33.1526609 C8.86827945,32.8488783 8.86827945,32.2775304 8.86827945,31.612313 L8.86827945,30.3395304" id="Fill-3" fill="#FFFFFF"></path>
            <path d="M14.1900904,31.134613 C14.1900904,31.9010913 14.1974877,32.4576565 14.2048849,32.5951348 C14.2115425,32.7762217 14.226337,33.0652217 14.2847753,33.1443087 C14.3794603,33.281787 14.6642548,33.4333087 15.2405014,33.4333087 C15.9854055,33.4333087 16.4825014,33.2891783 16.9196795,32.9137 C17.3864466,32.5160478 17.5336521,31.8582217 17.5336521,31.1131783 C17.5336521,30.1951783 17.1460356,29.6016565 16.8323918,29.3052652 C16.1607205,28.669613 15.3285288,28.5831348 14.7596795,28.5831348 C14.6139534,28.5831348 14.3432137,28.6038304 14.2847753,28.6333957 C14.2189397,28.6622217 14.1974877,28.6984391 14.1974877,28.7775261 C14.1900904,29.0236565 14.1900904,29.6533957 14.1900904,30.2240043 L14.1900904,31.134613 Z M13.2780082,30.3400478 C13.2780082,29.2409609 13.2780082,29.0377 13.2632137,28.8070913 C13.2484192,28.5617 13.1899808,28.4456565 12.9495699,28.3946565 C12.8911315,28.3798739 12.7661178,28.3732217 12.6640356,28.3732217 C12.5841452,28.3732217 12.5405014,28.3584391 12.5405014,28.3081783 C12.5405014,28.2571783 12.5908027,28.2423957 12.7002822,28.2423957 C13.0878986,28.2423957 13.5472685,28.2645696 13.7529123,28.2645696 C13.9785288,28.2645696 14.4378986,28.2423957 14.8765562,28.2423957 C15.7886384,28.2423957 17.0077068,28.2423957 17.8029123,29.0672652 C18.1675973,29.4427435 18.5108301,30.0429174 18.5108301,30.9040043 C18.5108301,31.8138739 18.1239534,32.5086565 17.7156247,32.9210913 C17.379789,33.259613 16.6208301,33.7740478 15.2700904,33.7740478 C15.0074877,33.7740478 14.7086384,33.752613 14.4305014,33.7304391 C14.1538438,33.7082652 13.8978986,33.6868304 13.715926,33.6868304 C13.6352959,33.6868304 13.4747753,33.6868304 13.2994603,33.6934826 C13.1315425,33.6934826 12.9421726,33.7082652 12.7957068,33.7082652 C12.7002822,33.7082652 12.6492411,33.6868304 12.6492411,33.6365696 C12.6492411,33.6003522 12.6788301,33.5781783 12.7661178,33.5781783 C12.8770767,33.5781783 12.9643644,33.5641348 13.0294603,33.5493522 C13.1751863,33.5212652 13.2121726,33.361613 13.2410219,33.1517 C13.2780082,32.8479174 13.2780082,32.2773087 13.2780082,31.6120913 L13.2780082,30.3400478 Z" id="Fill-5" fill="#FFFFFF"></path>
            <path d="M19.9060274,30.3395304 C19.9060274,29.2404435 19.9060274,29.0379217 19.8912329,28.8065739 C19.8764384,28.5611826 19.8187397,28.4451391 19.5783288,28.3948783 C19.5198904,28.3800957 19.3956164,28.3727043 19.2927945,28.3727043 C19.2129041,28.3727043 19.1685205,28.3594 19.1685205,28.3084 C19.1685205,28.2574 19.2195616,28.2426174 19.3290411,28.2426174 C19.5272877,28.2426174 19.7381096,28.2500087 19.9208219,28.2500087 C20.1101918,28.2574 20.2781096,28.2647913 20.3801918,28.2647913 C20.6146849,28.2647913 22.0660274,28.2647913 22.2058356,28.2574 C22.3441644,28.2426174 22.4610411,28.2285739 22.5194795,28.2145304 C22.555726,28.2064 22.5993699,28.1857043 22.6356164,28.1857043 C22.6726027,28.1857043 22.68,28.2145304 22.68,28.2500087 C22.68,28.3010087 22.6430137,28.387487 22.6208219,28.7208348 C22.6141644,28.7917913 22.5993699,29.1103565 22.5853151,29.1968348 C22.5771781,29.2330522 22.5631233,29.2774 22.5120822,29.2774 C22.4610411,29.2774 22.4462466,29.2404435 22.4462466,29.1761391 C22.4462466,29.1251391 22.4388493,29.0024435 22.4026027,28.9152261 C22.3515616,28.7844 22.2790685,28.6986609 21.9129041,28.6550522 C21.7893699,28.6402696 21.022274,28.6269652 20.8765479,28.6269652 C20.8403014,28.6269652 20.8255068,28.6476609 20.8255068,28.6986609 L20.8255068,30.5280087 C20.8255068,30.5782696 20.8329041,30.6070957 20.8765479,30.6070957 C21.0370685,30.6070957 21.8766575,30.6070957 22.0445753,30.592313 C22.2198904,30.5782696 22.3293699,30.5560957 22.3952055,30.4844 C22.4462466,30.4260087 22.4758356,30.3905304 22.5120822,30.3905304 C22.5409315,30.3905304 22.5631233,30.4038348 22.5631233,30.4474435 C22.5631233,30.4917913 22.5335342,30.6070957 22.5046849,30.9751826 C22.4972877,31.1200522 22.4758356,31.4090522 22.4758356,31.4607913 C22.4758356,31.5177043 22.4758356,31.5982696 22.41,31.5982696 C22.3589589,31.5982696 22.3441644,31.5687043 22.3441644,31.532487 C22.3367671,31.4607913 22.3367671,31.3669217 22.3153151,31.272313 C22.2790685,31.1274435 22.1755068,31.0187913 21.9062466,30.9899652 C21.7671781,30.9751826 21.0444658,30.9685304 20.8691507,30.9685304 C20.8329041,30.9685304 20.8255068,30.9973565 20.8255068,31.0409652 L20.8255068,31.612313 C20.8255068,31.8577043 20.8181096,32.5229217 20.8255068,32.7320957 C20.8403014,33.2317478 20.9571781,33.3404 21.7013425,33.3404 C21.8914521,33.3404 22.1984384,33.3404 22.3878082,33.2531826 C22.5771781,33.1659652 22.6652055,33.0144435 22.7162466,32.717313 C22.7303014,32.6382261 22.7450959,32.6094 22.796137,32.6094 C22.8545753,32.6094 22.8545753,32.6677913 22.8545753,32.739487 C22.8545753,32.9057913 22.796137,33.3980522 22.7598904,33.5429217 C22.7088493,33.7299217 22.6430137,33.7299217 22.3663562,33.7299217 C21.8182192,33.7299217 21.4172877,33.7151391 21.1029041,33.708487 C20.7892603,33.6937043 20.5636438,33.6877913 20.3432055,33.6877913 C20.2633151,33.6877913 20.1027945,33.6877913 19.9282192,33.6937043 C19.7603014,33.6937043 19.5709315,33.708487 19.423726,33.708487 C19.3290411,33.708487 19.278,33.6877913 19.278,33.6360522 C19.278,33.5998348 19.3068493,33.5784 19.3956164,33.5784 C19.5050959,33.5784 19.5923836,33.5636174 19.6582192,33.5488348 C19.8039452,33.5207478 19.8409315,33.3618348 19.8697808,33.1526609 C19.9060274,32.8488783 19.9060274,32.2775304 19.9060274,31.612313 L19.9060274,30.3395304" id="Fill-7" fill="#FFFFFF"></path>
            <path d="M25.1765753,30.9108783 C25.1765753,30.9907043 25.1913699,31.0187913 25.242411,31.0409652 C25.3955342,31.0919652 25.6137534,31.1134 25.7972055,31.1134 C26.0886575,31.1134 26.1840822,31.0845739 26.3150137,30.9907043 C26.5332329,30.8317913 26.746274,30.4984435 26.746274,29.9056609 C26.746274,28.8790087 26.0598082,28.5826174 25.6285479,28.5826174 C25.4465753,28.5826174 25.3149041,28.5900087 25.242411,28.6121826 C25.1913699,28.6269652 25.1765753,28.6557913 25.1765753,28.7127043 L25.1765753,30.9108783 Z M24.3155342,30.3395304 C24.3155342,29.2404435 24.3155342,29.0386609 24.3007397,28.8065739 C24.2859452,28.5611826 24.2275068,28.4458783 23.9870959,28.3948783 C23.9286575,28.3800957 23.8043836,28.3734435 23.7015616,28.3734435 C23.6216712,28.3734435 23.5780274,28.3594 23.5780274,28.3084 C23.5780274,28.2574 23.6290685,28.2433565 23.7385479,28.2433565 C24.1261644,28.2433565 24.5847945,28.2640522 24.7393973,28.2640522 C24.9872055,28.2640522 25.5412603,28.2433565 25.7668767,28.2433565 C26.227726,28.2433565 26.7174247,28.2862261 27.1109589,28.5537913 C27.3151233,28.6912696 27.6073151,29.0593565 27.6073151,29.5442261 C27.6073151,30.0793565 27.3802192,30.5708783 26.6427123,31.1636609 C27.2929315,31.9730087 27.7966849,32.6175304 28.2272055,33.0654435 C28.636274,33.4845304 28.935863,33.5355304 29.0446027,33.5577043 C29.1252329,33.5717478 29.1903288,33.5776609 29.2487671,33.5776609 C29.3072055,33.5776609 29.3367945,33.5998348 29.3367945,33.6367913 C29.3367945,33.6944435 29.2857534,33.7092261 29.197726,33.7092261 L28.5053425,33.7092261 C28.096274,33.7092261 27.9135616,33.6730087 27.7241918,33.5717478 C27.4098082,33.4054435 27.132411,33.0654435 26.7240822,32.5081391 C26.4318904,32.110487 26.0960548,31.6197043 26.0013699,31.5110522 C25.9651233,31.4674435 25.9214795,31.4600522 25.8704384,31.4600522 L25.2350137,31.4460087 C25.1987671,31.4460087 25.1765753,31.4600522 25.1765753,31.5036609 L25.1765753,31.6049217 C25.1765753,32.2775304 25.1765753,32.8488783 25.2128219,33.1526609 C25.2350137,33.3618348 25.2786575,33.5207478 25.4976164,33.5495739 C25.6070959,33.5643565 25.7668767,33.5776609 25.8556438,33.5776609 C25.9140822,33.5776609 25.9429315,33.5998348 25.9429315,33.6367913 C25.9429315,33.6870522 25.8918904,33.7092261 25.7972055,33.7092261 C25.3733425,33.7092261 24.8333425,33.6870522 24.723863,33.6870522 C24.5847945,33.6870522 24.1261644,33.7092261 23.8332329,33.7092261 C23.7385479,33.7092261 23.6875068,33.6870522 23.6875068,33.6367913 C23.6875068,33.5998348 23.7163562,33.5776609 23.8043836,33.5776609 C23.9131233,33.5776609 24.0018904,33.5643565 24.0669863,33.5495739 C24.2134521,33.5207478 24.2496986,33.3618348 24.2792877,33.1526609 C24.3155342,32.8488783 24.3155342,32.2775304 24.3155342,31.612313 L24.3155342,30.3395304 Z" id="Fill-9" fill="#FFFFFF"></path>
            <path d="M31.4032192,31.4601261 C31.4394658,31.4601261 31.4476027,31.4386913 31.4394658,31.4165174 L30.782589,29.6307783 C30.7751918,29.6026913 30.7685342,29.5657348 30.7463425,29.5657348 C30.7241507,29.5657348 30.7100959,29.6026913 30.7026986,29.6307783 L30.0310274,31.4091261 C30.0236301,31.4386913 30.0310274,31.4601261 30.0598767,31.4601261 L31.4032192,31.4601261 Z M29.9141507,31.8215609 C29.8771644,31.8215609 29.8631096,31.8356043 29.8483151,31.879213 L29.4547808,32.9132565 C29.3822877,33.0936043 29.3453014,33.2680391 29.3453014,33.3545174 C29.3453014,33.4846043 29.411137,33.5777348 29.6367534,33.5777348 L29.7462329,33.5777348 C29.8335205,33.5777348 29.8557123,33.5925174 29.8557123,33.6361261 C29.8557123,33.6945174 29.8120685,33.7093 29.7314384,33.7093 C29.4984247,33.7093 29.1840411,33.6871261 28.9576849,33.6871261 C28.8777945,33.6871261 28.476863,33.7093 28.0966438,33.7093 C28.0019589,33.7093 27.9583151,33.6945174 27.9583151,33.6361261 C27.9583151,33.5925174 27.9871644,33.5777348 28.0456027,33.5777348 C28.1114384,33.5777348 28.2135205,33.5718217 28.2719589,33.5644304 C28.6077945,33.5208217 28.746863,33.2754304 28.8918493,32.9132565 L30.7241507,28.3735174 C30.8121781,28.1636043 30.8558219,28.0845174 30.9283151,28.0845174 C30.9941507,28.0845174 31.0377945,28.1488217 31.1117671,28.3151261 C31.2870822,28.7127783 32.4543699,31.6619087 32.9218767,32.7609957 C33.199274,33.4129087 33.4100959,33.5134304 33.5632192,33.550387 C33.6726986,33.5718217 33.7829178,33.5777348 33.8709452,33.5777348 C33.9293836,33.5777348 33.9656301,33.5851261 33.9656301,33.6361261 C33.9656301,33.6945174 33.8997945,33.7093 33.6290548,33.7093 C33.3664521,33.7093 32.8338493,33.7093 32.2502055,33.6945174 C32.1185342,33.6871261 32.0312466,33.6871261 32.0312466,33.6361261 C32.0312466,33.5925174 32.0608356,33.5777348 32.1333288,33.5718217 C32.1843699,33.5570391 32.235411,33.4919957 32.1991644,33.4055174 L31.6147808,31.8725609 C31.5999863,31.8356043 31.5785342,31.8215609 31.5415479,31.8215609 L29.9141507,31.8215609 Z" id="Fill-11" fill="#FFFFFF"></path>
            <path d="M35.440274,31.6120913 C35.440274,32.5367435 35.440274,33.0363957 35.5933973,33.1672217 C35.7176712,33.2751348 35.9077808,33.3261348 36.4766301,33.3261348 C36.8642466,33.3261348 37.1483014,33.3180043 37.3310137,33.1228739 C37.4183014,33.0290043 37.505589,32.8264826 37.5203836,32.6890043 C37.5277808,32.6247 37.5418356,32.5810913 37.600274,32.5810913 C37.6513151,32.5810913 37.6587123,32.6173087 37.6587123,32.703787 C37.6587123,32.783613 37.6076712,33.3261348 37.5492329,33.5353087 C37.505589,33.6942217 37.4693425,33.7311783 37.089863,33.7311783 C36.5646575,33.7311783 36.1851781,33.7163957 35.856,33.7090043 C35.5275616,33.6942217 35.2656986,33.6875696 34.9661096,33.6875696 C34.8854795,33.6875696 34.7249589,33.6875696 34.5496438,33.6942217 C34.3824658,33.6942217 34.1923562,33.7090043 34.0458904,33.7090043 C33.9512055,33.7090043 33.9001644,33.6875696 33.9001644,33.6358304 C33.9001644,33.6003522 33.9290137,33.5781783 34.0177808,33.5781783 C34.1272603,33.5781783 34.2145479,33.5641348 34.2803836,33.5500913 C34.4261096,33.5205261 34.4623562,33.361613 34.4912055,33.1524391 C34.5281918,32.8486565 34.5281918,32.2773087 34.5281918,31.6120913 L34.5281918,30.3393087 C34.5281918,29.2402217 34.5281918,29.0384391 34.5133973,28.8078304 C34.4993425,28.5609609 34.4401644,28.4456565 34.1997534,28.3953957 C34.1413151,28.380613 34.0540274,28.3732217 33.9586027,28.3732217 C33.8779726,28.3732217 33.8343288,28.3591783 33.8343288,28.3081783 C33.8343288,28.2571783 33.8853699,28.2431348 33.9948493,28.2431348 C34.3380822,28.2431348 34.7974521,28.2645696 34.9956986,28.2645696 C35.170274,28.2645696 35.7028767,28.2431348 35.988411,28.2431348 C36.0904932,28.2431348 36.1415342,28.2571783 36.1415342,28.3081783 C36.1415342,28.3591783 36.0978904,28.3732217 36.009863,28.3732217 C35.9299726,28.3732217 35.8123562,28.380613 35.7243288,28.3953957 C35.5275616,28.4308739 35.469863,28.5535696 35.4550685,28.8078304 C35.440274,29.0384391 35.440274,29.2402217 35.440274,30.3393087 L35.440274,31.6120913" id="Fill-13" fill="#FFFFFF"></path>
            <path d="M40.8353918,33.0217609 C40.1200767,32.4008913 39.9299671,31.5908043 39.9299671,30.8893696 C39.9299671,30.3971087 40.0830904,29.5448913 40.7843507,28.9085 C41.3095562,28.4317609 42.0026795,28.1420217 43.0900767,28.1420217 C43.5435288,28.1420217 43.812789,28.1701087 44.1493644,28.2137174 C44.4260219,28.2499348 44.6597753,28.3149783 44.8787342,28.3371522 C44.9586247,28.3438043 44.9889534,28.3807609 44.9889534,28.4243696 C44.9889534,28.4812826 44.9660219,28.5685 44.9512274,28.8212826 C44.9364329,29.0600217 44.9438301,29.4576739 44.9297753,29.6025435 C44.9223781,29.7104565 44.9075836,29.7688478 44.8424877,29.7688478 C44.7833096,29.7688478 44.7692548,29.7104565 44.7692548,29.6091957 C44.7618575,29.3859783 44.6671726,29.1317174 44.4852,28.9439783 C44.2440493,28.6919348 43.6744603,28.4960652 43.002789,28.4960652 C42.3681041,28.4960652 41.9516384,28.6549783 41.631337,28.9439783 C41.0972548,29.4281087 40.958926,30.1147609 40.958926,30.8169348 C40.958926,32.5376304 42.2800767,33.390587 43.2587342,33.390587 C43.907474,33.390587 44.3024877,33.3181522 44.5939397,32.9855435 C44.7182137,32.8480652 44.8128986,32.6388913 44.8424877,32.5088043 C44.8639397,32.3927609 44.8787342,32.3639348 44.9364329,32.3639348 C44.9889534,32.3639348 45.0037479,32.4141957 45.0037479,32.472587 C45.0037479,32.5590652 44.9149808,33.1880652 44.8424877,33.4341957 C44.8055014,33.5568913 44.7766521,33.5931087 44.6523781,33.6433696 C44.360926,33.7586739 43.8061315,33.8096739 43.3393644,33.8096739 C42.3385151,33.8096739 41.4996658,33.5931087 40.8353918,33.0217609" id="Fill-15" fill="#FFFFFF"></path>
            <path d="M47.2227781,30.9108783 C47.2227781,30.9907043 47.2375726,31.0187913 47.287874,31.0409652 C47.4409973,31.0919652 47.6599562,31.1134 47.8434082,31.1134 C48.1348603,31.1134 48.2295452,31.0845739 48.3612164,30.9907043 C48.5809151,30.8317913 48.7924767,30.4984435 48.7924767,29.9056609 C48.7924767,28.8790087 48.106011,28.5826174 47.6747507,28.5826174 C47.4927781,28.5826174 47.3611068,28.5900087 47.287874,28.6121826 C47.2375726,28.6269652 47.2227781,28.6557913 47.2227781,28.7127043 L47.2227781,30.9108783 Z M46.3609973,30.3395304 C46.3609973,29.2404435 46.3609973,29.0386609 46.3469425,28.8065739 C46.3321479,28.5611826 46.2737096,28.4458783 46.0332986,28.3948783 C45.9748603,28.3800957 45.851326,28.3734435 45.7477644,28.3734435 C45.667874,28.3734435 45.6242301,28.3594 45.6242301,28.3084 C45.6242301,28.2574 45.6752712,28.2433565 45.7847507,28.2433565 C46.1716274,28.2433565 46.6309973,28.2640522 46.7856,28.2640522 C47.0334082,28.2640522 47.587463,28.2433565 47.8145589,28.2433565 C48.273189,28.2433565 48.7628877,28.2862261 49.1564219,28.5537913 C49.361326,28.6912696 49.6535178,29.0593565 49.6535178,29.5442261 C49.6535178,30.0793565 49.4264219,30.5708783 48.6903945,31.1636609 C49.3391342,31.9730087 49.8428877,32.6175304 50.2734082,33.0654435 C50.6824767,33.4845304 50.981326,33.5355304 51.0908055,33.5577043 C51.1706959,33.5717478 51.2365315,33.5776609 51.2957096,33.5776609 C51.3534082,33.5776609 51.383737,33.5998348 51.383737,33.6367913 C51.383737,33.6944435 51.3326959,33.7092261 51.2439288,33.7092261 L50.5515452,33.7092261 C50.141737,33.7092261 49.9597644,33.6730087 49.7703945,33.5717478 C49.456011,33.4054435 49.1786137,33.0654435 48.7702849,32.5081391 C48.4773534,32.110487 48.1422575,31.6197043 48.0475726,31.5110522 C48.011326,31.4674435 47.9669425,31.4600522 47.9159014,31.4600522 L47.2812164,31.4460087 C47.2442301,31.4460087 47.2227781,31.4600522 47.2227781,31.5036609 L47.2227781,31.6049217 C47.2227781,32.2775304 47.2227781,32.8488783 47.2590247,33.1526609 C47.2812164,33.3618348 47.3248603,33.5207478 47.5438192,33.5495739 C47.6532986,33.5643565 47.8145589,33.5776609 47.9018466,33.5776609 C47.9602849,33.5776609 47.9891342,33.5998348 47.9891342,33.6367913 C47.9891342,33.6870522 47.9380932,33.7092261 47.8434082,33.7092261 C47.4195452,33.7092261 46.8802849,33.6870522 46.7708055,33.6870522 C46.6309973,33.6870522 46.1716274,33.7092261 45.8794356,33.7092261 C45.7847507,33.7092261 45.7344493,33.6870522 45.7344493,33.6367913 C45.7344493,33.5998348 45.7625589,33.5776609 45.851326,33.5776609 C45.9600658,33.5776609 46.0480932,33.5643565 46.113189,33.5495739 C46.2589151,33.5207478 46.2959014,33.3618348 46.3247507,33.1526609 C46.3609973,32.8488783 46.3609973,32.2775304 46.3609973,31.612313 L46.3609973,30.3395304 Z" id="Fill-17" fill="#FFFFFF"></path>
            <path d="M51.6683836,30.3395304 C51.6683836,29.2404435 51.6683836,29.0379217 51.653589,28.8065739 C51.6387945,28.5611826 51.5810959,28.4451391 51.3406849,28.3948783 C51.2822466,28.3800957 51.1579726,28.3727043 51.0551507,28.3727043 C50.9752603,28.3727043 50.9308767,28.3594 50.9308767,28.3084 C50.9308767,28.2574 50.9833973,28.2426174 51.0913973,28.2426174 C51.2889041,28.2426174 51.5004658,28.2500087 51.6831781,28.2500087 C51.8725479,28.2574 52.0412055,28.2647913 52.1432877,28.2647913 C52.3770411,28.2647913 53.8291233,28.2647913 53.9681918,28.2574 C54.1065205,28.2426174 54.2233973,28.2285739 54.2818356,28.2145304 C54.3180822,28.2064 54.361726,28.1857043 54.3979726,28.1857043 C54.4349589,28.1857043 54.4423562,28.2145304 54.4423562,28.2500087 C54.4423562,28.3010087 54.4053699,28.387487 54.3831781,28.7208348 C54.3765205,28.7917913 54.361726,29.1103565 54.3469315,29.1968348 C54.3395342,29.2330522 54.3254795,29.2774 54.2736986,29.2774 C54.2233973,29.2774 54.2086027,29.2404435 54.2086027,29.1761391 C54.2086027,29.1251391 54.2012055,29.0024435 54.1649589,28.9152261 C54.1139178,28.7844 54.0414247,28.6986609 53.6752603,28.6550522 C53.5509863,28.6402696 52.7846301,28.6269652 52.6389041,28.6269652 C52.6026575,28.6269652 52.587863,28.6476609 52.587863,28.6986609 L52.587863,30.5280087 C52.587863,30.5782696 52.5952603,30.6070957 52.6389041,30.6070957 C52.7994247,30.6070957 53.6390137,30.6070957 53.8069315,30.592313 C53.9822466,30.5782696 54.091726,30.5560957 54.1575616,30.4844 C54.2086027,30.4260087 54.2381918,30.3905304 54.2736986,30.3905304 C54.3032877,30.3905304 54.3254795,30.4038348 54.3254795,30.4474435 C54.3254795,30.4917913 54.2958904,30.6070957 54.2670411,30.9751826 C54.2596438,31.1200522 54.2381918,31.4090522 54.2381918,31.4607913 C54.2381918,31.5177043 54.2381918,31.5982696 54.1723562,31.5982696 C54.1213151,31.5982696 54.1065205,31.5687043 54.1065205,31.532487 C54.0991233,31.4607913 54.0991233,31.3669217 54.0769315,31.272313 C54.0414247,31.1274435 53.9386027,31.0187913 53.667863,30.9899652 C53.5295342,30.9751826 52.8068219,30.9685304 52.6315068,30.9685304 C52.5952603,30.9685304 52.587863,30.9973565 52.587863,31.0409652 L52.587863,31.612313 C52.587863,31.8577043 52.5804658,32.5229217 52.587863,32.7320957 C52.6026575,33.2317478 52.7187945,33.3404 53.4636986,33.3404 C53.6538082,33.3404 53.9607945,33.3404 54.1501644,33.2531826 C54.3395342,33.1659652 54.4268219,33.0144435 54.4786027,32.717313 C54.4926575,32.6382261 54.5074521,32.6094 54.5584932,32.6094 C54.6169315,32.6094 54.6169315,32.6677913 54.6169315,32.739487 C54.6169315,32.9057913 54.5584932,33.3980522 54.5222466,33.5429217 C54.4712055,33.7299217 54.4053699,33.7299217 54.1287123,33.7299217 C53.5805753,33.7299217 53.1796438,33.7151391 52.8652603,33.708487 C52.5516164,33.6937043 52.3252603,33.6877913 52.1070411,33.6877913 C52.0256712,33.6877913 51.8651507,33.6877913 51.6898356,33.6937043 C51.5226575,33.6937043 51.3325479,33.708487 51.1875616,33.708487 C51.0913973,33.708487 51.0403562,33.6877913 51.0403562,33.6360522 C51.0403562,33.5998348 51.0692055,33.5784 51.1579726,33.5784 C51.2674521,33.5784 51.3547397,33.5636174 51.4205753,33.5488348 C51.5663014,33.5207478 51.6025479,33.3618348 51.632137,33.1526609 C51.6683836,32.8488783 51.6683836,32.2775304 51.6683836,31.612313 L51.6683836,30.3395304" id="Fill-19" fill="#FFFFFF"></path>
            <path d="M56.9898247,31.134613 C56.9898247,31.9010913 56.9972219,32.4576565 57.0046192,32.5951348 C57.0120164,32.7762217 57.0260712,33.0652217 57.0845096,33.1443087 C57.1791945,33.281787 57.463989,33.4333087 58.0409753,33.4333087 C58.7858795,33.4333087 59.2814959,33.2891783 59.7194137,32.9137 C60.1861808,32.5160478 60.3333863,31.8582217 60.3333863,31.1131783 C60.3333863,30.1951783 59.9457699,29.6016565 59.632126,29.3052652 C58.9604548,28.669613 58.128263,28.5831348 57.558674,28.5831348 C57.4129479,28.5831348 57.1429479,28.6038304 57.0845096,28.6333957 C57.0194137,28.6622217 56.9972219,28.6984391 56.9972219,28.7775261 C56.9898247,29.0236565 56.9898247,29.6533957 56.9898247,30.2240043 L56.9898247,31.134613 Z M56.0777425,30.3400478 C56.0777425,29.2409609 56.0777425,29.0377 56.0629479,28.8070913 C56.0488932,28.5617 55.9897151,28.4456565 55.7485644,28.3946565 C55.690126,28.3798739 55.5665918,28.3732217 55.4637699,28.3732217 C55.3838795,28.3732217 55.3402356,28.3584391 55.3402356,28.3081783 C55.3402356,28.2571783 55.3912767,28.2423957 55.5007562,28.2423957 C55.8883726,28.2423957 56.3470027,28.2645696 56.5519068,28.2645696 C56.778263,28.2645696 57.2376329,28.2423957 57.6762904,28.2423957 C58.5891123,28.2423957 59.8074411,28.2423957 60.6026466,29.0672652 C60.9673315,29.4427435 61.3113041,30.0429174 61.3113041,30.9040043 C61.3113041,31.8138739 60.9236877,32.5086565 60.5153589,32.9210913 C60.1795233,33.259613 59.4213041,33.7740478 58.0698247,33.7740478 C57.8072219,33.7740478 57.5083726,33.752613 57.2309753,33.7304391 C56.9535781,33.7082652 56.6983726,33.6868304 56.5149205,33.6868304 C56.4350301,33.6868304 56.2745096,33.6868304 56.0991945,33.6934826 C55.9320164,33.6934826 55.7411671,33.7082652 55.5954411,33.7082652 C55.5007562,33.7082652 55.4497151,33.6868304 55.4497151,33.6365696 C55.4497151,33.6003522 55.4793041,33.5781783 55.5665918,33.5781783 C55.676811,33.5781783 55.7640986,33.5641348 55.8299342,33.5493522 C55.9756603,33.5212652 56.0119068,33.361613 56.0414959,33.1517 C56.0777425,32.8479174 56.0777425,32.2773087 56.0777425,31.6120913 L56.0777425,30.3400478 Z" id="Fill-21" fill="#FFFFFF"></path>
            <path d="M62.7061315,30.3395304 C62.7061315,29.2404435 62.7061315,29.0379217 62.691337,28.8065739 C62.6765425,28.5611826 62.6040493,28.438487 62.4435288,28.4015304 C62.3636384,28.3800957 62.2689534,28.3727043 62.1816658,28.3727043 C62.1069534,28.3727043 62.0633096,28.3594 62.0633096,28.3010087 C62.0633096,28.2574 62.1217479,28.2426174 62.2386247,28.2426174 C62.5167616,28.2426174 62.9761315,28.2647913 63.1884329,28.2647913 C63.3704055,28.2647913 63.800926,28.2426174 64.0783233,28.2426174 C64.1737479,28.2426174 64.2321863,28.2574 64.2321863,28.3010087 C64.2321863,28.3594 64.1878027,28.3727043 64.1153096,28.3727043 C64.041337,28.3727043 63.9828986,28.3800957 63.895611,28.3948783 C63.6988438,28.4310957 63.6404055,28.5537913 63.625611,28.8065739 C63.6115562,29.0379217 63.6115562,29.2404435 63.6115562,30.3395304 L63.6115562,31.612313 C63.6115562,32.3130087 63.6115562,32.8836174 63.6404055,33.1955304 C63.6618575,33.3906609 63.7128986,33.5207478 63.9318575,33.5488348 C64.0339397,33.5636174 64.1952,33.5784 64.3046795,33.5784 C64.3853096,33.5784 64.4215562,33.5998348 64.4215562,33.6360522 C64.4215562,33.6877913 64.3631178,33.708487 64.2832274,33.708487 C63.800926,33.708487 63.3415562,33.6877913 63.1433096,33.6877913 C62.9761315,33.6877913 62.5167616,33.708487 62.2238301,33.708487 C62.1291452,33.708487 62.0781041,33.6877913 62.0781041,33.6360522 C62.0781041,33.5998348 62.1069534,33.5784 62.1957205,33.5784 C62.3052,33.5784 62.3924877,33.5636174 62.4583233,33.5488348 C62.6040493,33.5207478 62.6476932,33.3980522 62.6698849,33.1881391 C62.7061315,32.8836174 62.7061315,32.3130087 62.7061315,31.612313 L62.7061315,30.3395304" id="Fill-23" fill="#FFFFFF"></path>
            <path d="M66.7720356,28.6479565 L65.6846384,28.6775217 C65.2607753,28.6915652 65.0862,28.7270435 64.9767205,28.8859565 C64.9034877,28.9946087 64.8672411,29.0818261 64.8524466,29.1394783 C64.8376521,29.1971304 64.8162,29.2266957 64.7725562,29.2266957 C64.7215151,29.2266957 64.7067205,29.1897391 64.7067205,29.1106522 C64.7067205,28.9946087 64.8450493,28.3367826 64.8598438,28.2791304 C64.8812959,28.1852609 64.9034877,28.1423913 64.9471315,28.1423913 C65.0055699,28.1423913 65.078063,28.214087 65.2607753,28.2288696 C65.4730767,28.2503043 65.750474,28.265087 65.9908849,28.265087 L68.8809945,28.265087 C69.1154877,28.265087 69.2760082,28.242913 69.3854877,28.2288696 C69.4942274,28.2066957 69.5526658,28.191913 69.5822548,28.191913 C69.6332959,28.191913 69.6399534,28.2355217 69.6399534,28.3441739 C69.6399534,28.4956957 69.6185014,28.9946087 69.6185014,29.183087 C69.6111041,29.2547826 69.5963096,29.2983913 69.5526658,29.2983913 C69.4942274,29.2983913 69.4801726,29.262913 69.4727753,29.1535217 L69.4653781,29.0744348 C69.4505836,28.8859565 69.2538164,28.6841739 68.604337,28.6701304 L67.6841178,28.6479565 L67.6841178,31.6118696 C67.6841178,32.277087 67.6841178,32.8484348 67.7211041,33.1596087 C67.7425562,33.3606522 67.7862,33.5203043 68.0051589,33.5491304 C68.1072411,33.563913 68.2685014,33.5786957 68.3779808,33.5786957 C68.4578712,33.5786957 68.4948575,33.6008696 68.4948575,33.6363478 C68.4948575,33.6866087 68.4364192,33.7087826 68.3565288,33.7087826 C67.8742274,33.7087826 67.4148575,33.6866087 67.2092137,33.6866087 C67.0420356,33.6866087 66.5826658,33.7087826 66.2897342,33.7087826 C66.1950493,33.7087826 66.1440082,33.6866087 66.1440082,33.6363478 C66.1440082,33.6008696 66.1728575,33.5786957 66.2616247,33.5786957 C66.3711041,33.5786957 66.4583918,33.563913 66.5242274,33.5491304 C66.6699534,33.5203043 66.7135973,33.3606522 66.735789,33.1522174 C66.7720356,32.8484348 66.7720356,32.277087 66.7720356,31.6118696 L66.7720356,28.6479565" id="Fill-25" fill="#FFFFFF"></path>
            <g id="Group-29" transform="translate(71.013699, 27.897222)">
              <mask id="mask-2" fill="white">
                <use xlink:href="#path-1"></use>
              </mask>
              <g id="Clip-28"></g>
              <path d="M1.43817534,2.4423087 C1.43817534,1.34322174 1.43817534,1.1407 1.42338082,0.909352174 C1.4085863,0.66396087 1.35014795,0.547917391 1.10973699,0.497656522 C1.0505589,0.482873913 0.927024658,0.475482609 0.82420274,0.475482609 C0.744312329,0.475482609 0.700668493,0.462178261 0.700668493,0.411178261 C0.700668493,0.360178261 0.751709589,0.345395652 0.861189041,0.345395652 C1.24880548,0.345395652 1.70743562,0.367569565 1.92787397,0.367569565 C2.10244932,0.367569565 2.56181918,0.345395652 2.82516164,0.345395652 C2.9346411,0.345395652 2.98568219,0.360178261 2.98568219,0.411178261 C2.98568219,0.462178261 2.94203836,0.475482609 2.86806575,0.475482609 C2.78817534,0.475482609 2.74379178,0.482873913 2.65650411,0.497656522 C2.45973699,0.533873913 2.40129863,0.656569565 2.38650411,0.909352174 C2.37244932,1.1407 2.37244932,1.34322174 2.37244932,2.4423087 L2.37244932,3.45491739 C2.37244932,4.50300435 2.58327123,4.94426522 2.94203836,5.23326522 C3.27047671,5.50083043 3.6055726,5.52891739 3.85412055,5.52891739 C4.17516164,5.52891739 4.56869589,5.42839565 4.8616274,5.13865652 C5.2625589,4.74100435 5.28401096,4.09056957 5.28401096,3.34552609 L5.28401096,2.4423087 C5.28401096,1.34322174 5.28401096,1.1407 5.26995616,0.909352174 C5.25516164,0.66396087 5.19672329,0.547917391 4.95631233,0.497656522 C4.89787397,0.482873913 4.7736,0.475482609 4.69370959,0.475482609 C4.61233973,0.475482609 4.56869589,0.462178261 4.56869589,0.411178261 C4.56869589,0.360178261 4.61973699,0.345395652 4.72181918,0.345395652 C5.0946411,0.345395652 5.55475068,0.367569565 5.56140822,0.367569565 C5.64943562,0.367569565 6.10880548,0.345395652 6.3936,0.345395652 C6.49568219,0.345395652 6.54672329,0.360178261 6.54672329,0.411178261 C6.54672329,0.462178261 6.50381918,0.475482609 6.41579178,0.475482609 C6.33516164,0.475482609 6.29151781,0.482873913 6.20349041,0.497656522 C6.00672329,0.533873913 5.94902466,0.656569565 5.93423014,0.909352174 C5.91943562,1.1407 5.91943562,1.34322174 5.91943562,2.4423087 L5.91943562,3.21543913 C5.91943562,4.01813478 5.83954521,4.8710913 5.22631233,5.39143913 C4.70850411,5.8327 4.1825589,5.91326522 3.70765479,5.91326522 C3.32077808,5.91326522 2.62025753,5.8910913 2.08765479,5.41361304 C1.7155726,5.08174348 1.43817534,4.54661304 1.43817534,3.49778696 L1.43817534,2.4423087" id="Fill-27" fill="#FFFFFF" mask="url(#mask-2)"></path>
            </g>
            <path d="M79.1895945,32.7254435 C79.204389,33.2894 79.299074,33.4771391 79.4448,33.5274 C79.5683342,33.5717478 79.7081425,33.5784 79.8250192,33.5784 C79.9049096,33.5784 79.9485534,33.5931826 79.9485534,33.6360522 C79.9485534,33.6944435 79.8827178,33.7092261 79.7813753,33.7092261 C79.3064712,33.7092261 79.0142795,33.6870522 78.8759507,33.6870522 C78.8101151,33.6870522 78.4668822,33.7092261 78.0874027,33.7092261 C77.9927178,33.7092261 77.9268822,33.7018348 77.9268822,33.6360522 C77.9268822,33.5931826 77.9712658,33.5784 78.0437589,33.5784 C78.1384438,33.5784 78.2701151,33.5717478 78.3721973,33.5421826 C78.5615671,33.4837913 78.5904164,33.2746174 78.5978137,32.6463565 L78.6636493,28.3660522 C78.6636493,28.2211826 78.6851014,28.1206609 78.759074,28.1206609 C78.8397041,28.1206609 78.9040603,28.2137913 79.029074,28.3446174 C79.1163616,28.4377478 80.2259507,29.6166609 81.2911562,30.6647478 C81.7882521,31.1562696 82.7735671,32.1977043 82.8971014,32.3130087 L82.9340877,32.3130087 L82.8608548,29.067487 C82.8534575,28.6262261 82.7876219,28.4887478 82.6130466,28.4155739 C82.5035671,28.3734435 82.3275123,28.3734435 82.2254301,28.3734435 C82.1381425,28.3734435 82.1085534,28.3520087 82.1085534,28.3076609 C82.1085534,28.2507478 82.1891836,28.2433565 82.298663,28.2433565 C82.6788822,28.2433565 83.0280329,28.2647913 83.1811562,28.2647913 C83.2617863,28.2647913 83.5399233,28.2433565 83.897211,28.2433565 C83.9918959,28.2433565 84.064389,28.2507478 84.064389,28.3076609 C84.064389,28.3520087 84.0207452,28.3734435 83.9334575,28.3734435 C83.8602247,28.3734435 83.802526,28.3734435 83.7152384,28.3956174 C83.5103342,28.4525304 83.4511562,28.6040522 83.4452384,29.0090957 L83.3638685,33.5717478 C83.3638685,33.7306609 83.3350192,33.7949652 83.2699233,33.7949652 C83.1885534,33.7949652 83.1012658,33.7158783 83.0213753,33.6360522 C82.5620055,33.2021826 81.6277315,32.2553565 80.8687726,31.5110522 C80.0728274,30.7305304 79.2628274,29.8265739 79.1311562,29.6890957 L79.1097041,29.6890957 L79.1895945,32.7254435" id="Fill-30" fill="#FFFFFF"></path>
            <path d="M85.4895452,30.3395304 C85.4895452,29.2404435 85.4895452,29.0379217 85.4747507,28.8065739 C85.4599562,28.5611826 85.387463,28.438487 85.2269425,28.4015304 C85.1470521,28.3800957 85.0523671,28.3727043 84.9643397,28.3727043 C84.8903671,28.3727043 84.8467233,28.3594 84.8467233,28.3010087 C84.8467233,28.2574 84.9059014,28.2426174 85.0227781,28.2426174 C85.3001753,28.2426174 85.7595452,28.2647913 85.9718466,28.2647913 C86.1538192,28.2647913 86.5836,28.2426174 86.861737,28.2426174 C86.9571616,28.2426174 87.0156,28.2574 87.0156,28.3010087 C87.0156,28.3594 86.9712164,28.3727043 86.8987233,28.3727043 C86.8247507,28.3727043 86.7663123,28.3800957 86.6790247,28.3948783 C86.4822575,28.4310957 86.4238192,28.5537913 86.4090247,28.8065739 C86.3949699,29.0379217 86.3949699,29.2404435 86.3949699,30.3395304 L86.3949699,31.612313 C86.3949699,32.3130087 86.3949699,32.8836174 86.4238192,33.1955304 C86.4452712,33.3906609 86.4963123,33.5207478 86.7152712,33.5488348 C86.8173534,33.5636174 86.9786137,33.5784 87.0880932,33.5784 C87.1687233,33.5784 87.2049699,33.5998348 87.2049699,33.6360522 C87.2049699,33.6877913 87.1465315,33.708487 87.0659014,33.708487 C86.5836,33.708487 86.1249699,33.6877913 85.9282027,33.6877913 C85.7595452,33.6877913 85.3001753,33.708487 85.0087233,33.708487 C84.9125589,33.708487 84.8615178,33.6877913 84.8615178,33.6360522 C84.8615178,33.5998348 84.8903671,33.5784 84.9791342,33.5784 C85.0886137,33.5784 85.1759014,33.5636174 85.241737,33.5488348 C85.387463,33.5207478 85.4311068,33.3980522 85.4532986,33.1881391 C85.4895452,32.8836174 85.4895452,32.3130087 85.4895452,31.612313 L85.4895452,30.3395304" id="Fill-32" fill="#FFFFFF"></path>
            <path d="M92.7307233,31.1133261 C92.7307233,29.4938913 91.7890521,28.4886739 90.5921753,28.4886739 C89.7518466,28.4886739 88.7968603,28.9521087 88.7968603,30.7518913 C88.7968603,32.2560217 89.6349699,33.4482391 91.0367507,33.4482391 C91.5471616,33.4482391 92.7307233,33.2028478 92.7307233,31.1133261 M87.7893534,30.9758478 C87.7893534,29.7400217 88.6134082,28.1420217 90.803737,28.1420217 C92.6212438,28.1420217 93.7522849,29.1901087 93.7522849,30.8457609 C93.7522849,32.501413 92.5849973,33.8096739 90.7305041,33.8096739 C88.6356,33.8096739 87.7893534,32.2560217 87.7893534,30.9758478" id="Fill-34" fill="#FFFFFF"></path>
            <path d="M95.5564027,32.7254435 C95.5711973,33.2894 95.6651425,33.4771391 95.8116082,33.5274 C95.9351425,33.5717478 96.0749507,33.5784 96.1910877,33.5784 C96.2717178,33.5784 96.3153616,33.5931826 96.3153616,33.6360522 C96.3153616,33.6944435 96.249526,33.7092261 96.1474438,33.7092261 C95.6732795,33.7092261 95.3810877,33.6870522 95.2427589,33.6870522 C95.1769233,33.6870522 94.8329507,33.7092261 94.454211,33.7092261 C94.359526,33.7092261 94.2936904,33.7018348 94.2936904,33.6360522 C94.2936904,33.5931826 94.338074,33.5784 94.4105671,33.5784 C94.5052521,33.5784 94.6361836,33.5717478 94.7390055,33.5421826 C94.9283753,33.4837913 94.9572247,33.2746174 94.9661014,32.6463565 L95.0304575,28.3660522 C95.0304575,28.2211826 95.0519096,28.1206609 95.1258822,28.1206609 C95.2065123,28.1206609 95.2716082,28.2137913 95.3958822,28.3446174 C95.4831699,28.4377478 96.5927589,29.6166609 97.6579644,30.6647478 C98.1550603,31.1562696 99.1403753,32.1977043 99.2639096,32.3130087 L99.3008959,32.3130087 L99.227663,29.067487 C99.2202658,28.6262261 99.1544301,28.4887478 98.9798548,28.4155739 C98.8703753,28.3734435 98.6943205,28.3734435 98.5922384,28.3734435 C98.5049507,28.3734435 98.4753616,28.3520087 98.4753616,28.3076609 C98.4753616,28.2507478 98.5559918,28.2433565 98.6654712,28.2433565 C99.0449507,28.2433565 99.3948411,28.2647913 99.5479644,28.2647913 C99.6293342,28.2647913 99.9067315,28.2433565 100.264019,28.2433565 C100.358704,28.2433565 100.431197,28.2507478 100.431197,28.3076609 C100.431197,28.3520087 100.387553,28.3734435 100.300266,28.3734435 C100.227033,28.3734435 100.169334,28.3734435 100.081307,28.3956174 C99.8771425,28.4525304 99.8179644,28.6040522 99.8120466,29.0090957 L99.7314164,33.5717478 C99.7314164,33.7306609 99.7018274,33.7949652 99.6367315,33.7949652 C99.5553616,33.7949652 99.468074,33.7158783 99.3881836,33.6360522 C98.9288137,33.2021826 97.9945397,32.2553565 97.2355808,31.5110522 C96.4396356,30.7305304 95.6288959,29.8265739 95.4979644,29.6890957 L95.4765123,29.6890957 L95.5564027,32.7254435" id="Fill-36" fill="#FFFFFF"></path>
            <path d="M100.349753,5.23474348 C100.500658,4.50300435 101.013288,3.96491739 101.636877,3.56800435 C102.279699,3.15704783 103.206575,2.78674348 104.157123,2.89022174 C104.339836,2.90943913 104.666795,2.97078696 104.83989,3.08165652 C104.850986,3.08904783 104.863562,3.09717826 104.873178,3.10678696 C104.899068,3.12600435 104.919781,3.14522174 104.934575,3.16887391 C104.947151,3.19104783 104.956767,3.21248261 104.956767,3.23687391 C104.970082,3.40391739 104.646082,3.51996087 104.470027,3.58574348 C103.865671,3.80896087 103.110411,3.90061304 102.506055,4.08761304 C101.639096,4.35665652 101.023644,4.8200913 100.349753,5.23474348 M105.46126,3.42904783 C105.477534,4.40543913 104.028411,4.50743913 103.217671,4.71439565 C102.834493,4.81196087 102.475726,4.9413087 102.175397,5.07878696 C101.821808,5.24065652 101.543671,5.48087391 101.235945,5.59987391 C100.993315,5.69374348 100.822438,5.72478696 100.593863,5.61687391 C100.653041,5.25691739 101.096877,5.15935217 101.393507,5.0263087 C101.700493,4.88956957 102.022274,4.71956957 102.367726,4.60943913 C103.091918,4.37735217 103.97663,4.36035217 104.505534,3.96713478 C104.695644,3.82448261 104.796986,3.61678696 104.956767,3.4623087 C105.019644,3.4090913 105.08474,3.35956957 105.147616,3.30635217 C105.225288,3.27383043 105.29926,3.23687391 105.357699,3.18587391 C105.361397,3.09422174 105.304438,3.06391739 105.251918,3.02843913 C105.024822,2.85696087 104.859863,2.5857 104.592082,2.49035217 C103.926329,2.25013478 103.077863,2.4230913 102.453534,2.64704783 C101.800356,2.88283043 101.245562,3.22948261 100.872,3.55026522 L100.854986,3.55026522 C100.699644,3.67887391 100.551699,3.81561304 100.419288,3.96713478 C100.013178,4.35665652 99.8644932,4.91617826 99.6373973,5.44391739 C99.4154795,5.9613087 99.1573151,6.4787 98.9598082,7.02343913 C98.5588767,8.13361304 98.2740822,9.32804783 98.0026027,10.5683087 C97.9656164,9.57713478 98.1586849,8.60961304 98.4035342,7.7367 C98.6461644,6.87043913 98.9353973,6.05443913 99.3074795,5.3567 C99.5146027,4.97087391 99.675863,4.62348261 99.9155342,4.31452609 C100.612356,3.41278696 101.656849,2.78378696 102.957288,2.43713478 C103.030521,2.44156957 103.091918,2.43417826 103.131863,2.40313478 L103.149616,2.40313478 C103.245041,2.40535217 103.32937,2.3987 103.392247,2.36913478 L103.41,2.36913478 C103.721425,2.35435217 104.076493,2.33587391 104.383479,2.36913478 L104.401233,2.36913478 C104.487781,2.40313478 104.598,2.4157 104.695644,2.43713478 C104.917562,2.52361304 105.431671,2.75496087 105.46126,2.99443913 C105.471616,3.0690913 105.396164,3.09717826 105.391726,3.18587391 C105.390247,3.25683043 105.46126,3.35587391 105.46126,3.42904783 M107.304658,4.50522174 C107.232164,3.49852609 106.647781,2.8503087 105.930247,2.43713478 C105.202356,2.01878696 104.146027,1.86283043 103.044575,2.07348261 C101.849178,2.30335217 100.735151,2.97004783 99.9850685,3.75796087 C99.8778082,3.87178696 99.7853425,3.99448261 99.6862192,4.11274348 C99.6669863,4.13565652 99.6470137,4.1593087 99.6270411,4.1837 C99.0404384,4.90804783 98.5899452,5.7403087 98.2459726,6.71152609 C98.080274,7.17865652 97.9286301,7.67313478 97.7903014,8.1957 C97.7843836,8.21417826 97.7792055,8.23265652 97.7762466,8.25187391 C97.6105479,8.86387391 97.478137,9.49065652 97.3886301,10.1425696 C97.3730959,10.2541783 97.3568219,10.3665261 97.3427671,10.4810913 C97.2103562,11.5121783 97.1815068,12.7849609 97.3775342,13.7465696 C97.4389315,14.0525696 97.4988493,14.4413522 97.7599726,14.5470478 C97.893863,14.4273087 97.8790685,14.2432652 97.9153151,14.0939609 C98.5263288,11.5816565 100.133014,10.2645261 102.227918,9.22974348 C103.333068,8.68426522 104.521808,8.2903087 105.547808,7.65022174 C106.546438,7.02639565 107.427452,6.18600435 107.304658,4.50522174 M98.3687671,18.7844826 C98.2533699,18.7830043 98.2333973,18.6876565 98.1416712,18.6632652 C97.9153151,18.4378304 97.669726,18.2323522 97.2554795,18.1939174 C97.3427671,18.100787 97.6112877,18.1214826 97.7599726,18.1421783 C98.0566027,18.2116565 98.5507397,18.5080478 98.3687671,18.7844826 M97.0121096,20.3824826 C96.8782192,20.4992652 96.7931507,20.667787 96.6651781,20.764613 C96.522411,20.8725261 96.2886575,20.854787 96.1259178,20.9220478 C96.0549041,20.9501348 96.003863,21.0528739 95.9173151,21.0602652 C95.5444932,21.0905696 95.4290959,20.3410913 95.4653425,19.9308739 C95.4690411,19.8917 95.5141644,19.6551783 95.4993699,19.7749174 C95.4830959,20.1858739 95.563726,20.4970478 95.7427397,20.7121348 L95.7427397,20.7106565 C95.7427397,20.7113957 95.7442192,20.7121348 95.7442192,20.7143522 C95.7508767,20.7291348 95.7863836,20.8089609 95.8359452,20.8230043 C95.8389041,20.8230043 95.8433425,20.8252217 95.8463014,20.8252217 C95.8514795,20.8289174 95.8596164,20.832613 95.8699726,20.8355696 C95.9150959,20.8459174 95.9942466,20.8459174 96.0208767,20.8518304 C96.1318356,20.8237435 96.165863,20.6958739 96.2472329,20.6249174 C96.3715068,20.5192217 96.5409041,20.4889174 96.6814521,20.4002217 C96.8072055,20.3203957 96.9144658,20.1932652 97.0476164,20.1045696 C97.3087397,19.9301348 97.5624658,19.7845261 97.7762466,19.5487435 C97.8701918,19.4482217 97.9523014,19.2693522 98.1253973,19.2893087 C98.1616438,19.8340478 97.3679178,20.0757435 97.0121096,20.3824826 M96.3685479,18.9064391 C96.5460822,18.7364391 96.8005479,18.5738304 97.0638904,18.5413087 C97.3908493,18.503613 97.7888219,18.6632652 97.8117534,18.8887 C97.8369041,19.1237435 97.5343562,19.2952217 97.3597808,19.3920478 C97.1289863,19.5213957 96.9048493,19.5938304 96.7339726,19.7054391 C96.3670685,19.9456565 96.1377534,20.2738304 95.9616986,20.662613 C95.9298904,20.7106565 95.8714521,20.781613 95.8233699,20.7757 C95.8130137,20.769787 95.8019178,20.764613 95.7900822,20.7542652 C95.771589,20.7320913 95.7575342,20.6899609 95.7493973,20.6190043 C95.7923014,19.9353087 95.9639178,19.2922652 96.3685479,18.9064391 M97.2421644,17.8103087 C97.2273699,17.8147435 97.2140548,17.8206565 97.2036986,17.828787 C97.2147945,17.8206565 97.2273699,17.8147435 97.2421644,17.8103087 M97.291726,17.7992217 C97.278411,17.7999609 97.2673151,17.8029174 97.2554795,17.8058739 C97.2650959,17.8036565 97.2739726,17.8007 97.2843288,17.7992217 C97.2170137,17.8088304 97.1504384,17.8132652 97.0816438,17.828787 C96.4661918,17.9692217 96.0068219,18.2781783 95.6909589,18.6285261 C95.3736164,18.9818304 95.0792055,19.4733522 95.0296438,20.1400478 C94.9268219,21.5591783 95.7183288,22.4653522 96.6814521,22.8504391 C98.5115342,23.5807 100.119699,22.3012652 100.315726,20.7291348 C100.400795,20.0535696 100.216603,19.3868739 99.846,18.8717 C99.3585205,18.1931783 98.4449589,17.6218304 97.291726,17.7992217" id="Fill-38" fill="#FFFFFF"></path>
            <path d="M91.0837233,18.2983565 C90.7205178,19.0345304 89.9955863,19.6147478 89.2935863,19.9998348 C88.8031479,20.2696174 88.2527918,20.5120522 87.6580521,20.6953565 C87.0677507,20.8771826 86.4056959,21.0693565 85.7118329,20.9910087 C85.9677781,20.8106609 86.2836411,20.7929217 86.5639973,20.7130957 C88.2416959,20.2363565 89.880189,19.4587913 90.7182986,18.1246609 C90.8655041,17.8925739 90.9986548,17.6013565 91.2057781,17.3951391 L91.2398055,17.3951391 C91.3537233,17.7218348 91.2109562,18.0404 91.0837233,18.2983565 M83.2078603,17.9509652 C82.7359151,18.1601391 82.1004904,18.5334 81.8356685,18.9244 C81.7624356,19.0293565 81.7113945,19.2895304 81.5915589,19.2895304 C81.5116685,19.2895304 81.4406548,19.1468783 81.4354767,19.0448783 C81.4132849,18.646487 81.8837507,18.289487 82.1478329,18.1069217 C82.4881068,17.8726174 82.9023534,17.6464435 83.2944082,17.6028348 C83.4297781,17.5887913 83.6250658,17.5836174 83.7301068,17.6730522 C83.6250658,17.8570957 83.3846548,17.8726174 83.2078603,17.9509652 M90.5570384,16.6900087 C90.5651753,16.708487 90.5747918,16.7277043 90.5814493,16.7454435 C90.5747918,16.7277043 90.5651753,16.708487 90.5570384,16.6900087 M82.8779425,11.9056174 C82.7965726,12.0682261 82.7706822,12.3313565 82.5998055,12.3749652 C82.3623534,12.0482696 82.5842712,11.6779652 82.7381342,11.4200087 C83.2152575,10.6291391 84.0622438,10.0991826 84.8951753,9.69931304 C86.0646822,9.13757391 87.4050658,8.65713913 88.9104082,8.55366087 C89.0953397,8.54035652 89.294326,8.51818261 89.4659425,8.57066087 C89.3446274,8.69631304 89.1552575,8.69557391 88.9976959,8.72735652 C87.8015589,8.96387826 86.6749562,9.2854 85.6593123,9.7347913 C84.5563808,10.2218783 83.3890932,10.889313 82.8779425,11.9056174 M93.8821068,15.3625304 C92.8169014,13.6817478 89.8321068,13.8066609 87.4842164,13.3306609 C86.7792575,13.1865304 85.784326,12.9588783 85.8331479,12.1657913 C85.8516411,11.8649652 86.0513671,11.6454435 86.3021342,11.4687913 C86.4552575,11.3623565 86.6261342,11.2744 86.7896137,11.1938348 C87.3865726,10.8996609 88.2084082,10.6320957 88.8933945,10.9329217 C89.3764356,11.1457913 89.7218877,11.4917043 90.2670658,11.6979217 C90.7863534,11.892313 91.4432301,11.8102696 91.9699151,11.6624435 C92.2850384,11.574487 92.5742712,11.4643565 92.8575863,11.3320522 C93.3561616,11.0992261 94.0293123,10.7621826 94.108463,10.1346609 C94.1750384,9.60618261 93.5159425,9.13387826 93.2222712,8.91805217 C92.4026548,8.31787826 91.3951479,7.93057391 90.1279973,7.87513913 C89.4947918,7.8477913 88.8120247,7.99487826 88.2838603,8.10131304 C86.7615041,8.4110087 85.3493671,8.92396522 84.164326,9.62983478 C83.6420795,9.94174783 83.0399425,10.3527043 82.5998055,10.8804435 C82.2114493,11.3490522 81.7609562,12.1214435 81.9392301,12.9832696 C81.9473671,13.0231826 81.9621616,13.0579217 81.9739973,13.0963565 C81.9739973,13.099313 81.974737,13.1015304 81.9754767,13.1037478 C82.0257781,13.2833565 82.1056685,13.4385739 82.207011,13.5760522 C82.2129288,13.5841826 82.2195863,13.592313 82.2255041,13.6011826 C82.5014219,13.9685304 82.9238055,14.2220522 83.3639425,14.4075739 C84.0296959,14.6862261 84.8626274,14.8621391 85.6252849,15.0151391 C86.194874,15.1304435 86.842874,15.2220957 87.4797781,15.3337043 C87.4997507,15.3366609 87.5167644,15.3388783 87.5345178,15.3440522 C87.6003534,15.3558783 87.6647096,15.3669652 87.728326,15.3780522 L87.728326,15.3795304 C87.7335041,15.3795304 87.7357233,15.3795304 87.7386822,15.3817478 C87.7593945,15.3817478 87.7749288,15.3861826 87.790463,15.3906174 C87.8037781,15.3906174 87.8156137,15.394313 87.8267096,15.3972696 C87.9302712,15.4157478 88.0323534,15.4386609 88.1344356,15.4593565 C88.138874,15.4593565 88.1433123,15.4615739 88.1455315,15.4630522 C88.3156685,15.4992696 88.4821068,15.535487 88.6433671,15.5805739 C88.6552027,15.5827913 88.6670384,15.5857478 88.678874,15.5894435 C89.2536411,15.7417043 89.767011,15.943487 90.1442712,16.2317478 C90.5422438,16.5347913 90.7589836,17.0906174 90.5274493,17.6900522 C90.3706274,18.1010087 90.0969288,18.4506174 89.7536959,18.7499652 C89.7426,18.7595739 89.7315041,18.7699217 89.7204082,18.7795304 C89.7137507,18.7847043 89.7115315,18.7876609 89.7056137,18.7935739 C89.659011,18.8327478 89.6087096,18.8726609 89.5576685,18.9118348 C89.5229014,18.9362261 89.4903534,18.9613565 89.4570658,18.986487 C88.9614493,19.343487 88.3667096,19.6206609 87.7623534,19.8446174 C86.9079699,20.1624435 85.2857507,20.6066609 84.3211479,20.1395304 C84.0918329,20.0279217 83.935011,19.8815739 83.8684356,19.6701826 C83.7611753,19.3287043 83.886189,19.0012696 84.0252575,18.8364435 C84.2205452,18.607313 84.604463,18.5215739 84.9817233,18.420313 C85.3375315,18.3249652 85.7081342,18.1564435 85.6770658,17.7417913 C85.654874,17.422487 85.3316137,17.3123565 85.1037781,17.2214435 C84.6399699,17.0381391 84.1828192,16.9856609 83.7486,17.031487 C83.6946,17.0292696 83.6450384,17.031487 83.6073123,17.0455304 C83.6050932,17.0455304 83.6050932,17.0455304 83.6050932,17.048487 C83.2818329,17.0935739 82.9733671,17.1911391 82.6863534,17.3256609 C82.0361342,17.6287043 81.3370932,18.1305739 81.0352849,18.6642261 C80.7209014,19.2178348 80.9339425,19.8904435 81.1906274,20.4004435 C81.704737,21.4226609 82.5724356,22.1048783 83.7301068,22.4500522 C85.4817781,22.9704 87.6010932,22.5165739 88.9799425,22.0501826 C90.4172301,21.5660522 91.8426822,20.8069652 92.8220795,19.7751391 C93.2918055,19.2821391 93.7652301,18.6760522 94.0219151,17.9162261 C94.2911753,17.1194435 94.3436959,16.0861391 93.8821068,15.3625304" id="Fill-40" fill="#FFFFFF"></path>
            <path d="M65.5580712,11.9706609 C65.5580712,11.9706609 65.5580712,11.9714 65.5573315,11.9714 C65.5580712,11.9714 65.5580712,11.9706609 65.5580712,11.9706609" id="Fill-42" fill="#FFFFFF"></path>
            <path d="M75.0369205,15.0498783 C74.8556877,15.110487 74.5671945,15.1518783 74.4451397,15.0321391 C74.5006192,14.8081826 74.7565644,14.736487 74.9156055,14.6500087 C75.4511671,14.3661826 75.9356877,14.0143565 76.4105918,13.6425739 C76.8936329,13.2656174 77.3322904,12.8923565 77.6969753,12.4097043 C77.8582356,12.1931391 77.9817699,11.9277913 78.2022082,11.7489217 C78.4633315,11.7200957 78.240674,12.2892261 78.2022082,12.3749652 C77.9536603,12.912313 77.4269753,13.3506174 77.0186466,13.6950522 C76.5873863,14.0601826 76.0680986,14.4208783 75.5584274,14.736487 C75.3816329,14.8473565 75.2004,14.9944435 75.0369205,15.0498783 M74.5671945,10.5167913 C75.2817699,10.5670522 76.1709205,10.5936609 76.8277973,10.7991391 C76.8551671,10.8072696 76.8832767,10.8176174 76.9113863,10.826487 C77.0045918,10.8590087 77.0896603,10.8930087 77.1710301,10.9358783 C77.1998795,10.9506609 77.2302082,10.9654435 77.2590575,10.9817043 C77.3781534,11.0511826 77.4787562,11.132487 77.5586466,11.2278348 C77.9603178,11.7141826 77.3966466,12.2411826 77.0541534,12.5834 C76.2478521,13.3890522 75.2033589,14.1060087 74.1684822,14.6160087 C74.3016329,13.2471391 74.436263,11.8841826 74.5671945,10.5167913 M64.0312767,9.56035652 C63.4247014,9.67492174 62.5917699,9.78357391 62.2588932,10.1516609 C62.161989,10.2588348 62.0687836,10.6786609 61.9104822,10.6720087 C61.7262904,10.6646174 61.7699342,10.3445739 61.8069205,10.2196609 C62.0170027,9.50713913 63.012674,9.51009565 63.8241534,9.38666087 C65.509989,9.13018261 67.3829753,8.92396522 69.160537,8.83083478 C69.1908658,8.82566087 69.1938247,8.84413913 69.1953041,8.86631304 C67.5827014,9.07105217 65.6705096,9.25213913 64.0312767,9.56035652 M64.3582356,18.8231391 C64.3523178,18.7972696 64.3464,18.7684435 64.3419616,18.7381391 L64.3419616,18.731487 C64.3456603,18.7647478 64.3508384,18.7957913 64.3582356,18.8231391 M64.330126,18.5703565 C64.330126,18.5829217 64.3308658,18.5940087 64.3308658,18.607313 C64.3308658,18.5940087 64.330126,18.5829217 64.330126,18.5703565 M62.0502904,14.1466609 C61.9023452,14.2974435 61.7980438,14.6411391 61.5983178,14.3203565 C61.5753863,13.988487 61.8402082,13.8110957 62.032537,13.6595739 C62.3054959,13.4474435 62.5488658,13.2382696 62.7626466,12.9655304 C62.8699068,12.8287913 62.9416603,12.6780087 63.1450849,12.6344 C63.4705644,13.4334 62.4342082,13.7571391 62.0502904,14.1466609 M66.4664548,19.3922696 C67.1262904,19.2865739 67.8512219,19.1764435 68.604263,19.2185739 C68.1256603,19.3863565 67.6004548,19.4321826 67.0745096,19.5319652 C66.8207836,19.5785304 66.5611397,19.6206609 66.3103726,19.6871826 C65.9671397,19.7780957 65.6631123,19.9407043 65.2666192,19.8438783 C65.4988932,19.5548783 66.0004274,19.4661826 66.4664548,19.3922696 M80.9465918,12.3587043 C80.9399342,12.3690522 80.932537,12.3794 80.9251397,12.3897478 C80.932537,12.3794 80.9399342,12.3690522 80.9465918,12.3587043 M81.1574137,12.0246174 C81.1551945,12.0290522 81.1537151,12.0320087 81.1529753,12.0349652 C81.1537151,12.0320087 81.1551945,12.0290522 81.1574137,12.0246174 M76.7752767,16.2657478 C78.2673041,15.110487 79.8799068,13.9914435 80.9303178,12.4274435 C81.1152493,12.1539652 81.2787288,11.8590522 81.3970849,11.5323565 C81.4407288,11.4148348 81.4784548,11.297313 81.5043452,11.1753565 C81.5161808,11.1287913 81.5302356,11.0851826 81.5391123,11.0371391 C81.6441534,10.4406609 81.472537,9.91218261 81.1226466,9.52561739 C80.5108932,8.84931304 79.4708384,8.4864 78.3745644,8.25726957 C76.7124,7.90987826 74.7166192,7.80492174 72.8303178,7.97935652 C72.5240712,8.00892174 72.2163452,8.02222609 71.9086192,8.03331304 L71.8930849,8.03331304 C71.8457425,8.0347913 71.7991397,8.03553043 71.7532767,8.03774783 C71.7466192,8.03774783 71.7414411,8.03774783 71.7377425,8.03922609 C71.4618247,8.04587826 71.1873863,8.05326957 70.9166466,8.06731304 C68.3327836,8.1877913 65.9493863,8.45757391 63.7013589,8.86631304 C63.1251123,8.9697913 62.410537,9.0570087 61.9807562,9.30018261 C61.7396055,9.43544348 61.5384,9.74957391 61.4067288,10.0134435 C61.3793589,10.0674 61.3542082,10.1206174 61.3334959,10.1738348 C61.3275781,10.1900957 61.3194411,10.2056174 61.3157425,10.2196609 C61.3024274,10.2521826 61.2905918,10.2847043 61.2824548,10.3172261 C61.2610027,10.3822696 61.2462082,10.4465739 61.2328932,10.5101391 C61.1922082,10.7178348 61.1922082,10.9129652 61.2291945,11.0940522 C61.230674,11.1044 61.230674,11.1140087 61.2328932,11.1243565 C61.238811,11.1517043 61.2447288,11.178313 61.2513863,11.2019652 C61.2580438,11.229313 61.2661808,11.2544435 61.2750575,11.2795739 C61.292811,11.3283565 61.3120438,11.3741826 61.3334959,11.4207478 C61.5561534,11.8767913 62.0354959,12.1924 62.6243178,12.271487 C62.5629205,12.4814 62.5473863,12.7364 62.4845096,12.9477913 C62.3543178,13.0246609 62.210811,13.1007913 62.0650849,13.1820957 C62.0613863,13.1828348 62.0584274,13.184313 62.0554685,13.1850522 C62.0140438,13.2087043 61.9733589,13.2301391 61.932674,13.2545304 C61.5273041,13.4866174 61.1367288,13.7660087 61.0420438,14.2161391 C60.9318247,14.7335304 61.2447288,15.2694 61.4585096,15.5177478 C61.4984548,15.5650522 61.5931397,15.6345304 61.6878247,15.7106609 C61.6893041,15.7121391 61.6915233,15.7136174 61.6937425,15.7136174 C61.762537,15.7816174 61.8357699,15.8451826 61.9075233,15.9020957 C61.9104822,15.904313 61.9104822,15.904313 61.9127014,15.9050522 C61.9400712,15.9368348 61.9585644,15.9641826 61.9630027,15.9885739 C61.9874137,16.0950087 61.9023452,16.3307913 61.8764548,16.5089217 C61.7336877,17.4845739 61.6190301,18.3434435 61.5110301,19.270313 C61.4503726,19.797313 61.3253589,20.3280087 61.4585096,20.7470957 C61.6471397,21.3332261 62.0917151,21.7441826 62.6065644,22.1366609 C63.1221534,22.5291391 63.6554959,22.8654435 64.2746466,23.0236174 C64.7510301,23.1440957 65.1822904,22.9393565 65.5795233,22.7797043 C65.8694959,22.6636609 66.1594685,22.5291391 66.3961808,22.415313 C67.4754411,21.905313 68.4481808,21.3871826 69.4734411,20.7648348 C69.9010027,20.5061391 70.6496055,20.1631826 70.6910301,19.6184435 C70.710263,19.360487 70.5527014,19.1114 70.4476603,18.9924 C70.2878795,18.8150087 69.9616603,18.5829217 69.6990575,18.5245304 C69.3432493,18.4447043 68.7943726,18.5289652 68.3608932,18.5755304 C67.5213041,18.6694 66.7593863,18.7861826 66.0130027,18.9761391 C65.6194685,19.0751826 65.2422082,19.2917478 64.8841808,19.236313 C64.662263,19.202313 64.4225918,18.9554435 64.3804274,18.8024435 C64.3227288,18.5977043 64.3700712,18.3330957 64.3804274,18.1076609 C64.4159342,17.3411826 64.4884274,16.8045739 64.5882904,16.1105304 C65.6527562,15.909487 66.7771397,15.6345304 67.8046192,15.3632696 C68.5073589,15.1770087 69.8277699,14.8695304 69.2988658,13.886487 C68.7610849,12.8812696 66.6580438,13.1148348 65.2488658,13.0697478 C65.3509479,12.7009217 65.442674,12.3239652 65.5580712,11.9714 C65.4005096,12.2648348 65.3672219,12.6854 65.2311123,12.9995304 C65.3672219,12.6854 65.4005096,12.2640957 65.5580712,11.9714 L65.5580712,11.9699217 C65.5602904,11.9662261 65.5617699,11.9610522 65.563989,11.9566174 C67.3674411,11.6225304 69.1620164,11.280313 70.9521534,10.9329217 C70.8937151,14.0402261 70.9595507,17.4187913 71.2643178,20.3479652 C71.3168384,20.8431826 71.3982082,21.2570957 71.4729205,21.7722696 C71.5343178,22.1847043 71.5831397,22.9090522 71.8893863,22.9888783 C72.1016877,23.0420957 72.3398795,22.8765304 72.4989205,22.7619652 C72.686811,22.6274435 72.8658247,22.4944 72.9864,22.3635739 C73.8215507,21.4404 73.6166466,19.389313 73.8370849,17.8652261 C74.128537,18.0367043 74.3548932,18.3035304 74.6204548,18.5245304 C75.4430301,19.207487 76.2759616,19.8372261 77.1229479,20.4869217 C77.9344274,21.1092696 78.7126192,21.8683565 79.5921534,22.466313 C79.8651123,22.653313 80.2231397,22.9866609 80.5648932,22.9888783 C80.9096055,22.9903565 81.2003178,22.7190957 81.2787288,22.381313 C81.4555233,21.6118783 80.9976329,20.8350522 80.6529205,20.3834435 C79.5026466,18.8719217 77.7613315,17.7684 76.7752767,16.2657478" id="Fill-44" fill="#FFFFFF"></path>
            <path d="M25.2452219,14.9282174 C24.9116055,15.277087 24.1223178,15.3369565 23.5771397,15.2933478 C23.7598521,15.0923043 24.0416877,15.0996957 24.2717425,14.9976957 C24.5017973,14.8949565 24.6637973,14.7212609 24.8280164,14.563087 C24.9589479,14.438913 25.4834137,13.8306087 25.4893315,14.4063913 C25.4900712,14.6052174 25.3347288,14.8343478 25.2452219,14.9282174 M24.307989,12.1173043 C24.3183452,12.1003043 24.3294411,12.087 24.3434959,12.0707391 C24.5210301,12.846087 24.7229753,13.6857391 24.8797973,14.4241304 C24.2295781,14.5253913 23.5445918,14.5948696 22.9150849,14.7190435 C23.3078795,13.8468696 23.8101534,12.9406957 24.307989,12.1173043 M21.2292493,14.1284783 C20.4939616,15.8358696 19.8296877,17.583913 19.2297699,19.4443043 C19.1313863,19.7525217 19.0352219,20.065913 18.9516329,20.383 C18.8732219,20.683087 18.8465918,21.0260435 18.6387288,21.2869565 C18.5359068,20.5862609 18.7607836,19.9003478 18.9516329,19.2706087 C19.5123452,17.4264783 20.1958521,15.6732609 20.9163452,13.9555217 C21.7396603,11.9968261 22.6214137,9.99969565 23.5771397,8.1016087 C23.7287836,7.80078261 23.870811,7.49995652 24.0631397,7.2856087 C24.0771945,7.28265217 24.0808932,7.29152174 24.0808932,7.3026087 C24.1888932,7.99295652 23.754674,8.55469565 23.4891123,9.09130435 C22.6850301,10.7188696 21.9719342,12.4107391 21.2292493,14.1284783 M23.9233315,6.08673913 C23.9455233,5.88791304 24.1511671,5.75117391 24.2894959,5.91304348 C24.4714685,6.12517391 24.1888932,6.38756522 24.1149205,6.5546087 C24.0157973,6.46517391 23.9040986,6.2826087 23.9233315,6.08673913 M28.9135233,20.1043478 C28.568811,17.691087 28.1982082,15.4500435 27.7832219,13.1557826 C27.5191397,11.6841739 27.2269479,10.081 26.8792767,8.69143478 C26.5404822,7.3343913 25.8636329,5.99508696 24.7407288,5.44369565 C24.6223726,5.38382609 24.4825644,5.32469565 24.3412767,5.304 C23.2967836,5.15026087 23.3330301,6.55830435 23.4713589,7.45856522 C22.2197425,9.74543478 21.1353041,12.3050435 20.0649205,14.9282174 C19.5537699,16.1803043 19.0448384,17.4937391 18.5869479,18.8892174 C18.376126,19.5322609 18.130537,20.275087 18.0129205,21.0253043 C17.8953041,21.7806957 17.8649753,23.0194783 18.5004,23.1273913 C18.8029479,23.1798696 19.0899616,22.9633043 19.2652767,22.7977391 C19.8400438,22.2522609 20.082674,21.329087 20.3600712,20.5736957 C20.7624822,19.482 21.2018795,18.450913 21.6634685,17.4641739 C22.8070849,17.2003043 24.2658247,17.1581739 25.5751397,17.1167826 C25.9827288,18.615 25.9886466,20.6091739 26.9310575,21.5123913 C27.1396603,21.7112174 27.4976877,21.8996957 27.8187288,22.0852174 C28.0709753,22.230087 28.5710301,22.5449565 28.8787562,22.3638696 C29.1132493,22.2256522 29.1184274,21.7622174 29.0696055,21.2869565 C29.0311397,20.8922609 28.9630849,20.4413913 28.9135233,20.1043478" id="Fill-46" fill="#FFFFFF"></path>
            <g id="Group-50" transform="translate(0.000000, 0.549396)">
              <mask id="mask-4" fill="white">
                <use xlink:href="#path-3"></use>
              </mask>
              <g id="Clip-49"></g>
              <path d="M8.53776986,6.24949565 C8.43050959,7.09062609 8.21155068,7.82606087 8.05103014,8.62875652 C7.99111233,8.93771304 7.97409863,9.2621913 7.8254137,9.53197391 C7.77733151,8.37449565 8.02292055,7.37888696 8.25963288,6.49193043 C8.32546849,6.25023478 8.29292055,5.94571304 8.50374247,5.78014783 C8.64207123,5.90284348 8.55626301,6.10684348 8.53776986,6.24949565 M7.30390685,13.0761043 C7.17371507,13.1648 6.99618082,13.2061913 6.7994137,13.2668 C6.60708493,13.3281478 6.43916712,13.4759739 6.3134137,13.4759739 C6.19209863,13.4759739 6.08927671,13.3865391 6.08705753,13.3022783 C6.08113973,13.0982783 6.39108493,13.0620609 6.55604384,12.988887 C7.05831781,12.7693652 7.34829041,12.2224087 7.68560548,11.8417565 C7.79286575,12.3694957 7.64713973,12.8462348 7.30390685,13.0761043 M13.6152493,13.1965826 C15.0532767,12.8551043 16.3685096,12.2541913 17.125989,11.2341913 C17.4292767,10.8276696 17.6216055,10.3258 17.8908658,9.79288696 C17.8953041,9.7744087 17.9256329,9.7818 17.9256329,9.7574087 C17.9404274,9.75593043 17.9433863,9.7648 17.9433863,9.77514783 C17.9581808,9.77958261 17.9604,9.79288696 17.9781534,9.79288696 C17.9663178,11.1824522 17.1030575,12.1041478 16.1872767,12.6244957 C15.2537425,13.1551913 14.0243178,13.4205391 12.7275781,13.4227565 C13.008674,13.2815826 13.324537,13.2668 13.6152493,13.1965826 M16.7013863,11.2467565 C16.7257973,11.2245826 16.747989,11.2001913 16.7664822,11.1721043 C16.7931123,11.1395826 16.8241808,11.1129739 16.8478521,11.0782348 C16.7908932,11.1588 16.7213589,11.2245826 16.6577425,11.2992348 C16.6717973,11.2822348 16.6873315,11.2644957 16.7013863,11.2467565 M4.24366027,1.09036522 C3.84568767,1.15614783 3.46176986,1.24188696 3.07933151,1.33353913 C2.28264658,1.52275652 1.59100274,1.80806087 0.975550685,2.06306087 C0.922290411,2.08449565 0.68779726,2.09336522 0.661906849,1.95884348 C0.631578082,1.80066957 0.934865753,1.69349565 1.07911233,1.62845217 C2.2493589,1.1044087 3.81979726,0.800626087 5.46124932,0.880452174 C5.06845479,1.01497391 4.64533151,1.02310435 4.24366027,1.09036522 M18.8998521,13.4050174 C19.8888658,12.5173217 20.5205918,11.2593217 20.6552219,9.68793043 C20.8039068,7.96427826 20.0338521,6.68484348 19.1957425,5.69293043 C18.3694685,4.7158 17.304263,3.89462609 16.2050301,3.20871304 C15.0858247,2.5131913 13.8497425,1.92262609 12.5019616,1.43775652 C10.5734959,0.742234783 8.23374247,0.0829304348 5.54779726,0.204147826 C4.70894795,0.241843478 3.86566027,0.304669565 3.1133589,0.5168 C2.21976986,0.77106087 1.29807123,0.979495652 0.557605479,1.42001739 C0.337167123,1.55232174 0.0205643836,1.76001739 0.00133150685,2.01132174 C-0.0216,2.33949565 0.209934247,2.52797391 0.400783562,2.67727826 L0.401523288,2.67727826 C0.413358904,2.68762609 0.424454795,2.69649565 0.435550685,2.70536522 C0.8424,3.02688696 1.41272877,3.34397391 2.05333151,3.36614783 C2.40618082,3.37649565 2.76864658,3.33510435 3.04382466,3.20871304 C3.39001644,3.05053913 3.58234521,2.68614783 3.89598904,2.53093043 C4.19261918,2.38532174 4.60760548,2.35353913 5.05070137,2.37053913 C5.5374411,2.38975652 6.05894795,2.46588696 6.50352329,2.51466957 C8.77300274,2.76153913 10.6496877,3.35949565 12.3451397,4.16514783 C13.1403452,4.54136522 13.9525644,5.01662609 14.6922904,5.57393043 C14.7115233,5.58945217 14.7314959,5.60423478 14.7514685,5.61975652 C14.9896603,5.80306087 15.2219342,5.99227826 15.4408932,6.19258261 C15.4438521,6.19627826 15.4482904,6.19997391 15.4512493,6.20293043 C15.5562904,6.29827826 15.6576329,6.39732174 15.7582356,6.49636522 C16.0511671,6.79201739 16.3196877,7.1031913 16.5519616,7.43062609 C16.8877973,7.89923478 17.2635781,8.52232174 17.3175781,9.16758261 C17.350126,9.55562609 17.3153589,9.90227826 17.2295507,10.2141913 C17.1725918,10.3915826 17.1030575,10.5593652 17.0320438,10.7182783 C17.0313041,10.7212348 17.0290849,10.722713 17.0268658,10.7256696 C16.6133589,11.5113652 15.8211123,12.0102783 14.9696877,12.3118435 C13.5930575,12.7996696 11.8443452,12.8491913 9.99798904,12.7464522 C9.9114411,11.3184522 9.80418082,9.9761913 9.63330411,8.57775652 C9.51494795,7.59914783 9.37070137,6.55771304 9.12955068,5.6751913 C9.12215342,5.64858261 9.11475616,5.62123478 9.10661918,5.59093043 C9.09552329,5.55471304 9.0844274,5.51406087 9.07111233,5.47414783 C8.9964,5.22875652 8.88470137,4.97893043 8.67683836,4.98114783 C8.42311233,4.98558261 8.25889315,5.39949565 8.15533151,5.60645217 C7.26692055,7.41658261 7.04648219,9.93036522 6.99100274,12.5202783 C6.35113973,12.524713 5.74012603,12.648887 5.56481096,13.1448435 C5.31404384,13.8618 6.06634521,14.5004087 6.50352329,14.7790609 C6.59598904,14.8374522 6.75872877,14.8943652 6.87782466,14.9564522 C6.90297534,14.9690174 6.92516712,14.9808435 6.9444,14.9941478 C6.98360548,15.0200174 7.01171507,15.045887 7.02576986,15.0739739 C7.05757808,15.1464087 7.03834521,15.3614957 7.04278356,15.5263217 C7.09604384,17.2839739 7.24472877,18.8938 7.42522192,20.4932783 C7.49105753,21.0742348 7.52508493,21.6921478 7.66785205,22.1954957 C7.76623562,22.5340174 7.97409863,22.8821478 8.32916712,22.9257565 C8.93648219,22.9989304 9.43727671,22.1614957 9.66807123,21.8141043 C10.0039068,21.3092783 10.2273041,20.7785826 10.2591123,20.0601478 C10.2938795,19.2892348 10.1895781,18.5375391 10.1895781,17.782887 C10.1895781,17.0260174 10.1377973,16.2713652 10.1377973,15.4908435 C13.8615781,15.7155391 16.9928384,15.1190609 18.8998521,13.4050174" id="Fill-48" fill="#FFFFFF" mask="url(#mask-4)"></path>
            </g>
            <path d="M16.7668521,11.7212783 C16.7483589,11.7493652 16.7254274,11.7744957 16.7010164,11.7966696 C16.6877014,11.8136696 16.6721671,11.8306696 16.6573726,11.8469304 C16.720989,11.7744957 16.7905233,11.7079739 16.8482219,11.6281478 C16.8245507,11.6621478 16.7920027,11.6880174 16.7668521,11.7212783" id="Fill-51" fill="#FFFFFF"></path>
            <path d="M50.6624301,8.0840913 C49.5165945,8.51722174 48.4543479,9.31474348 46.872074,9.21348261 C47.2471151,9.01243913 47.657663,8.96143913 48.0378822,8.83135217 C49.107526,8.46548261 50.1542384,7.71083043 51.3925397,7.58074348 C51.5478822,7.56374348 51.7564849,7.5327 51.8792795,7.63248261 C51.5071973,7.87935217 51.0663205,7.93183043 50.6624301,8.0840913 M36.8406493,11.975613 C36.5928411,12.4944826 36.0868685,12.9120913 35.6585671,13.2602217 C35.3693342,13.4989609 35.0579096,13.7450913 34.7205945,13.9734826 C34.389937,14.1959609 34.0444849,14.4834826 33.7116082,14.6150478 C33.5237178,14.6897 33.2226493,14.7458739 33.0680466,14.5980478 C33.1686493,14.3851783 33.4009233,14.3075696 33.5725397,14.2159174 C34.4609507,13.7443522 35.3493616,13.0525261 36.0417452,12.3230043 C36.1734164,12.1855261 36.3221014,12.0273522 36.441937,11.8536565 C36.5832247,11.6467 36.666074,11.4138739 36.8761562,11.3148304 C36.8909507,11.312613 36.8939096,11.3214826 36.8939096,11.3325696 C37.035937,11.5358304 36.9264575,11.7989609 36.8406493,11.975613 M33.1901014,10.0989609 C34.0688959,10.1218739 34.9928137,10.195787 35.6415534,10.4640913 C35.8242658,10.5387435 36.0506219,10.6459174 36.1948685,10.8129609 C36.2022658,10.8181348 36.2067041,10.824787 36.209663,10.8314391 C36.2629233,10.904613 36.3028685,10.9837 36.3272795,11.0679609 C36.3398548,11.1219174 36.3442932,11.1825261 36.3368959,11.2453522 C36.3021288,11.5971783 35.9085945,11.9689609 35.6763205,12.2010478 C34.8899918,12.9889609 33.7670877,13.6933522 32.8254164,14.1989174 C32.8971699,12.8514826 33.1050329,11.4892652 33.1901014,10.0989609 M30.1305945,8.48396087 C29.6327589,8.58374348 29.0898,8.68426522 28.7569233,8.88383043 C28.6437452,8.94961304 28.3397178,9.36500435 28.2361562,9.02278696 C28.1777178,8.82913478 28.3641288,8.65396087 28.4965397,8.58817826 C28.8064849,8.43148261 29.2281288,8.39600435 29.7141288,8.32652609 C30.393937,8.2297 30.9746219,8.16983043 31.6425945,8.20604783 C31.1928411,8.34943913 30.6439644,8.38048261 30.1305945,8.48396087 M53.3579918,8.22378696 C53.4341836,8.05674348 53.5088959,7.83352609 53.4785671,7.61474348 C53.343937,6.60804783 51.6225945,6.95913478 50.8717726,7.19713478 C49.3952795,7.66722174 48.3182384,8.55343913 46.4385945,8.55343913 C45.1085671,8.55343913 44.1032795,8.29843913 43.1519918,7.97987391 C42.4448137,7.74187391 41.7346767,7.47874348 41.0659644,7.18087391 C40.9039644,7.10843913 40.7434438,7.02713478 40.5777452,6.96948261 C40.5725671,6.96652609 40.5666493,6.9643087 40.5599918,6.96356957 C40.5289233,6.95322174 40.4971151,6.94287391 40.4660466,6.93326522 C40.4401562,6.92513478 40.4150055,6.91996087 40.3913342,6.91552609 C40.205663,6.87635217 40.0103753,6.88152609 39.7973342,6.9717 C39.3431425,7.1683087 39.033937,7.5740913 39.0058274,8.20087391 L39.0058274,8.1957 C39.0058274,8.1957 38.9518274,8.41300435 38.9614438,8.53126522 C38.8756356,8.43739565 38.6322658,8.34722174 38.4576904,8.27478696 C36.4182658,7.43365652 33.1531151,7.29100435 30.5300466,7.65022174 C29.659389,7.76922174 28.2206219,7.98874348 27.8359644,8.55343913 C27.5570877,8.96587391 27.6880192,9.91787391 28.0615808,10.0989609 C28.4588137,10.2903957 29.0764849,10.0834391 29.6098274,10.1861783 C29.4907315,13.3888304 29.6179644,16.8073087 29.8879644,19.8103957 C29.9301288,20.2893522 30.037389,20.7845696 30.1135808,21.2517 C30.1919918,21.738787 30.1520466,22.3020043 30.4960192,22.554787 C30.7512247,22.6190913 30.9761014,22.4609174 31.1395808,22.3463522 C31.320074,22.2177435 31.4776356,22.0699174 31.6085671,21.9280043 C32.4844027,20.9922652 32.2402932,18.9766565 32.4777452,17.4296565 C33.5311151,18.3528304 34.6229507,19.1806565 35.7636082,20.0705696 C36.5691699,20.6988304 37.3614164,21.4423957 38.232074,22.0499609 C38.4954164,22.2354826 38.8771151,22.5732652 39.2062932,22.5710478 C39.7448137,22.5695696 39.9778274,22.0300043 39.9364027,21.4778739 C39.881663,20.7594391 39.4999644,20.2191348 39.1190055,19.7571783 C37.9731699,18.3646565 36.3679644,17.267787 35.415937,15.8486565 C36.8391699,14.7791348 38.3504301,13.6445696 39.4319096,12.1655696 C39.8483753,11.5949609 40.2737178,10.9275261 40.1967863,10.0294826 C40.9298548,10.4611348 41.8264027,10.7294391 42.7865671,10.9334391 C42.4329781,13.3873522 41.8922384,16.1243522 41.8478548,18.9581783 C41.8338,19.9582217 41.871526,20.8947 42.1785123,21.6330913 C42.4374164,22.2524826 42.9537452,22.9191783 43.7955534,22.9191783 C44.3777178,22.9191783 44.841526,22.5481348 44.9081014,22.0499609 C44.9406493,21.8119609 44.9081014,21.5480913 44.9258548,21.3027 C45.1152247,18.6898739 45.4088959,16.1531783 45.8120466,13.7813087 C45.9629507,12.8980478 46.1582384,12.0399174 46.2640192,11.159613 C48.5971151,11.108613 50.7659918,10.5025261 52.2269507,9.45591739 C52.6707863,9.13956957 53.1338548,8.70939565 53.3579918,8.22378696" id="Fill-53" fill="#FFFFFF"></path>
            <path d="M58.6769918,9.38658696 C58.6200329,9.63493478 58.6148548,9.88623913 58.468389,10.0296304 C58.3958959,9.7155 58.3478137,8.53880435 58.6947452,8.53658696 C58.8241973,8.53436957 58.8774575,8.66223913 58.8863342,8.72654348 C58.9100055,8.9068913 58.733211,9.15154348 58.6769918,9.38658696 M58.0164164,16.1614565 C57.8847452,16.6891957 57.7678685,17.2812391 57.4778959,17.5162826 C57.4031836,17.5776304 57.0710466,17.7431957 56.9208822,17.7077174 C56.7551836,17.6670652 56.7766356,17.4216739 56.8691014,17.3248478 L56.8868548,17.2568478 C57.8884438,16.6707174 57.9261699,15.1215 58.3293205,13.937413 C58.3271014,14.7186739 58.2124438,15.3831522 58.0164164,16.1614565 M50.7671014,12.1317174 C50.2936767,12.5138478 50.0554849,13.1524565 49.8454027,13.8169348 C49.4222795,15.1540217 48.9984164,16.4349348 48.6285534,17.7949348 C48.4414027,18.4852826 48.324526,19.1918913 48.1247708,19.8792826 C48.1203616,18.158587 48.6226356,16.7668043 49.080526,15.2405 C49.2876493,14.5516304 49.5243616,13.8117609 49.7411014,13.0859348 C49.9511836,12.3859783 50.3669096,11.7118913 51.0452384,11.5928913 C51.0874027,11.5855 51.2937863,11.5758913 51.3063616,11.7148478 C51.3211562,11.8715435 50.8802795,12.0400652 50.7671014,12.1317174 M59.4426082,8.20545652 C59.2591562,8.08054348 58.6747726,7.83145652 58.4343616,8.01402174 C58.3455945,8.08054348 58.2427726,8.21506522 58.1909918,8.30967391 C57.5814575,9.42280435 57.8470192,11.3504565 57.7382795,12.9831957 C57.6273205,14.6846739 57.334389,16.1104565 56.8513479,17.2568478 C55.7417589,16.0313696 54.5863068,14.8073696 53.5307178,13.5035435 C53.0883616,12.9543696 52.7895123,12.4288478 52.4359233,11.766587 C52.4196493,11.7377609 52.4041151,11.7074565 52.3863616,11.6749348 C52.2384164,11.3970217 52.0460877,11.0592391 51.7923616,10.9853261 C51.5334575,10.9084565 51.2656767,11.0215435 51.0274849,11.1080217 C50.8092658,11.1863696 50.5806904,11.2543696 50.4186904,11.3504565 C50.2041699,11.477587 50.044389,11.698587 49.8801699,11.9062826 C49.7181699,12.1132391 49.5221425,12.3401522 49.428937,12.5478478 C49.2684164,12.9092826 49.1922247,13.3535 49.0635123,13.7644565 C48.432526,15.7918913 47.7031562,17.6862826 47.4287178,20.0877174 C47.3162795,21.082587 47.3281151,22.2245435 47.7068548,22.8838478 C47.9620603,23.3243696 48.6071014,23.712413 49.3068822,23.6133696 C50.3336219,23.4699783 50.3180877,22.153587 50.4889644,21.1816304 C50.8521699,19.1157609 51.2064986,17.3795435 51.8278685,15.6233696 C52.7000055,17.0750217 53.6298411,18.4187609 54.5389644,19.7580652 C54.9776219,20.4011087 55.3963068,21.1239783 55.8948822,21.8246739 C56.1419507,22.1668913 56.3912384,22.4669783 56.7130192,22.7278913 C57.0118685,22.9703261 57.4734575,23.2312391 57.998663,23.1632391 C58.5578959,23.0878478 58.9314575,22.3058478 59.1289644,21.7544565 C59.7614301,20.0108478 60.0070192,18.0462391 60.2770192,16.0055 C60.4545534,14.6669348 60.5551562,13.2588913 60.5551562,11.6963696 C60.5551562,10.2558043 60.2740603,8.77163043 59.4426082,8.20545652" id="Fill-55" fill="#FFFFFF"></path>
          </g>
        </g>
      </g>
    </g>
  </g>
</svg>
