<?xml version="1.0" encoding="UTF-8"?>
<svg xmlns="http://www.w3.org/2000/svg" xmlns:xlink="http://www.w3.org/1999/xlink" width="402px" height="81px" viewBox="0 0 402 81">
  <!-- Generator: Sketch 50.2 (55047) - http://www.bohemiancoding.com/sketch -->
  <title>KonyDBX_ConsumerLending_RGB_white</title>
  <desc>Created with Sketch.</desc>
  <defs>
    <linearGradient x1="67.4584746%" y1="18.3315678%" x2="22.317161%" y2="110.884746%" id="linearGradient-1">
      <stop stop-color="#5E4F88" offset="0%"></stop>
      <stop stop-color="#64568D" offset="38.03%"></stop>
      <stop stop-color="#5B4D86" offset="55.8%"></stop>
      <stop stop-color="#443375" offset="85.29%"></stop>
      <stop stop-color="#36246A" offset="100%"></stop>
    </linearGradient>
    <linearGradient x1="82.8208122%" y1="-13.438342%" x2="9.24010152%" y2="82.6927461%" id="linearGradient-2">
      <stop stop-color="#5E4F88" offset="16.28%"></stop>
      <stop stop-color="#64568D" offset="59.34%"></stop>
      <stop stop-color="#5B4D86" offset="71%"></stop>
      <stop stop-color="#443375" offset="90.35%"></stop>
      <stop stop-color="#36246A" offset="100%"></stop>
    </linearGradient>
  </defs>
  <g id="Design" stroke="none" stroke-width="1" fill="none" fill-rule="evenodd">
    <g id="loans" transform="translate(-217.000000, -123.000000)" fill-rule="nonzero">
      <g id="KonyDBX_ConsumerLending_RGB_white" transform="translate(217.000000, 123.000000)">
        <g id="Group">
          <g fill="#FFFFFF" id="Shape">
            <path d="M6.11172161,40.7333333 L0.258241758,40.7333333 L0.258241758,0.433333333 L6.11172161,0.433333333 L6.11172161,40.7333333 Z M6.36996337,26.52 L17.3882784,14.4733333 L24.532967,14.4733333 L13.0842491,26.3466667 L24.7912088,40.7333333 L17.8186813,40.7333333 L6.36996337,26.52 Z"></path>
            <path d="M38.2197802,13.8666667 C46.0531136,13.8666667 51.7344322,19.4133333 51.7344322,27.6466667 C51.7344322,35.7933333 46.0531136,41.34 38.2197802,41.34 C30.4725275,41.34 24.7912088,35.7933333 24.7912088,27.6466667 C24.7912088,19.4133333 30.4725275,13.8666667 38.2197802,13.8666667 M38.2197802,18.8933333 C33.8296703,18.8933333 30.6446886,22.2733333 30.6446886,27.6466667 C30.6446886,32.9333333 33.8296703,36.3133333 38.2197802,36.3133333 C42.6959707,36.3133333 45.7948718,32.9333333 45.7948718,27.6466667 C45.7948718,22.2733333 42.6959707,18.8933333 38.2197802,18.8933333"></path>
            <path d="M56.6410256,16.12 C60.3424908,14.7333333 64.8186813,13.8666667 68.6062271,13.8666667 C75.2344322,13.8666667 79.5384615,16.38 79.5384615,23.8333333 L79.5384615,40.7333333 L73.7710623,40.7333333 L73.7710623,24.3533333 C73.7710623,20.54 71.4468864,19.24 68.1758242,19.24 C66.1098901,19.24 64.043956,19.5 62.4945055,20.02 L62.4945055,40.7333333 L56.6410256,40.7333333 C56.6410256,40.7333333 56.6410256,16.12 56.6410256,16.12 Z"></path>
            <polygon points="95.2051282 35.1866667 102.435897 14.4733333 108.461538 14.4733333 94.3443223 51.3933333 88.6630037 51.3933333 92.2783883 41.9466667 81.518315 14.4733333 87.7161172 14.4733333"></polygon>
          </g>
          <path d="M157.269231,5.80666667 C153.051282,2.16666667 146.681319,0.26 138.331502,0.26 C136.265568,0.26 134.027473,0.433333333 131.703297,0.693333333 L131.358974,0.693333333 L131.358974,40.6466667 L131.703297,40.6466667 C134.285714,40.9933333 136.52381,41.1666667 139.278388,41.1666667 C154.342491,41.1666667 162.950549,33.4533333 162.950549,19.9333333 C163.03663,13.9533333 161.142857,9.1 157.269231,5.80666667 Z M160.10989,20.02 C160.10989,31.98 152.70696,38.5666667 139.364469,38.5666667 C137.728938,38.5666667 136.179487,38.48 134.371795,38.3066667 L134.371795,3.12 C136.007326,3.03333333 137.126374,2.94666667 138.331502,2.94666667 C145.562271,2.94666667 151.071429,4.50666667 154.772894,7.54 C158.302198,10.4 160.10989,14.6466667 160.10989,20.02 Z" id="Shape" fill="#FFFFFF"></path>
          <path d="M179.736264,20.1933333 C184.298535,18.8933333 187.053114,15.2533333 187.053114,10.5733333 C187.053114,3.64 182.318681,0.173333333 173.021978,0.173333333 C171.386447,0.173333333 168.97619,0.346666667 166.307692,0.606666667 L165.96337,0.606666667 L165.96337,40.4733333 L166.221612,40.56 C168.459707,40.9933333 171.042125,41.2533333 173.28022,41.2533333 C178.272894,41.2533333 182.14652,40.2133333 184.728938,38.22 C187.225275,36.3133333 188.516484,33.4533333 188.516484,29.9 C188.516484,24.8733333 185.159341,21.2333333 179.736264,20.1933333 Z M172.763736,19.0666667 L168.89011,19.0666667 L168.89011,3.03333333 C170.43956,2.94666667 171.730769,2.86 173.021978,2.86 C180.338828,2.86 184.040293,5.46 184.040293,10.5733333 C184.040293,16.0333333 179.908425,19.0666667 172.763736,19.0666667 Z M168.89011,21.84 L172.849817,21.84 C178.617216,21.84 185.503663,23.2266667 185.503663,29.9866667 C185.503663,35.88 181.630037,38.5666667 173.28022,38.5666667 C171.81685,38.5666667 170.267399,38.48 168.89011,38.22 L168.89011,21.84 Z" id="Shape" fill="#FFFFFF"></path>
          <polygon id="Shape" fill="#FFFFFF" points="205.388278 19.5866667 191.959707 0.26 188.430403 0.26 201.858974 19.5866667 186.794872 41.2533333 190.324176 41.2533333"></polygon>
          <polygon id="Shape" fill="url(#linearGradient-1)" points="206.076923 0.26 195.575092 0.26 209.003663 19.5 193.93956 41.1666667 204.441392 41.1666667 214.254579 27.1266667 215.97619 29.64 215.97619 29.64 223.981685 41.1666667 234.569597 41.1666667"></polygon>
          <polygon id="Shape" fill="url(#linearGradient-2)" points="232.934066 0.26 222.346154 0.26 215.97619 9.44666667 221.227106 16.9866667"></polygon>
        </g>
        <g id="Group" transform="translate(132.000000, 48.000000)" fill="#FFFFFF">
          <path d="M17.6273885,7.29473684 C15.9936306,5.73157895 13.843949,4.95 11.4363057,4.95 C6.44904459,4.95 2.32165605,8.68421053 2.32165605,14.4157895 C2.32165605,20.2342105 6.36305732,23.8815789 11.4363057,23.8815789 C13.7579618,23.8815789 16.0796178,23.1868421 17.7133758,21.6236842 L17.7133758,24.3157895 C15.9936306,25.3578947 13.6719745,25.9657895 11.4363057,25.9657895 C4.72929936,25.9657895 0,21.2763158 0,14.4157895 C0,7.46842105 5.07324841,2.86578947 11.4363057,2.86578947 C13.6719745,2.86578947 15.7356688,3.47368421 17.5414013,4.60263158 L17.6273885,7.29473684 Z" id="Shape"></path>
          <path d="M29.3216561,8.85789474 C34.2229299,8.85789474 37.4904459,12.3315789 37.4904459,17.4552632 C37.4904459,22.5789474 34.1369427,26.0526316 29.3216561,26.0526316 C24.4203822,26.0526316 21.1528662,22.5789474 21.1528662,17.4552632 C21.1528662,12.3315789 24.5063694,8.85789474 29.3216561,8.85789474 Z M29.3216561,10.7684211 C25.8821656,10.7684211 23.388535,13.3736842 23.388535,17.4552632 C23.388535,21.45 25.8821656,24.1421053 29.3216561,24.1421053 C32.7611465,24.1421053 35.2547771,21.5368421 35.2547771,17.4552632 C35.2547771,13.4605263 32.7611465,10.7684211 29.3216561,10.7684211 Z" id="Shape"></path>
          <path d="M41.8757962,10.0736842 C44.0254777,9.29210526 46.5191083,8.85789474 48.7547771,8.85789474 C52.8821656,8.85789474 55.3757962,10.5078947 55.3757962,14.5894737 L55.3757962,25.7052632 L53.1401274,25.7052632 L53.1401274,15.0236842 C53.1401274,11.6368421 50.8184713,10.9421053 48.5828025,10.9421053 C46.8630573,10.9421053 45.3152866,11.2026316 44.1974522,11.55 L44.1974522,25.7052632 L41.9617834,25.7052632 L41.8757962,10.0736842 Z" id="Shape"></path>
          <path d="M59.8471338,22.1447368 C61.2229299,23.3605263 62.6847134,24.1421053 64.4044586,24.1421053 C66.4681529,24.1421053 67.7579618,23.3605263 67.7579618,21.5368421 C67.7579618,19.5394737 66.2961783,19.0184211 63.7165605,18.15 C60.8789809,17.1947368 59.589172,15.9789474 59.589172,13.2868421 C59.589172,10.4210526 61.7388535,8.85789474 64.7484076,8.85789474 C66.3821656,8.85789474 67.9299363,9.20526316 69.2197452,10.0736842 L69.2197452,12.5052632 C67.9299363,11.4631579 66.6401274,10.7684211 64.7484076,10.7684211 C62.9426752,10.7684211 61.8248408,11.7236842 61.8248408,13.2868421 C61.8248408,14.7631579 62.6847134,15.6315789 65.2643312,16.4131579 C68.1019108,17.2815789 69.9936306,18.4105263 69.9936306,21.3631579 C69.9936306,24.5763158 67.5,26.0526316 64.4044586,26.0526316 C62.5987261,26.0526316 60.7929936,25.5315789 59.8471338,24.75 L59.8471338,22.1447368 Z" id="Shape"></path>
          <path d="M87.1910828,25.4447368 C85.2133758,25.7921053 83.1496815,26.0526316 81.5159236,26.0526316 C76.7866242,26.0526316 74.1210191,24.4026316 74.1210191,20.3210526 L74.1210191,9.20526316 L76.3566879,9.20526316 L76.3566879,20.2342105 C76.3566879,23.3605263 78.7643312,24.1421053 81.343949,24.1421053 C82.4617834,24.1421053 83.7515924,24.0552632 84.955414,23.8815789 L84.955414,9.20526316 L87.1910828,9.20526316 L87.1910828,25.4447368 Z" id="Shape"></path>
          <path d="M113.503185,14.6763158 C113.503185,11.6368421 111.43949,10.9421053 109.719745,10.9421053 C107.742038,10.9421053 105.936306,11.4631579 104.904459,11.8973684 C105.16242,12.5921053 105.420382,13.5473684 105.420382,14.5894737 L105.420382,25.7052632 L103.184713,25.7052632 L103.184713,14.6763158 C103.184713,11.6368421 101.207006,10.9421053 99.3152866,10.9421053 C97.5095541,10.9421053 96.0477707,11.2894737 95.0159236,11.7236842 L95.0159236,25.7921053 L92.7802548,25.7921053 L92.7802548,10.2473684 C94.9299363,9.37894737 97.1656051,8.77105263 99.3152866,8.77105263 C101.207006,8.77105263 102.66879,9.20526316 103.700637,10.0736842 C105.678344,9.29210526 107.742038,8.77105263 109.719745,8.77105263 C113.675159,8.77105263 115.738854,10.4210526 115.738854,14.5026316 L115.738854,25.6184211 L113.503185,25.6184211 L113.503185,14.6763158 Z" id="Shape"></path>
          <path d="M122.187898,17.5421053 C122.187898,21.6236842 125.025478,24.0552632 128.207006,24.0552632 C130.528662,24.0552632 132.16242,23.4473684 133.796178,22.2315789 L133.796178,24.4894737 C132.334395,25.6184211 130.270701,26.0526316 128.207006,26.0526316 C123.477707,26.0526316 119.866242,22.8394737 119.866242,17.4552632 C119.866242,12.5052632 123.219745,8.85789474 127.605096,8.85789474 C131.732484,8.85789474 134.484076,11.3763158 134.484076,16.0657895 L134.484076,17.6289474 L122.187898,17.6289474 L122.187898,17.5421053 Z M132.334395,15.6315789 C132.16242,12.1578947 130.356688,10.7684211 127.605096,10.7684211 C125.025478,10.7684211 123.047771,12.5052632 122.359873,15.6315789 L132.334395,15.6315789 Z" id="Shape"></path>
          <path d="M141.105096,25.7052632 L138.869427,25.7052632 L138.869427,10.6815789 C140.589172,9.55263158 142.652866,8.94473684 144.888535,8.94473684 C145.748408,8.94473684 146.694268,9.03157895 147.640127,9.29210526 L147.640127,11.55 C146.694268,11.2026316 145.490446,11.1157895 144.802548,11.1157895 C143.16879,11.1157895 141.964968,11.4631579 141.105096,11.9842105 L141.105096,25.7052632 Z" id="Shape"></path>
          <polygon id="Shape" points="158.646497 3.21315789 160.968153 3.21315789 160.968153 23.6210526 170.512739 23.6210526 170.512739 25.6184211 158.646497 25.6184211"></polygon>
          <path d="M174.726115,17.5421053 C174.726115,21.6236842 177.563694,24.0552632 180.745223,24.0552632 C183.066879,24.0552632 184.700637,23.4473684 186.334395,22.2315789 L186.334395,24.4894737 C184.872611,25.6184211 182.808917,26.0526316 180.745223,26.0526316 C176.015924,26.0526316 172.404459,22.8394737 172.404459,17.4552632 C172.404459,12.5052632 175.757962,8.85789474 180.143312,8.85789474 C184.270701,8.85789474 187.022293,11.3763158 187.022293,16.0657895 L187.022293,17.6289474 L174.726115,17.6289474 L174.726115,17.5421053 Z M184.786624,15.6315789 C184.61465,12.1578947 182.808917,10.7684211 180.057325,10.7684211 C177.477707,10.7684211 175.5,12.5052632 174.812102,15.6315789 L184.786624,15.6315789 Z" id="Shape"></path>
          <path d="M191.321656,10.0736842 C193.471338,9.29210526 195.964968,8.85789474 198.200637,8.85789474 C202.328025,8.85789474 204.821656,10.5078947 204.821656,14.5894737 L204.821656,25.7052632 L202.585987,25.7052632 L202.585987,15.0236842 C202.585987,11.6368421 200.264331,10.9421053 198.028662,10.9421053 C196.308917,10.9421053 194.761146,11.2026316 193.643312,11.55 L193.643312,25.7052632 L191.407643,25.7052632 L191.407643,10.0736842 L191.321656,10.0736842 Z" id="Shape"></path>
          <path d="M223.738854,25.4447368 C222.019108,25.8789474 220.127389,26.0526316 218.407643,26.0526316 C212.732484,26.0526316 208.949045,22.9263158 208.949045,17.4552632 C208.949045,11.8973684 213.076433,8.85789474 217.89172,8.85789474 C219.095541,8.85789474 220.643312,9.11842105 221.417197,9.63947368 L221.417197,0 L223.652866,0 L223.652866,25.4447368 L223.738854,25.4447368 Z M221.503185,11.6368421 C220.643312,11.2026316 219.43949,10.8552632 217.977707,10.8552632 C214.194268,10.8552632 211.270701,13.2 211.270701,17.4552632 C211.270701,21.6236842 214.10828,24.0552632 218.407643,24.0552632 C219.43949,24.0552632 220.471338,24.0552632 221.503185,23.8815789 L221.503185,11.6368421 Z" id="Shape"></path>
          <path d="M228.812102,4.08157895 C228.812102,3.12631579 229.585987,2.34473684 230.531847,2.34473684 C231.477707,2.34473684 232.251592,3.12631579 232.251592,4.08157895 C232.251592,4.95 231.477707,5.81842105 230.531847,5.81842105 C229.585987,5.81842105 228.812102,4.95 228.812102,4.08157895 Z M231.649682,25.7052632 L229.414013,25.7052632 L229.414013,9.20526316 L231.649682,9.20526316 L231.649682,25.7052632 Z" id="Shape"></path>
          <path d="M237.238854,10.0736842 C239.388535,9.29210526 241.882166,8.85789474 244.117834,8.85789474 C248.245223,8.85789474 250.738854,10.5078947 250.738854,14.5894737 L250.738854,25.7052632 L248.503185,25.7052632 L248.503185,15.0236842 C248.503185,11.6368421 246.181529,10.9421053 243.94586,10.9421053 C242.226115,10.9421053 240.678344,11.2026316 239.56051,11.55 L239.56051,25.7052632 L237.324841,25.7052632 L237.324841,10.0736842 L237.238854,10.0736842 Z" id="Shape"></path>
          <path d="M267.334395,25.0973684 C266.732484,25.4447368 265.270701,25.7921053 263.980892,25.7921053 C258.649682,25.7921053 254.866242,22.9263158 254.866242,17.3684211 C254.866242,12.0710526 258.563694,8.85789474 264.238854,8.85789474 C265.958599,8.85789474 268.194268,9.29210526 269.570064,9.9 L269.570064,25.8789474 C269.570064,30.9157895 265.872611,32.8263158 262.089172,32.8263158 C260.111465,32.8263158 258.219745,32.3921053 257.015924,31.7842105 L257.015924,29.6131579 C258.477707,30.3078947 260.283439,30.8289474 262.089172,30.8289474 C264.754777,30.8289474 267.334395,29.5263158 267.334395,25.3578947 L267.334395,25.0973684 Z M267.334395,11.3763158 C266.474522,11.1157895 265.442675,10.8552632 264.238854,10.8552632 C259.681529,10.8552632 257.101911,13.2868421 257.101911,17.2815789 C257.101911,21.2763158 259.681529,23.7078947 263.980892,23.7078947 C265.356688,23.7078947 266.216561,23.4473684 267.334395,23.1 L267.334395,11.3763158 Z" id="Shape"></path>
        </g>
      </g>
    </g>
  </g>
</svg>
