<?xml version="1.0" encoding="UTF-8"?>
<svg xmlns="http://www.w3.org/2000/svg" xmlns:xlink="http://www.w3.org/1999/xlink" width="208px" height="61px" viewBox="0 0 208 61">
  <!-- Generator: Sketch 50.2 (55047) - http://www.bohemiancoding.com/sketch -->
  <title>DBS-logo</title>
  <desc>Created with Sketch.</desc>
  <defs></defs>
  <g id="Design" stroke="none" stroke-width="1" fill="none" fill-rule="evenodd">
    <g id="Artboard" transform="translate(-618.000000, -685.000000)" fill-rule="nonzero">
      <g id="DBS-logo" transform="translate(618.000000, 685.000000)">
        <path d="M203.968731,3.73510174 L204.486525,3.73510174 L204.659124,13.3228001 L204.098179,13.3228001 C203.148889,9.43589535 199.394879,5.76492977 191.886857,5.37623929 C183.0412,4.90117316 179.15774,10.2132763 179.15774,15.2230646 C179.114591,21.8739905 184.292536,23.2560011 191.973156,25.1130778 C195.597718,26.0200222 209.017228,27.7475355 207.938489,42.8200883 C207.161797,53.3579189 198.100392,58.3677072 185.241827,57.9790168 C185.241827,57.9790168 179.891282,57.8062654 172.42641,55.7332496 C171.045625,55.3445591 170.700428,55.8196252 170.096335,56.8561332 L169.492241,56.8561332 L169.492241,46.4910539 L170.096335,46.4910539 C170.398382,47.5275618 170.441531,49.4710142 172.340111,51.1553395 C174.238692,52.8396649 176.957113,55.3877469 184.076789,55.4741226 C191.196464,55.5604983 196.849055,52.6237258 197.625747,44.8067285 C197.841495,42.6905248 197.582598,37.8534878 192.879297,35.6509084 C189.211585,33.9233952 178.985142,32.8005116 174.022944,28.4385407 C174.022944,28.4385407 168.154605,24.3356969 169.103895,16.6914509 C170.398382,5.89449326 179.416637,3.17365994 187.528753,3.00090862 C187.528753,3.00090862 194.777877,2.91453296 200.516767,4.42610702 C201.381503,4.65352225 202.292066,4.63858175 203.148889,4.38291919 C203.47977,4.25219308 203.764895,4.0268942 203.968731,3.73510174" id="Shape" fill="#000000"></path>
        <path d="M153.186992,29.1408748 C153.967809,28.706903 164.508832,24.7143624 163.597879,15.1235854 C162.513412,3.14596351 149.456424,4.01390712 145.118555,4.01390712 L121.563923,4.01390712 L121.563923,4.57807047 C124.036509,4.88185074 125.207733,6.22716334 125.164355,10.697073 L124.947461,51.8376003 C124.947461,55.830141 123.255692,57.0886592 121,57.3924395 L121,58 L152.189282,58 C156.26688,58 166.374116,56.6546874 166.981417,44.6770655 C167.154932,41.9864403 166.374116,32.4390605 153.143613,29.184272 M156.613909,44.7638599 C156.440394,52.965927 151.712116,54.9621973 148.93588,55.5697579 C146.159643,56.1773184 141.60488,56.090524 138.221342,55.9169353 C134.837804,55.7433466 135.141455,54.398034 135.098076,53.0961186 C135.098076,53.0961186 135.098076,47.5412794 135.228212,40.3373474 C135.445106,27.1012073 135.835514,8.26683084 135.835514,8.00644775 C135.835514,6.14036898 136.269301,6.01017744 137.96107,5.96678026 L141.865153,5.96678026 C144.814904,6.01017744 152.839963,6.22716334 153.317128,16.8594726 C153.794294,27.4917819 142.385697,29.0540804 139.522703,29.1408748 C139.392567,29.1408748 139.349188,29.6182438 139.522703,29.6182438 C148.328578,30.0956128 156.830803,33.1768126 156.613909,44.7638599" id="Shape" fill="#000000"></path>
        <path d="M94.8034789,4.00018281 L69.305625,4.00018281 L69.305625,4.56448959 C71.1393747,4.86834708 72.6674995,6.08377705 72.8421424,7.99373843 C73.4097316,14.0708883 73.6280351,51.0112777 72.7111602,55.0482415 C72.4055353,56.0900386 70.6154462,57.0884275 69,57.392285 L69,58 L97.5541036,58 C108.818566,58 120.956243,47.6688453 120.999904,30.913275 C121.043565,11.6400283 106.155263,3.9567746 94.8471396,4.00018281 M100.042764,54.5273429 C96.0259788,55.959814 91.6162472,56.3938961 86.2896407,55.8729976 C83.3643732,55.5691401 83.2770518,53.919628 83.2333911,53.2250966 C82.9277661,48.1463356 83.0150875,12.9422747 83.3207125,8.38441234 C83.4953553,5.95355241 83.9756231,6.04036883 86.24598,6.08377705 C88.5163368,6.12718526 90.8740151,6.2574099 90.8740151,6.2574099 C104.277853,7.21239059 109.298834,17.5001371 110.303031,30.6094175 C111.307227,43.7186979 105.063745,52.7476062 99.9991033,54.5273429" id="Shape" fill="#000000"></path>
        <path d="M56.43357,30.4781915 C56.43357,26.4654278 56.5643275,22.888834 59.5717499,16.5643694 C60.4434666,14.7324555 62.3176573,12.0282017 59.5281641,8.93139486 C57.8320106,7.08963319 55.0635013,6.72268101 52.9467035,8.05905492 C54.2533728,5.92682268 53.8698865,3.16740217 52.031401,1.47288833 C48.9368069,-1.31859949 46.2344853,0.556931389 44.4038804,1.42927133 C38.1275206,4.39522715 34.5534824,4.56969514 30.5,4.56969514 C26.4465176,4.56969514 22.9160652,4.39522715 16.5961196,1.42927133 C14.7655147,0.556931389 12.0631931,-1.31859949 8.96859902,1.47288833 C6.70213575,3.74097219 7.09440824,6.31437503 8.05329654,8.05905492 C5.93649873,6.72268101 3.1679894,7.08963319 1.47183592,8.93139486 C-1.31765732,12.0282017 0.556533449,14.7324555 1.42825009,16.5643694 C4.39208666,22.845217 4.56642999,26.4654278 4.56642999,30.4781915 C4.56642999,34.4909552 4.39208666,38.067549 1.42825009,44.3920136 C0.556533449,46.2239275 -1.31765732,48.8845643 1.47183592,52.0249881 C3.16513899,53.8647882 5.92258783,54.2485487 8.05329654,52.9409451 C6.74662722,55.0731773 7.13011349,57.8325978 8.96859902,59.5271117 C12.0631931,62.3185995 14.7655147,60.4430686 16.5961196,59.5707287 C22.8724794,56.6047729 26.4465176,56.4303049 30.5,56.4303049 C34.5534824,56.4303049 38.0839348,56.6047729 44.4038804,59.5707287 C46.2344853,60.4430686 48.9368069,62.3185995 52.031401,59.5271117 C53.8698865,57.8325978 54.2533728,55.0731773 52.9467035,52.9409451 C55.0774122,54.2485487 57.834861,53.8647882 59.5281641,52.0249881 C62.3176573,48.9281813 60.4434666,46.2239275 59.5717499,44.3920136 C56.6079133,38.067549 56.43357,34.4909552 56.43357,30.4781915 Z M49.5470086,49.5388193 L34.7714115,37.1515921 C34.7714115,37.1515921 32.7664633,35.1888272 30.5435858,35.1888272 C28.3207084,35.1888272 26.2721743,37.1515921 26.2721743,37.1515921 L11.4965773,49.5824363 L11.4529914,49.5824363 L23.8313677,34.7962742 C23.8313677,34.7962742 25.7927301,32.7898924 25.7927301,30.5218085 C25.7927301,28.2537246 23.8313677,26.2909598 23.8313677,26.2909598 L11.4529914,11.4611807 L11.4965773,11.4611807 L26.2721743,23.8047909 C26.2721743,23.8047909 28.2771226,25.7675558 30.5435858,25.7675558 C32.8100491,25.7675558 34.7714115,23.8047909 34.7714115,23.8047909 L49.5034227,11.4175637 L49.5470086,11.4175637 L37.1686323,26.2473428 C37.1686323,26.2473428 35.2072699,28.2537246 35.2072699,30.4781915 C35.2072699,32.7026584 37.1686323,34.7526572 37.1686323,34.7526572 L49.5470086,49.4952023 L49.5470086,49.5388193 Z" id="Shape" fill="#ED1C24"></path>
        <path d="M49.9131429,50 L35.2342857,37.6228571 C35.2342857,37.6228571 33.2365714,35.6685714 30.9782857,35.6685714 C28.72,35.6685714 26.7222857,37.6228571 26.7222857,37.6228571 L12.0434286,50 L12,50 L24.3337143,35.2777143 C24.3337143,35.2777143 26.288,33.28 26.288,31.0217143 C26.288,28.7634286 24.3337143,26.7657143 24.3337143,26.7657143 L12,12.0434286 L12.0434286,12.0434286 L26.7657143,24.3337143 C26.7657143,24.3337143 28.7634286,26.288 31.0217143,26.288 C33.28,26.288 35.2777143,24.3337143 35.2777143,24.3337143 L49.9565714,12 L50,12 L37.6228571,26.7657143 C37.6228571,26.7657143 35.6685714,28.7634286 35.6685714,31.0217143 C35.6685714,33.28 37.6228571,35.2777143 37.6228571,35.2777143 L49.9565714,50 L49.9131429,50" id="Shape" fill="#FFFFFF"></path>
      </g>
    </g>
  </g>
</svg>
