<?xml version="1.0" encoding="UTF-8"?>
<svg xmlns="http://www.w3.org/2000/svg" viewBox="0 0 500 500">
  <title>Artboard 1</title>
  <path d="M481.2,188.5h1.2l.4,22.2h-1.3c-2.2-9-10.9-17.5-28.3-18.4-20.5-1.1-29.5,11.2-29.5,22.8-.1,15.4,11.9,18.6,29.7,22.9,8.4,2.1,39.5,6.1,37,41-1.8,24.4-22.8,36-52.6,35.1,0,0-12.4-.4-29.7-5.2-3.2-.9-4,.2-5.4,2.6h-1.4V287.5h1.4c.7,2.4.8,6.9,5.2,10.8s10.7,9.8,27.2,10,29.6-6.6,31.4-24.7c.5-4.9-.1-16.1-11-21.2-8.5-4-32.2-6.6-43.7-16.7,0,0-13.6-9.5-11.4-27.2,3-25,23.9-31.3,42.7-31.7,0,0,16.8-.2,30.1,3.3a11.3,11.3,0,0,0,6.1-.1,4.2,4.2,0,0,0,1.9-1.5"></path>
  <path d="M363.9,246.1c1.8-1,26.1-10.2,24-32.3-2.5-27.6-32.6-25.6-42.6-25.6H291v1.3c5.7.7,8.4,3.8,8.3,14.1l-.5,94.8c0,9.2-3.9,12.1-9.1,12.8v1.4h71.9c9.4,0,32.7-3.1,34.1-30.7.4-6.2-1.4-28.2-31.9-35.7m8,35.9c-.4,18.9-11.3,23.5-17.7,24.9s-16.9,1.2-24.7.8-7.1-3.5-7.2-6.5c0,0,0-12.8.3-29.4.5-30.5,1.4-73.9,1.4-74.5,0-4.3,1-4.6,4.9-4.7h9c6.8.1,25.3.6,26.4,25.1s-25.2,28.1-31.8,28.3c-.3,0-.4,1.1,0,1.1,20.3,1.1,39.9,8.2,39.4,34.9"></path>
  <path d="M228.6,188.1H170.2v1.3c4.2.7,7.7,3.5,8.1,7.9,1.3,14,1.8,99.1-.3,108.4-.7,2.4-4.8,4.7-8.5,5.4v1.4h65.4c25.8,0,53.6-23.8,53.7-62.4.1-44.4-34-62.1-59.9-62m11.9,116.4c-9.2,3.3-19.3,4.3-31.5,3.1-6.7-.7-6.9-4.5-7-6.1-.7-11.7-.5-92.8.2-103.3.4-5.6,1.5-5.4,6.7-5.3s10.6.4,10.6.4c30.7,2.2,42.2,25.9,44.5,56.1s-12,51-23.6,55.1"></path>
  <path d="M140.4,250.3c0-9.2.3-17.4,7.2-31.9,2-4.2,6.3-10.4-.1-17.5a11.9,11.9,0,0,0-15.1-2,12,12,0,0,0-2.1-15.1c-7.1-6.4-13.3-2.1-17.5-.1-14.4,6.8-22.6,7.2-31.9,7.2s-17.4-.4-31.9-7.2c-4.2-2-10.4-6.3-17.5.1-5.2,5.2-4.3,11.1-2.1,15.1a11.9,11.9,0,0,0-15.1,2c-6.4,7.1-2.1,13.3-.1,17.5,6.8,14.4,7.2,22.7,7.2,31.9s-.4,17.4-7.2,31.9c-2,4.2-6.3,10.3.1,17.5a12,12,0,0,0,15.1,2.1,12,12,0,0,0,2.1,15.1c7.1,6.4,13.3,2.1,17.5.1,14.4-6.8,22.6-7.2,31.9-7.2s17.4.4,31.9,7.2c4.2,2,10.4,6.3,17.5-.1a12,12,0,0,0,2.1-15.1,12,12,0,0,0,15.1-2.1c6.4-7.1,2.1-13.3.1-17.5-6.8-14.5-7.2-22.7-7.2-31.9m-15.8,43.7L90.7,265.6s-4.6-4.5-9.7-4.5-9.8,4.5-9.8,4.5L37.3,294.1h-.1l28.4-33.9s4.5-4.6,4.5-9.8-4.5-9.7-4.5-9.7L37.2,206.7h.1L71.2,235s4.6,4.5,9.8,4.5,9.7-4.5,9.7-4.5l33.8-28.4h.1L96.2,240.6s-4.5,4.6-4.5,9.7,4.5,9.8,4.5,9.8l28.4,33.8Z" style="fill:#ed1c24"></path>
  <path d="M124.5,294.1,90.7,265.6s-4.6-4.5-9.8-4.5-9.8,4.5-9.8,4.5L37.3,294.1h-.1l28.4-33.9s4.5-4.6,4.5-9.8-4.5-9.8-4.5-9.8L37.2,206.7h.1L71.2,235s4.6,4.5,9.8,4.5,9.8-4.5,9.8-4.5l33.8-28.4h.1L96.2,240.6s-4.5,4.6-4.5,9.8,4.5,9.8,4.5,9.8l28.4,33.9h-.1" style="fill:#fff"></path>
</svg>
