<?xml version="1.0" encoding="UTF-8"?>
<svg xmlns="http://www.w3.org/2000/svg" xmlns:xlink="http://www.w3.org/1999/xlink" width="151px" height="44px" viewBox="0 0 151 44">
  <!-- Generator: Sketch 50.2 (55047) - http://www.bohemiancoding.com/sketch -->
  <title>DBS-logo</title>
  <desc>Created with Sketch.</desc>
  <defs></defs>
  <g id="Design" stroke="none" stroke-width="1" fill="none" fill-rule="evenodd">
    <g id="dropdown_menu" transform="translate(-962.000000, -1089.000000)" fill-rule="nonzero">
      <g id="DBS-logo" transform="translate(962.000000, 1089.000000)">
        <path d="M148.073454,2.69417175 L148.449352,2.69417175 L148.574653,9.6098886 L148.167428,9.6098886 C147.47828,6.8062196 144.753013,4.15831 139.302478,3.87794309 C132.880871,3.53527244 130.061629,7.3669534 130.061629,10.9805712 C130.030304,15.7779604 133.789293,16.7748205 139.365128,18.1143512 C141.99642,18.7685406 151.738468,20.0146158 150.955345,30.8866211 C150.391497,38.4876792 143.813265,42.101297 134.478442,41.8209302 C134.478442,41.8209302 130.594152,41.6963226 125.174942,40.2010325 C124.172545,39.9206656 123.921945,40.2633362 123.483397,41.0109813 L123.044848,41.0109813 L123.044848,33.5345307 L123.483397,33.5345307 C123.702672,34.2821757 123.733996,35.6840102 125.112292,36.8989334 C126.490589,38.1138566 128.464058,39.9518174 133.632669,40.0141212 C138.801279,40.076425 142.904843,37.9580973 143.468691,32.3196074 C143.625316,30.7931654 143.437367,27.3041551 140.022951,25.7154093 C137.360333,24.4693342 129.936329,23.6593854 126.333964,20.5130458 C126.333964,20.5130458 122.073776,17.5536174 122.762924,12.0397351 C123.702672,4.25176563 130.249578,2.28919733 136.138662,2.16458982 C136.138662,2.16458982 141.401247,2.10228607 145.567461,3.19260178 C146.195226,3.356639 146.856259,3.34586225 147.47828,3.16144991 C147.718487,3.06715566 147.925477,2.904645 148.073454,2.69417175" id="Shape" fill="#000000"></path>
        <path d="M111.207864,21.0196474 C111.774707,20.7066186 119.427085,17.8267532 118.765768,10.9088157 C117.978487,2.26921958 108.499616,2.89527727 105.350489,2.89527727 L88.2507326,2.89527727 L88.2507326,3.30221477 C90.0457349,3.52133496 90.8959985,4.49172438 90.8645077,7.71592151 L90.707051,37.391056 C90.707051,40.2709214 89.4788918,41.178705 87.8413462,41.3978252 L87.8413462,41.8360656 L110.483565,41.8360656 C113.443745,41.8360656 120.781209,40.8656762 121.222086,32.22608 C121.348052,30.2853012 120.781209,23.3986666 111.176373,21.0509503 M113.695674,32.2886858 C113.569709,38.204931 110.137161,39.6448636 108.121721,40.0831041 C106.106279,40.5213444 102.799697,40.4587386 100.343378,40.3335271 C97.8870596,40.2083156 98.1074986,39.2379262 98.0760071,38.2988396 C98.0760071,38.2988396 98.0760071,34.2920704 98.1704808,29.0957916 C98.3279375,19.5484118 98.6113587,5.96295995 98.6113587,5.77514264 C98.6113587,4.42911861 98.9262714,4.33520996 100.154431,4.30390707 L102.988645,4.30390707 C105.130051,4.33520996 110.955935,4.49172438 111.302338,12.1609311 C111.648742,19.8301378 103.36654,20.9570416 101.288116,21.0196474 C101.193642,21.0196474 101.162151,21.3639791 101.288116,21.3639791 C107.680843,21.7083109 113.853131,23.9308156 113.695674,32.2886858" id="Shape" fill="#000000"></path>
        <path d="M68.8236794,2.88537776 L50.3132181,2.88537776 L50.3132181,3.29241872 C51.6444499,3.51159462 52.7538097,4.3882982 52.8805938,5.76597526 C53.2926417,10.1494932 53.4511216,36.79502 52.7855057,39.7069283 C52.5636338,40.4583885 51.264098,41.1785379 50.0913462,41.3977138 L50.0913462,41.8360656 L70.8205271,41.8360656 C78.9980936,41.8360656 87.8095803,34.3840851 87.8412765,22.2981 C87.8729727,8.39608599 77.064638,2.85406692 68.8553754,2.88537776 M72.6271989,39.3311982 C69.7111673,40.364456 66.5098718,40.6775644 62.6429603,40.3018343 C60.5193286,40.0826584 60.4559366,38.8928464 60.4242407,38.391873 C60.2023687,34.7285044 60.2657606,9.33541126 60.4876326,6.04777284 C60.6144166,4.29436567 60.9630725,4.35698735 62.6112643,4.3882982 C64.259456,4.41960904 65.9710398,4.51354157 65.9710398,4.51354157 C75.7017106,5.2023801 79.3467497,12.6230497 80.0757581,22.0789241 C80.8047658,31.5347985 76.272238,38.0474537 72.5955029,39.3311982" id="Shape" fill="#000000"></path>
        <path d="M40.9686013,21.9842693 C40.9686013,19.0898168 41.0635262,16.5099786 43.2467992,11.9480697 C43.879632,10.6266892 45.2402224,8.67607991 43.2151576,6.4423176 C41.9838154,5.11383378 39.9739841,4.84914696 38.4372703,5.81308879 C39.385862,4.27508521 39.1074657,2.28468353 37.7727959,1.06241125 C35.5262396,-0.951120943 33.5644581,0.401721002 32.2355093,1.03094981 C27.6791135,3.17032778 25.0844992,3.29617354 22.1418269,3.29617354 C19.1991546,3.29617354 16.6361819,3.17032778 12.0481445,1.03094981 C10.7191958,0.401721002 8.75741422,-0.951120943 6.51085794,1.06241125 C4.86549278,2.69840617 5.15026752,4.55463117 5.84638355,5.81308879 C4.30966975,4.84914696 2.29983846,5.11383378 1.06849627,6.4423176 C-0.956568535,8.67607991 0.404021879,10.6266892 1.03685463,11.9480697 C3.18848599,16.4785172 3.31505254,19.0898168 3.31505254,21.9842693 C3.31505254,24.8787218 3.18848599,27.4585599 1.03685463,32.0204688 C0.404021879,33.3418493 -0.956568535,35.2609972 1.06849627,37.5262209 C2.29776917,38.8532898 4.29957097,39.1301007 5.84638355,38.1869112 C4.89779188,39.7249148 5.17618816,41.7153164 6.51085794,42.9375888 C8.75741422,44.951121 10.7191958,43.598279 12.0481445,42.9690502 C16.6045403,40.8296723 19.1991546,40.7038265 22.1418269,40.7038265 C25.0844992,40.7038265 27.6474719,40.8296723 32.2355093,42.9690502 C33.5644581,43.598279 35.5262396,44.951121 37.7727959,42.9375888 C39.1074657,41.7153164 39.385862,39.7249148 38.4372703,38.1869112 C39.9840829,39.1301007 41.9858847,38.8532898 43.2151576,37.5262209 C45.2402224,35.2924586 43.879632,33.3418493 43.2467992,32.0204688 C41.0951678,27.4585599 40.9686013,24.8787218 40.9686013,21.9842693 Z M35.9692226,35.7329188 L25.2427074,26.7978697 C25.2427074,26.7978697 23.7871921,25.3821049 22.1734685,25.3821049 C20.559745,25.3821049 19.0725881,26.7978697 19.0725881,26.7978697 L8.34607294,35.7643803 L8.31443126,35.7643803 L17.3006564,25.0989519 C17.3006564,25.0989519 18.72453,23.6517257 18.72453,22.0157307 C18.72453,20.3797358 17.3006564,18.963971 17.3006564,18.963971 L8.31443126,8.26708116 L8.34607294,8.26708116 L19.0725881,17.1706688 C19.0725881,17.1706688 20.5281034,18.5864337 22.1734685,18.5864337 C23.8188337,18.5864337 25.2427074,17.1706688 25.2427074,17.1706688 L35.9375809,8.23561972 L35.9692226,8.23561972 L26.9829975,18.9325096 C26.9829975,18.9325096 25.5591238,20.3797358 25.5591238,21.9842693 C25.5591238,23.5888028 26.9829975,25.0674904 26.9829975,25.0674904 L35.9692226,35.7014574 L35.9692226,35.7329188 Z" id="Shape" fill="#ED1C24"></path>
        <path d="M36.235022,36.0655738 L25.5787363,27.1377986 C25.5787363,27.1377986 24.1284725,25.7281499 22.4890439,25.7281499 C20.8496154,25.7281499 19.3993516,27.1377986 19.3993516,27.1377986 L8.74306595,36.0655738 L8.71153846,36.0655738 L17.6653407,25.4462202 C17.6653407,25.4462202 19.0840769,24.0052459 19.0840769,22.3763185 C19.0840769,20.7473911 17.6653407,19.3064169 17.6653407,19.3064169 L8.71153846,8.68706325 L8.74306595,8.68706325 L19.4308791,17.5521874 C19.4308791,17.5521874 20.8811429,18.9618361 22.5205714,18.9618361 C24.16,18.9618361 25.6102637,17.5521874 25.6102637,17.5521874 L36.2665494,8.6557377 L36.2980769,8.6557377 L27.3127472,19.3064169 C27.3127472,19.3064169 25.894011,20.7473911 25.894011,22.3763185 C25.894011,24.0052459 27.3127472,25.4462202 27.3127472,25.4462202 L36.2665494,36.0655738 L36.235022,36.0655738" id="Shape" fill="#FFFFFF"></path>
      </g>
    </g>
  </g>
</svg>
