<?xml version="1.0" encoding="UTF-8"?>
<svg xmlns="http://www.w3.org/2000/svg" xmlns:xlink="http://www.w3.org/1999/xlink" width="188px" height="56px" viewBox="0 0 188 56">
  <!-- Generator: Sketch 50.2 (55047) - http://www.bohemiancoding.com/sketch -->
  <title>DBS-logo_grey</title>
  <desc>Created with Sketch.</desc>
  <defs></defs>
  <g id="Design" stroke="none" stroke-width="1" fill="none" fill-rule="evenodd">
    <g id="home" transform="translate(-1126.000000, -1100.000000)" fill-rule="nonzero">
      <g id="DBS-logo_grey" transform="translate(1126.000000, 1100.000000)">
        <path d="M184.356353,3.42894586 L184.824359,3.42894586 L184.980361,12.2307673 L184.473354,12.2307673 C183.615342,8.66246131 180.222295,5.29239454 173.436198,4.93556394 C165.441085,4.49943765 161.931034,9.37612251 161.931034,13.9752724 C161.892034,20.0810405 166.5721,21.3497715 173.514199,23.0546288 C176.790246,23.8872334 188.919418,25.4731474 187.944404,39.310245 C187.242393,48.984319 179.052277,53.583469 167.430113,53.2266384 C167.430113,53.2266384 162.594043,53.0680469 155.846948,51.1649504 C154.59893,50.8081198 154.286925,51.2442461 153.740918,52.1957944 L153.19491,52.1957944 L153.19491,42.6803118 L153.740918,42.6803118 C154.013922,43.63186 154.052922,45.416013 155.768946,46.9622789 C157.484972,48.5085448 159.942006,50.8477677 166.377098,50.9270634 C172.812189,51.006359 177.921262,48.3103056 178.623271,41.1340458 C178.818274,39.1913014 178.584271,34.7507429 174.33321,32.7287027 C171.018164,31.142789 161.775032,30.1119451 157.289969,26.1075128 C157.289969,26.1075128 151.985893,22.3409677 152.843905,15.3232992 C154.013922,5.41133808 162.165037,2.91352387 169.497143,2.7549325 C169.497143,2.7549325 176.049235,2.67563682 181.236308,4.06331136 C182.017897,4.272086 182.840906,4.25837013 183.615342,4.02366352 C183.914408,3.90365266 184.172116,3.69682091 184.356353,3.42894586" id="Shape" fill="#BFBFBF"></path>
        <path d="M138.457473,26.7522786 C139.163212,26.3538782 148.690675,22.688595 147.867314,13.8839472 C146.887122,2.88809765 135.085614,3.68489834 131.164848,3.68489834 L109.875084,3.68489834 L109.875084,4.2028188 C112.109922,4.48169904 113.168528,5.71674011 113.129321,9.82026374 L112.933282,47.5886166 C112.933282,51.2539 111.404183,52.409261 109.365385,52.6881411 L109.365385,53.2459016 L137.555697,53.2459016 C141.241219,53.2459016 150.376605,52.0108606 150.925512,41.0150109 C151.082342,38.5449288 150.376605,29.7801211 138.418266,26.7921186 M141.554879,41.094691 C141.398048,48.6244576 137.124413,50.4570992 134.615122,51.0148597 C132.105831,51.5726202 127.989026,51.49294 124.930828,51.33358 C121.872631,51.1742198 122.147084,49.9391787 122.107876,48.7439778 C122.107876,48.7439778 122.107876,43.6444533 122.225499,37.0310075 C122.421538,24.8797968 122.774407,7.58922176 122.774407,7.35018154 C122.774407,5.63706005 123.166484,5.51753995 124.695582,5.4776999 L128.224273,5.4776999 C130.890394,5.51753995 138.143813,5.71674011 138.575097,15.4775486 C139.006381,25.2383571 128.694765,26.6725984 126.107058,26.7522786 C125.989436,26.7522786 125.950228,27.1905189 126.107058,27.1905189 C134.066215,27.6287594 141.750918,30.4574018 141.554879,41.094691" id="Shape" fill="#BFBFBF"></path>
        <path d="M85.6877598,3.67229898 L62.6416226,3.67229898 L62.6416226,4.1903511 C64.2990502,4.46930224 65.6802399,5.5851068 65.8380902,7.33851397 C66.3511035,12.9175368 66.5484163,46.8300254 65.7197025,50.5360906 C65.4434646,51.4924944 63.8254995,52.4090482 62.3653846,52.6879994 L62.3653846,53.2459016 L88.1739013,53.2459016 C98.3552423,53.2459016 109.325835,43.7615629 109.365298,28.3794 C109.404761,10.6859276 95.9480261,3.63244882 85.7272224,3.67229898 M90.4232675,50.0578886 C86.7927116,51.372944 82.8069927,51.7714456 77.9925599,51.2932437 C75.348568,51.0142925 75.2696429,49.4999864 75.2301805,48.8623838 C74.9539424,44.1999147 75.0328675,11.8814325 75.3091056,7.69716542 C75.4669557,5.4655563 75.9010439,5.54525662 77.9530973,5.5851068 C80.0051506,5.62495696 82.136129,5.74450746 82.136129,5.74450746 C94.2511364,6.62121104 98.7893308,16.0656997 99.6969703,28.1004488 C100.604609,40.1351981 94.9614619,48.424032 90.3838048,50.0578886" id="Shape" fill="#BFBFBF"></path>
        <path d="M51.0072652,27.979979 C51.0072652,24.2961304 51.1254499,21.0127 53.843697,15.2066342 C54.6315947,13.5248772 56.3255749,11.0422835 53.8043022,8.19931331 C52.2712404,6.50851571 49.7689338,6.17164158 47.8556743,7.39847666 C49.0367023,5.44101754 48.6900897,2.90777904 47.0283817,1.35215978 C44.2313447,-1.21051757 41.7888616,0.511281275 40.1342765,1.31211794 C34.4614128,4.03496262 31.2310322,4.19512997 27.5673076,4.19512997 C23.9035832,4.19512997 20.7125975,4.03496262 15.0003389,1.31211794 C13.3457537,0.511281275 10.9032707,-1.21051757 8.10623373,1.35215978 C6.05769962,3.43433512 6.4122536,5.79680331 7.27894111,7.39847666 C5.36568155,6.17164158 2.86337503,6.50851571 1.33031324,8.19931331 C-1.1909595,11.0422835 0.503020618,13.5248772 1.29091835,15.2066342 C3.96977064,20.9726582 4.12735018,24.2961304 4.12735018,27.979979 C4.12735018,31.6638277 3.96977064,34.9472581 1.29091835,40.753324 C0.503020618,42.435081 -1.1909595,44.8776328 1.33031324,47.7606448 C2.8607987,49.4496416 5.35310824,49.8019464 7.27894111,48.6015234 C6.09791307,50.5589824 6.44452565,53.092221 8.10623373,54.6478403 C10.9032707,57.2105176 13.3457537,55.4887187 15.0003389,54.6878821 C20.6732025,51.9650374 23.9035832,51.8048701 27.5673076,51.8048701 C31.2310322,51.8048701 34.422018,51.9650374 40.1342765,54.6878821 C41.7888616,55.4887187 44.2313447,57.2105176 47.0283817,54.6478403 C48.6900897,53.092221 49.0367023,50.5589824 47.8556743,48.6015234 C49.7815072,49.8019464 52.2738166,49.4496416 53.8043022,47.7606448 C56.3255749,44.9176746 54.6315947,42.435081 53.843697,40.753324 C51.1648447,34.9472581 51.0072652,31.6638277 51.0072652,27.979979 Z M44.7828732,45.4782603 L31.4280066,34.1063797 C31.4280066,34.1063797 29.6158419,32.3044971 27.6067025,32.3044971 C25.5975634,32.3044971 23.7460037,34.1063797 23.7460037,34.1063797 L10.3911372,45.5183022 L10.3517422,45.5183022 L21.53989,31.9441206 C21.53989,31.9441206 23.3126599,30.1021963 23.3126599,28.020021 C23.3126599,25.9378456 21.53989,24.135963 21.53989,24.135963 L10.3517422,10.5217397 L10.3911372,10.5217397 L23.7460037,21.8535786 C23.7460037,21.8535786 25.5581685,23.6554611 27.6067025,23.6554611 C29.6552367,23.6554611 31.4280066,21.8535786 31.4280066,21.8535786 L44.7434782,10.4816978 L44.7828732,10.4816978 L33.5947254,24.0959213 C33.5947254,24.0959213 31.8219555,25.9378456 31.8219555,27.979979 C31.8219555,30.0221126 33.5947254,31.9040787 33.5947254,31.9040787 L44.7828732,45.4382186 L44.7828732,45.4782603 Z" id="Shape" fill="#BFBFBF"></path>
        <path d="M45.1138022,45.9016394 L31.8463736,34.5390163 C31.8463736,34.5390163 30.0407472,32.7449181 27.9996043,32.7449181 C25.9584615,32.7449181 24.1528352,34.5390163 24.1528352,34.5390163 L10.8854066,45.9016394 L10.8461539,45.9016394 L21.9939341,32.3860984 C21.9939341,32.3860984 23.7603076,30.5521312 23.7603076,28.4789509 C23.7603076,26.4057706 21.9939341,24.5718034 21.9939341,24.5718034 L10.8461539,11.0562623 L10.8854066,11.0562623 L24.1920879,22.3391475 C24.1920879,22.3391475 25.9977143,24.1332459 28.0388571,24.1332459 C30.08,24.1332459 31.8856264,22.3391475 31.8856264,22.3391475 L45.153055,11.0163934 L45.1923076,11.0163934 L34.0052747,24.5718034 C34.0052747,24.5718034 32.238901,26.4057706 32.238901,28.4789509 C32.238901,30.5521312 34.0052747,32.3860984 34.0052747,32.3860984 L45.153055,45.9016394 L45.1138022,45.9016394" id="Shape" fill="#FFFFFF"></path>
      </g>
    </g>
  </g>
</svg>
