<?xml version="1.0" encoding="UTF-8"?>
<svg xmlns="http://www.w3.org/2000/svg" xmlns:xlink="http://www.w3.org/1999/xlink" width="119px" height="35px" viewBox="0 0 119 35">
  <!-- Generator: Sketch 50.2 (55047) - http://www.bohemiancoding.com/sketch -->
  <title>DBS-logo_grey</title>
  <desc>Created with Sketch.</desc>
  <defs></defs>
  <g id="Design" stroke="none" stroke-width="1" fill="none" fill-rule="evenodd">
    <g id="Artboard" transform="translate(-1062.000000, -740.000000)" fill-rule="nonzero">
      <g id="DBS-logo_grey" transform="translate(1062.000000, 740.000000)">
        <path d="M116.693649,2.14309116 L116.989887,2.14309116 L117.088633,7.64422957 L116.767708,7.64422957 C116.224605,5.41403832 114.076878,3.30774659 109.781423,3.08472746 C104.720687,2.81214853 102.498899,5.86007657 102.498899,8.73454526 C102.474213,12.5506503 105.436595,13.3436072 109.830796,14.409143 C111.904464,14.9295209 119.581972,15.9207171 118.964809,24.5689031 C118.520451,30.6151994 113.336282,33.4896681 105.979699,33.266649 C105.979699,33.266649 102.91857,33.1675293 98.6478019,31.978094 C97.8578335,31.7550749 97.660341,32.0276538 97.3147301,32.6223715 L96.9691186,32.6223715 L96.9691186,26.6751949 L97.3147301,26.6751949 C97.4875359,27.2699125 97.5122221,28.3850081 98.5984289,29.3514243 C99.6846363,30.3178405 101.239887,31.7798548 105.313163,31.8294146 C109.386439,31.8789744 112.620373,30.193941 113.06473,25.7087786 C113.188163,24.4945634 113.040044,21.7192143 110.349213,20.4554392 C108.250859,19.4642431 102.400153,18.8199657 99.5612035,16.3171955 C99.5612035,16.3171955 96.2038365,13.9631048 96.7469399,9.57706199 C97.4875359,3.3820863 102.647018,1.82095242 107.288085,1.72183281 C107.288085,1.72183281 111.43542,1.67227301 114.718727,2.5395696 C115.213456,2.67005375 115.734403,2.66148133 116.224605,2.5147897 C116.413907,2.43978291 116.577031,2.31051307 116.693649,2.14309116" id="Shape" fill="#BFBFBF"></path>
        <path d="M87.6406348,16.7201741 C88.0873523,16.4711739 94.1180337,14.1803719 93.5968635,8.67746703 C92.9764232,1.80506103 85.5063195,2.30306146 83.0245579,2.30306146 L69.5485906,2.30306146 L69.5485906,2.62676175 C70.9631951,2.8010619 71.6332703,3.57296257 71.6084531,6.13766484 L71.4843647,29.7428854 C71.4843647,32.0336875 70.5164776,32.7557881 69.2259615,32.9300882 L69.2259615,33.2786885 L87.0698296,33.2786885 C89.4026862,33.2786885 95.1851914,32.5067879 95.5326376,25.6343818 C95.6319082,24.0905805 95.1851914,18.6125757 87.6158171,16.7450741 M89.6012268,25.6841819 C89.5019562,30.390286 86.7968356,31.535687 85.2085083,31.8842873 C83.6201804,32.2328876 81.0143304,32.1830875 79.0785562,32.0834875 C77.1427821,31.9838874 77.3165055,31.2119867 77.2916877,30.4649861 C77.2916877,30.4649861 77.2916877,27.2777833 77.3661405,23.1443797 C77.4902289,15.549873 77.7135873,4.7432636 77.7135873,4.59386346 C77.7135873,3.52316253 77.9617636,3.44846247 78.9296506,3.42356244 L81.1632366,3.42356244 C82.8508345,3.44846247 87.4420942,3.57296257 87.7150877,9.67346789 C87.9880817,15.7739732 81.4610478,16.670374 79.8230849,16.7201741 C79.7486321,16.7201741 79.7238143,16.9940743 79.8230849,16.9940743 C84.8610615,17.2679746 89.7253152,19.0358761 89.6012268,25.6841819" id="Shape" fill="#BFBFBF"></path>
        <path d="M54.2385288,2.29518686 L39.6508143,2.29518686 L39.6508143,2.61896944 C40.6999307,2.7933139 41.5741944,3.49069175 41.6741103,4.58657123 C41.9988368,8.0734605 42.1237316,29.2687659 41.5991734,31.5850566 C41.4243207,32.182809 40.4001832,32.7556551 39.4759615,32.9299996 L39.4759615,33.2786885 L55.8122035,33.2786885 C62.2567757,33.2786885 69.2009275,27.3509768 69.2259066,17.737125 C69.2508857,6.67870476 60.7330591,2.27028051 54.2635078,2.29518686 M57.2360044,31.2861804 C54.9379398,32.10809 52.4150645,32.3571535 49.367631,32.0582773 C47.6940404,31.8839328 47.6440825,30.9374915 47.6191036,30.5389899 C47.4442508,27.6249467 47.4942087,7.42589532 47.6690615,4.81072839 C47.7689773,3.41597269 48.0437459,3.46578539 49.342652,3.49069175 C50.6415581,3.5155981 51.9904221,3.59031716 51.9904221,3.59031716 C59.658964,4.1382569 62.5315445,10.0410623 63.106061,17.5627805 C63.680577,25.0844988 60.1085849,30.26502 57.2110254,31.2861804" id="Shape" fill="#BFBFBF"></path>
        <path d="M32.2865136,17.4874869 C32.2865136,15.1850815 32.361322,13.1329375 34.0819146,9.50414638 C34.5806371,8.45304824 35.6528905,6.90142721 34.0569785,5.12457082 C33.086583,4.06782232 31.5026762,3.85727599 30.2916236,4.62404791 C31.0391892,3.40063596 30.8197908,1.8173619 29.767965,0.845099862 C27.9975001,-0.756573478 26.4514603,0.319550797 25.4041431,0.820073714 C21.8133411,2.52185164 19.7685789,2.62195623 17.4495192,2.62195623 C15.1304596,2.62195623 13.1106335,2.52185164 9.49489535,0.820073714 C8.44757812,0.319550797 6.90153836,-0.756573478 5.13107348,0.845099862 C3.83439497,2.14645945 4.0588201,3.62300207 4.60741485,4.62404791 C3.39636226,3.85727599 1.81245547,4.06782232 0.842059974,5.12457082 C-0.753852024,6.90142721 0.318401349,8.45304824 0.81712385,9.50414638 C2.51278035,13.1079114 2.61252485,15.1850815 2.61252485,17.4874869 C2.61252485,19.7898923 2.51278035,21.8420363 0.81712385,25.4708275 C0.318401349,26.5219256 -0.753852024,28.0485205 0.842059974,29.850403 C1.81082471,30.906026 3.38840362,31.1262165 4.60741485,30.3759521 C3.85984923,31.599364 4.07924762,33.1826381 5.13107348,34.1549002 C6.90153836,35.7565735 8.44757812,34.6804492 9.49489535,34.1799263 C13.0856973,32.4781484 15.1304596,32.3780438 17.4495192,32.3780438 C19.7685789,32.3780438 21.788405,32.4781484 25.4041431,34.1799263 C26.4514603,34.6804492 27.9975001,35.7565735 29.767965,34.1549002 C30.8197908,33.1826381 31.0391892,31.599364 30.2916236,30.3759521 C31.5106349,31.1262165 33.0882137,30.906026 34.0569785,29.850403 C35.6528905,28.0735466 34.5806371,26.5219256 34.0819146,25.4708275 C32.3862581,21.8420363 32.2865136,19.7898923 32.2865136,17.4874869 Z M28.3466059,28.4239127 L19.8932595,21.3164873 C19.8932595,21.3164873 18.7461978,20.1903107 17.4744553,20.1903107 C16.202713,20.1903107 15.0307151,21.3164873 15.0307151,21.3164873 L6.57736874,28.4489389 L6.55243258,28.4489389 L13.6342921,19.9650754 C13.6342921,19.9650754 14.7564177,18.8138727 14.7564177,17.5125131 C14.7564177,16.2111535 13.6342921,15.0849769 13.6342921,15.0849769 L6.55243258,6.57608729 L6.57736874,6.57608729 L15.0307151,13.6584866 C15.0307151,13.6584866 16.1777769,14.7846632 17.4744553,14.7846632 C18.7711339,14.7846632 19.8932595,13.6584866 19.8932595,13.6584866 L28.3216697,6.55106114 L28.3466059,6.55106114 L21.2647464,15.0599508 C21.2647464,15.0599508 20.1426208,16.2111535 20.1426208,17.4874869 C20.1426208,18.7638204 21.2647464,19.9400492 21.2647464,19.9400492 L28.3466059,28.3988866 L28.3466059,28.4239127 Z" id="Shape" fill="#BFBFBF"></path>
        <path d="M28.5560769,28.6885246 L20.1580769,21.5868852 C20.1580769,21.5868852 19.0151538,20.4655738 17.7231538,20.4655738 C16.4311538,20.4655738 15.2882308,21.5868852 15.2882308,21.5868852 L6.89023079,28.6885246 L6.86538462,28.6885246 L13.9216923,20.2413115 C13.9216923,20.2413115 15.0397692,19.095082 15.0397692,17.7993443 C15.0397692,16.5036066 13.9216923,15.3573771 13.9216923,15.3573771 L6.86538462,6.91016395 L6.89023079,6.91016395 L15.3130769,13.9619672 C15.3130769,13.9619672 16.456,15.0832787 17.748,15.0832787 C19.04,15.0832787 20.1829231,13.9619672 20.1829231,13.9619672 L28.5809231,6.8852459 L28.6057692,6.8852459 L21.5246154,15.3573771 C21.5246154,15.3573771 20.4065384,16.5036066 20.4065384,17.7993443 C20.4065384,19.095082 21.5246154,20.2413115 21.5246154,20.2413115 L28.5809231,28.6885246 L28.5560769,28.6885246" id="Shape" fill="#FFFFFF"></path>
      </g>
    </g>
  </g>
</svg>
