<?xml version="1.0" encoding="UTF-8"?>
<!-- Generator: Adobe Illustrator 22.1.0, SVG Export Plug-In . SVG Version: 6.00 Build 0)  -->
<svg xmlns="http://www.w3.org/2000/svg" xmlns:xlink="http://www.w3.org/1999/xlink" id="Calque_1" x="0px" y="0px" viewBox="0 0 441.4 164.8" style="enable-background:new 0 0 441.4 164.8;" xml:space="preserve">
<style type="text/css">
	.st0{fill:#F58220;}
</style>
<g>
	<g>
		<g>
			<path class="st0" d="M133,144.8c0.1,2.3,2.2,3,4.5,3c1.7,0,4-0.4,4-2.3c0-2-2.7-2.3-5.4-2.9c-2.7-0.6-5.4-1.4-5.4-4.5     c0-3.2,3.3-4.5,6.2-4.5c3.7,0,6.6,1.1,6.8,4.9h-2.7c-0.2-2-2-2.7-3.8-2.7c-1.6,0-3.5,0.4-3.5,2c0,1.9,2.9,2.2,5.4,2.7     c2.7,0.6,5.4,1.4,5.4,4.5c0,3.7-3.7,5-7,5c-3.7,0-6.9-1.4-7-5.3H133z"></path>
			<path class="st0" d="M161.8,144.8c-0.7,3.5-3.4,5.4-7.1,5.4c-5.3,0-7.8-3.5-8-8.3c0-4.7,3.3-8.2,7.8-8.2c5.9,0,7.7,5.2,7.5,9     h-12.4c-0.1,2.7,1.5,5.2,5.2,5.2c2.2,0,3.8-1,4.3-3.1H161.8z M159.2,140.4c-0.1-2.5-2.1-4.5-4.8-4.5c-2.9,0-4.6,2-4.7,4.5H159.2z     "></path>
			<path class="st0" d="M176.5,139.1c-0.4-2-1.9-3.1-4.1-3.1c-3.9,0-5.2,3-5.2,6.2c0,2.9,1.4,5.8,4.8,5.8c2.6,0,4.2-1.5,4.6-3.8h2.8     c-0.6,3.8-3.1,6.1-7.3,6.1c-5.1,0-7.8-3.4-7.8-8c0-4.7,2.6-8.4,7.8-8.4c3.8,0,6.8,1.7,7.2,5.4H176.5z"></path>
			<path class="st0" d="M196.5,149.7h-2.6v-2.5h-0.1c-1.2,2-3,2.9-5.4,2.9c-4.4,0-5.7-2.4-5.7-5.8V134h2.7v10.7     c0,1.9,1.3,3.2,3.4,3.2c3.3,0,4.9-2.1,4.9-4.9V134h2.7V149.7z"></path>
			<path class="st0" d="M200.8,134h2.6v3.3h0.1c1.3-2.5,3.1-3.8,6.1-3.7v2.7c-4.4,0-6,2.4-6,6.4v7h-2.7V134z"></path>
			<path class="st0" d="M214.8,131.2h-2.7V128h2.7V131.2z M212.1,134h2.7v15.7h-2.7V134z"></path>
			<path class="st0" d="M223.1,134h3.3v2.3h-3.3v9.8c0,1.2,0.4,1.4,2.1,1.4h1.2v2.3h-2.1c-2.8,0-3.9-0.5-3.9-3.4v-10h-2.8V134h2.8     v-4.7h2.7V134z"></path>
			<path class="st0" d="M236.3,151.9c-1.2,3.1-2.4,4.2-4.8,4.2c-0.6,0-1.3-0.1-1.9-0.3v-2.4c0.5,0.2,1.1,0.4,1.6,0.4     c1.1,0,1.7-0.5,2.2-1.4l1.1-2.7L228,134h3.1l4.8,12.9h0.1l4.6-12.9h2.9L236.3,151.9z"></path>
			<path class="st0" d="M258.5,134h3.3v2.3h-3.3v9.8c0,1.2,0.3,1.4,2.1,1.4h1.2v2.3h-2.1c-2.8,0-3.9-0.5-3.9-3.4v-10H253V134h2.8     v-4.7h2.7V134z"></path>
			<path class="st0" d="M272.3,133.6c5.3,0,8.1,3.6,8.1,8.3c0,4.6-2.8,8.2-8.1,8.2c-5.3,0-8-3.6-8-8.2     C264.3,137.3,267.1,133.6,272.3,133.6z M272.3,147.8c2.9,0,5.2-2.1,5.2-5.9c0-3.8-2.3-6-5.2-6c-2.8,0-5.2,2.1-5.2,6     C267.2,145.7,269.5,147.8,272.3,147.8z"></path>
			<path class="st0" d="M292.6,128h2.7v8.1h0.1c0.9-1.7,3-2.5,5.3-2.5c5.1,0,7.6,3.8,7.6,8.3c0,4.4-2.5,8.2-7.6,8.2     c-1.7,0-4.1-0.6-5.4-2.5h-0.1v2.1h-2.7V128z M300.3,135.9c-3.7,0-5.1,3-5.1,5.9c0,3.1,1.5,6,5.2,6c3.7,0,5-3,5-6.1     C305.4,138.8,303.8,135.9,300.3,135.9z"></path>
			<path class="st0" d="M326,144.8c-0.7,3.5-3.4,5.4-7.1,5.4c-5.3,0-7.8-3.5-7.9-8.3c0-4.7,3.3-8.2,7.8-8.2c5.9,0,7.7,5.2,7.5,9     h-12.4c-0.1,2.7,1.5,5.2,5.2,5.2c2.2,0,3.8-1,4.3-3.1H326z M323.4,140.4c-0.1-2.5-2.1-4.5-4.8-4.5c-2.9,0-4.6,2-4.7,4.5H323.4z"></path>
			<path class="st0" d="M339.3,136.3h-2.8V134h2.8v-2.3c0-2.6,1.6-3.9,4.6-3.9c0.5,0,1.3,0.1,1.8,0.2v2.3c-0.5-0.2-1.1-0.2-1.5-0.2     c-1.3,0-2.1,0.4-2.1,1.8v2.2h3.2v2.3h-3.2v13.5h-2.7V136.3z"></path>
			<path class="st0" d="M347.9,134h2.6v3.3h0.1c1.3-2.5,3.1-3.8,6.1-3.7v2.7c-4.4,0-6,2.4-6,6.4v7h-2.7V134z"></path>
			<path class="st0" d="M372.6,144.8c-0.7,3.5-3.4,5.4-7.1,5.4c-5.3,0-7.8-3.5-7.9-8.3c0-4.7,3.3-8.2,7.8-8.2c5.9,0,7.7,5.2,7.5,9     h-12.4c-0.1,2.7,1.5,5.2,5.2,5.2c2.2,0,3.8-1,4.3-3.1H372.6z M369.9,140.4c-0.1-2.5-2.1-4.5-4.8-4.5c-2.9,0-4.6,2-4.7,4.5H369.9z     "></path>
			<path class="st0" d="M390.1,144.8c-0.7,3.5-3.4,5.4-7.1,5.4c-5.3,0-7.8-3.5-7.9-8.3c0-4.7,3.3-8.2,7.8-8.2c5.9,0,7.7,5.2,7.5,9     H378c-0.1,2.7,1.5,5.2,5.2,5.2c2.2,0,3.8-1,4.3-3.1H390.1z M387.5,140.4c-0.1-2.5-2.1-4.5-4.8-4.5c-2.9,0-4.6,2-4.7,4.5H387.5z"></path>
		</g>
	</g>
	<g>
		<path d="M332.3,113.6v-10.3h-9.8c-4.7,0.1-5-3.7-5-8.8V61.4h13.3V51.2h-13.3V27.7h-13.7V98c0.1,10.5,2.9,15.6,16.8,15.6v0H332.3z"></path>
		<path class="st0" d="M428.6,58.9c-11.7-10.5-16.5-12.4-21.3-12.7c-4.8,0.3-9.6,2.2-21.3,12.7c10.5-11.7,12.4-16.5,12.7-21.3    c-0.3-4.8-2.2-9.6-12.7-21.3c11.7,10.5,16.5,12.4,21.3,12.7c4.8-0.3,9.6-2.2,21.3-12.7c-10.5,11.7-12.4,16.5-12.7,21.3    C416.2,42.4,418.1,47.2,428.6,58.9z"></path>
		<path d="M362.6,49.5c-19.9,0-31.3,13.7-31.3,32.6c0,19.1,11.4,32.7,31.3,32.7c19.9,0,31.3-13.6,31.3-32.7    C393.9,63.2,382.5,49.5,362.6,49.5z M380.2,99.8H345V64.6h35.2V99.8z"></path>
		<path d="M282.7,27.7V104h-7.5V65.7C274.1,54,262,49.5,250.5,49.5c-13.7,0-27.2,4.7-28.2,20.6H236c0.6-6.7,6-9.8,13.7-9.8    c5.5,0,12.8,1.3,12.8,8.4c0,8-8.7,7-18.6,8.8c-9.6,1.1-19.8,3-22.9,12.6V70.4c0-15.1-7.7-20.9-20.8-20.9c-9,0-14.9,4-19.4,10.3    c-2.8-7.1-9.8-10.3-17.4-10.3c-9.8,0-15,4.2-19,10.3h-0.4v-8.6h-12.9v18.7c-3.9-11.7-13.9-20.4-27.7-20.4c-15,0-25.4,10-28.8,23.1    V51.2H61v8.5h-0.2c-3.5-6.9-10.5-10.2-18.3-10.2c-17.6,0-28.1,14.4-28.1,31.1c0,17.7,8.2,32.6,27.8,32.6c7.7,0,14.8-4.1,18.6-10.9    H61v9.5C61,122,56,127.6,45,127.6c-7,0-13.2-1.3-14.9-9.1H16.5c1.2,14.5,15.2,19.3,27.7,19.3c19.5,0,30.5-9.2,30.5-27.8V92.6    c3.3,13.4,13.5,22.3,29.1,22.3c12.6,0,23.5-6.6,27.3-18.4v16.8h13.7V76.4c0-10.3,6.5-16.1,13.5-16.1c8.3,0,10.9,4.6,10.9,13.1    v39.8h13.7V76.9c0-10.4,4-16.5,13.2-16.5c10.7,0,11.3,6.8,11.3,16.6v36.2H221v-10.4c2.8,8.1,11.1,12.1,20.3,12.1    c6.9,0,15-2,20.4-6.6v0l0,0c0,2.7,2.1,4.9,4.8,5h29.9V27.7H282.7z M44.3,102.4C32.9,102.4,28,92.1,28,81.9    c0-10.3,4.2-21.6,16.3-21.6c11.9,0,16.7,9.8,16.7,20.5C61,91.4,56.4,102.4,44.3,102.4z M103.4,60.3c9.2,0,15.1,7.8,15.6,16.4H87.1    C87.5,67.5,93.9,60.3,103.4,60.3z M131.1,93.8h-12.2c-2.4,6.8-7.2,10.3-15.1,10.3c-11.4,0-16.7-8.6-16.7-18.3h44V93.8z     M261.7,92.3c0,8.6-9.3,11.8-15.3,11.8c-4.8,0-12.6-1.8-12.6-7.9c0-7.2,5.3-9.4,11.1-10.3c6-1.1,12.6-1,16.8-3.7V92.3z"></path>
	</g>
</g>
</svg>
