<?xml version="1.0" encoding="UTF-8"?>
<svg xmlns="http://www.w3.org/2000/svg" xmlns:xlink="http://www.w3.org/1999/xlink" width="320px" height="49px" viewBox="0 0 320 49">
  <!-- Generator: Sketch 50.2 (55047) - http://www.bohemiancoding.com/sketch -->
  <title>hancock-whitney-bank-logo</title>
  <desc>Created with Sketch.</desc>
  <defs></defs>
  <g id="Design" stroke="none" stroke-width="1" fill="none" fill-rule="evenodd">
    <g id="dropdown_menu" transform="translate(-1371.000000, -1095.000000)" fill="#1F54A5" fill-rule="nonzero">
      <g id="hancock-whitney-bank-logo" transform="translate(1371.000000, 1095.000000)">
        <path d="M55.7818182,13.6761194 L55.7818182,21.5746269 L46.3272727,21.5746269 L46.3272727,13.6761194 C46.2663728,13.0301955 46.6156906,12.4154678 47.2,12.1402985 L40,12.1402985 C40.5843094,12.4154678 40.9336272,13.0301955 40.8727273,13.6761194 L40.8727273,33.7880597 C40.8945903,34.4249062 40.5567136,35.0194998 40,35.3238806 L47.2,35.3238806 C46.6302362,35.0330954 46.2871364,34.4293099 46.3272727,33.7880597 L46.3272727,23.5492537 L55.7818182,23.5492537 L55.7818182,33.7880597 C55.8091169,34.4463799 55.434507,35.0549058 54.8363636,35.3238806 L62.0363636,35.3238806 C61.47965,35.0194998 61.1417734,34.4249062 61.1636364,33.7880597 L61.1636364,13.6761194 C61.1027364,13.0301955 61.4520543,12.4154678 62.0363636,12.1402985 L54.8363636,12.1402985 C55.4492192,12.3920716 55.8309883,13.0122271 55.7818182,13.6761194 Z" id="Shape"></path>
        <path d="M64.7272727,20.1119403 L64.7272727,25.0119403 C65.3818182,23.2567164 67.0545455,20.7701493 69.6727273,20.7701493 C72.2909091,20.7701493 72.0727273,21.9402985 72.0727273,23.5492537 C72.1807569,24.1019469 72.0184505,24.6731985 71.6363636,25.0850746 C70.4727273,25.9626866 66.9818182,26.4014925 65.2363636,27.4985075 C63.3403997,28.3256157 62.3195727,30.412269 62.8250645,32.4273989 C63.3305564,34.4425289 65.2134808,35.7926047 67.2727273,35.6164179 C69.1113979,35.5491567 70.8655191,34.8228288 72.2181818,33.5686567 C72.2176606,34.5108798 72.79672,35.3552151 73.6727273,35.6895522 L77.9636364,34.2268657 C76.9454545,33.9343284 77.0181818,33.5686567 77.0181818,32.6179104 L77.0181818,24.4268657 C77.0181818,19.3074627 72.9454545,18.8686567 71.0545455,18.8686567 C68.8805255,18.8140818 66.7209519,19.2384294 64.7272727,20.1119403 Z M67.4181818,30.5701493 C67.4181818,29.2537313 68.2181818,28.5955224 69.3818182,27.9373134 L71.9272727,26.9134328 L71.9272727,32.0328358 C71.3331193,32.5868997 70.5556898,32.899612 69.7454545,32.9104478 C69.1093176,32.9808902 68.4757837,32.7570637 68.0232479,32.3019951 C67.5707121,31.8469265 67.3481315,31.2098467 67.4181818,30.5701493 Z" id="Shape"></path>
        <path d="M89.8181818,18.8686567 C87.8911338,18.8882998 86.044216,19.646897 84.6545455,20.9895522 L84.6545455,18.7955224 L78.6181818,19.6 C79.3174233,19.7468488 79.770504,20.4302744 79.6363636,21.1358209 L79.6363636,33.861194 C79.6661964,34.4813257 79.3218051,35.0585243 78.7636364,35.3238806 L85.4545455,35.3238806 C84.9094138,35.0442669 84.5706305,34.4764675 84.5818182,33.861194 L84.5818182,23.1835821 C85.2190647,22.3679498 86.1707905,21.8628386 87.2,21.7940299 C89.9636364,21.7940299 89.9636364,24.061194 89.9636364,25.3776119 L89.9636364,33.861194 C90.0148138,34.4865232 89.6636829,35.0750174 89.0909091,35.3238806 L95.7818182,35.3238806 C95.2236495,35.0585243 94.8792582,34.4813257 94.9090909,33.861194 L94.9090909,24.061194 C95.0545455,20.6970149 92.8,18.8686567 89.8181818,18.8686567 Z" id="Shape"></path>
        <path d="M106.4,32.9835821 C103.2,32.9835821 101.6,30.2776119 101.6,26.7671642 C101.6,23.2567164 103.2,21.0626866 105.527273,21.0626866 C107.854545,21.0626866 109.090909,23.0373134 109.818182,25.5970149 L109.818182,19.7462687 C108.262188,19.2481118 106.648968,18.9531575 105.018182,18.8686567 C98.7636364,18.8686567 96.3636364,23.7686567 96.3636364,27.2059701 C96.3636364,31.7402985 98.9818182,35.6895522 104.509091,35.6895522 C108.727273,35.6895522 110.618182,32.6179104 110.618182,31.0820896 C109.550003,32.2971526 108.012747,32.9901245 106.4,32.9835821 Z" id="Shape"></path>
        <path d="M119.418182,18.8686567 C113.963636,18.8686567 111.054545,22.8910448 111.054545,27.4985075 C110.981818,30.9358209 113.090909,35.6895522 119.490909,35.6895522 C124.509091,35.6895522 127.854545,32.0328358 127.854545,27.2791045 C127.854545,22.5253731 124.945455,18.8686567 119.418182,18.8686567 Z M119.2,20.6970149 C121.527273,20.6238806 122.618182,23.5492537 122.690909,27.1328358 C122.763636,30.7164179 121.6,33.641791 119.490909,33.7149254 C117.381818,33.7880597 116.072727,31.6671642 115.927273,27.3522388 C115.781818,23.0373134 117.018182,20.7701493 119.2,20.6970149 Z" id="Shape"></path>
        <path d="M139.054545,32.9835821 C135.854545,32.9835821 134.254545,30.2776119 134.254545,26.7671642 C134.254545,23.2567164 135.854545,21.0626866 138.181818,21.0626866 C140.509091,21.0626866 141.745455,23.1104478 142.472727,25.5970149 L142.472727,19.7462687 C140.916929,19.2473221 139.303607,18.9523491 137.672727,18.8686567 C131.418182,18.8686567 128.945455,23.7686567 128.945455,27.2059701 C128.945455,31.7402985 131.563636,35.6895522 137.090909,35.6895522 C141.309091,35.6895522 143.2,32.6179104 143.2,31.0820896 C142.148648,32.278116 140.641913,32.969245 139.054545,32.9835821 Z" id="Shape"></path>
        <path d="M153.890909,24.8656716 L158.254545,20.8432836 C158.929166,20.1728902 159.751384,19.6717868 160.654545,19.380597 L154.763636,19.380597 C155.709091,19.7462687 155.854545,20.3313433 154.836364,21.3552239 L150.036364,25.8895522 L150.036364,11.7014925 L143.709091,12.8716418 C144.290909,13.0910448 144.945455,13.2373134 144.945455,14.3343284 L144.945455,33.861194 C144.975287,34.4813257 144.630896,35.0585243 144.072727,35.3238806 L150.909091,35.3238806 C150.350922,35.0585243 150.006531,34.4813257 150.036364,33.861194 L150.036364,27.6447761 L154.763636,34.0074627 C155.054545,34.4462687 154.981818,35.0313433 154.254545,35.3970149 L162.763636,35.3970149 C161.934139,35.1670784 161.212596,34.6488058 160.727273,33.9343284 L153.890909,24.8656716 Z" id="Shape"></path>
        <path d="M29.2363636,24.3537313 L20,19.0880597 C20.0921652,18.8807776 20.1416439,18.6568771 20.1454545,18.4298507 L30.4727273,22.6716418 C30.4017046,21.9568967 30.2801855,21.248141 30.1090909,20.5507463 L20.2181818,17.6985075 C20.2367402,17.4795013 20.2367402,17.2593047 20.2181818,17.0402985 L29.3818182,18.3567164 C29.1521174,17.7789869 28.8848737,17.2170773 28.5818182,16.6746269 L20.1454545,16.4552239 C20.0727273,16.2358209 20,15.9432836 19.9272727,15.7238806 L26.3272727,14.7731343 C26.5354677,14.7761786 26.7245212,14.6514243 26.8046047,14.4581483 C26.8846881,14.2648722 26.8396575,14.0420369 26.6909091,13.8955224 C23.9148604,10.725599 19.9777186,8.82519356 15.7818182,8.62985075 L15.7818182,11.1895522 C15.7124513,11.3495467 15.555386,11.4529882 15.3818182,11.4529882 C15.2082503,11.4529882 15.051185,11.3495467 14.9818182,11.1895522 L14.9818182,8.62985075 C10.7859177,8.82519356 6.84877599,10.725599 4.07272727,13.8955224 C3.92397884,14.0420369 3.87894823,14.2648722 3.95903169,14.4581483 C4.03911514,14.6514243 4.22816866,14.7761786 4.43636364,14.7731343 L10.8363636,15.7238806 C10.7504983,15.9635015 10.6776633,16.2076435 10.6181818,16.4552239 L2.18181818,16.6746269 C1.87857515,17.2169794 1.61132553,17.7789016 1.38181818,18.3567164 L10.5454545,17.0402985 C10.5249548,17.2592173 10.5249548,17.4795887 10.5454545,17.6985075 L0.581818182,20.4776119 C0.411899403,21.1752536 0.290394631,21.8839257 0.218181818,22.5985075 L10.5454545,18.3567164 C10.5511829,18.5835104 10.6005791,18.8070369 10.6909091,19.0149254 L1.45454545,24.3537313 C0.218181818,25.158209 0.290909091,26.3283582 0.581818182,27.8641791 C1.75750324,32.7118052 5.1613338,36.7051673 9.74545455,38.6149254 L12.4363636,20.9895522 L15.0545455,20.9895522 L15.0545455,39.638806 L15.9272727,39.638806 L15.9272727,20.9895522 L18.5454545,20.9895522 L21.2363636,38.6149254 C25.684301,36.6369841 28.9637631,32.6904158 30.1090909,27.9373134 C30.4,26.3283582 30.4727273,25.158209 29.2363636,24.3537313 Z M12.9454545,15.0656716 L14.9818182,13.9686567 L14.9818182,13.1641791 C14.9020888,12.9802835 14.9565321,12.7654309 15.1140541,12.6423294 C15.2715761,12.5192278 15.4920603,12.5192278 15.6495823,12.6423294 C15.8071043,12.7654309 15.8615476,12.9802835 15.7818182,13.1641791 L15.7818182,14.041791 L17.8909091,15.138806 L17.8909091,15.358209 L12.9454545,15.358209 L12.9454545,15.0656716 Z M17.6,15.8701493 L17.6,17.6253731 L13.2363636,17.6253731 L13.2363636,15.8701493 L17.6,15.8701493 Z M19.1272727,20.4776119 L11.6363636,20.4776119 L11.6363636,18.2835821 L19.1272727,18.2835821 L19.1272727,20.4776119 Z" id="Shape"></path>
        <polygon id="Shape" points="13.0909091 36.4940299 13.7454545 36.5671642 13.8181818 34.8850746 13.2363636 34.8850746"></polygon>
        <polygon id="Shape" points="13.4545455 24.061194 12.8727273 23.9880597 12.7272727 25.6701493 13.3818182 25.7432836"></polygon>
        <polygon id="Shape" points="17.5272727 29.2537313 17.6 30.9358209 18.2545455 30.8626866 18.1090909 29.180597"></polygon>
        <path d="M226.254545,37.7373134 L225.672727,37.7373134 L220.290909,19.380597 L220.218182,19.380597 L215.345455,37.7373134 L214.836364,37.7373134 L209.018182,18.2835821 C208.145455,15.138806 207.636364,14.7 206.109091,14.480597 L206.109091,13.8955224 L214.109091,13.8955224 L214.109091,14.480597 C212.581818,14.8462687 212.654545,16.2358209 213.163636,17.7716418 L216.509091,29.0343284 L219.636364,17.1865672 C219.054545,15.2119403 218.545455,14.8462687 217.090909,14.480597 L217.090909,13.8955224 L224.945455,13.8955224 L224.945455,14.480597 C223.781818,14.919403 223.563636,15.9432836 224,17.1865672 L227.418182,28.961194 L227.490909,28.961194 L230.036364,19.3074627 C230.763636,16.6746269 230.836364,14.9925373 228.872727,14.480597 L228.872727,13.8955224 L234.618182,13.8955224 L234.618182,14.480597 C233.090909,14.7 232.145455,16.3089552 231.127273,19.819403 L226.327273,37.7373134 L226.254545,37.7373134 Z" id="Shape"></path>
        <path d="M238.4,28.0104478 L238.4,33.9343284 C238.4,35.5432836 238.690909,36.0552239 240.218182,36.4940299 L240.218182,37.0059701 L233.309091,37.0059701 L233.309091,36.4940299 C235.127273,35.9089552 235.127273,35.2507463 235.127273,33.4223881 L235.127273,21.5014925 C235.127273,19.8925373 234.836364,19.380597 233.309091,18.941791 L233.309091,18.4298507 L240.218182,18.4298507 L240.218182,18.941791 C238.836364,19.380597 238.4,19.819403 238.4,21.4283582 L238.4,26.6208955 L245.527273,26.6208955 L245.527273,21.5014925 C245.527273,19.8925373 245.163636,19.380597 243.636364,18.941791 L243.636364,18.4298507 L250.618182,18.4298507 L250.618182,18.941791 C248.8,19.5268657 248.727273,20.038806 248.727273,22.0134328 L248.727273,33.9343284 C248.727273,35.5432836 249.018182,36.0552239 250.618182,36.4940299 L250.618182,37.0059701 L243.636364,37.0059701 L243.636364,36.4940299 C245.381818,35.9820896 245.527273,35.2507463 245.527273,33.4223881 L245.527273,28.0104478 L238.4,28.0104478 Z" id="Shape"></path>
        <path d="M257.890909,33.9343284 C257.890909,35.5432836 258.181818,36.0552239 259.781818,36.4940299 L259.781818,37.0059701 L252.8,37.0059701 L252.8,36.4940299 C254.618182,35.9089552 254.618182,35.2507463 254.618182,33.4223881 L254.618182,21.5014925 C254.618182,19.8925373 254.327273,19.380597 252.8,18.941791 L252.8,18.4298507 L259.781818,18.4298507 L259.781818,18.941791 C257.963636,19.4537313 257.890909,20.1850746 257.890909,22.0134328 L257.890909,33.9343284 Z" id="Shape"></path>
        <path d="M264.363636,37.0059701 L264.363636,36.4940299 C265.963636,36.1283582 266.254545,35.4701493 266.254545,33.7149254 L266.254545,19.4537313 L264.727273,19.4537313 C262.981818,19.4537313 261.963636,20.3313433 261.454545,22.5253731 L261.018182,22.5253731 L261.163636,18.0641791 L261.6,18.0641791 C261.797655,18.2027357 262.019823,18.3020292 262.254545,18.3567164 L272.581818,18.3567164 C273.093953,18.4052611 273.607197,18.2762319 274.036364,17.9910448 L274.472727,17.9910448 L274.618182,22.4522388 L274.254545,22.4522388 C273.745455,20.3313433 272.654545,19.380597 270.909091,19.380597 L269.381818,19.380597 L269.381818,33.7880597 C269.381818,35.5432836 269.818182,36.2014925 271.2,36.4940299 L271.2,37.0059701 L264.363636,37.0059701 Z" id="Shape"></path>
        <path d="M289.309091,37.2253731 L288.8,37.2253731 L278.181818,22.1597015 L278.181818,33.5686567 C278.181818,35.6164179 278.690909,36.1283582 280.363636,36.5671642 L280.363636,37.0791045 L275.2,37.0791045 L275.2,36.5671642 C276.8,36.2746269 277.163636,35.1776119 277.163636,33.3492537 L277.163636,20.7701493 C276,19.3074627 275.781818,19.0880597 275.2,18.941791 L275.2,18.4298507 L279.636364,18.4298507 L288.290909,30.8626866 L288.290909,22.5253731 C288.290909,20.258209 288,19.380597 286.4,18.941791 L286.4,18.4298507 L291.345455,18.4298507 L291.345455,18.941791 C289.672727,19.0880597 289.236364,20.4044776 289.236364,22.0134328 L289.236364,37.2253731 L289.309091,37.2253731 Z" id="Shape"></path>
        <path d="M302.763636,30.5701493 L302.327273,30.5701493 C302.181818,28.961194 301.527273,28.2298507 300.290909,28.2298507 L297.672727,28.2298507 L297.672727,33.7149254 C297.672727,35.3970149 298.254545,35.9820896 299.709091,35.9820896 L300.581818,35.9820896 C302.4,35.9820896 303.127273,34.3 303.709091,32.5447761 L304.072727,32.5447761 L303.854545,37.0059701 L292.509091,37.0059701 L292.509091,36.4940299 C294.181818,36.0552239 294.4,35.3970149 294.4,33.4955224 L294.4,21.5014925 C294.4,19.8925373 294.109091,19.3074627 292.509091,18.941791 L292.509091,18.4298507 L303.636364,18.4298507 L303.636364,22.5253731 L303.272727,22.5253731 C302.763636,20.1850746 302.181818,19.4537313 300.581818,19.4537313 L297.745455,19.4537313 L297.745455,27.1328358 L300.363636,27.1328358 C301.6,27.1328358 302.109091,26.5477612 302.4,24.8656716 L302.836364,24.8656716 L302.836364,30.5701493 L302.763636,30.5701493 Z" id="Shape"></path>
        <path d="M314.109091,33.9343284 C314.109091,35.5432836 314.472727,36.1283582 316,36.4940299 L316,37.0059701 L309.018182,37.0059701 L309.018182,36.4940299 C310.4,36.2746269 310.909091,35.3970149 310.909091,33.7880597 L310.909091,28.3029851 L307.054545,20.9164179 C306.327273,19.4537313 305.818182,19.0880597 304.945455,18.941791 L304.945455,18.4298507 L311.636364,18.4298507 L311.636364,18.941791 C310.472727,19.0149254 310.254545,19.7462687 311.054545,21.2089552 L313.527273,26.1820896 L315.781818,22.1597015 C316.581818,20.6238806 316.509091,19.4537313 315.2,18.941791 L315.2,18.4298507 L319.781818,18.4298507 L319.781818,18.941791 C319.054545,19.0149254 318.254545,19.6731343 317.6,20.9895522 L314.109091,27.2059701 L314.109091,33.861194 L314.109091,33.9343284 Z" id="Shape"></path>
        <polygon id="Shape" points="190.036364 32.9104478 190.836364 33.1298507 190.836364 40.7358209 190.036364 40.5895522"></polygon>
        <polygon id="Shape" points="191.490909 33.2029851 192.290909 33.3492537 192.290909 40.8820896 191.490909 40.8089552"></polygon>
        <polygon id="Shape" points="193.018182 33.4223881 193.818182 33.641791 193.818182 41.1746269 193.018182 41.0283582"></polygon>
        <polygon id="Shape" points="194.472727 33.641791 195.272727 33.7880597 195.272727 41.3208955 194.472727 41.2477612"></polygon>
        <path d="M191.490909,3.94925373 L192.218182,4.16865672 L192.218182,4.97313433 L190.327273,4.68059701 C189.912843,5.17500063 189.944463,5.9063193 190.4,6.36268657 L201.163636,8.70298507 L200.945455,8.92238806 C200.515138,9.15802387 200.161597,9.51354417 199.927273,9.94626866 L186.618182,7.16716418 L180.363636,13.3104478 C179.989484,13.0917959 179.559124,12.9899679 179.127273,13.0179104 L179.127273,12.7253731 L186.327273,5.48507463 L186.545455,5.48507463 C187.781818,5.4119403 188.945455,3.51044776 188.945455,3.51044776 L189.527273,3.65671642 C188.998877,3.17585035 188.831471,2.41113412 189.110217,1.75159125 C189.388962,1.09204837 190.052644,0.682521374 190.763636,0.731343284 C191.047468,0.709689819 191.330036,0.787185241 191.563636,0.950746269 L191.345455,0.950746269 C191.127273,1.17014925 191.2,1.60895522 191.418182,1.97462687 C191.636364,2.34029851 192.072727,2.48656716 192.218182,2.26716418 C192.363636,2.04776119 192.290909,2.04776119 192.363636,1.82835821 C192.436364,1.60895522 192.436364,2.19402985 192.436364,2.34029851 C192.441583,3.03142569 192.042988,3.66129569 191.418182,3.94925373 L191.490909,3.94925373 Z" id="Shape"></path>
        <path d="M197.818182,26.4746269 C197.174304,27.1849285 196.767437,28.0799315 196.654545,29.0343284 L196.654545,29.180597 C196.996182,27.9951905 197.851193,27.0279188 198.981818,26.5477612 L198.981818,25.6701493 L187.854545,23.7686567 L187.854545,24.8656716 L197.818182,26.4746269 Z" id="Shape"></path>
        <path d="M184.072727,21.8671642 L183.854545,21.8671642 C182.836364,21.8671642 182.181818,21.1358209 182.181818,18.5761194 L182.181818,21.7940299 L181.018182,21.7940299 L181.018182,14.9925373 L180.436364,14.5537313 L180.436364,13.8955224 L182.909091,11.4089552 L182.909091,13.3104478 L182.181818,14.1880597 L182.181818,17.1865672 C182.327273,15.358209 182.981818,13.2373134 183.636364,12.5791045 L182.909091,13.4567164 L182.909091,11.4820896 L186.763636,7.60597015 L199.927273,10.3119403 L199.927273,21.2820896 L199.272727,21.2820896 L199.272727,11.4820896 L187.490909,8.99552239 L187.490909,20.9895522 L187.854545,20.9895522 L187.854545,9.50746269 L188.363636,9.65373134 L188.363636,21.0626866 L198.472727,22.7447761 L198.472727,12.2865672 L188.945455,10.238806 L188.945455,9.8 L198.836364,11.7746269 L198.836364,22.8910448 L199.2,22.8910448 L199.2,21.2089552 L199.854545,21.2089552 L199.854545,23.0373134 L200.872727,23.2567164 L200.872727,23.6955224 C200.191385,24.0920728 199.636415,24.6755172 199.272727,25.3776119 L187.054545,23.3298507 L183.054545,26.9134328 L183.054545,27.7910448 L187.418182,24.2074627 L187.418182,25.3044776 C189.963636,27.0597015 189.454545,30.2044776 189.454545,30.2044776 L189.236364,29.9850746 L186.763636,31.8134328 L186.763636,32.6179104 L189.381818,30.7164179 L196.436364,32.0328358 L196.436364,32.9104478 L196.072727,33.9343284 L196.072727,32.8373134 L189.381818,31.6671642 L189.381818,40.6626866 L188.727273,40.5164179 L186.690909,42.0522388 L186.690909,42.7104478 L188.8,41.2477612 L196,42.2716418 L196,43.2223881 L189.818182,42.4179104 C190.42814,43.3894808 190.801873,44.4919023 190.909091,45.6358209 C190.981818,46.6597015 190.981818,47.5373134 190.981818,47.5373134 C191.38348,47.5373134 191.709091,47.864747 191.709091,48.2686567 C191.709091,48.6725664 191.38348,49 190.981818,49 C190.618674,48.9726248 190.319738,48.7020764 190.254545,48.341791 C190.109091,45.3432836 185.527273,43.0029851 185.527273,43.0029851 L185.527273,42.4179104 L186.181818,41.8328358 L186.181818,32.6179104 L185.745455,32.3985075 C185.163636,29.3268657 182.036364,28.8880597 182.036364,28.8880597 L182.036364,27.8641791 L181.6,28.1567164 C181.6,28.1567164 180.581818,26.9134328 180.145455,26.8402985 L180.145455,26.3283582 L186.109091,21.5014925 L186.109091,20.9895522 L180.945455,25.0850746 L180.945455,21.6477612 L182.109091,21.6477612 L182.109091,23.4761194 L184.072727,21.8671642 Z" id="Shape"></path>
        <path d="M184.072727,21.8671642 L183.854545,21.8671642 C182.836364,21.8671642 182.181818,21.1358209 182.181818,18.5761194 L182.181818,21.7940299 L181.018182,21.7940299 L181.018182,14.9925373 L180.436364,14.5537313 L180.436364,13.8955224 L182.909091,11.4089552 L182.909091,13.3104478 L182.181818,14.1880597 L182.181818,17.1865672 C182.327273,15.358209 182.981818,13.2373134 183.636364,12.5791045 L182.909091,13.4567164 L182.909091,11.4820896 L186.763636,7.60597015 L199.927273,10.3119403 L199.927273,21.2820896 L199.272727,21.2820896 L199.272727,11.4820896 L187.490909,8.99552239 L187.490909,20.9895522 L187.854545,20.9895522 L187.854545,9.50746269 L188.363636,9.65373134 L188.363636,21.0626866 L198.472727,22.7447761 L198.472727,12.2865672 L188.945455,10.238806 L188.945455,9.8 L198.836364,11.7746269 L198.836364,22.8910448 L199.2,22.8910448 L199.2,21.2089552 L199.854545,21.2089552 L199.854545,23.0373134 L200.872727,23.2567164 L200.872727,23.6955224 C200.191385,24.0920728 199.636415,24.6755172 199.272727,25.3776119 L187.054545,23.3298507 L183.054545,26.9134328 L183.054545,27.7910448 L187.418182,24.2074627 L187.418182,25.3044776 C189.963636,27.0597015 189.454545,30.2044776 189.454545,30.2044776 L189.236364,29.9850746 L186.763636,31.8134328 L186.763636,32.6179104 L189.381818,30.7164179 L196.436364,32.0328358 L196.436364,32.9104478 L196.072727,33.9343284 L196.072727,32.8373134 L189.381818,31.6671642 L189.381818,40.6626866 L188.727273,40.5164179 L186.690909,42.0522388 L186.690909,42.7104478 L188.8,41.2477612 L196,42.2716418 L196,43.2223881 L189.818182,42.4179104 C190.42814,43.3894808 190.801873,44.4919023 190.909091,45.6358209 C190.981818,46.6597015 190.981818,47.5373134 190.981818,47.5373134 C191.38348,47.5373134 191.709091,47.864747 191.709091,48.2686567 C191.709091,48.6725664 191.38348,49 190.981818,49 C190.618674,48.9726248 190.319738,48.7020764 190.254545,48.341791 C190.109091,45.3432836 185.527273,43.0029851 185.527273,43.0029851 L185.527273,42.4179104 L186.181818,41.8328358 L186.181818,32.6179104 L185.745455,32.3985075 C185.163636,29.3268657 182.036364,28.8880597 182.036364,28.8880597 L182.036364,27.8641791 L181.6,28.1567164 C181.6,28.1567164 180.581818,26.9134328 180.145455,26.8402985 L180.145455,26.3283582 L186.109091,21.5014925 L186.109091,20.9895522 L180.945455,25.0850746 L180.945455,21.6477612 L182.109091,21.6477612 L182.109091,23.4761194 L184.072727,21.8671642" id="Shape"></path>
        <polygon id="Shape" points="193.381818 13.8223881 193.381818 12.0671642 193.090909 11.9940299 193.090909 13.7492537"></polygon>
        <polygon id="Shape" points="192.072727 13.8955224 191.127273 12.2134328 190.909091 12.2865672 191.854545 13.9686567"></polygon>
        <polygon id="Shape" points="191.054545 14.480597 189.527273 13.3835821 189.381818 13.5298507 190.909091 14.7731343"></polygon>
        <polygon id="Shape" points="190.690909 15.6507463 188.872727 15.358209 188.872727 15.6507463 190.690909 15.9432836"></polygon>
        <polygon id="Shape" points="190.909091 16.9671642 189.381818 17.5522388 189.527273 17.8447761 191.054545 17.2597015"></polygon>
        <polygon id="Shape" points="191.854545 18.1373134 190.909091 19.380597 191.127273 19.6 192.072727 18.2835821"></polygon>
        <polygon id="Shape" points="193.090909 18.7223881 193.090909 20.4776119 193.381818 20.5507463 193.381818 18.7955224"></polygon>
        <polygon id="Shape" points="194.4 18.7223881 195.272727 20.3313433 195.563636 20.258209 194.618182 18.5761194"></polygon>
        <polygon id="Shape" points="195.345455 18.0641791 196.872727 19.161194 197.018182 19.0149254 195.490909 17.7716418"></polygon>
        <polygon id="Shape" points="195.781818 16.8940299 197.6 17.1865672 197.6 16.8940299 195.781818 16.6014925"></polygon>
        <polygon id="Shape" points="195.490909 15.5776119 197.018182 14.9925373 196.872727 14.7 195.345455 15.2850746"></polygon>
        <polygon id="Shape" points="194.618182 14.4074627 195.490909 13.0910448 195.2 12.9447761 194.4 14.261194"></polygon>
        <path d="M193.018182,15.7238806 L190.981818,13.9686567 C190.965439,13.8206575 190.885789,13.6871645 190.763636,13.6029851 L189.818182,13.0910448 C190.017307,13.3974761 190.235945,13.6906262 190.472727,13.9686567 L190.836364,14.1149254 L192.727273,16.0895522 C192.741049,16.2586294 192.819212,16.4158289 192.945455,16.5283582 C193.134724,16.6880931 193.41073,16.6880931 193.6,16.5283582 C193.722329,16.3032927 193.660153,16.0219319 193.454545,15.8701493 L193.018182,15.7238806 Z" id="Shape"></path>
        <path d="M193.6,16.3089552 L194.472727,15.6507463 L194.836364,15.6507463 L195.345455,15.0656716 L194.545455,15.2119403 C194.453799,15.2443504 194.394498,15.3337995 194.4,15.4313433 L193.309091,15.7970149 C193.204721,15.7194796 193.071451,15.6926763 192.945455,15.7238806 C192.750265,15.8491963 192.686418,16.1060146 192.8,16.3089552 C192.928119,16.5422814 193.212833,16.6377174 193.454545,16.5283582 C193.574017,16.4770394 193.657188,16.3655248 193.672727,16.2358209 L193.6,16.3089552 Z" id="Shape"></path>
      </g>
    </g>
  </g>
</svg>
