<?xml version="1.0" encoding="UTF-8"?>
<svg xmlns="http://www.w3.org/2000/svg" xmlns:xlink="http://www.w3.org/1999/xlink" width="251px" height="39px" viewBox="0 0 251 39">
  <!-- Generator: Sketch 50.2 (55047) - http://www.bohemiancoding.com/sketch -->
  <title>hancock-whitney-bank-logo</title>
  <desc>Created with Sketch.</desc>
  <defs></defs>
  <g id="Design" stroke="none" stroke-width="1" fill="none" fill-rule="evenodd">
    <g id="dropdown_menu" transform="translate(-1188.000000, -1061.000000)" fill="#1F54A5" fill-rule="nonzero">
      <g id="Group-8" transform="translate(518.000000, 937.000000)">
        <g id="hancock-whitney-bank-logo" transform="translate(670.000000, 124.000000)">
          <path d="M43.7538636,10.8850746 L43.7538636,17.1716418 L36.3379545,17.1716418 L36.3379545,10.8850746 C36.2901862,10.3709719 36.5641823,9.88169887 37.0225,9.66268657 L31.375,9.66268657 C31.8333177,9.88169887 32.1073138,10.3709719 32.0595455,10.8850746 L32.0595455,26.8925373 C32.0766942,27.3994151 31.8116722,27.8726631 31.375,28.1149254 L37.0225,28.1149254 C36.5755915,27.8834841 36.3064726,27.4029201 36.3379545,26.8925373 L36.3379545,18.7432836 L43.7538636,18.7432836 L43.7538636,26.8925373 C43.775276,27.4165064 43.4814414,27.9008434 43.0122727,28.1149254 L48.6597727,28.1149254 C48.2231005,27.8726631 47.9580785,27.3994151 47.9752273,26.8925373 L47.9752273,10.8850746 C47.9274589,10.3709719 48.2014551,9.88169887 48.6597727,9.66268657 L43.0122727,9.66268657 C43.4929813,9.86307741 43.7924314,10.3566706 43.7538636,10.8850746 Z" id="Shape"></path>
          <path d="M50.7704545,16.0074627 L50.7704545,19.9074627 C51.2838636,18.5104478 52.5959091,16.5313433 54.6495455,16.5313433 C56.7031818,16.5313433 56.5320455,17.4626866 56.5320455,18.7432836 C56.6167812,19.1831822 56.4894721,19.6378519 56.1897727,19.9656716 C55.2770455,20.6641791 52.5388636,21.0134328 51.1697727,21.8865672 C49.682626,22.5448778 48.8819149,24.2056835 49.27841,25.8095624 C49.6749051,27.4134413 51.151824,28.4879915 52.7670455,28.3477612 C54.2092527,28.2942268 55.5851415,27.7161291 56.6461364,26.7179104 C56.6457275,27.4678431 57.0999272,28.1398651 57.7870455,28.4059701 L61.1527273,27.241791 C60.3540909,27.0089552 60.4111364,26.7179104 60.4111364,25.961194 L60.4111364,19.441791 C60.4111364,15.3671642 57.2165909,15.0179104 55.7334091,15.0179104 C54.0281622,14.9744733 52.3342466,15.3122193 50.7704545,16.0074627 Z M52.8811364,24.3313433 C52.8811364,23.2835821 53.5086364,22.7597015 54.4213636,22.2358209 L56.4179545,21.4208955 L56.4179545,25.4955224 C55.9519154,25.936512 55.3421192,26.1854055 54.7065909,26.1940299 C54.207621,26.2500963 53.7106928,26.0719487 53.3557351,25.7097512 C53.0007773,25.3475537 52.8261906,24.8404902 52.8811364,24.3313433 Z" id="Shape"></path>
          <path d="M70.4511364,15.0179104 C68.9396081,15.0335447 67.4909319,15.6373262 66.4009091,16.7059701 L66.4009091,14.9597015 L61.6661364,15.6 C62.2146039,15.7168797 62.5699891,16.2608307 62.4647727,16.8223881 L62.4647727,26.9507463 C62.4881728,27.4443204 62.2180409,27.9037234 61.7802273,28.1149254 L67.0284091,28.1149254 C66.6008215,27.8923757 66.3350883,27.4404537 66.3438636,26.9507463 L66.3438636,18.4522388 C66.8437039,17.8030621 67.5902138,17.4010348 68.3975,17.3462687 C70.5652273,17.3462687 70.5652273,19.1507463 70.5652273,20.1985075 L70.5652273,26.9507463 C70.6053696,27.4484572 70.3299513,27.9168506 69.8806818,28.1149254 L75.1288636,28.1149254 C74.69105,27.9037234 74.4209181,27.4443204 74.4443182,26.9507463 L74.4443182,19.1507463 C74.5584091,16.4731343 72.79,15.0179104 70.4511364,15.0179104 Z" id="Shape"></path>
          <path d="M83.4575,26.2522388 C80.9475,26.2522388 79.6925,24.0985075 79.6925,21.3044776 C79.6925,18.5104478 80.9475,16.7641791 82.7729545,16.7641791 C84.5984091,16.7641791 85.5681818,18.3358209 86.1386364,20.3731343 L86.1386364,15.7164179 C84.9181534,15.3199257 83.6527843,15.0851662 82.3736364,15.0179104 C77.4677273,15.0179104 75.5852273,18.9179104 75.5852273,21.6537313 C75.5852273,25.2626866 77.6388636,28.4059701 81.9743182,28.4059701 C85.2829545,28.4059701 86.7661364,25.961194 86.7661364,24.738806 C85.9282835,25.7058969 84.7224984,26.2574461 83.4575,26.2522388 Z" id="Shape"></path>
          <path d="M93.6686364,15.0179104 C89.3902273,15.0179104 87.1084091,18.219403 87.1084091,21.8865672 C87.0513636,24.6223881 88.7056818,28.4059701 93.7256818,28.4059701 C97.6618182,28.4059701 100.285909,25.4955224 100.285909,21.7119403 C100.285909,17.9283582 98.0040909,15.0179104 93.6686364,15.0179104 Z M93.4975,16.4731343 C95.3229545,16.4149254 96.1786364,18.7432836 96.2356818,21.5955224 C96.2927273,24.4477612 95.38,26.7761194 93.7256818,26.8343284 C92.0713636,26.8925373 91.0445455,25.2044776 90.9304545,21.7701493 C90.8163636,18.3358209 91.7861364,16.5313433 93.4975,16.4731343 Z" id="Shape"></path>
          <path d="M109.070909,26.2522388 C106.560909,26.2522388 105.305909,24.0985075 105.305909,21.3044776 C105.305909,18.5104478 106.560909,16.7641791 108.386364,16.7641791 C110.211818,16.7641791 111.181591,18.3940299 111.752045,20.3731343 L111.752045,15.7164179 C110.531716,15.3192972 109.266266,15.0845227 107.987045,15.0179104 C103.081136,15.0179104 101.141591,18.9179104 101.141591,21.6537313 C101.141591,25.2626866 103.195227,28.4059701 107.530682,28.4059701 C110.839318,28.4059701 112.3225,25.961194 112.3225,24.738806 C111.497846,25.6907454 110.316001,26.2408276 109.070909,26.2522388 Z" id="Shape"></path>
          <path d="M120.708182,19.7910448 L124.130909,16.5895522 C124.660064,16.0559738 125.304992,15.6571364 126.013409,15.4253731 L121.392727,15.4253731 C122.134318,15.7164179 122.248409,16.1820896 121.449773,16.9970149 L117.684773,20.6059701 L117.684773,9.31343284 L112.721818,10.2447761 C113.178182,10.419403 113.691591,10.5358209 113.691591,11.4089552 L113.691591,26.9507463 C113.714991,27.4443204 113.444859,27.9037234 113.007045,28.1149254 L118.369318,28.1149254 C117.931505,27.9037234 117.661373,27.4443204 117.684773,26.9507463 L117.684773,22.0029851 L121.392727,27.0671642 C121.620909,27.4164179 121.563864,27.8820896 120.993409,28.1731343 L127.667727,28.1731343 C127.01709,27.9901236 126.45113,27.577621 126.070455,27.0089552 L120.708182,19.7910448 Z" id="Shape"></path>
          <path d="M22.9322727,19.3835821 L15.6875,15.1925373 C15.7597921,15.0275577 15.798602,14.8493512 15.8015909,14.6686567 L23.9020455,18.0447761 C23.846337,17.4758974 23.7510205,16.9117857 23.6168182,16.3567164 L15.8586364,14.0865672 C15.8731931,13.9122561 15.8731931,13.7369976 15.8586364,13.5626866 L23.0463636,14.6104478 C22.8661921,14.1506222 22.6565728,13.7033881 22.4188636,13.2716418 L15.8015909,13.0970149 C15.7445455,12.9223881 15.6875,12.6895522 15.6304545,12.5149254 L20.6504545,11.758209 C20.8137575,11.760632 20.9620463,11.6613377 21.0248618,11.5075058 C21.0876773,11.3536738 21.0523564,11.1763151 20.9356818,11.0597015 C18.7582186,8.53670127 15.670023,7.02413365 12.3788636,6.86865672 L12.3788636,8.90597015 C12.324454,9.03331266 12.2012559,9.1156437 12.0651136,9.1156437 C11.9289714,9.1156437 11.8057732,9.03331266 11.7513636,8.90597015 L11.7513636,6.86865672 C8.46020423,7.02413365 5.37200866,8.53670127 3.19454545,11.0597015 C3.07787091,11.1763151 3.04255002,11.3536738 3.10536548,11.5075058 C3.16818094,11.6613377 3.31646979,11.760632 3.47977273,11.758209 L8.49977273,12.5149254 C8.43242207,12.705644 8.37529213,12.8999611 8.32863636,13.0970149 L1.71136364,13.2716418 C1.47350738,13.7033101 1.26388347,14.1505543 1.08386364,14.6104478 L8.27159091,13.5626866 C8.25551145,13.736928 8.25551145,13.9123257 8.27159091,14.0865672 L0.456363636,16.2985075 C0.323083594,16.8537733 0.227778288,17.4178184 0.171136364,17.9865672 L8.27159091,14.6104478 C8.27608409,14.7909573 8.3148292,14.9688661 8.38568182,15.1343284 L1.14090909,19.3835821 C0.171136364,20.0238806 0.228181818,20.9552239 0.456363636,22.1776119 C1.37854161,26.0359266 4.0484212,29.2143169 7.64409091,30.7343284 L9.75477273,16.7059701 L11.8084091,16.7059701 L11.8084091,31.5492537 L12.4929545,31.5492537 L12.4929545,16.7059701 L14.5465909,16.7059701 L16.6572727,30.7343284 C20.1461236,29.1600485 22.7184517,26.0189024 23.6168182,22.2358209 C23.845,20.9552239 23.9020455,20.0238806 22.9322727,19.3835821 Z M10.1540909,11.9910448 L11.7513636,11.1179104 L11.7513636,10.4776119 C11.6888259,10.331246 11.7315298,10.1602409 11.8550862,10.0622622 C11.9786425,9.96428335 12.1515848,9.96428335 12.2751411,10.0622622 C12.3986974,10.1602409 12.4414014,10.331246 12.3788636,10.4776119 L12.3788636,11.1761194 L14.0331818,12.0492537 L14.0331818,12.2238806 L10.1540909,12.2238806 L10.1540909,11.9910448 Z M13.805,12.6313433 L13.805,14.0283582 L10.3822727,14.0283582 L10.3822727,12.6313433 L13.805,12.6313433 Z M15.0029545,16.2985075 L9.12727273,16.2985075 L9.12727273,14.5522388 L15.0029545,14.5522388 L15.0029545,16.2985075 Z" id="Shape"></path>
          <polygon id="Shape" points="10.2681818 29.0462687 10.7815909 29.1044776 10.8386364 27.7656716 10.3822727 27.7656716"></polygon>
          <polygon id="Shape" points="10.5534091 19.1507463 10.0970455 19.0925373 9.98295455 20.4313433 10.4963636 20.4895522"></polygon>
          <polygon id="Shape" points="13.7479545 23.2835821 13.805 24.6223881 14.3184091 24.5641791 14.2043182 23.2253731"></polygon>
          <path d="M177.468409,30.0358209 L177.012045,30.0358209 L172.790682,15.4253731 L172.733636,15.4253731 L168.911591,30.0358209 L168.512273,30.0358209 L163.948636,14.5522388 C163.264091,12.0492537 162.864773,11.7 161.666818,11.5253731 L161.666818,11.0597015 L167.941818,11.0597015 L167.941818,11.5253731 C166.743864,11.8164179 166.800909,12.9223881 167.200227,14.1447761 L169.824318,23.1089552 L172.277273,13.6791045 C171.820909,12.1074627 171.421591,11.8164179 170.280682,11.5253731 L170.280682,11.0597015 L176.441591,11.0597015 L176.441591,11.5253731 C175.528864,11.8746269 175.357727,12.6895522 175.7,13.6791045 L178.381136,23.0507463 L178.438182,23.0507463 L180.434773,15.3671642 C181.005227,13.2716418 181.062273,11.9328358 179.522045,11.5253731 L179.522045,11.0597015 L184.028636,11.0597015 L184.028636,11.5253731 C182.830682,11.7 182.089091,12.980597 181.290455,15.7746269 L177.525455,30.0358209 L177.468409,30.0358209 Z" id="Shape"></path>
          <path d="M186.995,22.2940299 L186.995,27.0089552 C186.995,28.2895522 187.223182,28.6970149 188.421136,29.0462687 L188.421136,29.4537313 L183.001818,29.4537313 L183.001818,29.0462687 C184.427955,28.580597 184.427955,28.0567164 184.427955,26.6014925 L184.427955,17.1134328 C184.427955,15.8328358 184.199773,15.4253731 183.001818,15.0761194 L183.001818,14.6686567 L188.421136,14.6686567 L188.421136,15.0761194 C187.337273,15.4253731 186.995,15.7746269 186.995,17.0552239 L186.995,21.1880597 L192.585455,21.1880597 L192.585455,17.1134328 C192.585455,15.8328358 192.300227,15.4253731 191.102273,15.0761194 L191.102273,14.6686567 L196.578636,14.6686567 L196.578636,15.0761194 C195.1525,15.541791 195.095455,15.9492537 195.095455,17.5208955 L195.095455,27.0089552 C195.095455,28.2895522 195.323636,28.6970149 196.578636,29.0462687 L196.578636,29.4537313 L191.102273,29.4537313 L191.102273,29.0462687 C192.471364,28.638806 192.585455,28.0567164 192.585455,26.6014925 L192.585455,22.2940299 L186.995,22.2940299 Z" id="Shape"></path>
          <path d="M202.283182,27.0089552 C202.283182,28.2895522 202.511364,28.6970149 203.766364,29.0462687 L203.766364,29.4537313 L198.29,29.4537313 L198.29,29.0462687 C199.716136,28.580597 199.716136,28.0567164 199.716136,26.6014925 L199.716136,17.1134328 C199.716136,15.8328358 199.487955,15.4253731 198.29,15.0761194 L198.29,14.6686567 L203.766364,14.6686567 L203.766364,15.0761194 C202.340227,15.4835821 202.283182,16.0656716 202.283182,17.5208955 L202.283182,27.0089552 Z" id="Shape"></path>
          <path d="M207.360227,29.4537313 L207.360227,29.0462687 C208.615227,28.7552239 208.843409,28.2313433 208.843409,26.8343284 L208.843409,15.4835821 L207.645455,15.4835821 C206.276364,15.4835821 205.477727,16.1820896 205.078409,17.9283582 L204.736136,17.9283582 L204.850227,14.3776119 L205.1925,14.3776119 C205.347536,14.4878917 205.521798,14.5669212 205.705909,14.6104478 L213.806364,14.6104478 C214.20807,14.6490854 214.610645,14.5463886 214.947273,14.319403 L215.289545,14.319403 L215.403636,17.8701493 L215.118409,17.8701493 C214.719091,16.1820896 213.863409,15.4253731 212.494318,15.4253731 L211.296364,15.4253731 L211.296364,26.8925373 C211.296364,28.2895522 211.638636,28.8134328 212.7225,29.0462687 L212.7225,29.4537313 L207.360227,29.4537313 Z" id="Shape"></path>
          <path d="M226.926818,29.6283582 L226.5275,29.6283582 L218.198864,17.6373134 L218.198864,26.7179104 C218.198864,28.3477612 218.598182,28.7552239 219.910227,29.1044776 L219.910227,29.5119403 L215.86,29.5119403 L215.86,29.1044776 C217.115,28.8716418 217.400227,27.9985075 217.400227,26.5432836 L217.400227,16.5313433 C216.4875,15.3671642 216.316364,15.1925373 215.86,15.0761194 L215.86,14.6686567 L219.339773,14.6686567 L226.128182,24.5641791 L226.128182,17.9283582 C226.128182,16.1238806 225.9,15.4253731 224.645,15.0761194 L224.645,14.6686567 L228.524091,14.6686567 L228.524091,15.0761194 C227.212045,15.1925373 226.869773,16.2402985 226.869773,17.5208955 L226.869773,29.6283582 L226.926818,29.6283582 Z" id="Shape"></path>
          <path d="M237.480227,24.3313433 L237.137955,24.3313433 C237.023864,23.0507463 236.510455,22.4686567 235.540682,22.4686567 L233.487045,22.4686567 L233.487045,26.8343284 C233.487045,28.1731343 233.943409,28.638806 235.084318,28.638806 L235.768864,28.638806 C237.195,28.638806 237.765455,27.3 238.221818,25.9029851 L238.507045,25.9029851 L238.335909,29.4537313 L229.436818,29.4537313 L229.436818,29.0462687 C230.748864,28.6970149 230.92,28.1731343 230.92,26.6597015 L230.92,17.1134328 C230.92,15.8328358 230.691818,15.3671642 229.436818,15.0761194 L229.436818,14.6686567 L238.164773,14.6686567 L238.164773,17.9283582 L237.879545,17.9283582 C237.480227,16.0656716 237.023864,15.4835821 235.768864,15.4835821 L233.544091,15.4835821 L233.544091,21.5955224 L235.597727,21.5955224 C236.5675,21.5955224 236.966818,21.1298507 237.195,19.7910448 L237.537273,19.7910448 L237.537273,24.3313433 L237.480227,24.3313433 Z" id="Shape"></path>
          <path d="M246.379318,27.0089552 C246.379318,28.2895522 246.664545,28.7552239 247.8625,29.0462687 L247.8625,29.4537313 L242.386136,29.4537313 L242.386136,29.0462687 C243.47,28.8716418 243.869318,28.1731343 243.869318,26.8925373 L243.869318,22.5268657 L240.845909,16.6477612 C240.275455,15.4835821 239.876136,15.1925373 239.191591,15.0761194 L239.191591,14.6686567 L244.439773,14.6686567 L244.439773,15.0761194 C243.527045,15.1343284 243.355909,15.7164179 243.983409,16.880597 L245.922955,20.838806 L247.691364,17.6373134 C248.318864,16.4149254 248.261818,15.4835821 247.235,15.0761194 L247.235,14.6686567 L250.828864,14.6686567 L250.828864,15.0761194 C250.258409,15.1343284 249.630909,15.658209 249.1175,16.7059701 L246.379318,21.6537313 L246.379318,26.9507463 L246.379318,27.0089552 Z" id="Shape"></path>
          <polygon id="Shape" points="149.059773 26.1940299 149.687273 26.3686567 149.687273 32.4223881 149.059773 32.3059701"></polygon>
          <polygon id="Shape" points="150.200682 26.4268657 150.828182 26.5432836 150.828182 32.538806 150.200682 32.480597"></polygon>
          <polygon id="Shape" points="151.398636 26.6014925 152.026136 26.7761194 152.026136 32.7716418 151.398636 32.6552239"></polygon>
          <polygon id="Shape" points="152.539545 26.7761194 153.167045 26.8925373 153.167045 32.8880597 152.539545 32.8298507"></polygon>
          <path d="M150.200682,3.14328358 L150.771136,3.31791045 L150.771136,3.95820896 L149.287955,3.72537313 C148.962886,4.11887805 148.987688,4.70094802 149.345,5.0641791 L157.787727,6.92686567 L157.616591,7.10149254 C157.279062,7.2890394 157.001753,7.57200454 156.817955,7.91641791 L146.378636,5.70447761 L141.472727,10.5940299 C141.179252,10.4200008 140.841688,10.3389541 140.502955,10.361194 L140.502955,10.1283582 L146.150455,4.36567164 L146.321591,4.36567164 C147.291364,4.30746269 148.204091,2.79402985 148.204091,2.79402985 L148.660455,2.91044776 C148.245994,2.52771763 148.114685,1.91906593 148.333326,1.39412365 C148.551967,0.869181352 149.072543,0.543231297 149.630227,0.582089552 C149.852858,0.564855162 150.074497,0.626535192 150.257727,0.756716418 L150.086591,0.756716418 C149.915455,0.931343284 149.9725,1.28059701 150.143636,1.57164179 C150.314773,1.86268657 150.657045,1.97910448 150.771136,1.80447761 C150.885227,1.62985075 150.828182,1.62985075 150.885227,1.45522388 C150.942273,1.28059701 150.942273,1.74626866 150.942273,1.86268657 C150.946367,2.41276739 150.633718,2.91409249 150.143636,3.14328358 L150.200682,3.14328358 Z" id="Shape"></path>
          <path d="M155.163636,21.0716418 C154.658595,21.6369839 154.339458,22.3493332 154.250909,23.1089552 L154.250909,23.2253731 C154.51888,22.2818863 155.189529,21.512017 156.076364,21.1298507 L156.076364,20.4313433 L147.348409,18.9179104 L147.348409,19.7910448 L155.163636,21.0716418 Z" id="Shape"></path>
          <path d="M144.382045,17.4044776 L144.210909,17.4044776 C143.412273,17.4044776 142.898864,16.8223881 142.898864,14.7850746 L142.898864,17.3462687 L141.986136,17.3462687 L141.986136,11.9328358 L141.529773,11.5835821 L141.529773,11.0597015 L143.469318,9.08059701 L143.469318,10.5940299 L142.898864,11.2925373 L142.898864,13.6791045 C143.012955,12.2238806 143.526364,10.5358209 144.039773,10.0119403 L143.469318,10.7104478 L143.469318,9.13880597 L146.492727,6.05373134 L156.817955,8.20746269 L156.817955,16.938806 L156.304545,16.938806 L156.304545,9.13880597 L147.063182,7.15970149 L147.063182,16.7059701 L147.348409,16.7059701 L147.348409,7.56716418 L147.747727,7.68358209 L147.747727,16.7641791 L155.677045,18.1029851 L155.677045,9.77910448 L148.204091,8.14925373 L148.204091,7.8 L155.962273,9.37164179 L155.962273,18.219403 L156.2475,18.219403 L156.2475,16.880597 L156.760909,16.880597 L156.760909,18.3358209 L157.559545,18.5104478 L157.559545,18.8597015 C157.025118,19.1753233 156.589813,19.6396974 156.304545,20.1985075 L146.720909,18.5686567 L143.583409,21.4208955 L143.583409,22.119403 L147.006136,19.2671642 L147.006136,20.1402985 C149.002727,21.5373134 148.603409,24.0402985 148.603409,24.0402985 L148.432273,23.8656716 L146.492727,25.3208955 L146.492727,25.961194 L148.546364,24.4477612 L154.079773,25.4955224 L154.079773,26.1940299 L153.794545,27.0089552 L153.794545,26.1358209 L148.546364,25.2044776 L148.546364,32.3641791 L148.032955,32.2477612 L146.435682,33.4701493 L146.435682,33.9940299 L148.09,32.8298507 L153.7375,33.6447761 L153.7375,34.4014925 L148.888636,33.761194 C149.367073,34.5344847 149.660219,35.4119222 149.744318,36.3223881 C149.801364,37.1373134 149.801364,37.8358209 149.801364,37.8358209 C150.116417,37.8358209 150.371818,38.0964313 150.371818,38.4179104 C150.371818,38.7393896 150.116417,39 149.801364,39 C149.516523,38.9782116 149.282045,38.7628771 149.230909,38.4761194 C149.116818,36.0895522 145.522955,34.2268657 145.522955,34.2268657 L145.522955,33.761194 L146.036364,33.2955224 L146.036364,25.961194 L145.694091,25.7865672 C145.237727,23.341791 142.784773,22.9925373 142.784773,22.9925373 L142.784773,22.1776119 L142.4425,22.4104478 C142.4425,22.4104478 141.643864,21.4208955 141.301591,21.3626866 L141.301591,20.9552239 L145.979318,17.1134328 L145.979318,16.7059701 L141.929091,19.9656716 L141.929091,17.2298507 L142.841818,17.2298507 L142.841818,18.6850746 L144.382045,17.4044776 Z" id="Shape"></path>
          <path d="M144.382045,17.4044776 L144.210909,17.4044776 C143.412273,17.4044776 142.898864,16.8223881 142.898864,14.7850746 L142.898864,17.3462687 L141.986136,17.3462687 L141.986136,11.9328358 L141.529773,11.5835821 L141.529773,11.0597015 L143.469318,9.08059701 L143.469318,10.5940299 L142.898864,11.2925373 L142.898864,13.6791045 C143.012955,12.2238806 143.526364,10.5358209 144.039773,10.0119403 L143.469318,10.7104478 L143.469318,9.13880597 L146.492727,6.05373134 L156.817955,8.20746269 L156.817955,16.938806 L156.304545,16.938806 L156.304545,9.13880597 L147.063182,7.15970149 L147.063182,16.7059701 L147.348409,16.7059701 L147.348409,7.56716418 L147.747727,7.68358209 L147.747727,16.7641791 L155.677045,18.1029851 L155.677045,9.77910448 L148.204091,8.14925373 L148.204091,7.8 L155.962273,9.37164179 L155.962273,18.219403 L156.2475,18.219403 L156.2475,16.880597 L156.760909,16.880597 L156.760909,18.3358209 L157.559545,18.5104478 L157.559545,18.8597015 C157.025118,19.1753233 156.589813,19.6396974 156.304545,20.1985075 L146.720909,18.5686567 L143.583409,21.4208955 L143.583409,22.119403 L147.006136,19.2671642 L147.006136,20.1402985 C149.002727,21.5373134 148.603409,24.0402985 148.603409,24.0402985 L148.432273,23.8656716 L146.492727,25.3208955 L146.492727,25.961194 L148.546364,24.4477612 L154.079773,25.4955224 L154.079773,26.1940299 L153.794545,27.0089552 L153.794545,26.1358209 L148.546364,25.2044776 L148.546364,32.3641791 L148.032955,32.2477612 L146.435682,33.4701493 L146.435682,33.9940299 L148.09,32.8298507 L153.7375,33.6447761 L153.7375,34.4014925 L148.888636,33.761194 C149.367073,34.5344847 149.660219,35.4119222 149.744318,36.3223881 C149.801364,37.1373134 149.801364,37.8358209 149.801364,37.8358209 C150.116417,37.8358209 150.371818,38.0964313 150.371818,38.4179104 C150.371818,38.7393896 150.116417,39 149.801364,39 C149.516523,38.9782116 149.282045,38.7628771 149.230909,38.4761194 C149.116818,36.0895522 145.522955,34.2268657 145.522955,34.2268657 L145.522955,33.761194 L146.036364,33.2955224 L146.036364,25.961194 L145.694091,25.7865672 C145.237727,23.341791 142.784773,22.9925373 142.784773,22.9925373 L142.784773,22.1776119 L142.4425,22.4104478 C142.4425,22.4104478 141.643864,21.4208955 141.301591,21.3626866 L141.301591,20.9552239 L145.979318,17.1134328 L145.979318,16.7059701 L141.929091,19.9656716 L141.929091,17.2298507 L142.841818,17.2298507 L142.841818,18.6850746 L144.382045,17.4044776" id="Shape"></path>
          <polygon id="Shape" points="151.683864 11.0014925 151.683864 9.60447761 151.455682 9.54626866 151.455682 10.9432836"></polygon>
          <polygon id="Shape" points="150.657045 11.0597015 149.915455 9.72089552 149.744318 9.77910448 150.485909 11.1179104"></polygon>
          <polygon id="Shape" points="149.858409 11.5253731 148.660455 10.6522388 148.546364 10.7686567 149.744318 11.758209"></polygon>
          <polygon id="Shape" points="149.573182 12.4567164 148.147045 12.2238806 148.147045 12.4567164 149.573182 12.6895522"></polygon>
          <polygon id="Shape" points="149.744318 13.5044776 148.546364 13.9701493 148.660455 14.2029851 149.858409 13.7373134"></polygon>
          <polygon id="Shape" points="150.485909 14.4358209 149.744318 15.4253731 149.915455 15.6 150.657045 14.5522388"></polygon>
          <polygon id="Shape" points="151.455682 14.9014925 151.455682 16.2985075 151.683864 16.3567164 151.683864 14.9597015"></polygon>
          <polygon id="Shape" points="152.4825 14.9014925 153.167045 16.1820896 153.395227 16.1238806 152.653636 14.7850746"></polygon>
          <polygon id="Shape" points="153.224091 14.3776119 154.422045 15.2507463 154.536136 15.1343284 153.338182 14.1447761"></polygon>
          <polygon id="Shape" points="153.566364 13.4462687 154.9925 13.6791045 154.9925 13.4462687 153.566364 13.2134328"></polygon>
          <polygon id="Shape" points="153.338182 12.3985075 154.536136 11.9328358 154.422045 11.7 153.224091 12.1656716"></polygon>
          <polygon id="Shape" points="152.653636 11.4671642 153.338182 10.419403 153.11 10.3029851 152.4825 11.3507463"></polygon>
          <path d="M151.398636,12.5149254 L149.801364,11.1179104 C149.788516,11.0001151 149.726041,10.8938656 149.630227,10.8268657 L148.888636,10.419403 C149.044825,10.6632973 149.21632,10.8966208 149.402045,11.1179104 L149.687273,11.2343284 L151.170455,12.8059701 C151.181261,12.9405418 151.242569,13.0656597 151.341591,13.1552239 C151.490049,13.2823598 151.706541,13.2823598 151.855,13.1552239 C151.950952,12.9760901 151.902182,12.7521499 151.740909,12.6313433 L151.398636,12.5149254 Z" id="Shape"></path>
          <path d="M151.855,12.980597 L152.539545,12.4567164 L152.824773,12.4567164 L153.224091,11.9910448 L152.596591,12.1074627 C152.524699,12.1332585 152.478185,12.2044527 152.4825,12.2820896 L151.626818,12.5731343 C151.544953,12.5114225 151.440419,12.4900893 151.341591,12.5149254 C151.188489,12.6146665 151.138409,12.8190728 151.2275,12.980597 C151.327994,13.1663056 151.551316,13.2422649 151.740909,13.1552239 C151.834619,13.1143783 151.899857,13.0256218 151.912045,12.9223881 L151.855,12.980597 Z" id="Shape"></path>
        </g>
      </g>
    </g>
  </g>
</svg>
