<?xml version="1.0" encoding="UTF-8"?>
<svg xmlns="http://www.w3.org/2000/svg" xmlns:xlink="http://www.w3.org/1999/xlink" width="440px" height="66px" viewBox="0 0 440 66">
  <!-- Generator: Sketch 50.2 (55047) - http://www.bohemiancoding.com/sketch -->
  <title>hancock-whitney-bank-logo</title>
  <desc>Created with Sketch.</desc>
  <defs></defs>
  <g id="Design" stroke="none" stroke-width="1" fill="none" fill-rule="evenodd">
    <g id="Artboard" transform="translate(-722.000000, -818.000000)" fill="#1F54A5">
      <g id="hancock-whitney-bank-logo" transform="translate(722.000000, 817.000000)">
        <path d="M76.7,18.7 L76.7,29.5 L63.7,29.5 L63.7,18.7 C63.6162626,17.8167979 64.0965746,16.9762519 64.9,16.6 L55,16.6 C55.8034254,16.9762519 56.2837374,17.8167979 56.2,18.7 L56.2,46.2 C56.2300616,47.0707901 55.7654812,47.8838058 55,48.3 L64.9,48.3 C64.1165748,47.9023957 63.6448125,47.0768115 63.7,46.2 L63.7,32.2 L76.7,32.2 L76.7,46.2 C76.7375357,47.1001521 76.2224471,47.9322182 75.4,48.3 L85.3,48.3 C84.5345188,47.8838058 84.0699384,47.0707901 84.1,46.2 L84.1,18.7 C84.0162626,17.8167979 84.4965746,16.9762519 85.3,16.6 L75.4,16.6 C76.2426764,16.9442612 76.7676089,17.7922289 76.7,18.7 Z" id="Shape" fill-rule="nonzero"></path>
        <path d="M89,27.5 L89,34.2 C89.9,31.8 92.2,28.4 95.8,28.4 C99.4,28.4 99.1,30 99.1,32.2 C99.2485407,32.9557233 99.0253695,33.7368225 98.5,34.3 C96.9,35.5 92.1,36.1 89.7,37.6 C87.0930496,38.7309439 85.6894125,41.5841229 86.3844637,44.3395046 C87.079515,47.0948864 89.6685361,48.9409084 92.5,48.7 C95.0281721,48.6080306 97.4400887,47.6148884 99.3,45.9 C99.2992833,47.1883459 100.09549,48.3428451 101.3,48.8 L107.2,46.8 C105.8,46.4 105.9,45.9 105.9,44.6 L105.9,33.4 C105.9,26.4 100.3,25.8 97.7,25.8 C94.7107226,25.7253772 91.7413088,26.3056075 89,27.5 Z M92.7,41.8 C92.7,40 93.8,39.1 95.4,38.2 L98.9,36.8 L98.9,43.8 C98.083039,44.5575976 97.0140735,44.9851838 95.9,45 C95.0253117,45.0963192 94.1542026,44.7902708 93.5319659,44.1680341 C92.9097292,43.5457974 92.6036808,42.6746883 92.7,41.8 Z" id="Shape" fill-rule="nonzero"></path>
        <path d="M123.5,25.8 C120.850309,25.8268589 118.310797,26.8641245 116.4,28.7 L116.4,25.7 L108.1,26.8 C109.061457,27.0007933 109.684443,27.9352732 109.5,28.9 L109.5,46.3 C109.54102,47.1479351 109.067482,47.9371659 108.3,48.3 L117.5,48.3 C116.750444,47.9176711 116.284617,47.1412923 116.3,46.3 L116.3,31.7 C117.176214,30.5847477 118.484837,29.8940855 119.9,29.8 C123.7,29.8 123.7,32.9 123.7,34.7 L123.7,46.3 C123.770369,47.1550419 123.287564,47.9597177 122.5,48.3 L131.7,48.3 C130.932518,47.9371659 130.45898,47.1479351 130.5,46.3 L130.5,32.9 C130.7,28.3 127.6,25.8 123.5,25.8 Z" id="Shape" fill-rule="nonzero"></path>
        <path d="M146.3,45.1 C141.9,45.1 139.7,41.4 139.7,36.6 C139.7,31.8 141.9,28.8 145.1,28.8 C148.3,28.8 150,31.5 151,35 L151,27 C148.860508,26.3188468 146.642331,25.9155419 144.4,25.8 C135.8,25.8 132.5,32.5 132.5,37.2 C132.5,43.4 136.1,48.8 143.7,48.8 C149.5,48.8 152.1,44.6 152.1,42.5 C150.631254,44.1614127 148.517527,45.1089458 146.3,45.1 Z" id="Shape" fill-rule="nonzero"></path>
        <path d="M164.2,25.8 C156.7,25.8 152.7,31.3 152.7,37.6 C152.6,42.3 155.5,48.8 164.3,48.8 C171.2,48.8 175.8,43.8 175.8,37.3 C175.8,30.8 171.8,25.8 164.2,25.8 Z M163.9,28.3 C167.1,28.2 168.6,32.2 168.7,37.1 C168.8,42 167.2,46 164.3,46.1 C161.4,46.2 159.6,43.3 159.4,37.4 C159.2,31.5 160.9,28.4 163.9,28.3 Z" id="Shape" fill-rule="nonzero"></path>
        <path d="M191.2,45.1 C186.8,45.1 184.6,41.4 184.6,36.6 C184.6,31.8 186.8,28.8 190,28.8 C193.2,28.8 194.9,31.6 195.9,35 L195.9,27 C193.760777,26.317767 191.542459,25.9144365 189.3,25.8 C180.7,25.8 177.3,32.5 177.3,37.2 C177.3,43.4 180.9,48.8 188.5,48.8 C194.3,48.8 196.9,44.6 196.9,42.5 C195.454391,44.1353831 193.382631,45.0803962 191.2,45.1 Z" id="Shape" fill-rule="nonzero"></path>
        <path d="M211.6,34 L217.6,28.5 C218.527603,27.5833396 219.658153,26.8981574 220.9,26.5 L212.8,26.5 C214.1,27 214.3,27.8 212.9,29.2 L206.3,35.4 L206.3,16 L197.6,17.6 C198.4,17.9 199.3,18.1 199.3,19.6 L199.3,46.3 C199.34102,47.1479351 198.867482,47.9371659 198.1,48.3 L207.5,48.3 C206.732518,47.9371659 206.25898,47.1479351 206.3,46.3 L206.3,37.8 L212.8,46.5 C213.2,47.1 213.1,47.9 212.1,48.4 L223.8,48.4 C222.659441,48.085597 221.667319,47.3769386 221,46.4 L211.6,34 Z" id="Shape" fill-rule="nonzero"></path>
        <path d="M40.2,33.3 L27.5,26.1 C27.6267271,25.8165734 27.6947604,25.5104238 27.7,25.2 L41.9,31 C41.8023438,30.0226955 41.6352551,29.0535805 41.4,28.1 L27.8,24.2 C27.8255178,23.9005426 27.8255178,23.5994574 27.8,23.3 L40.4,25.1 C40.0841614,24.3100433 39.7167014,23.541718 39.3,22.8 L27.7,22.5 C27.6,22.2 27.5,21.8 27.4,21.5 L36.2,20.2 C36.4862681,20.2041626 36.7462167,20.0335802 36.8563314,19.7693048 C36.9664462,19.5050294 36.9045291,19.2003362 36.7,19 C32.882933,14.665615 27.4693631,12.0671014 21.7,11.8 L21.7,15.3 C21.6046206,15.5187679 21.3886558,15.6602084 21.15,15.6602084 C20.9113442,15.6602084 20.6953794,15.5187679 20.6,15.3 L20.6,11.8 C14.8306369,12.0671014 9.41706698,14.665615 5.6,19 C5.39547091,19.2003362 5.33355382,19.5050294 5.44366857,19.7693048 C5.55378332,20.0335802 5.81373191,20.2041626 6.1,20.2 L14.9,21.5 C14.7819351,21.8276449 14.681787,22.1614717 14.6,22.5 L3,22.8 C2.58304083,23.5415841 2.21557261,24.3099267 1.9,25.1 L14.5,23.3 C14.4718129,23.5993379 14.4718129,23.9006621 14.5,24.2 L0.8,28 C0.566361679,28.9539182 0.399292617,29.9229188 0.3,30.9 L14.5,25.1 C14.5078765,25.4101061 14.5757962,25.7157444 14.7,26 L2,33.3 C0.3,34.4 0.4,36 0.8,38.1 C2.41656696,44.7283867 7.09683397,50.1886982 13.4,52.8 L17.1,28.7 L20.7,28.7 L20.7,54.2 L21.9,54.2 L21.9,28.7 L25.5,28.7 L29.2,52.8 C35.3159139,50.095468 39.8251743,44.69914 41.4,38.2 C41.8,36 41.9,34.4 40.2,33.3 Z M17.8,20.6 L20.6,19.1 L20.6,18 C20.4903721,17.7485509 20.5652316,17.4547729 20.7818244,17.2864504 C20.9984171,17.1181278 21.3015829,17.1181278 21.5181756,17.2864504 C21.7347684,17.4547729 21.8096279,17.7485509 21.7,18 L21.7,19.2 L24.6,20.7 L24.6,21 L17.8,21 L17.8,20.6 Z M24.2,21.7 L24.2,24.1 L18.2,24.1 L18.2,21.7 L24.2,21.7 Z M26.3,28 L16,28 L16,25 L26.3,25 L26.3,28 Z" id="Shape"></path>
        <polygon id="Shape" points="18 49.9 18.9 50 19 47.7 18.2 47.7"></polygon>
        <polygon id="Shape" points="18.5 32.9 17.7 32.8 17.5 35.1 18.4 35.2"></polygon>
        <polygon id="Shape" points="24.1 40 24.2 42.3 25.1 42.2 24.9 39.9"></polygon>
        <path d="M311.1,51.6 L310.3,51.6 L302.9,26.5 L302.8,26.5 L296.1,51.6 L295.4,51.6 L287.4,25 C286.2,20.7 285.5,20.1 283.4,19.8 L283.4,19 L294.4,19 L294.4,19.8 C292.3,20.3 292.4,22.2 293.1,24.3 L297.7,39.7 L302,23.5 C301.2,20.8 300.5,20.3 298.5,19.8 L298.5,19 L309.3,19 L309.3,19.8 C307.7,20.4 307.4,21.8 308,23.5 L312.7,39.6 L312.8,39.6 L316.3,26.4 C317.3,22.8 317.4,20.5 314.7,19.8 L314.7,19 L322.6,19 L322.6,19.8 C320.5,20.1 319.2,22.3 317.8,27.1 L311.2,51.6 L311.1,51.6 Z" id="Shape"></path>
        <path d="M327.8,38.3 L327.8,46.4 C327.8,48.6 328.2,49.3 330.3,49.9 L330.3,50.6 L320.8,50.6 L320.8,49.9 C323.3,49.1 323.3,48.2 323.3,45.7 L323.3,29.4 C323.3,27.2 322.9,26.5 320.8,25.9 L320.8,25.2 L330.3,25.2 L330.3,25.9 C328.4,26.5 327.8,27.1 327.8,29.3 L327.8,36.4 L337.6,36.4 L337.6,29.4 C337.6,27.2 337.1,26.5 335,25.9 L335,25.2 L344.6,25.2 L344.6,25.9 C342.1,26.7 342,27.4 342,30.1 L342,46.4 C342,48.6 342.4,49.3 344.6,49.9 L344.6,50.6 L335,50.6 L335,49.9 C337.4,49.2 337.6,48.2 337.6,45.7 L337.6,38.3 L327.8,38.3 Z" id="Shape"></path>
        <path d="M354.6,46.4 C354.6,48.6 355,49.3 357.2,49.9 L357.2,50.6 L347.6,50.6 L347.6,49.9 C350.1,49.1 350.1,48.2 350.1,45.7 L350.1,29.4 C350.1,27.2 349.7,26.5 347.6,25.9 L347.6,25.2 L357.2,25.2 L357.2,25.9 C354.7,26.6 354.6,27.6 354.6,30.1 L354.6,46.4 Z" id="Shape"></path>
        <path d="M363.5,50.6 L363.5,49.9 C365.7,49.4 366.1,48.5 366.1,46.1 L366.1,26.6 L364,26.6 C361.6,26.6 360.2,27.8 359.5,30.8 L358.9,30.8 L359.1,24.7 L359.7,24.7 C359.971776,24.8894549 360.277256,25.0252236 360.6,25.1 L374.8,25.1 C375.504186,25.1663774 376.209896,24.9899497 376.8,24.6 L377.4,24.6 L377.6,30.7 L377.1,30.7 C376.4,27.8 374.9,26.5 372.5,26.5 L370.4,26.5 L370.4,46.2 C370.4,48.6 371,49.5 372.9,49.9 L372.9,50.6 L363.5,50.6 Z" id="Shape"></path>
        <path d="M397.8,50.9 L397.1,50.9 L382.5,30.3 L382.5,45.9 C382.5,48.7 383.2,49.4 385.5,50 L385.5,50.7 L378.4,50.7 L378.4,50 C380.6,49.6 381.1,48.1 381.1,45.6 L381.1,28.4 C379.5,26.4 379.2,26.1 378.4,25.9 L378.4,25.2 L384.5,25.2 L396.4,42.2 L396.4,30.8 C396.4,27.7 396,26.5 393.8,25.9 L393.8,25.2 L400.6,25.2 L400.6,25.9 C398.3,26.1 397.7,27.9 397.7,30.1 L397.7,50.9 L397.8,50.9 Z" id="Shape"></path>
        <path d="M416.3,41.8 L415.7,41.8 C415.5,39.6 414.6,38.6 412.9,38.6 L409.3,38.6 L409.3,46.1 C409.3,48.4 410.1,49.2 412.1,49.2 L413.3,49.2 C415.8,49.2 416.8,46.9 417.6,44.5 L418.1,44.5 L417.8,50.6 L402.2,50.6 L402.2,49.9 C404.5,49.3 404.8,48.4 404.8,45.8 L404.8,29.4 C404.8,27.2 404.4,26.4 402.2,25.9 L402.2,25.2 L417.5,25.2 L417.5,30.8 L417,30.8 C416.3,27.6 415.5,26.6 413.3,26.6 L409.4,26.6 L409.4,37.1 L413,37.1 C414.7,37.1 415.4,36.3 415.8,34 L416.4,34 L416.4,41.8 L416.3,41.8 Z" id="Shape"></path>
        <path d="M431.9,46.4 C431.9,48.6 432.4,49.4 434.5,49.9 L434.5,50.6 L424.9,50.6 L424.9,49.9 C426.8,49.6 427.5,48.4 427.5,46.2 L427.5,38.7 L422.2,28.6 C421.2,26.6 420.5,26.1 419.3,25.9 L419.3,25.2 L428.5,25.2 L428.5,25.9 C426.9,26 426.6,27 427.7,29 L431.1,35.8 L434.2,30.3 C435.3,28.2 435.2,26.6 433.4,25.9 L433.4,25.2 L439.7,25.2 L439.7,25.9 C438.7,26 437.6,26.9 436.7,28.7 L431.9,37.2 L431.9,46.3 L431.9,46.4 Z" id="Shape"></path>
        <polygon id="Shape" points="261.3 45 262.4 45.3 262.4 55.7 261.3 55.5 261.3 45"></polygon>
        <polygon id="Shape" points="263.3 45.4 264.4 45.6 264.4 55.9 263.3 55.8 263.3 45.4"></polygon>
        <polygon id="Shape" points="265.4 45.7 266.5 46 266.5 56.3 265.4 56.1 265.4 45.7"></polygon>
        <polygon id="Shape" points="267.4 46 268.5 46.2 268.5 56.5 267.4 56.4 267.4 46"></polygon>
        <path d="M263.3,5.4 L264.3,5.7 L264.3,6.8 L261.7,6.4 C261.130159,7.07602127 261.173636,8.07598762 261.8,8.7 L276.6,11.9 L276.3,12.2 C275.708315,12.5221959 275.222196,13.0083155 274.9,13.6 L256.6,9.8 L248,18.2 C247.485541,17.9010271 246.893796,17.7617929 246.3,17.8 L246.3,17.4 L256.2,7.5 L256.5,7.5 C258.2,7.4 259.8,4.8 259.8,4.8 L260.6,5 C259.873456,4.34248926 259.643273,3.29685686 260.026548,2.39503293 C260.409823,1.49320899 261.322386,0.933243511 262.3,1 C262.690269,0.970392201 263.0788,1.07635533 263.4,1.3 L263.1,1.3 C262.8,1.6 262.9,2.2 263.2,2.7 C263.5,3.2 264.1,3.4 264.3,3.1 C264.5,2.8 264.4,2.8 264.5,2.5 C264.6,2.2 264.6,3 264.6,3.2 C264.607177,4.14501064 264.059108,5.00626146 263.2,5.4 L263.3,5.4 Z" id="Shape"></path>
        <path d="M272,36.2 C271.114668,37.1712288 270.555226,38.3950084 270.4,39.7 L270.4,39.9 C270.86975,38.279138 272.04539,36.9565421 273.6,36.3 L273.6,35.1 L258.3,32.5 L258.3,34 L272,36.2 Z" id="Shape"></path>
        <path d="M253.1,29.9 L252.8,29.9 C251.4,29.9 250.5,28.9 250.5,25.4 L250.5,29.8 L248.9,29.8 L248.9,20.5 L248.1,19.9 L248.1,19 L251.5,15.6 L251.5,18.2 L250.5,19.4 L250.5,23.5 C250.7,21 251.6,18.1 252.5,17.2 L251.5,18.4 L251.5,15.7 L256.8,10.4 L274.9,14.1 L274.9,29.1 L274,29.1 L274,15.7 L257.8,12.3 L257.8,28.7 L258.3,28.7 L258.3,13 L259,13.2 L259,28.8 L272.9,31.1 L272.9,16.8 L259.8,14 L259.8,13.4 L273.4,16.1 L273.4,31.3 L273.9,31.3 L273.9,29 L274.8,29 L274.8,31.5 L276.2,31.8 L276.2,32.4 C275.263155,32.942222 274.50007,33.7399929 274,34.7 L257.2,31.9 L251.7,36.8 L251.7,38 L257.7,33.1 L257.7,34.6 C261.2,37 260.5,41.3 260.5,41.3 L260.2,41 L256.8,43.5 L256.8,44.6 L260.4,42 L270.1,43.8 L270.1,45 L269.6,46.4 L269.6,44.9 L260.4,43.3 L260.4,55.6 L259.5,55.4 L256.7,57.5 L256.7,58.4 L259.6,56.4 L269.5,57.8 L269.5,59.1 L261,58 C261.838693,59.3284737 262.352576,60.8358664 262.5,62.4 C262.6,63.8 262.6,65 262.6,65 C263.152285,65 263.6,65.4477153 263.6,66 C263.6,66.5522847 263.152285,67 262.6,67 C262.100677,66.9625686 261.68964,66.5926351 261.6,66.1 C261.4,62 255.1,58.8 255.1,58.8 L255.1,58 L256,57.2 L256,44.6 L255.4,44.3 C254.6,40.1 250.3,39.5 250.3,39.5 L250.3,38.1 L249.7,38.5 C249.7,38.5 248.3,36.8 247.7,36.7 L247.7,36 L255.9,29.4 L255.9,28.7 L248.8,34.3 L248.8,29.6 L250.4,29.6 L250.4,32.1 L253.1,29.9 Z" id="Shape"></path>
        <path d="M253.1,29.9 L252.8,29.9 C251.4,29.9 250.5,28.9 250.5,25.4 L250.5,29.8 L248.9,29.8 L248.9,20.5 L248.1,19.9 L248.1,19 L251.5,15.6 L251.5,18.2 L250.5,19.4 L250.5,23.5 C250.7,21 251.6,18.1 252.5,17.2 L251.5,18.4 L251.5,15.7 L256.8,10.4 L274.9,14.1 L274.9,29.1 L274,29.1 L274,15.7 L257.8,12.3 L257.8,28.7 L258.3,28.7 L258.3,13 L259,13.2 L259,28.8 L272.9,31.1 L272.9,16.8 L259.8,14 L259.8,13.4 L273.4,16.1 L273.4,31.3 L273.9,31.3 L273.9,29 L274.8,29 L274.8,31.5 L276.2,31.8 L276.2,32.4 C275.263155,32.942222 274.50007,33.7399929 274,34.7 L257.2,31.9 L251.7,36.8 L251.7,38 L257.7,33.1 L257.7,34.6 C261.2,37 260.5,41.3 260.5,41.3 L260.2,41 L256.8,43.5 L256.8,44.6 L260.4,42 L270.1,43.8 L270.1,45 L269.6,46.4 L269.6,44.9 L260.4,43.3 L260.4,55.6 L259.5,55.4 L256.7,57.5 L256.7,58.4 L259.6,56.4 L269.5,57.8 L269.5,59.1 L261,58 C261.838693,59.3284737 262.352576,60.8358664 262.5,62.4 C262.6,63.8 262.6,65 262.6,65 C263.152285,65 263.6,65.4477153 263.6,66 C263.6,66.5522847 263.152285,67 262.6,67 C262.100677,66.9625686 261.68964,66.5926351 261.6,66.1 C261.4,62 255.1,58.8 255.1,58.8 L255.1,58 L256,57.2 L256,44.6 L255.4,44.3 C254.6,40.1 250.3,39.5 250.3,39.5 L250.3,38.1 L249.7,38.5 C249.7,38.5 248.3,36.8 247.7,36.7 L247.7,36 L255.9,29.4 L255.9,28.7 L248.8,34.3 L248.8,29.6 L250.4,29.6 L250.4,32.1 L253.1,29.9" id="Shape" fill-rule="nonzero"></path>
        <polygon id="Shape" points="265.9 18.9 265.9 16.5 265.5 16.4 265.5 18.8 265.9 18.9"></polygon>
        <polygon id="Shape" points="264.1 19 262.8 16.7 262.5 16.8 263.8 19.1 264.1 19"></polygon>
        <polygon id="Shape" points="262.7 19.8 260.6 18.3 260.4 18.5 262.5 20.2 262.7 19.8"></polygon>
        <polygon id="Shape" points="262.2 21.4 259.7 21 259.7 21.4 262.2 21.8 262.2 21.4"></polygon>
        <polygon id="Shape" points="262.5 23.2 260.4 24 260.6 24.4 262.7 23.6 262.5 23.2"></polygon>
        <polygon id="Shape" points="263.8 24.8 262.5 26.5 262.8 26.8 264.1 25 263.8 24.8"></polygon>
        <polygon id="Shape" points="265.5 25.6 265.5 28 265.9 28.1 265.9 25.7 265.5 25.6"></polygon>
        <polygon id="Shape" points="267.3 25.6 268.5 27.8 268.9 27.7 267.6 25.4 267.3 25.6"></polygon>
        <polygon id="Shape" points="268.6 24.7 270.7 26.2 270.9 26 268.8 24.3 268.6 24.7"></polygon>
        <polygon id="Shape" points="269.2 23.1 271.7 23.5 271.7 23.1 269.2 22.7 269.2 23.1"></polygon>
        <polygon id="Shape" points="268.8 21.3 270.9 20.5 270.7 20.1 268.6 20.9 268.8 21.3"></polygon>
        <polygon id="Shape" points="267.6 19.7 268.8 17.9 268.4 17.7 267.3 19.5 267.6 19.7"></polygon>
        <path d="M265.4,21.5 L262.6,19.1 C262.577479,18.8976337 262.46796,18.7151025 262.3,18.6 L261,17.9 C261.273797,18.318998 261.574425,18.7198358 261.9,19.1 L262.4,19.3 L265,22 C265.018943,22.2311872 265.126416,22.4461334 265.3,22.6 C265.560246,22.818413 265.939754,22.818413 266.2,22.6 C266.368203,22.2922574 266.28271,21.9075396 266,21.7 L265.4,21.5 Z" id="Shape"></path>
        <path d="M266.2,22.3 L267.4,21.4 L267.9,21.4 L268.6,20.6 L267.5,20.8 C267.373974,20.8443158 267.292435,20.9666238 267.3,21.1 L265.8,21.6 C265.656492,21.4939823 265.473245,21.4573329 265.3,21.5 C265.031615,21.6713501 264.943825,22.0225097 265.1,22.3 C265.276164,22.6190379 265.667646,22.749532 266,22.6 C266.164273,22.5298294 266.278633,22.3773503 266.3,22.2 L266.2,22.3 Z" id="Shape"></path>
      </g>
    </g>
  </g>
</svg>
