<?xml version="1.0" encoding="UTF-8"?>
<svg xmlns="http://www.w3.org/2000/svg" xmlns:xlink="http://www.w3.org/1999/xlink" width="135px" height="139px" viewBox="0 0 135 139">
  <!-- Generator: Sketch 50.2 (55047) - http://www.bohemiancoding.com/sketch -->
  <title>hancock-whitney-logo</title>
  <desc>Created with Sketch.</desc>
  <defs></defs>
  <g id="Design" stroke="none" stroke-width="1" fill="none" fill-rule="evenodd">
    <g id="home" transform="translate(-1146.000000, -1231.000000)" fill-rule="nonzero">
      <g id="hancock-whitney-logo" transform="translate(1146.000000, 1231.000000)">
        <ellipse id="Oval" fill="#FFFFFF" cx="67.5" cy="68.5945946" rx="67.5" ry="68.5945946"></ellipse>
        <g id="Group" transform="translate(0.000000, 1.270270)" fill="#BFBFBF">
          <path d="M22.625,59.1945946 C23.25,57.2891892 23.375,56.7810811 22.625,56.527027 L12.5,52.2081081 C11.875,51.9540541 11.5,52.3351351 10.625,54.1135135 L9.625,53.7324324 L12.375,47 L13.375,47.5081081 C12.625,49.4135135 12.75,49.6675676 13.5,49.9216216 L17.75,51.7 L20.5,45.0945946 L16.25,43.3162162 C15.5,43.0621622 15.375,43.0621622 14.5,44.9675676 L13.5,44.5864865 L16.25,37.9810811 L17.25,38.3621622 C16.625,40.2675676 16.5,40.7756757 17.25,41.0297297 L27.375,45.3486486 C28,45.6027027 28.375,45.2216216 29.25,43.4432432 L30.25,43.8243243 L27.5,50.5567568 L26.5,50.1756757 C27.25,48.2702703 27.125,48.0162162 26.375,47.7621622 L21.625,45.7297297 L19,52.3351351 L23.75,54.3675676 C24.5,54.6216216 24.625,54.6216216 25.5,52.7162162 L26.5,53.2243243 L23.75,59.5756757 L22.625,59.1945946 Z M33.75,30.4864865 L28.625,27.6918919 L28.5,27.8189189 L30.75,33.4081081 L33.75,30.4864865 Z M35,31.1216216 L31.25,34.8054054 L32.125,36.8378378 C32.75,38.3621622 32.875,38.8702703 34.625,37.727027 L35.375,38.4891892 L31.625,42.0459459 L30.875,41.2837838 C31.75,39.8864865 31.5,39.1243243 30.875,37.3459459 L26.25,25.6594595 L27.5,24.5162162 L39.375,30.6135135 C40.625,31.2486486 41.125,31.2486486 42.5,30.1054054 L43.25,30.8675676 L38.25,35.6945946 L37.5,34.9324324 C38.875,33.4081081 38.625,32.9 37.625,32.3918919 L35,31.1216216 Z M44.625,17.4027027 L44.375,17.5297297 L47.125,25.2783784 C47.875,27.4378378 48.25,27.8189189 50.5,27.3108108 L50.875,28.327027 L45.125,30.4864865 L44.75,29.4702703 C46.625,28.327027 46.625,27.5648649 45.875,25.4054054 L43,17.2756757 C42.75,16.3864865 42,15.8783784 40.25,16.6405405 L39.875,15.4972973 L44.25,13.8459459 L55.75,21.9756757 L56,21.8486486 L53.375,14.4810811 C52.625,12.4486486 52.25,12.4486486 50,12.9567568 L49.625,11.9405405 L55.5,9.65405405 L55.875,10.6702703 C54,11.8135135 54,11.9405405 54.75,13.972973 L59,25.7864865 L57.75,26.2945946 L44.625,17.4027027 Z M61.5,16.7675676 C61.625,12.0675676 65.125,8.51081081 69.5,8.63783784 C71.125,8.63783784 72.25,9.27297297 73.125,9.78108108 L73.875,8.76486486 L74.875,8.76486486 L74.75,14.227027 L74,14.227027 C73,11.5594595 71.625,10.0351351 69.375,9.90810811 C66.75,9.90810811 64.375,12.1945946 64.25,16.6405405 C64.125,20.8324324 66.75,23.1189189 69.5,23.1189189 C72.125,23.1189189 73.25,21.8486486 74.25,19.9432432 L75.25,20.4513514 C74.25,22.7378378 72.25,24.8972973 68.875,24.7702703 C64.5,24.7702703 61.375,21.5945946 61.5,16.7675676 Z M90.5,22.1027027 C92.25,17.7837838 91.125,15.1162162 88.5,13.972973 C85.875,12.9567568 83.5,14.227027 81.75,18.5459459 C80.125,22.9918919 81.25,25.6594595 83.75,26.6756757 C86.375,27.6918919 88.75,26.4216216 90.5,22.1027027 Z M79.25,17.6567568 C81,13.0837838 85.25,11.3054054 89,12.8297297 C92.875,14.3540541 94.75,18.4189189 92.875,23.1189189 C91.125,27.8189189 86.875,29.4702703 83.125,27.9459459 C79.375,26.2945946 77.5,22.2297297 79.25,17.6567568 Z M96.5,25.6594595 C99.625,22.1027027 104.625,21.8486486 107.875,24.8972973 C109.125,26.0405405 109.5,27.1837838 109.875,28.072973 L111,27.8189189 L111.75,28.4540541 L108.125,32.5189189 L107.5,32.0108108 C108.5,29.3432432 108.5,27.3108108 106.75,25.6594595 C104.75,23.8810811 101.5,24.0081081 98.5,27.3108108 C95.75,30.4864865 96.25,33.7891892 98.25,35.6945946 C100.25,37.472973 101.875,37.2189189 103.875,36.4567568 L104.25,37.472973 C102,38.4891892 99.125,38.7432432 96.625,36.4567568 C93.5,33.6621622 93.375,29.2162162 96.5,25.6594595 Z M118.625,45.8567568 C120,46.3648649 120.5,45.9837838 120,44.3324324 L121,43.8243243 L123.625,49.4135135 L122.625,49.9216216 C121.75,48.5243243 121,48.0162162 119,47.2540541 L115,45.7297297 L111.625,52.3351351 C110.875,53.7324324 110.5,54.2405405 111.125,56.272973 L110.125,56.7810811 L107.125,50.5567568 L108.125,50.0486486 C109,51.3189189 109.5,51.572973 110.25,50.3027027 L113,45.0945946 L110.875,44.3324324 L107.375,46.1108108 C106.75,46.4918919 106.625,46.6189189 107.375,48.2702703 L106.25,48.6513514 L103.25,42.427027 L104.25,41.9189189 C105.125,43.6972973 105.625,44.0783784 106.25,43.6972973 L116.125,38.7432432 C116.75,38.3621622 116.75,37.8540541 116,36.0756757 L117,35.5675676 L120.125,42.0459459 L119.125,42.5540541 C118.125,40.6486486 118,40.6486486 117.25,41.0297297 L112,43.5702703 L118.625,45.8567568 Z" id="Shape"></path>
          <path d="M86.375,64.6567568 L81.375,52.8432432 L91.25,52.8432432 L86.375,64.6567568 Z M76.625,88.2837838 L66.625,64.6567568 L61.75,76.4702703 L66.75,88.2837838 L56.875,88.2837838 L41.875,52.8432432 L51.75,52.8432432 L56.75,64.6567568 L66.625,64.6567568 L61.625,52.8432432 L71.5,52.8432432 L86.5,88.2837838 L76.625,88.2837838 Z M67.125,29.5972973 C45.75,29.7243243 28.5,47.3810811 28.625,68.9756757 C28.75,90.6972973 46.125,108.1 67.375,108.1 C88.75,107.972973 105.875,90.3162162 105.875,68.7216216 C105.875,47 88.5,29.4702703 67.125,29.5972973 Z" id="Shape"></path>
          <g transform="translate(0.000000, 0.057162)" id="Shape">
            <path d="M67.625,134.521622 C31.875,134.648649 2.875,105.305405 2.625,69.1027027 C2.5,32.9 31.375,3.3027027 67,3.17567568 C102.625,3.04864865 131.75,32.3918919 131.875,68.5945946 C132.125,104.797297 103.25,134.267568 67.625,134.521622 M67,0.381081081 C29.875,0.508108108 -0.125,31.3756757 -5.32912473e-15,69.1027027 C0.125,106.82973 30.5,137.316216 67.625,137.189189 C104.75,137.062162 134.75,106.194595 134.625,68.4675676 C134.5,30.7405405 104.125,0.254054054 67,0.381081081"></path>
          </g>
          <path d="M24.75,90.1891892 C25.5,89.3 25.625,88.9189189 25.125,87.3945946 L26,86.8864865 L29.125,92.4756757 L28.25,92.9837838 C27.375,91.7135135 26.75,91.5864865 26.25,92.0945946 L19.5,99.2081081 L19.625,99.3351351 L27.5,97.8108108 C29.875,97.3027027 30.25,97.3027027 29.5,95.1432432 L30.375,94.6351351 L33.125,99.5891892 L32.25,100.097297 C31.25,98.827027 30.5,98.7 28.25,99.0810811 L16.25,101.367568 L15.625,100.097297 L22.75,92.3486486 L12.125,94 L11.5,92.7297297 L20.875,82.8216216 C21.625,82.0594595 21.625,81.5513514 21.125,79.9 L22,79.3918919 L25.125,85.1081081 L24.25,85.6162162 C23.375,84.3459459 22.875,84.2189189 22.25,84.9810811 L15.5,91.8405405 L15.625,91.9675676 L24.125,90.8243243 L24.75,90.1891892 Z M26.375,112.291892 C28,113.308108 28.5,113.435135 29,112.927027 L35.25,103.781081 C35.625,103.145946 35.375,102.764865 33.75,101.494595 L34.375,100.605405 L40.125,104.67027 L39.5,105.559459 C37.75,104.416216 37.5,104.416216 37.125,105.051351 L34.5,108.862162 L40.25,112.927027 L42.875,109.116216 C43.375,108.481081 43.25,108.227027 41.625,106.956757 L42.25,106.067568 L48,110.132432 L47.5,111.275676 C45.875,110.259459 45.375,110.132432 44.875,110.640541 L38.625,119.786486 C38.25,120.421622 38.5,120.802703 40.125,122.072973 L39.5,122.962162 L33.75,118.897297 L34.375,118.008108 C36.125,119.151351 36.375,119.151351 36.75,118.516216 L39.625,114.197297 L33.875,110.132432 L30.875,114.324324 C30.375,114.959459 30.5,115.213514 32.125,116.483784 L31.5,117.372973 L25.75,113.308108 L26.375,112.291892 Z M46.5,125.121622 C48.375,125.62973 49,125.502703 49.125,124.867568 L52.25,114.07027 C52.5,113.308108 52,113.054054 50.125,112.418919 L50.5,111.275676 L57.5,113.308108 L57.125,114.451351 C55.25,113.943243 54.625,114.07027 54.5,114.705405 L51.375,125.502703 C51.125,126.264865 51.625,126.518919 53.5,127.154054 L53.125,128.297297 L46.125,126.264865 L46.5,125.121622 Z M63,127.916216 C65.125,127.789189 65.625,127.662162 65.625,126.9 L65.625,114.832432 L64.75,114.832432 C62.5,114.832432 62,115.848649 61.125,118.643243 L60.125,118.643243 L60.375,113.562162 L73.375,113.562162 L73.5,118.643243 L72.5,118.643243 C71.75,115.975676 71.125,114.832432 68.875,114.832432 L68,114.832432 L68,126.9 C68,127.662162 68.5,127.789189 70.625,127.916216 L70.625,129.059459 L63,129.059459 L63,127.916216 Z M103.75,114.705405 C105.125,113.181081 105.25,112.672973 104.75,112.164865 L96.875,104.289189 C96.375,103.781081 95.875,104.035135 94.375,105.305405 L93.625,104.543243 L102.5,95.3972973 L106,98.827027 L105.375,99.5891892 C103,98.3189189 102,97.9378378 100.25,99.8432432 L98.125,102.12973 L102,105.940541 L102.75,105.178378 C104,103.908108 104.25,103.527027 103,101.367568 L103.625,100.732432 L108.125,105.305405 L107.5,105.940541 C105.375,104.67027 104.875,104.924324 103.75,106.194595 L103,106.956757 L107.25,111.275676 L109.375,108.989189 C111.5,106.82973 111.125,105.305405 109.75,102.891892 L110.375,102.256757 L114,106.067568 L104.5,115.594595 L103.75,114.705405 Z M112.625,85.2351351 C111.625,83.4567568 111.125,83.2027027 110,84.727027 L109.125,84.2189189 L111.75,79.3918919 L112.625,79.9 C112.25,81.1702703 112.125,81.8054054 113.25,83.7108108 L116.5,89.427027 L120.25,91.4594595 C120.875,91.8405405 121.25,91.5864865 122.25,89.8081081 L123.25,90.3162162 L119.75,96.5405405 L118.75,96.0324324 C119.625,94.2540541 119.625,93.872973 119,93.4918919 L115.25,91.4594595 L107.75,91.5864865 C106.75,91.5864865 106.375,91.8405405 105.375,92.9837838 L104.5,92.4756757 L107.75,86.5054054 L108.625,87.0135135 C107.75,88.9189189 108.125,89.172973 109.125,89.172973 L114.75,89.172973 L112.625,85.2351351 Z M81.375,114.705405 L81.125,114.832432 L84.375,122.072973 C85.25,124.105405 85.625,124.486486 87.875,123.851351 L88.375,124.867568 L82.75,127.408108 L82.25,126.391892 C84,125.248649 83.875,124.359459 83,122.454054 L79.625,114.832432 C79.25,114.07027 78.625,113.562162 76.875,114.324324 L76.375,113.308108 L80.625,111.402703 L92.625,118.389189 L92.875,118.262162 L89.75,111.275676 C88.875,109.37027 88.5,109.37027 86.375,110.005405 L85.875,108.989189 L91.5,106.448649 L92,107.464865 C90.25,108.735135 90.25,108.862162 91.125,110.767568 L96.125,121.818919 L94.875,122.327027 L81.375,114.705405 Z" id="Shape"></path>
        </g>
      </g>
    </g>
  </g>
</svg>
