<?xml version="1.0" encoding="UTF-8"?>
<!-- Generator: Adobe Illustrator 22.1.0, SVG Export Plug-In . SVG Version: 6.00 Build 0)  -->
<svg xmlns="http://www.w3.org/2000/svg" xmlns:xlink="http://www.w3.org/1999/xlink" id="Layer_1" x="0px" y="0px" viewBox="0 0 108 110" style="enable-background:new 0 0 108 110;" xml:space="preserve">
<style type="text/css">
	.st0{fill:#FFFFFF;}
	.st1{fill:#BFBFBF;}
	.st2{filter:url(#Adobe_OpacityMaskFilter);}
	.st3{mask:url(#hancock-whitney-logo-b_1_);fill:#BFBFBF;}
</style>
<g>
	<circle class="st0" cx="54" cy="54" r="54"></circle>
	<g transform="translate(0 1)">
		<path class="st1" d="M18.1,46.6c0.5-1.5,0.6-1.9,0-2.1l-8.1-3.4c-0.5-0.2-0.8,0.1-1.5,1.5l-0.8-0.3L9.9,37l0.8,0.4    c-0.6,1.5-0.5,1.7,0.1,1.9l3.4,1.4l2.2-5.2l-3.4-1.4c-0.6-0.2-0.7-0.2-1.4,1.3l-0.8-0.3l2.2-5.2l0.8,0.3c-0.5,1.5-0.6,1.9,0,2.1    l8.1,3.4c0.5,0.2,0.8-0.1,1.5-1.5l0.8,0.3L22,39.8l-0.8-0.3c0.6-1.5,0.5-1.7-0.1-1.9L17.3,36l-2.1,5.2l3.8,1.6    c0.6,0.2,0.7,0.2,1.4-1.3l0.8,0.4L19,46.9L18.1,46.6z M27,24l-4.1-2.2l-0.1,0.1l1.8,4.4L27,24z M28,24.5l-3,2.9l0.7,1.6    c0.5,1.2,0.6,1.6,2,0.7l0.6,0.6l-3,2.8l-0.6-0.6c0.7-1.1,0.5-1.7,0-3.1l-3.7-9.2l1-0.9l9.5,4.8c1,0.5,1.4,0.5,2.5-0.4l0.6,0.6    l-4,3.8l-0.6-0.6c1.1-1.2,0.9-1.6,0.1-2L28,24.5z M35.7,13.7l-0.2,0.1l2.2,6.1c0.6,1.7,0.9,2,2.7,1.6l0.3,0.8L36.1,24l-0.3-0.8    c1.5-0.9,1.5-1.5,0.9-3.2l-2.3-6.4c-0.2-0.7-0.8-1.1-2.2-0.5l-0.3-0.9l3.5-1.3l9.2,6.4l0.2-0.1l-2.1-5.8c-0.6-1.6-0.9-1.6-2.7-1.2    l-0.3-0.8l4.7-1.8l0.3,0.8c-1.5,0.9-1.5,1-0.9,2.6l3.4,9.3l-1,0.4L35.7,13.7z M49.2,13.2c0.1-3.7,2.9-6.5,6.4-6.4    c1.3,0,2.2,0.5,2.9,0.9l0.6-0.8l0.8,0l-0.1,4.3l-0.6,0c-0.8-2.1-1.9-3.3-3.7-3.4c-2.1,0-4,1.8-4.1,5.3c-0.1,3.3,2,5.1,4.2,5.1    c2.1,0,3-1,3.8-2.5l0.8,0.4c-0.8,1.8-2.4,3.5-5.1,3.4C51.6,19.5,49.1,17,49.2,13.2 M72.4,17.4c1.4-3.4,0.5-5.5-1.6-6.4    c-2.1-0.8-4,0.2-5.4,3.6C64.1,18.1,65,20.2,67,21C69.1,21.8,71,20.8,72.4,17.4 M63.4,13.9c1.4-3.6,4.8-5,7.8-3.8    c3.1,1.2,4.6,4.4,3.1,8.1c-1.4,3.7-4.8,5-7.8,3.8C63.5,20.7,62,17.5,63.4,13.9 M77.2,20.2c2.5-2.8,6.5-3,9.1-0.6    c1,0.9,1.3,1.8,1.6,2.5l0.9-0.2l0.6,0.5l-2.9,3.2L86,25.2c0.8-2.1,0.8-3.7-0.6-5c-1.6-1.4-4.2-1.3-6.6,1.3    c-2.2,2.5-1.8,5.1-0.2,6.6c1.6,1.4,2.9,1.2,4.5,0.6l0.3,0.8c-1.8,0.8-4.1,1-6.1-0.8C74.8,26.5,74.7,23,77.2,20.2 M94.9,36.1    c1.1,0.4,1.5,0.1,1.1-1.2l0.8-0.4l2.1,4.4l-0.8,0.4c-0.7-1.1-1.3-1.5-2.9-2.1L92,36l-2.7,5.2c-0.6,1.1-0.9,1.5-0.4,3.1l-0.8,0.4    l-2.4-4.9l0.8-0.4c0.7,1,1.1,1.2,1.7,0.2l2.2-4.1l-1.7-0.6l-2.8,1.4c-0.5,0.3-0.6,0.4,0,1.7L85,38.3l-2.4-4.9l0.8-0.4    c0.7,1.4,1.1,1.7,1.6,1.4l7.9-3.9c0.5-0.3,0.5-0.7-0.1-2.1l0.8-0.4l2.5,5.1l-0.8,0.4c-0.8-1.5-0.9-1.5-1.5-1.2l-4.2,2L94.9,36.1z"></path>
		<path class="st1" d="M69.1,50.9l-4-9.3l7.9,0L69.1,50.9z M61.3,69.5l-8-18.6l-3.9,9.3l4,9.3l-7.9,0l-12-27.9l7.9,0l4,9.3l7.9,0    l-4-9.3l7.9,0l12,27.9L61.3,69.5z M53.7,23.3c-17.1,0.1-30.9,14-30.8,31c0.1,17.1,14,30.8,31,30.8c17.1-0.1,30.8-14,30.8-31    C84.7,37,70.8,23.2,53.7,23.3z"></path>
		<g transform="translate(0 .045)">
			<defs>
				<filter id="Adobe_OpacityMaskFilter" filterUnits="userSpaceOnUse" x="0" y="0.3" width="107.7" height="107.7">
					<feColorMatrix type="matrix" values="1 0 0 0 0  0 1 0 0 0  0 0 1 0 0  0 0 0 1 0"></feColorMatrix>
				</filter>
			</defs>
			<mask maskUnits="userSpaceOnUse" x="0" y="0.3" width="107.7" height="107.7" id="hancock-whitney-logo-b_1_">
				<g class="st2">
					<polygon id="hancock-whitney-logo-a_1_" class="st0" points="0,0.3 107.7,0.3 107.7,108 0,108      "></polygon>
				</g>
			</mask>
			<path class="st3" d="M54.1,105.9C25.5,106,2.3,82.9,2.1,54.4C2,25.9,25.1,2.6,53.6,2.5c28.5-0.1,51.8,23,51.9,51.5     C105.7,82.5,82.6,105.7,54.1,105.9 M53.6,0.3C23.9,0.4-0.1,24.7,0,54.4c0.1,29.7,24.4,53.7,54.1,53.6     c29.7-0.1,53.7-24.4,53.6-54.1C107.6,24.2,83.3,0.2,53.6,0.3"></path>
		</g>
		<path class="st1" d="M19.8,71c0.6-0.7,0.7-1,0.3-2.2l0.7-0.4l2.5,4.4l-0.7,0.4c-0.7-1-1.2-1.1-1.6-0.7l-5.4,5.6l0.1,0.1L22,77    c1.9-0.4,2.2-0.4,1.6-2.1l0.7-0.4l2.2,3.9l-0.7,0.4c-0.8-1-1.4-1.1-3.2-0.8l-9.6,1.8l-0.5-1l5.7-6.1L9.7,74l-0.5-1l7.5-7.8    c0.6-0.6,0.6-1,0.2-2.3l0.7-0.4l2.5,4.5l-0.7,0.4c-0.7-1-1.1-1.1-1.6-0.5l-5.4,5.4l0.1,0.1l6.8-0.9L19.8,71z M21.1,88.4    c1.3,0.8,1.7,0.9,2.1,0.5l5-7.2c0.3-0.5,0.1-0.8-1.2-1.8l0.5-0.7l4.6,3.2l-0.5,0.7c-1.4-0.9-1.6-0.9-1.9-0.4l-2.1,3l4.6,3.2l2.1-3    c0.4-0.5,0.3-0.7-1-1.7l0.5-0.7l4.6,3.2L38,87.6c-1.3-0.8-1.7-0.9-2.1-0.5l-5,7.2c-0.3,0.5-0.1,0.8,1.2,1.8l-0.5,0.7l-4.6-3.2    l0.5-0.7c1.4,0.9,1.6,0.9,1.9,0.4l2.3-3.4l-4.6-3.2L24.7,90c-0.4,0.5-0.3,0.7,1,1.7l-0.5,0.7l-4.6-3.2L21.1,88.4z M37.2,98.5    c1.5,0.4,2,0.3,2.1-0.2l2.5-8.5c0.2-0.6-0.2-0.8-1.7-1.3l0.3-0.9l5.6,1.6l-0.3,0.9c-1.5-0.4-2-0.3-2.1,0.2l-2.5,8.5    c-0.2,0.6,0.2,0.8,1.7,1.3l-0.3,0.9l-5.6-1.6L37.2,98.5z M50.4,100.7c1.7-0.1,2.1-0.2,2.1-0.8l0-9.5l-0.7,0c-1.8,0-2.2,0.8-2.9,3    l-0.8,0l0.2-4l10.4,0l0.1,4l-0.8,0c-0.6-2.1-1.1-3-2.9-3l-0.7,0l0,9.5c0,0.6,0.4,0.7,2.1,0.8l0,0.9l-6.1,0L50.4,100.7z M83,90.3    c1.1-1.2,1.2-1.6,0.8-2l-6.3-6.2c-0.4-0.4-0.8-0.2-2,0.8l-0.6-0.6l7.1-7.2l2.8,2.7l-0.5,0.6c-1.9-1-2.7-1.3-4.1,0.2l-1.7,1.8    l3.1,3l0.6-0.6c1-1,1.2-1.3,0.2-3l0.5-0.5l3.6,3.6l-0.5,0.5c-1.7-1-2.1-0.8-3,0.2l-0.6,0.6l3.4,3.4l1.7-1.8    c1.7-1.7,1.4-2.9,0.3-4.8l0.5-0.5l2.9,3L83.6,91L83,90.3z M90.1,67.1c-0.8-1.4-1.2-1.6-2.1-0.4l-0.7-0.4l2.1-3.8l0.7,0.4    c-0.3,1-0.4,1.5,0.5,3l2.6,4.5l3,1.6c0.5,0.3,0.8,0.1,1.6-1.3l0.8,0.4L95.8,76L95,75.6c0.7-1.4,0.7-1.7,0.2-2l-3-1.6l-6,0.1    c-0.8,0-1.1,0.2-1.9,1.1l-0.7-0.4l2.6-4.7l0.7,0.4c-0.7,1.5-0.4,1.7,0.4,1.7l4.5,0L90.1,67.1z M65.1,90.3l-0.2,0.1l2.6,5.7    c0.7,1.6,1,1.9,2.8,1.4l0.4,0.8l-4.5,2l-0.4-0.8c1.4-0.9,1.3-1.6,0.6-3.1l-2.7-6c-0.3-0.6-0.8-1-2.2-0.4l-0.4-0.8l3.4-1.5l9.6,5.5    l0.2-0.1l-2.5-5.5c-0.7-1.5-1-1.5-2.7-1l-0.4-0.8l4.5-2l0.4,0.8c-1.4,1-1.4,1.1-0.7,2.6l4,8.7l-1,0.4L65.1,90.3z"></path>
	</g>
</g>
</svg>
