<?xml version="1.0" encoding="UTF-8"?>
<svg xmlns="http://www.w3.org/2000/svg" viewBox="0 0 450 100">
  <title>Artboard 1</title>
  <path d="M81.7,34.7V45.5h-13V34.7a2.1,2.1,0,0,1,1.2-2.1H60a2.1,2.1,0,0,1,1.2,2.1V62.2A2.3,2.3,0,0,1,60,64.3h9.9a2.2,2.2,0,0,1-1.2-2.1v-14h13v14a2.2,2.2,0,0,1-1.3,2.1h9.9a2.3,2.3,0,0,1-1.2-2.1V34.7a2.1,2.1,0,0,1,1.2-2.1H80.4A2.1,2.1,0,0,1,81.7,34.7Z" style="fill:#1f54a5"></path>
  <path d="M94,43.5v6.7c.9-2.4,3.2-5.8,6.8-5.8s3.3,1.6,3.3,3.8a2.4,2.4,0,0,1-.6,2.1c-1.6,1.2-6.4,1.8-8.8,3.3a5.8,5.8,0,0,0,2.8,11.1,10.6,10.6,0,0,0,6.8-2.8,3.1,3.1,0,0,0,2,2.9l5.9-2c-1.4-.4-1.3-.9-1.3-2.2V49.4c0-7-5.6-7.6-8.2-7.6A20.5,20.5,0,0,0,94,43.5Zm3.7,14.3c0-1.8,1.1-2.7,2.7-3.6l3.5-1.4v7a4.5,4.5,0,0,1-3,1.2A2.9,2.9,0,0,1,97.7,57.8Z" style="fill:#1f54a5"></path>
  <path d="M128.5,41.8a10.4,10.4,0,0,0-7.1,2.9v-3l-8.3,1.1a1.8,1.8,0,0,1,1.4,2.1V62.3a2.1,2.1,0,0,1-1.2,2h9.2a2.2,2.2,0,0,1-1.2-2V47.7a5,5,0,0,1,3.6-1.9c3.8,0,3.8,3.1,3.8,4.9V62.3a2,2,0,0,1-1.2,2h9.2a2.1,2.1,0,0,1-1.2-2V48.9C135.7,44.3,132.6,41.8,128.5,41.8Z" style="fill:#1f54a5"></path>
  <path d="M151.3,61.1c-4.4,0-6.6-3.7-6.6-8.5s2.2-7.8,5.4-7.8S155,47.5,156,51V43a26.2,26.2,0,0,0-6.6-1.2c-8.6,0-11.9,6.7-11.9,11.4,0,6.2,3.6,11.6,11.2,11.6,5.8,0,8.4-4.2,8.4-6.3A7.7,7.7,0,0,1,151.3,61.1Z" style="fill:#1f54a5"></path>
  <path d="M169.2,41.8c-7.5,0-11.5,5.5-11.5,11.8-.1,4.7,2.8,11.2,11.6,11.2,6.9,0,11.5-5,11.5-11.5S176.8,41.8,169.2,41.8Zm-.3,2.5c3.2-.1,4.7,3.9,4.8,8.8s-1.5,8.9-4.4,9-4.7-2.8-4.9-8.7S165.9,44.4,168.9,44.3Z" style="fill:#1f54a5"></path>
  <path d="M196.2,61.1c-4.4,0-6.6-3.7-6.6-8.5s2.2-7.8,5.4-7.8,4.9,2.8,5.9,6.2V43a26.1,26.1,0,0,0-6.6-1.2c-8.6,0-12,6.7-12,11.4,0,6.2,3.6,11.6,11.2,11.6,5.8,0,8.4-4.2,8.4-6.3A7.7,7.7,0,0,1,196.2,61.1Z" style="fill:#1f54a5"></path>
  <path d="M216.6,50l6-5.5a8.3,8.3,0,0,1,3.3-2h-8.1c1.3.5,1.5,1.3.1,2.7l-6.6,6.2V32l-8.7,1.6c.8.3,1.7.5,1.7,2V62.3a2.1,2.1,0,0,1-1.2,2h9.4a2.1,2.1,0,0,1-1.2-2V53.8l6.5,8.7c.4.6.3,1.4-.7,1.9h11.7a5,5,0,0,1-2.8-2Z" style="fill:#1f54a5"></path>
  <path d="M45.2,49.3,32.5,42.1a2.3,2.3,0,0,0,.2-.9l14.2,5.8a20.7,20.7,0,0,0-.5-2.9L32.8,40.2a5.3,5.3,0,0,0,0-.9l12.6,1.8a19.4,19.4,0,0,0-1.1-2.3l-11.6-.3c-.1-.3-.2-.7-.3-1l8.8-1.3a.7.7,0,0,0,.5-1.2,21.3,21.3,0,0,0-15-7.2v3.5a.6.6,0,0,1-1.1,0V27.8a21.3,21.3,0,0,0-15,7.2.7.7,0,0,0,.5,1.2l8.8,1.3a9.6,9.6,0,0,0-.3,1l-11.6.3a19.3,19.3,0,0,0-1.1,2.3l12.6-1.8a4.8,4.8,0,0,0,0,.9L5.8,44a21.2,21.2,0,0,0-.5,2.9l14.2-5.8a2.4,2.4,0,0,0,.2.9L7,49.3C5.3,50.4,5.4,52,5.8,54.1A21.4,21.4,0,0,0,18.4,68.8l3.7-24.1h3.6V70.2h1.2V44.7h3.6l3.7,24.1A21.5,21.5,0,0,0,46.4,54.2C46.8,52,46.9,50.4,45.2,49.3ZM22.8,36.6l2.8-1.5V34a.6.6,0,1,1,1.1,0v1.2l2.9,1.5v.3H22.8Zm6.4,1.1v2.4H23.2V37.7ZM31.3,44H21v-3H31.3Z" style="fill:#1f54a5;fill-rule:evenodd"></path>
  <polygon points="23 65.9 23.9 66 24 63.7 23.2 63.7 23 65.9" style="fill:#1f54a5;fill-rule:evenodd"></polygon>
  <polygon points="23.5 48.9 22.7 48.8 22.5 51.1 23.4 51.2 23.5 48.9" style="fill:#1f54a5;fill-rule:evenodd"></polygon>
  <polygon points="29.1 56 29.2 58.3 30.1 58.2 29.9 55.9 29.1 56" style="fill:#1f54a5;fill-rule:evenodd"></polygon>
  <path d="M316.1,67.6h-.8l-7.4-25.1h-.1l-6.7,25.1h-.7L292.4,41c-1.2-4.3-1.9-4.9-4-5.2v-.8h11v.8c-2.1.5-2,2.4-1.3,4.5l4.6,15.4h0L307,39.5c-.8-2.7-1.5-3.2-3.5-3.7v-.8h10.8v.8c-1.6.6-1.9,2-1.3,3.7l4.7,16.1h.1l3.5-13.2c1-3.6,1.1-5.9-1.6-6.6v-.8h7.9v.8c-2.1.3-3.4,2.5-4.8,7.3l-6.6,24.5Z" style="fill:#1f54a5;fill-rule:evenodd"></path>
  <path d="M332.8,54.3v8.1c0,2.2.4,2.9,2.5,3.5v.7h-9.5v-.7c2.5-.8,2.5-1.7,2.5-4.2V45.4c0-2.2-.4-2.9-2.5-3.5v-.7h9.5v.7c-1.9.6-2.5,1.2-2.5,3.4v7.1h9.8v-7c0-2.2-.5-2.9-2.6-3.5v-.7h9.6v.7c-2.5.8-2.6,1.5-2.6,4.2V62.4c0,2.2.4,2.9,2.6,3.5v.7H340v-.7c2.4-.7,2.6-1.7,2.6-4.2V54.3Z" style="fill:#1f54a5;fill-rule:evenodd"></path>
  <path d="M359.6,62.4c0,2.2.4,2.9,2.6,3.5v.7h-9.6v-.7c2.5-.8,2.5-1.7,2.5-4.2V45.4c0-2.2-.4-2.9-2.5-3.5v-.7h9.6v.7c-2.5.7-2.6,1.7-2.6,4.2V62.4Z" style="fill:#1f54a5;fill-rule:evenodd"></path>
  <path d="M368.5,66.6v-.7c2.2-.5,2.6-1.4,2.6-3.8V42.6H369c-2.4,0-3.8,1.2-4.5,4.2h-.6l.2-6.1h.6a2.6,2.6,0,0,0,.9.4h14.2a3.1,3.1,0,0,0,2-.5h.6l.2,6.1h-.5c-.7-2.9-2.2-4.2-4.6-4.2h-2.1V62.2c0,2.4.6,3.3,2.5,3.7v.7Z" style="fill:#1f54a5;fill-rule:evenodd"></path>
  <path d="M402.8,66.9h-.7L387.5,46.3V61.9c0,2.8.7,3.5,3,4.1v.7h-7.1v-.7c2.2-.4,2.7-1.9,2.7-4.4V44.4c-1.6-2-1.9-2.3-2.7-2.5v-.7h6.1l11.9,17V46.8c0-3.1-.4-4.3-2.6-4.9v-.7h6.8v.7c-2.3.2-2.9,2-2.9,4.2V66.9Z" style="fill:#1f54a5;fill-rule:evenodd"></path>
  <path d="M421.3,57.8h-.6c-.2-2.2-1.1-3.2-2.8-3.2h-3.6v7.5c0,2.3.8,3.1,2.8,3.1h1.2c2.5,0,3.5-2.3,4.3-4.7h.5l-.3,6.1H407.2v-.7c2.3-.6,2.6-1.5,2.6-4.1V45.4c0-2.2-.4-3-2.6-3.5v-.7h15.3v5.6h-.5c-.7-3.2-1.5-4.2-3.7-4.2h-3.9V53.1h3.6c1.7,0,2.4-.8,2.8-3.1h.6v7.8Z" style="fill:#1f54a5;fill-rule:evenodd"></path>
  <path d="M436.9,62.4c0,2.2.5,3,2.6,3.5v.7h-9.6v-.7c1.9-.3,2.6-1.5,2.6-3.7V54.7l-5.3-10.1c-1-2-1.7-2.5-2.9-2.7v-.7h9.2v.7c-1.6.1-1.9,1.1-.8,3.1l3.4,6.8,3.1-5.5c1.1-2.1,1-3.7-.8-4.4v-.7h6.3v.7c-1,.1-2.1,1-3,2.8l-4.8,8.5v9.1Z" style="fill:#1f54a5;fill-rule:evenodd"></path>
  <polygon points="266.3 61 267.4 61.3 267.4 71.7 266.3 71.5 266.3 61 266.3 61" style="fill:#1f54a5;fill-rule:evenodd"></polygon>
  <polygon points="268.3 61.4 269.4 61.6 269.4 71.9 268.3 71.8 268.3 61.4 268.3 61.4" style="fill:#1f54a5;fill-rule:evenodd"></polygon>
  <polygon points="270.4 61.7 271.5 62 271.5 72.3 270.4 72.1 270.4 61.7 270.4 61.7" style="fill:#1f54a5;fill-rule:evenodd"></polygon>
  <polygon points="272.4 62 273.5 62.2 273.5 72.5 272.4 72.4 272.4 62 272.4 62" style="fill:#1f54a5;fill-rule:evenodd"></polygon>
  <path d="M268.3,21.4l1,.3v1.1l-2.6-.4a1.7,1.7,0,0,0,.1,2.3l14.8,3.2-.3.3a3.5,3.5,0,0,0-1.4,1.4l-18.3-3.8L253,34.2a3,3,0,0,0-1.7-.4v-.4l9.9-9.9h.3c1.7-.1,3.3-2.7,3.3-2.7l.8.2a2.3,2.3,0,0,1,1.7-4,1.7,1.7,0,0,1,1.1.3h-.3c-.3.3-.2.9.1,1.4s.9.7,1.1.4.1-.3.2-.6.1.5.1.7a2.4,2.4,0,0,1-1.4,2.2Z" style="fill:#1f54a5;fill-rule:evenodd"></path>
  <path d="M277,52.2a6.3,6.3,0,0,0-1.6,3.5v.2a5.6,5.6,0,0,1,3.2-3.6V51.1l-15.3-2.6V50L277,52.2Z" style="fill:#1f54a5;fill-rule:evenodd"></path>
  <path d="M258.1,45.9h-.3c-1.4,0-2.3-1-2.3-4.5v4.4h-1.6V36.5l-.8-.6v-.9l3.4-3.4v2.6l-1,1.2v4.1c.2-2.5,1.1-5.4,2-6.3h0l-1,1.2V31.7l5.3-5.3,18.1,3.7v15h-.9V31.7l-16.2-3.4V44.7h.5V29l.7.2V44.8l13.9,2.3V32.8L264.8,30v-.6l13.6,2.7V47.3h.5V45h.9v2.5l1.4.3v.6a5.7,5.7,0,0,0-2.2,2.3l-16.8-2.8-5.5,4.9v1.2l6-4.9v1.5c3.5,2.4,2.8,6.7,2.8,6.7l-.3-.3-3.4,2.5v1.1l3.6-2.6,9.7,1.8V61l-.5,1.4V60.9l-9.2-1.6V71.6l-.9-.2-2.8,2.1v.9l2.9-2,9.9,1.4v1.3L266,74a10,10,0,0,1,1.5,4.4c.1,1.4.1,2.6.1,2.6a1,1,0,0,1,1,1,1,1,0,0,1-1,1,1.1,1.1,0,0,1-1-.9c-.2-4.1-6.5-7.3-6.5-7.3v-.8l.9-.8V60.6l-.6-.3c-.8-4.2-5.1-4.8-5.1-4.8V54.1l-.6.4s-1.4-1.7-2-1.8V52l8.2-6.6v-.7l-7.1,5.6V45.6h1.6v2.5l2.7-2.2Z" style="fill:#1f54a5;fill-rule:evenodd"></path>
  <path d="M258.1,45.9h-.3c-1.4,0-2.3-1-2.3-4.5v4.4h-1.6V36.5l-.8-.6v-.9l3.4-3.4v2.6l-1,1.2v4.1c.2-2.5,1.1-5.4,2-6.3h0l-1,1.2V31.7l5.3-5.3,18.1,3.7v15h-.9V31.7l-16.2-3.4V44.7h.5V29l.7.2V44.8l13.9,2.3V32.8L264.8,30v-.6l13.6,2.7V47.3h.5V45h.9v2.5l1.4.3v.6a5.7,5.7,0,0,0-2.2,2.3l-16.8-2.8-5.5,4.9v1.2l6-4.9v1.5c3.5,2.4,2.8,6.7,2.8,6.7l-.3-.3-3.4,2.5v1.1l3.6-2.6,9.7,1.8V61l-.5,1.4V60.9l-9.2-1.6V71.6l-.9-.2-2.8,2.1v.9l2.9-2,9.9,1.4v1.3L266,74a10,10,0,0,1,1.5,4.4c.1,1.4.1,2.6.1,2.6a1,1,0,0,1,1,1,1,1,0,0,1-1,1,1.1,1.1,0,0,1-1-.9c-.2-4.1-6.5-7.3-6.5-7.3v-.8l.9-.8V60.6l-.6-.3c-.8-4.2-5.1-4.8-5.1-4.8V54.1l-.6.4s-1.4-1.7-2-1.8V52l8.2-6.6v-.7l-7.1,5.6V45.6h1.6v2.5l2.7-2.2" style="fill:#1f54a5"></path>
  <polygon points="270.9 34.9 270.9 32.5 270.5 32.4 270.5 34.8 270.9 34.9 270.9 34.9" style="fill:#1f54a5;fill-rule:evenodd"></polygon>
  <polygon points="269.1 35 267.8 32.7 267.5 32.8 268.8 35.1 269.1 35 269.1 35" style="fill:#1f54a5;fill-rule:evenodd"></polygon>
  <polygon points="267.7 35.8 265.6 34.3 265.4 34.5 267.5 36.2 267.7 35.8 267.7 35.8" style="fill:#1f54a5;fill-rule:evenodd"></polygon>
  <polygon points="267.2 37.4 264.7 37 264.7 37.4 267.2 37.8 267.2 37.4 267.2 37.4" style="fill:#1f54a5;fill-rule:evenodd"></polygon>
  <polygon points="267.5 39.2 265.4 40 265.6 40.4 267.7 39.6 267.5 39.2 267.5 39.2" style="fill:#1f54a5;fill-rule:evenodd"></polygon>
  <polygon points="268.8 40.8 267.5 42.5 267.8 42.8 269.1 41 268.8 40.8 268.8 40.8" style="fill:#1f54a5;fill-rule:evenodd"></polygon>
  <polygon points="270.5 41.6 270.5 44 270.9 44.1 270.9 41.7 270.5 41.6 270.5 41.6" style="fill:#1f54a5;fill-rule:evenodd"></polygon>
  <polygon points="272.3 41.6 273.5 43.8 273.9 43.7 272.6 41.4 272.3 41.6 272.3 41.6" style="fill:#1f54a5;fill-rule:evenodd"></polygon>
  <polygon points="273.6 40.7 275.7 42.2 275.9 42 273.8 40.3 273.6 40.7 273.6 40.7" style="fill:#1f54a5;fill-rule:evenodd"></polygon>
  <polygon points="274.2 39.1 276.7 39.5 276.7 39.1 274.2 38.7 274.2 39.1 274.2 39.1" style="fill:#1f54a5;fill-rule:evenodd"></polygon>
  <polygon points="273.8 37.3 275.9 36.5 275.7 36.1 273.6 36.9 273.8 37.3 273.8 37.3" style="fill:#1f54a5;fill-rule:evenodd"></polygon>
  <polygon points="272.6 35.7 273.8 33.9 273.4 33.7 272.3 35.5 272.6 35.7 272.6 35.7" style="fill:#1f54a5;fill-rule:evenodd"></polygon>
  <path d="M270.4,37.5l-2.8-2.4a.7.7,0,0,0-.3-.5l-1.3-.7a11.6,11.6,0,0,0,.9,1.2l.5.2L270,38a.9.9,0,0,0,.3.6.7.7,0,0,0,.9,0,.7.7,0,0,0-.2-.9l-.6-.2Z" style="fill:#1f54a5;fill-rule:evenodd"></path>
  <path d="M271.2,38.3l1.2-.9h.5l.7-.8-1.1.2a.3.3,0,0,0-.2.3l-1.5.5a.6.6,0,0,0-.5-.1.6.6,0,0,0-.2.8.7.7,0,0,0,.9.3.5.5,0,0,0,.3-.4Z" style="fill:#1f54a5;fill-rule:evenodd"></path>
</svg>
