<?xml version="1.0" encoding="UTF-8"?>
<svg xmlns="http://www.w3.org/2000/svg" xmlns:xlink="http://www.w3.org/1999/xlink" width="86px" height="88px" viewBox="0 0 86 88">
  <!-- Generator: Sketch 50.2 (55047) - http://www.bohemiancoding.com/sketch -->
  <title>hancock-whitney-logo</title>
  <desc>Created with Sketch.</desc>
  <defs></defs>
  <g id="Design" stroke="none" stroke-width="1" fill="none" fill-rule="evenodd">
    <g id="Artboard" transform="translate(-1757.000000, -628.000000)" fill-rule="nonzero">
      <g id="hancock-whitney-logo" transform="translate(1757.000000, 628.000000)">
        <ellipse id="Oval" fill="#FFFFFF" cx="43" cy="43.2972973" rx="43" ry="43.2972973"></ellipse>
        <g id="Group" transform="translate(0.000000, 0.801802)" fill="#BFBFBF">
          <path d="M14.412963,37.363964 C14.8111111,36.1612613 14.8907407,35.8405405 14.412963,35.6801802 L7.96296296,32.9540541 C7.56481481,32.7936937 7.32592593,33.0342342 6.76851852,34.1567568 L6.13148148,33.9162162 L7.88333333,29.6666667 L8.52037037,29.9873874 C8.04259259,31.1900901 8.12222222,31.3504505 8.6,31.5108108 L11.3074074,32.6333333 L13.0592593,28.463964 L10.3518519,27.3414414 C9.87407407,27.1810811 9.79444444,27.1810811 9.23703704,28.3837838 L8.6,28.1432432 L10.3518519,23.9738739 L10.9888889,24.2144144 C10.5907407,25.4171171 10.5111111,25.7378378 10.9888889,25.8981982 L17.4388889,28.6243243 C17.837037,28.7846847 18.0759259,28.5441441 18.6333333,27.4216216 L19.2703704,27.6621622 L17.5185185,31.9117117 L16.8814815,31.6711712 C17.3592593,30.4684685 17.2796296,30.3081081 16.8018519,30.1477477 L13.7759259,28.8648649 L12.1037037,33.0342342 L15.1296296,34.3171171 C15.6074074,34.4774775 15.687037,34.4774775 16.2444444,33.2747748 L16.8814815,33.5954955 L15.1296296,37.6045045 L14.412963,37.363964 Z M21.5,19.2432432 L18.2351852,17.4792793 L18.1555556,17.5594595 L19.5888889,21.0873874 L21.5,19.2432432 Z M22.2962963,19.6441441 L19.9074074,21.9693694 L20.4648148,23.2522523 C20.862963,24.2144144 20.9425926,24.5351351 22.0574074,23.8135135 L22.5351852,24.2945946 L20.1462963,26.5396396 L19.6685185,26.0585586 C20.2259259,25.1765766 20.0666667,24.6954955 19.6685185,23.572973 L16.7222222,16.1963964 L17.5185185,15.4747748 L25.0833333,19.3234234 C25.8796296,19.7243243 26.1981481,19.7243243 27.0740741,19.0027027 L27.5518519,19.4837838 L24.3666667,22.5306306 L23.8888889,22.0495495 C24.7648148,21.0873874 24.6055556,20.7666667 23.9685185,20.4459459 L22.2962963,19.6441441 Z M28.4277778,10.9846847 L28.2685185,11.0648649 L30.0203704,15.9558559 C30.4981481,17.3189189 30.737037,17.5594595 32.1703704,17.2387387 L32.4092593,17.8801802 L28.7462963,19.2432432 L28.5074074,18.6018018 C29.7018519,17.8801802 29.7018519,17.3990991 29.2240741,16.036036 L27.3925926,10.9045045 C27.2333333,10.3432432 26.7555556,10.0225225 25.6407407,10.5036036 L25.4018519,9.78198198 L28.1888889,8.73963964 L35.5148148,13.8711712 L35.6740741,13.790991 L34.0018519,9.14054054 C33.5240741,7.85765766 33.2851852,7.85765766 31.8518519,8.17837838 L31.612963,7.53693694 L35.3555556,6.09369369 L35.5944444,6.73513514 C34.4,7.45675676 34.4,7.53693694 34.8777778,8.81981982 L37.5851852,16.2765766 L36.7888889,16.5972973 L28.4277778,10.9846847 Z M39.1777778,10.5837838 C39.2574074,7.61711712 41.487037,5.37207207 44.2740741,5.45225225 C45.3092593,5.45225225 46.0259259,5.85315315 46.5833333,6.17387387 L47.0611111,5.53243243 L47.6981481,5.53243243 L47.6185185,8.98018018 L47.1407407,8.98018018 C46.5037037,7.2963964 45.6277778,6.33423423 44.1944444,6.25405405 C42.5222222,6.25405405 41.0092593,7.6972973 40.9296296,10.5036036 C40.85,13.1495495 42.5222222,14.5927928 44.2740741,14.5927928 C45.9462963,14.5927928 46.662963,13.790991 47.3,12.5882883 L47.937037,12.909009 C47.3,14.3522523 46.0259259,15.7153153 43.8759259,15.6351351 C41.0888889,15.6351351 39.0981481,13.6306306 39.1777778,10.5837838 Z M57.6518519,13.9513514 C58.7666667,11.2252252 58.05,9.54144144 56.3777778,8.81981982 C54.7055556,8.17837838 53.1925926,8.98018018 52.0777778,11.7063063 C51.0425926,14.5126126 51.7592593,16.1963964 53.3518519,16.8378378 C55.0240741,17.4792793 56.537037,16.6774775 57.6518519,13.9513514 Z M50.4851852,11.145045 C51.6,8.25855856 54.3074074,7.13603604 56.6962963,8.0981982 C59.1648148,9.06036036 60.3592593,11.6261261 59.1648148,14.5927928 C58.05,17.5594595 55.3425926,18.6018018 52.9537037,17.6396396 C50.5648148,16.5972973 49.3703704,14.0315315 50.4851852,11.145045 Z M61.4740741,16.1963964 C63.4648148,13.9513514 66.65,13.790991 68.7203704,15.7153153 C69.5166667,16.4369369 69.7555556,17.1585586 69.9944444,17.7198198 L70.7111111,17.5594595 L71.1888889,17.9603604 L68.8796296,20.5261261 L68.4814815,20.2054054 C69.1185185,18.5216216 69.1185185,17.2387387 68.0037037,16.1963964 C66.7296296,15.0738739 64.6592593,15.1540541 62.7481481,17.2387387 C60.9962963,19.2432432 61.3148148,21.3279279 62.5888889,22.5306306 C63.862963,23.6531532 64.8981481,23.4927928 66.1722222,23.0117117 L66.4111111,23.6531532 C64.9777778,24.2945946 63.1462963,24.454955 61.5537037,23.0117117 C59.562963,21.2477477 59.4833333,18.4414414 61.4740741,16.1963964 Z M75.5685185,28.945045 C76.4444444,29.2657658 76.762963,29.0252252 76.4444444,27.9828829 L77.0814815,27.6621622 L78.7537037,31.1900901 L78.1166667,31.5108108 C77.5592593,30.6288288 77.0814815,30.3081081 75.8074074,29.827027 L73.2592593,28.8648649 L71.1092593,33.0342342 C70.6314815,33.9162162 70.3925926,34.2369369 70.7907407,35.5198198 L70.1537037,35.8405405 L68.2425926,31.9117117 L68.8796296,31.590991 C69.437037,32.3927928 69.7555556,32.5531532 70.2333333,31.7513514 L71.9851852,28.463964 L70.6314815,27.9828829 L68.4018519,29.1054054 C68.0037037,29.3459459 67.9240741,29.4261261 68.4018519,30.4684685 L67.6851852,30.709009 L65.7740741,26.7801802 L66.4111111,26.4594595 C66.9685185,27.581982 67.287037,27.8225225 67.6851852,27.581982 L73.9759259,24.454955 C74.3740741,24.2144144 74.3740741,23.8936937 73.8962963,22.7711712 L74.5333333,22.4504505 L76.5240741,26.5396396 L75.887037,26.8603604 C75.25,25.6576577 75.1703704,25.6576577 74.6925926,25.8981982 L71.3481481,27.5018018 L75.5685185,28.945045 Z" id="Shape"></path>
          <path d="M55.0240741,40.8117117 L51.8388889,33.354955 L58.1296296,33.354955 L55.0240741,40.8117117 Z M48.812963,55.7252252 L42.4425926,40.8117117 L39.337037,48.2684685 L42.5222222,55.7252252 L36.2314815,55.7252252 L26.6759259,33.354955 L32.9666667,33.354955 L36.1518519,40.8117117 L42.4425926,40.8117117 L39.2574074,33.354955 L45.5481481,33.354955 L55.1037037,55.7252252 L48.812963,55.7252252 Z M42.7611111,18.681982 C29.1444444,18.7621622 18.1555556,29.9072072 18.2351852,43.5378378 C18.3148148,57.2486486 29.3833333,68.2333333 42.9203704,68.2333333 C56.537037,68.1531532 67.4462963,57.0081081 67.4462963,43.3774775 C67.4462963,29.6666667 56.3777778,18.6018018 42.7611111,18.681982 Z" id="Shape"></path>
          <g transform="translate(0.000000, 0.036081)" id="Shape">
            <path d="M43.0796296,84.9108108 C20.3055556,84.990991 1.83148148,66.4693694 1.67222222,43.618018 C1.59259259,20.7666667 19.987037,2.08468468 42.6814815,2.0045045 C65.3759259,1.92432432 83.9296296,20.4459459 84.0092593,43.2972973 C84.1685185,66.1486486 65.7740741,84.7504505 43.0796296,84.9108108 M42.6814815,0.240540541 C19.0314815,0.320720721 -0.0796296296,19.8045045 -1.4474099e-15,43.618018 C0.0796296296,67.4315315 19.4296296,86.6747748 43.0796296,86.5945946 C66.7296296,86.5144144 85.8407407,67.0306306 85.7611111,43.2171171 C85.6814815,19.4036036 66.3314815,0.16036036 42.6814815,0.240540541"></path>
          </g>
          <path d="M15.7666667,56.9279279 C16.2444444,56.3666667 16.3240741,56.1261261 16.0055556,55.163964 L16.562963,54.8432432 L18.5537037,58.3711712 L17.9962963,58.6918919 C17.4388889,57.8900901 17.0407407,57.8099099 16.7222222,58.1306306 L12.4222222,62.6207207 L12.5018519,62.7009009 L17.5185185,61.7387387 C19.0314815,61.418018 19.2703704,61.418018 18.7925926,60.054955 L19.35,59.7342342 L21.1018519,62.8612613 L20.5444444,63.181982 C19.9074074,62.3801802 19.4296296,62.3 17.9962963,62.5405405 L10.3518519,63.9837838 L9.9537037,63.181982 L14.4925926,58.290991 L7.72407407,59.3333333 L7.32592593,58.5315315 L13.2981481,52.2774775 C13.7759259,51.7963964 13.7759259,51.4756757 13.4574074,50.4333333 L14.0148148,50.1126126 L16.0055556,53.7207207 L15.4481481,54.0414414 C14.8907407,53.2396396 14.5722222,53.1594595 14.1740741,53.6405405 L9.87407407,57.9702703 L9.9537037,58.0504505 L15.3685185,57.3288288 L15.7666667,56.9279279 Z M16.8018519,70.8792793 C17.837037,71.5207207 18.1555556,71.6009009 18.4740741,71.2801802 L22.4555556,65.5072072 C22.6944444,65.1063063 22.5351852,64.8657658 21.5,64.063964 L21.8981481,63.5027027 L25.5611111,66.0684685 L25.162963,66.6297297 C24.0481481,65.9081081 23.8888889,65.9081081 23.65,66.309009 L21.9777778,68.7144144 L25.6407407,71.2801802 L27.312963,68.8747748 C27.6314815,68.4738739 27.5518519,68.3135135 26.5166667,67.5117117 L26.9148148,66.9504505 L30.5777778,69.5162162 L30.2592593,70.2378378 C29.2240741,69.5963964 28.9055556,69.5162162 28.587037,69.8369369 L24.6055556,75.6099099 C24.3666667,76.0108108 24.5259259,76.2513514 25.5611111,77.0531532 L25.162963,77.6144144 L21.5,75.0486486 L21.8981481,74.4873874 C23.012963,75.209009 23.1722222,75.209009 23.4111111,74.8081081 L25.2425926,72.081982 L21.5796296,69.5162162 L19.6685185,72.1621622 C19.35,72.5630631 19.4296296,72.7234234 20.4648148,73.5252252 L20.0666667,74.0864865 L16.4037037,71.5207207 L16.8018519,70.8792793 Z M29.6222222,78.9774775 C30.8166667,79.2981982 31.2148148,79.218018 31.2944444,78.8171171 L33.2851852,72.0018018 C33.4444444,71.5207207 33.1259259,71.3603604 31.9314815,70.9594595 L32.1703704,70.2378378 L36.6296296,71.5207207 L36.3907407,72.2423423 C35.1962963,71.9216216 34.7981481,72.0018018 34.7185185,72.4027027 L32.7277778,79.218018 C32.5685185,79.6990991 32.887037,79.8594595 34.0814815,80.2603604 L33.8425926,80.981982 L29.3833333,79.6990991 L29.6222222,78.9774775 Z M40.1333333,80.7414414 C41.487037,80.6612613 41.8055556,80.5810811 41.8055556,80.1 L41.8055556,72.4828829 L41.2481481,72.4828829 C39.8148148,72.4828829 39.4962963,73.1243243 38.9388889,74.8882883 L38.3018519,74.8882883 L38.4611111,71.6810811 L46.7425926,71.6810811 L46.8222222,74.8882883 L46.1851852,74.8882883 C45.7074074,73.2045045 45.3092593,72.4828829 43.8759259,72.4828829 L43.3185185,72.4828829 L43.3185185,80.1 C43.3185185,80.5810811 43.637037,80.6612613 44.9907407,80.7414414 L44.9907407,81.4630631 L40.1333333,81.4630631 L40.1333333,80.7414414 Z M66.0925926,72.4027027 C66.9685185,71.4405405 67.0481481,71.1198198 66.7296296,70.7990991 L61.712963,65.8279279 C61.3944444,65.5072072 61.0759259,65.6675676 60.1203704,66.4693694 L59.6425926,65.9882883 L65.2962963,60.2153153 L67.5259259,62.3801802 L67.1277778,62.8612613 C65.6148148,62.0594595 64.9777778,61.8189189 63.862963,63.0216216 L62.5092593,64.4648649 L64.9777778,66.8702703 L65.4555556,66.3891892 C66.2518519,65.5873874 66.4111111,65.3468468 65.6148148,63.9837838 L66.012963,63.5828829 L68.8796296,66.4693694 L68.4814815,66.8702703 C67.1277778,66.0684685 66.8092593,66.2288288 66.0925926,67.0306306 L65.6148148,67.5117117 L68.3222222,70.2378378 L69.6759259,68.7945946 C71.0296296,67.4315315 70.7907407,66.4693694 69.9148148,64.9459459 L70.312963,64.545045 L72.6222222,66.9504505 L66.5703704,72.963964 L66.0925926,72.4027027 Z M71.7462963,53.8009009 C71.1092593,52.6783784 70.7907407,52.518018 70.0740741,53.4801802 L69.5166667,53.1594595 L71.1888889,50.1126126 L71.7462963,50.4333333 C71.5074074,51.2351351 71.4277778,51.636036 72.1444444,52.8387387 L74.2148148,56.4468468 L76.6037037,57.7297297 C77.0018519,57.9702703 77.2407407,57.8099099 77.8777778,56.6873874 L78.5148148,57.0081081 L76.2851852,60.9369369 L75.6481481,60.6162162 C76.2055556,59.4936937 76.2055556,59.2531532 75.8074074,59.0126126 L73.4185185,57.7297297 L68.6407407,57.8099099 C68.0037037,57.8099099 67.7648148,57.9702703 67.1277778,58.6918919 L66.5703704,58.3711712 L68.6407407,54.6027027 L69.1981481,54.9234234 C68.6407407,56.1261261 68.8796296,56.2864865 69.5166667,56.2864865 L73.1,56.2864865 L71.7462963,53.8009009 Z M51.8388889,72.4027027 L51.6796296,72.4828829 L53.75,77.0531532 C54.3074074,78.336036 54.5462963,78.5765766 55.9796296,78.1756757 L56.2981481,78.8171171 L52.7148148,80.4207207 L52.3962963,79.7792793 C53.5111111,79.0576577 53.4314815,78.4963964 52.8740741,77.2936937 L50.7240741,72.4828829 C50.4851852,72.0018018 50.087037,71.6810811 48.9722222,72.1621622 L48.6537037,71.5207207 L51.3611111,70.318018 L59.0055556,74.7279279 L59.1648148,74.6477477 L57.1740741,70.2378378 C56.6166667,69.0351351 56.3777778,69.0351351 55.0240741,69.436036 L54.7055556,68.7945946 L58.2888889,67.190991 L58.6074074,67.8324324 C57.4925926,68.6342342 57.4925926,68.7144144 58.05,69.9171171 L61.2351852,76.8927928 L60.4388889,77.2135135 L51.8388889,72.4027027 Z" id="Shape"></path>
        </g>
      </g>
    </g>
  </g>
</svg>
