<?xml version="1.0" encoding="UTF-8"?>
<svg xmlns="http://www.w3.org/2000/svg" xmlns:xlink="http://www.w3.org/1999/xlink" width="81px" height="81px" viewBox="0 0 81 81">
  <!-- Generator: Sketch 50.2 (55047) - http://www.bohemiancoding.com/sketch -->
  <title>hp</title>
  <desc>Created with Sketch.</desc>
  <defs></defs>
  <g id="Design" stroke="none" stroke-width="1" fill="none" fill-rule="evenodd">
    <g id="whykonyfx" transform="translate(-963.000000, -2186.000000)" fill="#2E97FC">
      <g id="partners" transform="translate(90.000000, 2030.000000)">
        <g id="Page-1" transform="translate(101.000000, 155.000000)">
          <g id="Group-5408" transform="translate(320.000000, 0.213000)">
            <g id="hp" transform="translate(452.000000, 0.000000)">
              <path d="M80.4698,38.0272 C79.9568,31.1532 77.6818,24.4072 73.8388,18.6792 C70.0728,13.0482 64.8798,8.3472 58.8448,5.2562 C54.1798,2.8002 49.0088,1.3592 43.7638,0.8942 C42.5788,0.6422 41.3898,0.9132 40.1968,0.9202 C37.3688,9.0162 34.4338,17.0752 31.5828,25.1632 C33.6568,25.2002 35.7308,25.1332 37.8018,25.1952 C39.3168,25.2572 40.9048,25.8892 41.7408,27.2142 C42.6988,28.7102 42.6458,30.6282 42.0428,32.2502 C39.2248,40.1802 36.3788,48.1012 33.5678,56.0362 C31.0788,56.0702 28.5908,56.0312 26.1028,56.0542 C25.7568,56.0482 25.3968,56.0892 25.0668,55.9562 C28.2268,47.2402 31.3128,38.4942 34.4268,29.7612 C32.9418,29.7392 31.4568,29.7712 29.9728,29.7462 C29.7428,30.2202 29.5828,30.7242 29.4108,31.2232 C26.5468,39.2802 23.6568,47.3292 20.8028,55.3892 C20.6668,55.5962 20.7018,56.0462 20.3788,56.0482 C18.0098,56.0562 15.6378,56.0412 13.2688,56.0522 C12.8428,56.0482 12.4068,56.0952 11.9918,55.9692 C18.4928,37.9372 24.8448,19.8522 31.3468,1.8222 C18.6448,4.5402 7.7168,14.0462 2.9948,26.1192 C1.0588,30.8992 0.2158,36.0612 0.1078,41.2002 C0.2408,43.6682 0.4148,46.1422 0.8938,48.5742 C2.4218,56.6692 6.5528,64.2412 12.5038,69.9352 C17.4438,74.7112 23.6398,78.1662 30.2878,79.8912 C36.7618,61.7902 43.1978,43.6742 49.6458,25.5642 C49.7088,25.4342 49.8398,25.1712 49.9048,25.0382 C53.8838,25.0762 57.8658,25.0452 61.8488,25.0552 C63.1558,25.0792 64.4948,24.9342 65.7648,25.3292 C67.2268,25.7222 68.5878,26.7742 69.0358,28.2612 C69.3688,29.4342 69.1378,30.6832 68.7208,31.8032 C66.1798,39.2222 63.4898,46.5902 60.8658,53.9762 C60.2148,55.9012 58.2578,57.1062 56.2788,57.1742 C53.1768,57.2322 50.0718,57.1542 46.9688,57.2122 C44.1188,65.1532 41.2958,73.1042 38.4708,81.0522 C39.2078,81.3672 39.9938,81.1212 40.7618,81.1722 C41.9208,81.2612 43.0718,81.0482 44.2238,80.9652 C51.7898,80.2712 59.1218,77.3402 65.0978,72.6552 C69.8928,68.9162 73.8318,64.0762 76.4918,58.6072 C78.8238,53.9012 80.1328,48.7172 80.5088,43.4922 C80.3318,41.6762 80.3848,39.8462 80.4698,38.0272" id="Fill-5363"></path>
              <path d="M61.173,30.7069 C60.023,30.6829 58.872,30.7119 57.723,30.6909 C57.393,30.7389 56.952,30.5699 56.705,30.8499 C53.986,38.4469 51.293,46.0549 48.573,53.6499 C50.065,53.6589 51.566,53.7239 53.055,53.6179 C55.69,45.9559 58.494,38.3529 61.173,30.7069" id="Fill-5365"></path>
            </g>
          </g>
        </g>
      </g>
    </g>
  </g>
</svg>
