<?xml version="1.0" encoding="UTF-8"?>
<svg xmlns="http://www.w3.org/2000/svg" xmlns:xlink="http://www.w3.org/1999/xlink" width="143px" height="26px" viewBox="0 0 143 26">
  <!-- Generator: Sketch 50.2 (55047) - http://www.bohemiancoding.com/sketch -->
  <title>HSBC-logo</title>
  <desc>Created with Sketch.</desc>
  <defs></defs>
  <g id="Design" stroke="none" stroke-width="1" fill="none" fill-rule="evenodd">
    <g id="dropdown_menu" transform="translate(-624.000000, -944.000000)" fill-rule="nonzero">
      <g id="Group-8" transform="translate(518.000000, 937.000000)">
        <g id="HSBC-logo" transform="translate(106.000000, 7.058824)">
          <g id="g13" transform="translate(13.000000, 13.098039) scale(-1, 1) rotate(-180.000000) translate(-13.000000, -13.098039) translate(0.000000, 1.098039)" fill="#000000">
            <path d="M18.658255,11.1861949 C18.6414576,11.1861949 18.658255,2.75324471 18.658255,2.75324471 C18.658255,1.69248262 17.7176023,0.762960007 16.4857951,0.762960007 L15.3054999,0.762960007 L15.3054999,0.333448976 L25.2954557,0.333448976 L25.2954557,0.762960007 L24.1151605,0.762960007 C22.9001508,0.762960007 21.9427007,1.70766735 21.9427007,2.75324471 L21.9427007,11.318519 L21.9427007,21.5410985 C21.9427007,22.5693218 22.8833534,23.5292139 24.1151605,23.5292139 L25.2954557,23.5292139 L25.2954557,23.9608942 L15.3054999,23.9608942 L15.3054999,23.5292139 L16.4857951,23.5292139 C17.7343996,23.5292139 18.658255,22.5693218 18.658255,21.5410985 L18.658255,12.3792811 L6.82170833,12.3792811 L6.82170833,21.5410985 C6.82170833,22.5693218 7.77915841,23.5292139 8.99416817,23.5292139 L10.1733435,23.5292139 L10.1733435,23.9608942 L0.183387756,23.9608942 L0.183387756,23.5292139 L1.36480277,23.5292139 C2.59549007,23.5292139 3.53726261,22.5693218 3.53726261,21.5410985 L3.53726261,11.318519 L3.53726261,2.75324471 C3.53726261,1.70766735 2.59549007,0.762960007 1.36480277,0.762960007 L0.183387756,0.762960007 L0.183387756,0.333448976 L10.1733435,0.333448976 L10.1733435,0.762960007 L8.99416817,0.762960007 C7.77915841,0.762960007 6.82170833,1.70766735 6.82170833,2.75324471 C6.82170833,2.75324471 6.83738588,11.1861949 6.82170833,11.1861949 L18.658255,11.1861949 Z" id="path15"></path>
          </g>
          <g id="g17" transform="translate(35.189860, 12.598039) scale(-1, 1) rotate(-180.000000) translate(-35.189860, -12.598039) translate(27.189860, 0.098039)" fill="#000000">
            <path d="M15.0651967,6.89883914 C15.1480552,5.50034143 14.2936434,3.37746561 13.1088733,2.29362989 C11.9703748,1.24912691 10.3476379,0.340103405 8.17824961,0.340103405 C5.71293779,0.340103405 3.59197332,1.67523168 2.81934395,1.97569018 C2.35124676,2.15815042 1.73787804,2.13848405 1.37200898,1.90904302 C0.944803047,1.64136182 0.682238191,1.20870159 0.583238328,0.406750561 L0.221673608,0.406750561 L0.221673608,8.65242415 L0.583238328,8.65242415 C0.912520483,6.11546191 2.07899714,4.62518779 2.80320266,3.77844113 C3.98689669,2.39305434 6.22192622,1.60858453 8.37517326,1.95930153 C10.0861492,2.2379085 11.9585379,4.12260267 11.7530056,6.4574383 C11.6798318,7.29981465 11.4979733,8.5256853 9.77300829,9.66961272 C8.6904663,10.3885279 7.15274016,11.4079017 5.69572042,12.3901278 C3.85669034,13.6280168 2.18768177,14.9686079 1.7185085,15.5116184 C1.10298761,16.2228856 0.336814754,17.2466296 0.336814754,18.8833089 C0.336814754,20.2850844 0.863020551,21.8868013 1.98107336,22.9553409 C3.09912617,24.022788 4.61102626,24.8236465 6.78041458,24.8236465 C8.95087898,24.8236465 10.5951376,23.6556824 11.153626,23.3890937 C11.7121143,23.1225051 12.3297874,23.184782 12.6816673,23.3890937 C13.0270908,23.5901278 13.2573731,23.8905863 13.3563729,24.6914447 L13.7179376,24.6914447 L13.7179376,16.8795239 L13.3563729,16.8795239 C13.0270908,19.4175788 11.9423966,21.3186616 11.1859085,22.0200956 C10.4304965,22.7215296 8.95087898,23.6895522 6.74813202,23.2557994 C4.63470014,22.8395279 3.60596243,21.8693201 3.41119096,20.1517901 C3.26269116,18.8428836 3.96214672,18.0376549 4.36460269,17.5481807 C5.18673199,16.5473807 10.4025183,13.5460736 12.7645259,11.4723637 C13.9815786,10.4049166 14.9349903,9.13534289 15.0651967,6.89883914" id="path19"></path>
          </g>
          <g id="g21" transform="translate(53.503776, 13.098039) scale(-1, 1) rotate(-180.000000) translate(-53.503776, -13.098039) translate(43.503776, 1.098039)" fill="#000000">
            <path d="M6.77422587,1.44683961 C8.47794368,0.932405919 11.7216688,0.536941907 13.9820022,2.11769638 C16.6939506,4.01129704 17.2652437,8.63899708 13.4378061,11.0503361 C11.8966697,12.0219218 8.05116745,11.954726 6.77422587,11.6617081 L6.77422587,1.44683961 Z M6.77422587,13.0144373 C7.98116711,12.7126069 11.5353776,12.6310906 12.9139326,13.4859098 C15.0749106,14.8243186 15.8245916,16.9723822 15.4260413,18.8714907 C15.1866854,20.0127183 14.5679727,21.0658202 13.4999031,21.798365 C11.396506,23.2458294 8.3616528,23.0111947 6.77422587,22.5397223 L6.77422587,13.0144373 Z M14.7079734,12.342479 C19.0920266,10.8740848 20.3418713,7.85467848 19.5278351,4.7438418 C18.5726693,1.08662587 14.3455523,0.3430654 12.9749006,0.165712459 C12.356188,0.0875009134 10.7766643,0.0941103398 9.21520526,0.0941103398 C6.42874035,0.0908056266 2.90388482,0.0996181951 0.0733874469,0.0996181951 L0.0733874469,0.536941907 L1.52307178,0.536941907 C2.4443665,0.536941907 3.49662959,1.2948228 3.49662959,2.43825356 L3.49662959,21.5967775 C3.49662959,22.7413098 2.4443665,23.5146127 1.53097505,23.5146127 L0.0824197481,23.5146127 L0.0824197481,23.953038 C2.58210909,23.953038 6.2232555,23.9541396 8.82681631,23.953038 C10.9302134,23.953038 12.0727995,23.7558568 12.8111902,23.6159573 C14.0520025,23.3813226 17.6750843,22.3370332 18.5365401,19.0400311 C19.2038013,16.4865893 17.8986338,13.2677987 14.7079734,12.342479 Z" id="path23"></path>
          </g>
          <g id="g25" transform="translate(76.255665, 12.598039) scale(-1, 1) rotate(-180.000000) translate(-76.255665, -12.598039) translate(65.255665, 0.098039)" fill="#000000">
            <path d="M20.2874754,23.861724 L20.6351484,15.8593694 L20.1446416,15.8420155 C19.9076924,17.8648389 19.1293034,19.2889499 18.1482897,20.2173879 C17.8659437,20.4842054 17.3300401,21.0243481 16.5571873,21.5015825 C15.2694684,22.2966118 13.3539449,22.999448 11.0785688,22.6024757 C7.66162937,22.0059326 5.90222664,19.7943846 5.0230789,17.6652681 C3.94019918,15.0480708 3.25481826,10.5718283 5.09172771,6.79516821 C6.58096413,3.7300213 9.44428412,2.45341907 11.6532259,2.12369343 C13.5355321,1.84277586 17.7087158,1.92954577 20.8887061,6.13246306 L21.3958216,5.80165279 C18.9255714,2.38834164 15.6448224,0.20174003 11.890175,0.235363368 C7.08697234,0.276579073 4.0686389,2.86991462 2.68901914,4.41008044 C1.23410713,6.03376229 0.118010244,9.11517855 0.103616137,11.7996225 C0.0925437477,14.1857949 0.62955465,16.840954 1.50427344,18.3941353 C3.01011844,21.0612253 6.15578437,23.7120459 10.2990726,24.1101028 C13.4026634,24.4072897 15.4421976,23.8118313 17.1849918,22.8345852 C18.0552816,22.3454199 18.5446812,22.2890194 19.0185795,22.486421 C19.4913706,22.6859917 19.873368,23.0829641 19.873368,23.861724 L20.2874754,23.861724 Z" id="path27"></path>
          </g>
          <polygon id="path29" fill="#FFFFFF" points="130.511329 25.0980392 106.040455 25.0980392 106.040455 0.896358543 130.511329 0.896358543"></polygon>
          <g id="g31" transform="translate(100.758182, 12.598039) scale(-1, 1) rotate(-180.000000) translate(-100.758182, -12.598039) translate(94.258182, 0.098039)" fill="#E71D1C">
            <polygon id="path33" points="0 12.1008403 12.5536409 0.129809015 12.5536409 24.0729717"></polygon>
          </g>
          <g id="g35" transform="translate(118.540455, 18.598039) scale(-1, 1) rotate(-180.000000) translate(-118.540455, -18.598039) translate(106.040455, 12.098039)" fill="#E71D1C">
            <polygon id="path37" points="0 0 24.2094808 0 12.1041843 12.4144029"></polygon>
          </g>
          <g id="g39" transform="translate(118.540455, 6.945378) scale(-1, 1) rotate(-180.000000) translate(-118.540455, -6.945378) translate(106.040455, 0.445378)" fill="#E71D1C">
            <polygon id="path41" points="12.2354371 0 24.3407337 12.4155437 0.131252871 12.4155437"></polygon>
          </g>
          <g id="g43" transform="translate(136.105001, 12.598039) scale(-1, 1) rotate(-180.000000) translate(-136.105001, -12.598039) translate(129.605001, 0.098039)" fill="#E71D1C">
            <polygon id="path45" points="0 24.2016807 0 0.258517953 12.5536409 12.2295493"></polygon>
          </g>
        </g>
      </g>
    </g>
  </g>
</svg>
