<?xml version="1.0" encoding="UTF-8"?>
<svg xmlns="http://www.w3.org/2000/svg" xmlns:xlink="http://www.w3.org/1999/xlink" width="236px" height="42px" viewBox="0 0 236 42">
  <!-- Generator: Sketch 50.2 (55047) - http://www.bohemiancoding.com/sketch -->
  <title>HSBC-logo_grey</title>
  <desc>Created with Sketch.</desc>
  <defs></defs>
  <g id="Design" stroke="none" stroke-width="1" fill="none" fill-rule="evenodd">
    <g id="home" transform="translate(-129.000000, -954.000000)" fill-rule="nonzero">
      <g id="HSBC-logo_grey" transform="translate(129.000000, 954.000000)">
        <g id="g13" transform="translate(21.545455, 21.706609) scale(-1, 1) rotate(-180.000000) translate(-21.545455, -21.706609) translate(0.000000, 1.908629)" fill="#BFBFBF">
          <path d="M30.9231219,18.4553384 C30.8952829,18.4553384 30.9231219,4.54239026 30.9231219,4.54239026 C30.9231219,2.79231139 29.3641381,1.25875557 27.3226115,1.25875557 L25.3664579,1.25875557 L25.3664579,0.550134674 L41.9232378,0.550134674 L41.9232378,1.25875557 L39.9670842,1.25875557 C37.9533968,1.25875557 36.3665739,2.81736364 36.3665739,4.54239026 L36.3665739,18.6736509 L36.3665739,35.5391861 C36.3665739,37.2355814 37.9255577,38.8192418 39.9670842,38.8192418 L41.9232378,38.8192418 L41.9232378,39.5314416 L25.3664579,39.5314416 L25.3664579,38.8192418 L27.3226115,38.8192418 C29.391977,38.8192418 30.9231219,37.2355814 30.9231219,35.5391861 L30.9231219,20.4237298 L11.3059082,20.4237298 L11.3059082,35.5391861 C11.3059082,37.2355814 12.8927311,38.8192418 14.9064186,38.8192418 L16.8607162,38.8192418 L16.8607162,39.5314416 L0.303936351,39.5314416 L0.303936351,38.8192418 L2.26194585,38.8192418 C4.30161641,38.8192418 5.86245621,37.2355814 5.86245621,35.5391861 L5.86245621,18.6736509 L5.86245621,4.54239026 C5.86245621,2.81736364 4.30161641,1.25875557 2.26194585,1.25875557 L0.303936351,1.25875557 L0.303936351,0.550134674 L16.8607162,0.550134674 L16.8607162,1.25875557 L14.9064186,1.25875557 C12.8927311,1.25875557 11.3059082,2.81736364 11.3059082,4.54239026 C11.3059082,4.54239026 11.3318913,18.4553384 11.3059082,18.4553384 L30.9231219,18.4553384 Z" id="path15"></path>
        </g>
        <g id="g17" transform="translate(58.321656, 20.881693) scale(-1, 1) rotate(-180.000000) translate(-58.321656, -20.881693) translate(45.062915, 0.258798)" fill="#BFBFBF">
          <path d="M24.9681931,11.3819232 C25.1055181,9.07463738 23.6894649,5.57224966 21.7258949,3.78410319 C19.8390128,2.06084911 17.1495817,0.561113362 13.5541619,0.561113362 C9.4682955,0.561113362 5.95313061,2.76385025 4.67261899,3.25955619 C3.89682155,3.56058487 2.88025941,3.52813867 2.27388901,3.1495996 C1.56586239,2.70797068 1.13070246,1.99415414 0.96662576,0.671069949 L0.367389127,0.671069949 L0.367389127,14.2750432 L0.96662576,14.2750432 C1.51235912,10.0894826 3.44561064,7.6307812 4.64586735,6.23379176 C6.60765395,3.94813679 10.3118637,2.65389367 13.8805319,3.23251768 C16.7162053,3.69217227 19.819395,6.80160036 19.4787575,10.6536861 C19.3574835,12.0434652 19.0560816,14.0659454 16.1972235,15.9532331 C14.4030805,17.1393221 11.8545414,18.8211173 9.43976042,20.441625 C6.39185742,22.4839334 3.62573832,24.6956831 2.84815744,25.591559 C1.82802842,26.7650301 0.558217459,28.4540354 0.558217459,31.1542807 C0.558217459,33.4669743 1.43032077,36.1095375 3.28331739,37.8724479 C5.136314,39.633556 7.64205051,40.9548377 11.2374703,40.9548377 C14.8346736,40.9548377 17.5597735,39.0278935 18.4853802,38.588067 C19.4109866,38.1482407 20.4346826,38.2509871 21.0178682,38.588067 C21.5903533,38.9197395 21.97201,39.4154454 22.1360866,40.7367269 L22.7353232,40.7367269 L22.7353232,27.8483728 L22.1360866,27.8483728 C21.5903533,32.0357361 19.7926433,35.1722026 18.5388833,36.3294507 C17.2869068,37.4866987 14.8346736,39.083773 11.1839671,38.3681539 C7.68128625,37.681376 5.97631536,36.0806965 5.65351229,33.2470611 C5.40739724,31.0875857 6.56663477,29.7590939 7.23364222,28.9515439 C8.59619218,27.3003924 17.2405373,22.348741 21.1551933,18.9274687 C23.1722666,17.1663607 24.7523965,15.0717778 24.9681931,11.3819232" id="path19"></path>
        </g>
        <g id="g21" transform="translate(88.674090, 21.706609) scale(-1, 1) rotate(-180.000000) translate(-88.674090, -21.706609) translate(72.100664, 1.908629)" fill="#BFBFBF">
          <path d="M11.2272135,2.38704178 C14.0508577,1.5383128 19.4268217,0.885863752 23.1729687,3.49384251 C27.6675964,6.61796481 28.6144249,14.2528908 22.2710493,18.2311942 C19.7168582,19.8341471 13.3435433,19.7232853 11.2272135,19.2398551 L11.2272135,2.38704178 Z M11.2272135,21.4716306 C13.2275287,20.9736612 19.1180734,20.839173 21.4028114,22.2494808 C24.9842924,24.45763 26.2267707,28.0015733 25.5662363,31.1347826 C25.1695415,33.0176161 24.1441226,34.7550569 22.3739653,35.9636325 C18.8879155,38.3517051 13.8581239,37.9645973 11.2272135,37.1867472 L11.2272135,21.4716306 Z M24.3761517,20.3630125 C31.6420301,17.9404093 33.713451,12.9588972 32.3643141,7.82654034 C30.7812771,1.79274975 23.7754958,0.566000155 21.5038562,0.27339766 C20.4784375,0.144361776 17.8606254,0.155266217 15.2727528,0.155266217 C10.6546256,0.149813997 4.81273218,0.164353251 0.121628146,0.164353251 L0.121628146,0.885863752 L2.52425183,0.885863752 C4.05115287,0.885863752 5.79511338,2.13623964 5.79511338,4.02270789 L5.79511338,35.6310471 C5.79511338,37.5193327 4.05115287,38.7951523 2.53735026,38.7951523 L0.136597764,38.7951523 L0.136597764,39.5184802 C4.27943954,39.5184802 10.3140668,39.5202977 14.6290592,39.5184802 C18.1151089,39.5184802 20.0087656,39.1931644 21.232532,38.9623538 C23.2889832,38.575246 29.2936712,36.8523443 30.7213986,31.4128459 C31.8272791,27.2000968 29.6641693,21.8896342 24.3761517,20.3630125 Z" id="path23"></path>
        </g>
        <g id="g25" transform="translate(126.381766, 20.881693) scale(-1, 1) rotate(-180.000000) translate(-126.381766, -20.881693) translate(108.150997, 0.258798)" fill="#BFBFBF">
          <path d="M33.6232984,39.3678275 L34.1995117,26.1652896 L33.3865738,26.1366586 C32.9938678,29.4739766 31.7038105,31.82352 30.0779347,33.3552864 C29.6099906,33.7954904 28.7218147,34.6866349 27.4409328,35.4739913 C25.3067413,36.7856558 22.1320625,37.9452172 18.3609847,37.2902798 C12.6979452,36.3060841 9.78201198,32.6574022 8.32496293,29.1447184 C6.53026018,24.8267835 5.39434914,17.4417369 8.43873753,11.2108836 C10.9069126,6.1539072 15.6524149,4.04772843 19.3133884,3.50373664 C22.4330147,3.04026994 29.3494101,3.18342568 34.6197437,10.1175316 L35.4602078,9.57175039 C31.3661568,3.94036163 25.9288315,0.332837087 19.7060942,0.388309934 C11.7455416,0.456308908 6.74312881,4.73487597 4.45662613,7.27589029 C2.04533839,9.95469199 0.195583411,15.0385101 0.171727444,19.4673907 C0.153376701,23.4041734 1.04338778,27.7847389 2.49309654,30.3472266 C4.98879769,34.7474761 10.202244,39.1208838 17.0690924,39.7776107 C22.2128058,40.267919 25.5930128,39.2855129 28.48142,37.6732214 C29.9237884,36.866181 30.7348912,36.7731296 31.5203031,37.0988091 C32.3038799,37.4280671 32.9369805,38.0830047 32.9369805,39.3678275 L33.6232984,39.3678275 Z" id="path27"></path>
        </g>
        <polygon id="path29" fill="#FFFFFF" points="216.301993 41.5045891 175.745369 41.5045891 175.745369 1.57589039 216.301993 1.57589039"></polygon>
        <g id="g31" transform="translate(166.990833, 20.881693) scale(-1, 1) rotate(-180.000000) translate(-166.990833, -20.881693) translate(156.218106, 0.258798)" fill="#BFBFBF">
          <polygon id="path33" points="0 19.9643493 20.8056846 0.214163021 20.8056846 39.7163506"></polygon>
        </g>
        <g id="g35" transform="translate(196.462153, 30.780683) scale(-1, 1) rotate(-180.000000) translate(-196.462153, -30.780683) translate(175.745369, 20.056777)" fill="#BFBFBF">
          <polygon id="path37" points="0 0 40.1234052 0 20.060781 20.4816748"></polygon>
        </g>
        <g id="g39" transform="translate(196.462153, 11.555754) scale(-1, 1) rotate(-180.000000) translate(-196.462153, -11.555754) translate(175.745369, 0.831848)" fill="#BFBFBF">
          <polygon id="path41" points="20.2783118 0 40.3409363 20.4835569 0.217530982 20.4835569"></polygon>
        </g>
        <g id="g43" transform="translate(225.572624, 20.881693) scale(-1, 1) rotate(-180.000000) translate(-225.572624, -20.881693) translate(214.799897, 0.258798)" fill="#BFBFBF">
          <polygon id="path45" points="0 39.9286988 0 0.426511101 20.8056846 20.1766975"></polygon>
        </g>
      </g>
    </g>
  </g>
</svg>
