<?xml version="1.0" encoding="UTF-8"?>
<svg xmlns="http://www.w3.org/2000/svg" xmlns:xlink="http://www.w3.org/1999/xlink" width="181px" height="32px" viewBox="0 0 181 32">
  <!-- Generator: Sketch 50 (54983) - http://www.bohemiancoding.com/sketch -->
  <title>HSBC-logo</title>
  <desc>Created with Sketch.</desc>
  <defs></defs>
  <g id="Design" stroke="none" stroke-width="1" fill="none" fill-rule="evenodd">
    <g id="home" transform="translate(-150.000000, -919.000000)" fill-rule="nonzero">
      <g id="featured-clients" transform="translate(90.000000, 800.000000)">
        <g id="row-1" transform="translate(60.000000, 110.000000)">
          <g id="HSBC-logo" transform="translate(0.000000, 9.000000)">
            <g id="g13" transform="translate(16.500000, 16.500000) scale(-1, 1) rotate(-180.000000) translate(-16.500000, -16.500000) translate(0.000000, 1.000000)" fill="#000000">
              <path d="M23.7336331,14.2623985 C23.7122666,14.2623985 23.7336331,3.510387 23.7336331,3.510387 C23.7336331,2.15791534 22.5371061,0.972774009 20.9702255,0.972774009 L19.4688689,0.972774009 L19.4688689,0.425147444 L32.1762709,0.425147444 L32.1762709,0.972774009 L30.6749143,0.972774009 C29.1294003,0.972774009 27.9115067,2.17727587 27.9115067,3.510387 L27.9115067,14.4311117 L27.9115067,27.4649005 C27.9115067,28.7758853 29.1080337,29.9997477 30.6749143,29.9997477 L32.1762709,29.9997477 L32.1762709,30.5501401 L19.4688689,30.5501401 L19.4688689,29.9997477 L20.9702255,29.9997477 C22.5584727,29.9997477 23.7336331,28.7758853 23.7336331,27.4649005 L23.7336331,15.7835834 L8.67733468,15.7835834 L8.67733468,27.4649005 C8.67733468,28.7758853 9.89522826,29.9997477 11.4407423,29.9997477 L12.9406744,29.9997477 L12.9406744,30.5501401 L0.233272497,30.5501401 L0.233272497,29.9997477 L1.73605347,29.9997477 C3.30150967,29.9997477 4.49946113,28.7758853 4.49946113,27.4649005 L4.49946113,14.4311117 L4.49946113,3.510387 C4.49946113,2.17727587 3.30150967,0.972774009 1.73605347,0.972774009 L0.233272497,0.972774009 L0.233272497,0.425147444 L12.9406744,0.425147444 L12.9406744,0.972774009 L11.4407423,0.972774009 C9.89522826,0.972774009 8.67733468,2.17727587 8.67733468,3.510387 C8.67733468,3.510387 8.6972768,14.2623985 8.67733468,14.2623985 L23.7336331,14.2623985 Z" id="path15"></path>
            </g>
            <g id="g17" transform="translate(44.585987, 16.000000) scale(-1, 1) rotate(-180.000000) translate(-44.585987, -16.000000) translate(34.585987, 0.000000)" fill="#000000">
              <path d="M19.1631989,8.7960199 C19.2685965,7.01293532 18.1817693,4.30626866 16.6747206,2.92437811 C15.2265303,1.59263682 13.16238,0.433631841 10.4028794,0.433631841 C7.26695877,0.433631841 4.56905413,2.1359204 3.58625579,2.51900498 C2.99082782,2.75164179 2.21061187,2.72656716 1.7452199,2.43402985 C1.20180633,2.09273632 0.867819149,1.54109453 0.741889556,0.518606965 L0.281972783,0.518606965 L0.281972783,11.0318408 L0.741889556,11.0318408 C1.16074233,7.79721393 2.64452144,5.89711443 3.56572379,4.81751244 C5.0714037,3.05114428 7.91440113,2.05094527 10.6533698,2.49810945 C12.8297616,2.85333333 15.2114735,5.25631841 14.9500327,8.23323383 C14.8569543,9.30726368 14.6256271,10.8702488 12.4314409,12.3287562 C11.0544281,13.2453731 9.09841306,14.5450746 7.24505797,15.7974129 C4.90577891,17.3757214 2.78277024,19.0849751 2.18597347,19.7773134 C1.40301992,20.6841791 0.428434375,21.9894527 0.428434375,24.0762189 C0.428434375,25.8634826 1.09777754,27.9056716 2.51996065,29.2680597 C3.94214377,30.6290547 5.86530765,31.6501493 8.62480829,31.6501493 C11.3856777,31.6501493 13.477204,30.160995 14.1876112,29.8210945 C14.8980183,29.481194 15.6837095,29.560597 16.131307,29.8210945 C16.5706918,30.0774129 16.863615,30.4604975 16.9895446,31.481592 L17.4494614,31.481592 L17.4494614,21.521393 L16.9895446,21.521393 C16.5706918,24.7574129 15.1909415,27.1812935 14.2286752,28.0756219 C13.2677776,28.9699502 11.3856777,30.2041791 8.58374429,29.6511443 C5.89542125,29.120398 4.58684853,27.8833831 4.33909574,25.6935323 C4.15020135,24.0246766 5.0399213,22.99801 5.55185247,22.3739303 C6.59761561,21.0979104 13.2321888,17.2712438 16.2367046,14.6272637 C17.7848173,13.2662687 18.9975741,11.6475622 19.1631989,8.7960199" id="path19"></path>
            </g>
            <g id="g21" transform="translate(68.337580, 16.500000) scale(-1, 1) rotate(-180.000000) translate(-68.337580, -16.500000) translate(55.337580, 1.000000)" fill="#000000">
              <path d="M8.61693614,1.8447205 C10.7840956,1.18881755 14.9101718,0.684600932 17.7853562,2.70006289 C21.235003,5.11440373 21.9616979,11.0147213 17.093129,14.0891786 C15.132776,15.3279503 10.2412286,15.2422756 8.61693614,14.8686778 L8.61693614,1.8447205 Z M8.61693614,16.5934076 C10.1521869,16.2085738 14.6732061,16.1046405 16.4267526,17.1945349 C19.1755552,18.9010062 20.1291628,21.6397873 19.6221998,24.0611506 C19.3177347,25.5162158 18.5307212,26.8589208 17.1721176,27.7929154 C14.4965589,29.6384325 10.6361715,29.3392733 8.61693614,28.738146 L8.61693614,16.5934076 Z M18.7088045,15.7366607 C24.2853984,13.8644581 25.8752231,10.0147151 24.8397546,6.04839829 C23.6247666,1.38544798 18.2477984,0.437408385 16.504305,0.211283385 C15.7172915,0.111563665 13.7081092,0.119990683 11.7219055,0.119990683 C8.1774724,0.115777174 3.69379329,0.127013199 0.0933501415,0.127013199 L0.0933501415,0.684600932 L1.93737448,0.684600932 C3.10927779,0.684600932 4.44777521,1.65089907 4.44777521,3.10877329 L4.44777521,27.5358913 C4.44777521,28.99517 3.10927779,29.9811312 1.94742757,29.9811312 L0.10483939,29.9811312 L0.10483939,30.5401234 C3.28448883,30.5401234 7.916092,30.541528 11.2278678,30.5401234 C13.9034265,30.5401234 15.3568164,30.2887174 16.2960624,30.1103455 C17.8743979,29.8111863 22.4830226,28.4797174 23.5788096,24.2760396 C24.4275778,21.0204014 22.7673814,16.9164433 18.7088045,15.7366607 Z" id="path23"></path>
            </g>
            <g id="g25" transform="translate(97.006369, 16.500000) scale(-1, 1) rotate(-180.000000) translate(-97.006369, -16.500000) translate(83.006369, 1.000000)" fill="#000000">
              <path d="M25.8060306,30.423698 L26.2482769,20.220696 L25.6243434,20.1985697 C25.3229399,22.7776696 24.3328152,24.5934112 23.0849482,25.7771696 C22.7257991,26.1173619 22.0441201,26.8060438 21.0610376,27.4145177 C19.4230361,28.42818 16.9864562,29.3242962 14.0921372,28.8181565 C9.74572922,28.0575641 7.50773757,25.2378404 6.38944595,22.5232168 C5.01200364,19.1862903 4.14018688,13.4790811 6.47676847,8.66383946 C8.37110376,4.75577716 12.0132979,3.12810932 14.8231112,2.70770913 C17.2174383,2.34953923 22.5258024,2.46017086 26.5708068,7.8188904 L27.2158667,7.39710731 C24.0736645,3.04513559 19.9004931,0.257218538 15.1245147,0.300088294 C9.01475523,0.352638318 5.17538126,3.65914114 3.42048031,5.62285256 C1.56980628,7.69304692 0.150111136,11.6218527 0.131801575,15.0445187 C0.117717298,18.0868885 0.800804744,21.4722163 1.91346265,23.4525225 C3.82892435,26.8530622 7.83026752,30.2328585 13.1006041,30.7403811 C17.048427,31.1192944 19.6427508,30.3600849 21.8596161,29.1140961 C22.9666403,28.4904103 23.5891653,28.4184998 24.1919724,28.6701867 C24.793371,28.9246395 25.2792786,29.4307792 25.2792786,30.423698 L25.8060306,30.423698 Z" id="path27"></path>
            </g>
            <polygon id="path29" fill="#FFFFFF" points="166.012739 32 134.88535 32 134.88535 1.14285714 166.012739 1.14285714"></polygon>
            <g id="g31" transform="translate(127.898089, 16.500000) scale(-1, 1) rotate(-180.000000) translate(-127.898089, -16.500000) translate(119.898089, 1.000000)" fill="#E71D1C">
              <polygon id="path33" points="0 15.4285714 15.9684551 0.165506494 15.9684551 30.693039"></polygon>
            </g>
            <g id="g35" transform="translate(150.385350, 24.000000) scale(-1, 1) rotate(-180.000000) translate(-150.385350, -24.000000) translate(134.885350, 16.000000)" fill="#E71D1C">
              <polygon id="path37" points="0 0 30.7948914 0 15.3967383 15.8283636"></polygon>
            </g>
            <g id="g39" transform="translate(150.385350, 9.142857) scale(-1, 1) rotate(-180.000000) translate(-150.385350, -9.142857) translate(134.885350, 1.142857)" fill="#E71D1C">
              <polygon id="path41" points="15.5636943 0 30.9618474 15.8298182 0.166955993 15.8298182"></polygon>
            </g>
            <g id="g43" transform="translate(172.859873, 16.500000) scale(-1, 1) rotate(-180.000000) translate(-172.859873, -16.500000) translate(164.859873, 1.000000)" fill="#E71D1C">
              <polygon id="path45" points="0 30.8571429 0 0.32961039 15.9684551 15.5926753"></polygon>
            </g>
          </g>
        </g>
      </g>
    </g>
  </g>
</svg>
