<?xml version="1.0" encoding="UTF-8"?>
<!-- Generator: Adobe Illustrator 22.1.0, SVG Export Plug-In . SVG Version: 6.00 Build 0)  -->
<svg xmlns="http://www.w3.org/2000/svg" xmlns:xlink="http://www.w3.org/1999/xlink" id="Layer_1" x="0px" y="0px" viewBox="0 0 642 149" style="enable-background:new 0 0 642 149;" xml:space="preserve">
<style type="text/css">
	.st0{fill:#726963;}
	.st1{fill:#6CBE45;}
</style>
<title>Artboard 1</title>
<path class="st0" d="M354.6,46.2h17.7c0.8,0,1.4,0.6,1.4,1.4v61.5c0,0.8-0.6,1.4-1.4,1.4h-17.7c-0.8,0-1.4-0.6-1.4-1.4V47.6  C353.2,46.8,353.8,46.2,354.6,46.2z"></path>
<path class="st0" d="M199.3,21.4h-19.1c-0.8,0-1.4,0.6-1.4,1.4v32.1h-15.5V22.8c0-0.8-0.6-1.4-1.4-1.4h-19c-0.8,0-1.4,0.6-1.4,1.4  v86.3c0,0.8,0.6,1.4,1.4,1.4H162c0.8,0,1.4-0.6,1.4-1.4V74.2h15.4v34.9c0,0.8,0.6,1.4,1.4,1.4h19.1c0.8,0,1.4-0.6,1.4-1.4V22.8  C200.7,22,200.1,21.4,199.3,21.4L199.3,21.4z"></path>
<path class="st0" d="M380.5,109.1c0,0.8,0.6,1.4,1.4,1.4h17.3c0.8,0,1.4-0.6,1.4-1.4V60.6h4.6c2.3,0,4.2,1.9,4.2,4.2v0v44.3  c0,0.8,0.6,1.4,1.4,1.4h17.4c0.8,0,1.4-0.6,1.4-1.4V60.7c0-8-6.5-14.5-14.5-14.5c0,0-0.1,0-0.1,0h-32.3c-1.2,0-2.2,1-2.2,2.2v0  V109.1z"></path>
<path class="st0" d="M578.9,109.1c0,0.8,0.6,1.4,1.4,1.4l0,0h17.3c0.8,0,1.4-0.6,1.4-1.4c0,0,0,0,0,0V60.6h4.6  c2.3,0,4.2,1.9,4.2,4.2v0v44.3c0,0.8,0.6,1.4,1.4,1.4l0,0h17.4c0.8,0,1.4-0.6,1.4-1.4c0,0,0,0,0,0V60.7c0-8-6.5-14.5-14.5-14.5  h-32.4c-1.2,0-2.2,1-2.2,2.2v0L578.9,109.1z"></path>
<path class="st0" d="M263.6,109.1c0,0.8,0.6,1.4,1.4,1.4h17.3c0.8,0,1.4-0.6,1.4-1.4V60.6h4.6c2.3,0,4.2,1.9,4.2,4.2v0v44.3  c0,0.8,0.6,1.4,1.4,1.4h17.4c0.8,0,1.4-0.6,1.4-1.4V60.7c0-8-6.5-14.5-14.5-14.5c-0.1,0-0.1,0-0.2,0h-32.2c-1.2,0-2.2,1-2.2,2.2v0  L263.6,109.1z"></path>
<path class="st0" d="M256.5,47.6c0-0.8-0.6-1.4-1.4-1.4h-17.3c-0.8,0-1.4,0.6-1.4,1.4v48.5h-4.6c-2.3,0-4.2-1.9-4.2-4.2v0V47.6  c0-0.8-0.6-1.4-1.4-1.4h-17.3c-0.8,0-1.4,0.6-1.4,1.4V96c0,8,6.5,14.5,14.5,14.5l0,0h32.2c1.2,0,2.2-1,2.2-2.2v0L256.5,47.6z"></path>
<path class="st0" d="M345.5,96.1h-3.4c-2.3,0-4.2-1.9-4.2-4.2v0V63.5h7.6c0.8,0,1.4-0.6,1.4-1.4V47.6c0-0.8-0.6-1.4-1.4-1.4h-7.6  V34.4c0-0.8-0.6-1.4-1.4-1.4h-16.6c-0.8,0-1.4,0.6-1.4,1.4V96c0,8,6.5,14.5,14.5,14.5l0,0h12.4c0.8,0,1.4-0.6,1.4-1.4V97.5  C346.8,96.8,346.2,96.2,345.5,96.1z"></path>
<path class="st0" d="M517.6,96.1h-3.4c-2.3,0-4.2-1.9-4.2-4.2v0V63.5h7.6c0.8,0,1.4-0.6,1.4-1.4c0,0,0,0,0,0V47.6  c0-0.8-0.6-1.4-1.4-1.4l0,0H510V34.4c0-0.8-0.6-1.4-1.4-1.4l0,0h-16.5c-0.8,0-1.4,0.6-1.4,1.4c0,0,0,0,0,0V96  c0,8,6.5,14.5,14.5,14.5l0,0h12.4c0.8,0,1.4-0.6,1.4-1.4c0,0,0,0,0,0V97.5C519,96.7,518.4,96.1,517.6,96.1L517.6,96.1z"></path>
<path class="st0" d="M483,46.2h-33c-8,0-14.5,6.5-14.5,14.5V96c0,8,6.5,14.5,14.5,14.5l0,0h14.3v8.5c0,1.9-1.5,3.4-3.4,3.4l0,0h-2  c-1.9,0-3.4-1.5-3.4-3.4c0,0,0,0,0,0v-2.7c0-0.8-0.6-1.4-1.4-1.4l0,0h-17.2c-0.8,0-1.4,0.6-1.4,1.4v5.1l0,0c0,10,5.2,13.4,14.1,15.4  c3.4,0.7,6.8,1,10.3,1l0,0c3.5,0,6.9-0.3,10.3-1c8.9-2,14.1-5.4,14.1-15.4V47.6C484.3,46.9,483.7,46.3,483,46.2z M464.3,96.1h-4.6  c-2.3,0-4.2-1.9-4.2-4.2v0v-27c0-2.3,1.9-4.2,4.2-4.2l0,0h4.6V96.1z"></path>
<path class="st0" d="M558.6,46.1c-6.8-1.4-13.8-1.4-20.6,0c-8.9,2-14.1,5.4-14.1,15.4V95c0,10,5.2,13.4,14.1,15.4  c6.8,1.4,13.8,1.4,20.6,0c8.9-2,14.1-5.4,14.1-15.4V61.6C572.7,51.5,567.5,48.2,558.6,46.1z M553.4,91.8c0,2.3-1.9,4.2-4.2,4.2l0,0  h-1.7c-2.3,0-4.2-1.9-4.2-4.2v0v-27c0-2.3,1.9-4.2,4.2-4.2l0,0h1.7c2.3,0,4.2,1.9,4.2,4.2v0V91.8z"></path>
<polygon class="st1" points="63.4,54.3 63.4,16.7 49.7,24.6 49.7,62.1 "></polygon>
<polygon class="st1" points="68.5,100.3 68.5,137.8 82.1,130 82.1,92.4 "></polygon>
<polygon class="st1" points="49.7,89.4 49.7,130 63.4,137.8 63.4,97.6 87.2,83.8 87.2,127 100.9,119.1 100.9,35.4 87.2,27.5   87.2,67.8 "></polygon>
<polygon class="st1" points="44.6,27.5 30.9,35.4 30.9,119.1 44.6,127 44.6,86.8 82.1,65.1 82.1,24.5 68.5,16.7 68.5,56.9   44.6,70.7 "></polygon>
<path class="st1" d="M25.8,38.3L14.3,45c-1.2,0.7-2,1.9-2.1,3.3v57.9c0.1,1.4,0.9,2.6,2.1,3.3l11.6,6.7L25.8,38.3z"></path>
<path class="st1" d="M106,116.2l11.6-6.7c1.2-0.7,2-1.9,2.1-3.3V48.3c-0.1-1.4-0.9-2.6-2.1-3.3L106,38.3V116.2z"></path>
</svg>
