<?xml version="1.0" encoding="UTF-8"?>
<svg xmlns="http://www.w3.org/2000/svg" xmlns:xlink="http://www.w3.org/1999/xlink" width="273px" height="56px" viewBox="0 0 273 56">
  <!-- Generator: Sketch 50.2 (55047) - http://www.bohemiancoding.com/sketch -->
  <title>huntington-logo_grey</title>
  <desc>Created with Sketch.</desc>
  <defs></defs>
  <g id="Design" stroke="none" stroke-width="1" fill="none" fill-rule="evenodd">
    <g id="home" transform="translate(-93.000000, -1109.000000)" fill="#BFBFBF" fill-rule="nonzero">
      <g id="huntington-logo_grey" transform="translate(93.000000, 1109.000000)">
        <path d="M152.484898,14 L160.289936,14 C160.642708,14 160.907284,14.2786936 160.907284,14.6502852 L160.907284,43.2163814 C160.907284,43.5879731 160.642708,43.8666667 160.289936,43.8666667 L152.484898,43.8666667 C152.132127,43.8666667 151.86755,43.5879731 151.86755,43.2163814 L151.86755,14.6502852 C151.86755,14.2786936 152.132127,14 152.484898,14 Z" id="Shape"></path>
        <path d="M83.4495816,2.8 L74.9916267,2.8 C74.637367,2.8 74.371672,3.07654322 74.371672,3.44526749 L74.371672,18.2403293 L67.5078866,18.2403293 L67.5078866,3.44526749 C67.5078866,3.07654322 67.2421916,2.8 66.8879318,2.8 L58.4742595,2.8 C58.1199995,2.8 57.8543047,3.07654322 57.8543047,3.44526749 L57.8543047,43.2213992 C57.8543047,43.5901235 58.1199995,43.8666667 58.4742595,43.8666667 L66.9322143,43.8666667 C67.2864741,43.8666667 67.5521691,43.5901235 67.5521691,43.2213992 L67.5521691,27.1358026 L74.371672,27.1358026 L74.371672,43.2213992 C74.371672,43.5901235 74.637367,43.8666667 74.9916267,43.8666667 L83.4495816,43.8666667 C83.8038416,43.8666667 84.0695364,43.5901235 84.0695364,43.2213992 L84.0695364,3.44526749 C84.0695364,3.07654322 83.8038416,2.8 83.4495816,2.8 Z" id="Shape"></path>
        <path d="M163.619205,43.2163814 C163.619205,43.5879731 163.884322,43.8666667 164.23781,43.8666667 L171.882002,43.8666667 C172.23549,43.8666667 172.500606,43.5879731 172.500606,43.2163814 L172.500606,20.688647 L174.533167,20.688647 C175.549447,20.688647 176.388982,21.5711768 176.388982,22.6395022 L176.388982,43.2163814 C176.388982,43.5879731 176.654098,43.8666667 177.007587,43.8666667 L184.695964,43.8666667 C185.049454,43.8666667 185.31457,43.5879731 185.31457,43.2163814 L185.31457,20.7350958 C185.31457,17.019181 182.442474,14 178.907588,14 C178.907588,14 178.863403,14 178.863403,14 L164.591299,14 C164.061065,14 163.619205,14.4644894 163.619205,15.0218766 L163.619205,43.2163814 Z" id="Shape"></path>
        <path d="M251.304636,43.2163814 C251.304636,43.5879731 251.569752,43.8666667 251.923242,43.8666667 L259.567433,43.8666667 C259.92092,43.8666667 260.186036,43.5879731 260.186036,43.2163814 C260.186036,43.2163814 260.186036,43.2163814 260.186036,43.2163814 L260.186036,20.688647 L262.218597,20.688647 C263.234877,20.688647 264.074412,21.5711768 264.074412,22.6395022 L264.074412,43.2163814 C264.074412,43.5879731 264.339529,43.8666667 264.693017,43.8666667 L272.381395,43.8666667 C272.734884,43.8666667 273,43.5879731 273,43.2163814 C273,43.2163814 273,43.2163814 273,43.2163814 L273,20.7350958 C273,17.019181 270.127906,14 266.59302,14 L252.276729,14 C251.746496,14 251.304636,14.4644894 251.304636,15.0218766 L251.304636,43.2163814 Z" id="Shape"></path>
        <path d="M112.092715,43.2163814 C112.092715,43.5879731 112.357832,43.8666667 112.711321,43.8666667 L120.355512,43.8666667 C120.709,43.8666667 120.974117,43.5879731 120.974117,43.2163814 L120.974117,20.688647 L123.006677,20.688647 C124.022956,20.688647 124.862492,21.5711768 124.862492,22.6395022 L124.862492,43.2163814 C124.862492,43.5879731 125.127608,43.8666667 125.481097,43.8666667 L133.169474,43.8666667 C133.522963,43.8666667 133.78808,43.5879731 133.78808,43.2163814 L133.78808,20.7350958 C133.78808,17.019181 130.915985,14 127.381099,14 C127.336912,14 127.336912,14 127.292726,14 L113.064809,14 C112.534576,14 112.092715,14.4644894 112.092715,15.0218766 L112.092715,43.2163814 Z" id="Shape"></path>
        <path d="M108.476821,14.6502852 C108.476821,14.2786936 108.211163,14 107.856954,14 L100.197161,14 C99.8429521,14 99.5772943,14.2786936 99.5772943,14.6502852 L99.5772943,37.1780197 L97.5405868,37.1780197 C96.5222325,37.1780197 95.680984,36.2954899 95.680984,35.2271643 L95.680984,14.6502852 C95.680984,14.2786936 95.4153261,14 95.0611166,14 L87.4013245,14 C87.0471145,14 86.781457,14.2786936 86.781457,14.6502852 L86.781457,37.1315707 C86.781457,40.8474858 89.6594135,43.8666667 93.2015139,43.8666667 L107.458467,43.8666667 C107.989782,43.8666667 108.432545,43.4021773 108.432545,42.8447901 L108.476821,14.6502852 Z" id="Shape"></path>
        <path d="M148.53176,36.3433978 L147.01665,36.3433978 C145.991722,36.3433978 145.145042,35.4738925 145.145042,34.4213333 L145.145042,21.4245162 L148.53176,21.4245162 C148.888256,21.4245162 149.155629,21.1499355 149.155629,20.783828 L149.155629,14.1481291 C149.155629,13.7820215 148.888256,13.5074409 148.53176,13.5074409 L145.145042,13.5074409 L145.145042,8.10735483 C145.145042,7.74124731 144.87767,7.46666667 144.521173,7.46666667 L137.123869,7.46666667 C136.767373,7.46666667 136.5,7.74124731 136.5,8.10735483 L136.5,36.2976344 C136.5,39.9587096 139.396535,42.9333333 142.9615,42.9333333 L148.487198,42.9333333 C148.843695,42.9333333 149.111067,42.6587528 149.111067,42.2926451 L149.111067,36.9840861 C149.111067,36.6637419 148.843695,36.3891613 148.53176,36.3433978 Z" id="Shape"></path>
        <path d="M224.46333,36.3433978 L222.942867,36.3433978 C221.914318,36.3433978 221.064646,35.4738925 221.064646,34.4213333 L221.064646,21.4245162 L224.46333,21.4245162 C224.821086,21.4245162 225.089404,21.1499355 225.089404,20.783828 C225.089404,20.783828 225.089404,20.783828 225.089404,20.783828 L225.089404,14.1481291 C225.089404,13.7820215 224.821086,13.5074409 224.46333,13.5074409 L221.064646,13.5074409 L221.064646,8.10735483 C221.064646,7.74124731 220.796328,7.46666667 220.438573,7.46666667 L213.059849,7.46666667 C212.702092,7.46666667 212.433774,7.74124731 212.433774,8.10735483 C212.433774,8.10735483 212.433774,8.10735483 212.433774,8.10735483 L212.433774,36.2976344 C212.433774,39.9587096 215.340546,42.9333333 218.918108,42.9333333 L224.46333,42.9333333 C224.821086,42.9333333 225.089404,42.6587528 225.089404,42.2926451 C225.089404,42.2926451 225.089404,42.2926451 225.089404,42.2926451 L225.089404,36.9840861 C225.089404,36.6179786 224.821086,36.3433978 224.46333,36.3433978 Z" id="Shape"></path>
        <path d="M209.143905,14 L194.472858,14 C190.916241,14 188.02649,16.9803493 188.02649,20.6484715 L188.02649,36.8340611 C188.02649,40.5021834 190.916241,43.4825326 194.472858,43.4825326 L200.830312,43.4825326 L200.830312,47.3799126 C200.830312,48.2510917 200.163447,48.9388646 199.318749,48.9388646 L198.429596,48.9388646 C197.584899,48.9388646 196.918032,48.2510917 196.918032,47.3799126 C196.918032,47.3799126 196.918032,47.3799126 196.918032,47.3799126 L196.918032,46.1419214 C196.918032,45.7751091 196.651286,45.5 196.295626,45.5 L188.648899,45.5 C188.293237,45.5 188.02649,45.7751091 188.02649,46.1419214 L188.02649,48.4803493 C188.02649,53.0655022 190.338291,54.6244542 194.295028,55.5414846 C195.806589,55.8624454 197.318153,56 198.874172,56 C200.430192,56 201.941755,55.8624454 203.453316,55.5414846 C207.410054,54.6244542 209.721854,53.0655022 209.721854,48.4803493 L209.721854,14.6419214 C209.721854,14.3209607 209.455108,14.0458515 209.143905,14 Z M200.830312,36.8799126 L198.785256,36.8799126 C197.762729,36.8799126 196.918032,36.0087336 196.918032,34.9541485 L196.918032,22.5742358 C196.918032,21.5196507 197.762729,20.6484715 198.785256,20.6484715 L200.830312,20.6484715 L200.830312,36.8799126 Z" id="Shape"></path>
        <path d="M242.324178,13.5537148 C239.301052,12.9043172 236.189013,12.9043172 233.165888,13.5537148 C229.209153,14.4814257 226.897351,16.0585341 226.897351,20.6970883 L226.897351,36.236245 C226.897351,40.8747992 229.209153,42.4519075 233.165888,43.3796186 C236.189013,44.0290162 239.301052,44.0290162 242.324178,43.3796186 C246.280914,42.4519075 248.592716,40.8747992 248.592716,36.236245 L248.592716,20.7434739 C248.592716,16.0585341 246.280914,14.5278112 242.324178,13.5537148 Z M240.012376,34.7519075 C240.012376,35.818775 239.16768,36.7001003 238.145153,36.7001003 L237.38937,36.7001003 C236.366845,36.7001003 235.522148,35.818775 235.522148,34.7519075 L235.522148,22.2278112 C235.522148,21.1609438 236.366845,20.2796186 237.38937,20.2796186 L238.145153,20.2796186 C239.16768,20.2796186 240.012376,21.1609438 240.012376,22.2278112 L240.012376,34.7519075 Z" id="Shape"></path>
        <polygon id="Shape" points="23.5033112 17.00558 23.5033112 0 17.1754968 3.57298091 17.1754968 20.5333333"></polygon>
        <polygon id="Shape" points="25.3112583 39.0396475 25.3112583 56 31.6390729 52.4722467 31.6390729 35.4666667"></polygon>
        <polygon id="Shape" points="17.1754968 33.8843155 17.1754968 52.4359021 23.2225851 56 23.2225851 37.6311877 33.727746 31.325476 33.727746 51.0650952 39.7748344 47.4553037 39.7748344 9.20979149 33.727746 5.6 33.727746 24.0145059"></polygon>
        <polygon id="Shape" points="14.18285 4.93490482 8.13576159 8.54469629 8.13576159 46.7902085 14.18285 50.4 14.18285 32.0311877 30.7350994 22.1156845 30.7350994 3.56409792 24.7321503 0 24.7321503 18.3688123 14.18285 24.674524"></polygon>
        <path d="M6.28162615,10.2666667 L0.969956977,13.3170732 C0.415695849,13.6357724 0.0461884275,14.1821139 0,14.8195122 L0,41.1804878 C0.0461884275,41.8178861 0.415695849,42.3642277 0.969956977,42.6829269 L6.32781456,45.7333333 L6.28162615,10.2666667 Z" id="Shape"></path>
        <path d="M41.5827815,45.7333333 L46.9406391,42.6829269 C47.4949003,42.3642277 47.8644077,41.8178861 47.9105961,41.1804878 L47.9105961,14.8195122 C47.8644077,14.1821139 47.4949003,13.6357724 46.9406391,13.3170732 L41.5827815,10.2666667 L41.5827815,45.7333333 Z" id="Shape"></path>
      </g>
    </g>
  </g>
</svg>
