<?xml version="1.0" encoding="UTF-8"?>
<svg xmlns="http://www.w3.org/2000/svg" xmlns:xlink="http://www.w3.org/1999/xlink" width="302px" height="60px" viewBox="0 0 302 60">
  <!-- Generator: Sketch 50.2 (55047) - http://www.bohemiancoding.com/sketch -->
  <title>huntington-logo</title>
  <desc>Created with Sketch.</desc>
  <defs></defs>
  <g id="Design" stroke="none" stroke-width="1" fill="none" fill-rule="evenodd">
    <g id="Artboard" transform="translate(-1225.000000, -685.000000)" fill-rule="nonzero">
      <g id="huntington-logo" transform="translate(1225.000000, 685.000000)">
        <path d="M168.682927,15 L177.317073,15 C177.707317,15 178,15.2986003 178,15.6967341 L178,46.3032659 C178,46.7013997 177.707317,47 177.317073,47 L168.682927,47 C168.292683,47 168,46.7013997 168,46.3032659 L168,15.6967341 C168,15.2986003 168.292683,15 168.682927,15 Z" id="Shape" fill="#726963"></path>
        <path d="M92.3141892,3 L82.9577703,3 C82.5658784,3 82.2719595,3.2962963 82.2719595,3.69135802 L82.2719595,19.5432099 L74.6790541,19.5432099 L74.6790541,3.69135802 C74.6790541,3.2962963 74.3851351,3 73.9932432,3 L64.6858108,3 C64.2939189,3 64,3.2962963 64,3.69135802 L64,46.308642 C64,46.7037037 64.2939189,47 64.6858108,47 L74.0422297,47 C74.4341216,47 74.7280405,46.7037037 74.7280405,46.308642 L74.7280405,29.0740741 L82.2719595,29.0740741 L82.2719595,46.308642 C82.2719595,46.7037037 82.5658784,47 82.9577703,47 L92.3141892,47 C92.7060811,47 93,46.7037037 93,46.308642 L93,3.69135802 C93,3.2962963 92.7060811,3 92.3141892,3 Z" id="Shape" fill="#726963"></path>
        <path d="M181,46.3032659 C181,46.7013997 181.293279,47 181.684318,47 L190.14053,47 C190.531568,47 190.824847,46.7013997 190.824847,46.3032659 L190.824847,22.1664075 L193.07332,22.1664075 C194.197556,22.1664075 195.126273,23.1119751 195.126273,24.2566096 L195.126273,46.3032659 C195.126273,46.7013997 195.419552,47 195.810591,47 L204.315682,47 C204.706721,47 205,46.7013997 205,46.3032659 L205,22.2161742 C205,18.2348367 201.822811,15 197.912424,15 C197.912424,15 197.863544,15 197.863544,15 L182.075356,15 C181.488798,15 181,15.4976672 181,16.0948678 L181,46.3032659 Z" id="Shape" fill="#726963"></path>
        <path d="M278,46.3032659 C278,46.7013997 278.293279,47 278.684318,47 L287.14053,47 C287.531568,47 287.824847,46.7013997 287.824847,46.3032659 C287.824847,46.3032659 287.824847,46.3032659 287.824847,46.3032659 L287.824847,22.1664075 L290.07332,22.1664075 C291.197556,22.1664075 292.126273,23.1119751 292.126273,24.2566096 L292.126273,46.3032659 C292.126273,46.7013997 292.419552,47 292.810591,47 L301.315682,47 C301.706721,47 302,46.7013997 302,46.3032659 C302,46.3032659 302,46.3032659 302,46.3032659 L302,22.2161742 C302,18.2348367 298.822811,15 294.912424,15 L279.075356,15 C278.488798,15 278,15.4976672 278,16.0948678 L278,46.3032659 Z" id="Shape" fill="#726963"></path>
        <path d="M124,46.3032659 C124,46.7013997 124.293279,47 124.684318,47 L133.14053,47 C133.531568,47 133.824847,46.7013997 133.824847,46.3032659 L133.824847,22.1664075 L136.07332,22.1664075 C137.197556,22.1664075 138.126273,23.1119751 138.126273,24.2566096 L138.126273,46.3032659 C138.126273,46.7013997 138.419552,47 138.810591,47 L147.315682,47 C147.706721,47 148,46.7013997 148,46.3032659 L148,22.2161742 C148,18.2348367 144.822811,15 140.912424,15 C140.863544,15 140.863544,15 140.814664,15 L125.075356,15 C124.488798,15 124,15.4976672 124,16.0948678 L124,46.3032659 Z" id="Shape" fill="#726963"></path>
        <path d="M120,15.6967341 C120,15.2986003 119.706122,15 119.314286,15 L110.840816,15 C110.44898,15 110.155102,15.2986003 110.155102,15.6967341 L110.155102,39.8335925 L107.902041,39.8335925 C106.77551,39.8335925 105.844898,38.8880249 105.844898,37.7433904 L105.844898,15.6967341 C105.844898,15.2986003 105.55102,15 105.159184,15 L96.6857143,15 C96.2938776,15 96,15.2986003 96,15.6967341 L96,39.7838258 C96,43.7651633 99.1836735,47 103.102041,47 L118.873469,47 C119.461224,47 119.95102,46.5023328 119.95102,45.9051322 L120,15.6967341 Z" id="Shape" fill="#726963"></path>
        <path d="M164.309859,38.9393548 L162.633803,38.9393548 C161.5,38.9393548 160.56338,38.0077419 160.56338,36.88 L160.56338,22.9548387 L164.309859,22.9548387 C164.704225,22.9548387 165,22.6606452 165,22.2683871 L165,15.1587097 C165,14.7664516 164.704225,14.4722581 164.309859,14.4722581 L160.56338,14.4722581 L160.56338,8.68645161 C160.56338,8.29419355 160.267606,8 159.873239,8 L151.690141,8 C151.295775,8 151,8.29419355 151,8.68645161 L151,38.8903226 C151,42.8129032 154.204225,46 158.147887,46 L164.260563,46 C164.65493,46 164.950704,45.7058065 164.950704,45.3135484 L164.950704,39.6258065 C164.950704,39.2825806 164.65493,38.9883871 164.309859,38.9393548 Z" id="Shape" fill="#726963"></path>
        <path d="M248.30742,38.9393548 L246.625442,38.9393548 C245.487633,38.9393548 244.547703,38.0077419 244.547703,36.88 L244.547703,22.9548387 L248.30742,22.9548387 C248.70318,22.9548387 249,22.6606452 249,22.2683871 C249,22.2683871 249,22.2683871 249,22.2683871 L249,15.1587097 C249,14.7664516 248.70318,14.4722581 248.30742,14.4722581 L244.547703,14.4722581 L244.547703,8.68645161 C244.547703,8.29419355 244.250883,8 243.855124,8 L235.69258,8 C235.29682,8 235,8.29419355 235,8.68645161 C235,8.68645161 235,8.68645161 235,8.68645161 L235,38.8903226 C235,42.8129032 238.215548,46 242.173145,46 L248.30742,46 C248.70318,46 249,45.7058065 249,45.3135484 C249,45.3135484 249,45.3135484 249,45.3135484 L249,39.6258065 C249,39.2335484 248.70318,38.9393548 248.30742,38.9393548 Z" id="Shape" fill="#726963"></path>
        <path d="M231.360656,15 L215.131148,15 C211.196721,15 208,18.1932314 208,22.1233624 L208,39.4650655 C208,43.3951965 211.196721,46.5884279 215.131148,46.5884279 L222.163934,46.5884279 L222.163934,50.7641921 C222.163934,51.6975983 221.42623,52.4344978 220.491803,52.4344978 L219.508197,52.4344978 C218.57377,52.4344978 217.836066,51.6975983 217.836066,50.7641921 C217.836066,50.7641921 217.836066,50.7641921 217.836066,50.7641921 L217.836066,49.4377729 C217.836066,49.0447598 217.540984,48.75 217.147541,48.75 L208.688525,48.75 C208.295082,48.75 208,49.0447598 208,49.4377729 L208,51.9432314 C208,56.8558952 210.557377,58.5262009 214.934426,59.5087336 C216.606557,59.8526201 218.278689,60 220,60 C221.721311,60 223.393443,59.8526201 225.065574,59.5087336 C229.442623,58.5262009 232,56.8558952 232,51.9432314 L232,15.6877729 C232,15.3438865 231.704918,15.0491266 231.360656,15 Z M222.163934,39.5141921 L219.901639,39.5141921 C218.770492,39.5141921 217.836066,38.580786 217.836066,37.4508734 L217.836066,24.1866812 C217.836066,23.0567686 218.770492,22.1233624 219.901639,22.1233624 L222.163934,22.1233624 L222.163934,39.5141921 Z" id="Shape" fill="#726963"></path>
        <path d="M268.065574,14.5218373 C264.721311,13.8260542 261.278689,13.8260542 257.934426,14.5218373 C253.557377,15.5158133 251,17.2055723 251,22.1754518 L251,38.8245482 C251,43.7944277 253.557377,45.4841867 257.934426,46.4781627 C261.278689,47.1739458 264.721311,47.1739458 268.065574,46.4781627 C272.442623,45.4841867 275,43.7944277 275,38.8245482 L275,22.2251506 C275,17.2055723 272.442623,15.565512 268.065574,14.5218373 Z M265.508197,37.2341867 C265.508197,38.377259 264.57377,39.3215361 263.442623,39.3215361 L262.606557,39.3215361 C261.47541,39.3215361 260.540984,38.377259 260.540984,37.2341867 L260.540984,23.815512 C260.540984,22.6724398 261.47541,21.7281627 262.606557,21.7281627 L263.442623,21.7281627 C264.57377,21.7281627 265.508197,22.6724398 265.508197,23.815512 L265.508197,37.2341867 Z" id="Shape" fill="#726963"></path>
        <polygon id="Shape" fill="#6CBE45" points="26 18.2202643 26 0 19 3.82819383 19 22"></polygon>
        <polygon id="Shape" fill="#6CBE45" points="28 41.8281938 28 60 35 56.2202643 35 38"></polygon>
        <polygon id="Shape" fill="#6CBE45" points="19 36.3046238 19 56.1813237 25.6894531 60 25.6894531 40.3191296 37.3105469 33.56301 37.3105469 54.712602 44 50.8449683 44 9.86763373 37.3105469 6 37.3105469 25.7298277"></polygon>
        <polygon id="Shape" fill="#6CBE45" points="15.6894531 5.28739801 9 9.15503173 9 50.1323663 15.6894531 54 15.6894531 34.3191296 34 23.6953762 34 3.81867634 27.359375 0 27.359375 19.6808704 15.6894531 26.43699"></polygon>
        <path d="M6.94890511,11 L1.0729927,14.2682927 C0.459854015,14.6097561 0.0510948905,15.195122 0,15.8780488 L0,44.1219512 C0.0510948905,44.804878 0.459854015,45.3902439 1.0729927,45.7317073 L7,49 L6.94890511,11 Z" id="Shape" fill="#6CBE45"></path>
        <path d="M46,49 L51.9270073,45.7317073 C52.540146,45.3902439 52.9489051,44.804878 53,44.1219512 L53,15.8780488 C52.9489051,15.195122 52.540146,14.6097561 51.9270073,14.2682927 L46,11 L46,49 Z" id="Shape" fill="#6CBE45"></path>
      </g>
    </g>
  </g>
</svg>
