<?xml version="1.0" encoding="UTF-8"?>
<svg xmlns="http://www.w3.org/2000/svg" xmlns:xlink="http://www.w3.org/1999/xlink" width="173px" height="35px" viewBox="0 0 173 35">
  <!-- Generator: Sketch 50.2 (55047) - http://www.bohemiancoding.com/sketch -->
  <title>huntington-logo_grey</title>
  <desc>Created with Sketch.</desc>
  <defs></defs>
  <g id="Design" stroke="none" stroke-width="1" fill="none" fill-rule="evenodd">
    <g id="Artboard" transform="translate(-1446.000000, -856.000000)" fill="#BFBFBF" fill-rule="nonzero">
      <g id="huntington-logo_grey" transform="translate(1446.000000, 856.000000)">
        <path d="M96.6296237,8.75 L101.575674,8.75 C101.799225,8.75 101.966887,8.92418351 101.966887,9.15642822 L101.966887,27.0102384 C101.966887,27.2424832 101.799225,27.4166667 101.575674,27.4166667 L96.6296237,27.4166667 C96.4060734,27.4166667 96.2384106,27.2424832 96.2384106,27.0102384 L96.2384106,9.15642822 C96.2384106,8.92418351 96.4060734,8.75 96.6296237,8.75 Z" id="Shape"></path>
        <path d="M52.8819693,1.75 L47.5221664,1.75 C47.2976721,1.75 47.1293013,1.92283951 47.1293013,2.15329218 L47.1293013,11.4002058 L42.779723,11.4002058 L42.779723,2.15329218 C42.779723,1.92283951 42.6113522,1.75 42.3868579,1.75 L37.0551168,1.75 C36.8306224,1.75 36.6622517,1.92283951 36.6622517,2.15329218 L36.6622517,27.0133745 C36.6622517,27.2438272 36.8306224,27.4166667 37.0551168,27.4166667 L42.4149197,27.4166667 C42.639414,27.4166667 42.8077848,27.2438272 42.8077848,27.0133745 L42.8077848,16.9598766 L47.1293013,16.9598766 L47.1293013,27.0133745 C47.1293013,27.2438272 47.2976721,27.4166667 47.5221664,27.4166667 L52.8819693,27.4166667 C53.1064637,27.4166667 53.2748344,27.2438272 53.2748344,27.0133745 L53.2748344,2.15329218 C53.2748344,1.92283951 53.1064637,1.75 52.8819693,1.75 Z" id="Shape"></path>
        <path d="M103.68543,27.0102384 C103.68543,27.2424832 103.853435,27.4166667 104.07744,27.4166667 L108.921562,27.4166667 C109.145567,27.4166667 109.313571,27.2424832 109.313571,27.0102384 L109.313571,12.9304044 L110.601604,12.9304044 C111.24562,12.9304044 111.777633,13.4819855 111.777633,14.1496889 L111.777633,27.0102384 C111.777633,27.2424832 111.945637,27.4166667 112.169643,27.4166667 L117.041765,27.4166667 C117.265771,27.4166667 117.433775,27.2424832 117.433775,27.0102384 L117.433775,12.9594349 C117.433775,10.6369881 115.613729,8.75 113.373673,8.75 C113.373673,8.75 113.345673,8.75 113.345673,8.75 L104.301446,8.75 C103.965437,8.75 103.68543,9.04030587 103.68543,9.38867288 L103.68543,27.0102384 Z" id="Shape"></path>
        <path d="M159.251656,27.0102384 C159.251656,27.2424832 159.41966,27.4166667 159.643666,27.4166667 L164.487787,27.4166667 C164.711792,27.4166667 164.879796,27.2424832 164.879796,27.0102384 C164.879796,27.0102384 164.879796,27.0102384 164.879796,27.0102384 L164.879796,12.9304044 L166.167829,12.9304044 C166.811845,12.9304044 167.343858,13.4819855 167.343858,14.1496889 L167.343858,27.0102384 C167.343858,27.2424832 167.511863,27.4166667 167.735868,27.4166667 L172.60799,27.4166667 C172.831996,27.4166667 173,27.2424832 173,27.0102384 C173,27.0102384 173,27.0102384 173,27.0102384 L173,12.9594349 C173,10.6369881 171.179955,8.75 168.939899,8.75 L159.867671,8.75 C159.531662,8.75 159.251656,9.04030587 159.251656,9.38867288 L159.251656,27.0102384 Z" id="Shape"></path>
        <path d="M71.0331126,27.0102384 C71.0331126,27.2424832 71.2011168,27.4166667 71.4251226,27.4166667 L76.269244,27.4166667 C76.4932492,27.4166667 76.6612534,27.2424832 76.6612534,27.0102384 L76.6612534,12.9304044 L77.949286,12.9304044 C78.5933019,12.9304044 79.1253153,13.4819855 79.1253153,14.1496889 L79.1253153,27.0102384 C79.1253153,27.2424832 79.2933195,27.4166667 79.5173253,27.4166667 L84.389447,27.4166667 C84.6134528,27.4166667 84.781457,27.2424832 84.781457,27.0102384 L84.781457,12.9594349 C84.781457,10.6369881 82.9614116,8.75 80.7213555,8.75 C80.6933547,8.75 80.6933547,8.75 80.6653539,8.75 L71.6491278,8.75 C71.3131194,8.75 71.0331126,9.04030587 71.0331126,9.38867288 L71.0331126,27.0102384 Z" id="Shape"></path>
        <path d="M68.7417219,9.15642822 C68.7417219,8.92418351 68.5733745,8.75 68.3489122,8.75 L63.4949045,8.75 C63.2704422,8.75 63.1020949,8.92418351 63.1020949,9.15642822 L63.1020949,23.2362623 L61.8114341,23.2362623 C61.1661034,23.2362623 60.6330045,22.6846812 60.6330045,22.0169777 L60.6330045,9.15642822 C60.6330045,8.92418351 60.4646572,8.75 60.2401948,8.75 L55.3861873,8.75 C55.1617246,8.75 54.9933775,8.92418351 54.9933775,9.15642822 L54.9933775,23.2072317 C54.9933775,25.5296786 56.8171375,27.4166667 59.0617652,27.4166667 L68.0963912,27.4166667 C68.4330853,27.4166667 68.7136638,27.1263608 68.7136638,26.7779938 L68.7417219,9.15642822 Z" id="Shape"></path>
        <path d="M94.1245219,22.7146236 L93.1643971,22.7146236 C92.5149007,22.7146236 91.9783601,22.1711828 91.9783601,21.5133333 L91.9783601,13.3903226 L94.1245219,13.3903226 C94.3504335,13.3903226 94.5198675,13.2187097 94.5198675,12.9898925 L94.5198675,8.84258066 C94.5198675,8.61376343 94.3504335,8.44215056 94.1245219,8.44215056 L91.9783601,8.44215056 L91.9783601,5.06709677 C91.9783601,4.83827957 91.8089266,4.66666667 91.5830144,4.66666667 L86.8953457,4.66666667 C86.669434,4.66666667 86.5,4.83827957 86.5,5.06709677 L86.5,22.6860215 C86.5,24.9741935 88.3355329,26.8333333 90.5946505,26.8333333 L94.0962828,26.8333333 C94.322195,26.8333333 94.4916285,26.6617205 94.4916285,26.4329032 L94.4916285,23.1150538 C94.4916285,22.9148387 94.322195,22.7432258 94.1245219,22.7146236 Z" id="Shape"></path>
        <path d="M142.24233,22.7146236 L141.278813,22.7146236 C140.627022,22.7146236 140.088585,22.1711828 140.088585,21.5133333 L140.088585,13.3903226 L142.24233,13.3903226 C142.46904,13.3903226 142.639073,13.2187097 142.639073,12.9898925 C142.639073,12.9898925 142.639073,12.9898925 142.639073,12.9898925 L142.639073,8.84258066 C142.639073,8.61376343 142.46904,8.44215056 142.24233,8.44215056 L140.088585,8.44215056 L140.088585,5.06709677 C140.088585,4.83827957 139.918552,4.66666667 139.691843,4.66666667 L135.015948,4.66666667 C134.789238,4.66666667 134.619205,4.83827957 134.619205,5.06709677 C134.619205,5.06709677 134.619205,5.06709677 134.619205,5.06709677 L134.619205,22.6860215 C134.619205,24.9741935 136.461225,26.8333333 138.728325,26.8333333 L142.24233,26.8333333 C142.46904,26.8333333 142.639073,26.6617205 142.639073,26.4329032 C142.639073,26.4329032 142.639073,26.4329032 142.639073,26.4329032 L142.639073,23.1150538 C142.639073,22.8862366 142.46904,22.7146236 142.24233,22.7146236 Z" id="Shape"></path>
        <path d="M132.534416,8.75 L123.237379,8.75 C120.983552,8.75 119.152318,10.6127183 119.152318,12.9052947 L119.152318,23.0212882 C119.152318,25.3138646 120.983552,27.1765829 123.237379,27.1765829 L127.266095,27.1765829 L127.266095,29.6124454 C127.266095,30.1569323 126.843503,30.5867904 126.308218,30.5867904 L125.744762,30.5867904 C125.209478,30.5867904 124.786885,30.1569323 124.786885,29.6124454 C124.786885,29.6124454 124.786885,29.6124454 124.786885,29.6124454 L124.786885,28.8387009 C124.786885,28.6094432 124.617848,28.4375 124.392466,28.4375 L119.546738,28.4375 C119.321355,28.4375 119.152318,28.6094432 119.152318,28.8387009 L119.152318,30.3002183 C119.152318,33.1659389 120.617305,34.1402839 123.124688,34.7134279 C124.082564,34.9140284 125.040441,35 126.02649,35 C127.012539,35 127.970416,34.9140284 128.928292,34.7134279 C131.435675,34.1402839 132.900662,33.1659389 132.900662,30.3002183 L132.900662,9.15120086 C132.900662,8.95060046 132.731625,8.77865718 132.534416,8.75 Z M127.266095,23.0499454 L125.970144,23.0499454 C125.322169,23.0499454 124.786885,22.5054585 124.786885,21.8463428 L124.786885,14.1088974 C124.786885,13.4497817 125.322169,12.9052947 125.970144,12.9052947 L127.266095,12.9052947 L127.266095,23.0499454 Z" id="Shape"></path>
        <path d="M153.560743,8.47107176 C151.644989,8.06519828 149.672891,8.06519828 147.757138,8.47107176 C145.249756,9.05089109 143.784768,10.0365838 143.784768,12.9356802 L143.784768,22.6476531 C143.784768,25.5467495 145.249756,26.5324422 147.757138,27.1122616 C149.672891,27.5181351 151.644989,27.5181351 153.560743,27.1122616 C156.068125,26.5324422 157.533113,25.5467495 157.533113,22.6476531 L157.533113,12.9646712 C157.533113,10.0365838 156.068125,9.079882 153.560743,8.47107176 Z M152.095755,21.7199422 C152.095755,22.3867344 151.560471,22.9375627 150.912496,22.9375627 L150.433557,22.9375627 C149.785583,22.9375627 149.250299,22.3867344 149.250299,21.7199422 L149.250299,13.892382 C149.250299,13.2255899 149.785583,12.6747616 150.433557,12.6747616 L150.912496,12.6747616 C151.560471,12.6747616 152.095755,13.2255899 152.095755,13.892382 L152.095755,21.7199422 Z" id="Shape"></path>
        <polygon id="Shape" points="14.8940397 10.6284875 14.8940397 0 10.884106 2.23311307 10.884106 12.8333333"></polygon>
        <polygon id="Shape" points="16.0397351 24.3997797 16.0397351 35 20.0496689 32.7951542 20.0496689 22.1666667"></polygon>
        <polygon id="Shape" points="10.884106 21.1776972 10.884106 32.7724388 14.7161437 35 14.7161437 23.5194923 21.3732603 19.5784225 21.3732603 31.9156845 25.205298 29.6595648 25.205298 5.75611968 21.3732603 3.5 21.3732603 15.0090662"></polygon>
        <polygon id="Shape" points="8.98766684 3.08431551 5.15562914 5.34043518 5.15562914 29.2438803 8.98766684 31.5 8.98766684 20.0194923 19.4768212 13.8223028 19.4768212 2.2275612 15.6727546 0 15.6727546 11.4805077 8.98766684 15.4215775"></polygon>
        <path d="M3.98066419,6.41666667 L0.614661381,8.32317074 C0.263426307,8.52235772 0.0292695896,8.86382117 0,9.26219513 L0,25.7378049 C0.0292695896,26.1361788 0.263426307,26.4776423 0.614661381,26.6768293 L4.00993377,28.5833333 L3.98066419,6.41666667 Z" id="Shape"></path>
        <path d="M26.3509934,28.5833333 L29.7462658,26.6768293 C30.0975009,26.4776423 30.3316576,26.1361788 30.3609272,25.7378049 L30.3609272,9.26219513 C30.3316576,8.86382117 30.0975009,8.52235772 29.7462658,8.32317074 L26.3509934,6.41666667 L26.3509934,28.5833333 Z" id="Shape"></path>
      </g>
    </g>
  </g>
</svg>
