<?xml version="1.0" encoding="UTF-8"?>
<svg xmlns="http://www.w3.org/2000/svg" xmlns:xlink="http://www.w3.org/1999/xlink" width="220px" height="44px" viewBox="0 0 220 44">
  <!-- Generator: Sketch 50.2 (55047) - http://www.bohemiancoding.com/sketch -->
  <title>huntington-logo</title>
  <desc>Created with Sketch.</desc>
  <defs></defs>
  <g id="Design" stroke="none" stroke-width="1" fill="none" fill-rule="evenodd">
    <g id="dropdown_menu" transform="translate(-1880.000000, -1096.000000)" fill-rule="nonzero">
      <g id="huntington-logo" transform="translate(1880.000000, 1096.000000)">
        <path d="M122.881602,11 L129.171378,11 C129.455661,11 129.668874,11.2189736 129.668874,11.5109383 L129.668874,33.9557283 C129.668874,34.2476931 129.455661,34.4666667 129.171378,34.4666667 L122.881602,34.4666667 C122.597319,34.4666667 122.384106,34.2476931 122.384106,33.9557283 L122.384106,11.5109383 C122.384106,11.2189736 122.597319,11 122.881602,11 Z" id="Shape" fill="#726963"></path>
        <path d="M67.2487471,2.2 L60.4328128,2.2 C60.1473286,2.2 59.9332155,2.41728395 59.9332155,2.70699588 L59.9332155,14.3316873 L54.4019599,14.3316873 L54.4019599,2.70699588 C54.4019599,2.41728395 54.1878468,2.2 53.9023626,2.2 L47.1221138,2.2 C46.8366297,2.2 46.6225166,2.41728395 46.6225166,2.70699588 L46.6225166,33.9596708 C46.6225166,34.2493827 46.8366297,34.4666667 47.1221138,34.4666667 L53.9380481,34.4666667 C54.2235323,34.4666667 54.4376454,34.2493827 54.4376454,33.9596708 L54.4376454,21.3209877 L59.9332155,21.3209877 L59.9332155,33.9596708 C59.9332155,34.2493827 60.1473286,34.4666667 60.4328128,34.4666667 L67.2487471,34.4666667 C67.5342313,34.4666667 67.7483444,34.2493827 67.7483444,33.9596708 L67.7483444,2.70699588 C67.7483444,2.41728395 67.5342313,2.2 67.2487471,2.2 Z" id="Shape" fill="#726963"></path>
        <path d="M131.854305,33.9557283 C131.854305,34.2476931 132.067952,34.4666667 132.352814,34.4666667 L138.512969,34.4666667 C138.797831,34.4666667 139.011478,34.2476931 139.011478,33.9557283 L139.011478,16.2553655 L140.649438,16.2553655 C141.468418,16.2553655 142.144967,16.9487817 142.144967,17.7881804 L142.144967,33.9557283 C142.144967,34.2476931 142.358614,34.4666667 142.643477,34.4666667 L148.839239,34.4666667 C149.124101,34.4666667 149.337748,34.2476931 149.337748,33.9557283 L149.337748,16.2918611 C149.337748,13.3722136 147.02324,11 144.174614,11 C144.174614,11 144.139006,11 144.139006,11 L132.637677,11 C132.210383,11 131.854305,11.3649559 131.854305,11.8029031 L131.854305,33.9557283 Z" id="Shape" fill="#726963"></path>
        <path d="M202.516556,33.9557283 C202.516556,34.2476931 202.730203,34.4666667 203.015066,34.4666667 L209.175221,34.4666667 C209.460083,34.4666667 209.67373,34.2476931 209.67373,33.9557283 C209.67373,33.9557283 209.67373,33.9557283 209.67373,33.9557283 L209.67373,16.2553655 L211.31169,16.2553655 C212.13067,16.2553655 212.807219,16.9487817 212.807219,17.7881804 L212.807219,33.9557283 C212.807219,34.2476931 213.020866,34.4666667 213.305729,34.4666667 L219.50149,34.4666667 C219.786353,34.4666667 220,34.2476931 220,33.9557283 C220,33.9557283 220,33.9557283 220,33.9557283 L220,16.2918611 C220,13.3722136 217.685491,11 214.836865,11 L203.299928,11 C202.872634,11 202.516556,11.3649559 202.516556,11.8029031 L202.516556,33.9557283 Z" id="Shape" fill="#726963"></path>
        <path d="M90.3311258,33.9557283 C90.3311258,34.2476931 90.5447728,34.4666667 90.8296356,34.4666667 L96.9897901,34.4666667 C97.2746522,34.4666667 97.4882991,34.2476931 97.4882991,33.9557283 L97.4882991,16.2553655 L99.1262596,16.2553655 C99.9452395,16.2553655 100.621788,16.9487817 100.621788,17.7881804 L100.621788,33.9557283 C100.621788,34.2476931 100.835435,34.4666667 101.120298,34.4666667 L107.31606,34.4666667 C107.600923,34.4666667 107.81457,34.2476931 107.81457,33.9557283 L107.81457,16.2918611 C107.81457,13.3722136 105.500061,11 102.651435,11 C102.615827,11 102.615827,11 102.580219,11 L91.1144977,11 C90.6872038,11 90.3311258,11.3649559 90.3311258,11.8029031 L90.3311258,33.9557283 Z" id="Shape" fill="#726963"></path>
        <path d="M87.4172185,11.5109383 C87.4172185,11.2189736 87.2031352,11 86.9176918,11 L80.7449653,11 C80.4595219,11 80.2454385,11.2189736 80.2454385,11.5109383 L80.2454385,29.2113012 L78.6041358,29.2113012 C77.7834841,29.2113012 77.1055548,28.5178849 77.1055548,27.6784863 L77.1055548,11.5109383 C77.1055548,11.2189736 76.8914715,11 76.6060281,11 L70.4333018,11 C70.1478579,11 69.9337748,11.2189736 69.9337748,11.5109383 L69.9337748,29.1748056 C69.9337748,32.0944531 72.2530072,34.4666667 75.1074471,34.4666667 L86.5965668,34.4666667 C87.0247327,34.4666667 87.3815377,34.1017107 87.3815377,33.6637636 L87.4172185,11.5109383 Z" id="Shape" fill="#726963"></path>
        <path d="M119.695924,28.5555269 L118.474956,28.5555269 C117.649007,28.5555269 116.966701,27.8723441 116.966701,27.0453333 L116.966701,16.8335484 L119.695924,16.8335484 C119.98321,16.8335484 120.198675,16.6178065 120.198675,16.3301505 L120.198675,11.1163871 C120.198675,10.8287312 119.98321,10.6129893 119.695924,10.6129893 L116.966701,10.6129893 L116.966701,6.37006451 C116.966701,6.0824086 116.751236,5.86666667 116.463949,5.86666667 L110.502752,5.86666667 C110.215465,5.86666667 110,6.0824086 110,6.37006451 L110,28.5195699 C110,31.396129 112.334204,33.7333333 115.20707,33.7333333 L119.660013,33.7333333 C119.9473,33.7333333 120.162765,33.5175914 120.162765,33.2299355 L120.162765,29.0589248 C120.162765,28.8072258 119.9473,28.5914839 119.695924,28.5555269 Z" id="Shape" fill="#726963"></path>
        <path d="M180.8862,28.5555269 L179.660918,28.5555269 C178.832051,28.5555269 178.147333,27.8723441 178.147333,27.0453333 L178.147333,16.8335484 L180.8862,16.8335484 C181.174502,16.8335484 181.390728,16.6178065 181.390728,16.3301505 C181.390728,16.3301505 181.390728,16.3301505 181.390728,16.3301505 L181.390728,11.1163871 C181.390728,10.8287312 181.174502,10.6129893 180.8862,10.6129893 L178.147333,10.6129893 L178.147333,6.37006451 C178.147333,6.0824086 177.931107,5.86666667 177.642806,5.86666667 L171.696581,5.86666667 C171.408279,5.86666667 171.192053,6.0824086 171.192053,6.37006451 C171.192053,6.37006451 171.192053,6.37006451 171.192053,6.37006451 L171.192053,28.5195699 C171.192053,31.396129 173.534505,33.7333333 176.417523,33.7333333 L180.8862,33.7333333 C181.174502,33.7333333 181.390728,33.5175914 181.390728,33.2299355 C181.390728,33.2299355 181.390728,33.2299355 181.390728,33.2299355 L181.390728,29.0589248 C181.390728,28.7712688 181.174502,28.5555269 180.8862,28.5555269 Z" id="Shape" fill="#726963"></path>
        <path d="M168.540875,11 L156.718055,11 C153.851916,11 151.523179,13.341703 151.523179,16.2237991 L151.523179,28.941048 C151.523179,31.8231441 153.851916,34.1648471 156.718055,34.1648471 L161.841276,34.1648471 L161.841276,37.2270742 C161.841276,37.9115721 161.303876,38.4519651 160.623168,38.4519651 L159.906634,38.4519651 C159.225925,38.4519651 158.688525,37.9115721 158.688525,37.2270742 C158.688525,37.2270742 158.688525,37.2270742 158.688525,37.2270742 L158.688525,36.2543668 C158.688525,35.9661572 158.473565,35.75 158.18695,35.75 L152.024753,35.75 C151.738139,35.75 151.523179,35.9661572 151.523179,36.2543668 L151.523179,38.091703 C151.523179,41.6943231 153.386169,42.919214 156.574747,43.639738 C157.792856,43.8919214 159.010965,44 160.264901,44 C161.518836,44 162.736945,43.8919214 163.955054,43.639738 C167.143633,42.919214 169.006623,41.6943231 169.006623,38.091703 L169.006623,11.5043668 C169.006623,11.2521834 168.791662,11.0360262 168.540875,11 Z M161.841276,28.9770742 L160.193247,28.9770742 C159.369233,28.9770742 158.688525,28.2925764 158.688525,27.4639738 L158.688525,17.7368995 C158.688525,16.908297 159.369233,16.2237991 160.193247,16.2237991 L161.841276,16.2237991 L161.841276,28.9770742 Z" id="Shape" fill="#726963"></path>
        <path d="M195.279557,10.6493474 C192.843339,10.1391064 190.335469,10.1391064 187.899251,10.6493474 C184.710672,11.3782631 182.847682,12.6174197 182.847682,16.261998 L182.847682,28.4713353 C182.847682,32.1159136 184.710672,33.3550702 187.899251,34.083986 C190.335469,34.5942269 192.843339,34.5942269 195.279557,34.083986 C198.468136,33.3550702 200.331126,32.1159136 200.331126,28.4713353 L200.331126,16.2984438 C200.331126,12.6174197 198.468136,11.4147088 195.279557,10.6493474 Z M193.416567,27.3050702 C193.416567,28.1433233 192.735859,28.8357931 191.911845,28.8357931 L191.30279,28.8357931 C190.478775,28.8357931 189.798068,28.1433233 189.798068,27.3050702 L189.798068,17.4647088 C189.798068,16.6264559 190.478775,15.933986 191.30279,15.933986 L191.911845,15.933986 C192.735859,15.933986 193.416567,16.6264559 193.416567,17.4647088 L193.416567,27.3050702 Z" id="Shape" fill="#726963"></path>
        <polygon id="Shape" fill="#6CBE45" points="18.9403974 13.3615272 18.9403974 0 13.8410596 2.80734214 13.8410596 16.1333333"></polygon>
        <polygon id="Shape" fill="#6CBE45" points="20.397351 30.6740088 20.397351 44 25.4966887 41.2281938 25.4966887 27.8666667"></polygon>
        <polygon id="Shape" fill="#6CBE45" points="13.8410596 26.6233908 13.8410596 41.1996374 18.7141711 44 18.7141711 29.5673617 27.1798686 24.612874 27.1798686 40.1225748 32.0529801 37.2863101 32.0529801 7.23626474 27.1798686 4.4 27.1798686 18.8685403"></polygon>
        <polygon id="Shape" fill="#6CBE45" points="11.4294029 3.87742521 6.55629139 6.71368994 6.55629139 36.7637353 11.4294029 39.6 11.4294029 25.1673617 24.7682119 17.3766092 24.7682119 2.80036265 19.9306705 0 19.9306705 14.4326383 11.4294029 19.387126"></polygon>
        <path d="M5.06211631,8.06666667 L0.781650311,10.4634146 C0.334992991,10.7138211 0.0372214434,11.1430895 0,11.6439025 L0,32.3560975 C0.0372214434,32.8569105 0.334992991,33.2861789 0.781650311,33.5365854 L5.09933775,35.9333333 L5.06211631,8.06666667 Z" id="Shape" fill="#6CBE45"></path>
        <path d="M33.5099338,35.9333333 L37.8276212,33.5365854 C38.2742785,33.2861789 38.5720501,32.8569105 38.6092715,32.3560975 L38.6092715,11.6439025 C38.5720501,11.1430895 38.2742785,10.7138211 37.8276212,10.4634146 L33.5099338,8.06666667 L33.5099338,35.9333333 Z" id="Shape" fill="#6CBE45"></path>
      </g>
    </g>
  </g>
</svg>
