<?xml version="1.0" encoding="UTF-8"?>
<svg xmlns="http://www.w3.org/2000/svg" xmlns:xlink="http://www.w3.org/1999/xlink" width="137px" height="56px" viewBox="0 0 137 56">
  <!-- Generator: Sketch 50.2 (55047) - http://www.bohemiancoding.com/sketch -->
  <title>IBM</title>
  <desc>Created with Sketch.</desc>
  <defs></defs>
  <g id="Design" stroke="none" stroke-width="1" fill="none" fill-rule="evenodd">
    <g id="whykonyfx" transform="translate(-1113.000000, -2198.000000)" fill="#4C81C2">
      <g id="partners" transform="translate(90.000000, 2030.000000)">
        <g id="Page-1" transform="translate(101.000000, 155.000000)">
          <g id="Group-5408" transform="translate(320.000000, 0.213000)">
            <g id="IBM" transform="translate(602.000000, 13.000000)">
              <polygon id="Fill-5367" points="136.9708 4.6209 114.2588 4.6209 115.6588 0.7039 136.9708 0.7039"></polygon>
              <path d="M76.4269,0.7039 L97.5129,0.7019 L98.8949,4.6269 C98.9049,4.6209 76.4339,4.6319 76.4339,4.6269 C76.4339,4.6209 76.4199,0.7039 76.4269,0.7039" id="Fill-5369"></path>
              <path d="M59.6798,0.7039 C63.1558,1.0389 66.1758,2.2759 68.7498,4.6259 C68.7498,4.6259 30.5278,4.6299 30.5278,4.6259 L30.5278,0.7019 L59.6798,0.7039 Z" id="Fill-5371"></path>
              <polygon id="Fill-5373" points="0.534 4.619 27.086 4.619 27.086 0.704 0.534 0.704"></polygon>
              <path d="M136.9708,11.9676 L111.6568,11.9676 C111.6568,11.9676 113.0358,8.0716 113.0298,8.0716 L136.9708,8.0716 L136.9708,11.9676 Z" id="Fill-5375"></path>
              <polygon id="Fill-5376" points="101.5031 11.9725 76.4251 11.9725 76.4251 8.0705 100.1301 8.0705"></polygon>
              <path d="M71.7267,8.0692 C72.2307,9.3562 72.8267,10.4562 72.8267,11.9652 L30.5357,11.9652 L30.5357,8.0692 L71.7267,8.0692 Z" id="Fill-5377"></path>
              <polygon id="Fill-5378" points="0.534 11.965 27.086 11.965 27.086 8.069 0.534 8.069"></polygon>
              <polygon id="Fill-5379" points="109.0675 19.3328 110.4585 15.4178 129.4635 15.4238 129.4635 19.3238"></polygon>
              <polygon id="Fill-5380" points="102.7228 15.4168 104.1068 19.3328 83.9028 19.3328 83.9028 15.4168"></polygon>
              <path d="M73.1613,15.4158 C73.1613,16.7588 72.9933,18.1578 72.6013,19.3328 L61.0223,19.3328 L61.0223,15.4158 L73.1613,15.4158 Z" id="Fill-5381"></path>
              <polygon id="Fill-5382" points="7.935 19.331 19.348 19.331 19.348 15.434 7.935 15.434"></polygon>
              <polygon id="Fill-5383" points="38.218 19.332 49.611 19.332 49.611 15.416 38.218 15.416"></polygon>
              <path d="M95.1251,23.5604 C95.1251,23.5604 95.1291,26.5244 95.1261,26.5314 L83.9021,26.5314 L83.9021,22.6323868 L105.2911,22.6324 L106.6181,26.2664 C106.6241,26.2684 107.8991,22.6244 107.9021,22.6324 L129.4571,22.6323868 L129.4571,26.5314 L118.2891,26.5314 C118.2891,26.5244 118.2811,23.5614 118.2811,23.5614 L117.2501,26.5314 L96.1571,26.5244 L95.1251,23.5604 Z" id="Fill-5384"></path>
              <path d="M38.2179,22.6326 L70.9229,22.6326 L70.9229,22.6306 C70.2089,23.9366 68.9099,25.5236 67.6799,26.5306 C67.6799,26.5306 38.2169,26.5356 38.2169,26.5306 C38.2169,26.5246 38.2179,22.6386 38.2179,22.6326" id="Fill-5385"></path>
              <polygon id="Fill-5386" points="7.935 26.529 19.348 26.529 19.348 22.632 7.935 22.632"></polygon>
              <polygon id="Fill-5387" points="118.289 33.876 129.457 33.876 129.457 29.98 118.289 29.98"></polygon>
              <path d="M95.1251,29.9803 L83.9020976,29.9803 L83.9021,33.8763 C83.8961,33.8763 95.1291,33.8793 95.1291,33.8763 C95.1291,33.8763 95.1411,29.9803 95.1251,29.9803" id="Fill-5388"></path>
              <path d="M116.0333,29.9802906 C115.9813,29.9733 114.7243,33.8763 114.6733,33.8763 L98.7633,33.8833 C98.7513,33.8773 97.3653,29.9733 97.3633,29.9802906 L116.0333,29.9802906 Z" id="Fill-5389"></path>
              <path d="M38.215,29.9793 L67.623,29.9793 C68.965,31.0993 70.179,32.4783 71.129,33.8763 C71.183,33.8753 38.217,33.8793 38.217,33.8763 C38.217,33.8753 38.215,29.9823 38.215,29.9793" id="Fill-5390"></path>
              <path d="M19.3458,33.8768 L19.3458,29.9798 L7.9528,29.9798 C7.9528,29.9798 7.9558,33.8758 7.9528,33.8758 C7.9508,33.8758 19.3408,33.8768 19.3458,33.8768" id="Fill-5391"></path>
              <polygon id="Fill-5392" points="118.289 41.225 129.455 41.225 129.455 37.328 118.289 37.328"></polygon>
              <polygon id="Fill-5393" points="83.902 41.224 95.125 41.224 95.125 37.328 83.902 37.328"></polygon>
              <path d="M112.0597,41.244 C112.0627,41.225 113.4377,37.324 113.4587,37.3279969 L99.9347,37.328 C99.9117,37.325 101.3217,41.225 101.3217,41.225 C101.3217,41.225 112.0567,41.26 112.0597,41.244" id="Fill-5394"></path>
              <path d="M38.2169,41.2244 C38.2169,41.2404 38.2149,37.3284 38.2169,37.3274 L49.7799,37.3274 C49.7799,37.3274 49.7889,41.2254 49.7799,41.2254 C49.7689,41.2254 38.2169,41.2194 38.2169,41.2244" id="Fill-5395"></path>
              <path d="M72.7511,37.327 C73.3111,38.501 73.3671,39.899 73.4791,41.243 L61.2281,41.243 L61.2281,37.327 L72.7511,37.327 Z" id="Fill-5396"></path>
              <polygon id="Fill-5397" points="7.953 41.223 19.346 41.223 19.346 37.327 7.953 37.327"></polygon>
              <polygon id="Fill-5398" points="118.289 48.422 136.97 48.422 136.97 44.523 118.289 44.523"></polygon>
              <polygon id="Fill-5399" points="76.425 48.422 95.125 48.422 95.125 44.523 76.425 44.523"></polygon>
              <polygon id="Fill-5400" points="109.547 48.4227 103.843 48.4227 102.474 44.5237 110.866 44.5237"></polygon>
              <path d="M0.53227462,44.5233 L0.53227462,48.4203069 L27.0663,48.4203 C27.0783,48.4263 27.0543,44.5263 27.0663,44.5263 C27.0783,44.5263 0.5023,44.5233 0.53227462,44.5233" id="Fill-5401"></path>
              <path d="M72.9933,44.5233 C72.7143,45.8093 72.4583,47.3763 71.5173,48.4223 L71.1683,48.4203 L30.5333,48.4203 L30.5333,44.5233 L72.9933,44.5233 Z" id="Fill-5402"></path>
              <polygon id="Fill-5403" points="106.9611 55.7782 106.4371 55.7782 105.1041 51.8722 108.3301 51.8722"></polygon>
              <polygon id="Fill-5404" points="118.289 55.787 136.97 55.787 136.97 51.872 118.289 51.872"></polygon>
              <path d="M30.5275,55.7782 L30.5275,51.8782 C30.5275,51.8782 68.8635,51.8822 68.9735,51.8822 C66.4005,54.3442 62.8685,55.7332 59.0655,55.7872 L30.5335,55.7782" id="Fill-5405"></path>
              <polygon id="Fill-5406" points="76.425 55.787 95.125 55.787 95.125 51.872 76.425 51.872"></polygon>
              <path d="M27.0665,51.8895 C27.0665,51.8895 27.0545,55.7785 27.0665,55.7785 C27.0785,55.7785 0.5405,55.7935 0.5325,55.7855 C0.5255,55.7785 0.5405,51.8775 0.5325,51.8775 C0.5255,51.8775 27.0545,51.9015 27.0665,51.8895" id="Fill-5407"></path>
            </g>
          </g>
        </g>
      </g>
    </g>
  </g>
</svg>
