<?xml version="1.0" encoding="UTF-8"?>
<!-- Generator: Adobe Illustrator 22.1.0, SVG Export Plug-In . SVG Version: 6.00 Build 0)  -->
<svg xmlns="http://www.w3.org/2000/svg" xmlns:xlink="http://www.w3.org/1999/xlink" id="Layer_1" x="0px" y="0px" viewBox="0 0 640.9 225" style="enable-background:new 0 0 640.9 225;" xml:space="preserve">
<style type="text/css">
	.st0{fill:#95C11F;}
	.st1{fill:#010000;}
</style>
<g>
	<path class="st0" d="M625.8,55.2h-18.4c-4,0-7.9,3.1-7.9,7.9v11.1V78v3.2v19.1v39.9c0,2-1.7,3.4-3.4,3.4h-50.5H533h-4.5   c-4.4,0-7.9,3.6-7.9,7.9c0,1.2,0.3,2.4,0.8,3.4c0,0,0,0.1,0,0.1c5.1,10.7,15.7,18.9,30.7,18.9h47.4c21.8,0,34.3-17.3,34.3-34.3   V81.1v-8.8v-9.2C633.8,59.2,630.7,55.2,625.8,55.2"></path>
	<path class="st1" d="M459.9,26.6c0-4.8,4-7.9,7.9-7.9h18.4c4.8,0,7.9,4,7.9,7.9v140.1c0,4-3.1,7.9-7.9,7.9h-18.4   c-4,0-7.9-3.1-7.9-7.9V26.6z"></path>
	<path class="st1" d="M84.8,176.4c0,19.8-11.9,33.7-33.7,33.7H24.1c-4,0-7.9-3.1-7.9-7.9v-13.3c0-4.8,4-7.9,7.9-7.9h22.4   c2.3,0,3.7-1.4,3.7-3.7V25.9c0-4,3.4-7.9,7.9-7.9h18.7c4.5,0,7.9,4,7.9,7.9V176.4z"></path>
	<path class="st1" d="M314.9,18c14.5,0,23.3,7.4,25,17.6c2.5-10.2,10.5-17.6,25.2-17.6h33.5c21.8,0,34.3,17.3,34.3,34.3V166   c0,4.8-4,7.9-7.9,7.9h-18.4c-4.8,0-7.9-4-7.9-7.9V52.3c0-1.4-1.4-3.4-3.4-3.4h-34.6c-2,0-3.4,2-3.4,3.4V166c0,4.8-4,7.9-7.9,7.9   h-18.4c-4.8,0-7.9-4-7.9-7.9V52.3c0-1.4-1.4-3.4-3.4-3.4h-34c-2.3,0-3.4,2-3.4,3.4V166c0,4.8-4,7.9-7.9,7.9h-18.7   c-4.5,0-7.9-4-7.9-7.9V52.3c0-17,12.5-34.3,34.6-34.3H314.9z"></path>
	<path class="st1" d="M186,143.3c2,0,3.4-2,3.4-3.4v-114c0-4.8,4-7.9,7.9-7.9H216c4.8,0,7.9,4,7.9,7.9v113.7   c0,17-12.5,34.3-34.3,34.3h-47.4c-21.8,0-34.3-17.3-34.3-34.3V25.9c0-4.8,4-7.9,7.9-7.9h18.4c4.8,0,7.9,4,7.9,7.9v114   c0,1.4,1.4,3.4,3.4,3.4H186z"></path>
	<path class="st1" d="M526.2,136.1h18.4c4,0,7.9-3.1,7.9-7.9v-11.1v-3.7v-3.2V91.1V51.2c0-2,1.7-3.4,3.4-3.4h50.5h12.6h4.5   c4.4,0,7.9-3.6,7.9-7.9c0-1.2-0.3-2.4-0.8-3.4c0,0,0-0.1,0-0.1C625.6,25.6,615,17.4,600,17.4h-47.4c-21.8,0-34.3,17.3-34.3,34.3   v58.5v8.8v9.2C518.3,132.1,521.4,136.1,526.2,136.1"></path>
</g>
</svg>
