<?xml version="1.0" encoding="UTF-8"?>
<!-- Generator: Adobe Illustrator 22.1.0, SVG Export Plug-In . SVG Version: 6.00 Build 0)  -->
<svg xmlns="http://www.w3.org/2000/svg" xmlns:xlink="http://www.w3.org/1999/xlink" id="Layer_1" x="0px" y="0px" viewBox="0 0 476 113" style="enable-background:new 0 0 476 113;" xml:space="preserve">
<style type="text/css">
	.st0{fill:#FFFFFF;}
	.st1{fill:#323E48;}
	.st2{fill:url(#SVGID_1_);}
	.st3{fill:url(#SVGID_2_);}
</style>
<g>
	<g>
		<g>
			<path class="st0" d="M12.1,56H5.3V9.5h6.8V56z M12.4,39.6l12.8-13.9h8.3L20.2,39.4L33.8,56h-8.1L12.4,39.6z"></path>
			<path class="st0" d="M49.4,25c9.1,0,15.7,6.4,15.7,15.9c0,9.4-6.6,15.8-15.7,15.8c-9,0-15.6-6.4-15.6-15.8     C33.8,31.4,40.4,25,49.4,25 M49.4,30.8c-5.1,0-8.8,3.9-8.8,10.1c0,6.1,3.7,10,8.8,10c5.2,0,8.8-3.9,8.8-10     C58.2,34.7,54.6,30.8,49.4,30.8"></path>
			<path class="st0" d="M70.8,27.6C75.1,26,80.3,25,84.7,25c7.7,0,12.7,2.9,12.7,11.5V56h-6.7V37.1c0-4.4-2.7-5.9-6.5-5.9     c-2.4,0-4.8,0.3-6.6,0.9V56h-6.8C70.8,56,70.8,27.6,70.8,27.6z"></path>
			<polygon class="st0" points="115.6,49.6 124,25.7 131,25.7 114.6,68.3 108,68.3 112.2,57.4 99.7,25.7 106.9,25.7    "></polygon>
		</g>
		<path class="st0" d="M187.7,15.7c-4.9-4.2-12.3-6.4-22-6.4c-2.4,0-5,0.2-7.7,0.5h-0.4v46.1h0.4c3,0.4,5.6,0.6,8.8,0.6    c17.5,0,27.5-8.9,27.5-24.5C194.4,25.1,192.2,19.5,187.7,15.7z M191,32.1c0,13.8-8.6,21.4-24.1,21.4c-1.9,0-3.7-0.1-5.8-0.3V12.6    c1.9-0.1,3.2-0.2,4.6-0.2c8.4,0,14.8,1.8,19.1,5.3C188.9,21,191,25.9,191,32.1z"></path>
		<path class="st0" d="M213.8,32.3c5.3-1.5,8.5-5.7,8.5-11.1c0-8-5.5-12-16.3-12c-1.9,0-4.7,0.2-7.8,0.5h-0.4v46l0.3,0.1    c2.6,0.5,5.6,0.8,8.2,0.8c5.8,0,10.3-1.2,13.3-3.5c2.9-2.2,4.4-5.5,4.4-9.6C224,37.7,220.1,33.5,213.8,32.3z M205.7,31h-4.5V12.5    c1.8-0.1,3.3-0.2,4.8-0.2c8.5,0,12.8,3,12.8,8.9C218.8,27.5,214,31,205.7,31z M201.2,34.2h4.6c6.7,0,14.7,1.6,14.7,9.4    c0,6.8-4.5,9.9-14.2,9.9c-1.7,0-3.5-0.1-5.1-0.4V34.2z"></path>
		<polygon class="st1" points="243.6,31.6 228,9.3 223.9,9.3 239.5,31.6 222,56.6 226.1,56.6 243.6,31.6   "></polygon>
		
			<linearGradient id="SVGID_1_" gradientUnits="userSpaceOnUse" x1="262.1404" y1="96.0235" x2="240.8337" y2="52.3384" gradientTransform="matrix(1 0 0 -1 0 113.976)">
			<stop offset="0" style="stop-color:#5E4F88"></stop>
			<stop offset="0.3803" style="stop-color:#64568D"></stop>
			<stop offset="0.558" style="stop-color:#5B4D86"></stop>
			<stop offset="0.8529" style="stop-color:#443375"></stop>
			<stop offset="1" style="stop-color:#36246A"></stop>
		</linearGradient>
		<polygon class="st2" points="244.4,9.3 232.2,9.3 247.8,31.5 230.3,56.5 242.5,56.5 253.9,40.3 255.9,43.2 255.9,43.2 265.2,56.5     277.5,56.5   "></polygon>
		
			<linearGradient id="SVGID_2_" gradientUnits="userSpaceOnUse" x1="272.2157" y1="107.2696" x2="257.7203" y2="88.7163" gradientTransform="matrix(1 0 0 -1 0 113.976)">
			<stop offset="0.1628" style="stop-color:#5E4F88"></stop>
			<stop offset="0.5934" style="stop-color:#64568D"></stop>
			<stop offset="0.71" style="stop-color:#5B4D86"></stop>
			<stop offset="0.9035" style="stop-color:#443375"></stop>
			<stop offset="1" style="stop-color:#36246A"></stop>
		</linearGradient>
		<polygon class="st3" points="275.6,9.3 263.3,9.3 255.9,19.9 262,28.6   "></polygon>
	</g>
</g>
<g>
	<path class="st0" d="M178.5,73.4c-1.9-1.8-4.4-2.7-7.2-2.7c-5.8,0-10.6,4.3-10.6,10.9c0,6.7,4.7,10.9,10.6,10.9   c2.7,0,5.4-0.8,7.3-2.6V93c-2,1.2-4.7,1.9-7.3,1.9c-7.8,0-13.3-5.4-13.3-13.3c0-8,5.9-13.3,13.3-13.3c2.6,0,5,0.7,7.1,2L178.5,73.4   L178.5,73.4z"></path>
	<path class="st0" d="M192.1,75.2c5.7,0,9.5,4,9.5,9.9s-3.9,9.9-9.5,9.9c-5.7,0-9.5-4-9.5-9.9S186.5,75.2,192.1,75.2z M192.1,77.4   c-4,0-6.9,3-6.9,7.7c0,4.6,2.9,7.7,6.9,7.7s6.9-3,6.9-7.7C199,80.5,196.1,77.4,192.1,77.4z"></path>
	<path class="st0" d="M206.7,76.6c2.5-0.9,5.4-1.4,8-1.4c4.8,0,7.7,1.9,7.7,6.6v12.8h-2.6V82.3c0-3.9-2.7-4.7-5.3-4.7   c-2,0-3.8,0.3-5.1,0.7v16.3h-2.6L206.7,76.6L206.7,76.6z"></path>
	<path class="st0" d="M227.6,90.5c1.6,1.4,3.3,2.3,5.3,2.3c2.4,0,3.9-0.9,3.9-3c0-2.3-1.7-2.9-4.7-3.9c-3.3-1.1-4.8-2.5-4.8-5.6   c0-3.3,2.5-5.1,6-5.1c1.9,0,3.7,0.4,5.2,1.4v2.8c-1.5-1.2-3-2-5.2-2c-2.1,0-3.4,1.1-3.4,2.9c0,1.7,1,2.7,4,3.6   c3.3,1,5.5,2.3,5.5,5.7c0,3.7-2.9,5.4-6.5,5.4c-2.1,0-4.2-0.6-5.3-1.5V90.5z"></path>
	<path class="st0" d="M259.4,94.3c-2.3,0.4-4.7,0.7-6.6,0.7c-5.5,0-8.6-1.9-8.6-6.6V75.6h2.6v12.7c0,3.6,2.8,4.5,5.8,4.5   c1.3,0,2.8-0.1,4.2-0.3V75.6h2.6V94.3z"></path>
	<path class="st0" d="M290,81.9c0-3.5-2.4-4.3-4.4-4.3c-2.3,0-4.4,0.6-5.6,1.1c0.3,0.8,0.6,1.9,0.6,3.1v12.8H278V81.9   c0-3.5-2.3-4.3-4.5-4.3c-2.1,0-3.8,0.4-5,0.9v16.2h-2.6V76.8c2.5-1,5.1-1.7,7.6-1.7c2.2,0,3.9,0.5,5.1,1.5c2.3-0.9,4.7-1.5,7-1.5   c4.6,0,7,1.9,7,6.6v12.8H290V81.9z"></path>
	<path class="st0" d="M300.1,85.2L300.1,85.2c0,4.7,3.3,7.5,7,7.5c2.7,0,4.6-0.7,6.5-2.1v2.6c-1.7,1.3-4.1,1.8-6.5,1.8   c-5.5,0-9.7-3.7-9.7-9.9c0-5.7,3.9-9.9,9-9.9c4.8,0,8,2.9,8,8.3v1.8h-14.3V85.2z M311.9,83c-0.2-4-2.3-5.6-5.5-5.6   c-3,0-5.3,2-6.1,5.6H311.9z"></path>
	<path class="st0" d="M322.1,94.6h-2.6V77.3c2-1.3,4.4-2,7-2c1,0,2.1,0.1,3.2,0.4v2.6c-1.1-0.4-2.5-0.5-3.3-0.5   c-1.9,0-3.3,0.4-4.3,1L322.1,94.6L322.1,94.6z"></path>
	<path class="st0" d="M342.5,68.7h2.7v23.5h11.1v2.3h-13.8L342.5,68.7L342.5,68.7z"></path>
	<path class="st0" d="M361.2,85.2L361.2,85.2c0,4.7,3.3,7.5,7,7.5c2.7,0,4.6-0.7,6.5-2.1v2.6c-1.7,1.3-4.1,1.8-6.5,1.8   c-5.5,0-9.7-3.7-9.7-9.9c0-5.7,3.9-9.9,9-9.9c4.8,0,8,2.9,8,8.3v1.8h-14.3V85.2z M372.9,83c-0.2-4-2.3-5.6-5.5-5.6   c-3,0-5.3,2-6.1,5.6H372.9z"></path>
	<path class="st0" d="M380.5,76.6c2.5-0.9,5.4-1.4,8-1.4c4.8,0,7.7,1.9,7.7,6.6v12.8h-2.6V82.3c0-3.9-2.7-4.7-5.3-4.7   c-2,0-3.8,0.3-5.1,0.7v16.3h-2.6v-18H380.5z"></path>
	<path class="st0" d="M418.2,94.3c-2,0.5-4.2,0.7-6.2,0.7c-6.6,0-11-3.6-11-9.9c0-6.4,4.8-9.9,10.4-9.9c1.4,0,3.2,0.3,4.1,0.9V65   h2.6v29.3H418.2z M415.6,78.4c-1-0.5-2.4-0.9-4.1-0.9c-4.4,0-7.8,2.7-7.8,7.6c0,4.8,3.3,7.6,8.3,7.6c1.2,0,2.4,0,3.6-0.2V78.4z"></path>
	<path class="st0" d="M424.1,69.7c0-1.1,0.9-2,2-2s2,0.9,2,2c0,1-0.9,2-2,2S424.1,70.7,424.1,69.7z M427.4,94.6h-2.6v-19h2.6V94.6z"></path>
	<path class="st0" d="M433.9,76.6c2.5-0.9,5.4-1.4,8-1.4c4.8,0,7.7,1.9,7.7,6.6v12.8H447V82.3c0-3.9-2.7-4.7-5.3-4.7   c-2,0-3.8,0.3-5.1,0.7v16.3H434v-18H433.9z"></path>
	<path class="st0" d="M468.9,93.9c-0.7,0.4-2.4,0.8-3.9,0.8c-6.2,0-10.6-3.3-10.6-9.7c0-6.1,4.3-9.8,10.9-9.8c2,0,4.6,0.5,6.2,1.2   v18.4c0,5.8-4.3,8-8.7,8c-2.3,0-4.5-0.5-5.9-1.2v-2.5c1.7,0.8,3.8,1.4,5.9,1.4c3.1,0,6.1-1.5,6.1-6.3V93.9z M468.9,78.1   c-1-0.3-2.2-0.6-3.6-0.6c-5.3,0-8.3,2.8-8.3,7.4s3,7.4,8,7.4c1.6,0,2.6-0.3,3.9-0.7V78.1z"></path>
</g>
</svg>
