<?xml version="1.0" encoding="UTF-8"?>
<svg xmlns="http://www.w3.org/2000/svg" xmlns:xlink="http://www.w3.org/1999/xlink" width="370px" height="80px" viewBox="0 0 370 80">
  <!-- Generator: Sketch 50.2 (55047) - http://www.bohemiancoding.com/sketch -->
  <title>KonyDBX_BusinessBanking</title>
  <desc>Created with Sketch.</desc>
  <defs>
    <linearGradient x1="67.4610169%" y1="18.3254237%" x2="22.2864407%" y2="110.947246%" id="linearGradient-1">
      <stop stop-color="#5E4F88" offset="0%"></stop>
      <stop stop-color="#64568D" offset="38.03%"></stop>
      <stop stop-color="#5B4D86" offset="55.8%"></stop>
      <stop stop-color="#443375" offset="85.29%"></stop>
      <stop stop-color="#36246A" offset="100%"></stop>
    </linearGradient>
    <linearGradient x1="82.9446701%" y1="-13.3393782%" x2="9.36395939%" y2="82.7917098%" id="linearGradient-2">
      <stop stop-color="#5E4F88" offset="16.28%"></stop>
      <stop stop-color="#64568D" offset="59.34%"></stop>
      <stop stop-color="#5B4D86" offset="71%"></stop>
      <stop stop-color="#443375" offset="90.35%"></stop>
      <stop stop-color="#36246A" offset="100%"></stop>
    </linearGradient>
  </defs>
  <g id="Design" stroke="none" stroke-width="1" fill="none" fill-rule="evenodd">
    <g id="business_banking" transform="translate(-250.000000, -219.000000)" fill-rule="nonzero">
      <g id="Hero-content" transform="translate(0.000000, 97.000000)">
        <g id="top-info" transform="translate(250.000000, 122.000000)">
          <g id="KonyDBX_BusinessBanking">
            <g id="Group">
              <g fill="#FFFFFF" id="Shape">
                <path d="M6.03369963,39.95 L0.254945055,39.95 L0.254945055,0.425 L6.03369963,0.425 L6.03369963,39.95 Z M6.28864469,26.01 L17.1663004,14.195 L24.2197802,14.195 L12.9172161,25.84 L24.4747253,39.95 L17.5912088,39.95 L6.28864469,26.01 Z"></path>
                <path d="M37.7318681,13.6 C45.4652015,13.6 51.0739927,19.04 51.0739927,27.115 C51.0739927,35.105 45.4652015,40.545 37.7318681,40.545 C30.0835165,40.545 24.4747253,35.105 24.4747253,27.115 C24.4747253,19.04 30.0835165,13.6 37.7318681,13.6 M37.7318681,18.53 C33.3978022,18.53 30.2534799,21.845 30.2534799,27.115 C30.2534799,32.3 33.3978022,35.615 37.7318681,35.615 C42.1509158,35.615 45.2102564,32.3 45.2102564,27.115 C45.2102564,21.845 42.1509158,18.53 37.7318681,18.53"></path>
                <path d="M55.9179487,15.81 C59.5721612,14.45 63.9912088,13.6 67.7304029,13.6 C74.2739927,13.6 78.5230769,16.065 78.5230769,23.375 L78.5230769,39.95 L72.829304,39.95 L72.829304,23.885 C72.829304,20.145 70.5347985,18.87 67.3054945,18.87 C65.2659341,18.87 63.2263736,19.125 61.6967033,19.635 L61.6967033,39.95 L55.9179487,39.95 L55.9179487,15.81 Z"></path>
                <polygon points="93.9897436 34.51 101.128205 14.195 107.076923 14.195 93.1399267 50.405 87.5311355 50.405 91.1003663 41.14 80.4776557 14.195 86.596337 14.195"></polygon>
              </g>
              <path d="M155.261538,5.695 C151.097436,2.125 144.808791,0.255 136.565568,0.255 C134.526007,0.255 132.316484,0.425 130.021978,0.68 L129.682051,0.68 L129.682051,39.865 L130.021978,39.865 C132.571429,40.205 134.780952,40.375 137.500366,40.375 C152.372161,40.375 160.87033,32.81 160.87033,19.55 C160.955311,13.685 159.085714,8.925 155.261538,5.695 Z M158.065934,19.635 C158.065934,31.365 150.757509,37.825 137.585348,37.825 C135.970696,37.825 134.441026,37.74 132.65641,37.57 L132.65641,3.06 C134.271062,2.975 135.375824,2.89 136.565568,2.89 C143.704029,2.89 149.142857,4.42 152.79707,7.395 C156.281319,10.2 158.065934,14.365 158.065934,19.635 Z" id="Shape" fill="#FFFFFF"></path>
              <path d="M177.441758,19.805 C181.945788,18.53 184.665201,14.96 184.665201,10.37 C184.665201,3.57 179.991209,0.17 170.813187,0.17 C169.198535,0.17 166.819048,0.34 164.184615,0.595 L163.844689,0.595 L163.844689,39.695 L164.099634,39.78 C166.309158,40.205 168.858608,40.46 171.068132,40.46 C175.99707,40.46 179.821245,39.44 182.370696,37.485 C184.835165,35.615 186.10989,32.81 186.10989,29.325 C186.10989,24.395 182.795604,20.825 177.441758,19.805 Z M170.558242,18.7 L166.734066,18.7 L166.734066,2.975 C168.263736,2.89 169.538462,2.805 170.813187,2.805 C178.03663,2.805 181.690842,5.355 181.690842,10.37 C181.690842,15.725 177.611722,18.7 170.558242,18.7 Z M166.734066,21.42 L170.643223,21.42 C176.336996,21.42 183.135531,22.78 183.135531,29.41 C183.135531,35.19 179.311355,37.825 171.068132,37.825 C169.623443,37.825 168.093773,37.74 166.734066,37.485 L166.734066,21.42 Z" id="Shape" fill="#FFFFFF"></path>
              <polygon id="Shape" fill="#FFFFFF" points="202.7663 19.21 189.509158 0.255 186.024908 0.255 199.282051 19.21 184.410256 40.46 187.894505 40.46 202.7663 19.21"></polygon>
              <polygon id="Shape" fill="url(#linearGradient-1)" points="203.446154 0.255 193.078388 0.255 206.335531 19.125 191.463736 40.375 201.831502 40.375 211.519414 26.605 213.219048 29.07 213.219048 29.07 221.122344 40.375 231.575092 40.375"></polygon>
              <polygon id="Shape" fill="url(#linearGradient-2)" points="229.96044 0.255 219.507692 0.255 213.219048 9.265 218.40293 16.66"></polygon>
            </g>
            <g id="Group" transform="translate(129.000000, 47.000000)" fill="#FFFFFF">
              <path d="M0.340636042,3.72307692 C1.87349823,3.55384615 3.49151943,3.38461538 4.8540636,3.38461538 C10.4745583,3.38461538 12.9441696,5.58461538 12.9441696,9.39230769 C12.9441696,12.2692308 11.0706714,14.2153846 8.26042403,14.5538462 C11.7519435,14.8076923 13.8809187,16.6692308 13.8809187,19.8846154 C13.8809187,23.4384615 11.4113074,26.2307692 4.93922261,26.2307692 C3.40636042,26.2307692 1.87349823,26.0615385 0.425795053,25.8076923 L0.425795053,3.72307692 L0.340636042,3.72307692 Z M2.63992933,13.7076923 L4.59858657,13.7076923 C8.34558304,13.7076923 10.5597173,12.2692308 10.5597173,9.39230769 C10.5597173,6.6 8.43074205,5.33076923 4.76890459,5.33076923 C4.17279152,5.33076923 3.40636042,5.33076923 2.55477032,5.41538462 L2.55477032,13.7076923 L2.63992933,13.7076923 Z M2.63992933,24.2 C3.57667845,24.2846154 4.25795053,24.3692308 4.8540636,24.3692308 C9.53780919,24.3692308 11.4964664,22.6769231 11.4964664,19.9692308 C11.4964664,17.0076923 8.94169611,15.7384615 4.93922261,15.7384615 L2.63992933,15.7384615 L2.63992933,24.2 Z" id="Shape"></path>
              <path d="M30.9127208,25.7230769 C28.9540636,26.0615385 26.9102473,26.3153846 25.2070671,26.3153846 C20.5233216,26.3153846 17.7982332,24.7076923 17.7982332,20.6461538 L17.7982332,9.64615385 L20.0123675,9.64615385 L20.0123675,20.4769231 C20.0123675,23.5230769 22.4819788,24.2846154 25.0367491,24.2846154 C26.1438163,24.2846154 27.4212014,24.2 28.6134276,24.0307692 L28.6134276,9.64615385 L30.8275618,9.64615385 L30.8275618,25.7230769 L30.9127208,25.7230769 Z" id="Shape"></path>
              <path d="M35.5113074,22.4230769 C36.8738516,23.6923077 38.3215548,24.3692308 40.109894,24.3692308 C42.1537102,24.3692308 43.5162544,23.6076923 43.5162544,21.7461538 C43.5162544,19.8 42.0685512,19.2923077 39.5137809,18.4461538 C36.6183746,17.5153846 35.4261484,16.2461538 35.4261484,13.7076923 C35.4261484,10.8307692 37.6402827,9.30769231 40.535689,9.30769231 C42.1537102,9.30769231 43.6865724,9.64615385 44.9639576,10.5769231 L44.9639576,13.0307692 C43.6865724,12.0153846 42.4091873,11.2538462 40.535689,11.2538462 C38.7473498,11.2538462 37.5551237,12.1846154 37.5551237,13.7923077 C37.5551237,15.3153846 38.4918728,16.0769231 40.9614841,16.8384615 C43.7717314,17.6846154 45.7303887,18.7846154 45.7303887,21.7461538 C45.7303887,24.9615385 43.1756184,26.4 40.109894,26.4 C38.2363958,26.4 36.5332155,25.8923077 35.5113074,25.1307692 L35.5113074,22.4230769 Z" id="Shape"></path>
              <path d="M49.6477032,4.56923077 C49.6477032,3.63846154 50.4141343,2.87692308 51.3508834,2.87692308 C52.2876325,2.87692308 53.0540636,3.63846154 53.0540636,4.56923077 C53.0540636,5.5 52.2876325,6.26153846 51.3508834,6.26153846 C50.4992933,6.26153846 49.6477032,5.5 49.6477032,4.56923077 Z M52.5431095,25.8923077 L50.2438163,25.8923077 L50.2438163,9.64615385 L52.4579505,9.64615385 L52.4579505,25.8923077 L52.5431095,25.8923077 Z" id="Shape"></path>
              <path d="M58.1636042,10.4923077 C60.3777385,9.73076923 62.8473498,9.22307692 65.0614841,9.22307692 C69.1491166,9.22307692 71.7038869,10.8307692 71.7038869,14.8923077 L71.7038869,25.8076923 L69.4897527,25.8076923 L69.4897527,15.4 C69.4897527,12.1 67.1053004,11.3384615 64.8911661,11.3384615 C63.1879859,11.3384615 61.6551237,11.6769231 60.4628975,11.9307692 L60.4628975,25.8923077 L58.2487633,25.8923077 L58.2487633,10.4923077 L58.1636042,10.4923077 Z" id="Shape"></path>
              <path d="M78.0908127,17.8538462 C78.0908127,21.9153846 80.9862191,24.2846154 84.1371025,24.2846154 C86.4363958,24.2846154 88.054417,23.6923077 89.7575972,22.4230769 L89.7575972,24.6230769 C88.309894,25.7230769 86.1809187,26.1461538 84.1371025,26.1461538 C79.4533569,26.1461538 75.7915194,22.9307692 75.7915194,17.6846154 C75.7915194,12.7769231 79.1978799,9.22307692 83.5409894,9.22307692 C87.6286219,9.22307692 90.4388693,11.6769231 90.4388693,16.3307692 L90.4388693,17.8538462 L78.0908127,17.8538462 Z M88.224735,15.9923077 C88.054417,12.6076923 86.2660777,11.2538462 83.5409894,11.2538462 C80.9862191,11.2538462 78.9424028,12.9461538 78.2611307,15.9923077 L88.224735,15.9923077 Z" id="Shape"></path>
              <path d="M94.0155477,22.4230769 C95.3780919,23.6923077 96.8257951,24.3692308 98.6141343,24.3692308 C100.657951,24.3692308 102.020495,23.6076923 102.020495,21.7461538 C102.020495,19.8 100.572792,19.2923077 98.0180212,18.4461538 C95.1226148,17.5153846 93.9303887,16.2461538 93.9303887,13.7076923 C93.9303887,10.8307692 96.144523,9.30769231 99.0399293,9.30769231 C100.657951,9.30769231 102.190813,9.64615385 103.468198,10.5769231 L103.468198,13.0307692 C102.190813,12.0153846 100.913428,11.2538462 99.0399293,11.2538462 C97.2515901,11.2538462 96.059364,12.1846154 96.059364,13.7923077 C96.059364,15.3153846 96.9961131,16.0769231 99.4657244,16.8384615 C102.275972,17.6846154 104.234629,18.7846154 104.234629,21.7461538 C104.234629,24.9615385 101.679859,26.4 98.6141343,26.4 C96.740636,26.4 95.0374558,25.8923077 94.0155477,25.1307692 L94.0155477,22.4230769 Z" id="Shape"></path>
              <path d="M107.726148,22.4230769 C109.088693,23.6923077 110.536396,24.3692308 112.324735,24.3692308 C114.368551,24.3692308 115.731095,23.6076923 115.731095,21.7461538 C115.731095,19.8 114.283392,19.2923077 111.728622,18.4461538 C108.833216,17.5153846 107.640989,16.2461538 107.640989,13.7076923 C107.640989,10.8307692 109.855124,9.30769231 112.75053,9.30769231 C114.368551,9.30769231 115.901413,9.64615385 117.178799,10.5769231 L117.178799,13.0307692 C115.901413,12.0153846 114.624028,11.2538462 112.75053,11.2538462 C110.962191,11.2538462 109.769965,12.1846154 109.769965,13.7923077 C109.769965,15.3153846 110.706714,16.0769231 113.176325,16.8384615 C115.986572,17.6846154 117.94523,18.7846154 117.94523,21.7461538 C117.94523,24.9615385 115.390459,26.4 112.324735,26.4 C110.451237,26.4 108.748057,25.8923077 107.726148,25.1307692 L107.726148,22.4230769 Z" id="Shape"></path>
              <path d="M129.867491,3.72307692 C131.400353,3.55384615 133.018375,3.38461538 134.380919,3.38461538 C140.001413,3.38461538 142.471025,5.58461538 142.471025,9.39230769 C142.471025,12.2692308 140.597527,14.2153846 137.787279,14.5538462 C141.278799,14.8076923 143.407774,16.6692308 143.407774,19.8846154 C143.407774,23.4384615 140.938163,26.2307692 134.466078,26.2307692 C132.933216,26.2307692 131.400353,26.0615385 129.95265,25.8076923 L129.95265,3.72307692 L129.867491,3.72307692 Z M132.166784,13.7076923 L134.125442,13.7076923 C137.872438,13.7076923 140.086572,12.2692308 140.086572,9.39230769 C140.086572,6.6 137.957597,5.33076923 134.29576,5.33076923 C133.699647,5.33076923 132.933216,5.33076923 132.081625,5.41538462 L132.081625,13.7076923 L132.166784,13.7076923 Z M132.166784,24.2 C133.103534,24.2846154 133.784806,24.3692308 134.380919,24.3692308 C139.064664,24.3692308 141.023322,22.6769231 141.023322,19.9692308 C141.023322,17.0076923 138.468551,15.7384615 134.466078,15.7384615 L132.166784,15.7384615 L132.166784,24.2 Z" id="Shape"></path>
              <path d="M156.522261,14.5538462 C156.522261,12.4384615 155.159717,11.4230769 153.030742,11.4230769 C151.157244,11.4230769 149.709541,11.9307692 148.261837,12.6923077 L148.261837,10.5769231 C149.624382,9.81538462 151.412721,9.30769231 153.286219,9.30769231 C156.60742,9.30769231 158.736396,10.7461538 158.736396,14.3846154 L158.736396,25.6384615 C157.203534,26.0615385 155.500353,26.2307692 154.05265,26.2307692 C149.624382,26.2307692 146.643816,24.8769231 146.643816,21.4076923 C146.643816,18.1923077 149.624382,16.5 154.563604,16.5 L156.437102,16.5 L156.437102,14.5538462 L156.522261,14.5538462 Z M156.522261,18.3615385 L154.819081,18.3615385 C151.412721,18.3615385 148.94311,19.2923077 148.94311,21.4076923 C148.94311,23.6076923 151.157244,24.3692308 154.222968,24.3692308 C154.90424,24.3692308 155.75583,24.2846154 156.522261,24.1153846 L156.522261,18.3615385 Z" id="Shape"></path>
              <path d="M164.101413,10.4923077 C166.315548,9.73076923 168.785159,9.22307692 170.999293,9.22307692 C175.086926,9.22307692 177.641696,10.8307692 177.641696,14.8923077 L177.641696,25.8076923 L175.427562,25.8076923 L175.427562,15.4 C175.427562,12.1 173.04311,11.3384615 170.828975,11.3384615 C169.125795,11.3384615 167.592933,11.6769231 166.400707,11.9307692 L166.400707,25.8923077 L164.186572,25.8923077 L164.186572,10.4923077 L164.101413,10.4923077 Z" id="Shape"></path>
              <path d="M185.306007,25.8923077 L183.091873,25.8923077 L183.091873,0.592307692 L185.306007,0.592307692 L185.306007,25.8923077 Z M185.391166,17.0923077 L193.65159,9.64615385 L196.802473,9.64615385 L188.286572,17.0076923 L196.887633,25.8923077 L193.907067,25.8923077 L185.391166,17.0923077 Z" id="Shape"></path>
              <path d="M199.612721,4.56923077 C199.612721,3.63846154 200.379152,2.87692308 201.315901,2.87692308 C202.25265,2.87692308 203.019081,3.63846154 203.019081,4.56923077 C203.019081,5.5 202.25265,6.26153846 201.315901,6.26153846 C200.464311,6.26153846 199.612721,5.5 199.612721,4.56923077 Z M202.422968,25.8923077 L200.208834,25.8923077 L200.208834,9.64615385 L202.422968,9.64615385 L202.422968,25.8923077 Z" id="Shape"></path>
              <path d="M208.043463,10.4923077 C210.257597,9.73076923 212.727208,9.22307692 214.941343,9.22307692 C219.028975,9.22307692 221.583746,10.8307692 221.583746,14.8923077 L221.583746,25.8076923 L219.369611,25.8076923 L219.369611,15.4 C219.369611,12.1 216.985159,11.3384615 214.771025,11.3384615 C213.067845,11.3384615 211.534982,11.6769231 210.342756,11.9307692 L210.342756,25.8923077 L208.128622,25.8923077 L208.128622,10.4923077 L208.043463,10.4923077 Z" id="Shape"></path>
              <path d="M238.274912,25.3846154 C237.678799,25.7230769 236.231095,26.0615385 234.868551,26.0615385 C229.503534,26.0615385 225.756537,23.2692308 225.756537,17.6846154 C225.756537,12.4384615 229.418375,9.22307692 235.209187,9.22307692 C236.912367,9.22307692 239.126502,9.64615385 240.574205,10.2384615 L240.574205,25.9769231 C240.574205,30.9692308 236.827208,32.8307692 233.080212,32.8307692 C231.121555,32.8307692 229.248057,32.4076923 228.05583,31.8153846 L228.05583,29.7 C229.503534,30.3769231 231.377032,30.9692308 233.080212,30.9692308 C235.8053,30.9692308 238.360071,29.7 238.360071,25.5538462 L238.360071,25.3846154 L238.274912,25.3846154 Z M238.274912,11.8461538 C237.338163,11.5076923 236.401413,11.3384615 235.209187,11.3384615 C230.69576,11.3384615 228.05583,13.7076923 228.05583,17.6846154 C228.05583,21.5769231 230.69576,24.0307692 234.95371,24.0307692 C236.316254,24.0307692 237.167845,23.7769231 238.360071,23.4384615 L238.360071,11.8461538 L238.274912,11.8461538 Z" id="Shape"></path>
            </g>
          </g>
        </g>
      </g>
    </g>
  </g>
</svg>
