<?xml version="1.0" encoding="UTF-8"?>
<svg xmlns="http://www.w3.org/2000/svg" xmlns:xlink="http://www.w3.org/1999/xlink" width="236px" height="75px" viewBox="0 0 236 75">
  <!-- Generator: Sketch 50.2 (55047) - http://www.bohemiancoding.com/sketch -->
  <title>KonyDBX_Loans_RGB</title>
  <desc>Created with Sketch.</desc>
  <defs>
    <linearGradient x1="67.4610169%" y1="18.3254237%" x2="22.2864407%" y2="110.947246%" id="linearGradient-1">
      <stop stop-color="#5E4F88" offset="0%"></stop>
      <stop stop-color="#64568D" offset="38.03%"></stop>
      <stop stop-color="#5B4D86" offset="55.8%"></stop>
      <stop stop-color="#443375" offset="85.29%"></stop>
      <stop stop-color="#36246A" offset="100%"></stop>
    </linearGradient>
    <linearGradient x1="82.9446701%" y1="-13.3393782%" x2="9.36395939%" y2="82.7917098%" id="linearGradient-2">
      <stop stop-color="#5E4F88" offset="16.28%"></stop>
      <stop stop-color="#64568D" offset="59.34%"></stop>
      <stop stop-color="#5B4D86" offset="71%"></stop>
      <stop stop-color="#443375" offset="90.35%"></stop>
      <stop stop-color="#36246A" offset="100%"></stop>
    </linearGradient>
  </defs>
  <g id="Design" stroke="none" stroke-width="1" fill="none" fill-rule="evenodd">
    <g id="loans" transform="translate(-252.000000, -221.000000)" fill-rule="nonzero">
      <g id="top-stuff" transform="translate(0.000000, 97.000000)">
        <g id="Info" transform="translate(250.000000, 124.000000)">
          <g id="KonyDBX_Loans_RGB" transform="translate(2.000000, 0.000000)">
            <g id="Group">
              <g fill="#FFFFFF" id="Shape">
                <path d="M6.13772894,39.95 L0.259340659,39.95 L0.259340659,0.425 L6.13772894,0.425 L6.13772894,39.95 Z M6.3970696,26.01 L17.4622711,14.195 L24.6373626,14.195 L13.1399267,25.84 L24.8967033,39.95 L17.8945055,39.95 L6.3970696,26.01 Z"></path>
                <path d="M38.3824176,13.6 C46.2490842,13.6 51.9545788,19.04 51.9545788,27.115 C51.9545788,35.105 46.2490842,40.545 38.3824176,40.545 C30.6021978,40.545 24.8967033,35.105 24.8967033,27.115 C24.8967033,19.04 30.6021978,13.6 38.3824176,13.6 M38.3824176,18.53 C33.9736264,18.53 30.7750916,21.845 30.7750916,27.115 C30.7750916,32.3 33.9736264,35.615 38.3824176,35.615 C42.8776557,35.615 45.9897436,32.3 45.9897436,27.115 C45.9897436,21.845 42.8776557,18.53 38.3824176,18.53"></path>
                <path d="M56.8820513,15.81 C60.5992674,14.45 65.0945055,13.6 68.8981685,13.6 C75.5545788,13.6 79.8769231,16.065 79.8769231,23.375 L79.8769231,39.95 L74.0849817,39.95 L74.0849817,23.885 C74.0849817,20.145 71.7509158,18.87 68.4659341,18.87 C66.3912088,18.87 64.3164835,19.125 62.7604396,19.635 L62.7604396,39.95 L56.8820513,39.95 L56.8820513,15.81 Z"></path>
                <polygon points="95.6102564 34.51 102.871795 14.195 108.923077 14.195 94.7457875 50.405 89.040293 50.405 92.6710623 41.14 81.8652015 14.195 88.0893773 14.195"></polygon>
              </g>
              <path d="M157.938462,5.695 C153.702564,2.125 147.305495,0.255 138.920147,0.255 C136.845421,0.255 134.597802,0.425 132.263736,0.68 L131.917949,0.68 L131.917949,39.865 L132.263736,39.865 C134.857143,40.205 137.104762,40.375 139.871062,40.375 C154.999267,40.375 163.643956,32.81 163.643956,19.55 C163.730403,13.685 161.828571,8.925 157.938462,5.695 Z M160.791209,19.635 C160.791209,31.365 153.356777,37.825 139.957509,37.825 C138.315018,37.825 136.758974,37.74 134.94359,37.57 L134.94359,3.06 C136.586081,2.975 137.70989,2.89 138.920147,2.89 C146.181685,2.89 151.714286,4.42 155.431502,7.395 C158.975824,10.2 160.791209,14.365 160.791209,19.635 Z" id="Shape" fill="#FFFFFF"></path>
              <path d="M180.501099,19.805 C185.082784,18.53 187.849084,14.96 187.849084,10.37 C187.849084,3.57 183.094505,0.17 173.758242,0.17 C172.115751,0.17 169.695238,0.34 167.015385,0.595 L166.669597,0.595 L166.669597,39.695 L166.928938,39.78 C169.176557,40.205 171.769963,40.46 174.017582,40.46 C179.031502,40.46 182.921612,39.44 185.515018,37.485 C188.021978,35.615 189.318681,32.81 189.318681,29.325 C189.318681,24.395 185.947253,20.825 180.501099,19.805 Z M173.498901,18.7 L169.608791,18.7 L169.608791,2.975 C171.164835,2.89 172.461538,2.805 173.758242,2.805 C181.106227,2.805 184.823443,5.355 184.823443,10.37 C184.823443,15.725 180.673993,18.7 173.498901,18.7 Z M169.608791,21.42 L173.585348,21.42 C179.377289,21.42 186.29304,22.78 186.29304,29.41 C186.29304,35.19 182.40293,37.825 174.017582,37.825 C172.547985,37.825 170.991941,37.74 169.608791,37.485 L169.608791,21.42 Z" id="Shape" fill="#FFFFFF"></path>
              <polygon id="Shape" fill="#FFFFFF" points="206.262271 19.21 192.776557 0.255 189.232234 0.255 202.717949 19.21 187.589744 40.46 191.134066 40.46 206.262271 19.21"></polygon>
              <polygon id="Shape" fill="url(#linearGradient-1)" points="206.953846 0.255 196.407326 0.255 209.89304 19.125 194.764835 40.375 205.311355 40.375 215.1663 26.605 216.895238 29.07 216.895238 29.07 224.934799 40.375 235.567766 40.375"></polygon>
              <polygon id="Shape" fill="url(#linearGradient-2)" points="233.925275 0.255 223.292308 0.255 216.895238 9.265 222.168498 16.66"></polygon>
            </g>
            <g id="Group" transform="translate(132.000000, 51.000000)" fill="#FFFFFF">
              <polygon id="Shape" points="0.34893617 0.428571429 2.70425532 0.428571429 2.70425532 20.8285714 12.5617021 20.8285714 12.5617021 22.8857143 0.34893617 22.8857143"></polygon>
              <path d="M23.0297872,6 C28.0021277,6 31.4042553,9.51428571 31.4042553,14.5714286 C31.4042553,19.6285714 28.0021277,23.1428571 23.0297872,23.1428571 C18.0574468,23.1428571 14.6553191,19.6285714 14.6553191,14.5714286 C14.5680851,9.51428571 18.0574468,6 23.0297872,6 Z M23.0297872,7.97142857 C19.4531915,7.97142857 16.9234043,10.6285714 16.9234043,14.6571429 C16.9234043,18.6857143 19.4531915,21.3428571 23.0297872,21.3428571 C26.606383,21.3428571 29.1361702,18.6857143 29.1361702,14.6571429 C29.1361702,10.6285714 26.5191489,7.97142857 23.0297872,7.97142857 Z" id="Shape"></path>
              <path d="M44.5765957,11.3142857 C44.5765957,9.17142857 43.1808511,8.14285714 41,8.14285714 C39.0808511,8.14285714 37.5978723,8.65714286 36.1148936,9.42857143 L36.1148936,7.28571429 C37.5106383,6.51428571 39.3425532,6 41.2617021,6 C44.6638298,6 46.8446809,7.45714286 46.8446809,11.1428571 L46.8446809,22.5428571 C45.2744681,22.9714286 43.5297872,23.1428571 42.0468085,23.1428571 C37.5106383,23.1428571 34.4574468,21.7714286 34.4574468,18.2571429 C34.4574468,15 37.5106383,13.2857143 42.5702128,13.2857143 L44.4893617,13.2857143 L44.4893617,11.3142857 L44.5765957,11.3142857 Z M44.5765957,15.1714286 L42.8319149,15.1714286 C39.3425532,15.1714286 36.812766,16.1142857 36.812766,18.2571429 C36.812766,20.4857143 39.0808511,21.2571429 42.2212766,21.2571429 C42.9191489,21.2571429 43.7914894,21.1714286 44.5765957,21 L44.5765957,15.1714286 Z" id="Shape"></path>
              <path d="M52.4276596,7.2 C54.6957447,6.42857143 57.2255319,5.91428571 59.493617,5.91428571 C63.6808511,5.91428571 66.2978723,7.54285714 66.2978723,11.6571429 L66.2978723,22.7142857 L64.0297872,22.7142857 L64.0297872,12.1714286 C64.0297872,8.82857143 61.587234,8.05714286 59.3191489,8.05714286 C57.5744681,8.05714286 56.0042553,8.4 54.7829787,8.65714286 L54.7829787,22.8 L52.5148936,22.8 L52.5148936,7.2 L52.4276596,7.2 Z" id="Shape"></path>
              <path d="M70.8340426,19.2857143 C72.2297872,20.5714286 73.712766,21.2571429 75.5446809,21.2571429 C77.6382979,21.2571429 79.0340426,20.4857143 79.0340426,18.6 C79.0340426,16.6285714 77.5510638,16.1142857 74.9340426,15.2571429 C71.9680851,14.3142857 70.7468085,13.0285714 70.7468085,10.4571429 C70.7468085,7.54285714 73.0148936,6 75.9808511,6 C77.6382979,6 79.2085106,6.34285714 80.5170213,7.28571429 L80.5170213,9.77142857 C79.2085106,8.74285714 77.9,7.97142857 75.9808511,7.97142857 C74.1489362,7.97142857 72.9276596,8.91428571 72.9276596,10.5428571 C72.9276596,12.0857143 73.887234,12.8571429 76.4170213,13.6285714 C79.2957447,14.4857143 81.3021277,15.6 81.3021277,18.6 C81.3021277,21.8571429 78.6851064,23.3142857 75.5446809,23.3142857 C73.6255319,23.3142857 71.8808511,22.8 70.8340426,22.0285714 L70.8340426,19.2857143 Z" id="Shape"></path>
            </g>
          </g>
        </g>
      </g>
    </g>
  </g>
</svg>
