<?xml version="1.0" encoding="UTF-8"?>
<svg xmlns="http://www.w3.org/2000/svg" xmlns:xlink="http://www.w3.org/1999/xlink" width="317px" height="80px" viewBox="0 0 317 80">
  <!-- Generator: Sketch 50.2 (55047) - http://www.bohemiancoding.com/sketch -->
  <title>KonyDBX_DigitalWallet_RGB</title>
  <desc>Created with Sketch.</desc>
  <defs>
    <linearGradient x1="67.4610169%" y1="18.3254237%" x2="22.2864407%" y2="110.947246%" id="linearGradient-1">
      <stop stop-color="#5E5088" offset="0%"></stop>
      <stop stop-color="#64568D" offset="38.03%"></stop>
      <stop stop-color="#5B4D86" offset="56.65%"></stop>
      <stop stop-color="#413573" offset="87.54%"></stop>
      <stop stop-color="#35296A" offset="100%"></stop>
    </linearGradient>
    <linearGradient x1="82.9446701%" y1="-13.3393782%" x2="9.36395939%" y2="82.7917098%" id="linearGradient-2">
      <stop stop-color="#5E5088" offset="16.28%"></stop>
      <stop stop-color="#64568D" offset="59.34%"></stop>
      <stop stop-color="#5B4D86" offset="71.56%"></stop>
      <stop stop-color="#413573" offset="91.83%"></stop>
      <stop stop-color="#35296A" offset="100%"></stop>
    </linearGradient>
  </defs>
  <g id="Design" stroke="none" stroke-width="1" fill="none" fill-rule="evenodd">
    <g id="digital_wallet" transform="translate(-252.000000, -278.000000)" fill-rule="nonzero">
      <g id="hero-section" transform="translate(0.000000, 97.000000)">
        <g id="hero-content" transform="translate(250.000000, 181.000000)">
          <g id="KonyDBX_DigitalWallet_RGB" transform="translate(2.000000, 0.000000)">
            <g id="Group">
              <g fill="#FFFFFF" id="Shape">
                <path d="M6.05970696,39.1666667 L0.256043956,39.1666667 L0.256043956,0.416666667 L6.05970696,0.416666667 L6.05970696,39.1666667 Z M6.31575092,25.5 L17.240293,13.9166667 L24.3241758,13.9166667 L12.9728938,25.3333333 L24.5802198,39.1666667 L17.667033,39.1666667 L6.31575092,25.5 Z"></path>
                <path d="M37.8945055,13.3333333 C45.6611722,13.3333333 51.2941392,18.6666667 51.2941392,26.5833333 C51.2941392,34.4166667 45.6611722,39.75 37.8945055,39.75 C30.2131868,39.75 24.5802198,34.4166667 24.5802198,26.5833333 C24.5802198,18.6666667 30.2131868,13.3333333 37.8945055,13.3333333 M37.8945055,18.1666667 C33.5417582,18.1666667 30.3838828,21.4166667 30.3838828,26.5833333 C30.3838828,31.6666667 33.5417582,34.9166667 37.8945055,34.9166667 C42.3326007,34.9166667 45.4051282,31.6666667 45.4051282,26.5833333 C45.4051282,21.4166667 42.3326007,18.1666667 37.8945055,18.1666667"></path>
                <path d="M56.1589744,15.5 C59.8289377,14.1666667 64.267033,13.3333333 68.0223443,13.3333333 C74.5941392,13.3333333 78.8615385,15.75 78.8615385,22.9166667 L78.8615385,39.1666667 L73.1432234,39.1666667 L73.1432234,23.4166667 C73.1432234,19.75 70.8388278,18.5 67.5956044,18.5 C65.5472527,18.5 63.4989011,18.75 61.9626374,19.25 L61.9626374,39.1666667 L56.1589744,39.1666667 L56.1589744,15.5 Z"></path>
                <polygon points="94.3948718 33.8333333 101.564103 13.9166667 107.538462 13.9166667 93.5413919 49.4166667 87.9084249 49.4166667 91.4930403 40.3333333 80.8245421 13.9166667 86.9695971 13.9166667"></polygon>
              </g>
              <path d="M155.930769,5.58333333 C151.748718,2.08333333 145.432967,0.25 137.154212,0.25 C135.105861,0.25 132.886813,0.416666667 130.582418,0.666666667 L130.241026,0.666666667 L130.241026,39.0833333 L130.582418,39.0833333 C133.142857,39.4166667 135.361905,39.5833333 138.09304,39.5833333 C153.028938,39.5833333 161.563736,32.1666667 161.563736,19.1666667 C161.649084,13.4166667 159.771429,8.75 155.930769,5.58333333 Z M158.747253,19.25 C158.747253,30.75 151.407326,37.0833333 138.178388,37.0833333 C136.556777,37.0833333 135.020513,37 133.228205,36.8333333 L133.228205,3 C134.849817,2.91666667 135.959341,2.83333333 137.154212,2.83333333 C144.323443,2.83333333 149.785714,4.33333333 153.455678,7.25 C156.954945,10 158.747253,14.0833333 158.747253,19.25 Z" id="Shape" fill="#FFFFFF"></path>
              <path d="M178.206593,19.4166667 C182.730037,18.1666667 185.461172,14.6666667 185.461172,10.1666667 C185.461172,3.5 180.767033,0.166666667 171.549451,0.166666667 C169.927839,0.166666667 167.538095,0.333333333 164.892308,0.583333333 L164.550916,0.583333333 L164.550916,38.9166667 L164.80696,39 C167.026007,39.4166667 169.586447,39.6666667 171.805495,39.6666667 C176.755678,39.6666667 180.596337,38.6666667 183.156777,36.75 C185.631868,34.9166667 186.912088,32.1666667 186.912088,28.75 C186.912088,23.9166667 183.583516,20.4166667 178.206593,19.4166667 Z M171.293407,18.3333333 L167.452747,18.3333333 L167.452747,2.91666667 C168.989011,2.83333333 170.269231,2.75 171.549451,2.75 C178.804029,2.75 182.473993,5.25 182.473993,10.1666667 C182.473993,15.4166667 178.377289,18.3333333 171.293407,18.3333333 Z M167.452747,21 L171.378755,21 C177.09707,21 183.924908,22.3333333 183.924908,28.8333333 C183.924908,34.5 180.084249,37.0833333 171.805495,37.0833333 C170.354579,37.0833333 168.818315,37 167.452747,36.75 L167.452747,21 Z" id="Shape" fill="#FFFFFF"></path>
              <polygon id="Shape" fill="#FFFFFF" points="203.640293 18.8333333 190.326007 0.25 186.82674 0.25 200.141026 18.8333333 185.205128 39.6666667 188.704396 39.6666667 203.640293 18.8333333"></polygon>
              <polygon id="Shape" fill="url(#linearGradient-1)" points="204.323077 0.25 193.910623 0.25 207.224908 18.75 192.289011 39.5833333 202.701465 39.5833333 212.431136 26.0833333 214.138095 28.5 214.138095 28.5 222.075458 39.5833333 232.57326 39.5833333"></polygon>
              <polygon id="Shape" fill="url(#linearGradient-2)" points="230.951648 0.25 220.453846 0.25 214.138095 9.08333333 219.344322 16.3333333"></polygon>
            </g>
            <g id="Group" transform="translate(129.000000, 47.000000)" fill="#FFFFFF">
              <path d="M0.341818182,3.72307692 C1.96545455,3.55384615 3.50363636,3.38461538 4.95636364,3.38461538 C15.2109091,3.38461538 18.6290909,8.63076923 18.6290909,14.3 C18.6290909,20.5615385 14.9545455,26.2307692 5.21272727,26.2307692 C3.33272727,26.2307692 1.88,26.0615385 0.341818182,25.8923077 L0.341818182,3.72307692 Z M2.73454545,24.1153846 C3.67454545,24.2 4.52909091,24.2846154 5.29818182,24.2846154 C11.7072727,24.2846154 16.2363636,21.1538462 16.2363636,14.3846154 C16.2363636,9.13846154 12.9036364,5.5 4.87090909,5.5 C4.18727273,5.5 3.50363636,5.5 2.64909091,5.58461538 L2.64909091,24.1153846 L2.73454545,24.1153846 Z" id="Shape"></path>
              <path d="M22.6454545,4.56923077 C22.6454545,3.63846154 23.4145455,2.87692308 24.3545455,2.87692308 C25.2945455,2.87692308 26.0636364,3.63846154 26.0636364,4.56923077 C26.0636364,5.5 25.2945455,6.26153846 24.3545455,6.26153846 C23.4145455,6.26153846 22.6454545,5.5 22.6454545,4.56923077 Z M25.4654545,25.8923077 L23.2436364,25.8923077 L23.2436364,9.64615385 L25.4654545,9.64615385 L25.4654545,25.8923077 Z" id="Shape"></path>
              <path d="M42.3854545,25.3846154 C41.7872727,25.7230769 40.3345455,26.0615385 38.9672727,26.0615385 C33.5836364,26.0615385 29.8236364,23.2692308 29.8236364,17.6846154 C29.8236364,12.4384615 33.4981818,9.22307692 39.3090909,9.22307692 C41.0181818,9.22307692 43.24,9.64615385 44.6927273,10.2384615 L44.6927273,25.9769231 C44.6927273,30.9692308 40.9327273,32.8307692 37.1727273,32.8307692 C35.2072727,32.8307692 33.3272727,32.4076923 32.1309091,31.8153846 L32.1309091,29.7 C33.5836364,30.3769231 35.4636364,30.9692308 37.1727273,30.9692308 C39.9072727,30.9692308 42.4709091,29.7 42.4709091,25.5538462 L42.4709091,25.3846154 L42.3854545,25.3846154 Z M42.3854545,11.8461538 C41.4454545,11.5076923 40.5054545,11.3384615 39.3090909,11.3384615 C34.78,11.3384615 32.1309091,13.7076923 32.1309091,17.6846154 C32.1309091,21.5769231 34.78,24.0307692 39.0527273,24.0307692 C40.42,24.0307692 41.2745455,23.7769231 42.4709091,23.4384615 L42.4709091,11.8461538 L42.3854545,11.8461538 Z" id="Shape"></path>
              <path d="M49.7345455,4.56923077 C49.7345455,3.63846154 50.5036364,2.87692308 51.4436364,2.87692308 C52.3836364,2.87692308 53.1527273,3.63846154 53.1527273,4.56923077 C53.1527273,5.5 52.3836364,6.26153846 51.4436364,6.26153846 C50.5036364,6.26153846 49.7345455,5.5 49.7345455,4.56923077 Z M52.5545455,25.8923077 L50.3327273,25.8923077 L50.3327273,9.64615385 L52.5545455,9.64615385 L52.5545455,25.8923077 Z" id="Shape"></path>
              <path d="M55.8872727,9.64615385 L58.4509091,9.64615385 L58.4509091,5.66923077 L60.6727273,5.66923077 L60.6727273,9.64615385 L65.2872727,9.64615385 L65.2872727,11.5076923 L60.6727273,11.5076923 L60.6727273,21.4076923 C60.6727273,23.5230769 61.5272727,24.2846154 63.0654545,24.2846154 C64.0909091,24.2846154 64.9454545,23.9461538 66.1418182,23.3538462 L66.1418182,25.3 C65.2018182,25.8076923 64.0054545,26.1461538 62.6381818,26.1461538 C60.2454545,26.1461538 58.5363636,24.8769231 58.5363636,21.5769231 L58.5363636,11.4230769 L55.9727273,11.4230769 L55.9727273,9.64615385 L55.8872727,9.64615385 Z" id="Shape"></path>
              <path d="M78.5327273,14.5538462 C78.5327273,12.4384615 77.1654545,11.4230769 75.0290909,11.4230769 C73.1490909,11.4230769 71.6963636,11.9307692 70.2436364,12.6923077 L70.2436364,10.5769231 C71.6109091,9.81538462 73.4054545,9.30769231 75.2854545,9.30769231 C78.6181818,9.30769231 80.7545455,10.7461538 80.7545455,14.3846154 L80.7545455,25.6384615 C79.2163636,26.0615385 77.5072727,26.2307692 76.0545455,26.2307692 C71.6109091,26.2307692 68.62,24.8769231 68.62,21.4076923 C68.62,18.1923077 71.6109091,16.5 76.5672727,16.5 L78.4472727,16.5 L78.4472727,14.5538462 L78.5327273,14.5538462 Z M78.5327273,18.3615385 L76.8236364,18.3615385 C73.4054545,18.3615385 70.9272727,19.2923077 70.9272727,21.4076923 C70.9272727,23.6076923 73.1490909,24.3692308 76.2254545,24.3692308 C76.9090909,24.3692308 77.7636364,24.2846154 78.5327273,24.1153846 L78.5327273,18.3615385 Z" id="Shape"></path>
              <polygon id="Shape" points="88.4454545 25.8923077 86.2236364 25.8923077 86.2236364 0.592307692 88.4454545 0.592307692"></polygon>
              <polygon id="Shape" points="114.167273 3.80769231 119.123636 23.7769231 124.421818 3.80769231 126.729091 3.80769231 120.661818 25.9769231 117.585455 25.9769231 112.8 6.51538462 108.014545 25.9769231 104.938182 25.9769231 98.8709091 3.80769231 101.263636 3.80769231 106.476364 23.7769231 111.518182 3.80769231"></polygon>
              <path d="M138.094545,14.5538462 C138.094545,12.4384615 136.727273,11.4230769 134.590909,11.4230769 C132.710909,11.4230769 131.258182,11.9307692 129.805455,12.6923077 L129.805455,10.5769231 C131.172727,9.81538462 132.967273,9.30769231 134.847273,9.30769231 C138.18,9.30769231 140.316364,10.7461538 140.316364,14.3846154 L140.316364,25.6384615 C138.778182,26.0615385 137.069091,26.2307692 135.616364,26.2307692 C131.172727,26.2307692 128.181818,24.8769231 128.181818,21.4076923 C128.181818,18.1923077 131.172727,16.5 136.129091,16.5 L138.009091,16.5 L138.009091,14.5538462 L138.094545,14.5538462 Z M138.094545,18.3615385 L136.385455,18.3615385 C132.967273,18.3615385 130.489091,19.2923077 130.489091,21.4076923 C130.489091,23.6076923 132.710909,24.3692308 135.787273,24.3692308 C136.470909,24.3692308 137.325455,24.2846154 138.094545,24.1153846 L138.094545,18.3615385 Z" id="Shape"></path>
              <polygon id="Shape" points="147.921818 25.8923077 145.7 25.8923077 145.7 0.592307692 147.921818 0.592307692"></polygon>
              <polygon id="Shape" points="155.869091 25.8923077 153.647273 25.8923077 153.647273 0.592307692 155.869091 0.592307692"></polygon>
              <path d="M162.534545,17.8538462 C162.534545,21.9153846 165.44,24.2846154 168.601818,24.2846154 C170.909091,24.2846154 172.532727,23.6923077 174.241818,22.4230769 L174.241818,24.6230769 C172.789091,25.7230769 170.652727,26.1461538 168.601818,26.1461538 C163.901818,26.1461538 160.227273,22.9307692 160.227273,17.6846154 C160.227273,12.7769231 163.645455,9.22307692 168.003636,9.22307692 C172.105455,9.22307692 174.925455,11.6769231 174.925455,16.3307692 L174.925455,17.8538462 L162.534545,17.8538462 Z M172.703636,15.9923077 C172.532727,12.6076923 170.738182,11.2538462 168.003636,11.2538462 C165.44,11.2538462 163.389091,12.9461538 162.705455,15.9923077 L172.703636,15.9923077 Z" id="Shape"></path>
              <path d="M177.232727,9.64615385 L179.796364,9.64615385 L179.796364,5.66923077 L182.018182,5.66923077 L182.018182,9.64615385 L186.632727,9.64615385 L186.632727,11.5076923 L182.018182,11.5076923 L182.018182,21.4076923 C182.018182,23.5230769 182.872727,24.2846154 184.410909,24.2846154 C185.436364,24.2846154 186.290909,23.9461538 187.487273,23.3538462 L187.487273,25.3 C186.547273,25.8076923 185.350909,26.1461538 183.983636,26.1461538 C181.590909,26.1461538 179.881818,24.8769231 179.881818,21.5769231 L179.881818,11.4230769 L177.318182,11.4230769 L177.318182,9.64615385 L177.232727,9.64615385 Z" id="Shape"></path>
            </g>
          </g>
        </g>
      </g>
    </g>
  </g>
</svg>
