<?xml version="1.0" encoding="UTF-8"?>
<svg xmlns="http://www.w3.org/2000/svg" xmlns:xlink="http://www.w3.org/1999/xlink" width="304px" height="82px" viewBox="0 0 304 82">
  <!-- Generator: Sketch 50.2 (55047) - http://www.bohemiancoding.com/sketch -->
  <title>KonyDBX_Onboarding_RGB</title>
  <desc>Created with Sketch.</desc>
  <defs>
    <linearGradient x1="67.4610169%" y1="18.3398305%" x2="22.2864407%" y2="110.961653%" id="linearGradient-1">
      <stop stop-color="#5E5088" offset="0%"></stop>
      <stop stop-color="#64568D" offset="38.03%"></stop>
      <stop stop-color="#5B4D86" offset="56.65%"></stop>
      <stop stop-color="#413573" offset="87.54%"></stop>
      <stop stop-color="#35296A" offset="100%"></stop>
    </linearGradient>
    <linearGradient x1="82.9446701%" y1="-13.3041451%" x2="9.36395939%" y2="82.826943%" id="linearGradient-2">
      <stop stop-color="#5F5088" offset="16.28%"></stop>
      <stop stop-color="#65568D" offset="59.34%"></stop>
      <stop stop-color="#5C4D86" offset="70.93%"></stop>
      <stop stop-color="#453375" offset="90.14%"></stop>
      <stop stop-color="#37246A" offset="100%"></stop>
    </linearGradient>
  </defs>
  <g id="Design" stroke="none" stroke-width="1" fill="none" fill-rule="evenodd">
    <g id="new_account_on-boarding" transform="translate(-254.000000, -260.000000)" fill-rule="nonzero">
      <g id="hero-section" transform="translate(0.000000, 97.000000)">
        <g id="hero-content" transform="translate(252.000000, 163.000000)">
          <g id="KonyDBX_Onboarding_RGB" transform="translate(2.000000, 0.000000)">
            <g id="Group" transform="translate(128.000000, 48.000000)" fill="#FFFFFF">
              <path d="M12.1320388,3.315 C18.6252427,3.315 23.8368932,8.075 23.8368932,14.96 C23.8368932,21.845 18.6252427,26.605 12.1320388,26.605 C5.63883495,26.605 0.427184466,21.845 0.427184466,14.96 C0.427184466,8.075 5.63883495,3.315 12.1320388,3.315 Z M12.1320388,5.44 C7.00582524,5.44 2.81941748,9.18 2.81941748,14.96 C2.81941748,20.74 7.00582524,24.48 12.1320388,24.48 C17.2582524,24.48 21.3592233,20.74 21.3592233,14.875 C21.3592233,9.01 17.1728155,5.44 12.1320388,5.44 Z" id="Shape"></path>
              <path d="M28.3650485,10.54 C30.5864078,9.775 33.0640777,9.265 35.2854369,9.265 C39.4718447,9.265 42.0349515,10.88 42.0349515,15.045 L42.0349515,26.18 L39.7281553,26.18 L39.7281553,15.47 C39.7281553,12.07 37.3359223,11.39 35.1145631,11.39 C33.4058252,11.39 31.7825243,11.73 30.5864078,11.985 L30.5864078,26.095 L28.2796117,26.095 L28.2796117,10.54 L28.3650485,10.54 Z" id="Shape"></path>
              <path d="M47.5029126,0.425 L49.8097087,0.425 L49.8097087,10.115 C50.4932039,9.69 52.2019417,9.265 53.7398058,9.265 C58.6951456,9.265 62.4543689,12.155 62.4543689,17.85 C62.4543689,23.205 58.6951456,26.52 52.8854369,26.52 C51.176699,26.52 49.2116505,26.18 47.5029126,25.67 L47.5029126,0.425 Z M49.8097087,24.14 C50.7495146,24.395 51.8601942,24.48 52.8854369,24.48 C57.3281553,24.48 60.1475728,22.015 60.1475728,17.765 C60.1475728,13.515 57.2427184,11.22 53.7398058,11.22 C52.031068,11.22 50.7495146,11.56 49.8097087,11.985 L49.8097087,24.14 Z" id="Shape"></path>
              <path d="M74.1592233,9.265 C79.1145631,9.265 82.4466019,12.75 82.4466019,17.85 C82.4466019,22.95 79.0291262,26.435 74.1592233,26.435 C69.2038835,26.435 65.8718447,22.95 65.8718447,17.85 C65.8718447,12.75 69.2038835,9.265 74.1592233,9.265 Z M74.1592233,11.22 C70.6563107,11.22 68.1786408,13.855 68.1786408,17.85 C68.1786408,21.845 70.6563107,24.48 74.1592233,24.48 C77.6621359,24.48 80.1398058,21.845 80.1398058,17.85 C80.2252427,13.855 77.6621359,11.22 74.1592233,11.22 Z" id="Shape"></path>
              <path d="M95.5184466,14.62 C95.5184466,12.495 94.1514563,11.39 92.015534,11.39 C90.1359223,11.39 88.6834951,11.9 87.1456311,12.75 L87.1456311,10.625 C88.5126214,9.86 90.3067961,9.35 92.2718447,9.35 C95.6038835,9.35 97.8252427,10.795 97.8252427,14.535 L97.8252427,25.925 C96.2873786,26.35 94.4932039,26.52 93.1262136,26.52 C88.5980583,26.52 85.607767,25.16 85.607767,21.675 C85.607767,18.445 88.5980583,16.745 93.638835,16.745 L95.5184466,16.745 L95.5184466,14.62 Z M95.5184466,18.445 L93.8097087,18.445 C90.392233,18.445 87.9145631,19.38 87.9145631,21.505 C87.9145631,23.63 90.2213592,24.48 93.2116505,24.48 C93.8951456,24.48 94.7495146,24.395 95.5184466,24.225 L95.5184466,18.445 Z" id="Shape"></path>
              <path d="M105.514563,26.18 L103.207767,26.18 L103.207767,11.135 C104.916505,10.03 107.052427,9.35 109.359223,9.35 C110.299029,9.35 111.153398,9.435 112.093204,9.69 L112.093204,11.9 C111.067961,11.56 109.957282,11.475 109.18835,11.475 C107.565049,11.475 106.368932,11.815 105.429126,12.325 L105.429126,26.18 L105.514563,26.18 Z" id="Shape"></path>
              <path d="M129.009709,25.925 C127.215534,26.35 125.335922,26.52 123.627184,26.52 C117.902913,26.52 113.972816,23.46 113.972816,17.935 C113.972816,12.41 118.159223,9.35 123.114563,9.35 C124.396117,9.35 125.848544,9.605 126.702913,10.115 L126.702913,0.425 L129.009709,0.425 L129.009709,25.925 Z M126.702913,12.07 C125.848544,11.645 124.652427,11.305 123.114563,11.305 C119.269903,11.305 116.279612,13.685 116.279612,17.85 C116.279612,22.015 119.184466,24.48 123.541748,24.48 C124.56699,24.48 125.67767,24.48 126.617476,24.31 L126.617476,12.07 L126.702913,12.07 Z" id="Shape"></path>
              <path d="M134.135922,4.505 C134.135922,3.57 134.904854,2.805 135.84466,2.805 C136.784466,2.805 137.553398,3.57 137.553398,4.505 C137.553398,5.44 136.784466,6.205 135.84466,6.205 C134.904854,6.205 134.135922,5.44 134.135922,4.505 Z M136.95534,26.18 L134.648544,26.18 L134.648544,9.69 L136.95534,9.69 L136.95534,26.18 Z" id="Shape"></path>
              <path d="M142.679612,10.54 C144.900971,9.775 147.378641,9.265 149.6,9.265 C153.786408,9.265 156.349515,10.88 156.349515,15.045 L156.349515,26.18 L154.042718,26.18 L154.042718,15.47 C154.042718,12.07 151.650485,11.39 149.429126,11.39 C147.720388,11.39 146.097087,11.73 144.986408,11.985 L144.986408,26.095 L142.679612,26.095 L142.679612,10.54 Z" id="Shape"></path>
              <path d="M173.266019,25.585 C172.667961,25.925 171.215534,26.265 169.848544,26.265 C164.380583,26.265 160.621359,23.46 160.621359,17.765 C160.621359,12.41 164.380583,9.18 170.190291,9.18 C171.899029,9.18 174.205825,9.605 175.572816,10.2 L175.572816,26.35 C175.572816,31.365 171.728155,33.32 167.968932,33.32 C165.918447,33.32 164.038835,32.895 162.842718,32.3 L162.842718,30.175 C164.295146,30.855 166.174757,31.45 167.968932,31.45 C170.702913,31.45 173.266019,30.09 173.266019,25.925 L173.266019,25.585 Z M173.266019,11.815 C172.326214,11.475 171.300971,11.305 170.190291,11.305 C165.576699,11.305 162.928155,13.685 162.928155,17.765 C162.928155,21.76 165.576699,24.225 169.848544,24.225 C171.215534,24.225 172.15534,23.97 173.266019,23.545 L173.266019,11.815 Z" id="Shape"></path>
            </g>
            <g id="Group">
              <g fill="#FFFFFF" id="Shape">
                <path d="M6.05970696,40.29 L0.256043956,40.29 L0.256043956,0.765 L6.05970696,0.765 L6.05970696,40.29 Z M6.31575092,26.35 L17.240293,14.535 L24.3241758,14.535 L12.9728938,26.265 L24.5802198,40.375 L17.667033,40.375 L6.31575092,26.35 Z"></path>
                <path d="M37.8945055,13.94 C45.6611722,13.94 51.2941392,19.38 51.2941392,27.455 C51.2941392,35.445 45.6611722,40.885 37.8945055,40.885 C30.2131868,40.885 24.5802198,35.445 24.5802198,27.455 C24.5802198,19.465 30.2131868,13.94 37.8945055,13.94 M37.8945055,18.87 C33.5417582,18.87 30.3838828,22.185 30.3838828,27.455 C30.3838828,32.64 33.5417582,35.955 37.8945055,35.955 C42.3326007,35.955 45.4051282,32.64 45.4051282,27.455 C45.4051282,22.185 42.3326007,18.87 37.8945055,18.87"></path>
                <path d="M56.1589744,16.15 C59.7435897,14.79 64.181685,13.94 68.0223443,13.94 C74.5941392,13.94 78.8615385,16.405 78.8615385,23.715 L78.8615385,40.29 L73.1432234,40.29 L73.1432234,24.225 C73.1432234,20.485 70.8388278,19.21 67.5956044,19.21 C65.5472527,19.21 63.4989011,19.465 61.9626374,19.975 L61.9626374,40.29 L56.1589744,40.29 L56.1589744,16.15 Z"></path>
                <polygon points="94.3948718 34.85 101.564103 14.535 107.538462 14.535 93.5413919 50.745 87.9084249 50.745 91.4930403 41.48 80.8245421 14.535 86.9695971 14.535"></polygon>
              </g>
              <path d="M155.930769,6.035 C151.748718,2.465 145.432967,0.595 137.154212,0.595 C135.105861,0.595 132.886813,0.765 130.582418,1.02 L130.241026,1.02 L130.241026,40.205 L130.582418,40.205 C133.142857,40.545 135.361905,40.715 138.09304,40.715 C153.028938,40.715 161.563736,33.15 161.563736,19.89 C161.649084,14.025 159.771429,9.35 155.930769,6.035 Z M158.747253,19.975 C158.747253,31.705 151.407326,38.165 138.178388,38.165 C136.556777,38.165 135.020513,38.08 133.228205,37.91 L133.228205,3.4 C134.849817,3.315 135.959341,3.23 137.154212,3.23 C144.323443,3.23 149.785714,4.76 153.455678,7.735 C156.954945,10.54 158.747253,14.705 158.747253,19.975 Z" id="Shape" fill="#FFFFFF"></path>
              <path d="M178.206593,20.145 C182.730037,18.87 185.461172,15.3 185.461172,10.71 C185.461172,3.91 180.767033,0.51 171.549451,0.51 C169.927839,0.51 167.538095,0.68 164.892308,0.935 L164.550916,0.935 L164.550916,40.035 L164.80696,40.12 C167.026007,40.545 169.586447,40.8 171.805495,40.8 C176.755678,40.8 180.596337,39.78 183.156777,37.825 C185.631868,35.955 186.912088,33.15 186.912088,29.665 C186.912088,24.735 183.583516,21.165 178.206593,20.145 Z M171.293407,19.125 L167.452747,19.125 L167.452747,3.315 C168.989011,3.23 170.269231,3.145 171.549451,3.145 C178.804029,3.145 182.473993,5.695 182.473993,10.71 C182.473993,16.065 178.377289,19.125 171.293407,19.125 Z M167.452747,21.76 L171.378755,21.76 C177.09707,21.76 183.924908,23.12 183.924908,29.75 C183.924908,35.53 180.084249,38.165 171.805495,38.165 C170.354579,38.165 168.818315,38.08 167.452747,37.825 L167.452747,21.76 Z" id="Shape" fill="#FFFFFF"></path>
              <polygon id="Shape" fill="#FFFFFF" points="203.640293 19.55 190.326007 0.595 186.82674 0.595 200.141026 19.55 185.205128 40.8 188.704396 40.8 203.640293 19.55"></polygon>
              <polygon id="Shape" fill="url(#linearGradient-1)" points="204.323077 0.595 193.910623 0.595 207.224908 19.465 192.289011 40.715 202.701465 40.715 212.431136 26.945 214.138095 29.41 214.138095 29.41 222.075458 40.715 232.57326 40.715"></polygon>
              <polygon id="Shape" fill="url(#linearGradient-2)" points="230.951648 0.595 220.453846 0.595 214.138095 9.605 219.344322 17"></polygon>
            </g>
          </g>
        </g>
      </g>
    </g>
  </g>
</svg>
