<?xml version="1.0" encoding="UTF-8"?>
<svg xmlns="http://www.w3.org/2000/svg" xmlns:xlink="http://www.w3.org/1999/xlink" width="232px" height="50px" viewBox="0 0 232 50">
  <!-- Generator: Sketch 50.2 (55047) - http://www.bohemiancoding.com/sketch -->
  <title>microsoft</title>
  <desc>Created with Sketch.</desc>
  <defs></defs>
  <g id="Design" stroke="none" stroke-width="1" fill="none" fill-rule="evenodd">
    <g id="whykonyfx" transform="translate(-672.000000, -2206.000000)">
      <g id="partners" transform="translate(90.000000, 2030.000000)">
        <g id="Page-1" transform="translate(101.000000, 160.000000)">
          <g id="Group-88" transform="translate(0.000000, 0.213000)">
            <g id="microsoft" transform="translate(481.000000, 16.000000)">
              <path d="M0.7003,0.4364 L24.1053,0.4364 C24.1033,8.2384 24.1053,16.0404 24.1033,23.8414 L0.7003,23.8414 L0.7003,0.4364 Z" id="Fill-1" fill="#F25022"></path>
              <path d="M24.1056,0.4364 L26.4956,0.4364 C26.4956,8.2384 26.4936,16.0404 26.4966,23.8414 C34.2966,23.8414 42.0986,23.8404 49.8986,23.8414 C49.9016,16.0404 49.9006,8.2384 49.9006,0.4364 L231.0966,0.4364 L231.0966,18.6394 C229.4266,18.6444 227.7566,18.6264 226.0876,18.6504 C226.0506,16.5384 226.0846,14.4244 226.0706,12.3134 C224.4006,12.8164 222.7406,13.3524 221.0616,13.8304 C221.0206,15.4324 221.0586,17.0374 221.0406,18.6394 C218.5726,18.6374 216.1036,18.6414 213.6346,18.6364 C213.6666,17.3734 213.5476,16.1014 213.7296,14.8464 C213.8796,13.8574 214.4536,12.8674 215.4176,12.4854 C216.6336,11.9864 217.9936,12.3174 219.1486,12.8264 C219.1416,11.3794 219.1596,9.9334 219.1386,8.4884 C216.7066,7.8194 213.9186,7.9504 211.7606,9.3544 C210.3696,10.2464 209.3606,11.6704 208.9066,13.2504 C208.3696,15.0004 208.6436,16.8494 208.5576,18.6464 C207.3866,18.6374 206.2166,18.6264 205.0486,18.6534 C205.0616,20.0054 205.0556,21.3574 205.0516,22.7084 C206.2256,22.7324 207.4006,22.7044 208.5746,22.7264 C208.5646,28.4164 208.5716,34.1064 208.5716,39.7964 L213.6336,39.7964 C213.6336,34.1044 213.6316,28.4134 213.6346,22.7214 C216.1036,22.7164 218.5736,22.7184 221.0426,22.7194 C221.0496,26.3484 221.0366,29.9744 221.0486,33.6014 C221.0716,35.2904 221.3596,37.0974 222.4786,38.4314 C223.4476,39.6124 224.9846,40.1524 226.4686,40.2614 C228.0346,40.3734 229.6506,40.1814 231.0966,39.5534 L231.0966,49.6364 L49.9006,49.6364 L49.9006,26.2314 C42.0986,26.2314 34.2966,26.2304 26.4966,26.2324 C26.4936,34.0334 26.4966,41.8344 26.4956,49.6364 L24.1056,49.6364 C24.1056,41.8344 24.1066,34.0344 24.1056,26.2324 C16.3036,26.2284 8.5016,26.2324 0.7006,26.2304 L0.7006,23.8414 L24.1036,23.8414 C24.1056,16.0404 24.1036,8.2384 24.1056,0.4364" id="Fill-3" fill="#FEFEFE"></path>
              <path d="M26.4952,0.4364 L49.90036,0.4364 C49.9002,8.2384 49.9012,16.0404 49.8982,23.8414 C42.0992,23.8404 34.2972,23.8414 26.4962,23.8414 C26.4932,16.0404 26.4952,8.2384 26.4952,0.4364" id="Fill-5" fill="#80BA01"></path>
              <path d="M211.7609,9.3543 C213.9189,7.9503 216.7059,7.8193 219.1389,8.4883 C219.1589,9.9333 219.1419,11.3793 219.1489,12.8263 C217.9929,12.3173 216.6339,11.9863 215.4169,12.4853 C214.4529,12.8673 213.8799,13.8573 213.7299,14.8463 C213.5479,16.1013 213.6659,17.3743 213.6349,18.6363 C216.1039,18.6413 218.5729,18.6373 221.0399,18.6393 C221.0589,17.0373 221.0209,15.4323 221.0619,13.8303 C222.7399,13.3523 224.4009,12.8163 226.0709,12.3133 C226.0839,14.4243 226.0509,16.5383 226.0879,18.6503 C227.7569,18.6263 229.4269,18.6443 231.0969,18.6393 L231.0969,22.7503 C229.4209,22.6803 227.7439,22.7313 226.0689,22.7253 C226.0749,25.0883 226.0709,27.4513 226.0719,29.8163 C226.0979,31.1253 226.0009,32.4403 226.1549,33.7453 C226.2469,34.5133 226.5269,35.3663 227.2479,35.7633 C228.4549,36.4393 229.9879,36.1443 231.0969,35.4023 L231.0969,39.5533 C229.6509,40.1813 228.0339,40.3733 226.4689,40.2613 C224.9849,40.1523 223.4479,39.6123 222.4789,38.4313 C221.3599,37.0973 221.0719,35.2913 221.0489,33.6013 C221.0359,29.9743 221.0499,26.3483 221.0429,22.7193 C218.5729,22.7183 216.1039,22.7163 213.6349,22.7213 C213.6319,28.4133 213.6339,34.1043 213.6339,39.7963 L208.5719,39.7963 C208.5719,34.1063 208.5649,28.4163 208.5739,22.7263 C207.4009,22.7043 206.2259,22.7323 205.0519,22.7083 C205.0559,21.3573 205.0619,20.0053 205.0489,18.6533 C206.2169,18.6263 207.3869,18.6373 208.5579,18.6463 C208.6439,16.8493 208.3689,15.0003 208.9069,13.2503 C209.3609,11.6703 210.3689,10.2463 211.7609,9.3543" id="Fill-7" fill="#777777"></path>
              <path d="M103.3839,9.6492 C104.4049,9.4952 105.5089,9.8432 106.1849,10.6422 C106.9779,11.5162 107.1239,12.9082 106.5359,13.9292 C105.8869,15.0832 104.4339,15.6182 103.1669,15.3412 C101.8529,15.1052 100.7579,13.8832 100.8169,12.5212 C100.7789,11.0872 101.9779,9.8092 103.3839,9.6492" id="Fill-9" fill="#777777"></path>
              <path d="M64.59,10.2762 L71.951,10.2762 C74.243,16.0942 76.551,21.9072 78.846,27.7252 C79.432,29.1802 79.98,30.6522 80.594,32.0952 C83.542,24.8262 86.531,17.5732 89.457,10.2942 C91.818,10.2552 94.179,10.2852 96.54,10.2792 C96.535,20.1182 96.537,29.9572 96.539,39.7952 C94.835,39.7912 93.133,39.8092 91.431,39.7852 C91.449,32.5242 91.429,25.2642 91.44,18.0022 C91.442,17.6762 91.431,17.3502 91.408,17.0242 C91.309,17.1752 91.22,17.3332 91.143,17.4962 C88.217,24.9282 85.236,32.3382 82.327,39.7782 C81.115,39.8222 79.903,39.7812 78.69,39.8002 C75.671,32.3692 72.692,24.9202 69.689,17.4822 C69.61,17.3282 69.526,17.1772 69.434,17.0322 C69.372,20.2142 69.424,23.3972 69.407,26.5792 C69.408,30.9842 69.404,35.3892 69.408,39.7952 C67.802,39.7992 66.195,39.7952 64.59,39.7972 C64.589,29.9572 64.587,20.1162 64.59,10.2762" id="Fill-11" fill="#777777"></path>
              <path d="M117.3146,18.619 C119.7566,17.924 122.3916,17.952 124.8336,18.641 C125.3366,18.782 125.8246,18.977 126.2776,19.244 C126.2496,20.856 126.2776,22.47 126.2616,24.084 C124.6286,22.837 122.5586,22.047 120.4846,22.308 C118.8356,22.457 117.2646,23.311 116.2796,24.642 C115.0126,26.293 114.7206,28.484 114.9386,30.504 C115.1016,32.083 115.7546,33.662 116.9836,34.709 C118.2596,35.844 120.0496,36.246 121.7196,36.119 C123.3706,35.93 124.9276,35.23 126.2616,34.255 C126.2756,35.783 126.2536,37.311 126.2726,38.839 C124.2036,40.07 121.7226,40.389 119.3536,40.271 C116.9306,40.143 114.5136,39.225 112.7596,37.522 C110.8536,35.684 109.8186,33.064 109.6966,30.44 C109.5726,27.712 110.1276,24.865 111.6986,22.587 C113.0136,20.642 115.0726,19.266 117.3146,18.619" id="Fill-13" fill="#777777"></path>
              <path d="M151.6095,18.2557 C154.0385,17.9457 156.6005,18.0837 158.8555,19.1097 C160.8125,19.9927 162.3985,21.6247 163.2765,23.5787 C164.2135,25.6587 164.4425,27.9957 164.2835,30.2517 C164.1275,32.4537 163.4355,34.6607 162.0575,36.4117 C160.6485,38.2707 158.5225,39.5287 156.2475,39.9977 C154.3005,40.4017 152.2655,40.4017 150.3205,39.9917 C147.9925,39.4937 145.8375,38.1437 144.4725,36.1787 C142.8705,33.9017 142.4145,31.0047 142.6185,28.2767 C142.7555,25.9617 143.4755,23.6277 144.9555,21.8117 C146.5745,19.7777 149.0575,18.5767 151.6095,18.2557" id="Fill-15" fill="#777777"></path>
              <path d="M172.6075,18.2977 C174.9485,17.8857 177.3985,18.1877 179.6145,19.0267 C179.6175,20.5787 179.6145,22.1297 179.6155,23.6797 C178.0675,22.6157 176.1765,22.0437 174.2985,22.1107 C173.3525,22.1467 172.3125,22.5467 171.8805,23.4457 C171.5385,24.3367 171.7755,25.5027 172.6155,26.0357 C174.0495,26.9957 175.7625,27.4037 177.2495,28.2637 C178.4205,28.9217 179.5565,29.7817 180.1495,31.0227 C181.2645,33.3447 180.7925,36.4127 178.8325,38.1447 C176.9615,39.8937 174.2665,40.3767 171.7885,40.2837 C170.0285,40.1707 168.2595,39.8227 166.6415,39.1037 C166.6495,37.4717 166.6315,35.8407 166.6505,34.2097 C168.0105,35.1977 169.5815,35.9047 171.2435,36.1927 C172.3995,36.3807 173.6585,36.3897 174.7365,35.8717 C175.7675,35.3587 175.9535,33.8927 175.3405,32.9957 C174.7665,32.3037 173.9245,31.9227 173.1305,31.5487 C171.6395,30.8787 170.0725,30.3187 168.7615,29.3127 C167.8405,28.5947 167.1435,27.5817 166.8715,26.4417 C166.4655,24.7577 166.5925,22.8617 167.5715,21.3917 C168.6885,19.6777 170.6295,18.6507 172.6075,18.2977" id="Fill-17" fill="#777777"></path>
              <path d="M191.9552,18.2479 C194.4802,17.9349 197.1632,18.1049 199.4682,19.2689 C201.4782,20.2739 203.0372,22.0899 203.8162,24.1899 C204.4252,25.7969 204.6392,27.5319 204.6032,29.2419 C204.6072,31.7979 203.9172,34.4209 202.3132,36.4479 C200.8122,38.4099 198.5162,39.6849 196.0902,40.0859 C193.7192,40.4699 191.2142,40.3699 188.9612,39.4829 C186.6782,38.5849 184.7802,36.7519 183.8182,34.4939 C182.8162,32.1929 182.7112,29.6029 183.0222,27.1449 C183.3512,24.6859 184.4642,22.2829 186.3612,20.6479 C187.9162,19.2829 189.9182,18.5099 191.9552,18.2479" id="Fill-19" fill="#777777"></path>
              <path d="M137.5958,18.9637 C138.9928,18.1247 140.7688,18.0547 142.2938,18.5677 C142.2858,20.2557 142.2938,21.9437 142.2888,23.6317 C141.2908,22.9847 140.0458,22.7087 138.8678,22.8277 C137.4318,22.9907 136.2928,24.0947 135.7018,25.3597 C135.0618,26.6987 134.9408,28.2147 134.9818,29.6797 C134.9818,33.0517 134.9828,36.4247 134.9818,39.7967 L129.9918,39.7967 C129.9868,32.7477 129.9958,25.6977 129.9868,18.6507 C131.6528,18.6287 133.3188,18.6377 134.9838,18.6467 C134.9768,19.8567 134.9838,21.0667 134.9798,22.2777 C135.5208,20.9617 136.3258,19.6827 137.5958,18.9637" id="Fill-21" fill="#777777"></path>
              <path d="M101.2765,18.6463 C102.9555,18.6393 104.6345,18.6223 106.3125,18.6543 C106.2935,25.7013 106.3115,32.7503 106.3045,39.7963 L101.2795,39.7963 C101.2745,32.7473 101.2805,25.6973 101.2765,18.6463" id="Fill-23" fill="#777777"></path>
              <path d="M153.1193,22.2733 C154.6403,22.1723 156.2603,22.6033 157.3523,23.7103 C158.5223,24.8593 158.9753,26.5283 159.1003,28.1193 C159.1903,29.8613 159.1183,31.6753 158.3883,33.2903 C157.9043,34.3773 157.0183,35.2963 155.9013,35.7323 C154.5943,36.2343 153.1253,36.2633 151.7753,35.9143 C150.4013,35.5523 149.2363,34.5603 148.6023,33.2963 C147.7873,31.6693 147.6653,29.7863 147.8343,28.0013 C147.9863,26.3773 148.5523,24.7083 149.7893,23.5863 C150.6853,22.7503 151.9093,22.3403 153.1193,22.2733" id="Fill-25" fill="#FEFEFE"></path>
              <path d="M193.3214,22.2772 C194.7514,22.1772 196.2774,22.5072 197.3774,23.4732 C198.3894,24.3142 198.9514,25.5732 199.2084,26.8412 C199.4984,28.3292 199.4954,29.8682 199.2504,31.3622 C199.0564,32.4752 198.6714,33.5862 197.9414,34.4672 C197.2064,35.3532 196.1124,35.8922 194.9844,36.0582 C193.7724,36.2402 192.4964,36.1532 191.3634,35.6652 C190.1394,35.1472 189.1924,34.0902 188.6934,32.8722 C188.0924,31.4212 187.9734,29.8142 188.0924,28.2622 C188.2084,26.7592 188.6344,25.2172 189.6274,24.0492 C190.5324,22.9592 191.9214,22.3552 193.3214,22.2772" id="Fill-27" fill="#FEFEFE"></path>
              <path d="M226.0685,22.7254 C227.7445,22.7314 229.4215,22.6804 231.0965,22.7494 L231.0965,35.4024 C229.9875,36.1444 228.4555,36.4394 227.2485,35.7634 C226.5265,35.3664 226.2475,34.5134 226.1545,33.7454 C226.0015,32.4404 226.0975,31.1244 226.0715,29.8164 C226.0705,27.4514 226.0755,25.0884 226.0685,22.7254" id="Fill-29" fill="#FEFEFE"></path>
              <path d="M0.7003,26.2303 C8.5023,26.2323 16.3043,26.2283 24.1053,26.2323 C24.1063,34.0343 24.1053,41.8343 24.1053,49.6363 L0.7003,49.6363 L0.7003,26.2303 Z" id="Fill-31" fill="#02A4EF"></path>
              <path d="M26.4962,26.2323 C34.2972,26.2303 42.0992,26.2313 49.9002,26.2313 L49.9002,49.6363 L26.4952,49.6363 C26.4962,41.8353 26.4932,34.0333 26.4962,26.2323" id="Fill-33" fill="#FFB902"></path>
            </g>
          </g>
        </g>
      </g>
    </g>
  </g>
</svg>
