<?xml version="1.0" encoding="UTF-8"?>
<!-- Generator: Adobe Illustrator 22.1.0, SVG Export Plug-In . SVG Version: 6.00 Build 0)  -->
<svg xmlns="http://www.w3.org/2000/svg" xmlns:xlink="http://www.w3.org/1999/xlink" id="Layer_1" x="0px" y="0px" viewBox="0 0 710 129" style="enable-background:new 0 0 710 129;" xml:space="preserve">
<style type="text/css">
	.st0{fill:#727272;}
	.st1{fill:#F79E2A;}
	.st2{fill:#A0A0A0;}
	.st3{fill:#CAC9CC;}
	.st4{fill:#E6E5E9;}
</style>
<g>
	<g>
		<path class="st0" d="M492,38.5c0-4.4,0-8,0-11.7c0.1-7.7,2.5-9.8,10.1-8.8c1.8,0.2,3.4,1,5.6,1.7c0.4,3,1.2,5.9,1.2,8.9    c0.1,20,0,40,0.1,60c0,9.8-4.1,16.9-13.1,21.1c-6.8,3.2-13.9,5.4-21.6,5.5c-9.3,0.1-18.6,0.7-27.9,0.7c-6.6,0-13.3-0.3-19.9-1    c-6.1-0.7-12-2.6-17.3-6c-5.4-3.4-8.1-8.4-8.2-14.6c-0.2-10.2-0.2-20.3,0-30.5c0.2-9.9,6.1-17.5,15.7-21c7.8-2.8,15.9-3.7,24-3.8    c14.8-0.2,29.6-0.1,44.5-0.1C487.1,39,489.1,38.7,492,38.5z M491.4,54.5c-1.8-0.2-3.3-0.5-4.7-0.5c-17.8,0-35.7-0.1-53.5,0.1    c-3.1,0-6.2,1-9.2,1.9c-3.8,1.1-5.9,3.9-6,7.8c-0.1,9.2-0.2,18.3,0,27.5c0.1,5.1,3.1,8.4,8,9.5c2.9,0.7,5.9,1.1,8.9,1.1    c11.7,0.1,23.3,0.3,35-0.1c4.9-0.2,9.9-1.3,14.6-2.6c5.1-1.4,7.2-4.8,7.3-10.1c0.1-10.2,0-20.3,0-30.5    C491.9,57.5,491.7,56.3,491.4,54.5z"></path>
		<path class="st1" d="M575.1,39c7.3,0,14.7-0.3,22,0.1c7.4,0.3,14.4,2.2,20.5,6.9c5.1,3.9,7.6,9,7.5,15.5    c-0.1,10.2-0.4,20.3,0.1,30.5c0.4,8.9-4,14.5-11.1,18.5c-5.4,3-11.2,4.8-17.6,4.7c-6.6,0-13.3,0.8-19.9,0.7    c-9.5-0.1-19-0.2-28.4-1c-7-0.6-13.7-3.1-19.5-7c-5.8-3.9-8.4-9.9-8.5-16.7c-0.2-8.8-0.2-17.7,0-26.5c0.3-10.4,6-17.4,15.2-21.5    c7-3.1,14.5-4.6,22.3-4.3C563.4,39.1,569.3,39,575.1,39C575.1,39,575.1,39,575.1,39z M538.3,59.9c-0.4,1.8-1.1,3.4-1.1,5    c-0.1,8.3-0.3,16.6,0,24.9c0.2,4.7,2.7,8.3,7.5,9.4c5.1,1.2,10.4,2.2,15.6,2.5c7.5,0.4,15,0.2,22.4,0.1c4.5-0.1,9-0.1,13.4-1.1    c8.7-1.8,12.7-3.6,12.7-14.6c0-6.2,0.1-12.3,0-18.5c0-2.1-0.5-4.3-0.8-6.4c-0.3-2.8-2.2-4.8-4.4-5.6c-3.3-1.3-7-2.5-10.5-2.5    c-12.6-0.3-25.3-0.2-37.9,0C549,53.2,543.1,54.9,538.3,59.9z"></path>
		<path class="st0" d="M218.4,115.1c-7.8,0-15.6,0.2-23.5-0.1c-7.6-0.2-14.7-2.4-21.2-6.5c-6-3.8-8.8-9.4-8.9-16.3    c-0.1-9.3,0.2-18.6-0.1-28c-0.2-9.2,4.3-15.5,12-19.6c6.8-3.7,14.2-5.6,22-5.6c13.3,0,26.6-0.2,39.9,0.1    c8.4,0.2,16.5,1.8,23.4,7.3c4.2,3.3,6.7,7.6,6.8,12.8c0.3,12.1,0.3,24.3,0,36.4c-0.1,6.6-4.4,11-9.7,14.2    c-5.5,3.3-11.4,5.4-17.9,5.4C233.7,115.1,226.1,115.1,218.4,115.1C218.4,115.1,218.4,115.1,218.4,115.1z M217.5,102.3    c0-0.1,0-0.3,0-0.4c4.8,0,9.7-0.1,14.5,0c4.9,0.1,9.6-1.1,14.1-2.9c4.5-1.7,6.9-4.9,6.8-9.9c-0.1-8.1,0-16.3,0-24.5    c-0.1-5.5-2.6-8.9-7.7-10.3c-3-0.8-6.2-1.3-9.3-1.4c-11.8-0.1-23.6-0.2-35.4,0.1c-3.7,0.1-7.6,1-11.2,2.1    c-5.7,1.9-7.9,5.3-7.9,11.3c-0.1,6.7,0,13.3,0,20c0.1,8.9,2,11.5,10.5,13.8c1,0.3,1.9,0.6,2.9,0.6    C202.2,101.4,209.9,101.8,217.5,102.3z"></path>
		<path class="st0" d="M387.2,83.5c0,8.2,0,16.3,0,24.5c0,6-2.8,8.4-8.8,7.7c-6.2-0.6-7.4-2-7.4-8.2c0-13.7,0-27.3,0-41    c0-1.7,0-3.3-0.3-5c-0.7-4.2-2.9-7.1-7.3-7.7c-2.3-0.3-4.6-0.9-6.9-0.9c-14.2-0.1-28.3-0.1-42.5,0c-2.6,0-5.3,0.4-7.9,1    c-5.2,1.2-6.9,3.5-7,8.8c-0.1,13,0,26,0,39c0,2.7,0,5.3,0,8c0,2.9-1.4,5.1-4.2,5.3c-3.1,0.3-6.3,0.1-9.2-0.7    c-1.2-0.3-2.4-2.7-2.7-4.3c-0.5-2.2-0.1-4.6-0.1-7c0-13.7,0.3-27.3-0.1-41c-0.3-10.5,5-16.8,13.9-20.1c5.5-2.1,11.2-3.2,17.1-3.2    c14.3,0,28.7-0.1,43,0c7.2,0.1,14.2,1.4,20.7,5c6.3,3.5,10,8.5,9.9,16C387.1,67.9,387.2,75.7,387.2,83.5z"></path>
		<path class="st0" d="M646.7,54.3c-2.1-0.2-3.9-0.3-5.7-0.6c-4.7-0.8-6-2.2-6.1-6.9c-0.1-5.1,1.1-6.7,5.9-7.6    c1.8-0.3,3.6-0.4,5.9-0.7c0.1-1.8,0.3-3.6,0.3-5.4c0.1-1.8,0-3.7,0-5.5c0.1-3.3-0.9-7.2,2.9-8.9c4-1.8,8.4-1.6,12.2,0.7    c3.1,6,1.1,12.4,2.3,19c1.7,0.1,3.4,0.3,5.2,0.4c6.3,0.1,12.7-0.1,19,0.1c5.8,0.1,7.7,2.4,7.5,8.1c-0.1,4.4-1.1,5.6-5.6,6    c-6.6,0.5-13.3,0.6-19.9,0.8c-2,0.1-3.9,0-6.3,0c-0.2,2.6-0.4,4.5-0.4,6.4c0,14.7,0,29.3-0.1,44c0,3-0.5,5.9-0.8,8.5    c-4.9,3.5-6.6,3.7-14,1.6c-2.2-2-2.1-4.7-2.1-7.4c0-15.5,0-31,0-46.4C647,58.5,646.8,56.6,646.7,54.3z"></path>
		<path class="st1" d="M122,22c8.3,0,15.1,7,14.7,15.6c-0.4,8.1-6.2,14.2-15.5,14.3c-8,0.1-14.3-6.4-14.3-14.8    C106.9,28.5,113.4,21.9,122,22z"></path>
		<path class="st2" d="M105.1,36.7c0.7,9.6-7.7,15.2-14.4,15.2c-8.3,0-14.8-6.8-14.8-15c0-8.3,6.2-14.7,14.3-14.9    C97.8,21.9,105.7,27.9,105.1,36.7z"></path>
		<path class="st2" d="M121.9,53.8c7.3-0.4,14.4,4.7,14.5,14.4c0.1,8.4-6.1,15-14.7,14.8c-8.4-0.1-14.5-6.4-14.8-14.8    C106.6,61.6,113.7,52.6,121.9,53.8z"></path>
		<path class="st2" d="M90.7,53.9c8.7-0.8,14.6,7.5,14.6,14.7c0,7.8-6.6,14.8-15,14.5C82.3,82.8,76,76.6,76,68.5    C76,60.1,82.3,53.8,90.7,53.9z"></path>
		<path class="st3" d="M90.8,85c8.2,0.1,14.4,6.5,14.2,14.8c-0.1,8.1-6.5,14.2-14.8,14.1c-7.7-0.1-14.1-6.5-14.1-14    C76.1,91.2,82.3,84.9,90.8,85z"></path>
		<path class="st3" d="M74,99.4c0,8-6.2,14.7-13.9,14.5c-9-0.2-15-6.1-15-14.6C45.1,91.2,51.7,85,60,85C67.8,85,74,91.4,74,99.4z"></path>
		<path class="st3" d="M121.6,113.9c-7.9,0.6-14.4-7.4-14.5-14.2c-0.1-8.4,6.1-14.7,14.3-14.8c8.4-0.1,14.7,6.3,14.6,14.9    C136,107.7,129.6,113.9,121.6,113.9z"></path>
		<path class="st3" d="M59.2,51c-8.8,0.8-14.1-7.8-14.1-14.2c0-7.2,7.3-14.8,13.8-14.5c8.8,0.3,15,6.3,15.1,14.5    C74.2,45.4,67.2,51.9,59.2,51z"></path>
		<path class="st3" d="M60.3,54c7.4,0.1,13.7,6.7,13.7,14.2c-0.1,8.6-6.5,15-14.8,14.7c-7.7-0.2-14.2-7.2-14.1-15.1    C45.2,60,52,53.8,60.3,54z"></path>
		<path class="st4" d="M42,99.4c0,8-6.2,14.7-13.9,14.5c-9-0.2-15-6.1-15-14.6C13.1,91.2,19.7,85,28,85C35.8,85,42,91.4,42,99.4z"></path>
		<path class="st4" d="M27.2,51c-8.8,0.8-14.1-7.8-14.1-14.2c0-7.2,7.3-14.8,13.8-14.5c8.8,0.3,15,6.3,15.1,14.5    C42.2,45.4,35.2,51.9,27.2,51z"></path>
		<path class="st4" d="M28.3,54c7.4,0.1,13.7,6.7,13.7,14.2c-0.1,8.6-6.5,15-14.8,14.7c-7.7-0.2-14.2-7.2-14.1-15.1    C13.2,60,20,53.8,28.3,54z"></path>
	</g>
</g>
</svg>
