<?xml version="1.0" encoding="UTF-8"?>
<svg xmlns="http://www.w3.org/2000/svg" xmlns:xlink="http://www.w3.org/1999/xlink" width="141px" height="39px" viewBox="0 0 141 39">
  <!-- Generator: Sketch 50.2 (55047) - http://www.bohemiancoding.com/sketch -->
  <title>ornl logo</title>
  <desc>Created with Sketch.</desc>
  <defs></defs>
  <g id="Design" stroke="none" stroke-width="1" fill="none" fill-rule="evenodd">
    <g id="dropdown_menu" transform="translate(-1170.000000, -937.000000)">
      <g id="Group-8" transform="translate(518.000000, 937.000000)">
        <g id="ornl-logo" transform="translate(652.375986, 0.000000)">
          <path d="M45.4854737,8.32908224 L47.9297873,8.32908224 L47.9297873,2.88293965 L45.4854737,2.88293965 L45.4854737,8.32908224 Z M49.2161418,11.0368156 C48.8747539,11.1494904 48.5165665,11.2132017 48.0929815,11.2132017 L45.3228794,11.2132017 C44.8992944,11.2132017 44.541107,11.1494904 44.2147186,11.0368156 C43.7911336,10.8928751 43.4497456,10.6521877 43.1719554,10.332451 C42.7645698,9.83573824 42.5533773,9.17856722 42.5533773,8.32967216 L42.5533773,2.88293965 C42.5533773,2.03463451 42.7645698,1.37805341 43.1719554,0.880750746 C43.4497456,0.560424118 43.7911336,0.320326628 44.2147186,0.176386117 C44.541107,0.0643012936 44.8992944,0 45.3228794,0 L48.0929815,0 C48.5165665,0 48.8747539,0.0643012936 49.2161418,0.176386117 C49.6235274,0.320326628 49.9661153,0.560424118 50.2427055,0.880750746 C50.6662905,1.37805341 50.8618836,2.03463451 50.8618836,2.88293965 L50.8618836,8.32967216 C50.8618836,9.17856722 50.6662905,9.83573824 50.2427055,10.332451 C49.9661153,10.6521877 49.6235274,10.8928751 49.2161418,11.0368156 Z" id="Fill-56" fill="#6C6C6C"></path>
          <path d="M55.3060838,5.76646922 L57.2614147,5.76646922 L57.2614147,2.88293965 L55.3060838,2.88293965 L55.3060838,5.76646922 Z M60.3405058,11.2132017 L57.0334227,11.2132017 L55.3390826,8.00934553 L55.3060838,8.00934553 L55.3060838,11.2132017 L52.3733875,11.2132017 L52.3733875,0 L57.4246089,0 C57.8481939,0 58.2057813,0.0643012936 58.5321698,0.176386117 C58.9563548,0.320326628 59.2977427,0.560424118 59.5587335,0.880750746 C59.9823185,1.37805341 60.194111,2.03463451 60.194111,2.88293965 L60.194111,5.12581596 C60.194111,5.97471102 59.9823185,6.63188204 59.5587335,7.12859479 C59.2977427,7.44892141 58.9563548,7.68901891 58.5489692,7.83354934 L60.3405058,11.2132017 Z" id="Fill-58" fill="#6C6C6C"></path>
          <polygon id="Fill-59" fill="#6C6C6C" points="65.1260939 11.2132017 62.1933976 11.2132017 62.1933976 0 64.8333043 0 67.3262162 5.12581596 67.3262162 0 70.2589125 0 70.2589125 11.2132017 67.6184058 11.2132017 65.1260939 6.08738577"></polygon>
          <polygon id="Fill-60" fill="#6C6C6C" points="74.9461041 8.32967216 78.2051889 8.32967216 78.2051889 11.2132017 72.0134078 11.2132017 72.0134078 0 74.9461041 0"></polygon>
          <polygon id="Fill-61" fill="#6C6C6C" points="45.4860736 25.1020906 42.5533773 25.1020906 42.5533773 13.8888889 49.5593297 13.8888889 49.5593297 16.7724185 45.4860736 16.7724185 45.4860736 19.0147049 49.2329412 19.0147049 49.2329412 21.5779078 45.4860736 21.5779078"></polygon>
          <polygon id="Fill-62" fill="#6C6C6C" points="57.6610743 25.1020906 50.7367191 25.1020906 50.7367191 13.8888889 57.6610743 13.8888889 57.6610743 16.7724185 53.6694154 16.7724185 53.6694154 18.3746415 57.3358858 18.3746415 57.3358858 20.6169279 53.6694154 20.6169279 53.6694154 22.218561 57.6610743 22.218561"></polygon>
          <path d="M62.6704914,22.218561 L64.6258223,22.218561 L64.6258223,16.7724185 L62.6704914,16.7724185 L62.6704914,22.218561 Z M65.8965774,24.9257045 C65.5707889,25.0377893 65.2120016,25.1020906 64.7890165,25.1020906 L59.7383951,25.1020906 L59.7383951,13.8888889 L64.7890165,13.8888889 C65.2120016,13.8888889 65.5707889,13.9531902 65.8965774,14.065275 C66.3207624,14.2092155 66.6621503,14.4499029 66.9393405,14.7702296 C67.3467261,15.2663524 67.5585186,15.9235234 67.5585186,16.7724185 L67.5585186,22.3630915 C67.5585186,23.1476852 67.3305267,23.7564828 66.9393405,24.2213399 C66.6621503,24.5410766 66.3207624,24.781764 65.8965774,24.9257045 Z" id="Fill-63" fill="#6C6C6C"></path>
          <polygon id="Fill-64" fill="#6C6C6C" points="76.4827605 25.1020906 69.5584052 25.1020906 69.5584052 13.8888889 76.4827605 13.8888889 76.4827605 16.7724185 72.4911016 16.7724185 72.4911016 18.3746415 76.1575719 18.3746415 76.1575719 20.6169279 72.4911016 20.6169279 72.4911016 22.218561 76.4827605 22.218561"></polygon>
          <path d="M80.6744433,19.655948 L82.6297742,19.655948 L82.6297742,16.7724185 L80.6744433,16.7724185 L80.6744433,19.655948 Z M85.7088654,25.1020906 L82.4011823,25.1020906 L80.7068422,21.8982344 L80.6744433,21.8982344 L80.6744433,25.1020906 L77.741747,25.1020906 L77.741747,13.8888889 L82.7923685,13.8888889 C83.2159535,13.8888889 83.5741408,13.9531902 83.9005293,14.065275 C84.3241143,14.2092155 84.6661022,14.4499029 84.927093,14.7702296 C85.3500781,15.2663524 85.5624706,15.9235234 85.5624706,16.7724185 L85.5624706,19.0147049 C85.5624706,19.8635999 85.3500781,20.5207709 84.927093,21.0174837 C84.6661022,21.3378103 84.3241143,21.5779078 83.9167287,21.7218483 L85.7088654,25.1020906 Z" id="Fill-65" fill="#6C6C6C"></path>
          <path d="M91.4388201,21.0971229 L93.0029648,21.0971229 L92.2205925,17.4927109 L91.4388201,21.0971229 Z M90.5586512,25.1020906 L87.5617572,25.1020906 L90.6078495,13.8888889 L93.8339354,13.8888889 L96.8800278,25.1020906 L93.8657343,25.1020906 L93.4913476,23.3394093 L90.9498374,23.3394093 L90.5586512,25.1020906 Z" id="Fill-66" fill="#6C6C6C"></path>
          <polygon id="Fill-67" fill="#6C6C6C" points="101.132798 22.219151 104.391883 22.219151 104.391883 25.1026805 98.2001015 25.1026805 98.2001015 13.8888889 101.132798 13.8888889"></polygon>
          <path d="M43.1725554,38.1102288 C42.7483704,37.613516 42.5533773,36.9569349 42.5533773,36.1074499 L42.5533773,30.6613073 C42.5533773,29.8130022 42.7483704,29.1558312 43.1725554,28.6591184 C43.4497456,28.3387918 43.7917335,28.0981044 44.1985192,27.9541639 C44.541707,27.8420791 44.8998944,27.7777778 45.3228794,27.7777778 L49.4777325,27.7777778 L49.4777325,30.6613073 L45.4860736,30.6613073 L45.4860736,36.1074499 L49.4777325,36.1074499 L49.4777325,38.9909795 L45.3228794,38.9909795 C44.8998944,38.9909795 44.541707,38.9272681 44.1985192,38.8151833 C43.7917335,38.6706529 43.4497456,38.4299655 43.1725554,38.1102288" id="Fill-68" fill="#6C6C6C"></path>
          <path d="M53.6688155,33.5448369 L55.6241463,33.5448369 L55.6241463,30.6613073 L53.6688155,30.6613073 L53.6688155,33.5448369 Z M58.7032375,38.9909795 L55.3961544,38.9909795 L53.7012143,35.7871233 L53.6688155,35.7871233 L53.6688155,38.9909795 L50.7367191,38.9909795 L50.7367191,27.7777778 L55.7867406,27.7777778 C56.2109256,27.7777778 56.5691129,27.8420791 56.8949014,27.9541639 C57.3184864,28.0981044 57.6604744,28.3387918 57.9214651,28.6585285 C58.3450502,29.1552413 58.5568427,29.8124123 58.5568427,30.6613073 L58.5568427,32.9035937 C58.5568427,33.7524888 58.3450502,34.4096598 57.9214651,34.9057826 C57.6604744,35.2266992 57.3184864,35.4667967 56.9117008,35.6107372 L58.7032375,38.9909795 Z" id="Fill-69" fill="#6C6C6C"></path>
          <polygon id="Fill-70" fill="#6C6C6C" points="67.4810845 38.9909795 60.5567292 38.9909795 60.5567292 27.7777778 67.4810845 27.7777778 67.4810845 30.6613073 63.4894256 30.6613073 63.4894256 32.2635304 67.155896 32.2635304 67.155896 34.5058168 63.4894256 34.5058168 63.4894256 36.1074499 67.4810845 36.1074499"></polygon>
          <path d="M72.4911016,36.1074499 L74.4464324,36.1074499 L74.4464324,30.6613073 L72.4911016,30.6613073 L72.4911016,36.1074499 Z M75.7177875,38.8145934 C75.391399,38.9266782 75.0326117,38.9909795 74.6096267,38.9909795 L69.5584052,38.9909795 L69.5584052,27.7777778 L74.6096267,27.7777778 C75.0326117,27.7777778 75.391399,27.8420791 75.7177875,27.9541639 C76.1413725,28.0981044 76.4827605,28.3387918 76.7599507,28.6585285 C77.1673363,29.1552413 77.3797287,29.8124123 77.3797287,30.6613073 L77.3797287,36.2519804 C77.3797287,37.0365741 77.1511368,37.6453717 76.7599507,38.1096388 C76.4827605,38.4299655 76.1413725,38.6706529 75.7177875,38.8145934 Z" id="Fill-71" fill="#6C6C6C"></path>
          <polygon id="Fill-72" fill="#6C6C6C" points="79.3784154 38.9909795 82.3111117 38.9909795 82.3111117 27.7777778 79.3784154 27.7777778"></polygon>
          <polygon id="Fill-73" fill="#6C6C6C" points="91.2908098 27.7777778 91.2908098 30.6613073 88.8470962 30.6613073 88.8470962 38.9909795 85.9149998 38.9909795 85.9149998 30.6613073 83.4700863 30.6613073 83.4700863 27.7777778"></polygon>
          <path d="M101.940443,27.7777778 L104.871939,27.7777778 L104.871939,36.1074499 C104.871939,36.9569349 104.660147,37.6129261 104.252761,38.1102288 C103.976771,38.4299655 103.634183,38.6706529 103.226798,38.8145934 C102.88481,38.9266782 102.526622,38.9909795 102.103037,38.9909795 L99.3335352,38.9909795 C98.9093502,38.9909795 98.5517628,38.9266782 98.208575,38.8145934 C97.8017893,38.6706529 97.4598014,38.4299655 97.1826112,38.1102288 C96.7752256,37.6129261 96.5634331,36.9569349 96.5634331,36.1074499 L96.5634331,27.7777778 L99.4961295,27.7777778 L99.4961295,36.1074499 L101.940443,36.1074499 L101.940443,27.7777778 Z" id="Fill-74" fill="#6C6C6C"></path>
          <polygon id="Fill-75" fill="#6C6C6C" points="110.134474 38.9909795 107.201777 38.9909795 107.201777 27.7777778 109.841684 27.7777778 112.334596 32.9035937 112.334596 27.7777778 115.267292 27.7777778 115.267292 38.9909795 112.626786 38.9909795 110.134474 33.8651635"></polygon>
          <polygon id="Fill-76" fill="#6C6C6C" points="117.021788 38.9909795 119.954484 38.9909795 119.954484 27.7777778 117.021788 27.7777778"></polygon>
          <path d="M124.863889,36.1080399 L127.308203,36.1080399 L127.308203,30.6613073 L124.863889,30.6613073 L124.863889,36.1080399 Z M128.595157,38.8151833 C128.253169,38.9272681 127.894982,38.9915694 127.470797,38.9915694 L124.701295,38.9915694 C124.27771,38.9915694 123.919522,38.9272681 123.593134,38.8151833 C123.169549,38.6706529 122.827561,38.4305554 122.550371,38.1102288 C122.143585,37.613516 121.931793,36.9569349 121.931793,36.1074499 L121.931793,30.6613073 C121.931793,29.8124123 122.143585,29.1558312 122.550371,28.6591184 C122.827561,28.3387918 123.169549,28.0986943 123.593134,27.9547538 C123.919522,27.8420791 124.27771,27.7777778 124.701295,27.7777778 L127.470797,27.7777778 C127.894982,27.7777778 128.253169,27.8420791 128.595157,27.9547538 C129.001943,28.0986943 129.345131,28.3387918 129.621121,28.6591184 C130.044706,29.1558312 130.240299,29.8124123 130.240299,30.6613073 L130.240299,36.1074499 C130.240299,36.9569349 130.044706,37.613516 129.621121,38.1102288 C129.345131,38.4305554 129.001943,38.6706529 128.595157,38.8151833 Z" id="Fill-77" fill="#6C6C6C"></path>
          <polygon id="Fill-78" fill="#6C6C6C" points="134.684499 38.9909795 131.751803 38.9909795 131.751803 27.7777778 134.39171 27.7777778 136.884621 32.9035937 136.884621 27.7777778 139.816718 27.7777778 139.816718 38.9909795 137.176811 38.9909795 134.684499 33.8651635"></polygon>
          <polygon id="Fill-79" fill="#006EB6" points="39.0166209 38.3389089 0 38.3389089 0 0 11.0396098 0 11.0396098 27.4655012 28.0142098 27.4655012 28.0142098 0 39.0166209 0"></polygon>
          <path d="M13.3531746,3.06345521 L14.2525428,3.06345521 L14.2525428,1.06008646 L13.3531746,1.06008646 L13.3531746,3.06345521 Z M14.7253261,4.05924038 C14.5993305,4.09994487 14.4679352,4.12354167 14.3119407,4.12354167 L13.2931767,4.12354167 C13.1371822,4.12354167 13.0057869,4.09994487 12.8857911,4.05924038 C12.7303966,4.00614757 12.604401,3.91706963 12.5030046,3.79967552 C12.3524099,3.61680028 12.2750127,3.37552295 12.2750127,3.06345521 L12.2750127,1.06008646 C12.2750127,0.748608638 12.3524099,0.506741387 12.5030046,0.323866148 C12.604401,0.206472044 12.7303966,0.117394105 12.8857911,0.0648912137 C13.0057869,0.023596805 13.1371822,0 13.2931767,0 L14.3119407,0 C14.4679352,0 14.5993305,0.023596805 14.7253261,0.0648912137 C14.8753208,0.117394105 15.0007163,0.206472044 15.1027127,0.323866148 C15.2587072,0.506741387 15.3301047,0.748608638 15.3301047,1.06008646 L15.3301047,3.06345521 C15.3301047,3.37552295 15.2587072,3.61680028 15.1027127,3.79967552 C15.0007163,3.91706963 14.8753208,4.00614757 14.7253261,4.05924038 Z" id="Fill-80" fill="#006EB6"></path>
          <path d="M17.4442455,2.12076285 L18.1630201,2.12076285 L18.1630201,1.06008646 L17.4442455,1.06008646 L17.4442455,2.12076285 Z M19.29638,4.12354167 L18.080223,4.12354167 L17.4562451,2.94547118 L17.4448455,2.94547118 L17.4448455,4.12354167 L16.3666836,4.12354167 L16.3666836,0 L18.223018,0 C18.3790124,0 18.5116078,0.023596805 18.6316035,0.0648912137 C18.786998,0.117394105 18.9129936,0.206472044 19.0083902,0.323866148 C19.1643847,0.506741387 19.2423819,0.748608638 19.2423819,1.06008646 L19.2423819,1.88538472 C19.2423819,2.19686254 19.1643847,2.4387298 19.0083902,2.62101511 C18.9129936,2.73958906 18.786998,2.82748716 18.6376033,2.88116989 L19.29638,4.12354167 Z" id="Fill-81" fill="#006EB6"></path>
          <polygon id="Fill-82" fill="#006EB6" points="20.7175822 4.12354167 19.6400203 4.12354167 19.6400203 0 20.609586 0 21.5269536 1.88538472 21.5269536 0 22.6051155 0 22.6051155 4.12354167 21.6337498 4.12354167 20.7175822 2.23815695"></polygon>
          <polygon id="Fill-83" fill="#006EB6" points="24.8092531 3.06345521 26.0074107 3.06345521 26.0074107 4.12354167 23.7316912 4.12354167 23.7316912 0 24.8092531 0"></polygon>
          <polygon id="Fill-84" fill="#006EB6" points="26.1333228 15.1098927 26.1411225 5.71895425 12.2750127 5.71895425 12.2750127 26.0304941 26.1411225 26.0304941 26.1411225 16.6395556 19.0499732 16.6395556 19.0499732 15.1098927"></polygon>
        </g>
      </g>
    </g>
  </g>
</svg>
