<?xml version="1.0" encoding="UTF-8"?>
<svg xmlns="http://www.w3.org/2000/svg" xmlns:xlink="http://www.w3.org/1999/xlink" width="220px" height="62px" viewBox="0 0 220 62">
  <!-- Generator: Sketch 50.2 (55047) - http://www.bohemiancoding.com/sketch -->
  <title>ornl-logo_grey</title>
  <desc>Created with Sketch.</desc>
  <defs></defs>
  <g id="Design" stroke="none" stroke-width="1" fill="none" fill-rule="evenodd">
    <g id="home" transform="translate(-1109.000000, -942.000000)" fill="#BFBFBF" fill-rule="nonzero">
      <g id="ornl-logo_grey" transform="translate(1109.000000, 942.000000)">
        <path d="M71.9500572,13.2411051 L75.7848349,13.2411051 L75.7848349,4.58313483 L71.9500572,4.58313483 L71.9500572,13.2411051 Z M77.8029407,17.5457069 C77.2673521,17.7248309 76.7054074,17.8261155 76.0408632,17.8261155 L71.69497,17.8261155 C71.0304259,17.8261155 70.4684812,17.7248309 69.9564246,17.5457069 C69.2918804,17.3168784 68.7562916,16.9342471 68.3204786,16.4259477 C67.6813489,15.6363018 67.3500182,14.5915684 67.3500182,13.2420429 L67.3500182,4.58313483 C67.3500182,3.23454717 67.6813489,2.19075157 68.3204786,1.40016785 C68.7562916,0.890930649 69.2918804,0.509237203 69.9564246,0.280408699 C70.4684812,0.102222569 71.0304259,0 71.69497,0 L76.0408632,0 C76.7054074,0 77.2673521,0.102222569 77.8029407,0.280408699 C78.4420704,0.509237203 78.9795417,0.890930649 79.4134721,1.40016785 C80.0780162,2.19075157 80.3848737,3.23454717 80.3848737,4.58313483 L80.3848737,13.2420429 C80.3848737,14.5915684 80.0780162,15.6363018 79.4134721,16.4259477 C78.9795417,16.9342471 78.4420704,17.3168784 77.8029407,17.5457069 Z" id="Fill-56"></path>
        <path d="M87.3571869,9.16720748 L90.4248208,9.16720748 L90.4248208,4.58313483 L87.3571869,4.58313483 L87.3571869,9.16720748 Z M95.2554735,17.8261155 L90.0671341,17.8261155 L87.4089573,12.7328057 L87.3571869,12.7328057 L87.3571869,17.8261155 L82.7562067,17.8261155 L82.7562067,0 L90.6808491,0 C91.3453933,0 91.9063967,0.102222569 92.4184535,0.280408699 C93.0839389,0.509237203 93.6195276,0.890930649 94.0289848,1.40016785 C94.6935289,2.19075157 95.025801,3.23454717 95.025801,4.58313483 L95.025801,8.14873306 C95.025801,9.49825854 94.6935289,10.542992 94.0289848,11.3326379 C93.6195276,11.8418751 93.0839389,12.2235685 92.4448093,12.4533348 L95.2554735,17.8261155 Z" id="Fill-58"></path>
        <polygon id="Fill-59" points="102.763375 17.8261155 98.1623951 17.8261155 98.1623951 0 102.30403 0 106.215052 8.14873306 106.215052 0 110.816032 0 110.816032 17.8261155 106.673455 17.8261155 102.763375 9.67738251"></polygon>
        <polygon id="Fill-60" points="118.169564 13.2420429 123.282601 13.2420429 123.282601 17.8261155 113.568584 17.8261155 113.568584 0 118.169564 0"></polygon>
        <polygon id="Fill-61" points="71.9509983 39.9058876 67.3500182 39.9058876 67.3500182 22.0797721 78.3413534 22.0797721 78.3413534 26.6638448 71.9509983 26.6638448 71.9509983 30.2285052 77.8292966 30.2285052 77.8292966 34.3033406 71.9509983 34.3033406"></polygon>
        <polygon id="Fill-62" points="91.0518295 39.9058876 80.1885086 39.9058876 80.1885086 22.0797721 91.0518295 22.0797721 91.0518295 26.6638448 84.7894888 26.6638448 84.7894888 29.2109685 90.5416553 29.2109685 90.5416553 32.775629 84.7894888 32.775629 84.7894888 35.3218149 91.0518295 35.3218149"></polygon>
        <path d="M98.9108869,35.3218149 L101.978521,35.3218149 L101.978521,26.6638448 L98.9108869,26.6638448 L98.9108869,35.3218149 Z M103.972153,39.6254789 C103.461038,39.803665 102.898152,39.9058876 102.234549,39.9058876 L94.3108481,39.9058876 L94.3108481,22.0797721 L102.234549,22.0797721 C102.898152,22.0797721 103.461038,22.1819947 103.972153,22.3601808 C104.637639,22.5890093 105.173228,22.9716405 105.608099,23.4808778 C106.247229,24.2695859 106.579501,25.3143193 106.579501,26.6638448 L106.579501,35.5515814 C106.579501,36.7988842 106.221814,37.7667162 105.608099,38.5057198 C105.173228,39.0140192 104.637639,39.3966505 103.972153,39.6254789 Z" id="Fill-63"></path>
        <polygon id="Fill-64" points="120.580357 39.9058876 109.717036 39.9058876 109.717036 22.0797721 120.580357 22.0797721 120.580357 26.6638448 114.318017 26.6638448 114.318017 29.2109685 120.070183 29.2109685 120.070183 32.775629 114.318017 32.775629 114.318017 35.3218149 120.580357 35.3218149"></polygon>
        <path d="M127.156507,31.2479173 L130.224141,31.2479173 L130.224141,26.6638448 L127.156507,26.6638448 L127.156507,31.2479173 Z M135.054794,39.9058876 L129.865513,39.9058876 L127.207336,34.8125778 L127.156507,34.8125778 L127.156507,39.9058876 L122.555527,39.9058876 L122.555527,22.0797721 L130.479228,22.0797721 C131.143772,22.0797721 131.705717,22.1819947 132.217774,22.3601808 C132.882318,22.5890093 133.418848,22.9716405 133.828305,23.4808778 C134.491908,24.2695859 134.825121,25.3143193 134.825121,26.6638448 L134.825121,30.2285052 C134.825121,31.5780306 134.491908,32.622764 133.828305,33.41241 C133.418848,33.9216471 132.882318,34.3033406 132.243188,34.5321691 L135.054794,39.9058876 Z" id="Fill-65"></path>
        <path d="M144.044271,33.5390159 L146.49819,33.5390159 L145.27076,27.808925 L144.044271,33.5390159 Z M142.663413,39.9058876 L137.961715,39.9058876 L142.740598,22.0797721 L147.801864,22.0797721 L152.580746,39.9058876 L147.851752,39.9058876 L147.264393,37.1036763 L143.277128,37.1036763 L142.663413,39.9058876 Z" id="Fill-66"></path>
        <polygon id="Fill-67" points="159.252733 35.3227529 164.365771 35.3227529 164.365771 39.9068254 154.651753 39.9068254 154.651753 22.0797721 159.252733 22.0797721"></polygon>
        <path d="M68.3214199,60.5854919 C67.6559344,59.7958459 67.3500182,58.7520504 67.3500182,57.401587 L67.3500182,48.7436167 C67.3500182,47.3950291 67.6559344,46.3502958 68.3214199,45.5606498 C68.7562916,45.0514126 69.2928216,44.6687814 69.93101,44.4399529 C70.4694225,44.2617668 71.0313672,44.1595442 71.69497,44.1595442 L78.2133391,44.1595442 L78.2133391,48.7436167 L71.9509983,48.7436167 L71.9509983,57.401587 L78.2133391,57.401587 L78.2133391,61.9856597 L71.69497,61.9856597 C71.0313672,61.9856597 70.4694225,61.8843749 69.93101,61.7061888 C69.2928216,61.4764226 68.7562916,61.0937913 68.3214199,60.5854919" id="Fill-68"></path>
        <path d="M84.7885476,53.3276894 L87.8561814,53.3276894 L87.8561814,48.7436167 L84.7885476,48.7436167 L84.7885476,53.3276894 Z M92.6868342,61.9856597 L87.4984948,61.9856597 L84.8393767,56.8923499 L84.7885476,56.8923499 L84.7885476,61.9856597 L80.1885086,61.9856597 L80.1885086,44.1595442 L88.1112685,44.1595442 C88.776754,44.1595442 89.3386985,44.2617668 89.849814,44.4399529 C90.5143581,44.6687814 91.0508883,45.0514126 91.4603453,45.559712 C92.1248896,46.349358 92.4571617,47.3940913 92.4571617,48.7436167 L92.4571617,52.3082772 C92.4571617,53.6578027 92.1248896,54.7025361 91.4603453,55.4912441 C91.0508883,56.0014192 90.5143581,56.3831127 89.8761698,56.6119412 L92.6868342,61.9856597 Z" id="Fill-69"></path>
        <polygon id="Fill-70" points="106.458018 61.9856597 95.594697 61.9856597 95.594697 44.1595442 106.458018 44.1595442 106.458018 48.7436167 100.195677 48.7436167 100.195677 51.2907406 105.947844 51.2907406 105.947844 54.8554011 100.195677 54.8554011 100.195677 57.401587 106.458018 57.401587"></polygon>
        <path d="M114.318017,57.401587 L117.385651,57.401587 L117.385651,48.7436167 L114.318017,48.7436167 L114.318017,57.401587 Z M119.380224,61.705251 C118.868168,61.8834371 118.305282,61.9856597 117.641679,61.9856597 L109.717036,61.9856597 L109.717036,44.1595442 L117.641679,44.1595442 C118.305282,44.1595442 118.868168,44.2617668 119.380224,44.4399529 C120.044769,44.6687814 120.580357,45.0514126 121.015229,45.559712 C121.654359,46.349358 121.987572,47.3940913 121.987572,48.7436167 L121.987572,57.6313535 C121.987572,58.8786563 121.628944,59.8464883 121.015229,60.584554 C120.580357,61.0937913 120.044769,61.4764226 119.380224,61.705251 Z" id="Fill-71"></path>
        <polygon id="Fill-72" points="125.123225 61.9856597 129.724205 61.9856597 129.724205 44.1595442 125.123225 44.1595442"></polygon>
        <polygon id="Fill-73" points="143.812064 44.1595442 143.812064 48.7436167 139.978228 48.7436167 139.978228 61.9856597 135.378189 61.9856597 135.378189 48.7436167 131.54247 48.7436167 131.54247 44.1595442"></polygon>
        <path d="M160.519813,44.1595442 L165.11891,44.1595442 L165.11891,57.401587 C165.11891,58.7520504 164.786638,59.7949082 164.147508,60.5854919 C163.714519,61.0937913 163.177048,61.4764226 162.537919,61.705251 C162.001389,61.8834371 161.439443,61.9856597 160.774899,61.9856597 L156.429948,61.9856597 C155.764462,61.9856597 155.203459,61.8834371 154.665047,61.705251 C154.026858,61.4764226 153.490328,61.0937913 153.055456,60.5854919 C152.416327,59.7949082 152.084055,58.7520504 152.084055,57.401587 L152.084055,44.1595442 L156.685035,44.1595442 L156.685035,57.401587 L160.519813,57.401587 L160.519813,44.1595442 Z" id="Fill-74"></path>
        <polygon id="Fill-75" points="173.375073 61.9856597 168.774092 61.9856597 168.774092 44.1595442 172.915727 44.1595442 176.826749 52.3082772 176.826749 44.1595442 181.427729 44.1595442 181.427729 61.9856597 177.285153 61.9856597 173.375073 53.8369266"></polygon>
        <polygon id="Fill-76" points="184.180281 61.9856597 188.781261 61.9856597 188.781261 44.1595442 184.180281 44.1595442"></polygon>
        <path d="M196.483414,57.402525 L200.318192,57.402525 L200.318192,48.7436167 L196.483414,48.7436167 L196.483414,57.402525 Z M202.337239,61.7061888 C201.800708,61.8843749 201.238764,61.9865975 200.573279,61.9865975 L196.228327,61.9865975 C195.563783,61.9865975 195.001837,61.8843749 194.489781,61.7061888 C193.825237,61.4764226 193.288707,61.0947291 192.853836,60.5854919 C192.215647,59.7958459 191.883376,58.7520504 191.883376,57.401587 L191.883376,48.7436167 C191.883376,47.3940913 192.215647,46.3502958 192.853836,45.5606498 C193.288707,45.0514126 193.825237,44.6697191 194.489781,44.4408907 C195.001837,44.2617668 195.563783,44.1595442 196.228327,44.1595442 L200.573279,44.1595442 C201.238764,44.1595442 201.800708,44.2617668 202.337239,44.4408907 C202.975428,44.6697191 203.51384,45.0514126 203.946829,45.5606498 C204.611373,46.3502958 204.918231,47.3940913 204.918231,48.7436167 L204.918231,57.401587 C204.918231,58.7520504 204.611373,59.7958459 203.946829,60.5854919 C203.51384,61.0947291 202.975428,61.4764226 202.337239,61.7061888 Z" id="Fill-77"></path>
        <polygon id="Fill-78" points="211.890543 61.9856597 207.289564 61.9856597 207.289564 44.1595442 211.431199 44.1595442 215.34222 52.3082772 215.34222 44.1595442 219.942259 44.1595442 219.942259 61.9856597 215.800624 61.9856597 211.890543 53.8369266"></polygon>
        <polygon id="Fill-79" points="61.8013543 60.9490347 0.589868146 60.9490347 0.589868146 0 17.9094337 0 17.9094337 43.6631045 44.5401482 43.6631045 44.5401482 0 61.8013543 0"></polygon>
        <path d="M21.5390853,4.87010828 L22.9500651,4.87010828 L22.9500651,1.68526565 L21.5390853,1.68526565 L21.5390853,4.87010828 Z M23.6917943,6.45315137 C23.4941253,6.51786108 23.2879849,6.55537394 23.0432518,6.55537394 L21.4449571,6.55537394 C21.2002241,6.55537394 20.9940837,6.51786108 20.8058275,6.45315137 C20.5620358,6.36874742 20.3643668,6.22713633 20.2052904,6.0405098 C19.9690289,5.74978506 19.8476038,5.36621597 19.8476038,4.87010828 L19.8476038,1.68526565 C19.8476038,1.19009578 19.9690289,0.805588872 20.2052904,0.514864133 C20.3643668,0.328237608 20.5620358,0.186626526 20.8058275,0.103160391 C20.9940837,0.0375128695 21.2002241,0 21.4449571,0 L23.0432518,0 C23.2879849,0 23.4941253,0.0375128695 23.6917943,0.103160391 C23.9271145,0.186626526 24.123842,0.328237608 24.2838598,0.514864133 C24.5285928,0.805588872 24.6406052,1.19009578 24.6406052,1.68526565 L24.6406052,4.87010828 C24.6406052,5.36621597 24.5285928,5.74978506 24.2838598,6.0405098 C24.123842,6.22713633 23.9271145,6.36874742 23.6917943,6.45315137 Z" id="Fill-80"></path>
        <path d="M27.9573891,3.37146915 L29.0850435,3.37146915 L29.0850435,1.68526565 L27.9573891,1.68526565 L27.9573891,3.37146915 Z M30.8631227,6.55537394 L28.9551467,6.55537394 L27.9762148,4.68254393 L27.9583305,4.68254393 L27.9583305,6.55537394 L26.266849,6.55537394 L26.266849,0 L29.1791716,0 C29.4239044,0 29.6319276,0.0375128695 29.8201837,0.103160391 C30.0639754,0.186626526 30.2616444,0.328237608 30.411308,0.514864133 C30.656041,0.805588872 30.7784074,1.19009578 30.7784074,1.68526565 L30.7784074,2.99727827 C30.7784074,3.49244814 30.656041,3.87695507 30.411308,4.16674197 C30.2616444,4.35524415 30.0639754,4.49497959 29.8295965,4.58032136 L30.8631227,6.55537394 Z" id="Fill-81"></path>
        <polygon id="Fill-82" points="33.0927853 6.55537394 31.4022451 6.55537394 31.4022451 0 32.9233547 0 34.362573 2.99727827 34.362573 0 36.0540545 0 36.0540545 6.55537394 34.5301209 6.55537394 33.0927853 3.55809566"></polygon>
        <polygon id="Fill-83" points="39.5120305 4.87010828 41.391768 4.87010828 41.391768 6.55537394 37.8214903 6.55537394 37.8214903 0 39.5120305 0"></polygon>
        <polygon id="Fill-84" points="41.5893061 24.0208551 41.6015427 9.09167086 19.8476038 9.09167086 19.8476038 41.3818111 41.6015427 41.3818111 41.6015427 26.4526269 30.4765458 26.4526269 30.4765458 24.0208551"></polygon>
      </g>
    </g>
  </g>
</svg>
