<?xml version="1.0" encoding="UTF-8"?>
<svg xmlns="http://www.w3.org/2000/svg" xmlns:xlink="http://www.w3.org/1999/xlink" width="141px" height="39px" viewBox="0 0 141 39">
  <!-- Generator: Sketch 50.2 (55047) - http://www.bohemiancoding.com/sketch -->
  <title>ornl-logo_grey</title>
  <desc>Created with Sketch.</desc>
  <defs></defs>
  <g id="Design" stroke="none" stroke-width="1" fill="none" fill-rule="evenodd">
    <g id="Artboard" transform="translate(-1051.000000, -610.000000)" fill="#BFBFBF" fill-rule="nonzero">
      <g id="ornl-logo_grey" transform="translate(1051.000000, 610.000000)">
        <path d="M45.8614597,8.32908224 L48.3057733,8.32908224 L48.3057733,2.88293965 L45.8614597,2.88293965 L45.8614597,8.32908224 Z M49.5921278,11.0368156 C49.2507399,11.1494904 48.8925525,11.2132017 48.4689675,11.2132017 L45.6988654,11.2132017 C45.2752804,11.2132017 44.917093,11.1494904 44.5907046,11.0368156 C44.1671196,10.8928751 43.8257316,10.6521877 43.5479414,10.332451 C43.1405558,9.83573824 42.9293633,9.17856722 42.9293633,8.32967216 L42.9293633,2.88293965 C42.9293633,2.03463451 43.1405558,1.37805341 43.5479414,0.880750746 C43.8257316,0.560424118 44.1671196,0.320326628 44.5907046,0.176386117 C44.917093,0.0643012936 45.2752804,0 45.6988654,0 L48.4689675,0 C48.8925525,0 49.2507399,0.0643012936 49.5921278,0.176386117 C49.9995134,0.320326628 50.3421013,0.560424118 50.6186915,0.880750746 C51.0422765,1.37805341 51.2378696,2.03463451 51.2378696,2.88293965 L51.2378696,8.32967216 C51.2378696,9.17856722 51.0422765,9.83573824 50.6186915,10.332451 C50.3421013,10.6521877 49.9995134,10.8928751 49.5921278,11.0368156 Z" id="Fill-56"></path>
        <path d="M55.6820698,5.76646922 L57.6374007,5.76646922 L57.6374007,2.88293965 L55.6820698,2.88293965 L55.6820698,5.76646922 Z M60.7164918,11.2132017 L57.4094087,11.2132017 L55.7150686,8.00934553 L55.6820698,8.00934553 L55.6820698,11.2132017 L52.7493735,11.2132017 L52.7493735,0 L57.8005949,0 C58.2241799,0 58.5817673,0.0643012936 58.9081558,0.176386117 C59.3323408,0.320326628 59.6737287,0.560424118 59.9347195,0.880750746 C60.3583045,1.37805341 60.570097,2.03463451 60.570097,2.88293965 L60.570097,5.12581596 C60.570097,5.97471102 60.3583045,6.63188204 59.9347195,7.12859479 C59.6737287,7.44892141 59.3323408,7.68901891 58.9249552,7.83354934 L60.7164918,11.2132017 Z" id="Fill-58"></path>
        <polygon id="Fill-59" points="65.5020799 11.2132017 62.5693836 11.2132017 62.5693836 0 65.2092903 0 67.7022022 5.12581596 67.7022022 0 70.6348985 0 70.6348985 11.2132017 67.9943918 11.2132017 65.5020799 6.08738577"></polygon>
        <polygon id="Fill-60" points="75.3220901 8.32967216 78.5811749 8.32967216 78.5811749 11.2132017 72.3893938 11.2132017 72.3893938 0 75.3220901 0"></polygon>
        <polygon id="Fill-61" points="45.8620596 25.1020906 42.9293633 25.1020906 42.9293633 13.8888889 49.9353157 13.8888889 49.9353157 16.7724185 45.8620596 16.7724185 45.8620596 19.0147049 49.6089272 19.0147049 49.6089272 21.5779078 45.8620596 21.5779078"></polygon>
        <polygon id="Fill-62" points="58.0370603 25.1020906 51.1127051 25.1020906 51.1127051 13.8888889 58.0370603 13.8888889 58.0370603 16.7724185 54.0454014 16.7724185 54.0454014 18.3746415 57.7118718 18.3746415 57.7118718 20.6169279 54.0454014 20.6169279 54.0454014 22.218561 58.0370603 22.218561"></polygon>
        <path d="M63.0464774,22.218561 L65.0018083,22.218561 L65.0018083,16.7724185 L63.0464774,16.7724185 L63.0464774,22.218561 Z M66.2725634,24.9257045 C65.9467749,25.0377893 65.5879876,25.1020906 65.1650025,25.1020906 L60.1143811,25.1020906 L60.1143811,13.8888889 L65.1650025,13.8888889 C65.5879876,13.8888889 65.9467749,13.9531902 66.2725634,14.065275 C66.6967484,14.2092155 67.0381363,14.4499029 67.3153265,14.7702296 C67.7227121,15.2663524 67.9345046,15.9235234 67.9345046,16.7724185 L67.9345046,22.3630915 C67.9345046,23.1476852 67.7065127,23.7564828 67.3153265,24.2213399 C67.0381363,24.5410766 66.6967484,24.781764 66.2725634,24.9257045 Z" id="Fill-63"></path>
        <polygon id="Fill-64" points="76.8587465 25.1020906 69.9343912 25.1020906 69.9343912 13.8888889 76.8587465 13.8888889 76.8587465 16.7724185 72.8670876 16.7724185 72.8670876 18.3746415 76.5335579 18.3746415 76.5335579 20.6169279 72.8670876 20.6169279 72.8670876 22.218561 76.8587465 22.218561"></polygon>
        <path d="M81.0504293,19.655948 L83.0057602,19.655948 L83.0057602,16.7724185 L81.0504293,16.7724185 L81.0504293,19.655948 Z M86.0848514,25.1020906 L82.7771683,25.1020906 L81.0828282,21.8982344 L81.0504293,21.8982344 L81.0504293,25.1020906 L78.117733,25.1020906 L78.117733,13.8888889 L83.1683545,13.8888889 C83.5919395,13.8888889 83.9501268,13.9531902 84.2765153,14.065275 C84.7001003,14.2092155 85.0420882,14.4499029 85.303079,14.7702296 C85.7260641,15.2663524 85.9384566,15.9235234 85.9384566,16.7724185 L85.9384566,19.0147049 C85.9384566,19.8635999 85.7260641,20.5207709 85.303079,21.0174837 C85.0420882,21.3378103 84.7001003,21.5779078 84.2927147,21.7218483 L86.0848514,25.1020906 Z" id="Fill-65"></path>
        <path d="M91.8148061,21.0971229 L93.3789508,21.0971229 L92.5965785,17.4927109 L91.8148061,21.0971229 Z M90.9346372,25.1020906 L87.9377432,25.1020906 L90.9838355,13.8888889 L94.2099214,13.8888889 L97.2560138,25.1020906 L94.2417203,25.1020906 L93.8673336,23.3394093 L91.3258234,23.3394093 L90.9346372,25.1020906 Z" id="Fill-66"></path>
        <polygon id="Fill-67" points="101.508784 22.219151 104.767869 22.219151 104.767869 25.1026805 98.5760875 25.1026805 98.5760875 13.8888889 101.508784 13.8888889"></polygon>
        <path d="M43.5485414,38.1102288 C43.1243564,37.613516 42.9293633,36.9569349 42.9293633,36.1074499 L42.9293633,30.6613073 C42.9293633,29.8130022 43.1243564,29.1558312 43.5485414,28.6591184 C43.8257316,28.3387918 44.1677195,28.0981044 44.5745052,27.9541639 C44.917693,27.8420791 45.2758804,27.7777778 45.6988654,27.7777778 L49.8537185,27.7777778 L49.8537185,30.6613073 L45.8620596,30.6613073 L45.8620596,36.1074499 L49.8537185,36.1074499 L49.8537185,38.9909795 L45.6988654,38.9909795 C45.2758804,38.9909795 44.917693,38.9272681 44.5745052,38.8151833 C44.1677195,38.6706529 43.8257316,38.4299655 43.5485414,38.1102288" id="Fill-68"></path>
        <path d="M54.0448015,33.5448369 L56.0001323,33.5448369 L56.0001323,30.6613073 L54.0448015,30.6613073 L54.0448015,33.5448369 Z M59.0792235,38.9909795 L55.7721404,38.9909795 L54.0772003,35.7871233 L54.0448015,35.7871233 L54.0448015,38.9909795 L51.1127051,38.9909795 L51.1127051,27.7777778 L56.1627266,27.7777778 C56.5869116,27.7777778 56.9450989,27.8420791 57.2708874,27.9541639 C57.6944724,28.0981044 58.0364604,28.3387918 58.2974511,28.6585285 C58.7210362,29.1552413 58.9328287,29.8124123 58.9328287,30.6613073 L58.9328287,32.9035937 C58.9328287,33.7524888 58.7210362,34.4096598 58.2974511,34.9057826 C58.0364604,35.2266992 57.6944724,35.4667967 57.2876868,35.6107372 L59.0792235,38.9909795 Z" id="Fill-69"></path>
        <polygon id="Fill-70" points="67.8570705 38.9909795 60.9327152 38.9909795 60.9327152 27.7777778 67.8570705 27.7777778 67.8570705 30.6613073 63.8654116 30.6613073 63.8654116 32.2635304 67.531882 32.2635304 67.531882 34.5058168 63.8654116 34.5058168 63.8654116 36.1074499 67.8570705 36.1074499"></polygon>
        <path d="M72.8670876,36.1074499 L74.8224184,36.1074499 L74.8224184,30.6613073 L72.8670876,30.6613073 L72.8670876,36.1074499 Z M76.0937735,38.8145934 C75.767385,38.9266782 75.4085977,38.9909795 74.9856127,38.9909795 L69.9343912,38.9909795 L69.9343912,27.7777778 L74.9856127,27.7777778 C75.4085977,27.7777778 75.767385,27.8420791 76.0937735,27.9541639 C76.5173585,28.0981044 76.8587465,28.3387918 77.1359367,28.6585285 C77.5433223,29.1552413 77.7557147,29.8124123 77.7557147,30.6613073 L77.7557147,36.2519804 C77.7557147,37.0365741 77.5271228,37.6453717 77.1359367,38.1096388 C76.8587465,38.4299655 76.5173585,38.6706529 76.0937735,38.8145934 Z" id="Fill-71"></path>
        <polygon id="Fill-72" points="79.7544014 38.9909795 82.6870977 38.9909795 82.6870977 27.7777778 79.7544014 27.7777778"></polygon>
        <polygon id="Fill-73" points="91.6667958 27.7777778 91.6667958 30.6613073 89.2230822 30.6613073 89.2230822 38.9909795 86.2909858 38.9909795 86.2909858 30.6613073 83.8460723 30.6613073 83.8460723 27.7777778"></polygon>
        <path d="M102.316429,27.7777778 L105.247925,27.7777778 L105.247925,36.1074499 C105.247925,36.9569349 105.036133,37.6129261 104.628747,38.1102288 C104.352757,38.4299655 104.010169,38.6706529 103.602784,38.8145934 C103.260796,38.9266782 102.902608,38.9909795 102.479023,38.9909795 L99.7095212,38.9909795 C99.2853362,38.9909795 98.9277488,38.9266782 98.584561,38.8145934 C98.1777753,38.6706529 97.8357874,38.4299655 97.5585972,38.1102288 C97.1512116,37.6129261 96.9394191,36.9569349 96.9394191,36.1074499 L96.9394191,27.7777778 L99.8721155,27.7777778 L99.8721155,36.1074499 L102.316429,36.1074499 L102.316429,27.7777778 Z" id="Fill-74"></path>
        <polygon id="Fill-75" points="110.51046 38.9909795 107.577763 38.9909795 107.577763 27.7777778 110.21767 27.7777778 112.710582 32.9035937 112.710582 27.7777778 115.643278 27.7777778 115.643278 38.9909795 113.002772 38.9909795 110.51046 33.8651635"></polygon>
        <polygon id="Fill-76" points="117.397774 38.9909795 120.33047 38.9909795 120.33047 27.7777778 117.397774 27.7777778"></polygon>
        <path d="M125.239875,36.1080399 L127.684189,36.1080399 L127.684189,30.6613073 L125.239875,30.6613073 L125.239875,36.1080399 Z M128.971143,38.8151833 C128.629155,38.9272681 128.270968,38.9915694 127.846783,38.9915694 L125.077281,38.9915694 C124.653696,38.9915694 124.295508,38.9272681 123.96912,38.8151833 C123.545535,38.6706529 123.203547,38.4305554 122.926357,38.1102288 C122.519571,37.613516 122.307779,36.9569349 122.307779,36.1074499 L122.307779,30.6613073 C122.307779,29.8124123 122.519571,29.1558312 122.926357,28.6591184 C123.203547,28.3387918 123.545535,28.0986943 123.96912,27.9547538 C124.295508,27.8420791 124.653696,27.7777778 125.077281,27.7777778 L127.846783,27.7777778 C128.270968,27.7777778 128.629155,27.8420791 128.971143,27.9547538 C129.377929,28.0986943 129.721117,28.3387918 129.997107,28.6591184 C130.420692,29.1558312 130.616285,29.8124123 130.616285,30.6613073 L130.616285,36.1074499 C130.616285,36.9569349 130.420692,37.613516 129.997107,38.1102288 C129.721117,38.4305554 129.377929,38.6706529 128.971143,38.8151833 Z" id="Fill-77"></path>
        <polygon id="Fill-78" points="135.060485 38.9909795 132.127789 38.9909795 132.127789 27.7777778 134.767696 27.7777778 137.260607 32.9035937 137.260607 27.7777778 140.192704 27.7777778 140.192704 38.9909795 137.552797 38.9909795 135.060485 33.8651635"></polygon>
        <polygon id="Fill-79" points="39.3926069 38.3389089 0.375986 38.3389089 0.375986 0 11.4155958 0 11.4155958 27.4655012 28.3901958 27.4655012 28.3901958 0 39.3926069 0"></polygon>
        <path d="M13.7291606,3.06345521 L14.6285288,3.06345521 L14.6285288,1.06008646 L13.7291606,1.06008646 L13.7291606,3.06345521 Z M15.1013121,4.05924038 C14.9753165,4.09994487 14.8439212,4.12354167 14.6879267,4.12354167 L13.6691627,4.12354167 C13.5131682,4.12354167 13.3817729,4.09994487 13.2617771,4.05924038 C13.1063826,4.00614757 12.980387,3.91706963 12.8789906,3.79967552 C12.7283959,3.61680028 12.6509987,3.37552295 12.6509987,3.06345521 L12.6509987,1.06008646 C12.6509987,0.748608638 12.7283959,0.506741387 12.8789906,0.323866148 C12.980387,0.206472044 13.1063826,0.117394105 13.2617771,0.0648912137 C13.3817729,0.023596805 13.5131682,0 13.6691627,0 L14.6879267,0 C14.8439212,0 14.9753165,0.023596805 15.1013121,0.0648912137 C15.2513068,0.117394105 15.3767023,0.206472044 15.4786987,0.323866148 C15.6346932,0.506741387 15.7060907,0.748608638 15.7060907,1.06008646 L15.7060907,3.06345521 C15.7060907,3.37552295 15.6346932,3.61680028 15.4786987,3.79967552 C15.3767023,3.91706963 15.2513068,4.00614757 15.1013121,4.05924038 Z" id="Fill-80"></path>
        <path d="M17.8202315,2.12076285 L18.5390061,2.12076285 L18.5390061,1.06008646 L17.8202315,1.06008646 L17.8202315,2.12076285 Z M19.672366,4.12354167 L18.456209,4.12354167 L17.8322311,2.94547118 L17.8208315,2.94547118 L17.8208315,4.12354167 L16.7426696,4.12354167 L16.7426696,0 L18.599004,0 C18.7549984,0 18.8875938,0.023596805 19.0075895,0.0648912137 C19.162984,0.117394105 19.2889796,0.206472044 19.3843762,0.323866148 C19.5403707,0.506741387 19.6183679,0.748608638 19.6183679,1.06008646 L19.6183679,1.88538472 C19.6183679,2.19686254 19.5403707,2.4387298 19.3843762,2.62101511 C19.2889796,2.73958906 19.162984,2.82748716 19.0135893,2.88116989 L19.672366,4.12354167 Z" id="Fill-81"></path>
        <polygon id="Fill-82" points="21.0935682 4.12354167 20.0160063 4.12354167 20.0160063 0 20.985572 0 21.9029396 1.88538472 21.9029396 0 22.9811015 0 22.9811015 4.12354167 22.0097358 4.12354167 21.0935682 2.23815695"></polygon>
        <polygon id="Fill-83" points="25.1852391 3.06345521 26.3833967 3.06345521 26.3833967 4.12354167 24.1076772 4.12354167 24.1076772 0 25.1852391 0"></polygon>
        <polygon id="Fill-84" points="26.5093088 15.1098927 26.5171085 5.71895425 12.6509987 5.71895425 12.6509987 26.0304941 26.5171085 26.0304941 26.5171085 16.6395556 19.4259592 16.6395556 19.4259592 15.1098927"></polygon>
      </g>
    </g>
  </g>
</svg>
