<?xml version="1.0" encoding="UTF-8"?>
<svg xmlns="http://www.w3.org/2000/svg" xmlns:xlink="http://www.w3.org/1999/xlink" width="169px" height="51px" viewBox="0 0 169 51">
  <!-- Generator: Sketch 50 (54983) - http://www.bohemiancoding.com/sketch -->
  <title>Partners logo Copy 3</title>
  <desc>Created with Sketch.</desc>
  <defs>
    <polygon id="path-1" points="0 0 32.4519672 0 32.4519672 34.5359237 0 34.5359237"></polygon>
  </defs>
  <g id="Design" stroke="none" stroke-width="1" fill="none" fill-rule="evenodd">
    <g id="home" transform="translate(-618.000000, -910.000000)">
      <g id="featured-clients" transform="translate(90.000000, 800.000000)">
        <g id="row-1" transform="translate(60.000000, 110.000000)">
          <g id="Partners-logo-Copy-3" transform="translate(468.000000, 0.000000)">
            <path d="M8.86051787,46.8372727 C8.86051787,47.8916536 8.86051787,48.7153425 8.9178817,49.1767266 C8.9523,49.4939282 9.02037175,49.7357112 9.3637899,49.780075 C9.52593833,49.802257 9.77757435,49.8229601 9.93819308,49.8229601 C10.0865742,49.8229601 10.1324653,49.8569724 10.1324653,49.9109484 C10.1324653,49.9885852 10.0521559,50.021858 9.88006439,50.021858 C9.15804495,50.021858 8.43679036,49.9885852 8.13926328,49.9885852 C7.84020649,49.9885852 7.11971675,50.021858 6.68451647,50.021858 C6.52389774,50.021858 6.44205867,49.9996761 6.44205867,49.9109484 C6.44205867,49.8569724 6.48794974,49.8229601 6.61567987,49.8229601 C6.78777137,49.8229601 6.92467972,49.802257 7.02793462,49.780075 C7.2566251,49.7357112 7.31398893,49.4939282 7.35988,49.1767266 C7.41647898,48.7153425 7.41647898,47.8916536 7.41647898,46.8372727 L7.41647898,44.9044874 C7.41647898,43.235667 7.41647898,42.928817 7.3942983,42.5783426 C7.37135277,42.203468 7.27957063,42.0282308 6.90173419,41.9520728 C6.80995206,41.9298909 6.61567987,41.9187999 6.45429629,41.9187999 C6.33956863,41.9187999 6.25925926,41.896618 6.25925926,41.8308116 C6.25925926,41.7420839 6.35104139,41.7213808 6.52389774,41.7213808 C6.82142482,41.7213808 7.15413505,41.7309929 7.45089728,41.7309929 C7.74842436,41.7420839 8.01229799,41.7531749 8.17368158,41.7531749 C8.60888186,41.7531749 10.9347941,41.7531749 11.1986677,41.7420839 C11.4158854,41.7309929 11.5535586,41.7309929 11.6675214,41.6991988 C11.736358,41.6770169 11.792957,41.6326531 11.8503208,41.6326531 C11.8962119,41.6326531 11.9306302,41.6770169 11.9306302,41.7309929 C11.9306302,41.8086297 11.8732664,41.9409819 11.8396129,42.2256499 C11.8273753,42.3365596 11.8051946,42.982793 11.7814842,43.1151452 C11.7707763,43.2038729 11.7470659,43.2689399 11.6675214,43.2689399 C11.5872121,43.2689399 11.5642665,43.2134851 11.5535586,43.0937027 C11.5535586,43.0064538 11.5535586,42.8297377 11.484722,42.6759431 C11.4044126,42.5228878 11.1642494,42.3580021 10.7275194,42.3476505 L8.96377277,42.3136382 C8.89493617,42.3136382 8.86051787,42.3476505 8.86051787,42.4674329 L8.86051787,45.2128162 C8.86051787,45.2771438 8.87199064,45.3104166 8.94006238,45.3104166 L10.4070468,45.2993257 C10.601319,45.2993257 10.7619377,45.2993257 10.9217916,45.2882347 C11.140539,45.2771438 11.3011577,45.2349981 11.4158854,45.0908156 C11.4732492,45.0257486 11.4954299,44.9821241 11.5642665,44.9821241 C11.6101576,44.9821241 11.6331031,45.015397 11.6331031,45.0797246 C11.6331031,45.1462704 11.5757393,45.4213263 11.541321,45.7607098 C11.5191403,45.9803109 11.4954299,46.4860588 11.4954299,46.5622168 C11.4954299,46.6620354 11.4954299,46.7707269 11.3814671,46.7707269 C11.3126305,46.7707269 11.289685,46.6953083 11.289685,46.6176716 C11.289685,46.5400348 11.2667394,46.4091615 11.2208484,46.2775487 C11.1642494,46.1230146 10.9921579,45.9255954 10.6357373,45.8827104 C10.349683,45.8494375 9.13509942,45.8494375 8.94006238,45.8494375 C8.8834634,45.8494375 8.86051787,45.8716194 8.86051787,45.947038 L8.86051787,46.8372727" id="Fill-1" fill="#6D6E70"></path>
            <path d="M13.6757382,44.903748 C13.6757382,43.2349276 13.6757382,42.9265988 13.6527927,42.5761244 C13.6298472,42.2027286 13.538065,42.0274914 13.1609934,41.9498546 C13.0692113,41.9284121 12.8734094,41.9165817 12.7127907,41.9165817 C12.5873551,41.9165817 12.5185185,41.896618 12.5185185,41.8189813 C12.5185185,41.7413445 12.598063,41.7191626 12.7701545,41.7191626 C13.0806841,41.7191626 13.4126295,41.7302535 13.6986838,41.7302535 C13.9962109,41.7413445 14.2593196,41.7524355 14.4199384,41.7524355 C14.7878317,41.7524355 17.0663232,41.7524355 17.2858355,41.7413445 C17.5030532,41.7191626 17.6858526,41.69772 17.7776347,41.6770169 C17.8349986,41.6644472 17.9030703,41.6326531 17.961199,41.6326531 C18.017798,41.6326531 18.0292707,41.6770169 18.0292707,41.7302535 C18.0292707,41.8078903 17.9719069,41.9387637 17.9374886,42.4445116 C17.9267807,42.5539425 17.9030703,43.0375085 17.8808896,43.1683818 C17.868652,43.2238367 17.8464713,43.2903824 17.766162,43.2903824 C17.6858526,43.2903824 17.6629071,43.2349276 17.6629071,43.1365877 C17.6629071,43.0596904 17.6514343,42.8726228 17.5948353,42.7402706 C17.5145259,42.5428515 17.3997983,42.4112387 16.8261599,42.3454323 C16.6318878,42.3232504 15.428777,42.3025473 15.1993216,42.3025473 C15.1419578,42.3025473 15.1197771,42.3343414 15.1197771,42.4112387 L15.1197771,45.1898948 C15.1197771,45.2660528 15.130485,45.3104166 15.1993216,45.3104166 C15.4509577,45.3104166 16.7687961,45.3104166 17.0319049,45.2882347 C17.308781,45.2660528 17.4801076,45.2327799 17.5825977,45.1233491 C17.6629071,45.0353607 17.7087981,44.9813847 17.766162,44.9813847 C17.812053,44.9813847 17.8464713,45.0020879 17.8464713,45.0686336 C17.8464713,45.13444 17.8005803,45.3104166 17.7546892,45.8694012 C17.7432164,46.0897417 17.7087981,46.5289439 17.7087981,46.6058412 C17.7087981,46.6930901 17.7087981,46.8143513 17.6063081,46.8143513 C17.5259987,46.8143513 17.5030532,46.7699875 17.5030532,46.7152721 C17.4915804,46.6058412 17.4915804,46.4638769 17.4571621,46.3204337 C17.3997983,46.1000933 17.2384147,45.935947 16.8146872,45.8915831 C16.5974695,45.8694012 15.4624304,45.8583103 15.1878489,45.8583103 C15.130485,45.8583103 15.1197771,45.9026741 15.1197771,45.9692199 L15.1197771,46.8365333 C15.1197771,47.209929 15.1083044,48.2199461 15.1197771,48.5371477 C15.1419578,49.2957696 15.3255221,49.4606553 16.4942146,49.4606553 C16.7917416,49.4606553 17.2743627,49.4606553 17.5718898,49.3290425 C17.868652,49.1966903 18.0063252,48.9659983 18.0866346,48.5149658 C18.1095801,48.3951834 18.1325256,48.3508195 18.212835,48.3508195 C18.3038523,48.3508195 18.3038523,48.4395472 18.3038523,48.5482387 C18.3038523,48.8011126 18.212835,49.5486436 18.1554712,49.7682447 C18.0751618,50.0529127 17.9719069,50.0529127 17.5374715,50.0529127 C16.677014,50.0529127 16.0483064,50.0307308 15.5542126,50.0196399 C15.0616484,49.9974579 14.7075224,49.9878458 14.3625745,49.9878458 C14.2363741,49.9878458 13.9847381,49.9878458 13.7101565,49.9974579 C13.4470478,49.9974579 13.1495207,50.0196399 12.9185356,50.0196399 C12.7701545,50.0196399 12.6898452,49.9878458 12.6898452,49.910209 C12.6898452,49.8554936 12.7357362,49.8222207 12.8734094,49.8222207 C13.0462658,49.8222207 13.183939,49.8000388 13.286429,49.7778568 C13.5158844,49.7349718 13.5724833,49.4939282 13.6183744,49.1759872 C13.6757382,48.7146031 13.6757382,47.8465504 13.6757382,46.8365333 L13.6757382,44.903748" id="Fill-3" fill="#6D6E70"></path>
            <path d="M22.4107735,46.0246747 C22.4107735,47.1877471 22.4222463,48.0336179 22.433719,48.2421281 C22.4451918,48.517184 22.4681373,48.9563861 22.5591546,49.0761685 C22.7083006,49.2854181 23.1549736,49.5161101 24.0605573,49.5161101 C25.2292498,49.5161101 26.009398,49.296509 26.6954694,48.7256941 C27.4281968,48.1216063 27.6584169,47.1234195 27.6584169,45.9914018 C27.6584169,44.5976374 27.0503603,43.6970511 26.558561,43.246758 C25.5038314,42.2811047 24.1974657,42.149492 23.3048844,42.149492 C23.076194,42.149492 22.6509367,42.1812861 22.5591546,42.2256499 C22.4566646,42.2692744 22.4222463,42.3254686 22.4222463,42.445251 C22.4107735,42.8179074 22.4107735,43.7746879 22.4107735,44.6420012 L22.4107735,46.0246747 Z M20.9782074,44.8172385 C20.9782074,43.1484181 20.9782074,42.8400893 20.9560267,42.4896149 C20.9330812,42.1162191 20.841299,41.9409819 20.4634626,41.8633451 C20.3716805,41.8411632 20.1758786,41.8300722 20.0160247,41.8300722 C19.8898243,41.8300722 19.8209877,41.8078903 19.8209877,41.7324717 C19.8209877,41.654835 19.901297,41.6326531 20.0726237,41.6326531 C20.6814451,41.6326531 21.4019349,41.665926 21.7239372,41.665926 C22.0788281,41.665926 22.8000827,41.6326531 23.4884487,41.6326531 C24.92025,41.6326531 26.8331426,41.6326531 28.0821444,42.8844532 C28.6542531,43.4552681 29.1934731,44.3669453 29.1934731,45.6742003 C29.1934731,47.0568737 28.5854165,48.1112547 27.9444712,48.736785 C27.4182537,49.2521452 26.2266157,50.032949 24.1056835,50.032949 C23.6941937,50.032949 23.2245751,49.9996761 22.7886099,49.9664032 C22.3534097,49.9331303 21.9526277,49.8998574 21.6665734,49.8998574 C21.5396081,49.8998574 21.2879721,49.8998574 21.0126257,49.9109484 C20.7495169,49.9109484 20.4519898,49.9331303 20.2217696,49.9331303 C20.0726237,49.9331303 19.9930792,49.8998574 19.9930792,49.8244389 C19.9930792,49.7689841 20.0382054,49.7357112 20.1758786,49.7357112 C20.3494998,49.7357112 20.4864081,49.7135293 20.589663,49.6913473 C20.8183535,49.6484623 20.8757173,49.4066793 20.9216084,49.0879989 C20.9782074,48.6266148 20.9782074,47.7600408 20.9782074,46.7500237 L20.9782074,44.8172385 Z" id="Fill-5" fill="#6D6E70"></path>
            <path d="M31.4103061,44.903748 C31.4103061,43.2349276 31.4103061,42.9265988 31.3873606,42.5761244 C31.3644151,42.2027286 31.2726329,42.0274914 30.8955613,41.9498546 C30.8037792,41.9284121 30.609507,41.9165817 30.4473586,41.9165817 C30.321923,41.9165817 30.2530864,41.896618 30.2530864,41.8189813 C30.2530864,41.7413445 30.3326309,41.7191626 30.5047224,41.7191626 C30.815252,41.7191626 31.1471974,41.7302535 31.4332517,41.7302535 C31.7307788,41.7413445 31.9938875,41.7524355 32.1545063,41.7524355 C32.5223997,41.7524355 34.8008911,41.7524355 35.0204034,41.7413445 C35.2376211,41.7191626 35.4204205,41.69772 35.5122026,41.6770169 C35.5688016,41.6644472 35.6376382,41.6326531 35.695002,41.6326531 C35.7523659,41.6326531 35.7638386,41.6770169 35.7638386,41.7302535 C35.7638386,41.8078903 35.7064748,41.9387637 35.6720565,42.4445116 C35.6613486,42.5539425 35.6376382,43.0375085 35.6154575,43.1683818 C35.6032199,43.2238367 35.5810392,43.2903824 35.5007299,43.2903824 C35.4204205,43.2903824 35.397475,43.2349276 35.397475,43.1365877 C35.397475,43.0596904 35.3860022,42.8726228 35.3294032,42.7402706 C35.2490938,42.5428515 35.1343662,42.4112387 34.5607278,42.3454323 C34.3664557,42.3232504 33.1633449,42.3025473 32.9338895,42.3025473 C32.8765257,42.3025473 32.8535802,42.3343414 32.8535802,42.4112387 L32.8535802,45.1898948 C32.8535802,45.2660528 32.8650529,45.3104166 32.9338895,45.3104166 C33.1855256,45.3104166 34.503364,45.3104166 34.7664728,45.2882347 C35.0433489,45.2660528 35.2146755,45.2327799 35.3171656,45.1233491 C35.397475,45.0353607 35.443366,44.9813847 35.5007299,44.9813847 C35.5466209,44.9813847 35.5810392,45.0020879 35.5810392,45.0686336 C35.5810392,45.13444 35.5351482,45.3104166 35.4892571,45.8694012 C35.4777843,46.0897417 35.443366,46.5289439 35.443366,46.6058412 C35.443366,46.6930901 35.443366,46.8143513 35.340876,46.8143513 C35.2605666,46.8143513 35.2376211,46.7699875 35.2376211,46.7152721 C35.2261483,46.6058412 35.2261483,46.4638769 35.19173,46.3204337 C35.1343662,46.1000933 34.9729826,45.935947 34.5492551,45.8915831 C34.3320374,45.8694012 33.1969983,45.8583103 32.9224168,45.8583103 C32.8650529,45.8583103 32.8535802,45.9026741 32.8535802,45.9692199 L32.8535802,46.8365333 C32.8535802,47.209929 32.8428723,48.2199461 32.8535802,48.5371477 C32.8765257,49.2957696 33.06009,49.4606553 34.2287825,49.4606553 C34.5263095,49.4606553 35.0089306,49.4606553 35.3064577,49.3290425 C35.6032199,49.1966903 35.7408931,48.9659983 35.8212025,48.5149658 C35.844148,48.3951834 35.8670935,48.3508195 35.9474029,48.3508195 C36.0384202,48.3508195 36.0384202,48.4395472 36.0384202,48.5482387 C36.0384202,48.8011126 35.9474029,49.5486436 35.8892742,49.7682447 C35.8097297,50.0529127 35.7064748,50.0529127 35.2720394,50.0529127 C34.4115819,50.0529127 33.7828743,50.0307308 33.2887805,50.0196399 C32.7962163,49.9974579 32.4420903,49.9878458 32.0971424,49.9878458 C31.970942,49.9878458 31.719306,49.9878458 31.4447244,49.9974579 C31.1816157,49.9974579 30.8840886,50.0196399 30.6531035,50.0196399 C30.5047224,50.0196399 30.4244131,49.9878458 30.4244131,49.910209 C30.4244131,49.8554936 30.4703041,49.8222207 30.609507,49.8222207 C30.7808337,49.8222207 30.917742,49.8000388 31.0209969,49.7778568 C31.2504523,49.7349718 31.3070512,49.4939282 31.3529423,49.1759872 C31.4103061,48.7146031 31.4103061,47.8465504 31.4103061,46.8365333 L31.4103061,44.903748" id="Fill-7" fill="#6D6E70"></path>
            <path d="M39.0218222,45.6838124 C39.0218222,45.805813 39.0447677,45.8479587 39.1250771,45.8812316 C39.3652403,45.9588683 39.7086584,45.9921412 39.9962425,45.9921412 C40.4543883,45.9921412 40.6027694,45.9477774 40.8085143,45.805813 C41.1519325,45.5632906 41.4854076,45.0575427 41.4854076,44.1576958 C41.4854076,42.5990457 40.4084972,42.1480132 39.731604,42.1480132 C39.4455497,42.1480132 39.2398047,42.1591041 39.1250771,42.192377 C39.0447677,42.2152984 39.0218222,42.2589228 39.0218222,42.3461717 L39.0218222,45.6838124 Z M37.6695654,44.8164991 C37.6695654,43.1469393 37.6695654,42.8408287 37.6473847,42.4881361 C37.6244392,42.1154797 37.5326571,41.9402425 37.1548206,41.8626057 C37.0630385,41.8404238 36.8672366,41.8308116 36.7073827,41.8308116 C36.5811823,41.8308116 36.5123457,41.8086297 36.5123457,41.7309929 C36.5123457,41.6533562 36.592655,41.6326531 36.7639817,41.6326531 C37.3720383,41.6326531 38.0932929,41.6644472 38.3357507,41.6644472 C38.7242951,41.6644472 39.5946956,41.6326531 39.9488217,41.6326531 C40.671606,41.6326531 41.4402814,41.69772 42.0575162,42.1043887 C42.3779888,42.3128988 42.8376643,42.8718834 42.8376643,43.6083234 C42.8376643,44.4209214 42.4812437,45.1669735 41.324024,46.0682992 C42.3435705,47.2979173 43.1351914,48.275401 43.8105549,48.9549073 C44.4530299,49.5922681 44.9218836,49.6699048 45.0932102,49.7031777 C45.2194107,49.7246202 45.3226656,49.7349718 45.4136828,49.7349718 C45.5062298,49.7349718 45.551356,49.7675053 45.551356,49.8229601 C45.551356,49.9116878 45.4718115,49.9338697 45.3341383,49.9338697 L44.2472849,49.9338697 C43.60481,49.9338697 43.3179908,49.8784149 43.0212286,49.7246202 C42.5271348,49.4724856 42.0919345,48.9549073 41.4509893,48.1097759 C40.9920786,47.5056881 40.465861,46.7603753 40.3167151,46.5954896 C40.2593512,46.5296833 40.1905146,46.5178529 40.1109701,46.5178529 L39.1136043,46.4964104 C39.0562405,46.4964104 39.0218222,46.5178529 39.0218222,46.5843987 L39.0218222,46.7381934 C39.0218222,47.7593014 39.0218222,48.6266148 39.079186,49.0879989 C39.1136043,49.4059399 39.181676,49.6477229 39.525859,49.6913473 C39.6971857,49.7142687 39.9488217,49.7349718 40.0880246,49.7349718 C40.1798067,49.7349718 40.2249329,49.7675053 40.2249329,49.8229601 C40.2249329,49.9005968 40.1453884,49.9338697 39.9962425,49.9338697 C39.330822,49.9338697 38.4826021,49.9005968 38.3105106,49.9005968 C38.0932929,49.9005968 37.3720383,49.9338697 36.9131277,49.9338697 C36.7639817,49.9338697 36.6844372,49.9005968 36.6844372,49.8229601 C36.6844372,49.7675053 36.7295634,49.7349718 36.8672366,49.7349718 C37.0385632,49.7349718 37.1777661,49.7142687 37.281021,49.6913473 C37.5097115,49.6477229 37.5670754,49.4059399 37.6129664,49.0879989 C37.6695654,48.6266148 37.6695654,47.7593014 37.6695654,46.7485449 L37.6695654,44.8164991 Z" id="Fill-9" fill="#6D6E70"></path>
            <path d="M49.223077,46.7596359 C49.2804408,46.7596359 49.2919136,46.726363 49.2804408,46.6930901 L48.2486567,43.9817192 C48.2371839,43.9388341 48.2257111,43.8833793 48.1912928,43.8833793 C48.1568745,43.8833793 48.133929,43.9388341 48.1232211,43.9817192 L47.0684914,46.6827386 C47.0570187,46.726363 47.0684914,46.7596359 47.1143825,46.7596359 L49.223077,46.7596359 Z M46.8849272,47.3082689 C46.8283282,47.3082689 46.8046178,47.3304508 46.7824371,47.3969966 L46.1636726,48.9659983 C46.0497097,49.2410542 45.9923459,49.5050191 45.9923459,49.6358925 C45.9923459,49.8340511 46.0956008,49.9760154 46.4504917,49.9760154 L46.6218184,49.9760154 C46.7594916,49.9760154 46.7939099,49.9981973 46.7939099,50.0647431 C46.7939099,50.1527314 46.7250733,50.1749133 46.5988728,50.1749133 C46.2325092,50.1749133 45.7391802,50.1416405 45.3842893,50.1416405 C45.2580889,50.1416405 44.6293812,50.1749133 44.0320325,50.1749133 C43.8836514,50.1749133 43.8148148,50.1527314 43.8148148,50.0647431 C43.8148148,49.9981973 43.8607059,49.9760154 43.952488,49.9760154 C44.0549781,49.9760154 44.2155968,49.9664032 44.3073789,49.9553123 C44.8351262,49.8887665 45.0523439,49.5161101 45.2817992,48.9659983 L48.1568745,42.0725946 C48.2945477,41.7531749 48.3626195,41.6326531 48.4773472,41.6326531 C48.5806021,41.6326531 48.6494387,41.7309929 48.7649312,41.9838669 C49.0395127,42.5872153 50.8728608,47.0664859 51.606353,48.7353063 C52.0415533,49.7246202 52.3734987,49.8776755 52.6136619,49.9331303 C52.7849886,49.9664032 52.9586098,49.9760154 53.0955181,49.9760154 C53.1873003,49.9760154 53.2446641,49.9871064 53.2446641,50.0647431 C53.2446641,50.1527314 53.142174,50.1749133 52.716152,50.1749133 C52.3046621,50.1749133 51.467915,50.1749133 50.5523882,50.1527314 C50.3458784,50.1416405 50.2089701,50.1416405 50.2089701,50.0647431 C50.2089701,49.9981973 50.2548611,49.9760154 50.3688239,49.9664032 C50.4491333,49.9442213 50.5294427,49.8444026 50.4720788,49.7135293 L49.5550224,47.3859057 C49.5320768,47.3304508 49.4976585,47.3082689 49.4402947,47.3082689 L46.8849272,47.3082689 Z" id="Fill-11" fill="#6D6E70"></path>
            <path d="M55.7246529,46.7485449 C55.7246529,48.1534004 55.7246529,48.9120223 55.9648162,49.1094414 C56.1598532,49.2743271 56.45891,49.3519638 57.3514912,49.3519638 C57.9595479,49.3519638 58.4054561,49.3386547 58.6915104,49.043635 C58.8291836,48.9009313 58.9668568,48.5933419 58.9898023,48.3840924 C59.0012751,48.2864919 59.0234558,48.2199461 59.1152379,48.2199461 C59.1955473,48.2199461 59.20702,48.275401 59.20702,48.4062743 C59.20702,48.5282749 59.1267107,49.3519638 59.0356934,49.6691654 C58.9668568,49.9109484 58.909493,49.9664032 58.3144388,49.9664032 C57.4891644,49.9664032 56.8933454,49.9442213 56.3770709,49.9331303 C55.8623261,49.9109484 55.4500714,49.8998574 54.9812177,49.8998574 C54.8534875,49.8998574 54.6018515,49.8998574 54.32727,49.9109484 C54.0641612,49.9109484 53.7658693,49.9331303 53.5356491,49.9331303 C53.387268,49.9331303 53.3069586,49.8998574 53.3069586,49.8222207 C53.3069586,49.7682447 53.3528497,49.7342324 53.4920526,49.7342324 C53.6633792,49.7342324 53.8002876,49.7135293 53.9035425,49.6913473 C54.1322329,49.6469835 54.1895968,49.4052005 54.2354878,49.0879989 C54.2928517,48.6266148 54.2928517,47.758562 54.2928517,46.7485449 L54.2928517,44.8157597 C54.2928517,43.1469393 54.2928517,42.8400893 54.2699061,42.4896149 C54.2469606,42.1147403 54.1551785,41.9395031 53.7781069,41.8633451 C53.6863248,41.8411632 53.5486516,41.8300722 53.3979759,41.8300722 C53.2725403,41.8300722 53.2037037,41.8078903 53.2037037,41.7302535 C53.2037037,41.6533562 53.2840131,41.6326531 53.4553397,41.6326531 C53.9953246,41.6326531 54.7158143,41.6644472 55.0263439,41.6644472 C55.3016903,41.6644472 56.1369077,41.6326531 56.5851104,41.6326531 C56.7449643,41.6326531 56.8245088,41.6533562 56.8245088,41.7302535 C56.8245088,41.8078903 56.7564371,41.8300722 56.6187639,41.8300722 C56.4933283,41.8300722 56.3082343,41.8411632 56.1705611,41.8633451 C55.8623261,41.9173211 55.770544,42.1036493 55.7475985,42.4896149 C55.7246529,42.8400893 55.7246529,43.1469393 55.7246529,44.8157597 L55.7246529,46.7485449" id="Fill-13" fill="#6D6E70"></path>
            <path d="M64.0129211,49.0428956 C62.8893548,48.0994243 62.5925926,46.8698061 62.5925926,45.8043342 C62.5925926,45.0568033 62.8327558,43.7628575 63.9326117,42.7957255 C64.7571212,42.0718552 65.8455043,41.6326531 67.5518872,41.6326531 C68.2631987,41.6326531 68.6869262,41.6747987 69.2146735,41.7413445 C69.6498737,41.7967993 70.0162374,41.8943998 70.3588907,41.9276727 C70.4850912,41.9387637 70.5325119,41.9942185 70.5325119,42.0607643 C70.5325119,42.1472738 70.4965639,42.2803653 70.4736184,42.6641127 C70.4506729,43.0264175 70.4621456,43.6297659 70.4392001,43.849367 C70.4277273,44.0142527 70.4047818,44.102241 70.3022917,44.102241 C70.2105096,44.102241 70.1875641,44.0142527 70.1875641,43.860458 C70.1760913,43.5210745 70.0277102,43.135109 69.7416559,42.8504409 C69.3638194,42.4666935 68.4697085,42.1694557 67.4149788,42.1694557 C66.4191427,42.1694557 65.765195,42.4112387 65.261923,42.8504409 C64.4251758,43.5854021 64.2071933,44.6286921 64.2071933,45.694164 C64.2071933,48.3079344 66.2799398,49.6018802 67.8172905,49.6018802 C68.8353073,49.6018802 69.4548367,49.4931888 69.9129825,48.9874408 C70.1072547,48.7789307 70.2564007,48.4609897 70.3022917,48.2635706 C70.33671,48.0883334 70.3588907,48.0439695 70.4506729,48.0439695 C70.5325119,48.0439695 70.5554575,48.1193881 70.5554575,48.2088552 C70.5554575,48.3397285 70.4162546,49.2957696 70.3022917,49.668426 C70.2449279,49.8554936 70.1990368,49.910209 70.0039998,49.986367 C69.5466188,50.1616042 68.6754534,50.2392409 67.9427261,50.2392409 C66.3717219,50.2392409 65.056178,49.910209 64.0129211,49.0428956" id="Fill-15" fill="#6D6E70"></path>
            <path d="M74.490958,45.6838124 C74.490958,45.805813 74.5139035,45.8479587 74.5942129,45.8812316 C74.8343761,45.9588683 75.1777943,45.9921412 75.4653783,45.9921412 C75.9235241,45.9921412 76.0719052,45.9477774 76.2776501,45.805813 C76.622598,45.5632906 76.9545434,45.0575427 76.9545434,44.1576958 C76.9545434,42.5990457 75.8768682,42.1480132 75.2007398,42.1480132 C74.9146855,42.1480132 74.7081757,42.1591041 74.5942129,42.192377 C74.5139035,42.2152984 74.490958,42.2589228 74.490958,42.3461717 L74.490958,45.6838124 Z M73.1387012,44.8164991 C73.1387012,43.1469393 73.1387012,42.8408287 73.1165205,42.4881361 C73.0928101,42.1154797 73.0017929,41.9402425 72.6239564,41.8626057 C72.5321743,41.8404238 72.3379021,41.8308116 72.1765185,41.8308116 C72.0503181,41.8308116 71.9814815,41.8086297 71.9814815,41.7309929 C71.9814815,41.6533562 72.0617908,41.6326531 72.2331175,41.6326531 C72.8411741,41.6326531 73.5624287,41.6644472 73.8048865,41.6644472 C74.1934309,41.6644472 75.0630666,41.6326531 75.4194872,41.6326531 C76.1407418,41.6326531 76.9086523,41.69772 77.526652,42.1043887 C77.8471246,42.3128988 78.3068001,42.8718834 78.3068001,43.6083234 C78.3068001,44.4209214 77.9503795,45.1669735 76.7946895,46.0682992 C77.8127063,47.2979173 78.6043272,48.275401 79.2796907,48.9549073 C79.9221657,49.5922681 80.3910194,49.6699048 80.562346,49.7031777 C80.6885465,49.7246202 80.7918014,49.7349718 80.8851132,49.7349718 C80.9746008,49.7349718 81.0220216,49.7675053 81.0220216,49.8229601 C81.0220216,49.9116878 80.942477,49.9338697 80.8032741,49.9338697 L79.7164207,49.9338697 C79.0731809,49.9338697 78.7871266,49.8784149 78.4903644,49.7246202 C77.9962706,49.4724856 77.5610703,48.9549073 76.9201251,48.1097759 C76.4612144,47.5056881 75.934232,46.7603753 75.7858509,46.5954896 C75.728487,46.5296833 75.6596504,46.5178529 75.5801059,46.5178529 L74.5827401,46.4964104 C74.5253763,46.4964104 74.490958,46.5178529 74.490958,46.5843987 L74.490958,46.7381934 C74.490958,47.7593014 74.490958,48.6266148 74.5483218,49.0879989 C74.5827401,49.4059399 74.6508118,49.6477229 74.99423,49.6913473 C75.1663215,49.7142687 75.4194872,49.7349718 75.5571604,49.7349718 C75.6481777,49.7349718 75.6940687,49.7675053 75.6940687,49.8229601 C75.6940687,49.9005968 75.6137594,49.9338697 75.4653783,49.9338697 C74.7999578,49.9338697 73.9532676,49.9005968 73.7811761,49.9005968 C73.5624287,49.9005968 72.8411741,49.9338697 72.3822635,49.9338697 C72.2331175,49.9338697 72.1551027,49.9005968 72.1551027,49.8229601 C72.1551027,49.7675053 72.1986992,49.7349718 72.3379021,49.7349718 C72.5099936,49.7349718 72.6469019,49.7142687 72.7501568,49.6913473 C72.9788473,49.6477229 73.0362112,49.4059399 73.0821022,49.0879989 C73.1387012,48.6266148 73.1387012,47.7593014 73.1387012,46.7485449 L73.1387012,44.8164991 Z" id="Fill-17" fill="#6D6E70"></path>
            <path d="M81.4851451,44.903748 C81.4851451,43.2349276 81.4851451,42.9265988 81.4621995,42.5761244 C81.439254,42.2027286 81.3474719,42.0274914 80.9704003,41.9498546 C80.8786181,41.9284121 80.684346,41.9165817 80.5221975,41.9165817 C80.3959971,41.9165817 80.3271605,41.896618 80.3271605,41.8189813 C80.3271605,41.7413445 80.4089996,41.7191626 80.5787965,41.7191626 C80.8900909,41.7191626 81.2220363,41.7302535 81.5080906,41.7302535 C81.8056177,41.7413445 82.0702562,41.7524355 82.2308749,41.7524355 C82.5964737,41.7524355 84.8772597,41.7524355 85.0944774,41.7413445 C85.3116951,41.7191626 85.4952594,41.69772 85.5870415,41.6770169 C85.6436405,41.6644472 85.7124771,41.6326531 85.769841,41.6326531 C85.8272048,41.6326531 85.8386776,41.6770169 85.8386776,41.7302535 C85.8386776,41.8078903 85.7813137,41.9387637 85.7468954,42.4445116 C85.7354227,42.5539425 85.7124771,43.0375085 85.6895316,43.1683818 C85.6780588,43.2238367 85.6558781,43.2903824 85.5755688,43.2903824 C85.4952594,43.2903824 85.4723139,43.2349276 85.4723139,43.1365877 C85.4723139,43.0596904 85.4608411,42.8726228 85.4034773,42.7402706 C85.3239328,42.5428515 85.2092051,42.4112387 84.6355668,42.3454323 C84.4405297,42.3232504 83.237419,42.3025473 83.0087285,42.3025473 C82.9513646,42.3025473 82.9284191,42.3343414 82.9284191,42.4112387 L82.9284191,45.1898948 C82.9284191,45.2660528 82.9398919,45.3104166 83.0087285,45.3104166 C83.2603645,45.3104166 84.5782029,45.3104166 84.8413117,45.2882347 C85.117423,45.2660528 85.2895145,45.2327799 85.3920045,45.1233491 C85.4723139,45.0353607 85.5182049,44.9813847 85.5755688,44.9813847 C85.6214598,44.9813847 85.6558781,45.0020879 85.6558781,45.0686336 C85.6558781,45.13444 85.6099871,45.3104166 85.564096,45.8694012 C85.5526232,46.0897417 85.5182049,46.5289439 85.5182049,46.6058412 C85.5182049,46.6930901 85.5182049,46.8143513 85.41495,46.8143513 C85.3354055,46.8143513 85.3116951,46.7699875 85.3116951,46.7152721 C85.3009872,46.6058412 85.3009872,46.4638769 85.2665689,46.3204337 C85.2092051,46.1000933 85.0485864,45.935947 84.624094,45.8915831 C84.4061114,45.8694012 83.2718373,45.8583103 82.9972557,45.8583103 C82.9398919,45.8583103 82.9284191,45.9026741 82.9284191,45.9692199 L82.9284191,46.8365333 C82.9284191,47.209929 82.9169463,48.2199461 82.9284191,48.5371477 C82.9513646,49.2957696 83.1341641,49.4606553 84.3036214,49.4606553 C84.6011485,49.4606553 85.0830047,49.4606553 85.3805317,49.3290425 C85.6780588,49.1966903 85.815732,48.9659983 85.8960414,48.5149658 C85.9182221,48.3951834 85.9419325,48.3508195 86.021477,48.3508195 C86.1132591,48.3508195 86.1132591,48.4395472 86.1132591,48.5482387 C86.1132591,48.8011126 86.021477,49.5486436 85.9641131,49.7682447 C85.8838038,50.0529127 85.7813137,50.0529127 85.3461134,50.0529127 C84.4864208,50.0529127 83.8569483,50.0307308 83.3636194,50.0196399 C82.8710553,49.9974579 82.5169292,49.9878458 82.1727462,49.9878458 C82.0457809,49.9878458 81.7941449,49.9878458 81.5187985,49.9974579 C81.2564546,49.9974579 80.9589275,50.0196399 80.7294722,50.0196399 C80.5787965,50.0196399 80.499252,49.9878458 80.499252,49.910209 C80.499252,49.8554936 80.5451431,49.8222207 80.684346,49.8222207 C80.8556726,49.8222207 80.992581,49.8000388 81.0958359,49.7778568 C81.3245263,49.7349718 81.3818902,49.4939282 81.4277812,49.1759872 C81.4851451,48.7146031 81.4851451,47.8465504 81.4851451,46.8365333 L81.4851451,44.903748" id="Fill-19" fill="#6D6E70"></path>
            <path d="M89.1762056,46.0246747 C89.1762056,47.1877471 89.1876784,48.0336179 89.1991511,48.2421281 C89.2106239,48.517184 89.2335694,48.9563861 89.3245867,49.0761685 C89.4737327,49.2854181 89.9204057,49.5161101 90.8259894,49.5161101 C91.9946819,49.5161101 92.7725355,49.296509 93.4609015,48.7256941 C94.1936289,48.1216063 94.423849,47.1234195 94.423849,45.9914018 C94.423849,44.5976374 93.8157924,43.6970511 93.3232283,43.246758 C92.2692635,42.2811047 90.9628978,42.149492 90.0687868,42.149492 C89.8400964,42.149492 89.4163688,42.1812861 89.3245867,42.2256499 C89.2220967,42.2692744 89.1876784,42.3254686 89.1876784,42.445251 C89.1762056,42.8179074 89.1762056,43.7746879 89.1762056,44.6420012 L89.1762056,46.0246747 Z M87.7436395,44.8172385 C87.7436395,43.1484181 87.7436395,42.8400893 87.7214588,42.4896149 C87.6977484,42.1162191 87.6067311,41.9409819 87.227365,41.8633451 C87.1363477,41.8411632 86.9413107,41.8300722 86.7814568,41.8300722 C86.6552564,41.8300722 86.5864198,41.8078903 86.5864198,41.7324717 C86.5864198,41.654835 86.6667291,41.6326531 86.8380558,41.6326531 C87.4461124,41.6326531 88.167367,41.665926 88.4878396,41.665926 C88.8442602,41.665926 89.5655148,41.6326531 90.2538808,41.6326531 C91.6856821,41.6326531 93.5985747,41.6326531 94.8475765,42.8844532 C95.4196852,43.4552681 95.9589052,44.3669453 95.9589052,45.6742003 C95.9589052,47.0568737 95.3508486,48.1112547 94.7099033,48.736785 C94.1821561,49.2521452 92.9920478,50.032949 90.8711156,50.032949 C90.4596258,50.032949 89.9900072,49.9996761 89.554042,49.9664032 C89.1188418,49.9331303 88.7180598,49.8998574 88.4304758,49.8998574 C88.3050402,49.8998574 88.0526393,49.8998574 87.7780578,49.9109484 C87.514949,49.9109484 87.2158922,49.9331303 86.9872017,49.9331303 C86.8380558,49.9331303 86.7577464,49.8998574 86.7577464,49.8244389 C86.7577464,49.7689841 86.8036375,49.7357112 86.9413107,49.7357112 C87.1149319,49.7357112 87.2518402,49.7135293 87.3550951,49.6913473 C87.5837856,49.6484623 87.6411494,49.4066793 87.6870405,49.0879989 C87.7436395,48.6266148 87.7436395,47.7600408 87.7436395,46.7500237 L87.7436395,44.8172385 Z" id="Fill-21" fill="#6D6E70"></path>
            <path d="M98.0273571,44.8172385 C98.0273571,43.1484181 98.0273571,42.8400893 98.0044116,42.4896149 C97.9814661,42.1162191 97.8675032,41.9298909 97.6151024,41.8751755 C97.4896668,41.8419026 97.3405208,41.8300722 97.2036125,41.8300722 C97.0873551,41.8300722 97.0185185,41.8101085 97.0185185,41.7213808 C97.0185185,41.654835 97.1103007,41.6326531 97.2931001,41.6326531 C97.72983,41.6326531 98.4510846,41.665926 98.7845597,41.665926 C99.070614,41.665926 99.7459776,41.6326531 100.181943,41.6326531 C100.331089,41.6326531 100.422106,41.654835 100.422106,41.7213808 C100.422106,41.8101085 100.354034,41.8300722 100.239307,41.8300722 C100.123049,41.8300722 100.032032,41.8419026 99.8943587,41.8633451 C99.5853588,41.9187999 99.4935767,42.1058675 99.4706312,42.4896149 C99.4476856,42.8400893 99.4476856,43.1484181 99.4476856,44.8172385 L99.4476856,46.7500237 C99.4476856,47.8140169 99.4476856,48.6813302 99.4935767,49.1538053 C99.527995,49.4510431 99.6083044,49.6484623 99.9517225,49.6913473 C100.111576,49.7135293 100.365507,49.7357112 100.536834,49.7357112 C100.662269,49.7357112 100.720398,49.7689841 100.720398,49.8236995 C100.720398,49.9013362 100.627851,49.9331303 100.502415,49.9331303 C99.7459776,49.9331303 99.024723,49.9013362 98.7134286,49.9013362 C98.4510846,49.9013362 97.72983,49.9331303 97.2701545,49.9331303 C97.1217734,49.9331303 97.0414641,49.9013362 97.0414641,49.8236995 C97.0414641,49.7689841 97.0873551,49.7357112 97.226558,49.7357112 C97.3978847,49.7357112 97.534793,49.7135293 97.6380479,49.6913473 C97.8675032,49.6484623 97.935575,49.4621341 97.9699933,49.1434537 C98.0273571,48.6813302 98.0273571,47.8140169 98.0273571,46.7500237 L98.0273571,44.8172385" id="Fill-23" fill="#6D6E70"></path>
            <path d="M104.432797,42.4008872 L102.726414,42.445251 C102.060229,42.4674329 101.786412,42.5206696 101.614321,42.7624526 C101.500358,42.9265988 101.442994,43.0596904 101.420049,43.1469393 C101.397103,43.2349276 101.362685,43.2792915 101.293848,43.2792915 C101.214304,43.2792915 101.191358,43.2245761 101.191358,43.1040543 C101.191358,42.9265988 101.408576,41.9284121 101.431521,41.8411632 C101.46594,41.69772 101.500358,41.6326531 101.56843,41.6326531 C101.660212,41.6326531 101.774175,41.7413445 102.060229,41.7642658 C102.393704,41.7975387 102.828904,41.8189813 103.206741,41.8189813 L107.743837,41.8189813 C108.111731,41.8189813 108.363367,41.7857084 108.534693,41.7642658 C108.70602,41.7309929 108.797802,41.7080716 108.843693,41.7080716 C108.924003,41.7080716 108.935475,41.7746174 108.935475,41.9387637 C108.935475,42.1701951 108.901057,42.9265988 108.901057,43.2134851 C108.889584,43.3221765 108.866639,43.3887223 108.797802,43.3887223 C108.70602,43.3887223 108.683839,43.3347463 108.671602,43.1691212 L108.660129,43.0485994 C108.637948,42.7624526 108.328949,42.456342 107.308637,42.43416 L105.865363,42.4008872 L105.865363,46.9016002 C105.865363,47.9116173 105.865363,48.7789307 105.921962,49.2521452 C105.95638,49.5589952 106.025217,49.8000388 106.368635,49.8444026 C106.528489,49.8665846 106.78242,49.8887665 106.953746,49.8887665 C107.079182,49.8887665 107.137311,49.9220394 107.137311,49.9760154 C107.137311,50.0536521 107.045528,50.086925 106.919328,50.086925 C106.16289,50.086925 105.441636,50.0536521 105.119633,50.0536521 C104.856525,50.0536521 104.13527,50.086925 103.675594,50.086925 C103.527213,50.086925 103.446904,50.0536521 103.446904,49.9760154 C103.446904,49.9220394 103.492795,49.8887665 103.631998,49.8887665 C103.803325,49.8887665 103.940998,49.8665846 104.043488,49.8444026 C104.272943,49.8000388 104.341015,49.5589952 104.375433,49.2403148 C104.432797,48.7789307 104.432797,47.9116173 104.432797,46.9016002 L104.432797,42.4008872" id="Fill-25" fill="#6D6E70"></path>
            <path d="M113.823886,44.8172385 C113.823886,43.1484181 113.823886,42.8400893 113.800941,42.4896149 C113.777995,42.1162191 113.686213,41.9409819 113.309142,41.8633451 C113.21583,41.8419026 113.021558,41.8300722 112.860939,41.8300722 C112.735503,41.8300722 112.666667,41.8101085 112.666667,41.7324717 C112.666667,41.654835 112.746211,41.6326531 112.918303,41.6326531 C113.526359,41.6326531 114.247614,41.665926 114.591797,41.665926 C114.867143,41.665926 115.587633,41.6326531 116.001417,41.6326531 C116.172744,41.6326531 116.253054,41.654835 116.253054,41.7324717 C116.253054,41.8101085 116.184217,41.8300722 116.068724,41.8300722 C115.942524,41.8300722 115.873687,41.8419026 115.736779,41.8633451 C115.427779,41.9187999 115.335997,42.1058675 115.313051,42.4896149 C115.290106,42.8400893 115.290106,43.1484181 115.290106,44.8172385 L115.290106,46.3551854 C115.290106,47.946369 115.622051,48.6170026 116.184217,49.0562048 C116.699727,49.4621341 117.225944,49.5050191 117.616783,49.5050191 C118.120055,49.5050191 118.738055,49.3519638 119.19773,48.9127617 C119.827203,48.3086738 119.861621,47.3208387 119.861621,46.188821 L119.861621,44.8172385 C119.861621,43.1484181 119.861621,42.8400893 119.838675,42.4896149 C119.814965,42.1162191 119.723948,41.9409819 119.346111,41.8633451 C119.255094,41.8419026 119.060057,41.8300722 118.934621,41.8300722 C118.806891,41.8300722 118.738055,41.8101085 118.738055,41.7324717 C118.738055,41.654835 118.818364,41.6326531 118.978218,41.6326531 C119.563329,41.6326531 120.286113,41.665926 120.296056,41.665926 C120.435259,41.665926 121.155749,41.6326531 121.602422,41.6326531 C121.762276,41.6326531 121.842585,41.654835 121.842585,41.7324717 C121.842585,41.8101085 121.775278,41.8300722 121.63684,41.8300722 C121.51064,41.8300722 121.441803,41.8419026 121.304895,41.8633451 C120.995895,41.9187999 120.904113,42.1058675 120.881932,42.4896149 C120.858222,42.8400893 120.858222,43.1484181 120.858222,44.8172385 L120.858222,45.9914018 C120.858222,47.209929 120.732786,48.506093 119.769839,49.296509 C118.956802,49.9664032 118.131528,50.0876644 117.385798,50.0876644 C116.779271,50.0876644 115.679415,50.0551309 114.843433,49.3297819 C114.258322,48.8255128 113.823886,48.0129148 113.823886,46.419513 L113.823886,44.8172385" id="Fill-27" fill="#6D6E70"></path>
            <path d="M124.03652,48.6258754 C124.059465,49.4828372 124.208611,49.7667659 124.437302,49.8444026 C124.631574,49.9109484 124.850321,49.9220394 125.033886,49.9220394 C125.160086,49.9220394 125.228923,49.9442213 125.228923,50.0092883 C125.228923,50.0972766 125.125668,50.1194585 124.965049,50.1194585 C124.220084,50.1194585 123.761938,50.0861856 123.544721,50.0861856 C123.441466,50.0861856 122.902246,50.1194585 122.307192,50.1194585 C122.158046,50.1194585 122.055556,50.1083676 122.055556,50.0092883 C122.055556,49.9442213 122.124392,49.9220394 122.238355,49.9220394 C122.386736,49.9220394 122.593246,49.9109484 122.7531,49.8665846 C123.050627,49.7785962 123.096518,49.4606553 123.107991,48.506093 L123.211246,42.0053094 C123.211246,41.7864478 123.245664,41.6326531 123.361156,41.6326531 C123.487357,41.6326531 123.589082,41.7746174 123.784884,41.9720366 C123.922557,42.1147403 125.663358,43.9055612 127.335323,45.4967448 C128.115471,46.242797 129.662,47.8251078 129.856272,48.0003451 L129.913636,48.0003451 L129.799673,43.0707814 C129.7882,42.4008872 129.684945,42.192377 129.410364,42.0814674 C129.239037,42.0171398 128.962161,42.0171398 128.802307,42.0171398 C128.664634,42.0171398 128.618743,41.9838669 128.618743,41.9173211 C128.618743,41.8300722 128.744943,41.8189813 128.91627,41.8189813 C129.513619,41.8189813 130.062782,41.8522541 130.302945,41.8522541 C130.428381,41.8522541 130.865111,41.8189813 131.426511,41.8189813 C131.574892,41.8189813 131.688855,41.8300722 131.688855,41.9173211 C131.688855,41.9838669 131.620783,42.0171398 131.48311,42.0171398 C131.368383,42.0171398 131.277365,42.0171398 131.140457,42.0496733 C130.819984,42.1369222 130.726673,42.3676143 130.716729,42.9820537 L130.588999,49.9109484 C130.588999,50.1527314 130.543108,50.2503319 130.442148,50.2503319 C130.314418,50.2503319 130.176745,50.1305495 130.051309,50.0092883 C129.330054,49.3497456 127.863835,47.9116173 126.672197,46.7818178 C125.42243,45.5965635 124.151248,44.2227628 123.944738,44.0142527 L123.910319,44.0142527 L124.03652,48.6258754" id="Fill-29" fill="#6D6E70"></path>
            <path d="M134.539703,44.8172385 C134.539703,43.1484181 134.539703,42.8400893 134.516757,42.4896149 C134.493812,42.1162191 134.379849,41.9298909 134.127448,41.8751755 C134.002012,41.8419026 133.853631,41.8300722 133.715958,41.8300722 C133.599701,41.8300722 133.530864,41.8101085 133.530864,41.7213808 C133.530864,41.654835 133.624176,41.6326531 133.806975,41.6326531 C134.242176,41.6326531 134.96343,41.665926 135.296905,41.665926 C135.58296,41.665926 136.258323,41.6326531 136.694288,41.6326531 C136.843434,41.6326531 136.934452,41.654835 136.934452,41.7213808 C136.934452,41.8101085 136.86638,41.8300722 136.751652,41.8300722 C136.635395,41.8300722 136.544378,41.8419026 136.406704,41.8633451 C136.097705,41.9187999 136.005922,42.1058675 135.983742,42.4896149 C135.960031,42.8400893 135.960031,43.1484181 135.960031,44.8172385 L135.960031,46.7500237 C135.960031,47.8140169 135.960031,48.6813302 136.005922,49.1538053 C136.040341,49.4510431 136.12065,49.6484623 136.464068,49.6913473 C136.624687,49.7135293 136.877853,49.7357112 137.049179,49.7357112 C137.17538,49.7357112 137.232744,49.7689841 137.232744,49.8236995 C137.232744,49.9013362 137.140961,49.9331303 137.014761,49.9331303 C136.258323,49.9331303 135.537069,49.9013362 135.228069,49.9013362 C134.96343,49.9013362 134.242176,49.9331303 133.784795,49.9331303 C133.634119,49.9331303 133.55381,49.9013362 133.55381,49.8236995 C133.55381,49.7689841 133.599701,49.7357112 133.738904,49.7357112 C133.91023,49.7357112 134.047904,49.7135293 134.151158,49.6913473 C134.379849,49.6484623 134.447921,49.4621341 134.482339,49.1434537 C134.539703,48.6813302 134.539703,47.8140169 134.539703,46.7500237 L134.539703,44.8172385" id="Fill-31" fill="#6D6E70"></path>
            <path d="M145.459294,46.1444571 C145.459294,43.6852208 143.981602,42.1583647 142.103127,42.1583647 C140.783759,42.1583647 139.284651,42.8622712 139.284651,45.5965635 C139.284651,47.8798232 140.600195,49.6913473 142.801436,49.6913473 C143.602235,49.6913473 145.459294,49.3179515 145.459294,46.1444571 M137.703704,45.935947 C137.703704,44.0586165 138.997067,41.6326531 142.435073,41.6326531 C145.287967,41.6326531 147.063187,43.2238367 147.063187,45.7385278 C147.063187,48.253219 145.230603,50.2399803 142.320345,50.2399803 C139.031485,50.2399803 137.703704,47.8798232 137.703704,45.935947" id="Fill-33" fill="#6D6E70"></path>
            <path d="M150.117532,48.6258754 C150.140477,49.4828372 150.288858,49.7667659 150.517549,49.8444026 C150.712586,49.9109484 150.931333,49.9220394 151.114898,49.9220394 C151.240333,49.9220394 151.30917,49.9442213 151.30917,50.0092883 C151.30917,50.0972766 151.205915,50.1194585 151.046061,50.1194585 C150.300331,50.1194585 149.84295,50.0861856 149.624968,50.0861856 C149.522478,50.0861856 148.983257,50.1194585 148.387438,50.1194585 C148.239057,50.1194585 148.135802,50.1083676 148.135802,50.0092883 C148.135802,49.9442213 148.204639,49.9220394 148.318602,49.9220394 C148.467748,49.9220394 148.673493,49.9109484 148.834112,49.8665846 C149.131639,49.7785962 149.17753,49.4606553 149.190532,48.506093 L149.291492,42.0053094 C149.291492,41.7864478 149.325911,41.6326531 149.442168,41.6326531 C149.568369,41.6326531 149.670859,41.7746174 149.865131,41.9720366 C150.002804,42.1147403 151.743605,43.9055612 153.416335,45.4967448 C154.196483,46.242797 155.743012,47.8251078 155.937284,48.0003451 L155.994648,48.0003451 L155.87992,43.0707814 C155.869212,42.4008872 155.765957,42.192377 155.490611,42.0814674 C155.319284,42.0171398 155.043173,42.0171398 154.882554,42.0171398 C154.745646,42.0171398 154.699755,41.9838669 154.699755,41.9173211 C154.699755,41.8300722 154.825955,41.8189813 154.997282,41.8189813 C155.593866,41.8189813 156.143029,41.8522541 156.383192,41.8522541 C156.510922,41.8522541 156.946122,41.8189813 157.506758,41.8189813 C157.655139,41.8189813 157.769867,41.8300722 157.769867,41.9173211 C157.769867,41.9838669 157.701795,42.0171398 157.564122,42.0171398 C157.449394,42.0171398 157.357612,42.0171398 157.220704,42.0496733 C156.900231,42.1369222 156.806919,42.3676143 156.796976,42.9820537 L156.671541,49.9109484 C156.671541,50.1527314 156.62412,50.2503319 156.52316,50.2503319 C156.39543,50.2503319 156.257756,50.1305495 156.131556,50.0092883 C155.411066,49.3497456 153.944082,47.9116173 152.752444,46.7818178 C151.503442,45.5965635 150.231494,44.2227628 150.02575,44.0142527 L149.991331,44.0142527 L150.117532,48.6258754" id="Fill-35" fill="#6D6E70"></path>
            <path d="M157.543798,7.02425839 C157.780902,5.91368322 158.585525,5.09664889 159.564534,4.49256106 C160.573373,3.86998829 162.02812,3.30730673 163.521109,3.46405902 C163.807163,3.49363492 164.320378,3.58679902 164.591901,3.75464227 C164.609492,3.76573323 164.629378,3.77830299 164.643911,3.79235155 C164.684448,3.82192745 164.717336,3.85076396 164.740282,3.88699444 C164.760168,3.92026733 164.7747,3.95354022 164.7747,3.9897707 C164.796116,4.24412347 164.28749,4.4201001 164.011379,4.51917937 C163.062963,4.85930226 161.878209,4.99830901 160.928264,5.28297708 C159.567594,5.69038515 158.601587,6.39503104 157.543798,7.02425839 M165.567851,4.28257215 C165.592326,5.7643249 163.318424,5.9195984 162.046476,6.23384237 C161.444538,6.38246128 160.880843,6.57840164 160.409695,6.78765116 C159.854413,7.03387056 159.417683,7.39913296 158.935062,7.57880657 C158.554166,7.72151031 158.286468,7.76883175 157.926223,7.60468549 C158.019535,7.05753128 158.716314,6.91039116 159.182109,6.70853562 C159.663965,6.5000255 160.169532,6.24197574 160.711046,6.07413249 C161.84838,5.72217924 163.236584,5.69703972 164.067213,5.09886708 C164.36627,4.88296298 164.524594,4.56650082 164.7747,4.33285118 C164.874131,4.25225684 164.975856,4.17609889 165.076051,4.09624395 C165.196898,4.04670432 165.31239,3.9897707 165.404173,3.91287335 C165.411056,3.77386661 165.320804,3.72802396 165.238965,3.67404793 C164.882544,3.41304059 164.622495,3.00045673 164.202591,2.8570136 C163.157805,2.4917512 161.825434,2.75423734 160.846425,3.09362083 C159.821524,3.45222866 158.949594,3.97867974 158.362953,4.46594275 L158.336948,4.46594275 C158.092961,4.66188311 157.861211,4.86817503 157.653936,5.09886708 C157.01605,5.69038515 156.782006,6.54069237 156.425585,7.34219935 C156.077578,8.12743958 155.672207,8.91267982 155.360913,9.74080511 C154.732205,11.427371 154.285532,13.2403739 153.85951,15.1243589 C153.801381,13.6196848 154.104262,12.1497624 154.488218,10.8240226 C154.869113,9.50863427 155.3242,8.27014332 155.907781,7.20910778 C156.232843,6.6227655 156.486009,6.09705382 156.862315,5.62679695 C157.956052,4.25669323 159.595893,3.30213095 161.638046,2.77567987 C161.752008,2.78233445 161.84838,2.77124348 161.910333,2.72392204 L161.938632,2.72392204 C162.088543,2.72687963 162.220862,2.71726746 162.319528,2.67216421 L162.347063,2.67216421 C162.835802,2.64924288 163.393379,2.62114577 163.875235,2.67216421 L163.903535,2.67216421 C164.038913,2.72392204 164.212534,2.74240698 164.36627,2.77567987 C164.714277,2.90729264 165.52043,3.25776709 165.567851,3.62155071 C165.583913,3.73541793 165.464596,3.77830299 165.458477,3.91287335 C165.456947,4.020086 165.567851,4.17166251 165.567851,4.28257215 M168.461282,5.91590141 C168.34732,4.388306 167.429498,3.40342842 166.303637,2.77567987 C165.160185,2.14127674 163.502753,1.90393012 161.773424,2.22261048 C159.898009,2.57234553 158.148795,3.58532022 156.971689,4.78166551 C156.803422,4.95394515 156.6581,5.14027334 156.502835,5.32068635 C156.471476,5.35543804 156.440882,5.39166852 156.409523,5.427899 C155.488643,6.52812261 154.781155,7.79249248 154.241935,9.26685126 C153.981886,9.97667294 153.743253,10.7271615 153.526035,11.5205351 C153.517621,11.5493716 153.509208,11.5774687 153.504619,11.6063052 C153.24457,12.535728 153.03653,13.4880721 152.895798,14.477386 C152.872087,14.6467081 152.845317,14.8175089 152.824666,14.9912674 C152.616627,16.5573114 152.570736,18.4900967 152.878206,19.950407 C152.974577,20.415488 153.069419,21.0062667 153.478614,21.1659766 C153.688948,20.9840848 153.666003,20.7060713 153.723366,20.4783368 C154.68096,16.6637847 157.204204,14.6629748 160.491534,13.091755 C162.226216,12.2628903 164.093218,11.6647176 165.703229,10.6924098 C167.271174,9.74598089 168.654025,8.46904127 168.461282,5.91590141 M154.434678,27.6016931 C154.253408,27.6002144 154.222049,27.454553 154.078257,27.4183225 C153.723366,27.0752421 153.337117,26.7639557 152.686993,26.7055433 C152.824666,26.5628395 153.246099,26.5946336 153.478614,26.6264277 C153.943644,26.7321616 154.720732,27.1824547 154.434678,27.6016931 M152.304568,30.0291354 C152.094998,30.2058514 151.961149,30.461683 151.759994,30.6088231 C151.535892,30.7737088 151.170293,30.7463511 150.913303,30.8476485 C150.8024,30.8905336 150.722091,31.0465465 150.585947,31.0576375 C150.000836,31.1034801 149.819566,29.9655472 149.87693,29.3429745 C149.883049,29.2830833 149.953415,28.9244754 149.93047,29.1063672 C149.904465,29.7304188 150.032195,30.2028939 150.312895,30.530447 L150.312895,30.52675 C150.312895,30.5282288 150.314425,30.530447 150.314425,30.5326652 C150.324368,30.5555865 150.380202,30.6768477 150.458217,30.6975508 C150.463571,30.6975508 150.46969,30.7005084 150.475044,30.7005084 C150.483457,30.707163 150.49646,30.7115994 150.512521,30.7160358 C150.582888,30.7323025 150.707559,30.7323025 150.749625,30.7419147 C150.923247,30.6990296 150.976786,30.5045681 151.104516,30.3973554 C151.298788,30.2361667 151.565721,30.1903241 151.785999,30.0557537 C151.984095,29.9337531 152.152362,29.7415098 152.359637,29.6069394 C152.770362,29.3414957 153.168849,29.1204158 153.504619,28.7632868 C153.65147,28.6094921 153.78073,28.3381331 154.052252,28.367709 C154.108851,29.1958343 152.863674,29.5625755 152.304568,30.0291354 M151.294199,27.7865425 C151.57337,27.5284928 151.972622,27.2822734 152.385642,27.2334732 C152.899622,27.1743213 153.52374,27.4183225 153.559688,27.7591848 C153.599461,28.1163139 153.125253,28.3773212 152.850671,28.5244613 C152.488897,28.7204017 152.1363,28.8313113 151.867838,28.999894 C151.29267,29.3651564 150.932425,29.8635104 150.656313,30.454289 C150.605833,30.52675 150.514051,30.634702 150.439096,30.6265687 C150.422269,30.6169565 150.404677,30.6088231 150.387086,30.5932958 C150.357257,30.5600229 150.335841,30.4949559 150.322838,30.3877432 C150.38938,29.349629 150.660138,28.3728848 151.294199,27.7865425 M152.665577,26.1221586 C152.642632,26.1280738 152.621216,26.1384253 152.605154,26.1509951 C152.622746,26.1384253 152.642632,26.1280738 152.665577,26.1221586 M152.744357,26.1051524 C152.722941,26.1066312 152.704585,26.1110676 152.686993,26.115504 C152.701525,26.1125464 152.716058,26.10811 152.732119,26.1051524 C152.62657,26.1206798 152.521785,26.126595 152.413941,26.1509951 C151.447934,26.3639416 150.72668,26.8334591 150.231056,27.3643465 C149.733138,27.9018886 149.270403,28.6479407 149.193153,29.6609154 C149.03177,31.8162594 150.273888,33.1915389 151.785999,33.7764024 C154.658779,34.8854987 157.182788,32.9431013 157.490258,30.5555865 C157.624107,29.5293027 157.334993,28.516328 156.752942,27.7340453 C155.987326,26.7040645 154.553995,25.8360117 152.744357,26.1051524" id="Fill-37" fill="#DA2246"></path>
            <path d="M143.291197,26.2427997 C142.720618,27.3600294 141.58252,28.2421308 140.481134,28.8269943 C139.710929,29.2358811 138.847412,29.6041011 137.914294,29.882854 C136.987295,30.1593887 135.947097,30.449972 134.858714,30.3316683 C135.260261,30.0580912 135.755884,30.0314729 136.195674,29.9094723 C138.829821,29.1856021 141.40125,28.0047841 142.717559,25.9788348 C142.947779,25.6268815 143.157348,25.1839824 143.48241,24.8712172 L143.53595,24.8712172 C143.71416,25.367353 143.490824,25.850919 143.291197,26.2427997 M130.928144,25.7148698 C130.187768,26.0328108 129.190402,26.5999287 128.773559,27.1929256 C128.659596,27.3518961 128.579286,27.7474738 128.391133,27.7474738 C128.264933,27.7474738 128.154029,27.5308303 128.146381,27.3762962 C128.111962,26.7707296 128.850809,26.2287511 129.264593,25.9522164 C129.798459,25.5965662 130.449347,25.2520069 131.064288,25.1854612 C131.276916,25.164758 131.582092,25.157364 131.7473,25.2934132 C131.582092,25.5729055 131.20655,25.5965662 130.928144,25.7148698 M142.463628,23.7998301 C142.477396,23.8279272 142.491928,23.8567637 142.503401,23.8848608 C142.491928,23.8567637 142.477396,23.8279272 142.463628,23.7998301 M130.41034,16.5345094 C130.28261,16.7807288 130.241308,17.1807429 129.97361,17.2472887 C129.601127,16.7511529 129.949135,16.1884714 130.191592,15.7965906 C130.940382,14.5950696 132.268928,13.790605 133.576823,13.1835596 C135.413231,12.3302948 137.516572,11.6005093 139.879197,11.4437571 C140.16984,11.4237933 140.482664,11.3905204 140.751892,11.469636 C140.560679,11.6604005 140.263917,11.6589218 140.01687,11.707722 C138.139925,12.0663298 136.370825,12.5550716 134.776875,13.2375356 C133.045252,13.9776726 131.212669,14.9906473 130.41034,16.5345094 M147.683737,21.7842323 C146.011773,19.2325712 141.326295,19.421857 137.641242,18.6979868 C136.534503,18.4798645 134.973442,18.1338264 135.049927,16.9293477 C135.077461,16.4731394 135.391815,16.1389317 135.785713,15.8705304 C136.025877,15.7093417 136.294339,15.5747714 136.550565,15.4535102 C137.487507,15.0061746 138.777046,14.6002453 139.853192,15.057193 C140.611924,15.3810492 141.152674,15.9052821 142.009307,16.2180473 C142.823873,16.5138063 143.854893,16.3888481 144.682462,16.1648106 C145.175791,16.0317191 145.630877,15.8638758 146.075255,15.6634991 C146.858463,15.3093276 147.913957,14.7976645 148.038628,13.844581 C148.143413,13.0415952 147.108569,12.3243796 146.647364,11.9968264 C145.360884,11.0851492 143.779937,10.4973281 141.79056,10.4130368 C140.796253,10.37237 139.725462,10.5949286 138.896363,10.7561173 C136.506203,11.2271136 134.289665,12.0064386 132.429547,13.0778257 C131.610391,13.5517796 130.665035,14.1765705 129.97361,14.9780775 C129.364024,15.6886386 128.658066,16.8613232 128.937237,18.1700569 C128.950239,18.2321663 128.973185,18.2839241 128.991541,18.3423365 C128.991541,18.3467729 128.993071,18.3504699 128.994601,18.3534275 C129.07338,18.6270046 129.198816,18.862133 129.35714,19.0706431 C129.367083,19.0832129 129.377026,19.0957827 129.386969,19.1090918 C129.819875,19.6665976 130.482236,20.0525631 131.173661,20.3335342 C132.218448,20.757209 133.526343,21.0241316 134.72257,21.2563024 C135.617446,21.432279 136.633933,21.5712858 137.634359,21.7406078 C137.665718,21.7450442 137.691722,21.7480018 137.719257,21.7561352 C137.822512,21.7738807 137.923472,21.7908868 138.023668,21.807893 L138.023668,21.8093718 C138.032081,21.8093718 138.035141,21.8093718 138.03973,21.8130688 C138.072618,21.8130688 138.097094,21.8197234 138.121569,21.8271173 C138.142985,21.8271173 138.160576,21.8322931 138.178933,21.8367295 C138.341081,21.865566 138.500935,21.8995783 138.661554,21.9313724 C138.667672,21.9313724 138.676086,21.93433 138.679145,21.9365482 C138.945313,21.9912636 139.207657,22.0467184 139.460823,22.114743 C139.478415,22.1177006 139.498301,22.1228764 139.515892,22.1295309 C140.418417,22.360223 141.22457,22.6663336 141.816564,23.104057 C142.440683,23.5639623 142.781042,24.4083543 142.417737,25.3185527 C142.171455,25.9426043 141.741609,26.4734917 141.203919,26.9289607 C141.185562,26.9430092 141.1695,26.9585366 141.151144,26.9733245 C141.141201,26.9814579 141.136612,26.9858943 141.128198,26.9955064 C141.054773,27.0539188 140.975993,27.1152888 140.896449,27.1737013 C140.840614,27.2121499 140.789369,27.2498592 140.73736,27.2875685 C139.959506,27.8295469 139.025623,28.2502641 138.077972,28.5911264 C136.737188,29.0732137 134.190234,29.7482836 132.676594,29.038462 C132.316349,28.8698793 132.070067,28.6465812 131.964517,28.3256827 C131.79625,27.807365 131.992817,27.3097504 132.211564,27.059834 C132.517505,26.7123172 133.120972,26.5814438 133.712967,26.4276491 C134.272073,26.2827272 134.85336,26.0268956 134.80441,25.3969289 C134.768462,24.9126234 134.26213,24.7447802 133.90418,24.6072522 C133.176042,24.3292388 132.458611,24.2486444 131.777129,24.3181478 C131.691466,24.3151902 131.61498,24.3181478 131.554557,24.3403297 C131.551498,24.3403297 131.551498,24.3403297 131.551498,24.3447661 C131.044401,24.4127907 130.560251,24.5614096 130.109753,24.7647439 C129.089442,25.2253886 127.992646,25.9884469 127.518438,26.7973479 C127.024344,27.6387823 127.359349,28.6613692 127.761661,29.4355185 C128.569343,30.987514 129.931543,32.0241494 131.7473,32.5469035 C134.496939,33.3373195 137.824042,32.648201 139.98857,31.9405975 C142.244881,31.2056363 144.482835,30.0514367 146.019421,28.4853926 C146.756738,27.7363828 147.500938,26.8165722 147.90325,25.663112 C148.326212,24.4527181 148.408051,22.8829771 147.683737,21.7842323" id="Fill-39" fill="#DA2246"></path>
            <path d="M103.279307,16.6530612 C103.279307,16.6530612 103.279307,16.65454 103.277778,16.65454 C103.279307,16.65454 103.279307,16.6530612 103.279307,16.6530612" id="Fill-41" fill="#DA2246"></path>
            <path d="M117.97838,21.2717806 C117.693856,21.3634659 117.241064,21.4263147 117.049851,21.2444229 C117.136279,20.9050394 117.538591,20.7956086 117.788697,20.6647352 C118.629269,20.2336664 119.389531,19.699082 120.134496,19.1349216 C120.893228,18.5626279 121.581594,17.9955099 122.153703,17.2620275 C122.407633,16.9329956 122.601905,16.5300239 122.946853,16.258665 C123.356813,16.2143012 123.007276,17.0786569 122.946853,17.2102697 C122.557544,18.0250858 121.73074,18.6905437 121.089795,19.2140372 C120.412901,19.7685853 119.596805,20.3172183 118.797536,20.7956086 C118.519895,20.9634518 118.23537,21.1882287 117.97838,21.2717806 M117.241064,14.3872497 C118.362336,14.4634077 119.758954,14.5040745 120.790738,14.8161003 C120.832805,14.8286701 120.877166,14.8441974 120.921527,14.858246 C121.066849,14.9070462 121.200698,14.9595435 121.328428,15.0246104 C121.373554,15.0467924 121.420975,15.0682349 121.467631,15.0941138 C121.65349,15.1998477 121.812579,15.3233271 121.936485,15.4667702 C122.567487,16.2061678 121.683319,17.006196 121.145629,17.5259925 C119.8798,18.7489561 118.239959,19.8380887 116.614651,20.612238 C116.82422,18.5345308 117.035319,16.4642175 117.241064,14.3872497 M100.703453,12.9350729 C99.7519785,13.1088313 98.4440831,13.2744564 97.920925,13.8327015 C97.7687196,13.995369 97.6233979,14.6334691 97.3748213,14.6231176 C97.0857075,14.6120266 97.1537793,14.1262424 97.2111431,13.9369566 C97.5415588,12.8544785 99.1041496,12.8589149 100.377627,12.6711079 C103.024776,12.2821848 105.964099,11.9694196 108.754276,11.8274553 C108.801697,11.8193219 108.807051,11.847419 108.80858,11.8806919 C106.278453,12.1919783 103.276412,12.4670342 100.703453,12.9350729 M101.216668,27.0021119 C101.206725,26.9629238 101.199077,26.91856 101.190663,26.8727173 L101.190663,26.8631052 C101.196782,26.9133842 101.205196,26.961445 101.216668,27.0021119 M101.172307,26.6183646 C101.172307,26.6368495 101.173837,26.654595 101.173837,26.6752982 C101.173837,26.654595 101.172307,26.6368495 101.172307,26.6183646 M97.5935687,19.9001981 C97.3618188,20.1294114 97.1981407,20.6506867 96.8837869,20.1634236 C96.8486037,19.6598939 97.2639179,19.3914926 97.566034,19.1600611 C97.9943507,18.8376838 98.3767762,18.5197428 98.711781,18.1056802 C98.8800482,17.8986488 98.9932462,17.6694356 99.3121891,17.6036292 C99.8238745,18.8169806 98.1970362,19.30868 97.5935687,19.9001981 M104.525414,27.8664677 C105.561787,27.7060184 106.699886,27.5381752 107.881581,27.6032421 C107.129732,27.8575949 106.305988,27.9263589 105.479948,28.0786748 C105.081461,28.149657 104.673795,28.2132451 104.279897,28.3138032 C103.742207,28.45281 103.26494,28.6997688 102.642351,28.5526286 C103.00642,28.1134265 103.794981,27.9788561 104.525414,27.8664677 M127.254495,17.1843908 C127.244551,17.2006575 127.233079,17.2161849 127.221606,17.2324516 C127.233079,17.2161849 127.244551,17.2006575 127.254495,17.1843908 M127.58644,16.677164 C127.583381,16.6838186 127.579556,16.688255 127.578027,16.6934308 C127.579556,16.688255 127.583381,16.6838186 127.58644,16.677164 M120.706604,23.1180564 C123.049343,21.3634659 125.580235,19.6643303 127.230019,17.2886458 C127.519133,16.8731044 127.776123,16.4257689 127.962747,15.9296331 C128.031583,15.7514383 128.089712,15.5725041 128.131014,15.3876547 C128.148605,15.3166725 128.171551,15.2501267 128.184554,15.1776657 C128.349761,14.2719037 128.080534,13.4689179 127.530606,12.8825756 C126.570718,11.8555524 124.937761,11.3039618 123.218375,10.9564449 C120.608703,10.4285151 117.476638,10.2688052 114.51437,10.5342489 C114.033278,10.5786128 113.551422,10.5985765 113.069566,10.616322 L113.044326,10.616322 C112.96937,10.6178008 112.895945,10.6192796 112.824049,10.6229766 C112.814106,10.6229766 112.805692,10.6229766 112.799574,10.6244554 C112.365903,10.6355464 111.936057,10.6466373 111.510799,10.6673405 C107.454794,10.8499717 103.714672,11.2595979 100.184884,11.8806919 C99.2808302,12.038923 98.1595585,12.1697964 97.484195,12.5394952 C97.1063585,12.7450477 96.7912399,13.2226985 96.5832004,13.6227126 C96.5411336,13.7047858 96.5013613,13.7853801 96.4692376,13.8674532 C96.4592945,13.8911139 96.446292,13.9147747 96.4409381,13.9369566 C96.4195222,13.9857568 96.4019307,14.0345571 96.3889282,14.0840967 C96.3545099,14.183176 96.3315644,14.2815159 96.3101485,14.3776376 C96.2466659,14.6926209 96.2466659,14.9891194 96.3055594,15.2641753 C96.3070891,15.280442 96.3070891,15.2944906 96.3101485,15.3100179 C96.3200916,15.3514242 96.3300347,15.392091 96.3399777,15.4290609 C96.3499208,15.4697278 96.3629232,15.5081765 96.3774554,15.5458857 C96.4049901,15.6198255 96.4348193,15.6893289 96.4692376,15.760311 C96.8187745,16.4531266 97.5706231,16.9315168 98.4945633,17.0520386 C98.398192,17.3714584 98.3737168,17.7589027 98.2758159,18.0790619 C98.0716006,18.1958867 97.8452047,18.3119721 97.6165142,18.4347121 C97.6119251,18.4369303 97.6065711,18.4376697 97.601982,18.4391485 C97.5362048,18.4761184 97.4727222,18.5071731 97.4092396,18.5448823 C96.7728834,18.8983144 96.1602377,19.3212498 96.0110917,20.005932 C95.8382354,20.7911722 96.3300347,21.6052489 96.6650394,21.9823417 C96.7269924,22.0540633 96.8761383,22.1597971 97.0245195,22.2751431 C97.0260492,22.2766219 97.0314031,22.2795795 97.0344625,22.2795795 C97.1423065,22.3823558 97.2570342,22.4792169 97.3702322,22.5657264 C97.3748213,22.5694234 97.3748213,22.5694234 97.3778807,22.5709022 C97.4207123,22.6182236 97.4497767,22.6603693 97.4566603,22.6973392 C97.4956677,22.8585278 97.3618188,23.2171357 97.3205168,23.4877552 C97.0971803,24.9695079 96.9166754,26.2738053 96.7468785,27.6816183 C96.652037,28.4816465 96.4562351,29.2875898 96.6650394,29.9242112 C96.9610368,30.8144458 97.6593459,31.4384974 98.4670286,32.0344519 C99.2762411,32.6304063 100.112988,33.1405906 101.085879,33.3808949 C101.833138,33.5642655 102.509267,33.2529791 103.13415,33.0111961 C103.589236,32.8337406 104.043558,32.6304063 104.416041,32.4573873 C106.109421,31.6839774 107.636829,30.896519 109.24531,29.9515689 C109.91685,29.5582094 111.092426,29.0376735 111.156673,28.2095482 C111.187267,27.8176674 110.94022,27.4398353 110.775777,27.2601617 C110.523377,26.9895421 110.011691,26.6368495 109.600201,26.5488612 C109.041095,26.4268606 108.179108,26.5555158 107.499155,26.6257585 C106.181317,26.7684623 104.98509,26.9451783 103.814103,27.2342827 C103.196103,27.3851199 102.604108,27.7134124 102.041943,27.6298605 C101.693935,27.5773632 101.317629,27.203228 101.251087,26.9710572 C101.160834,26.6597708 101.23426,26.2582779 101.251087,25.9151975 C101.306921,24.7521251 101.420884,23.9365695 101.577678,22.8821886 C103.248878,22.5775568 105.014154,22.1597971 106.62646,21.7472133 C107.73014,21.4647634 109.802887,20.9982035 108.972259,19.5046204 C108.127098,17.9777644 104.826001,18.3334146 102.614816,18.2639113 C102.77467,17.7049267 102.918462,17.132633 103.099732,16.5965697 C102.85345,17.0424264 102.800675,17.681266 102.586517,18.1581774 C102.800675,17.681266 102.85345,17.0409477 103.099732,16.5965697 L103.099732,16.5950909 C103.102791,16.5891757 103.106615,16.5810424 103.109675,16.5743878 C105.939624,16.067161 108.756571,15.5473645 111.566634,15.0194347 C111.475616,19.73827 111.578106,24.8689499 112.056903,29.3171657 C112.138742,30.0698725 112.266472,30.6990998 112.384259,31.4813825 C112.480631,32.1069128 112.557881,33.2071364 113.038207,33.329137 C113.371682,33.4097314 113.745694,33.1583362 113.994271,32.9838384 C114.290268,32.780504 114.571734,32.5779091 114.759887,32.3790111 C116.070842,30.9771133 115.748075,27.8620313 116.095317,25.5469775 C116.552698,25.8072454 116.907589,26.2139141 117.324433,26.5488612 C118.616266,27.5854966 119.924162,28.5415377 121.252708,29.5293728 C122.52695,30.474323 123.747652,31.6263044 125.129738,32.535024 C125.55729,32.8182133 126.12022,33.32544 126.656381,33.329137 C127.197131,33.3306158 127.652982,32.9195108 127.776123,32.4056294 C128.053764,31.2381207 127.334804,30.0573027 126.793289,29.3711418 C124.989006,27.0767911 122.255428,25.3998373 120.706604,23.1180564" id="Fill-43" fill="#DA2246"></path>
            <path d="M39.6242888,20.8782267 C39.1011306,21.4076354 37.8620718,21.4993207 37.0054386,21.4327749 C37.2930226,21.1281431 37.7343417,21.1392341 38.0953514,20.9839606 C38.457126,20.8279477 38.7125863,20.5639828 38.9688114,20.3236785 C39.1753212,20.1358716 39.9990658,19.2108852 40.0067143,20.0863319 C40.008244,20.3880061 39.7650214,20.7362624 39.6242888,20.8782267 M38.1534801,16.6096845 C38.169542,16.584545 38.1878984,16.5638418 38.2085494,16.5387023 C38.4884849,17.7158233 38.8051332,18.9912841 39.0506504,20.1136896 C38.0303391,20.2667449 36.9549584,20.3724788 35.9675356,20.5602858 C36.5832408,19.2360247 37.3718023,17.8592664 38.1534801,16.6096845 M33.320386,19.6641359 C32.1662256,22.2564638 31.1229687,24.9116405 30.181437,27.7376181 C30.0277019,28.2049174 29.8777911,28.6810894 29.744707,29.1631767 C29.6223309,29.6179062 29.5802641,30.1391815 29.2544375,30.5347592 C29.0930539,29.4715055 29.4456503,28.4296943 29.744707,27.4736532 C30.6265804,24.6728151 31.6989016,22.009505 32.8301164,19.400171 C34.1219499,16.4263139 35.5063304,13.393305 37.0054386,10.5111332 C37.2440721,10.0541855 37.4666438,9.59723779 37.76876,9.27190285 C37.7917055,9.26672707 37.7962946,9.28077562 37.7962946,9.29704237 C37.9668564,10.3462475 37.2846092,11.1995124 36.8677654,12.0135891 C35.6065259,14.4853952 34.486019,17.0555412 33.320386,19.6641359 M37.5500126,7.4507666 C37.5844309,7.14909239 37.9079629,6.94206107 38.1236509,7.18680167 C38.4097052,7.50917901 37.9668564,7.90771431 37.8505991,8.16206708 C37.6953343,8.02601792 37.5186537,7.74800443 37.5500126,7.4507666 M45.3820879,28.7395018 C44.8413382,25.074308 44.2592865,21.6701215 43.6083982,18.1868195 C43.1938489,15.95236 42.7357031,13.5167844 42.1895994,11.4065437 C41.6580279,9.34584261 40.5956497,7.31175986 38.8334327,6.47476179 C38.6468091,6.38381589 38.4280616,6.29434878 38.20549,6.26255469 C36.5656492,6.02890505 36.623013,8.16724286 36.8402307,9.534389 C34.8753283,13.0073394 33.1735345,16.8936131 31.4931567,20.8782267 C30.690063,22.7792179 29.8923233,24.7741126 29.1725984,26.8932261 C28.8429476,27.8699703 28.4566978,28.998291 28.2723687,30.1377027 C28.0872747,31.2852477 28.0398539,33.1662752 29.0372198,33.3304214 C29.5114275,33.409537 29.9626896,33.0805051 30.2372712,32.8298493 C31.1397955,32.0009846 31.5206913,30.5990868 31.9574213,29.4522811 C32.5884235,27.7945517 33.2783191,26.2277682 34.0018683,24.7297487 C35.7977387,24.3282559 38.0877029,24.2654071 40.1428578,24.2018189 C40.7822733,26.4776846 40.7914516,29.5055177 42.2714384,30.8778397 C42.5980299,31.1795139 43.1609603,31.4656607 43.6642323,31.7466318 C44.0596603,31.9684511 44.8443976,32.4453625 45.3285483,32.1703066 C45.6956768,31.9603177 45.7040902,31.2571506 45.6276051,30.5347592 C45.5671819,29.9358471 45.4608676,29.251165 45.3820879,28.7395018" id="Fill-45" fill="#DA2246"></path>
            <g id="Group-49" transform="translate(0.000000, 0.051806)">
              <mask id="mask-2" fill="white">
                <use xlink:href="#path-1"></use>
              </mask>
              <g id="Clip-48"></g>
              <path d="M13.4018023,9.20326134 C13.2335351,10.480201 12.8901169,11.5974307 12.6384809,12.8159579 C12.5436394,13.2854754 12.5176344,13.7786536 12.28359,14.1882798 C12.2086346,12.4307318 12.5941195,10.9179243 12.9658372,9.57148133 C13.0683272,9.20474013 13.0178471,8.74187724 13.3482627,8.49048207 C13.5654805,8.67681026 13.4316315,8.98661784 13.4018023,9.20326134 M11.4644345,19.5710943 C11.2602192,19.7049252 10.9825783,19.7685134 10.6735784,19.8601987 C10.3706974,19.9533628 10.1075886,20.1774003 9.91025702,20.1774003 C9.72057394,20.1774003 9.55842551,20.0420905 9.5553661,19.9134353 C9.54542304,19.6036278 10.0326332,19.5489123 10.2911529,19.4380027 C11.0804792,19.1045344 11.5348008,18.2734515 12.0648426,17.6967214 C12.2331098,18.497489 12.0044193,19.2213592 11.4644345,19.5710943 M21.3715508,19.7544649 C23.6293913,19.233929 25.6944893,18.3222517 26.8823031,16.7732138 C27.3588053,16.1558168 27.6609215,15.3942373 28.0823544,14.584597 C28.0907678,14.5564998 28.1381886,14.5668514 28.1381886,14.5313603 C28.1611341,14.5276633 28.1664881,14.5417119 28.1664881,14.5579786 C28.1886687,14.5638938 28.192493,14.584597 28.2200276,14.584597 C28.2024361,16.6940983 26.8471199,18.0945173 25.4099647,18.8849333 C23.9429803,19.6908767 22.0140258,20.0938484 19.978757,20.0968059 C20.4200761,19.8823806 20.9156996,19.8601987 21.3715508,19.7544649 M26.2153529,16.7924381 C26.2551251,16.7591652 26.2895434,16.721456 26.3186078,16.6785709 C26.3591449,16.6297707 26.4088602,16.5883644 26.4463379,16.5366066 C26.3560855,16.6586072 26.2467118,16.7591652 26.1472811,16.8715537 C26.1702267,16.8464142 26.1947019,16.8190565 26.2153529,16.7924381 M6.66116952,1.36786514 C6.03705102,1.46916261 5.4335835,1.59855719 4.83394023,1.73756393 C3.58340867,2.02518959 2.4973201,2.45773718 1.53131315,2.84518151 C1.44794438,2.8784544 1.080051,2.89102416 1.03951389,2.68695043 C0.992093125,2.44664621 1.46783051,2.28397875 1.69499129,2.18489947 C3.53063395,1.39004707 5.99574906,0.927923577 8.57253243,1.04992418 C7.95606244,1.25399791 7.29293653,1.26656767 6.66116952,1.36786514 M29.6671259,20.0701876 C31.2197737,18.7222658 32.2102559,16.8116625 32.4236493,14.4248871 C32.6553992,11.8074196 31.4469345,9.86428278 30.1313905,8.3573905 C28.8349679,6.87341955 27.1622386,5.62679522 25.4374993,4.58498403 C23.6798715,3.52986367 21.7394442,2.63149561 19.6238661,1.89579501 C16.5981151,0.839195867 12.9245352,-0.16268786 8.70867593,0.0221615363 C7.39236718,0.0798345478 6.06840991,0.174477439 4.88747981,0.496854785 C3.48474288,0.884299119 2.03840944,1.20002189 0.875835757,1.8684373 C0.529358206,2.06955345 0.0322049876,2.38527621 0.00237579445,2.76606597 C-0.0328073564,3.26589874 0.329732068,3.5513062 0.62878885,3.77756187 L0.630318552,3.77756187 C0.648674979,3.79382861 0.667031405,3.80787717 0.684622981,3.82044693 C1.3225088,4.30844933 2.21814945,4.79053656 3.2231638,4.82380945 C3.77768085,4.84007619 4.34673007,4.776488 4.7781061,4.58498403 C5.32115038,4.34541921 5.62326657,3.79234982 6.11583068,3.55648199 C6.58162501,3.33466271 7.2325133,3.28660187 7.9285278,3.31322018 C8.69184921,3.34131729 9.51100474,3.45666331 10.2093138,3.53134247 C13.7712254,3.90547765 16.7174319,4.81419728 19.3783489,6.03790028 C20.625821,6.60945461 21.9015927,7.33036726 23.0618718,8.17771689 C23.0932307,8.20137761 23.1238247,8.22355954 23.1551836,8.24722026 C23.5299607,8.52523375 23.8940298,8.81285941 24.2374479,9.11601242 C24.2428019,9.122667 24.2489207,9.12710339 24.2535098,9.13227917 C24.4187176,9.27794049 24.5778067,9.4280382 24.7361309,9.57813591 C25.1958064,10.0269502 25.6172393,10.4994253 25.9820733,10.9970399 C26.5082909,11.7083404 27.0987559,12.6547693 27.1836544,13.6352105 C27.2341346,14.2245103 27.180595,14.750222 27.0444515,15.2249153 C26.9564936,15.4933166 26.8471199,15.7476694 26.7354516,15.9894524 C26.7339219,15.9946281 26.7308625,15.9961069 26.7270383,16.0005433 C26.0784445,17.193931 24.8340318,17.9525529 23.4986018,18.4095007 C21.3371325,19.150377 18.5928468,19.226535 15.6940611,19.0697827 C15.5579176,16.901869 15.3896503,14.8626104 15.1219525,12.7390606 C14.9353288,11.2528714 14.7096977,9.67130001 14.3303316,8.33077219 C14.3188588,8.29010532 14.307386,8.24869906 14.2943836,8.20285641 C14.2783217,8.14740159 14.2599653,8.08603159 14.2393143,8.02614038 C14.1207624,7.6527446 13.9463763,7.27343364 13.6213146,7.27713063 C13.2220623,7.28304581 12.9635426,7.91227316 12.802159,8.22651713 C11.4078355,10.9748579 11.0605931,14.7931071 10.9741649,18.7267022 C9.97068025,18.7333568 9.01079212,18.9211638 8.73621057,19.6753493 C8.34231225,20.7637426 9.52247751,21.7330928 10.2093138,22.1567676 C10.3546355,22.2447559 10.6100958,22.3320048 10.7959546,22.4266477 C10.8357269,22.4458721 10.87091,22.4628782 10.9007392,22.4835813 C10.9626921,22.5235088 11.0070535,22.5626969 11.0277045,22.6048425 C11.0789495,22.7142734 11.0475906,23.0410871 11.056004,23.2910035 C11.1393727,25.9609682 11.3734172,28.4054166 11.6556472,30.8343377 C11.7589021,31.716439 11.8124417,32.6554739 12.0365431,33.420011 C12.191043,33.9338923 12.5176344,34.463301 13.0752109,34.5291074 C14.0282154,34.640017 14.8144823,33.3682532 15.175492,32.8403233 C15.7040041,32.073568 16.0535411,31.2676246 16.1040213,30.1770132 C16.1583257,29.0058074 15.9946476,27.864917 15.9946476,26.7188507 C15.9946476,25.5683481 15.9128085,24.4222818 15.9128085,23.2370275 C21.7593303,23.5786292 26.6734987,22.6728671 29.6671259,20.0701876" id="Fill-47" fill="#DA2246" mask="url(#mask-2)"></path>
            </g>
            <path d="M26.2523384,16.7950256 C26.2225092,16.8379106 26.1873261,16.8756199 26.1490835,16.9088928 C26.1276677,16.9355111 26.1031924,16.96139 26.0802469,16.9865295 C26.1804424,16.8756199 26.2898161,16.7743224 26.3800685,16.6530612 C26.3425908,16.7048191 26.2913458,16.7447465 26.2523384,16.7950256" id="Fill-50" fill="#DA2246"></path>
            <path d="M79.8805329,11.1775814 C78.082368,11.8349058 76.4149926,13.0452997 73.931521,12.8922444 C74.5196915,12.5876126 75.1636962,12.5099758 75.7610449,12.3125567 C77.4398931,11.7557903 79.0827932,10.6104634 81.0270448,10.4130443 C81.2702674,10.3871654 81.5968588,10.3398439 81.7903662,10.4914204 C81.2060199,10.866295 80.5153594,10.9468893 79.8805329,11.1775814 M58.1847665,17.0868469 C57.7954573,17.8757841 57.000777,18.5094478 56.3292377,19.0388565 C55.8749161,19.4004219 55.3861763,19.7752965 54.8561345,20.1213346 C54.3375654,20.4592393 53.795286,20.8962232 53.2736575,21.0966 C52.9776602,21.208249 52.5049822,21.2940191 52.2632892,21.0692423 C52.4200837,20.7468649 52.7849177,20.6285613 53.0549101,20.4895546 C54.4492337,19.7730783 55.8435572,18.7223943 56.9311755,17.6147767 C57.1369205,17.4062666 57.3702001,17.1659624 57.5583534,16.9019975 C57.7809251,16.5870141 57.9101849,16.2350609 58.2406006,16.0834844 C58.2627813,16.0797874 58.2681353,16.0945753 58.2681353,16.1101027 C58.4907069,16.4199103 58.3186154,16.8199243 58.1847665,17.0868469 M52.454502,14.2372086 C53.8342934,14.2719603 55.2844511,14.3843487 56.3032328,14.7924962 C56.5892871,14.905624 56.944178,15.0690309 57.1713388,15.3211654 C57.1828115,15.3292988 57.1889303,15.338911 57.1942843,15.3500019 C57.2776531,15.4601722 57.3411357,15.580694 57.3786134,15.7086098 C57.3984995,15.7906829 57.4046184,15.8823682 57.3939104,15.9792293 C57.339606,16.5130743 56.7216063,17.0772347 56.3567723,17.4299274 C55.1223027,18.6262726 53.3600857,19.6961809 51.8823934,20.464415 C51.9955913,18.4177625 52.3206531,16.3489281 52.454502,14.2372086 M47.6512371,11.7846268 C46.8703241,11.9362033 46.0182799,12.0892586 45.4951218,12.3916722 C45.3184412,12.4922303 44.8411741,13.1229364 44.677496,12.6031399 C44.5857138,12.3088597 44.8786518,12.043416 45.0866913,11.9428579 C45.5739015,11.7055113 46.2354977,11.6522746 46.9972894,11.5458014 C48.0650215,11.3986613 48.9774889,11.306976 50.0253349,11.3624308 C49.3186125,11.5805531 48.4573901,11.6278745 47.6512371,11.7846268 M84.1116893,11.3897885 C84.231006,11.1369145 84.3487931,10.7967916 84.3013723,10.4648021 C84.0902734,8.9364673 81.3880545,9.46883357 80.2094189,9.83113838 C77.8911552,10.5439177 76.2000694,11.8903607 73.2500387,11.8903607 C71.1619952,11.8903607 69.5848722,11.5029163 68.0918829,11.0193503 C66.9820839,10.6577849 65.866931,10.2577708 64.8175553,9.80599886 C64.562095,9.69508923 64.310459,9.57234923 64.0504096,9.48510031 C64.0419963,9.48066393 64.032818,9.47696694 64.022875,9.47548814 C63.9739245,9.45996079 63.924974,9.44369405 63.8752587,9.42964549 C63.8347216,9.41707573 63.7957142,9.40894236 63.7574716,9.40302718 C63.4668282,9.34313598 63.1593581,9.35052995 62.825883,9.4880579 C62.1130418,9.78677453 61.6273613,10.4034321 61.5837648,11.3550368 L61.5837648,11.3469034 C61.5837648,11.3469034 61.4988663,11.6774141 61.5133985,11.8570878 C61.3795496,11.7136446 60.997124,11.5775955 60.7240722,11.4666858 C57.5208757,10.1897462 52.3956085,9.97384211 48.2791798,10.5187781 C46.9123909,10.6991911 44.6530207,11.0319201 44.0495532,11.8903607 C43.6120584,12.5166304 43.8178033,13.9621527 44.4044441,14.2372086 C45.0277978,14.5285312 45.9968641,14.2135479 46.8336112,14.3703001 C46.6477524,19.2333181 46.8473785,24.4246285 47.2703412,28.9859722 C47.3376481,29.7128 47.5059153,30.4647674 47.6252321,31.174589 C47.7476083,31.9139866 47.6856554,32.7694696 48.2256402,33.153217 C48.6256574,33.2515569 48.9790186,33.0112526 49.2360085,32.8374942 C49.5182386,32.6415538 49.7668152,32.416777 49.9717953,32.2023517 C51.3462327,30.7812295 50.9638072,27.7201235 51.3362897,25.3695786 C52.9891329,26.7714764 54.7039291,28.0299311 56.4944455,29.3808105 C57.7579796,30.3353728 59.0023923,31.4644329 60.3691812,32.3872011 C60.7822008,32.6681722 61.3810793,33.1820535 61.8973538,33.1783565 C62.7425142,33.1753989 63.1088779,32.3568858 63.0431007,31.5176695 C62.9582022,30.4270581 62.358559,29.6070662 61.7604454,28.9053779 C59.9622805,26.7907008 57.4428609,25.124838 55.9483419,22.9694941 C58.1832368,21.3442982 60.5550401,19.6215018 62.2522447,17.3759513 C62.9061924,16.5101168 63.5731425,15.4956633 63.452296,14.1314747 C64.6026321,14.7873204 66.010723,15.1954679 67.5174797,15.5052754 C66.9621978,19.2318393 66.113213,23.3879931 66.0451413,27.691287 C66.0221958,29.2100097 66.0810893,30.6326106 66.5629455,31.7535373 C66.9706111,32.6955299 67.7798236,33.7062864 69.1022512,33.7062864 C70.0162482,33.7062864 70.7436216,33.1436048 70.8476414,32.3872011 C70.8988864,32.0248963 70.8476414,31.6248822 70.8759409,31.2522258 C71.173468,27.283879 71.6346732,23.4323569 72.267205,19.8307513 C72.5043089,18.4887447 72.8094845,17.1851868 72.9769869,15.8476165 C76.639094,15.7699798 80.0426814,14.8509086 82.335705,13.2604644 C83.0324844,12.7798559 83.7598578,12.1277073 84.1116893,11.3897885" id="Fill-52" fill="#DA2246"></path>
            <path d="M91.821504,12.5905155 C91.7320165,12.9683476 91.7236031,13.3491374 91.4949126,13.5672597 C91.380185,13.0896088 91.3052296,11.3024849 91.8498035,11.2987879 C92.0524891,11.2965697 92.1358579,11.4902919 92.15039,11.5886317 C92.1878677,11.8622089 91.9102268,12.2333864 91.821504,12.5905155 M90.7851308,22.8792329 C90.5778561,23.6807398 90.3942919,24.5798473 89.9399703,24.9369763 C89.8221833,25.0301404 89.3005548,25.2815356 89.0649807,25.2275596 C88.8056961,25.1661896 88.8385847,24.7927938 88.9839064,24.6456537 L89.0114411,24.5436168 C90.583975,23.6533821 90.6428685,21.2998796 91.2754004,19.5016647 C91.272341,20.6883978 91.0926009,21.6969361 90.7851308,22.8792329 M79.4049112,16.7592391 C78.6630056,17.3396662 78.2889934,18.3097558 77.9585778,19.3182941 C77.294687,21.3494193 76.6292665,23.2947743 76.0487445,25.3606511 C75.7542769,26.4076381 75.5714775,27.4812434 75.2578437,28.5260122 C75.2510048,25.9122417 76.0388015,23.7990434 76.7585264,21.4802926 C77.0835881,20.434045 77.4545409,19.3101607 77.7948996,18.2091977 C78.1253153,17.1452046 78.7769684,16.1211389 79.8416412,15.9407259 C79.9089481,15.929635 80.2324801,15.9155864 80.2523662,16.1255753 C80.2745469,16.3644007 79.5838864,16.6202323 79.4049112,16.7592391 M93.0230851,10.7967369 C92.7355011,10.6067118 91.8184446,10.229619 91.4406082,10.5061537 C91.3014053,10.6067118 91.1400217,10.8107855 91.0581826,10.954968 C90.1013539,12.6459703 90.5189626,15.5725059 90.3484008,18.0524454 C90.1740148,20.6359006 89.7143393,22.8015961 88.955607,24.5436168 C87.2148058,22.6810743 85.3998142,20.8229682 83.7439115,18.8428614 C83.0494267,18.0080816 82.5798081,17.2102716 82.0252911,16.2046909 C81.9992861,16.1610664 81.9748109,16.1152238 81.9472763,16.0656841 C81.7155264,15.6434881 81.4126454,15.1303462 81.0156876,15.0179577 C80.608022,14.9011329 80.1881187,15.0734126 79.8141065,15.2042859 C79.4722181,15.3225895 79.1127381,15.4268446 78.8588075,15.5725059 C78.522273,15.7654887 78.270637,16.102654 78.013647,16.416898 C77.7589516,16.7311419 77.4514815,17.0757012 77.3046301,17.3921634 C77.0522292,17.940057 76.9336773,18.615127 76.7317566,19.2391785 C75.7412744,22.3180301 74.5955274,25.1942867 74.1656811,28.841735 C73.9890005,30.3523242 74.0065921,32.086951 74.6016463,33.0888347 C75.0024282,33.7572501 76.0143262,34.34655 77.1134173,34.1964523 C78.7249586,33.97833 78.7004833,31.9789989 78.9689461,30.5031613 C79.5387601,27.3658974 80.0948069,24.7292056 81.0707569,22.0621985 C82.4390755,24.2670821 83.8991763,26.3070801 85.3263885,28.3411628 C86.0147545,29.317907 86.6717616,30.4159124 87.4549691,31.4799056 C87.8427486,31.9997021 88.2335875,32.455171 88.7383892,32.8514881 C89.2080078,33.2197081 89.931557,33.6167646 90.7575962,33.5117701 C91.6348804,33.3986423 92.2207563,32.209691 92.5312859,31.3734323 C93.5232978,28.7249102 93.9095476,25.7414409 94.3325102,22.6418862 C94.6124457,20.6092823 94.7692402,18.4709445 94.7692402,16.098957 C94.7692402,13.9103402 94.3279211,11.6566563 93.0230851,10.7967369" id="Fill-54" fill="#DA2246"></path>
          </g>
        </g>
      </g>
    </g>
  </g>
</svg>
