<?xml version="1.0" encoding="UTF-8"?>
<svg xmlns="http://www.w3.org/2000/svg" xmlns:xlink="http://www.w3.org/1999/xlink" width="133px" height="40px" viewBox="0 0 133 40">
  <!-- Generator: Sketch 50.2 (55047) - http://www.bohemiancoding.com/sketch -->
  <title>Partners-logo-grey</title>
  <desc>Created with Sketch.</desc>
  <defs>
    <polygon id="path-1" points="0 0 25.512195 0 25.512195 27.086999 0 27.086999"></polygon>
  </defs>
  <g id="Design" stroke="none" stroke-width="1" fill="none" fill-rule="evenodd">
    <g id="Artboard" transform="translate(-1413.000000, -649.000000)">
      <g id="Partners-logo-grey" transform="translate(1412.000000, 649.000000)">
        <path d="M7.88508726,36.7351158 C7.88508726,37.5620813 7.88508726,38.2081118 7.93018398,38.5699817 C7.95724201,38.8187672 8.01075678,39.0084009 8.28073582,39.0431961 C8.40820921,39.0605937 8.60603349,39.0768315 8.73230431,39.0768315 C8.8489545,39.0768315 8.88503187,39.1035078 8.88503187,39.1458419 C8.88503187,39.2067335 8.82189646,39.2328298 8.6866063,39.2328298 C8.11898891,39.2328298 7.55197281,39.2067335 7.31807116,39.2067335 C7.08296692,39.2067335 6.51655211,39.2328298 6.17441832,39.2328298 C6.04814751,39.2328298 5.98380952,39.2154323 5.98380952,39.1458419 C5.98380952,39.1035078 6.01988689,39.0768315 6.12030226,39.0768315 C6.25559242,39.0768315 6.36322326,39.0605937 6.44439736,39.0431961 C6.62418295,39.0084009 6.66927967,38.8187672 6.70535705,38.5699817 C6.74985248,38.2081118 6.74985248,37.5620813 6.74985248,36.7351158 L6.74985248,35.2192058 C6.74985248,33.9103271 6.74985248,33.6696604 6.73241508,33.3947785 C6.71437639,33.1007592 6.64222164,32.9633182 6.34518457,32.9035865 C6.27302982,32.8861889 6.12030226,32.8774901 5.99343015,32.8774901 C5.90323671,32.8774901 5.8401013,32.8600925 5.8401013,32.8084797 C5.8401013,32.7388893 5.91225605,32.7226516 6.04814751,32.7226516 C6.28204916,32.7226516 6.54361014,32.7301905 6.77691051,32.7301905 C7.01081217,32.7388893 7.21825708,32.7475881 7.34512919,32.7475881 C7.68726297,32.7475881 9.51578467,32.7475881 9.72322958,32.7388893 C9.89399583,32.7301905 10.002228,32.7301905 10.0918201,32.705254 C10.1459362,32.6878564 10.1904316,32.6530612 10.2355283,32.6530612 C10.2716057,32.6530612 10.2986637,32.6878564 10.2986637,32.7301905 C10.2986637,32.7910821 10.253567,32.8948877 10.2271103,33.1181568 C10.2174896,33.2051448 10.2000522,33.7119945 10.1814123,33.8158002 C10.1729942,33.8853905 10.1543542,33.9364235 10.0918201,33.9364235 C10.0286847,33.9364235 10.010646,33.8929295 10.002228,33.7989825 C10.002228,33.730552 10.002228,33.5919512 9.9481119,33.4713279 C9.88497649,33.3512845 9.69617155,33.2219624 9.35283519,33.2138435 L7.96626135,33.1871672 C7.91214529,33.1871672 7.88508726,33.2138435 7.88508726,33.3077905 L7.88508726,35.4610323 C7.88508726,35.5114853 7.8941066,35.5375817 7.94762137,35.5375817 L9.10089484,35.5288829 C9.2536224,35.5288829 9.37989322,35.5288829 9.50556275,35.5201841 C9.67753157,35.5114853 9.80380239,35.4784299 9.89399583,35.3653455 C9.93909255,35.3143126 9.95652995,35.2800973 10.010646,35.2800973 C10.0467234,35.2800973 10.0647621,35.3061937 10.0647621,35.3566467 C10.0647621,35.4088395 10.0196654,35.6245696 9.99260733,35.8907528 C9.97516993,36.0629889 9.95652995,36.459654 9.95652995,36.5193857 C9.95652995,36.5976748 9.95652995,36.682923 9.8669378,36.682923 C9.81282174,36.682923 9.79478305,36.6237712 9.79478305,36.5628797 C9.79478305,36.5019881 9.77674436,36.3993423 9.74066698,36.2961166 C9.69617155,36.1749134 9.56088139,36.0200749 9.28068043,35.9864395 C9.05579812,35.9603431 8.10095022,35.9603431 7.94762137,35.9603431 C7.90312594,35.9603431 7.88508726,35.9777407 7.88508726,36.0368925 L7.88508726,36.7351158" id="Fill-1" fill="#BFBFBF" fill-rule="nonzero"></path>
        <path d="M11.6705848,35.2186259 C11.6705848,33.9097472 11.6705848,33.6679207 11.6525461,33.3930387 C11.6345074,33.1001793 11.5623526,32.9627383 11.2659169,32.9018468 C11.1937621,32.8850291 11.039832,32.8757504 10.9135612,32.8757504 C10.8149497,32.8757504 10.7608336,32.8600925 10.7608336,32.799201 C10.7608336,32.7383094 10.8233677,32.7209118 10.9586579,32.7209118 C11.2027815,32.7209118 11.4637412,32.7296106 11.6886235,32.7296106 C11.9225251,32.7383094 12.1293687,32.7470082 12.2556396,32.7470082 C12.5448599,32.7470082 14.3361016,32.7470082 14.5086717,32.7383094 C14.679438,32.7209118 14.8231462,32.7040942 14.8953009,32.6878564 C14.9403977,32.6779978 14.9939124,32.6530612 15.0396104,32.6530612 C15.0841059,32.6530612 15.0931252,32.6878564 15.0931252,32.7296106 C15.0931252,32.7905022 15.0480285,32.893148 15.0209705,33.289813 C15.0125524,33.3756411 14.9939124,33.7549086 14.976475,33.8575544 C14.9668544,33.9010484 14.949417,33.9532411 14.8862816,33.9532411 C14.8231462,33.9532411 14.8051075,33.9097472 14.8051075,33.8326178 C14.8051075,33.7723062 14.7960882,33.6255865 14.7515927,33.5217809 C14.6884573,33.3669423 14.5982639,33.2637166 14.1472967,33.2121038 C13.9945691,33.1947062 13.0487406,33.1784684 12.8683537,33.1784684 C12.823257,33.1784684 12.8058196,33.203405 12.8058196,33.2637166 L12.8058196,35.4430548 C12.8058196,35.5027865 12.8142376,35.5375817 12.8683537,35.5375817 C13.066178,35.5375817 14.1021999,35.5375817 14.3090436,35.5201841 C14.5267104,35.5027865 14.6613993,35.4766901 14.7419721,35.390862 C14.8051075,35.3218516 14.8411849,35.2795174 14.8862816,35.2795174 C14.922359,35.2795174 14.949417,35.2957552 14.949417,35.3479479 C14.949417,35.3995608 14.9133396,35.5375817 14.8772623,35.976001 C14.8682429,36.148817 14.8411849,36.4932893 14.8411849,36.553601 C14.8411849,36.6220315 14.8411849,36.7171383 14.7606121,36.7171383 C14.6974767,36.7171383 14.679438,36.6823431 14.679438,36.6394291 C14.6704186,36.553601 14.6704186,36.4422564 14.6433606,36.329752 C14.5982639,36.1569359 14.4713918,36.0281937 14.1382773,35.9933985 C13.9675111,35.976001 13.0751973,35.9673022 12.8593343,35.9673022 C12.8142376,35.9673022 12.8058196,36.0020973 12.8058196,36.0542901 L12.8058196,36.7345359 C12.8058196,37.0273953 12.7968002,37.8195656 12.8058196,38.0683511 C12.823257,38.6633487 12.9675665,38.7926708 13.886337,38.7926708 C14.1202386,38.7926708 14.4996524,38.7926708 14.733554,38.6894451 C14.9668544,38.5856395 15.0750865,38.4047045 15.1382219,38.0509535 C15.1562606,37.9570066 15.1742993,37.9222114 15.2374347,37.9222114 C15.3089882,37.9222114 15.3089882,37.9918017 15.3089882,38.0770499 C15.3089882,38.2753825 15.2374347,38.8616813 15.192338,39.0339174 C15.1292026,39.2571865 15.0480285,39.2571865 14.706496,39.2571865 C14.0300452,39.2571865 13.5357851,39.2397889 13.1473521,39.2310901 C12.7601215,39.2136925 12.4817245,39.2061535 12.2105428,39.2061535 C12.1113301,39.2061535 11.9135058,39.2061535 11.6976428,39.2136925 C11.4907992,39.2136925 11.2568975,39.2310901 11.0753081,39.2310901 C10.9586579,39.2310901 10.8955225,39.2061535 10.8955225,39.145262 C10.8955225,39.1023479 10.9315999,39.0762515 11.039832,39.0762515 C11.1757234,39.0762515 11.2839556,39.0588539 11.3645284,39.0414564 C11.5449152,39.007821 11.5894107,38.8187672 11.6254881,38.5694017 C11.6705848,38.2075319 11.6705848,37.5267062 11.6705848,36.7345359 L11.6705848,35.2186259" id="Fill-3" fill="#BFBFBF" fill-rule="nonzero"></path>
        <path d="M18.5376546,36.0977841 C18.5376546,37.0099977 18.5466739,37.6734258 18.5556933,37.8369632 C18.5647126,38.0526933 18.5827513,38.3971656 18.6543047,38.4911126 C18.7715562,38.6552298 19.1227094,38.8361648 19.8346362,38.8361648 C20.7534068,38.8361648 21.3667222,38.6639286 21.9060789,38.2162307 C22.4821144,37.7424363 22.6631026,36.9595447 22.6631026,36.0716877 C22.6631026,34.9785391 22.1850773,34.272197 21.7984481,33.9190259 C20.9692697,33.1616508 19.9422671,33.0584251 19.2405621,33.0584251 C19.0607765,33.0584251 18.7264595,33.0833616 18.6543047,33.1181568 C18.5737319,33.1523721 18.5466739,33.196446 18.5466739,33.2903929 C18.5376546,33.5826725 18.5376546,34.3330885 18.5376546,35.0133343 L18.5376546,36.0977841 Z M17.4114391,35.1507753 C17.4114391,33.8418966 17.4114391,33.6000701 17.3940017,33.3251881 C17.375963,33.0323287 17.3038083,32.8948877 17.0067712,32.8339962 C16.9346165,32.8165986 16.7806863,32.8078998 16.6550168,32.8078998 C16.555804,32.8078998 16.501688,32.7905022 16.501688,32.7313504 C16.501688,32.6704588 16.5648234,32.6530612 16.6995122,32.6530612 C17.1781388,32.6530612 17.7445536,32.6791576 17.9976965,32.6791576 C18.2766949,32.6791576 18.843711,32.6530612 19.3848716,32.6530612 C20.5104858,32.6530612 22.0143111,32.6530612 22.996217,33.6348652 C23.4459816,34.0825632 23.8698908,34.7976042 23.8698908,35.8229022 C23.8698908,36.907352 23.3918656,37.7343174 22.8879849,38.2249294 C22.4742976,38.6291335 21.5374884,39.2415286 19.8701123,39.2415286 C19.5466185,39.2415286 19.1774267,39.2154323 18.8346916,39.1893359 C18.4925578,39.1632395 18.1774821,39.1371431 17.9525998,39.1371431 C17.8527857,39.1371431 17.6549614,39.1371431 17.4384972,39.1458419 C17.2316535,39.1458419 16.9977519,39.1632395 16.8167637,39.1632395 C16.6995122,39.1632395 16.6369781,39.1371431 16.6369781,39.0779913 C16.6369781,39.0344973 16.6724542,39.0084009 16.7806863,39.0084009 C16.9171791,39.0084009 17.0248099,38.9910033 17.105984,38.9736057 C17.2857696,38.9399704 17.3308663,38.7503367 17.3669437,38.5003913 C17.4114391,38.1385214 17.4114391,37.4588556 17.4114391,36.6666853 L17.4114391,35.1507753 Z" id="Fill-5" fill="#BFBFBF" fill-rule="nonzero"></path>
        <path d="M25.6126596,35.2186259 C25.6126596,33.9097472 25.6126596,33.6679207 25.5946209,33.3930387 C25.5765823,33.1001793 25.5044275,32.9627383 25.2079917,32.9018468 C25.135837,32.8850291 24.9831094,32.8757504 24.855636,32.8757504 C24.7570245,32.8757504 24.7029085,32.8600925 24.7029085,32.799201 C24.7029085,32.7383094 24.7654426,32.7209118 24.9007327,32.7209118 C25.1448563,32.7209118 25.405816,32.7296106 25.6306983,32.7296106 C25.8646,32.7383094 26.0714436,32.7470082 26.1977144,32.7470082 C26.4869347,32.7470082 28.2781765,32.7470082 28.4507466,32.7383094 C28.6215128,32.7209118 28.765221,32.7040942 28.8373758,32.6878564 C28.8818712,32.6779978 28.9359873,32.6530612 28.981084,32.6530612 C29.0261807,32.6530612 29.0352001,32.6878564 29.0352001,32.7296106 C29.0352001,32.7905022 28.9901034,32.893148 28.9630453,33.289813 C28.9546273,33.3756411 28.9359873,33.7549086 28.9185499,33.8575544 C28.9089293,33.9010484 28.8914919,33.9532411 28.8283565,33.9532411 C28.765221,33.9532411 28.7471824,33.9097472 28.7471824,33.8326178 C28.7471824,33.7723062 28.738163,33.6255865 28.6936676,33.5217809 C28.6305322,33.3669423 28.5403387,33.2637166 28.0893715,33.2121038 C27.936644,33.1947062 26.9908154,33.1784684 26.8104285,33.1784684 C26.7653318,33.1784684 26.7472931,33.203405 26.7472931,33.2637166 L26.7472931,35.4430548 C26.7472931,35.5027865 26.7563125,35.5375817 26.8104285,35.5375817 C27.0082528,35.5375817 28.0442748,35.5375817 28.2511184,35.5201841 C28.4687853,35.5027865 28.6034741,35.4766901 28.6840469,35.390862 C28.7471824,35.3218516 28.7832597,35.2795174 28.8283565,35.2795174 C28.8644338,35.2795174 28.8914919,35.2957552 28.8914919,35.3479479 C28.8914919,35.3995608 28.8554145,35.5375817 28.8193371,35.976001 C28.8103178,36.148817 28.7832597,36.4932893 28.7832597,36.553601 C28.7832597,36.6220315 28.7832597,36.7171383 28.7026869,36.7171383 C28.6395515,36.7171383 28.6215128,36.6823431 28.6215128,36.6394291 C28.6124935,36.553601 28.6124935,36.4422564 28.5854354,36.329752 C28.5403387,36.1569359 28.4134666,36.0281937 28.0803522,35.9933985 C27.9095859,35.976001 27.0172722,35.9673022 26.8014092,35.9673022 C26.7563125,35.9673022 26.7472931,36.0020973 26.7472931,36.0542901 L26.7472931,36.7345359 C26.7472931,37.0273953 26.7388751,37.8195656 26.7472931,38.0683511 C26.7653318,38.6633487 26.9096413,38.7926708 27.8284118,38.7926708 C28.0623135,38.7926708 28.4417272,38.7926708 28.6756289,38.6894451 C28.9089293,38.5856395 29.0171614,38.4047045 29.0802968,38.0509535 C29.0983355,37.9570066 29.1163742,37.9222114 29.1795096,37.9222114 C29.251063,37.9222114 29.251063,37.9918017 29.251063,38.0770499 C29.251063,38.2753825 29.1795096,38.8616813 29.1338116,39.0339174 C29.0712775,39.2571865 28.9901034,39.2571865 28.6485709,39.2571865 C27.97212,39.2571865 27.47786,39.2397889 27.0894269,39.2310901 C26.7021964,39.2136925 26.4237993,39.2061535 26.1526177,39.2061535 C26.0534049,39.2061535 25.8555806,39.2061535 25.6397177,39.2136925 C25.432874,39.2136925 25.1989724,39.2310901 25.0173829,39.2310901 C24.9007327,39.2310901 24.8375973,39.2061535 24.8375973,39.145262 C24.8375973,39.1023479 24.8736747,39.0762515 24.9831094,39.0762515 C25.1177983,39.0762515 25.2254291,39.0588539 25.3066032,39.0414564 C25.4869901,39.007821 25.5314855,38.8187672 25.5675629,38.5694017 C25.6126596,38.2075319 25.6126596,37.5267062 25.6126596,36.7345359 L25.6126596,35.2186259" id="Fill-7" fill="#BFBFBF" fill-rule="nonzero"></path>
        <path d="M31.596472,35.8304411 C31.596472,35.9261279 31.6145106,35.9591833 31.6776461,35.9852797 C31.866451,36.0461712 32.13643,36.0722676 32.3625149,36.0722676 C32.7226874,36.0722676 32.8393376,36.0374724 33.0010845,35.9261279 C33.2710635,35.7359142 33.5332258,35.3392492 33.5332258,34.6334869 C33.5332258,33.4110162 32.68661,33.0572652 32.1544687,33.0572652 C31.9295864,33.0572652 31.7678395,33.065964 31.6776461,33.0920604 C31.6145106,33.1100379 31.596472,33.1442532 31.596472,33.2126837 L31.596472,35.8304411 Z M30.5333919,35.1501953 C30.5333919,33.8407367 30.5333919,33.60065 30.5159545,33.3240283 C30.4979158,33.0317488 30.4257611,32.8943078 30.128724,32.8334162 C30.0565693,32.8160187 29.9026391,32.8084797 29.7769696,32.8084797 C29.6777568,32.8084797 29.6236408,32.7910821 29.6236408,32.7301905 C29.6236408,32.669299 29.6867762,32.6530612 29.821465,32.6530612 C30.2994903,32.6530612 30.8665064,32.6779978 31.0571152,32.6779978 C31.3625703,32.6779978 32.0468379,32.6530612 32.325235,32.6530612 C32.8934536,32.6530612 33.4977497,32.7040942 33.9829904,33.02305 C34.2349308,33.1865873 34.5963058,33.6250066 34.5963058,34.2026066 C34.5963058,34.8399383 34.3161049,35.4250773 33.4063537,36.1319993 C34.2078727,37.0964058 34.8302075,37.8630596 35.3611462,38.3960058 C35.8662295,38.8958965 36.23482,38.9567881 36.3695089,38.9828845 C36.4687216,38.9997021 36.5498957,39.007821 36.6214492,39.007821 C36.6942052,39.007821 36.7296813,39.0333375 36.7296813,39.0768315 C36.7296813,39.1464218 36.6671472,39.1638194 36.5589151,39.1638194 L35.7044826,39.1638194 C35.1993993,39.1638194 34.9739157,39.1203254 34.7406153,38.9997021 C34.3521822,38.8019495 34.0100484,38.3960058 33.5061678,37.7331576 C33.145394,37.2593632 32.7317067,36.6748042 32.6144553,36.5454821 C32.5693585,36.4938692 32.5152425,36.4845905 32.4527084,36.4845905 L31.6686267,36.4677728 C31.62353,36.4677728 31.596472,36.4845905 31.596472,36.5367833 L31.596472,36.6574066 C31.596472,37.4582756 31.596472,38.1385214 31.6415687,38.5003913 C31.6686267,38.7497568 31.7221415,38.9393905 31.9927218,38.9736057 C32.1274107,38.9915833 32.325235,39.007821 32.4346697,39.007821 C32.5068244,39.007821 32.5423005,39.0333375 32.5423005,39.0768315 C32.5423005,39.137723 32.4797664,39.1638194 32.3625149,39.1638194 C31.839393,39.1638194 31.1725628,39.137723 31.0372726,39.137723 C30.8665064,39.137723 30.2994903,39.1638194 29.9387165,39.1638194 C29.821465,39.1638194 29.7589309,39.137723 29.7589309,39.0768315 C29.7589309,39.0333375 29.794407,39.007821 29.9026391,39.007821 C30.037328,39.007821 30.1467627,38.9915833 30.2279368,38.9736057 C30.4077224,38.9393905 30.4528191,38.7497568 30.4888965,38.5003913 C30.5333919,38.1385214 30.5333919,37.4582756 30.5333919,36.6655254 L30.5333919,35.1501953 Z" id="Fill-9" fill="#BFBFBF" fill-rule="nonzero"></path>
        <path d="M39.6162139,36.6742242 C39.6613106,36.6742242 39.67033,36.6481279 39.6613106,36.6220315 L38.850171,34.495466 C38.8411516,34.4618307 38.8321323,34.4183367 38.8050742,34.4183367 C38.7780162,34.4183367 38.7599775,34.4618307 38.7515595,34.495466 L37.9223811,36.6139126 C37.9133618,36.6481279 37.9223811,36.6742242 37.9584585,36.6742242 L39.6162139,36.6742242 Z M37.7780716,37.1045246 C37.7335762,37.1045246 37.7149362,37.1219222 37.6974988,37.174115 L37.2110555,38.4047045 C37.1214633,38.6204347 37.0763666,38.827466 37.0763666,38.9301118 C37.0763666,39.0855302 37.1575407,39.1968748 37.4365391,39.1968748 L37.571228,39.1968748 C37.6794601,39.1968748 37.7065181,39.2142724 37.7065181,39.2664652 C37.7065181,39.3354756 37.6524021,39.3528732 37.5531893,39.3528732 C37.2651716,39.3528732 36.8773398,39.3267768 36.5983414,39.3267768 C36.4991286,39.3267768 36.0048685,39.3528732 35.5352614,39.3528732 C35.4186112,39.3528732 35.3644951,39.3354756 35.3644951,39.2664652 C35.3644951,39.2142724 35.4005725,39.1968748 35.4727272,39.1968748 C35.5533,39.1968748 35.6795709,39.1893359 35.7517256,39.1806371 C36.1666154,39.1284443 36.3373817,38.8361648 36.5177686,38.4047045 L38.7780162,32.9981134 C38.8862483,32.7475881 38.9397631,32.6530612 39.0299566,32.6530612 C39.1111307,32.6530612 39.1652467,32.7301905 39.2560414,32.9285231 C39.4719044,33.4017375 40.9131956,36.9148909 41.4898323,38.2237696 C41.8319661,38.9997021 42.0929258,39.1197455 42.2817307,39.1632395 C42.4164196,39.1893359 42.5529124,39.1968748 42.6605432,39.1968748 C42.732698,39.1968748 42.7777947,39.2055736 42.7777947,39.2664652 C42.7777947,39.3354756 42.6972219,39.3528732 42.3623036,39.3528732 C42.0388097,39.3528732 41.3809989,39.3528732 40.6612553,39.3354756 C40.4989071,39.3267768 40.3912762,39.3267768 40.3912762,39.2664652 C40.3912762,39.2142724 40.4273536,39.1968748 40.5169458,39.1893359 C40.5800812,39.1719383 40.6432166,39.0936491 40.5981198,38.9910033 L39.8771736,37.1654162 C39.8591349,37.1219222 39.8320769,37.1045246 39.7869802,37.1045246 L37.7780716,37.1045246 Z" id="Fill-11" fill="#BFBFBF" fill-rule="nonzero"></path>
        <path d="M44.7274441,36.6655254 C44.7274441,37.7673728 44.7274441,38.3623704 44.916249,38.517209 C45.0695779,38.6465311 45.3046821,38.7074226 46.0063871,38.7074226 C46.4844123,38.7074226 46.8349642,38.6969841 47.0598465,38.4655961 C47.1680786,38.3536716 47.2763107,38.112425 47.2943494,37.9483078 C47.3033688,37.8717584 47.3208062,37.8195656 47.3929609,37.8195656 C47.4560963,37.8195656 47.4651157,37.8630596 47.4651157,37.9657054 C47.4651157,38.0613921 47.4019803,38.7074226 47.3304268,38.9562082 C47.2763107,39.1458419 47.231214,39.1893359 46.7634107,39.1893359 C46.1146192,39.1893359 45.6462146,39.1719383 45.2403441,39.1632395 C44.8356762,39.1458419 44.5115811,39.1371431 44.1429906,39.1371431 C44.0425752,39.1371431 43.844751,39.1371431 43.628888,39.1458419 C43.4220444,39.1458419 43.1875414,39.1632395 43.0065532,39.1632395 C42.8899031,39.1632395 42.8267677,39.1371431 42.8267677,39.0762515 C42.8267677,39.0339174 42.862845,39.0072411 42.9722797,39.0072411 C43.1069686,39.0072411 43.2145995,38.9910033 43.2957735,38.9736057 C43.4755591,38.9388106 43.5206559,38.7491768 43.5567332,38.5003913 C43.60183,38.1385214 43.60183,37.4576957 43.60183,36.6655254 L43.60183,35.1496154 C43.60183,33.8407367 43.60183,33.6000701 43.5837913,33.3251881 C43.5657526,33.0311689 43.4935978,32.8937279 43.1971621,32.8339962 C43.1250073,32.8165986 43.0167752,32.8078998 42.8983211,32.8078998 C42.7997096,32.8078998 42.7455936,32.7905022 42.7455936,32.7296106 C42.7455936,32.669299 42.808729,32.6530612 42.9434178,32.6530612 C43.3679283,32.6530612 43.9343431,32.6779978 44.1784667,32.6779978 C44.394931,32.6779978 45.0515392,32.6530612 45.4038949,32.6530612 C45.5295644,32.6530612 45.5920986,32.669299 45.5920986,32.7296106 C45.5920986,32.7905022 45.5385838,32.8078998 45.4303517,32.8078998 C45.3317402,32.8078998 45.1862281,32.8165986 45.0779959,32.8339962 C44.8356762,32.8763303 44.7635215,33.0224701 44.7454828,33.3251881 C44.7274441,33.6000701 44.7274441,33.8407367 44.7274441,35.1496154 L44.7274441,36.6655254" id="Fill-13" fill="#BFBFBF" fill-rule="nonzero"></path>
        <path d="M51.2432868,38.4650162 C50.3599924,37.7250387 50.126692,36.7606323 50.126692,35.924968 C50.126692,35.3386692 50.3154969,34.3238098 51.1801514,33.5652749 C51.8283416,32.9975335 52.6839767,32.6530612 54.0254538,32.6530612 C54.5846532,32.6530612 54.9177676,32.6861166 55.3326574,32.7383094 C55.6747912,32.7818034 55.9628089,32.8583528 56.2321867,32.8844492 C56.3313995,32.893148 56.3686794,32.9366419 56.3686794,32.9888347 C56.3686794,33.0566853 56.3404188,33.1610709 56.3223801,33.4620492 C56.3043414,33.7462098 56.3133608,34.2194243 56.2953221,34.3916604 C56.2863027,34.5209825 56.2682641,34.5899929 56.1876913,34.5899929 C56.1155365,34.5899929 56.0974978,34.5209825 56.0974978,34.4003592 C56.0884785,34.1341761 55.9718283,33.831458 55.746946,33.6081889 C55.4499089,33.3072106 54.7470014,33.0740829 53.917823,33.0740829 C53.1349439,33.0740829 52.6208413,33.2637166 52.2251927,33.6081889 C51.5673819,34.1846291 51.3960144,35.0028957 51.3960144,35.83856 C51.3960144,37.888576 53.0255092,38.9034355 54.2341013,38.9034355 C55.0344178,38.9034355 55.5214624,38.8181873 55.8816348,38.4215222 C56.0343624,38.2579849 56.1516139,38.0086194 56.1876913,37.8537809 C56.2147493,37.7163399 56.2321867,37.6815447 56.3043414,37.6815447 C56.3686794,37.6815447 56.3867181,37.7406965 56.3867181,37.8108668 C56.3867181,37.9135126 56.2772834,38.6633487 56.1876913,38.9556282 C56.1425945,39.1023479 56.1065172,39.145262 55.9531883,39.2049937 C55.5936171,39.3424347 54.9087483,39.4033262 54.3327128,39.4033262 C53.097664,39.4033262 52.0634458,39.145262 51.2432868,38.4650162" id="Fill-15" fill="#BFBFBF" fill-rule="nonzero"></path>
        <path d="M59.4806217,35.8304411 C59.4806217,35.9261279 59.4986604,35.9591833 59.5617958,35.9852797 C59.7506007,36.0461712 60.0205797,36.0722676 60.2466646,36.0722676 C60.6068371,36.0722676 60.7234873,36.0374724 60.8852342,35.9261279 C61.1564158,35.7359142 61.4173755,35.3392492 61.4173755,34.6334869 C61.4173755,33.4110162 60.5701584,33.0572652 60.0386184,33.0572652 C59.8137361,33.0572652 59.6513879,33.065964 59.5617958,33.0920604 C59.4986604,33.1100379 59.4806217,33.1442532 59.4806217,33.2126837 L59.4806217,35.8304411 Z M58.4175416,35.1501953 C58.4175416,33.8407367 58.4175416,33.60065 58.4001042,33.3240283 C58.3814643,33.0317488 58.3099108,32.8943078 58.0128737,32.8334162 C57.940719,32.8160187 57.7879914,32.8084797 57.6611193,32.8084797 C57.5619065,32.8084797 57.5077905,32.7910821 57.5077905,32.7301905 C57.5077905,32.669299 57.5709259,32.6530612 57.7056147,32.6530612 C58.18364,32.6530612 58.7506561,32.6779978 58.9412649,32.6779978 C59.24672,32.6779978 59.9303863,32.6530612 60.2105872,32.6530612 C60.7776033,32.6530612 61.3812981,32.7040942 61.8671401,33.02305 C62.1190805,33.1865873 62.4804555,33.6250066 62.4804555,34.2026066 C62.4804555,34.8399383 62.2002546,35.4250773 61.291706,36.1319993 C62.0920224,37.0964058 62.7143572,37.8630596 63.2452959,38.3960058 C63.7503792,38.8958965 64.1189697,38.9567881 64.2536586,38.9828845 C64.3528714,38.9997021 64.4340454,39.007821 64.5074028,39.007821 C64.5777537,39.007821 64.6150336,39.0333375 64.6150336,39.0768315 C64.6150336,39.1464218 64.5524995,39.1638194 64.4430648,39.1638194 L63.5886323,39.1638194 C63.0829477,39.1638194 62.8580654,39.1203254 62.624765,38.9997021 C62.2363319,38.8019495 61.8941981,38.3960058 61.3903175,37.7331576 C61.0295437,37.2593632 60.6152552,36.6748042 60.498605,36.5454821 C60.4535082,36.4938692 60.3993922,36.4845905 60.3368581,36.4845905 L59.5527764,36.4677728 C59.5076797,36.4677728 59.4806217,36.4845905 59.4806217,36.5367833 L59.4806217,36.6574066 C59.4806217,37.4582756 59.4806217,38.1385214 59.5257184,38.5003913 C59.5527764,38.7497568 59.6062912,38.9393905 59.8762702,38.9736057 C60.0115604,38.9915833 60.2105872,39.007821 60.3188194,39.007821 C60.3903728,39.007821 60.4264502,39.0333375 60.4264502,39.0768315 C60.4264502,39.137723 60.3633148,39.1638194 60.2466646,39.1638194 C59.7235427,39.1638194 59.0579151,39.137723 58.9226249,39.137723 C58.7506561,39.137723 58.18364,39.1638194 57.8228662,39.1638194 C57.7056147,39.1638194 57.6442832,39.137723 57.6442832,39.0768315 C57.6442832,39.0333375 57.6785567,39.007821 57.7879914,39.007821 C57.9232816,39.007821 58.0309124,38.9915833 58.1120865,38.9736057 C58.2918721,38.9393905 58.3369688,38.7497568 58.3730462,38.5003913 C58.4175416,38.1385214 58.4175416,37.4582756 58.4175416,36.6655254 L58.4175416,35.1501953 Z" id="Fill-17" fill="#BFBFBF" fill-rule="nonzero"></path>
        <path d="M64.9791193,35.2186259 C64.9791193,33.9097472 64.9791193,33.6679207 64.9610806,33.3930387 C64.943042,33.1001793 64.8708872,32.9627383 64.5744514,32.9018468 C64.5022967,32.8850291 64.3495691,32.8757504 64.2220957,32.8757504 C64.1228829,32.8757504 64.0687669,32.8600925 64.0687669,32.799201 C64.0687669,32.7383094 64.1331049,32.7209118 64.2665911,32.7209118 C64.511316,32.7209118 64.7722757,32.7296106 64.997158,32.7296106 C65.2310597,32.7383094 65.4391059,32.7470082 65.5653767,32.7470082 C65.8527931,32.7470082 67.6458387,32.7470082 67.816605,32.7383094 C67.9873712,32.7209118 68.1316807,32.7040942 68.2038355,32.6878564 C68.2483309,32.6779978 68.302447,32.6530612 68.3475437,32.6530612 C68.3926404,32.6530612 68.4016598,32.6878564 68.4016598,32.7296106 C68.4016598,32.7905022 68.3565631,32.893148 68.329505,33.289813 C68.3204857,33.3756411 68.302447,33.7549086 68.2844083,33.8575544 C68.275389,33.9010484 68.2579516,33.9532411 68.1948161,33.9532411 C68.1316807,33.9532411 68.1136421,33.9097472 68.1136421,33.8326178 C68.1136421,33.7723062 68.1046227,33.6255865 68.059526,33.5217809 C67.9969919,33.3669423 67.9067984,33.2637166 67.4558312,33.2121038 C67.3025024,33.1947062 66.3566738,33.1784684 66.1768882,33.1784684 C66.1317915,33.1784684 66.1137528,33.203405 66.1137528,33.2637166 L66.1137528,35.4430548 C66.1137528,35.5027865 66.1227722,35.5375817 66.1768882,35.5375817 C66.3747125,35.5375817 67.4107345,35.5375817 67.6175781,35.5201841 C67.8346437,35.5027865 67.9699338,35.4766901 68.0505066,35.390862 C68.1136421,35.3218516 68.1497194,35.2795174 68.1948161,35.2795174 C68.2308935,35.2795174 68.2579516,35.2957552 68.2579516,35.3479479 C68.2579516,35.3995608 68.2218742,35.5375817 68.1857968,35.976001 C68.1767775,36.148817 68.1497194,36.4932893 68.1497194,36.553601 C68.1497194,36.6220315 68.1497194,36.7171383 68.0685453,36.7171383 C68.0060112,36.7171383 67.9873712,36.6823431 67.9873712,36.6394291 C67.9789532,36.553601 67.9789532,36.4422564 67.9518951,36.329752 C67.9067984,36.1569359 67.7805276,36.0281937 67.4468119,35.9933985 C67.2754443,35.976001 66.3837319,35.9673022 66.1678689,35.9673022 C66.1227722,35.9673022 66.1137528,36.0020973 66.1137528,36.0542901 L66.1137528,36.7345359 C66.1137528,37.0273953 66.1047335,37.8195656 66.1137528,38.0683511 C66.1317915,38.6633487 66.2754997,38.7926708 67.1948715,38.7926708 C67.4287732,38.7926708 67.8075856,38.7926708 68.0414873,38.6894451 C68.275389,38.5856395 68.3836211,38.4047045 68.4467565,38.0509535 C68.4641939,37.9570066 68.4828339,37.9222114 68.545368,37.9222114 C68.6175227,37.9222114 68.6175227,37.9918017 68.6175227,38.0770499 C68.6175227,38.2753825 68.545368,38.8616813 68.5002713,39.0339174 C68.4371359,39.2571865 68.3565631,39.2571865 68.0144293,39.2571865 C67.3385797,39.2571865 66.8437184,39.2397889 66.4558866,39.2310901 C66.0686561,39.2136925 65.790259,39.2061535 65.5196787,39.2061535 C65.4198646,39.2061535 65.2220403,39.2061535 65.0055761,39.2136925 C64.7993337,39.2136925 64.5654321,39.2310901 64.3850452,39.2310901 C64.2665911,39.2310901 64.204057,39.2061535 64.204057,39.145262 C64.204057,39.1023479 64.2401344,39.0762515 64.3495691,39.0762515 C64.484258,39.0762515 64.5918888,39.0588539 64.6730629,39.0414564 C64.8528485,39.007821 64.8979452,38.8187672 64.9340226,38.5694017 C64.9791193,38.2075319 64.9791193,37.5267062 64.9791193,36.7345359 L64.9791193,35.2186259" id="Fill-19" fill="#BFBFBF" fill-rule="nonzero"></path>
        <path d="M71.0254658,36.0977841 C71.0254658,37.0099977 71.0344851,37.6734258 71.0435045,37.8369632 C71.0525238,38.0526933 71.0705625,38.3971656 71.142116,38.4911126 C71.2593674,38.6552298 71.6105206,38.8361648 72.3224475,38.8361648 C73.241218,38.8361648 73.8527295,38.6639286 74.3938902,38.2162307 C74.9699256,37.7424363 75.1509138,36.9595447 75.1509138,36.0716877 C75.1509138,34.9785391 74.6728885,34.272197 74.285658,33.9190259 C73.4570809,33.1616508 72.4300783,33.0584251 71.7271707,33.0584251 C71.5473852,33.0584251 71.2142707,33.0833616 71.142116,33.1181568 C71.0615432,33.1523721 71.0344851,33.196446 71.0344851,33.2903929 C71.0254658,33.5826725 71.0254658,34.3330885 71.0254658,35.0133343 L71.0254658,36.0977841 Z M69.8992503,35.1507753 C69.8992503,33.8418966 69.8992503,33.6000701 69.8818129,33.3251881 C69.863173,33.0323287 69.7916195,32.8948877 69.4933799,32.8339962 C69.4218264,32.8165986 69.2684975,32.8078998 69.142828,32.8078998 C69.0436152,32.8078998 68.9894992,32.7905022 68.9894992,32.7313504 C68.9894992,32.6704588 69.0526346,32.6530612 69.1873234,32.6530612 C69.6653487,32.6530612 70.2323648,32.6791576 70.4843051,32.6791576 C70.7645061,32.6791576 71.3315222,32.6530612 71.8726828,32.6530612 C72.998297,32.6530612 74.5021223,32.6530612 75.4840282,33.6348652 C75.9337928,34.0825632 76.357702,34.7976042 76.357702,35.8229022 C76.357702,36.907352 75.8796768,37.7343174 75.3757961,38.2249294 C74.9609063,38.6291335 74.0252996,39.2415286 72.3579235,39.2415286 C72.0344297,39.2415286 71.6652379,39.2154323 71.3225028,39.1893359 C70.9803691,39.1632395 70.6652933,39.1371431 70.4392084,39.1371431 C70.3405969,39.1371431 70.1421713,39.1371431 69.9263084,39.1458419 C69.7194647,39.1458419 69.4843605,39.1632395 69.3045749,39.1632395 C69.1873234,39.1632395 69.124188,39.1371431 69.124188,39.0779913 C69.124188,39.0344973 69.1602654,39.0084009 69.2684975,39.0084009 C69.4049903,39.0084009 69.5126211,38.9910033 69.5937952,38.9736057 C69.7735808,38.9399704 69.8186775,38.7503367 69.8547549,38.5003913 C69.8992503,38.1385214 69.8992503,37.4588556 69.8992503,36.6666853 L69.8992503,35.1507753 Z" id="Fill-21" fill="#BFBFBF" fill-rule="nonzero"></path>
        <path d="M77.9838207,35.1507753 C77.9838207,33.8418966 77.9838207,33.6000701 77.965782,33.3251881 C77.9477433,33.0323287 77.8581511,32.8861889 77.6597256,32.8432749 C77.5611141,32.8171785 77.4438626,32.8078998 77.3362318,32.8078998 C77.2448357,32.8078998 77.1907197,32.7922419 77.1907197,32.7226516 C77.1907197,32.6704588 77.2628744,32.6530612 77.4065826,32.6530612 C77.749919,32.6530612 78.3169351,32.6791576 78.5790974,32.6791576 C78.8039797,32.6791576 79.3349184,32.6530612 79.6776535,32.6530612 C79.794905,32.6530612 79.8664584,32.6704588 79.8664584,32.7226516 C79.8664584,32.7922419 79.8129436,32.8078998 79.7227502,32.8078998 C79.6313542,32.8078998 79.5598007,32.8171785 79.4515686,32.8339962 C79.2086476,32.8774901 79.1364928,33.0242098 79.1184541,33.3251881 C79.1004155,33.6000701 79.1004155,33.8418966 79.1004155,35.1507753 L79.1004155,36.6666853 C79.1004155,37.5011897 79.1004155,38.1814355 79.1364928,38.5520041 C79.1635509,38.7851319 79.2266863,38.9399704 79.4966653,38.9736057 C79.6223348,38.9910033 79.821963,39.0084009 79.9566519,39.0084009 C80.0552634,39.0084009 80.1009614,39.0344973 80.1009614,39.0774114 C80.1009614,39.1383029 80.0282053,39.1632395 79.9295938,39.1632395 C79.3349184,39.1632395 78.7679023,39.1383029 78.5231774,39.1383029 C78.3169351,39.1383029 77.749919,39.1632395 77.3885439,39.1632395 C77.2718938,39.1632395 77.2087584,39.1383029 77.2087584,39.0774114 C77.2087584,39.0344973 77.2448357,39.0084009 77.3542704,39.0084009 C77.4889593,39.0084009 77.5965902,38.9910033 77.6777642,38.9736057 C77.8581511,38.9399704 77.9116659,38.7938306 77.9387239,38.5438853 C77.9838207,38.1814355 77.9838207,37.5011897 77.9838207,36.6666853 L77.9838207,35.1507753" id="Fill-23" fill="#BFBFBF" fill-rule="nonzero"></path>
        <path d="M83.0194732,33.2555978 L81.6779961,33.2903929 C81.1542729,33.3077905 80.9390112,33.3495448 80.803721,33.5391785 C80.7141289,33.6679207 80.6690321,33.7723062 80.6509935,33.8407367 C80.6329548,33.9097472 80.6058967,33.9445423 80.5517807,33.9445423 C80.4892466,33.9445423 80.4712079,33.9016283 80.4712079,33.8071014 C80.4712079,33.6679207 80.6419741,32.8850291 80.6600128,32.8165986 C80.6870708,32.7040942 80.7141289,32.6530612 80.7676436,32.6530612 C80.8397984,32.6530612 80.9293905,32.7383094 81.1542729,32.7562869 C81.4164351,32.7823833 81.7585689,32.799201 82.055606,32.799201 L85.6224559,32.799201 C85.9116762,32.799201 86.1095005,32.7731046 86.2441894,32.7562869 C86.3788783,32.7301905 86.451033,32.712213 86.4871104,32.712213 C86.5502458,32.712213 86.5592651,32.7644058 86.5592651,32.893148 C86.5592651,33.0746628 86.5322071,33.6679207 86.5322071,33.8929295 C86.5231878,33.9781777 86.5051491,34.0303704 86.451033,34.0303704 C86.3788783,34.0303704 86.3614409,33.9880363 86.3518202,33.8581343 L86.3428009,33.7636074 C86.3253635,33.5391785 86.0824425,33.2990917 85.2803221,33.2816942 L84.1456887,33.2555978 L84.1456887,36.7855688 C84.1456887,37.5777391 84.1456887,38.2579849 84.1901841,38.6291335 C84.2172421,38.8698001 84.2713582,39.0588539 84.5413372,39.0936491 C84.6670067,39.1110467 84.8666349,39.1284443 85.0013238,39.1284443 C85.0999353,39.1284443 85.1456333,39.1545407 85.1456333,39.1968748 C85.1456333,39.2577664 85.0734785,39.2838628 84.9742657,39.2838628 C84.3795903,39.2838628 83.8125742,39.2577664 83.5594313,39.2577664 C83.3525877,39.2577664 82.7855716,39.2838628 82.4241965,39.2838628 C82.3075463,39.2838628 82.2444109,39.2577664 82.2444109,39.1968748 C82.2444109,39.1545407 82.2804883,39.1284443 82.389923,39.1284443 C82.5246119,39.1284443 82.632844,39.1110467 82.7134168,39.0936491 C82.8938037,39.0588539 82.9473185,38.8698001 82.9743765,38.6198547 C83.0194732,38.2579849 83.0194732,37.5777391 83.0194732,36.7855688 L83.0194732,33.2555978" id="Fill-25" fill="#BFBFBF" fill-rule="nonzero"></path>
        <path d="M90.4023016,35.1507753 C90.4023016,33.8418966 90.4023016,33.6000701 90.3842629,33.3251881 C90.3662242,33.0323287 90.2940695,32.8948877 89.9976337,32.8339962 C89.9242764,32.8171785 89.7715488,32.8078998 89.645278,32.8078998 C89.5466665,32.8078998 89.4925504,32.7922419 89.4925504,32.7313504 C89.4925504,32.6704588 89.5550845,32.6530612 89.6903747,32.6530612 C90.1683999,32.6530612 90.735416,32.6791576 91.0059964,32.6791576 C91.2224606,32.6791576 91.7888754,32.6530612 92.1141731,32.6530612 C92.248862,32.6530612 92.3119974,32.6704588 92.3119974,32.7313504 C92.3119974,32.7922419 92.2578813,32.8078998 92.1670866,32.8078998 C92.0678738,32.8078998 92.0137577,32.8171785 91.9061269,32.8339962 C91.6632059,32.8774901 91.5910511,33.0242098 91.5730125,33.3251881 C91.5549738,33.6000701 91.5549738,33.8418966 91.5549738,35.1507753 L91.5549738,36.3570082 C91.5549738,37.6049953 91.8159335,38.1309825 92.2578813,38.4754547 C92.6631505,38.7938306 93.0768378,38.827466 93.3840968,38.827466 C93.7797453,38.827466 94.2655873,38.7074226 94.6269624,38.3629503 C95.1218237,37.889156 95.1488818,37.1143833 95.1488818,36.2265263 L95.1488818,35.1507753 C95.1488818,33.8418966 95.1488818,33.6000701 95.1308431,33.3251881 C95.1122031,33.0323287 95.0406496,32.8948877 94.7436126,32.8339962 C94.6720591,32.8171785 94.5187302,32.8078998 94.4201188,32.8078998 C94.3197034,32.8078998 94.2655873,32.7922419 94.2655873,32.7313504 C94.2655873,32.6704588 94.3287227,32.6530612 94.4543923,32.6530612 C94.9143788,32.6530612 95.4825975,32.6791576 95.4904143,32.6791576 C95.599849,32.6791576 96.1662638,32.6530612 96.5174169,32.6530612 C96.6430864,32.6530612 96.7062218,32.6704588 96.7062218,32.7313504 C96.7062218,32.7922419 96.6533084,32.8078998 96.5444749,32.8078998 C96.4452621,32.8078998 96.3911461,32.8171785 96.2835152,32.8339962 C96.0405942,32.8774901 95.9684395,33.0242098 95.9510021,33.3251881 C95.9323621,33.6000701 95.9323621,33.8418966 95.9323621,35.1507753 L95.9323621,36.0716877 C95.9323621,37.0273953 95.8337506,38.0439945 95.076727,38.6639286 C94.4375561,39.1893359 93.7887647,39.2844427 93.2025073,39.2844427 C92.7256846,39.2844427 91.8610302,39.2589262 91.2038206,38.690025 C90.7438341,38.2945198 90.4023016,37.6571881 90.4023016,36.4074612 L90.4023016,35.1507753" id="Fill-27" fill="#BFBFBF" fill-rule="nonzero"></path>
        <path d="M98.430989,38.1379415 C98.4490276,38.8100684 98.5662791,39.0327576 98.7460647,39.0936491 C98.8987923,39.1458419 99.0707611,39.1545407 99.2150706,39.1545407 C99.3142834,39.1545407 99.3683995,39.1719383 99.3683995,39.2229712 C99.3683995,39.2919816 99.2872254,39.3093792 99.1609545,39.3093792 C98.5752985,39.3093792 98.215126,39.2832829 98.0443597,39.2832829 C97.9631856,39.2832829 97.5392765,39.3093792 97.0714732,39.3093792 C96.9542217,39.3093792 96.8736489,39.3006804 96.8736489,39.2229712 C96.8736489,39.1719383 96.9277649,39.1545407 97.0173571,39.1545407 C97.1340073,39.1545407 97.2963555,39.1458419 97.422025,39.1110467 C97.6559267,39.0420363 97.692004,38.7926708 97.7010234,38.0439945 L97.7821975,32.9453407 C97.7821975,32.7736845 97.8092555,32.6530612 97.9000502,32.6530612 C97.999263,32.6530612 98.0792345,32.7644058 98.2331647,32.9192444 C98.3413968,33.0311689 99.7099319,34.4357343 101.024351,35.6837214 C101.637666,36.2688604 102.853474,37.5098885 103.006202,37.6473295 L103.051298,37.6473295 L102.961706,33.781005 C102.952687,33.2555978 102.871513,33.0920604 102.65565,33.0050725 C102.520961,32.9546195 102.303294,32.9546195 102.177624,32.9546195 C102.069392,32.9546195 102.033315,32.9285231 102.033315,32.8763303 C102.033315,32.8078998 102.132528,32.799201 102.267217,32.799201 C102.736824,32.799201 103.16855,32.8252974 103.357355,32.8252974 C103.455966,32.8252974 103.799303,32.799201 104.240649,32.799201 C104.357299,32.799201 104.446891,32.8078998 104.446891,32.8763303 C104.446891,32.9285231 104.393377,32.9546195 104.285145,32.9546195 C104.194951,32.9546195 104.123398,32.9546195 104.015767,32.9801359 C103.763826,33.0485664 103.690469,33.2295014 103.682652,33.7114146 L103.582237,39.1458419 C103.582237,39.3354756 103.54616,39.412025 103.466789,39.412025 C103.366374,39.412025 103.258142,39.318078 103.15953,39.2229712 C102.592514,38.7056829 101.439842,37.5777391 100.503033,36.6916218 C99.5205257,35.7620106 98.5211824,34.6845198 98.3588342,34.5209825 L98.3317762,34.5209825 L98.430989,38.1379415" id="Fill-29" fill="#BFBFBF" fill-rule="nonzero"></path>
        <path d="M106.688092,35.1507753 C106.688092,33.8418966 106.688092,33.6000701 106.670054,33.3251881 C106.652015,33.0323287 106.562423,32.8861889 106.363997,32.8432749 C106.265386,32.8171785 106.148736,32.8078998 106.040504,32.8078998 C105.949107,32.8078998 105.894991,32.7922419 105.894991,32.7226516 C105.894991,32.6704588 105.968349,32.6530612 106.112057,32.6530612 C106.454191,32.6530612 107.021207,32.6791576 107.283369,32.6791576 C107.508251,32.6791576 108.03919,32.6530612 108.381925,32.6530612 C108.499177,32.6530612 108.57073,32.6704588 108.57073,32.7226516 C108.57073,32.7922419 108.517215,32.8078998 108.427022,32.8078998 C108.335626,32.8078998 108.264072,32.8171785 108.15584,32.8339962 C107.912919,32.8774901 107.840765,33.0242098 107.823327,33.3251881 C107.804687,33.6000701 107.804687,33.8418966 107.804687,35.1507753 L107.804687,36.6666853 C107.804687,37.5011897 107.804687,38.1814355 107.840765,38.5520041 C107.867823,38.7851319 107.930958,38.9399704 108.200937,38.9736057 C108.327208,38.9910033 108.526235,39.0084009 108.660924,39.0084009 C108.760136,39.0084009 108.805233,39.0344973 108.805233,39.0774114 C108.805233,39.1383029 108.733078,39.1632395 108.633866,39.1632395 C108.03919,39.1632395 107.472174,39.1383029 107.229253,39.1383029 C107.021207,39.1383029 106.454191,39.1632395 106.09462,39.1632395 C105.976166,39.1632395 105.91303,39.1383029 105.91303,39.0774114 C105.91303,39.0344973 105.949107,39.0084009 106.058542,39.0084009 C106.193231,39.0084009 106.301463,38.9910033 106.382637,38.9736057 C106.562423,38.9399704 106.615938,38.7938306 106.642996,38.5438853 C106.688092,38.1814355 106.688092,37.5011897 106.688092,36.6666853 L106.688092,35.1507753" id="Fill-31" fill="#BFBFBF" fill-rule="nonzero"></path>
        <path d="M115.272556,36.1917311 C115.272556,34.2629182 114.110865,33.0653841 112.634097,33.0653841 C111.596873,33.0653841 110.418345,33.6174676 110.418345,35.7620106 C110.418345,37.5528025 111.452563,38.9736057 113.183075,38.9736057 C113.812625,38.9736057 115.272556,38.6807463 115.272556,36.1917311 M109.17548,36.0281937 C109.17548,34.5557777 110.19226,32.6530612 112.895057,32.6530612 C115.137867,32.6530612 116.533461,33.9010484 116.533461,35.8733552 C116.533461,37.845662 115.092771,39.4039061 112.804864,39.4039061 C110.219318,39.4039061 109.17548,37.5528025 109.17548,36.0281937" id="Fill-33" fill="#BFBFBF" fill-rule="nonzero"></path>
        <path d="M118.934641,38.1379415 C118.95268,38.8100684 119.06933,39.0327576 119.249116,39.0936491 C119.402445,39.1458419 119.574414,39.1545407 119.718723,39.1545407 C119.817335,39.1545407 119.871451,39.1719383 119.871451,39.2229712 C119.871451,39.2919816 119.790277,39.3093792 119.664607,39.3093792 C119.07835,39.3093792 118.718779,39.2832829 118.547411,39.2832829 C118.466838,39.2832829 118.042929,39.3093792 117.574524,39.3093792 C117.457874,39.3093792 117.3767,39.3006804 117.3767,39.2229712 C117.3767,39.1719383 117.430816,39.1545407 117.520408,39.1545407 C117.63766,39.1545407 117.799407,39.1458419 117.925678,39.1110467 C118.159579,39.0420363 118.195657,38.7926708 118.205878,38.0439945 L118.285249,32.9453407 C118.285249,32.7736845 118.312307,32.6530612 118.403703,32.6530612 C118.502916,32.6530612 118.583488,32.7644058 118.736216,32.9192444 C118.844448,33.0311689 120.212983,34.4357343 121.528004,35.6837214 C122.141319,36.2688604 123.357127,37.5098885 123.509854,37.6473295 L123.554951,37.6473295 L123.464757,33.781005 C123.456339,33.2555978 123.375165,33.0920604 123.158701,33.0050725 C123.024012,32.9546195 122.806947,32.9546195 122.680676,32.9546195 C122.573045,32.9546195 122.536968,32.9285231 122.536968,32.8763303 C122.536968,32.8078998 122.63618,32.799201 122.770869,32.799201 C123.239875,32.799201 123.671601,32.8252974 123.860406,32.8252974 C123.960821,32.8252974 124.302955,32.799201 124.7437,32.799201 C124.860351,32.799201 124.950544,32.8078998 124.950544,32.8763303 C124.950544,32.9285231 124.897029,32.9546195 124.788797,32.9546195 C124.698604,32.9546195 124.626449,32.9546195 124.518818,32.9801359 C124.266878,33.0485664 124.19352,33.2295014 124.185704,33.7114146 L124.087092,39.1458419 C124.087092,39.3354756 124.049812,39.412025 123.970442,39.412025 C123.870027,39.412025 123.761794,39.318078 123.662582,39.2229712 C123.096167,38.7056829 121.942893,37.5777391 121.006084,36.6916218 C120.024178,35.7620106 119.024234,34.6845198 118.862487,34.5209825 L118.835429,34.5209825 L118.934641,38.1379415" id="Fill-35" fill="#BFBFBF" fill-rule="nonzero"></path>
        <path d="M124.772819,5.50922226 C124.959219,4.63818291 125.591776,3.99737167 126.361426,3.5235773 C127.154527,3.03528494 128.29818,2.59396606 129.471897,2.71690904 C129.69678,2.74010582 130.100245,2.8131757 130.313703,2.94481747 C130.327532,2.95351626 130.343166,2.9633749 130.35459,2.97439337 C130.386459,2.99759016 130.412314,3.02020702 130.430353,3.04862309 C130.445987,3.07471947 130.457411,3.10081586 130.457411,3.12923192 C130.474247,3.32872429 130.07439,3.46674517 129.857324,3.54445441 C129.111725,3.81121746 128.180327,3.92024236 127.433526,4.14351143 C126.363831,4.46304717 125.604403,5.01571062 124.772819,5.50922226 M131.080948,3.35888011 C131.10019,4.52103914 129.312556,4.64282227 128.312611,4.88928813 C127.839396,5.00585199 127.396246,5.1595307 127.025851,5.32364797 C126.589315,5.51676122 126.245979,5.80324154 125.866565,5.94416202 C125.567123,6.05608652 125.356671,6.09320138 125.073464,5.96445921 C125.146821,5.53531865 125.694596,5.41991463 126.060781,5.26159656 C126.439594,5.09805922 126.837046,4.89566725 127.262759,4.76402548 C128.156877,4.48798372 129.248218,4.46826645 129.901218,3.99911143 C130.136322,3.82977489 130.260789,3.58156927 130.457411,3.39831465 C130.535579,3.33510341 130.61555,3.27537168 130.694319,3.21274036 C130.789323,3.17388574 130.880118,3.12923192 130.952272,3.06892028 C130.957684,2.95989538 130.886732,2.92394036 130.822394,2.88160622 C130.542193,2.67689458 130.337754,2.3532994 130.007646,2.24079498 C129.186285,1.95431466 128.138838,2.16018615 127.369188,2.42636928 C126.56346,2.70763032 125.877989,3.12053313 125.4168,3.50270019 L125.396356,3.50270019 C125.204545,3.65637891 125.022354,3.8181765 124.859405,3.99911143 C124.357929,4.46304717 124.173935,5.1299548 123.893734,5.75858772 C123.620147,6.37446242 123.301463,6.99033711 123.056739,7.63984715 C122.562478,8.96264392 122.211325,10.384607 121.876407,11.8622423 C121.830709,10.6821058 122.06882,9.52922544 122.370667,8.48942947 C122.670109,7.45775237 123.027877,6.48638691 123.486661,5.65420218 C123.742209,5.19432588 123.941236,4.78200299 124.23707,4.41317408 C125.096914,3.33858293 126.386079,2.58990663 127.991522,2.17700382 C128.081114,2.1822231 128.156877,2.1735243 128.205581,2.13640944 L128.227829,2.13640944 C128.345682,2.13872912 128.449705,2.13119016 128.527271,2.09581506 L128.548918,2.09581506 C128.933142,2.07783755 129.371482,2.05580061 129.750294,2.09581506 L129.772542,2.09581506 C129.87897,2.13640944 130.015463,2.15090743 130.136322,2.17700382 C130.409909,2.28022952 131.043668,2.55511145 131.080948,2.84043193 C131.093575,2.92973956 130.999774,2.9633749 130.994964,3.06892028 C130.993761,3.15300863 131.080948,3.27189216 131.080948,3.35888011 M133.355627,4.63992267 C133.266035,3.44180863 132.544487,2.66935562 131.659389,2.17700382 C130.760461,1.67943274 129.457466,1.49327852 128.097951,1.7432239 C126.623588,2.01752591 125.248439,2.81201586 124.323054,3.75032589 C124.190771,3.88544718 124.076526,4.03158694 123.954464,4.17308734 C123.929811,4.20034356 123.905759,4.22875962 123.881107,4.25717569 C123.157154,5.12009616 122.600961,6.11175881 122.177052,7.26811863 C121.972613,7.82484152 121.785011,8.41345999 121.614245,9.0357138 C121.607631,9.05833067 121.601016,9.08036761 121.597409,9.10298448 C121.39297,9.83194351 121.229419,10.5788801 121.118782,11.3548126 C121.100142,11.4876142 121.079097,11.6215756 121.062862,11.7578567 C120.899311,12.9861266 120.863234,14.5020366 121.104952,15.647378 C121.180715,16.0121475 121.255275,16.4755033 121.576965,16.6007659 C121.742319,16.4581057 121.724281,16.2400559 121.769377,16.0614406 C122.522192,13.0696351 124.505846,11.5003724 127.090189,10.2680431 C128.453914,9.61795315 129.921662,9.14879814 131.187377,8.38620377 C132.42002,7.64390658 133.507152,6.64238531 133.355627,4.63992267 M122.328577,21.6483868 C122.186071,21.6472269 122.161418,21.5329828 122.048376,21.5045667 C121.769377,21.235484 121.465726,20.9913378 120.95463,20.9455241 C121.062862,20.8335996 121.394173,20.8585362 121.576965,20.8834727 C121.942549,20.9664012 122.553459,21.3195723 122.328577,21.6483868 M120.653985,23.5522631 C120.489232,23.6908639 120.384006,23.8915161 120.225867,24.0069201 C120.049689,24.1362422 119.762273,24.1147852 119.560239,24.1942342 C119.473052,24.2278695 119.409917,24.3502325 119.302888,24.3589313 C118.842901,24.3948864 118.700395,23.50239 118.745492,23.0140976 C118.750302,22.9671241 118.805621,22.6858631 118.787582,22.8285233 C118.767138,23.3179755 118.867554,23.6885442 119.088227,23.9454486 L119.088227,23.942549 C119.088227,23.9437089 119.08943,23.9454486 119.08943,23.9471884 C119.097246,23.9651659 119.141141,24.0602727 119.202472,24.0765105 C119.206681,24.0765105 119.211491,24.0788301 119.215701,24.0788301 C119.222315,24.0840494 119.232537,24.0875289 119.245164,24.0910084 C119.300482,24.1037667 119.398493,24.1037667 119.431563,24.1113056 C119.568056,24.0776703 119.610146,23.9251514 119.710562,23.8410631 C119.863289,23.7146406 120.073139,23.6786856 120.246311,23.5731402 C120.402045,23.4774534 120.534329,23.3266743 120.697278,23.2211289 C121.020171,23.0129378 121.333443,22.8395418 121.597409,22.5594406 C121.712856,22.4388173 121.814474,22.2259868 122.027932,22.2491836 C122.072427,22.8986936 121.093528,23.1863338 120.653985,23.5522631 M119.859682,21.7933667 C120.079152,21.5909747 120.393026,21.3978615 120.717722,21.3595868 C121.121789,21.3131932 121.612441,21.5045667 121.640702,21.7719097 C121.671969,22.0520109 121.299169,22.2567225 121.083306,22.3721265 C120.798896,22.5258053 120.521702,22.6127932 120.310649,22.7450149 C119.858479,23.0314952 119.575272,23.4223611 119.358206,23.8857169 C119.318521,23.942549 119.246366,24.0272173 119.18744,24.0208382 C119.174212,24.0132992 119.160382,24.0069201 119.146552,23.9947418 C119.123102,23.9686454 119.106266,23.9176125 119.096044,23.8335241 C119.148356,23.0193169 119.361213,22.253243 119.859682,21.7933667 M120.937794,20.4879675 C120.919755,20.4926069 120.902919,20.5007257 120.890292,20.5105844 C120.904122,20.5007257 120.919755,20.4926069 120.937794,20.4879675 M120.999727,20.4746294 C120.982891,20.4757892 120.96846,20.4792687 120.95463,20.4827482 C120.966055,20.4804286 120.977479,20.476949 120.990106,20.4746294 C120.907128,20.4868077 120.824752,20.491447 120.73997,20.5105844 C119.980541,20.6776013 119.413525,21.0458502 119.023889,21.4622326 C118.63245,21.8838342 118.268669,22.4689731 118.207939,23.2634631 C118.081067,24.9539289 119.057561,26.0325795 120.246311,26.491296 C122.504755,27.3611755 124.48901,25.8377265 124.730729,23.9651659 C124.835954,23.1602374 124.608667,22.3657474 124.151086,21.7521924 C123.549195,20.9443643 122.422378,20.2635386 120.999727,20.4746294" id="Fill-37" fill="#BFBFBF" fill-rule="nonzero"></path>
        <path d="M113.568102,20.582588 C113.11954,21.4588466 112.224821,22.1506908 111.358964,22.6094073 C110.753465,22.9301028 110.074609,23.2189028 109.341036,23.4375326 C108.612273,23.6544225 107.794519,23.8823309 106.938884,23.7895438 C107.254561,23.5749735 107.644197,23.5540964 107.989938,23.4584097 C110.060779,22.8906683 112.082315,21.9645366 113.117135,20.3755567 C113.298123,20.0995149 113.462876,19.752143 113.718424,19.506837 L113.760514,19.506837 C113.900615,19.8959631 113.725038,20.2752306 113.568102,20.582588 M103.848857,20.1685254 C103.266808,20.4178908 102.482727,20.8626892 102.155024,21.3277848 C102.065432,21.4524675 102.002296,21.7627245 101.854379,21.7627245 C101.755166,21.7627245 101.667979,21.5928081 101.661966,21.4716049 C101.634908,20.9966506 102.215754,20.5715695 102.541052,20.3546796 C102.960752,20.0757382 103.472449,19.8054956 103.955886,19.7533029 C104.123045,19.7370651 104.362959,19.7312659 104.492838,19.8379711 C104.362959,20.0571808 104.067726,20.0757382 103.848857,20.1685254 M112.917506,18.6665334 C112.92833,18.6885703 112.939754,18.7111872 112.948773,18.7332242 C112.939754,18.7111872 112.92833,18.6885703 112.917506,18.6665334 M103.441783,12.9682427 C103.341368,13.1613559 103.308898,13.4750925 103.098447,13.5272852 C102.805619,13.1381591 103.079206,12.6968403 103.269815,12.3894828 C103.858477,11.4471134 104.902917,10.8161608 105.931122,10.3400467 C107.374819,9.67081942 109.028365,9.0984387 110.885749,8.97549573 C111.114239,8.9598379 111.360166,8.93374151 111.57182,8.99579292 C111.421498,9.14541219 111.188197,9.14425236 110.993981,9.18252705 C109.518416,9.4637881 108.127633,9.847115 106.874546,10.3823809 C105.513226,10.9628805 104.072536,11.7573704 103.441783,12.9682427 M117.021308,17.0856724 C115.706889,15.0843696 112.023389,15.232829 109.126375,14.6650876 C108.256309,14.4940113 107.029077,14.2226089 107.089206,13.2779198 C107.110853,12.9201094 107.357983,12.6579857 107.667647,12.4474748 C107.856452,12.3210523 108.067504,12.2155069 108.268936,12.1204001 C109.005516,11.7695487 110.01929,11.4511728 110.865305,11.8095632 C111.461784,12.063568 111.886896,12.474731 112.56034,12.7200371 C113.200714,12.9520049 114.011252,12.8539985 114.661848,12.6782828 C115.049679,12.5738973 115.407447,12.4422555 115.756796,12.2850973 C116.372516,12.0073158 117.202296,11.6060114 117.300306,10.8584949 C117.382683,10.2287021 116.569138,9.66618006 116.206561,9.40927565 C115.195191,8.69423469 113.952326,8.23319855 112.388372,8.16708771 C111.606695,8.13519212 110.76489,8.30974794 110.113092,8.43617043 C108.234062,8.80557927 106.491524,9.4168146 105.029188,10.2571182 C104.385207,10.6288467 103.642013,11.1188788 103.098447,11.7475118 C102.619219,12.3048146 102.064229,13.2245672 102.2837,14.251025 C102.293922,14.2997383 102.31196,14.3403326 102.326391,14.3861463 C102.326391,14.3896258 102.327594,14.3925254 102.328796,14.3948451 C102.390729,14.6094154 102.489341,14.7938298 102.613808,14.9573672 C102.621624,14.9672258 102.629441,14.9770844 102.637258,14.987523 C102.977588,15.4247824 103.498305,15.7275005 104.04187,15.94787 C104.863232,16.2801639 105.891437,16.4895149 106.831854,16.6716097 C107.535363,16.8096306 108.334477,16.9186555 109.120964,17.0514571 C109.145617,17.0549366 109.166061,17.0572563 109.187707,17.0636354 C109.268881,17.0775535 109.348251,17.0908916 109.42702,17.1042298 L109.42702,17.1053896 C109.433634,17.1053896 109.43604,17.1053896 109.439647,17.1082892 C109.465503,17.1082892 109.484744,17.1135085 109.503985,17.1193077 C109.520821,17.1193077 109.534651,17.1233671 109.549082,17.1268467 C109.676555,17.1494635 109.802225,17.1761398 109.928496,17.2010764 C109.933306,17.2010764 109.93992,17.2033961 109.942325,17.2051358 C110.151574,17.2480499 110.357817,17.2915439 110.556843,17.3448965 C110.570673,17.3472161 110.586307,17.3512756 110.600136,17.3564949 C111.309658,17.5374298 111.943417,17.7775165 112.408815,18.120829 C112.899468,18.481539 113.167042,19.1438073 112.881429,19.8576884 C112.687814,20.3471406 112.349889,20.7635229 111.927182,21.1207535 C111.912751,21.1317719 111.900124,21.1439502 111.885693,21.1555486 C111.877877,21.1619278 111.874269,21.1654073 111.867655,21.1729462 C111.809931,21.2187599 111.747998,21.2668932 111.685464,21.3127069 C111.64157,21.3428627 111.601283,21.3724386 111.560396,21.4020145 C110.948884,21.8270956 110.21471,22.1570699 109.469712,22.4244129 C108.415651,22.8025205 106.413357,23.3319872 105.223405,22.7752643 C104.940197,22.6430426 104.746582,22.4679069 104.663604,22.2162217 C104.53132,21.809698 104.685852,21.4194121 104.85782,21.2233992 C105.098336,20.950837 105.572754,20.8481912 106.038152,20.7275679 C106.477695,20.6139037 106.934675,20.4132515 106.896192,19.9191599 C106.867932,19.5393125 106.469878,19.4076707 106.188474,19.2998057 C105.616047,19.0817559 105.052037,19.0185446 104.516288,19.0730571 C104.448944,19.0707374 104.388815,19.0730571 104.341313,19.0904547 C104.338908,19.0904547 104.338908,19.0904547 104.338908,19.0939342 C103.940253,19.1472868 103.559636,19.2638507 103.205477,19.4233286 C102.403356,19.7846185 101.541107,20.3830956 101.168307,21.0175278 C100.779874,21.6774763 101.043239,22.4795053 101.359518,23.0866812 C101.994479,24.3039325 103.065376,25.1169799 104.492838,25.5269831 C106.654474,26.1469173 109.270084,25.6064321 110.971733,25.051449 C112.745538,24.4750089 114.504911,23.5697542 115.712902,22.3414844 C116.292545,21.7540257 116.8776,21.0326057 117.193878,20.127931 C117.526391,19.1786025 117.590729,17.947433 117.021308,17.0856724" id="Fill-39" fill="#BFBFBF" fill-rule="nonzero"></path>
        <path d="M82.1126545,13.0612245 C82.1126545,13.0612245 82.1126545,13.0623843 82.111452,13.0623843 C82.1126545,13.0623843 82.1126545,13.0612245 82.1126545,13.0612245" id="Fill-41" fill="#DA2246" fill-rule="nonzero"></path>
        <path d="M93.6683674,16.6837495 C93.4446877,16.7556596 93.0887242,16.8049527 92.9384018,16.6622925 C93.0063475,16.3961094 93.3226259,16.3102812 93.5192476,16.2076355 C94.1800649,15.8695423 94.7777467,15.4502604 95.3634028,15.0077817 C95.9598821,14.5589238 96.5010427,14.1141254 96.9508074,13.5388451 C97.1504355,13.2807809 97.3031631,12.9647246 97.5743447,12.7518941 C97.8966359,12.7170989 97.6218466,13.395025 97.5743447,13.4982507 C97.2682883,14.1373222 96.6182942,14.6592499 96.1144135,15.0698331 C95.5822722,15.5047728 94.9406962,15.9350732 94.3123486,16.3102812 C94.0940804,16.441923 93.8704007,16.6182186 93.6683674,16.6837495 M93.0887242,11.2841174 C93.9702148,11.3438492 95.0681696,11.3757447 95.8793093,11.6204708 C95.9123802,11.6303295 95.947255,11.6425078 95.9821298,11.6535263 C96.0963748,11.691801 96.2016005,11.7329753 96.3020159,11.7840082 C96.337492,11.8014058 96.3747719,11.8182234 96.4114506,11.8385206 C96.557564,11.9214492 96.6826322,12.0182957 96.7800411,12.1308002 C97.276105,12.7107198 96.5810143,13.3381929 96.1583077,13.7458764 C95.1631734,14.7050636 93.8740084,15.5592853 92.596268,16.1664612 C92.7610214,14.5368869 92.9269773,12.9131118 93.0887242,11.2841174 M80.0876403,10.1451552 C79.3396361,10.2814363 78.3114308,10.4113383 77.9001487,10.8491777 C77.7804921,10.97676 77.6662471,11.4772307 77.470828,11.4691118 C77.2435405,11.460413 77.2970553,11.0794058 77.342152,10.9309463 C77.6019091,10.0819439 78.8303438,10.0854235 79.831491,9.93812387 C81.9125543,9.63308612 84.2233102,9.3877801 86.4168147,9.27643552 C86.4540947,9.2700564 86.4583037,9.29209335 86.4595063,9.31818974 C84.4704403,9.56233592 82.1103786,9.77806604 80.0876403,10.1451552 M80.4911057,21.178127 C80.4832889,21.1473912 80.477276,21.1125961 80.4706618,21.076641 L80.4706618,21.0691021 C80.4754721,21.1085366 80.4820863,21.1462314 80.4911057,21.178127 M80.4562309,20.8771487 C80.4562309,20.8916467 80.4574334,20.9055647 80.4574334,20.9218025 C80.4574334,20.9055647 80.4562309,20.8916467 80.4562309,20.8771487 M77.6427968,15.6079985 C77.460606,15.7877736 77.3319301,16.196617 77.0848,15.8144499 C77.0571407,15.4195246 77.383641,15.2090138 77.6211504,15.0274989 C77.9578725,14.7746539 78.2585173,14.5252885 78.5218822,14.2005335 C78.6541659,14.038156 78.7431568,13.8583809 78.9938945,13.806768 C79.3961573,14.7584162 78.1172143,15.1440628 77.6427968,15.6079985 M83.0922845,21.8560531 C83.9070319,21.7302105 84.8017508,21.5985687 85.7307433,21.6496017 C85.1396756,21.849094 84.4920867,21.9030266 83.8426939,22.02249 C83.529422,22.0781623 83.2089347,22.1280354 82.8992705,22.2069045 C82.4765639,22.3159294 82.1013592,22.5096226 81.6119095,22.3942185 C81.8981233,22.0497463 82.5180529,21.9442009 83.0922845,21.8560531 M100.960808,13.4779536 C100.952991,13.4907118 100.943972,13.5028901 100.934952,13.5156483 C100.943972,13.5028901 100.952991,13.4907118 100.960808,13.4779536 M101.221767,13.0801287 C101.219362,13.0853479 101.216356,13.0888275 101.215153,13.0928869 C101.216356,13.0888275 101.219362,13.0853479 101.221767,13.0801287 M95.8131674,18.1318089 C97.6549175,16.7556596 99.6445848,15.4230041 100.941566,13.5597222 C101.168854,13.2338074 101.370887,12.882956 101.517602,12.4938299 C101.571718,12.3540692 101.617416,12.2137287 101.649886,12.0687487 C101.663715,12.0130765 101.681754,11.9608837 101.691976,11.9040516 C101.821854,11.19365 101.610201,10.5638572 101.177873,10.1039809 C100.423255,9.29847247 99.1395015,8.86585239 97.7878025,8.59329014 C95.7362024,8.1792275 93.2739214,8.05396485 90.9451268,8.26215601 C90.5669156,8.29695119 90.1881032,8.31260902 89.8092907,8.32652709 L89.7894481,8.32652709 C89.7305218,8.32768693 89.672798,8.32884677 89.6162767,8.33174637 C89.60846,8.33174637 89.6018458,8.33174637 89.5970355,8.33290621 C89.2561043,8.34160501 88.9181795,8.3503038 88.5838625,8.36654155 C85.3952237,8.50978171 82.4549175,8.83105721 79.679966,9.31818974 C78.9692417,9.44229255 78.0877511,9.54493833 77.5568124,9.83489817 C77.2597753,9.99611583 77.012044,10.3707439 76.8484932,10.6844805 C76.8154223,10.7488516 76.7841552,10.8120628 76.7589011,10.8764339 C76.7510843,10.8949913 76.7408624,10.9135488 76.7366533,10.9309463 C76.7198172,10.969221 76.7059876,11.0074957 76.6957657,11.0463504 C76.6687076,11.1240596 76.6506689,11.2011889 76.6338328,11.2765785 C76.5839258,11.5236243 76.5839258,11.756172 76.6302251,11.9719022 C76.6314277,11.9846604 76.6314277,11.9956789 76.6338328,12.0078572 C76.6416496,12.0403327 76.6494664,12.0722283 76.6572831,12.1012243 C76.6650999,12.1331198 76.6753218,12.1632757 76.6867463,12.1928516 C76.7083927,12.2508435 76.731843,12.305356 76.7589011,12.3610283 C77.0336904,12.904413 77.6247581,13.279621 78.3511159,13.3741479 C78.2753535,13.6246732 78.2561122,13.9285511 78.1791471,14.1796564 C78.0186028,14.2712837 77.8406211,14.3623311 77.6608355,14.4585977 C77.6572277,14.4603375 77.6530187,14.4609174 77.649411,14.4620772 C77.5977001,14.4910732 77.547793,14.5154299 77.497886,14.5450058 C76.997613,14.8222074 76.5159801,15.1539214 76.3987286,15.690927 C76.2628371,16.3068017 76.6494664,16.9452933 76.9128312,17.2410523 C76.9615357,17.2973045 77.0787871,17.380233 77.1954373,17.4707005 C77.1966399,17.4718603 77.2008489,17.47418 77.2032541,17.47418 C77.2880359,17.5547889 77.3782294,17.6307583 77.4672202,17.6986089 C77.470828,17.7015085 77.470828,17.7015085 77.4732331,17.7026684 C77.5069053,17.7397832 77.5297543,17.7728387 77.5351659,17.8018346 C77.5658317,17.9282571 77.460606,18.2095182 77.4281364,18.4217688 C77.2525598,19.5839278 77.1106555,20.6069061 76.9771692,21.7110732 C76.9026093,22.3385463 76.7486791,22.9706587 76.9128312,23.4699695 C77.1455303,24.1681928 77.6945077,24.657645 78.3294695,25.1250603 C78.9656339,25.5924755 79.6234448,25.9926201 80.3882851,26.181094 C80.9757451,26.3249141 81.5072851,26.0807679 81.9985387,25.8911342 C82.356306,25.7519535 82.713472,25.5924755 83.0063001,25.4567743 C84.3375553,24.8501784 85.5383306,24.2325639 86.8028427,23.4914266 C87.3307749,23.1829093 88.2549571,22.7746458 88.3054654,22.1251358 C88.329517,21.8177784 88.1353004,21.5214394 88.0060232,21.3805189 C87.8075976,21.1682683 87.4053348,20.8916467 87.081841,20.8226362 C86.6422983,20.7269495 85.964645,20.8278555 85.4300985,20.8829479 C84.3940765,20.9948724 83.4536596,21.1334732 82.5330852,21.3602218 C82.0472432,21.4785254 81.581845,21.7360097 81.1398971,21.6704788 C80.8663104,21.6293045 80.5704759,21.3358651 80.5181637,21.1537704 C80.4472115,20.9096242 80.5049353,20.5947278 80.5181637,20.3256451 C80.5620578,19.4134314 80.65165,18.77378 80.7749144,17.9468146 C82.0887321,17.7078877 83.4765086,17.380233 84.744027,17.0566379 C85.611688,16.8351085 87.2411828,16.4691792 86.5881823,15.2977415 C85.9237573,14.1002074 83.3285913,14.3791487 81.5902631,14.3246363 C81.7159326,13.886217 81.828975,13.4373592 81.9714807,13.0169174 C81.7778654,13.366609 81.7363764,13.8676596 81.5680153,14.2417078 C81.7363764,13.8676596 81.7778654,13.3654491 81.9714807,13.0169174 L81.9714807,13.0157576 C81.9738858,13.0111182 81.9768923,13.0047391 81.9792974,12.9995198 C84.204069,12.6016949 86.4186186,12.1940114 88.6277566,11.7799488 C88.5562032,15.4809961 88.636776,19.5050587 89.0131833,22.9938555 C89.0775212,23.5842137 89.1779366,24.0777254 89.2705352,24.6912804 C89.3462977,25.1818924 89.407028,26.0448129 89.7846378,26.1404996 C90.0468001,26.2037109 90.3408307,26.0065382 90.5362498,25.8696771 C90.7689489,25.7101992 90.9902235,25.5513012 91.1381407,25.3953029 C92.1687511,24.2957751 91.9150069,21.8525736 92.1879924,20.0368451 C92.5475636,20.2409768 92.8265619,20.5599326 93.1542648,20.8226362 C94.1698429,21.6356836 95.1980482,22.3855197 96.2424882,23.1602924 C97.2442367,23.9014298 98.2038949,24.8049446 99.2904252,25.5176659 C99.6265461,25.7397751 100.069095,26.1376 100.490599,26.1404996 C100.915711,26.1416595 101.27408,25.8192241 101.370887,25.41618 C101.589155,24.5004868 101.023943,23.5743551 100.59823,23.0361896 C99.1797879,21.2366989 97.0307789,19.9214411 95.8131674,18.1318089" id="Fill-43" fill="#BFBFBF" fill-rule="nonzero"></path>
        <path d="M32.0701026,16.3750798 C31.6588205,16.7903023 30.6847313,16.8622123 30.011287,16.8100195 C30.2373719,16.5710926 30.584316,16.5797914 30.8681247,16.4580083 C31.1525347,16.3356452 31.3533654,16.1286139 31.5547974,15.94014 C31.7171456,15.7928404 32.3647345,15.0673609 32.3707474,15.7539858 C32.37195,15.990593 32.1807399,16.2637352 32.0701026,16.3750798 M30.9138227,13.0272035 C30.9264498,13.0074862 30.9408807,12.9912485 30.9571155,12.9715312 C31.1771875,13.8947633 31.4261214,14.8951248 31.6191354,15.7754428 C30.8170151,15.8954862 29.9716019,15.9784147 29.195337,16.1257143 C29.6793751,15.0870782 30.2993047,14.0072678 30.9138227,13.0272035 M27.1142737,15.4228517 C26.2069276,17.4560501 25.3867686,19.5385416 24.6465811,21.7549946 C24.5257219,22.1215038 24.4078691,22.4949721 24.3032447,22.8730797 C24.2070384,23.2297303 24.1739675,23.6385737 23.9178181,23.9488307 C23.790946,23.1149062 24.0681405,22.2977994 24.3032447,21.5479633 C24.9965317,19.3512276 25.8395397,17.2623569 26.728847,15.2158204 C27.7444252,12.8833834 28.8327593,10.5045529 30.011287,8.24402604 C30.1988893,7.88563568 30.3738646,7.52724533 30.611374,7.27208067 C30.6294127,7.26802123 30.6330204,7.27903971 30.6330204,7.29179794 C30.767108,8.11470395 30.2307577,8.78393126 29.9030548,9.42242282 C28.9115283,11.3610943 28.030639,13.3768951 27.1142737,15.4228517 M30.4394052,5.84373851 C30.4664632,5.60713129 30.7208087,5.44475378 30.8903724,5.63670719 C31.1152547,5.88955217 30.767108,6.20212887 30.675712,6.40162124 C30.5536502,6.29491602 30.4147523,6.07686622 30.4394052,5.84373851 M36.5966108,22.5407858 C36.171499,19.6661239 35.7139176,16.9961738 35.2022202,14.2641722 C34.8763212,12.5116549 34.5161487,10.6013995 34.0868279,8.94630877 C33.6689317,7.33007264 32.8337404,5.73471361 31.4483691,5.07824454 C31.3016545,5.00691442 31.1296856,4.93674414 30.9547104,4.9118076 C29.6655455,4.72855298 29.7106422,6.40568068 29.8814084,7.47795215 C28.3366954,10.2018349 26.998826,13.2498927 25.6777928,16.3750798 C25.0464387,17.8660533 24.4192936,19.4306765 23.8534801,21.0927263 C23.5943243,21.8588002 23.290673,22.7437576 23.1457622,23.6374139 C23.0002502,24.5374492 22.9629702,26.0127648 23.7470518,26.141507 C24.1198514,26.2035584 24.4746123,25.9454942 24.6904752,25.7489014 C25.399997,25.0988114 25.6994392,23.9992837 26.0427756,23.0998283 C26.5388395,21.7996484 27.0812027,20.5707986 27.6500227,19.3958814 C29.0618507,19.080985 30.8621118,19.0316918 32.4777769,18.9818187 C32.9804551,20.7668115 32.9876705,23.1415825 34.1511659,24.2179135 C34.4079166,24.4545207 34.8504657,24.6789496 35.2461143,24.8993191 C35.556981,25.073295 36.1739042,25.4473432 36.5545205,25.231613 C36.8431395,25.0669159 36.8497537,24.5154122 36.7896247,23.9488307 C36.7421228,23.4790958 36.6585436,22.9420902 36.5966108,22.5407858" id="Fill-45" fill="#BFBFBF" fill-rule="nonzero"></path>
        <g id="Group-49" transform="translate(0.919369, 0.040632)">
          <g id="Fill-47-Clipped">
            <mask id="mask-2" fill="white">
              <use xlink:href="#path-1"></use>
            </mask>
            <g id="path-1"></g>
            <path d="M10.5358604,7.21824419 C10.4035767,8.21976546 10.1335976,9.09602409 9.93577334,10.0517317 C9.86121343,10.4199807 9.84076958,10.8067871 9.65677496,11.1280626 C9.59784858,9.74959356 9.90089854,8.56307791 10.1931253,7.50704418 C10.2736981,7.21940403 10.234013,6.85637431 10.4937701,6.65920162 C10.6645363,6.80534138 10.5593107,7.04832772 10.5358604,7.21824419 M9.01279379,15.3498779 C8.85224947,15.4548433 8.63398134,15.5047164 8.39106034,15.5766264 C8.15294965,15.6496963 7.94610603,15.825412 7.79097331,15.825412 C7.64185349,15.825412 7.51438009,15.7192867 7.51197493,15.6183807 C7.50415817,15.3753943 7.88717965,15.3324803 8.09041553,15.2454923 C8.71094641,14.9839485 9.06811243,14.3321188 9.48480613,13.8797815 C9.61708985,14.5078345 9.43730425,15.0755758 9.01279379,15.3498779 M16.8012981,15.4936979 C18.576305,15.0854345 20.1997869,14.3703935 21.1335897,13.1554618 C21.5081931,12.6712289 21.7457025,12.0739116 22.0770131,11.4388996 C22.0836273,11.4168626 22.1209072,11.4249815 22.1209072,11.3971454 C22.1389459,11.3942458 22.1431549,11.4052642 22.1431549,11.4180225 C22.1605923,11.4226618 22.1635988,11.4388996 22.1852452,11.4388996 C22.1714156,13.0934104 21.1059304,14.1917783 19.9761072,14.8117124 C18.8228337,15.4438248 17.3063813,15.7598811 15.7063497,15.7622007 C16.0532938,15.594024 16.4429295,15.5766264 16.8012981,15.4936979 M20.6092652,13.1705397 C20.6405322,13.1444433 20.6675902,13.1148674 20.6904393,13.0812321 C20.7223076,13.0429574 20.7613914,13.0104819 20.7908546,12.9698875 C20.7199024,13.0655743 20.633918,13.1444433 20.5557504,13.2325911 C20.5737891,13.2128739 20.5930303,13.1914168 20.6092652,13.1705397 M5.23669506,1.0728354 C4.74604274,1.1522844 4.27162524,1.25377034 3.80021419,1.36279524 C2.81710568,1.58838399 1.96327444,1.927637 1.20384566,2.23151491 C1.13830509,2.2576113 0.849084793,2.26746993 0.817216444,2.1074121 C0.779936488,1.91893821 1.15393862,1.79135588 1.33252164,1.71364664 C2.77561669,1.09023299 4.7135731,0.727783197 6.73931779,0.823469944 C6.25467836,0.983527773 5.73336027,0.993386408 5.23669506,1.0728354 M23.3228852,15.7413236 C24.5435031,14.6841301 25.3221731,13.1856176 25.4899329,11.3136369 C25.6721236,9.26072128 24.7220861,7.73669237 23.6878679,6.55481608 C22.6686821,5.39091729 21.3536617,4.41317272 19.9977536,3.5960659 C18.6159901,2.76852053 17.0905184,2.06391813 15.4273513,1.48689805 C13.0486496,0.658192837 10.1606557,-0.127598321 6.84634734,0.0173815971 C5.81152792,0.0626153316 4.77069561,0.13684505 3.84230446,0.389690028 C2.73953932,0.693567937 1.60250067,0.941193637 0.688540468,1.46544102 C0.416156276,1.62317917 0.0253180314,1.87080487 0.00186773674,2.16946351 C-0.0257915852,2.56148921 0.259219689,2.7853382 0.494323925,2.96279362 L0.495526504,2.96279362 C0.509957455,2.97555185 0.524388405,2.98657033 0.538218066,2.99642896 C1.0396936,3.37917595 1.74380373,3.75728357 2.53389827,3.78337996 C2.96983324,3.79613819 3.41719271,3.7462651 3.75632004,3.5960659 C4.18323567,3.40817193 4.42074506,2.97439201 4.80797557,2.78939764 C5.17416094,2.61542174 5.68585839,2.57772696 6.23303194,2.59860406 C6.83311896,2.62064101 7.47710013,2.71110848 8.02607754,2.76968037 C10.8262832,3.06311972 13.1424508,3.775841 15.2343374,4.73560806 C16.2150407,5.18388597 17.2179918,5.74930765 18.1301481,6.4138956 C18.154801,6.43245303 18.1788526,6.44985062 18.2035054,6.46840805 C18.4981373,6.68645784 18.7843512,6.9120466 19.0543302,7.14981366 C19.0585393,7.15503294 19.0633496,7.15851246 19.0669573,7.1625719 C19.1968359,7.27681607 19.3219041,7.39453977 19.4463711,7.51226346 C19.8077461,7.8642747 20.1390567,8.23484337 20.4258718,8.62512931 C20.8395591,9.18301204 21.3037547,9.92530922 21.3704978,10.6942827 C21.4101829,11.1564787 21.3680926,11.5688016 21.2610631,11.94111 C21.1919148,12.1516209 21.1059304,12.3511132 21.0181421,12.540747 C21.0169395,12.5448064 21.0145343,12.5459662 21.0115279,12.5494457 C20.5016343,13.4854361 19.5233361,14.0804337 18.4734845,14.438824 C16.77424,15.0199036 14.6168129,15.0796353 12.3379253,14.9566923 C12.2308958,13.2563678 12.0986121,11.6569494 11.8881607,9.99142007 C11.741446,8.82578152 11.5640656,7.58533334 11.2658259,6.53393897 C11.2568066,6.50204339 11.2477873,6.46956789 11.2375653,6.43361287 C11.2249383,6.39011889 11.2105073,6.34198556 11.1942725,6.29501207 C11.1010726,6.00215263 10.9639786,5.70465384 10.7084305,5.70755344 C10.3945573,5.71219279 10.1913214,6.20570444 10.0644493,6.4521703 C8.96829836,8.60773172 8.69531288,11.6024369 8.62736715,14.6876096 C7.83847519,14.6928289 7.08385673,14.8401285 6.86799376,15.4316465 C6.55832961,16.2852883 7.48611948,17.045563 8.02607754,17.3778569 C8.14032257,17.4468674 8.3411533,17.5152979 8.48726667,17.5895276 C8.51853373,17.6046055 8.54619305,17.6179437 8.56964335,17.6341814 C8.61834781,17.6654971 8.65322261,17.6962329 8.66945742,17.7292883 C8.70974383,17.8151164 8.68509095,18.0714409 8.69170514,18.2674537 C8.75724571,20.3615437 8.94124033,22.2787581 9.16311619,24.1837942 C9.24429029,24.8756384 9.28638056,25.6121364 9.46255842,26.2117733 C9.58401892,26.6148175 9.84076958,27.03004 10.2791097,27.0816529 C11.0283166,27.1686408 11.6464423,26.171179 11.930251,25.7571163 C12.3457421,25.1557396 12.6205314,24.5236272 12.6602165,23.6682457 C12.7029081,22.7496529 12.5742321,21.8548368 12.5742321,20.9559613 C12.5742321,20.0536063 12.5098941,19.1547308 12.5098941,18.2251196 C17.1061519,18.4930425 20.9694376,17.7826409 23.3228852,15.7413236" id="Fill-47" fill="#BFBFBF" fill-rule="nonzero" mask="url(#mask-2)"></path>
          </g>
        </g>
        <path d="M21.5577104,13.1725691 C21.5342601,13.2062044 21.5066008,13.2357803 21.4765363,13.2618767 C21.4597002,13.2827538 21.4404589,13.303051 21.4224203,13.3227683 C21.5011892,13.2357803 21.5871736,13.1563313 21.6581258,13.0612245 C21.6286626,13.1018189 21.5883762,13.1331345 21.5577104,13.1725691" id="Fill-50" fill="#DA2246" fill-rule="nonzero"></path>
        <path d="M63.7176495,8.7667305 C62.3040176,9.28227909 60.9932063,10.2316076 59.0408189,10.1115642 C59.5032106,9.87263731 60.0094965,9.81174575 60.4791037,9.65690719 C61.7989344,9.22022768 63.0905044,8.32193211 64.6189826,8.16709355 C64.8101927,8.14679636 65.0669434,8.10968151 65.2190697,8.22856504 C64.7596844,8.52258431 64.2167199,8.58579556 63.7176495,8.7667305 M46.6614685,13.4014485 C46.3554121,14.0202228 45.7306722,14.517214 45.2027399,14.9324365 C44.8455739,15.2160172 44.4613498,15.5100365 44.0446561,15.7814389 C43.6369818,16.0464622 43.2106675,16.3891947 42.8005879,16.5463529 C42.5678889,16.6339208 42.1962919,16.7011915 42.0062844,16.5248959 C42.1295487,16.2720509 42.4163639,16.1792638 42.6286191,16.0702389 C43.7247701,15.5082967 44.820921,14.6842308 45.6759548,13.8155112 C45.8377017,13.6519738 46.0210951,13.4634999 46.1690123,13.2564686 C46.3439876,13.0094228 46.4456055,12.7333811 46.7053626,12.6144975 C46.7228,12.6115979 46.7270091,12.6231963 46.7270091,12.6353746 C46.9019843,12.878361 46.7666942,13.1920975 46.6614685,13.4014485 M42.1566068,11.1664381 C43.2413332,11.1936943 44.3813783,11.2818421 45.1822961,11.6019578 C45.4071784,11.6906855 45.6861768,11.8188477 45.8647598,12.0166003 C45.8737791,12.0229795 45.8785894,12.0305184 45.8827985,12.0392172 C45.948339,12.1256252 45.9982461,12.2201522 46.0277093,12.3204783 C46.0433428,12.3848493 46.0481531,12.4567594 46.0397351,12.5327289 C45.9970435,12.9514309 45.5112015,13.3939096 45.2243863,13.6705313 C44.2539049,14.6088413 42.8685337,15.4479851 41.7068421,16.0505216 C41.795833,14.4453039 42.0513811,12.8226887 42.1566068,11.1664381 M38.380508,9.24284455 C37.7665913,9.36172808 37.0967547,9.48177145 36.6854726,9.7189586 C36.5465747,9.79782768 36.17137,10.2924992 36.042694,9.88481563 C35.9705393,9.6540076 36.2008332,9.44581643 36.364384,9.36694736 C36.7474055,9.18079314 37.267521,9.13903893 37.8664054,9.05553049 C38.7058057,8.94012648 39.4231442,8.86821644 40.246911,8.91171041 C39.6913194,9.08278672 39.0142673,9.11990158 38.380508,9.24284455 M67.0439836,8.93316744 C67.1377848,8.73483491 67.2303834,8.46807186 67.1931034,8.20768793 C67.0271475,7.00899396 64.9027913,7.42653613 63.976204,7.71069677 C62.1536952,8.26973934 60.8242439,9.32577306 58.5050699,9.32577306 C56.8635493,9.32577306 55.6236901,9.02189515 54.4499728,8.64262769 C53.5775016,8.35904696 52.7008213,8.04531042 51.875852,7.6909795 C51.6750213,7.60399155 51.477197,7.50772488 51.2727585,7.43929436 C51.2661443,7.43581484 51.2589288,7.43291525 51.2511121,7.43175541 C51.2126295,7.41957709 51.174147,7.40681886 51.1350632,7.39580039 C51.1031948,7.38594175 51.0725291,7.37956264 51.0424646,7.37492328 C50.8139745,7.32794978 50.5722561,7.33374898 50.3100938,7.44161404 C49.7496919,7.67590159 49.367873,8.1595546 49.3335995,8.90591122 L49.3335995,8.8995321 C49.3335995,8.8995321 49.2668564,9.15875619 49.2782809,9.29967668 C49.1730552,9.18717226 48.8724104,9.08046704 48.65775,8.99347909 C46.1395491,7.99195781 42.1103075,7.82262127 38.8741668,8.25002207 C37.7996623,8.39152247 36.0234528,8.65248632 35.5490353,9.32577306 C35.2050976,9.81696502 35.3668445,10.950708 35.8280337,11.1664381 C36.3180847,11.3949265 37.0799186,11.1478807 37.7377294,11.2708236 C37.5916161,15.0849553 37.7485527,19.1565714 38.0810658,22.7340958 C38.1339793,23.3041569 38.266263,23.8939352 38.3600642,24.4506581 C38.4562705,25.0305777 38.4075661,25.7015448 38.8320765,26.0025231 C39.146551,26.0796524 39.4243468,25.8911785 39.6263801,25.7548974 C39.848256,25.6012187 40.0436751,25.4249231 40.2048207,25.2567464 C41.2853381,24.1421408 40.9846933,21.7412734 41.2775214,19.8977087 C42.5769082,20.9972364 43.9249995,21.9842597 45.3326185,23.0437729 C46.3259489,23.7924492 47.3042471,24.6779866 48.3787516,25.4017263 C48.703448,25.6220958 49.1742578,26.02514 49.5801283,26.0222404 C50.2445533,26.0199207 50.532571,25.3779496 50.4808601,24.7197408 C50.4141169,23.8643593 49.9427059,23.2212284 49.4724974,22.6708846 C48.0588656,21.0123143 46.0782176,19.7057553 44.9032977,18.0152895 C46.6602659,16.740626 48.524865,15.3894132 49.8591266,13.6281971 C50.3732293,12.9491112 50.8975538,12.1534614 50.80255,11.0835096 C51.7068896,11.5978983 52.8138638,11.918014 53.9984043,12.1610003 C53.561868,15.0837955 52.8944366,18.343524 52.8409218,21.7186565 C52.8228831,22.9098115 52.8691824,24.025577 53.2479949,24.9047352 C53.5684822,25.6435528 54.2046466,26.436303 55.2442764,26.436303 C55.9628174,26.436303 56.5346439,25.9949842 56.6164192,25.4017263 C56.6567056,25.1175657 56.6164192,24.8038292 56.638667,24.5115496 C56.8725686,21.3991207 57.2351462,18.3783192 57.7324128,15.5535304 C57.9188125,14.5009762 58.1587271,13.4785778 58.2904095,12.4295032 C61.1693841,12.3686116 63.8451229,11.6477714 65.6477891,10.4003642 C66.195564,10.0234164 66.7673904,9.51192728 67.0439836,8.93316744" id="Fill-52" fill="#BFBFBF" fill-rule="nonzero"></path>
        <path d="M73.1050738,9.8749141 C73.0347229,10.1712531 73.0281087,10.4699117 72.8483231,10.640988 C72.7581297,10.2663599 72.6992033,8.86469403 73.1273215,8.86179443 C73.2866632,8.86005467 73.3522038,9.01199362 73.3636283,9.08912294 C73.3930915,9.30369322 73.1748234,9.59481289 73.1050738,9.8749141 M72.2903263,17.9444964 C72.1273769,18.5731293 71.9830674,19.2783116 71.6259013,19.5584128 C71.5333027,19.6314827 71.1232232,19.8286554 70.938026,19.7863212 C70.7341888,19.7381879 70.7600443,19.4453285 70.8742893,19.3299245 L70.8959357,19.2498955 C72.1321872,18.5516723 72.1784865,16.7057879 72.675753,15.2954233 C72.6733478,16.2261944 72.5320448,17.0172048 72.2903263,17.9444964 M63.3437383,13.1445012 C62.7604874,13.5997382 62.4664567,14.3605928 62.2066996,15.1516032 C61.6847803,16.7446426 61.1616583,18.2704112 60.7052795,19.8907068 C60.473783,20.711873 60.3300748,21.5539164 60.083476,22.3733429 C60.0781344,20.3233269 60.6974627,18.6659164 61.2632762,16.8472883 C61.5188243,16.026702 61.8104498,15.1452241 62.0780237,14.2817237 C62.3377808,13.4472193 62.8500795,12.6440305 63.6870746,12.5025301 C63.7399881,12.4938313 63.9943336,12.4828129 64.0099672,12.6475101 C64.0274046,12.8348241 63.48444,13.0354763 63.3437383,13.1445012 M74.0496997,8.46802897 C73.8236148,8.31898961 73.1026686,8.02323058 72.8056315,8.24012054 C72.6961968,8.31898961 72.5693247,8.47904744 72.5049867,8.59213178 C71.7527734,9.91840807 72.0810776,12.2137301 71.94699,14.1587807 C71.8098959,16.1850201 71.4485209,17.8836048 70.8520416,19.2498955 C69.4835065,17.7890779 68.0566462,16.3317397 66.7548542,14.7787149 C66.2088833,14.1239855 65.8396914,13.4982522 65.4037565,12.7095615 C65.3833126,12.6753462 65.3640714,12.6393912 65.3424249,12.6005366 C65.1602342,12.2694024 64.9221235,11.8669382 64.6100542,11.7787904 C64.2895668,11.6871631 63.9594588,11.8222844 63.6654282,11.9249301 C63.3966518,12.0177173 63.1140456,12.099486 62.9144175,12.2137301 C62.6498501,12.3650892 62.4520258,12.6295325 62.2499925,12.8759984 C62.049763,13.1224643 61.8080446,13.3927068 61.692597,13.6409125 C61.4941714,14.0706329 61.4009716,14.6000996 61.2422311,15.0895518 C60.4635611,17.5043373 59.5628292,19.7602249 59.2249045,22.6209686 C59.0860066,23.8057445 59.0998362,25.1662361 59.5676395,25.9520272 C59.8827153,26.4762746 60.6782214,26.9384706 61.5422746,26.8207469 C62.8091918,26.6496706 62.7899505,25.0815678 63.0010032,23.9240481 C63.448964,21.4634489 63.8861015,19.3954554 64.653347,17.3036851 C65.7290541,19.0330056 66.876916,20.633004 67.9989224,22.228363 C68.5400831,22.9944369 69.0565908,23.8556176 69.6723114,24.690122 C69.9771652,25.0978055 70.2844242,25.4550361 70.6812754,25.765873 C71.0504672,26.054673 71.6192871,26.3660899 72.2686799,26.2837413 C72.9583591,26.1950136 73.4189469,25.2625027 73.6630705,24.6066136 C74.4429431,22.5293413 74.7465944,20.1893654 75.0791075,17.7583421 C75.2991795,16.164143 75.4224439,14.4870153 75.4224439,12.6266329 C75.4224439,10.9100707 75.0754998,9.14247555 74.0496997,8.46802897" id="Fill-54" fill="#BFBFBF" fill-rule="nonzero"></path>
      </g>
    </g>
  </g>
</svg>
