<?xml version="1.0" encoding="UTF-8"?>
<svg xmlns="http://www.w3.org/2000/svg" xmlns:xlink="http://www.w3.org/1999/xlink" width="192px" height="60px" viewBox="0 0 192 60">
  <!-- Generator: Sketch 50.2 (55047) - http://www.bohemiancoding.com/sketch -->
  <title>Page 1</title>
  <desc>Created with Sketch.</desc>
  <defs>
    <polygon id="path-1" points="0.0212 0.0532 10.4572 0.0532 10.4572 10 0.0212 10"></polygon>
    <polygon id="path-3" points="0.000172485599 0.916 36.9057535 0.916 36.9057535 41.543677 0.000172485599 41.543677"></polygon>
  </defs>
  <g id="Design" stroke="none" stroke-width="1" fill="none" fill-rule="evenodd">
    <g id="customer_story" transform="translate(-624.000000, -2498.000000)">
      <g id="testimonial" transform="translate(-1.000000, 2367.000000)">
        <g id="Page-1" transform="translate(625.000000, 130.000000)">
          <path d="M9.7323,56.1572 C9.7323,57.3972 9.7323,58.3662 9.7973,58.9092 C9.8363,59.2822 9.9143,59.5672 10.3053,59.6192 C10.4893,59.6452 10.7753,59.6692 10.9573,59.6692 C11.1273,59.6692 11.1783,59.7102 11.1783,59.7732 C11.1783,59.8652 11.0873,59.9042 10.8923,59.9042 C10.0703,59.9042 9.2513,59.8652 8.9123,59.8652 C8.5723,59.8652 7.7523,59.9042 7.2573,59.9042 C7.0753,59.9042 6.9823,59.8772 6.9823,59.7732 C6.9823,59.7102 7.0343,59.6692 7.1793,59.6692 C7.3753,59.6692 7.5313,59.6452 7.6483,59.6192 C7.9083,59.5672 7.9733,59.2822 8.0253,58.9092 C8.0903,58.3662 8.0903,57.3972 8.0903,56.1572 L8.0903,53.8832 C8.0903,51.9202 8.0903,51.5592 8.0643,51.1462 C8.0383,50.7062 7.9343,50.4992 7.5043,50.4102 C7.4003,50.3842 7.1793,50.3712 6.9953,50.3712 C6.8653,50.3712 6.7743,50.3452 6.7743,50.2672 C6.7743,50.1632 6.8783,50.1382 7.0753,50.1382 C7.4143,50.1382 7.7913,50.1502 8.1293,50.1502 C8.4683,50.1632 8.7673,50.1762 8.9513,50.1762 C9.4463,50.1762 12.0913,50.1762 12.3913,50.1632 C12.6383,50.1502 12.7943,50.1502 12.9243,50.1132 C13.0033,50.0872 13.0673,50.0342 13.1323,50.0342 C13.1853,50.0342 13.2243,50.0872 13.2243,50.1502 C13.2243,50.2412 13.1593,50.3972 13.1203,50.7322 C13.1073,50.8622 13.0813,51.6222 13.0543,51.7792 C13.0423,51.8832 13.0153,51.9592 12.9243,51.9592 C12.8333,51.9592 12.8073,51.8942 12.7943,51.7532 C12.7943,51.6502 12.7943,51.4422 12.7163,51.2612 C12.6253,51.0812 12.3523,50.8882 11.8553,50.8752 L9.8493,50.8362 C9.7713,50.8362 9.7323,50.8752 9.7323,51.0162 L9.7323,54.2462 C9.7323,54.3222 9.7453,54.3612 9.8233,54.3612 L11.4913,54.3482 C11.7123,54.3482 11.8943,54.3482 12.0773,54.3352 C12.3263,54.3222 12.5083,54.2722 12.6383,54.1032 C12.7033,54.0262 12.7293,53.9742 12.8073,53.9742 C12.8593,53.9742 12.8853,54.0132 12.8853,54.0902 C12.8853,54.1682 12.8203,54.4912 12.7813,54.8912 C12.7553,55.1492 12.7293,55.7442 12.7293,55.8342 C12.7293,55.9512 12.7293,56.0792 12.5993,56.0792 C12.5213,56.0792 12.4953,55.9902 12.4953,55.8992 C12.4953,55.8072 12.4693,55.6532 12.4173,55.4992 C12.3523,55.3172 12.1563,55.0842 11.7513,55.0342 C11.4263,54.9952 10.0443,54.9952 9.8233,54.9952 C9.7583,54.9952 9.7323,55.0212 9.7323,55.1102 L9.7323,56.1572" id="Fill-1" fill="#6D6E70"></path>
          <path d="M15.8314,53.8837 C15.8314,51.9207 15.8314,51.5577 15.8054,51.1457 C15.7794,50.7067 15.6754,50.4997 15.2464,50.4087 C15.1424,50.3827 14.9184,50.3697 14.7364,50.3697 C14.5934,50.3697 14.5154,50.3457 14.5154,50.2547 C14.5154,50.1637 14.6064,50.1377 14.8014,50.1377 C15.1544,50.1377 15.5324,50.1507 15.8574,50.1507 C16.1964,50.1637 16.4954,50.1767 16.6774,50.1767 C17.0954,50.1767 19.6874,50.1767 19.9364,50.1637 C20.1844,50.1377 20.3924,50.1117 20.4964,50.0877 C20.5614,50.0717 20.6394,50.0347 20.7044,50.0347 C20.7694,50.0347 20.7824,50.0877 20.7824,50.1507 C20.7824,50.2417 20.7174,50.3957 20.6784,50.9907 C20.6654,51.1187 20.6394,51.6877 20.6134,51.8427 C20.6004,51.9077 20.5744,51.9857 20.4834,51.9857 C20.3924,51.9857 20.3664,51.9207 20.3664,51.8047 C20.3664,51.7147 20.3534,51.4947 20.2884,51.3387 C20.1974,51.1067 20.0664,50.9517 19.4144,50.8737 C19.1934,50.8477 17.8244,50.8237 17.5644,50.8237 C17.4994,50.8237 17.4734,50.8607 17.4734,50.9517 L17.4734,54.2207 C17.4734,54.3097 17.4864,54.3617 17.5644,54.3617 C17.8504,54.3617 19.3494,54.3617 19.6484,54.3357 C19.9624,54.3097 20.1584,54.2707 20.2754,54.1427 C20.3664,54.0377 20.4184,53.9747 20.4834,53.9747 C20.5354,53.9747 20.5744,53.9987 20.5744,54.0767 C20.5744,54.1547 20.5224,54.3617 20.4704,55.0197 C20.4574,55.2787 20.4184,55.7957 20.4184,55.8857 C20.4184,55.9887 20.4184,56.1317 20.3014,56.1317 C20.2094,56.1317 20.1844,56.0797 20.1844,56.0147 C20.1704,55.8857 20.1704,55.7187 20.1314,55.5497 C20.0664,55.2917 19.8824,55.0977 19.4014,55.0457 C19.1544,55.0197 17.8634,55.0067 17.5514,55.0067 C17.4864,55.0067 17.4734,55.0587 17.4734,55.1367 L17.4734,56.1577 C17.4734,56.5967 17.4604,57.7847 17.4734,58.1577 C17.4994,59.0507 17.7074,59.2437 19.0374,59.2437 C19.3754,59.2437 19.9234,59.2437 20.2624,59.0897 C20.6004,58.9337 20.7564,58.6617 20.8474,58.1327 C20.8734,57.9907 20.8994,57.9387 20.9914,57.9387 C21.0954,57.9387 21.0954,58.0427 21.0954,58.1717 C21.0954,58.4687 20.9914,59.3477 20.9254,59.6067 C20.8344,59.9417 20.7174,59.9417 20.2234,59.9417 C19.2454,59.9417 18.5294,59.9157 17.9674,59.9027 C17.4084,59.8767 17.0044,59.8647 16.6124,59.8647 C16.4694,59.8647 16.1834,59.8647 15.8704,59.8767 C15.5714,59.8767 15.2324,59.9027 14.9704,59.9027 C14.8014,59.9027 14.7104,59.8647 14.7104,59.7737 C14.7104,59.7087 14.7624,59.6697 14.9184,59.6697 C15.1154,59.6697 15.2714,59.6437 15.3894,59.6177 C15.6494,59.5677 15.7144,59.2827 15.7664,58.9097 C15.8314,58.3667 15.8314,57.3457 15.8314,56.1577 L15.8314,53.8837" id="Fill-3" fill="#6D6E70"></path>
          <path d="M25.3314,55.3046 C25.3314,56.6726 25.3444,57.6676 25.3574,57.9126 C25.3704,58.2366 25.3964,58.7536 25.5004,58.8946 C25.6694,59.1396 26.1774,59.4116 27.2074,59.4116 C28.5364,59.4116 29.4234,59.1536 30.2044,58.4816 C31.0374,57.7716 31.2994,56.5966 31.2994,55.2656 C31.2994,53.6256 30.6074,52.5656 30.0484,52.0356 C28.8494,50.8996 27.3634,50.7456 26.3484,50.7456 C26.0884,50.7456 25.6044,50.7836 25.5004,50.8346 C25.3834,50.8876 25.3444,50.9516 25.3444,51.0936 C25.3314,51.5326 25.3314,52.6576 25.3314,53.6776 L25.3314,55.3046 Z M23.7024,53.8846 C23.7024,51.9206 23.7024,51.5576 23.6764,51.1456 C23.6504,50.7066 23.5464,50.5006 23.1174,50.4086 C23.0134,50.3836 22.7894,50.3696 22.6074,50.3696 C22.4644,50.3696 22.3864,50.3446 22.3864,50.2546 C22.3864,50.1636 22.4774,50.1376 22.6724,50.1376 C23.3644,50.1376 24.1844,50.1766 24.5504,50.1766 C24.9544,50.1766 25.7734,50.1376 26.5564,50.1376 C28.1854,50.1376 30.3604,50.1376 31.7814,51.6106 C32.4324,52.2816 33.0454,53.3546 33.0454,54.8916 C33.0454,56.5186 32.3534,57.7586 31.6244,58.4946 C31.0264,59.1006 29.6704,60.0196 27.2594,60.0196 C26.7904,60.0196 26.2574,59.9806 25.7604,59.9416 C25.2664,59.9026 24.8104,59.8636 24.4854,59.8636 C24.3404,59.8636 24.0544,59.8636 23.7414,59.8766 C23.4424,59.8766 23.1034,59.9026 22.8414,59.9026 C22.6724,59.9026 22.5814,59.8636 22.5814,59.7746 C22.5814,59.7086 22.6334,59.6696 22.7894,59.6696 C22.9864,59.6696 23.1434,59.6436 23.2604,59.6176 C23.5204,59.5676 23.5854,59.2836 23.6374,58.9076 C23.7024,58.3656 23.7024,57.3466 23.7024,56.1586 L23.7024,53.8846 Z" id="Fill-5" fill="#6D6E70"></path>
          <path d="M35.5355,53.8837 C35.5355,51.9207 35.5355,51.5577 35.5095,51.1457 C35.4835,50.7067 35.3795,50.4997 34.9495,50.4087 C34.8455,50.3827 34.6245,50.3697 34.4405,50.3697 C34.2975,50.3697 34.2195,50.3457 34.2195,50.2547 C34.2195,50.1637 34.3095,50.1377 34.5055,50.1377 C34.8585,50.1377 35.2365,50.1507 35.5615,50.1507 C35.8995,50.1637 36.1995,50.1767 36.3815,50.1767 C36.7995,50.1767 39.3915,50.1767 39.6405,50.1637 C39.8885,50.1377 40.0965,50.1117 40.2005,50.0877 C40.2655,50.0717 40.3435,50.0347 40.4085,50.0347 C40.4735,50.0347 40.4865,50.0877 40.4865,50.1507 C40.4865,50.2417 40.4215,50.3957 40.3825,50.9907 C40.3695,51.1187 40.3435,51.6877 40.3175,51.8427 C40.3045,51.9077 40.2785,51.9857 40.1875,51.9857 C40.0965,51.9857 40.0705,51.9207 40.0705,51.8047 C40.0705,51.7147 40.0565,51.4947 39.9925,51.3387 C39.9005,51.1067 39.7705,50.9517 39.1185,50.8737 C38.8965,50.8477 37.5285,50.8237 37.2685,50.8237 C37.2025,50.8237 37.1775,50.8607 37.1775,50.9517 L37.1775,54.2207 C37.1775,54.3097 37.1905,54.3617 37.2685,54.3617 C37.5545,54.3617 39.0535,54.3617 39.3525,54.3357 C39.6665,54.3097 39.8615,54.2707 39.9785,54.1427 C40.0705,54.0377 40.1215,53.9747 40.1875,53.9747 C40.2395,53.9747 40.2785,53.9987 40.2785,54.0767 C40.2785,54.1547 40.2265,54.3617 40.1745,55.0197 C40.1605,55.2787 40.1215,55.7957 40.1215,55.8857 C40.1215,55.9887 40.1215,56.1317 40.0055,56.1317 C39.9135,56.1317 39.8885,56.0797 39.8885,56.0147 C39.8745,55.8857 39.8745,55.7187 39.8355,55.5497 C39.7705,55.2917 39.5865,55.0977 39.1055,55.0457 C38.8575,55.0197 37.5675,55.0067 37.2555,55.0067 C37.1905,55.0067 37.1775,55.0587 37.1775,55.1367 L37.1775,56.1577 C37.1775,56.5967 37.1635,57.7847 37.1775,58.1577 C37.2025,59.0507 37.4115,59.2437 38.7405,59.2437 C39.0785,59.2437 39.6275,59.2437 39.9665,59.0897 C40.3045,58.9337 40.4605,58.6617 40.5515,58.1327 C40.5775,57.9907 40.6035,57.9387 40.6945,57.9387 C40.7985,57.9387 40.7985,58.0427 40.7985,58.1717 C40.7985,58.4687 40.6945,59.3477 40.6295,59.6067 C40.5385,59.9417 40.4215,59.9417 39.9275,59.9417 C38.9495,59.9417 38.2335,59.9157 37.6715,59.9027 C37.1125,59.8767 36.7085,59.8647 36.3165,59.8647 C36.1735,59.8647 35.8865,59.8647 35.5745,59.8767 C35.2755,59.8767 34.9365,59.9027 34.6745,59.9027 C34.5055,59.9027 34.4145,59.8647 34.4145,59.7737 C34.4145,59.7087 34.4665,59.6697 34.6245,59.6697 C34.8195,59.6697 34.9755,59.6437 35.0935,59.6177 C35.3535,59.5677 35.4185,59.2827 35.4705,58.9097 C35.5355,58.3667 35.5355,57.3457 35.5355,56.1577 L35.5355,53.8837" id="Fill-7" fill="#6D6E70"></path>
          <path d="M44.9442,54.9042 C44.9442,55.0472 44.9702,55.0972 45.0612,55.1362 C45.3342,55.2282 45.7252,55.2672 46.0522,55.2672 C46.5722,55.2672 46.7422,55.2152 46.9762,55.0472 C47.3662,54.7632 47.7462,54.1682 47.7462,53.1082 C47.7462,51.2752 46.5212,50.7452 45.7512,50.7452 C45.4252,50.7452 45.1912,50.7582 45.0612,50.7972 C44.9702,50.8232 44.9442,50.8752 44.9442,50.9772 L44.9442,54.9042 Z M43.4062,53.8832 C43.4062,51.9202 43.4062,51.5592 43.3802,51.1452 C43.3542,50.7062 43.2502,50.5002 42.8202,50.4082 C42.7162,50.3832 42.4932,50.3712 42.3112,50.3712 C42.1682,50.3712 42.0902,50.3452 42.0902,50.2542 C42.0902,50.1632 42.1812,50.1392 42.3762,50.1392 C43.0682,50.1392 43.8882,50.1762 44.1632,50.1762 C44.6062,50.1762 45.5942,50.1392 45.9982,50.1392 C46.8202,50.1392 47.6942,50.2152 48.3972,50.6932 C48.7612,50.9382 49.2832,51.5962 49.2832,52.4632 C49.2832,53.4192 48.8782,54.2962 47.5622,55.3562 C48.7222,56.8022 49.6222,57.9532 50.3902,58.7532 C51.1202,59.5022 51.6542,59.5932 51.8492,59.6322 C51.9922,59.6582 52.1102,59.6692 52.2142,59.6692 C52.3182,59.6692 52.3702,59.7082 52.3702,59.7742 C52.3702,59.8782 52.2782,59.9042 52.1222,59.9042 L50.8862,59.9042 C50.1552,59.9042 49.8302,59.8392 49.4912,59.6582 C48.9302,59.3612 48.4362,58.7532 47.7072,57.7582 C47.1842,57.0482 46.5862,56.1702 46.4162,55.9772 C46.3512,55.8992 46.2732,55.8862 46.1822,55.8862 L45.0482,55.8602 C44.9832,55.8602 44.9442,55.8862 44.9442,55.9642 L44.9442,56.1442 C44.9442,57.3452 44.9442,58.3662 45.0092,58.9092 C45.0482,59.2822 45.1262,59.5672 45.5172,59.6192 C45.7122,59.6452 45.9982,59.6692 46.1562,59.6692 C46.2602,59.6692 46.3122,59.7082 46.3122,59.7742 C46.3122,59.8642 46.2212,59.9042 46.0522,59.9042 C45.2952,59.9042 44.3302,59.8642 44.1352,59.8642 C43.8882,59.8642 43.0682,59.9042 42.5462,59.9042 C42.3762,59.9042 42.2852,59.8642 42.2852,59.7742 C42.2852,59.7082 42.3372,59.6692 42.4932,59.6692 C42.6892,59.6692 42.8472,59.6452 42.9642,59.6192 C43.2242,59.5672 43.2892,59.2822 43.3412,58.9092 C43.4062,58.3662 43.4062,57.3452 43.4062,56.1572 L43.4062,53.8832 Z" id="Fill-9" fill="#6D6E70"></path>
          <path d="M56.0599,55.8862 C56.1249,55.8862 56.1379,55.8472 56.1249,55.8082 L54.9519,52.6172 C54.9389,52.5672 54.9259,52.5022 54.8869,52.5022 C54.8479,52.5022 54.8219,52.5672 54.8089,52.6172 L53.6089,55.7952 C53.5959,55.8472 53.6089,55.8862 53.6619,55.8862 L56.0599,55.8862 Z M53.4009,56.5312 C53.3359,56.5312 53.3099,56.5572 53.2839,56.6352 L52.5809,58.4812 C52.4509,58.8052 52.3859,59.1152 52.3859,59.2702 C52.3859,59.5022 52.5029,59.6692 52.9069,59.6692 L53.1019,59.6692 C53.2579,59.6692 53.2969,59.6962 53.2969,59.7742 C53.2969,59.8782 53.2189,59.9042 53.0759,59.9042 C52.6589,59.9042 52.0979,59.8652 51.6939,59.8652 C51.5509,59.8652 50.8349,59.9042 50.1569,59.9042 C49.9879,59.9042 49.9099,59.8782 49.9099,59.7742 C49.9099,59.6962 49.9609,59.6692 50.0659,59.6692 C50.1829,59.6692 50.3649,59.6582 50.4689,59.6452 C51.0699,59.5672 51.3169,59.1282 51.5769,58.4812 L54.8479,50.3712 C55.0039,49.9962 55.0819,49.8552 55.2119,49.8552 C55.3289,49.8552 55.4069,49.9702 55.5389,50.2672 C55.8519,50.9772 57.9359,56.2462 58.7699,58.2102 C59.2649,59.3742 59.6429,59.5542 59.9159,59.6192 C60.1109,59.6582 60.3079,59.6692 60.4639,59.6692 C60.5679,59.6692 60.6339,59.6822 60.6339,59.7742 C60.6339,59.8782 60.5169,59.9042 60.0329,59.9042 C59.5639,59.9042 58.6129,59.9042 57.5709,59.8782 C57.3369,59.8652 57.1809,59.8652 57.1809,59.7742 C57.1809,59.6962 57.2329,59.6692 57.3629,59.6582 C57.4539,59.6322 57.5449,59.5152 57.4799,59.3612 L56.4369,56.6222 C56.4109,56.5572 56.3719,56.5312 56.3069,56.5312 L53.4009,56.5312 Z" id="Fill-11" fill="#6D6E70"></path>
          <path d="M63.2664,56.1572 C63.2664,57.8102 63.2664,58.7022 63.5394,58.9352 C63.7614,59.1282 64.1004,59.2202 65.1164,59.2202 C65.8084,59.2202 66.3154,59.2042 66.6414,58.8572 C66.7974,58.6892 66.9534,58.3272 66.9794,58.0812 C66.9924,57.9662 67.0184,57.8882 67.1224,57.8882 C67.2134,57.8882 67.2264,57.9532 67.2264,58.1072 C67.2264,58.2512 67.1354,59.2202 67.0314,59.5932 C66.9534,59.8772 66.8884,59.9432 66.2114,59.9432 C65.2724,59.9432 64.5954,59.9162 64.0084,59.9042 C63.4224,59.8772 62.9544,59.8652 62.4204,59.8652 C62.2754,59.8652 61.9894,59.8652 61.6764,59.8772 C61.3774,59.8772 61.0384,59.9042 60.7764,59.9042 C60.6074,59.9042 60.5164,59.8652 60.5164,59.7732 C60.5164,59.7102 60.5684,59.6692 60.7264,59.6692 C60.9214,59.6692 61.0784,59.6452 61.1954,59.6192 C61.4554,59.5672 61.5204,59.2822 61.5724,58.9092 C61.6374,58.3662 61.6374,57.3452 61.6374,56.1572 L61.6374,53.8832 C61.6374,51.9202 61.6374,51.5592 61.6114,51.1462 C61.5854,50.7062 61.4814,50.4992 61.0524,50.4102 C60.9484,50.3842 60.7914,50.3712 60.6204,50.3712 C60.4774,50.3712 60.3994,50.3452 60.3994,50.2542 C60.3994,50.1632 60.4904,50.1382 60.6854,50.1382 C61.2994,50.1382 62.1194,50.1762 62.4724,50.1762 C62.7854,50.1762 63.7344,50.1382 64.2444,50.1382 C64.4264,50.1382 64.5174,50.1632 64.5174,50.2542 C64.5174,50.3452 64.4394,50.3712 64.2834,50.3712 C64.1404,50.3712 63.9304,50.3842 63.7734,50.4102 C63.4224,50.4732 63.3184,50.6932 63.2924,51.1462 C63.2664,51.5592 63.2664,51.9202 63.2664,53.8832 L63.2664,56.1572" id="Fill-13" fill="#6D6E70"></path>
          <path d="M72.8973,58.6757 C71.6203,57.5657 71.2813,56.1187 71.2813,54.8657 C71.2813,53.9867 71.5553,52.4647 72.8063,51.3257 C73.7433,50.4747 74.9813,49.9577 76.9223,49.9577 C77.7313,49.9577 78.2123,50.0077 78.8133,50.0857 C79.3083,50.1517 79.7243,50.2667 80.1143,50.3057 C80.2583,50.3187 80.3123,50.3837 80.3123,50.4617 C80.3123,50.5637 80.2713,50.7197 80.2453,51.1717 C80.2193,51.5977 80.2313,52.3077 80.2063,52.5667 C80.1923,52.7597 80.1673,52.8637 80.0493,52.8637 C79.9453,52.8637 79.9193,52.7597 79.9193,52.5797 C79.9063,52.1797 79.7373,51.7257 79.4123,51.3917 C78.9823,50.9397 77.9653,50.5897 76.7663,50.5897 C75.6343,50.5897 74.8903,50.8747 74.3173,51.3917 C73.3653,52.2557 73.1183,53.4827 73.1183,54.7367 C73.1183,57.8117 75.4763,59.3337 77.2233,59.3337 C78.3823,59.3337 79.0863,59.2057 79.6073,58.6107 C79.8283,58.3647 79.9973,57.9917 80.0493,57.7587 C80.0883,57.5527 80.1143,57.5007 80.2193,57.5007 C80.3123,57.5007 80.3373,57.5897 80.3373,57.6947 C80.3373,57.8487 80.1803,58.9727 80.0493,59.4117 C79.9843,59.6317 79.9323,59.6967 79.7113,59.7857 C79.1903,59.9917 78.1993,60.0837 77.3673,60.0837 C75.5803,60.0837 74.0833,59.6967 72.8973,58.6757" id="Fill-15" fill="#6D6E70"></path>
          <path d="M84.2996,54.9042 C84.2996,55.0472 84.3256,55.0972 84.4166,55.1362 C84.6896,55.2282 85.0806,55.2672 85.4076,55.2672 C85.9276,55.2672 86.0976,55.2152 86.3316,55.0472 C86.7236,54.7632 87.1016,54.1682 87.1016,53.1082 C87.1016,51.2752 85.8766,50.7452 85.1066,50.7452 C84.7806,50.7452 84.5466,50.7582 84.4166,50.7972 C84.3256,50.8232 84.2996,50.8752 84.2996,50.9772 L84.2996,54.9042 Z M82.7616,53.8832 C82.7616,51.9202 82.7616,51.5592 82.7366,51.1452 C82.7096,50.7062 82.6056,50.5002 82.1756,50.4082 C82.0716,50.3832 81.8506,50.3712 81.6666,50.3712 C81.5236,50.3712 81.4456,50.3452 81.4456,50.2542 C81.4456,50.1632 81.5366,50.1392 81.7316,50.1392 C82.4236,50.1392 83.2436,50.1762 83.5186,50.1762 C83.9616,50.1762 84.9506,50.1392 85.3556,50.1392 C86.1756,50.1392 87.0496,50.2152 87.7526,50.6932 C88.1166,50.9382 88.6386,51.5962 88.6386,52.4632 C88.6386,53.4192 88.2336,54.2962 86.9196,55.3562 C88.0776,56.8022 88.9776,57.9532 89.7456,58.7532 C90.4756,59.5022 91.0096,59.5932 91.2046,59.6322 C91.3476,59.6582 91.4656,59.6692 91.5706,59.6692 C91.6736,59.6692 91.7276,59.7082 91.7276,59.7742 C91.7276,59.8782 91.6356,59.9042 91.4776,59.9042 L90.2416,59.9042 C89.5106,59.9042 89.1856,59.8392 88.8476,59.6582 C88.2856,59.3612 87.7916,58.7532 87.0626,57.7582 C86.5396,57.0482 85.9416,56.1702 85.7726,55.9772 C85.7066,55.8992 85.6286,55.8862 85.5376,55.8862 L84.4036,55.8602 C84.3386,55.8602 84.2996,55.8862 84.2996,55.9642 L84.2996,56.1442 C84.2996,57.3452 84.2996,58.3662 84.3646,58.9092 C84.4036,59.2822 84.4816,59.5672 84.8726,59.6192 C85.0676,59.6452 85.3556,59.6692 85.5116,59.6692 C85.6156,59.6692 85.6676,59.7082 85.6676,59.7742 C85.6676,59.8642 85.5766,59.9042 85.4076,59.9042 C84.6506,59.9042 83.6876,59.8642 83.4926,59.8642 C83.2436,59.8642 82.4236,59.9042 81.9016,59.9042 C81.7316,59.9042 81.6426,59.8642 81.6426,59.7742 C81.6426,59.7082 81.6926,59.6692 81.8506,59.6692 C82.0466,59.6692 82.2026,59.6452 82.3196,59.6192 C82.5796,59.5672 82.6446,59.2822 82.6966,58.9092 C82.7616,58.3662 82.7616,57.3452 82.7616,56.1572 L82.7616,53.8832 Z" id="Fill-17" fill="#6D6E70"></path>
          <path d="M92.2357,53.8837 C92.2357,51.9207 92.2357,51.5577 92.2097,51.1457 C92.1837,50.7067 92.0797,50.4997 91.6507,50.4087 C91.5457,50.3827 91.3247,50.3697 91.1407,50.3697 C90.9977,50.3697 90.9197,50.3457 90.9197,50.2547 C90.9197,50.1637 91.0127,50.1377 91.2057,50.1377 C91.5587,50.1377 91.9367,50.1507 92.2617,50.1507 C92.5997,50.1637 92.9017,50.1767 93.0837,50.1767 C93.4997,50.1767 96.0937,50.1767 96.3407,50.1637 C96.5887,50.1377 96.7967,50.1117 96.9007,50.0877 C96.9657,50.0717 97.0437,50.0347 97.1087,50.0347 C97.1737,50.0347 97.1867,50.0877 97.1867,50.1507 C97.1867,50.2417 97.1217,50.3957 97.0827,50.9907 C97.0697,51.1187 97.0437,51.6877 97.0177,51.8427 C97.0047,51.9077 96.9787,51.9857 96.8877,51.9857 C96.7967,51.9857 96.7707,51.9207 96.7707,51.8047 C96.7707,51.7147 96.7577,51.4947 96.6927,51.3387 C96.6017,51.1067 96.4707,50.9517 95.8187,50.8737 C95.5967,50.8477 94.2287,50.8237 93.9687,50.8237 C93.9037,50.8237 93.8777,50.8607 93.8777,50.9517 L93.8777,54.2207 C93.8777,54.3097 93.8907,54.3617 93.9687,54.3617 C94.2547,54.3617 95.7537,54.3617 96.0527,54.3357 C96.3667,54.3097 96.5627,54.2707 96.6797,54.1427 C96.7707,54.0377 96.8227,53.9747 96.8877,53.9747 C96.9397,53.9747 96.9787,53.9987 96.9787,54.0767 C96.9787,54.1547 96.9267,54.3617 96.8747,55.0197 C96.8617,55.2787 96.8227,55.7957 96.8227,55.8857 C96.8227,55.9887 96.8227,56.1317 96.7057,56.1317 C96.6137,56.1317 96.5887,56.0797 96.5887,56.0147 C96.5747,55.8857 96.5747,55.7187 96.5357,55.5497 C96.4707,55.2917 96.2887,55.0977 95.8057,55.0457 C95.5587,55.0197 94.2677,55.0067 93.9557,55.0067 C93.8907,55.0067 93.8777,55.0587 93.8777,55.1367 L93.8777,56.1577 C93.8777,56.5967 93.8647,57.7847 93.8777,58.1577 C93.9037,59.0507 94.1117,59.2437 95.4417,59.2437 C95.7797,59.2437 96.3277,59.2437 96.6667,59.0897 C97.0047,58.9337 97.1607,58.6617 97.2517,58.1327 C97.2777,57.9907 97.3037,57.9387 97.3957,57.9387 C97.4997,57.9387 97.4997,58.0427 97.4997,58.1717 C97.4997,58.4687 97.3957,59.3477 97.3297,59.6067 C97.2387,59.9417 97.1217,59.9417 96.6277,59.9417 C95.6497,59.9417 94.9337,59.9157 94.3717,59.9027 C93.8127,59.8767 93.4087,59.8647 93.0187,59.8647 C92.8737,59.8647 92.5877,59.8647 92.2747,59.8767 C91.9757,59.8767 91.6367,59.9027 91.3767,59.9027 C91.2057,59.9027 91.1147,59.8647 91.1147,59.7737 C91.1147,59.7087 91.1667,59.6697 91.3247,59.6697 C91.5197,59.6697 91.6757,59.6437 91.7937,59.6177 C92.0537,59.5677 92.1187,59.2827 92.1707,58.9097 C92.2357,58.3667 92.2357,57.3457 92.2357,56.1577 L92.2357,53.8837" id="Fill-19" fill="#6D6E70"></path>
          <path d="M101.7357,55.3046 C101.7357,56.6726 101.7487,57.6676 101.7617,57.9126 C101.7747,58.2366 101.8007,58.7536 101.9047,58.8946 C102.0737,59.1396 102.5817,59.4116 103.6117,59.4116 C104.9417,59.4116 105.8257,59.1536 106.6087,58.4816 C107.4417,57.7716 107.7037,56.5966 107.7037,55.2656 C107.7037,53.6256 107.0117,52.5656 106.4527,52.0356 C105.2537,50.8996 103.7677,50.7456 102.7507,50.7456 C102.4907,50.7456 102.0087,50.7836 101.9047,50.8346 C101.7877,50.8876 101.7487,50.9516 101.7487,51.0936 C101.7357,51.5326 101.7357,52.6576 101.7357,53.6776 L101.7357,55.3046 Z M100.1067,53.8846 C100.1067,51.9206 100.1067,51.5576 100.0807,51.1456 C100.0547,50.7066 99.9507,50.5006 99.5197,50.4086 C99.4157,50.3836 99.1937,50.3696 99.0117,50.3696 C98.8687,50.3696 98.7907,50.3446 98.7907,50.2546 C98.7907,50.1636 98.8817,50.1376 99.0767,50.1376 C99.7687,50.1376 100.5887,50.1766 100.9527,50.1766 C101.3587,50.1766 102.1777,50.1376 102.9607,50.1376 C104.5897,50.1376 106.7647,50.1376 108.1857,51.6106 C108.8367,52.2816 109.4497,53.3546 109.4497,54.8916 C109.4497,56.5186 108.7577,57.7586 108.0287,58.4946 C107.4287,59.1006 106.0747,60.0196 103.6637,60.0196 C103.1947,60.0196 102.6617,59.9806 102.1657,59.9416 C101.6707,59.9026 101.2147,59.8636 100.8877,59.8636 C100.7447,59.8636 100.4587,59.8636 100.1457,59.8766 C99.8467,59.8766 99.5067,59.9026 99.2467,59.9026 C99.0767,59.9026 98.9857,59.8636 98.9857,59.7746 C98.9857,59.7086 99.0377,59.6696 99.1937,59.6696 C99.3917,59.6696 99.5477,59.6436 99.6647,59.6176 C99.9247,59.5676 99.9897,59.2836 100.0417,58.9076 C100.1067,58.3656 100.1067,57.3466 100.1067,56.1586 L100.1067,53.8846 Z" id="Fill-21" fill="#6D6E70"></path>
          <path d="M111.9398,53.8837 C111.9398,51.9207 111.9398,51.5577 111.9138,51.1457 C111.8878,50.7067 111.7578,50.4877 111.4708,50.4217 C111.3278,50.3827 111.1588,50.3697 111.0028,50.3697 C110.8708,50.3697 110.7928,50.3457 110.7928,50.2417 C110.7928,50.1637 110.8968,50.1377 111.1048,50.1377 C111.6018,50.1377 112.4208,50.1767 112.8008,50.1767 C113.1258,50.1767 113.8938,50.1377 114.3908,50.1377 C114.5598,50.1377 114.6638,50.1637 114.6638,50.2417 C114.6638,50.3457 114.5858,50.3697 114.4558,50.3697 C114.3238,50.3697 114.2188,50.3827 114.0628,50.4087 C113.7118,50.4737 113.6078,50.6937 113.5818,51.1457 C113.5558,51.5577 113.5558,51.9207 113.5558,53.8837 L113.5558,56.1577 C113.5558,57.4087 113.5558,58.4297 113.6078,58.9857 C113.6468,59.3357 113.7378,59.5677 114.1278,59.6177 C114.3108,59.6437 114.5988,59.6697 114.7938,59.6697 C114.9368,59.6697 115.0018,59.7087 115.0018,59.7737 C115.0018,59.8647 114.8978,59.9027 114.7548,59.9027 C113.8938,59.9027 113.0738,59.8647 112.7208,59.8647 C112.4208,59.8647 111.6018,59.9027 111.0788,59.9027 C110.9098,59.9027 110.8188,59.8647 110.8188,59.7737 C110.8188,59.7087 110.8708,59.6697 111.0288,59.6697 C111.2238,59.6697 111.3798,59.6437 111.4978,59.6177 C111.7578,59.5677 111.8358,59.3477 111.8748,58.9727 C111.9398,58.4297 111.9398,57.4087 111.9398,56.1577 L111.9398,53.8837" id="Fill-23" fill="#6D6E70"></path>
          <path d="M119.1981,50.8618 L117.2571,50.9138 C116.5001,50.9398 116.1881,51.0028 115.9921,51.2878 C115.8631,51.4808 115.7981,51.6368 115.7711,51.7388 C115.7451,51.8428 115.7061,51.8958 115.6281,51.8958 C115.5371,51.8958 115.5111,51.8308 115.5111,51.6888 C115.5111,51.4808 115.7591,50.3058 115.7841,50.2038 C115.8231,50.0338 115.8631,49.9578 115.9411,49.9578 C116.0451,49.9578 116.1751,50.0868 116.5001,50.1118 C116.8801,50.1518 117.3741,50.1768 117.8031,50.1768 L122.9631,50.1768 C123.3811,50.1768 123.6681,50.1388 123.8631,50.1118 C124.0581,50.0728 124.1621,50.0478 124.2141,50.0478 C124.3051,50.0478 124.3191,50.1258 124.3191,50.3188 C124.3191,50.5908 124.2801,51.4808 124.2801,51.8178 C124.2661,51.9458 124.2401,52.0238 124.1621,52.0238 C124.0581,52.0238 124.0321,51.9608 124.0191,51.7648 L124.0061,51.6238 C123.9801,51.2878 123.6291,50.9268 122.4691,50.9008 L120.8271,50.8618 L120.8271,56.1568 C120.8271,57.3448 120.8271,58.3658 120.8921,58.9218 C120.9311,59.2818 121.0091,59.5668 121.3991,59.6188 C121.5821,59.6448 121.8701,59.6708 122.0651,59.6708 C122.2081,59.6708 122.2731,59.7098 122.2731,59.7728 C122.2731,59.8638 122.1691,59.9038 122.0261,59.9038 C121.1651,59.9038 120.3451,59.8638 119.9791,59.8638 C119.6791,59.8638 118.8601,59.9038 118.3371,59.9038 C118.1681,59.9038 118.0771,59.8638 118.0771,59.7728 C118.0771,59.7098 118.1291,59.6708 118.2871,59.6708 C118.4821,59.6708 118.6381,59.6448 118.7561,59.6188 C119.0161,59.5668 119.0941,59.2818 119.1331,58.9078 C119.1981,58.3658 119.1981,57.3448 119.1981,56.1568 L119.1981,50.8618" id="Fill-25" fill="#6D6E70"></path>
          <g id="Group-29" transform="translate(128.000000, 50.084500)">
            <mask id="mask-2" fill="white">
              <use xlink:href="#path-1"></use>
            </mask>
            <g id="Clip-28"></g>
            <path d="M1.3372,3.7992 C1.3372,1.8362 1.3372,1.4732 1.3112,1.0612 C1.2852,0.6222 1.1812,0.4152 0.7512,0.3242 C0.6452,0.2982 0.4242,0.2852 0.2422,0.2852 C0.0992,0.2852 0.0212,0.2612 0.0212,0.1702 C0.0212,0.0792 0.1112,0.0532 0.3072,0.0532 C0.9992,0.0532 1.8182,0.0922 2.2112,0.0922 C2.5232,0.0922 3.3432,0.0532 3.8142,0.0532 C4.0082,0.0532 4.1002,0.0792 4.1002,0.1702 C4.1002,0.2612 4.0222,0.2852 3.8902,0.2852 C3.7462,0.2852 3.6692,0.2982 3.5122,0.3242 C3.1612,0.3892 3.0572,0.6092 3.0312,1.0612 C3.0042,1.4732 3.0042,1.8362 3.0042,3.7992 L3.0042,5.6082 C3.0042,7.4812 3.3822,8.2692 4.0222,8.7862 C4.6072,9.2632 5.2062,9.3142 5.6502,9.3142 C6.2232,9.3142 6.9262,9.1332 7.4482,8.6162 C8.1642,7.9062 8.2032,6.7442 8.2032,5.4132 L8.2032,3.7992 C8.2032,1.8362 8.2032,1.4732 8.1772,1.0612 C8.1512,0.6222 8.0472,0.4152 7.6172,0.3242 C7.5132,0.2982 7.2922,0.2852 7.1492,0.2852 C7.0042,0.2852 6.9262,0.2612 6.9262,0.1702 C6.9262,0.0792 7.0172,0.0532 7.1992,0.0532 C7.8652,0.0532 8.6872,0.0922 8.6972,0.0922 C8.8562,0.0922 9.6752,0.0532 10.1832,0.0532 C10.3652,0.0532 10.4572,0.0792 10.4572,0.1702 C10.4572,0.2612 10.3802,0.2852 10.2222,0.2852 C10.0792,0.2852 10.0012,0.2982 9.8452,0.3242 C9.4932,0.3892 9.3892,0.6092 9.3632,1.0612 C9.3372,1.4732 9.3372,1.8362 9.3372,3.7992 L9.3372,5.1812 C9.3372,6.6142 9.1942,8.1392 8.0992,9.0692 C7.1752,9.8572 6.2362,10.0002 5.3882,10.0002 C4.6982,10.0002 3.4472,9.9612 2.4972,9.1082 C1.8322,8.5142 1.3372,7.5592 1.3372,5.6842 L1.3372,3.7992" id="Fill-27" fill="#6D6E70" mask="url(#mask-2)"></path>
          </g>
          <path d="M141.3651,58.1464 C141.3911,59.1544 141.5601,59.4884 141.8211,59.5804 C142.0421,59.6584 142.2911,59.6704 142.4991,59.6704 C142.6421,59.6704 142.7201,59.6974 142.7201,59.7734 C142.7201,59.8774 142.6031,59.9034 142.4211,59.9034 C141.5731,59.9034 141.0531,59.8644 140.8051,59.8644 C140.6881,59.8644 140.0741,59.9034 139.3981,59.9034 C139.2291,59.9034 139.1121,59.8904 139.1121,59.7734 C139.1121,59.6974 139.1901,59.6704 139.3201,59.6704 C139.4891,59.6704 139.7231,59.6584 139.9061,59.6054 C140.2441,59.5014 140.2961,59.1274 140.3091,58.0054 L140.4261,50.3574 C140.4261,50.0994 140.4651,49.9194 140.5971,49.9194 C140.7401,49.9194 140.8561,50.0864 141.0791,50.3194 C141.2351,50.4864 143.2151,52.5924 145.1171,54.4654 C146.0041,55.3424 147.7621,57.2044 147.9841,57.4104 L148.0491,57.4104 L147.9191,51.6114 C147.9061,50.8224 147.7891,50.5774 147.4761,50.4474 C147.2811,50.3714 146.9671,50.3714 146.7851,50.3714 C146.6291,50.3714 146.5761,50.3324 146.5761,50.2534 C146.5761,50.1514 146.7191,50.1384 146.9151,50.1384 C147.5941,50.1384 148.2181,50.1774 148.4911,50.1774 C148.6351,50.1774 149.1311,50.1384 149.7691,50.1384 C149.9381,50.1384 150.0681,50.1514 150.0681,50.2534 C150.0681,50.3324 149.9901,50.3714 149.8341,50.3714 C149.7041,50.3714 149.5991,50.3714 149.4441,50.4104 C149.0791,50.5124 148.9731,50.7834 148.9621,51.5074 L148.8171,59.6584 C148.8171,59.9424 148.7651,60.0574 148.6501,60.0574 C148.5051,60.0574 148.3481,59.9164 148.2051,59.7734 C147.3851,58.9984 145.7181,57.3064 144.3621,55.9764 C142.9421,54.5824 141.4951,52.9664 141.2611,52.7214 L141.2221,52.7214 L141.3651,58.1464" id="Fill-30" fill="#6D6E70"></path>
          <path d="M152.6116,53.8837 C152.6116,51.9207 152.6116,51.5577 152.5856,51.1457 C152.5596,50.7067 152.4286,50.4877 152.1426,50.4217 C151.9996,50.3827 151.8306,50.3697 151.6746,50.3697 C151.5426,50.3697 151.4646,50.3457 151.4646,50.2417 C151.4646,50.1637 151.5696,50.1377 151.7786,50.1377 C152.2736,50.1377 153.0926,50.1767 153.4726,50.1767 C153.7976,50.1767 154.5656,50.1377 155.0616,50.1377 C155.2316,50.1377 155.3356,50.1637 155.3356,50.2417 C155.3356,50.3457 155.2576,50.3697 155.1266,50.3697 C154.9946,50.3697 154.8906,50.3827 154.7346,50.4087 C154.3826,50.4737 154.2786,50.6937 154.2536,51.1457 C154.2266,51.5577 154.2266,51.9207 154.2266,53.8837 L154.2266,56.1577 C154.2266,57.4087 154.2266,58.4297 154.2786,58.9857 C154.3186,59.3357 154.4096,59.5677 154.7996,59.6177 C154.9816,59.6437 155.2706,59.6697 155.4656,59.6697 C155.6086,59.6697 155.6736,59.7087 155.6736,59.7737 C155.6736,59.8647 155.5696,59.9027 155.4256,59.9027 C154.5656,59.9027 153.7456,59.8647 153.3946,59.8647 C153.0926,59.8647 152.2736,59.9027 151.7526,59.9027 C151.5816,59.9027 151.4906,59.8647 151.4906,59.7737 C151.4906,59.7087 151.5426,59.6697 151.7006,59.6697 C151.8956,59.6697 152.0516,59.6437 152.1686,59.6177 C152.4286,59.5677 152.5076,59.3477 152.5466,58.9727 C152.6116,58.4297 152.6116,57.4087 152.6116,56.1577 L152.6116,53.8837" id="Fill-32" fill="#6D6E70"></path>
          <path d="M165.5379,55.2661 C165.5379,52.3731 163.8569,50.5771 161.7209,50.5771 C160.2209,50.5771 158.5159,51.4041 158.5159,54.6211 C158.5159,57.3081 160.0129,59.4381 162.5149,59.4381 C163.4259,59.4381 165.5379,58.9991 165.5379,55.2661 M156.7179,55.0201 C156.7179,52.8121 158.1879,49.9581 162.0989,49.9581 C165.3429,49.9581 167.3619,51.8301 167.3619,54.7881 C167.3619,57.7461 165.2779,60.0831 161.9679,60.0831 C158.2269,60.0831 156.7179,57.3081 156.7179,55.0201" id="Fill-34" fill="#6D6E70"></path>
          <path d="M170.5824,58.1464 C170.6084,59.1544 170.7774,59.4884 171.0374,59.5804 C171.2594,59.6584 171.5084,59.6704 171.7164,59.6704 C171.8594,59.6704 171.9374,59.6974 171.9374,59.7734 C171.9374,59.8774 171.8204,59.9034 171.6384,59.9034 C170.7904,59.9034 170.2704,59.8644 170.0224,59.8644 C169.9054,59.8644 169.2914,59.9034 168.6154,59.9034 C168.4454,59.9034 168.3294,59.8904 168.3294,59.7734 C168.3294,59.6974 168.4064,59.6704 168.5374,59.6704 C168.7064,59.6704 168.9404,59.6584 169.1224,59.6054 C169.4604,59.5014 169.5134,59.1274 169.5284,58.0054 L169.6434,50.3574 C169.6434,50.0994 169.6824,49.9194 169.8144,49.9194 C169.9574,49.9194 170.0744,50.0864 170.2954,50.3194 C170.4524,50.4864 172.4324,52.5924 174.3344,54.4654 C175.2214,55.3424 176.9794,57.2044 177.2014,57.4104 L177.2664,57.4104 L177.1364,51.6114 C177.1234,50.8224 177.0054,50.5774 176.6934,50.4474 C176.4984,50.3714 176.1844,50.3714 176.0014,50.3714 C175.8454,50.3714 175.7934,50.3324 175.7934,50.2534 C175.7934,50.1514 175.9364,50.1384 176.1324,50.1384 C176.8104,50.1384 177.4354,50.1774 177.7084,50.1774 C177.8534,50.1774 178.3484,50.1384 178.9854,50.1384 C179.1554,50.1384 179.2854,50.1514 179.2854,50.2534 C179.2854,50.3324 179.2074,50.3714 179.0514,50.3714 C178.9204,50.3714 178.8164,50.3714 178.6604,50.4104 C178.2964,50.5124 178.1904,50.7834 178.1794,51.5074 L178.0364,59.6584 C178.0364,59.9424 177.9814,60.0574 177.8664,60.0574 C177.7214,60.0574 177.5654,59.9164 177.4224,59.7734 C176.6024,58.9984 174.9344,57.3064 173.5794,55.9764 C172.1594,54.5824 170.7124,52.9664 170.4784,52.7214 L170.4384,52.7214 L170.5824,58.1464" id="Fill-36" fill="#6D6E70"></path>
          <path d="M179.1395,9.0317 C179.4095,7.7247 180.3235,6.7637 181.4375,6.0527 C182.5845,5.3207 184.2395,4.6587 185.9365,4.8427 C186.2625,4.8787 186.8465,4.9877 187.1545,5.1847 C187.1755,5.1987 187.1975,5.2127 187.2145,5.2297 C187.2605,5.2647 187.2975,5.2987 187.3245,5.3417 C187.3465,5.3807 187.3635,5.4197 187.3635,5.4617 C187.3875,5.7607 186.8085,5.9677 186.4945,6.0847 C185.4165,6.4847 184.0685,6.6487 182.9885,6.9827 C181.4415,7.4627 180.3425,8.2917 179.1395,9.0317 M188.2645,5.8057 C188.2925,7.5497 185.7065,7.7327 184.2595,8.1017 C183.5755,8.2767 182.9345,8.5077 182.3985,8.7527 C181.7665,9.0427 181.2705,9.4727 180.7215,9.6847 C180.2885,9.8517 179.9835,9.9077 179.5745,9.7137 C179.6805,9.0707 180.4725,8.8977 181.0025,8.6597 C181.5515,8.4147 182.1255,8.1117 182.7415,7.9147 C184.0355,7.4997 185.6135,7.4697 186.5575,6.7667 C186.8985,6.5127 187.0785,6.1407 187.3635,5.8657 C187.4765,5.7707 187.5915,5.6817 187.7045,5.5867 C187.8425,5.5287 187.9745,5.4617 188.0785,5.3707 C188.0865,5.2077 187.9835,5.1537 187.8905,5.0907 C187.4855,4.7827 187.1895,4.2987 186.7125,4.1287 C185.5245,3.6997 184.0085,4.0087 182.8955,4.4077 C181.7295,4.8297 180.7385,5.4487 180.0715,6.0217 L180.0415,6.0217 C179.7645,6.2527 179.5005,6.4957 179.2645,6.7667 C178.5385,7.4627 178.2735,8.4627 177.8675,9.4057 C177.4715,10.3297 177.0105,11.2537 176.6575,12.2277 C175.9415,14.2117 175.4335,16.3437 174.9485,18.5607 C174.8835,16.7907 175.2275,15.0617 175.6645,13.5017 C176.0975,11.9547 176.6145,10.4967 177.2785,9.2497 C177.6485,8.5597 177.9365,7.9407 178.3645,7.3877 C179.6085,5.7767 181.4725,4.6537 183.7955,4.0337 C183.9255,4.0417 184.0355,4.0287 184.1055,3.9727 L184.1375,3.9727 C184.3075,3.9767 184.4585,3.9657 184.5705,3.9117 L184.6015,3.9117 C185.1585,3.8857 185.7915,3.8517 186.3405,3.9117 L186.3715,3.9117 C186.5265,3.9727 186.7235,3.9947 186.8985,4.0337 C187.2945,4.1887 188.2105,4.6007 188.2645,5.0287 C188.2835,5.1627 188.1475,5.2127 188.1395,5.3707 C188.1385,5.4977 188.2645,5.6757 188.2645,5.8057 M191.5555,7.7287 C191.4255,5.9307 190.3825,4.7727 189.1015,4.0337 C187.8015,3.2867 185.9165,3.0077 183.9495,3.3837 C181.8165,3.7947 179.8275,4.9867 178.4885,6.3937 C178.2975,6.5957 178.1315,6.8157 177.9545,7.0277 C177.9195,7.0687 177.8845,7.1117 177.8485,7.1537 C176.8025,8.4487 175.9975,9.9357 175.3835,11.6697 C175.0885,12.5047 174.8165,13.3877 174.5695,14.3217 C174.5605,14.3547 174.5515,14.3877 174.5455,14.4217 C174.2495,15.5147 174.0135,16.6357 173.8535,17.7997 C173.8265,17.9987 173.7965,18.1997 173.7715,18.4047 C173.5355,20.2467 173.4835,22.5207 173.8335,24.2387 C173.9425,24.7847 174.0505,25.4807 174.5155,25.6687 C174.7555,25.4547 174.7295,25.1277 174.7945,24.8597 C175.8845,20.3717 178.7525,18.0177 182.4915,16.1697 C184.4645,15.1957 186.5875,14.4907 188.4185,13.3467 C190.2025,12.2337 191.7745,10.7307 191.5555,7.7287 M175.6035,33.2397 C175.3965,33.2377 175.3615,33.0667 175.1985,33.0237 C174.7945,32.6197 174.3555,32.2537 173.6155,32.1847 C173.7715,32.0177 174.2515,32.0547 174.5155,32.0917 C175.0455,32.2167 175.9285,32.7467 175.6035,33.2397 M173.1805,36.0947 C172.9425,36.3027 172.7905,36.6047 172.5615,36.7777 C172.3065,36.9707 171.8905,36.9387 171.5985,37.0577 C171.4725,37.1087 171.3805,37.2927 171.2265,37.3047 C170.5605,37.3597 170.3545,36.0207 170.4195,35.2877 C170.4275,35.2177 170.5075,34.7957 170.4805,35.0097 C170.4515,35.7437 170.5965,36.2997 170.9155,36.6847 L170.9155,36.6807 C170.9155,36.6827 170.9175,36.6847 170.9175,36.6877 C170.9295,36.7137 170.9925,36.8577 171.0815,36.8817 C171.0875,36.8817 171.0945,36.8857 171.0995,36.8857 C171.1095,36.8927 171.1245,36.8977 171.1425,36.9037 C171.2225,36.9227 171.3645,36.9227 171.4125,36.9337 C171.6095,36.8837 171.6705,36.6547 171.8155,36.5287 C172.0365,36.3387 172.3405,36.2847 172.5915,36.1267 C172.8165,35.9837 173.0075,35.7567 173.2435,35.5987 C173.7105,35.2857 174.1645,35.0257 174.5455,34.6057 C174.7125,34.4257 174.8595,34.1057 175.1685,34.1407 C175.2335,35.1147 173.8165,35.5467 173.1805,36.0947 M172.0315,33.4567 C172.3495,33.1537 172.8035,32.8637 173.2735,32.8057 C173.8575,32.7377 174.5675,33.0237 174.6085,33.4257 C174.6535,33.8447 174.1145,34.1517 173.8015,34.3247 C173.3905,34.5557 172.9895,34.6857 172.6845,34.8847 C172.0295,35.3137 171.6205,35.8997 171.3065,36.5947 C171.2485,36.6807 171.1445,36.8067 171.0595,36.7977 C171.0405,36.7867 171.0205,36.7777 170.9995,36.7587 C170.9665,36.7197 170.9425,36.6437 170.9275,36.5167 C171.0035,35.2957 171.3105,34.1467 172.0315,33.4567 M173.5915,31.4987 C173.5655,31.5067 173.5415,31.5177 173.5225,31.5317 C173.5435,31.5177 173.5655,31.5067 173.5915,31.4987 M173.6805,31.4787 C173.6565,31.4807 173.6365,31.4857 173.6155,31.4907 C173.6325,31.4877 173.6495,31.4817 173.6675,31.4787 C173.5465,31.4967 173.4285,31.5047 173.3055,31.5317 C172.2065,31.7827 171.3865,32.3357 170.8235,32.9607 C170.2565,33.5927 169.7295,34.4697 169.6425,35.6617 C169.4585,38.1977 170.8715,39.8157 172.5915,40.5027 C175.8575,41.8087 178.7285,39.5237 179.0775,36.7137 C179.2305,35.5077 178.9015,34.3157 178.2395,33.3957 C177.3695,32.1827 175.7395,31.1617 173.6805,31.4787" id="Fill-38" fill="#DA2246"></path>
          <path d="M162.598,32.3715 C161.949,33.6855 160.655,34.7235 159.402,35.4115 C158.526,35.8925 157.545,36.3265 156.483,36.6535 C155.429,36.9785 154.246,37.3205 153.008,37.1815 C153.466,36.8595 154.029,36.8285 154.529,36.6845 C157.524,35.8335 160.449,34.4445 161.946,32.0605 C162.208,31.6465 162.446,31.1255 162.816,30.7575 L162.877,30.7575 C163.08,31.3415 162.825,31.9105 162.598,32.3715 M148.538,31.7505 C147.696,32.1235 146.562,32.7915 146.088,33.4885 C145.958,33.6765 145.867,34.1415 145.653,34.1415 C145.51,34.1415 145.384,33.8865 145.374,33.7045 C145.335,32.9925 146.176,32.3545 146.646,32.0295 C147.254,31.6105 147.994,31.2055 148.693,31.1275 C148.934,31.1035 149.282,31.0945 149.47,31.2535 C149.282,31.5825 148.855,31.6105 148.538,31.7505 M161.658,29.4965 C161.672,29.5305 161.689,29.5635 161.702,29.5975 C161.689,29.5635 161.672,29.5305 161.658,29.4965 M147.949,20.9505 C147.804,21.2405 147.758,21.7105 147.453,21.7885 C147.029,21.2045 147.425,20.5425 147.7,20.0815 C148.552,18.6685 150.063,17.7225 151.551,17.0085 C153.639,16.0045 156.032,15.1455 158.718,14.9615 C159.049,14.9375 159.404,14.8985 159.711,14.9915 C159.493,15.2165 159.155,15.2145 158.874,15.2715 C156.74,15.6945 154.728,16.2685 152.915,17.0715 C150.946,17.9415 148.862,19.1335 147.949,20.9505 M167.594,27.1265 C165.692,24.1235 160.364,24.3475 156.173,23.4955 C154.914,23.2385 153.139,22.8315 153.226,21.4145 C153.257,20.8775 153.614,20.4855 154.062,20.1695 C154.336,19.9795 154.64,19.8215 154.932,19.6785 C155.998,19.1525 157.465,18.6745 158.688,19.2115 C159.551,19.5925 160.166,20.2105 161.14,20.5785 C162.066,20.9265 163.24,20.7795 164.181,20.5155 C164.742,20.3585 165.259,20.1625 165.765,19.9255 C166.655,19.5095 167.856,18.9065 167.997,17.7855 C168.117,16.8415 166.939,15.9965 166.415,15.6125 C164.952,14.5395 163.154,13.8485 160.891,13.7495 C159.761,13.7015 158.543,13.9635 157.6,14.1525 C154.882,14.7065 152.361,15.6235 150.245,16.8845 C149.314,17.4415 148.239,18.1765 147.453,19.1185 C146.759,19.9555 145.956,21.3345 146.274,22.8745 C146.289,22.9475 146.315,23.0085 146.335,23.0775 C146.335,23.0825 146.337,23.0865 146.339,23.0905 C146.429,23.4115 146.572,23.6885 146.752,23.9335 C146.763,23.9495 146.774,23.9635 146.785,23.9785 C147.278,24.6355 148.031,25.0885 148.818,25.4195 C150.006,25.9175 151.493,26.2325 152.854,26.5055 C153.871,26.7115 155.027,26.8755 156.165,27.0745 C156.201,27.0795 156.23,27.0835 156.262,27.0935 C156.379,27.1135 156.494,27.1345 156.608,27.1545 L156.608,27.1565 C156.617,27.1565 156.621,27.1565 156.626,27.1605 C156.663,27.1605 156.691,27.1675 156.719,27.1765 C156.744,27.1765 156.764,27.1825 156.785,27.1875 C156.969,27.2215 157.151,27.2625 157.333,27.2995 C157.34,27.2995 157.349,27.3035 157.353,27.3055 C157.656,27.3705 157.954,27.4345 158.242,27.5155 C158.263,27.5185 158.285,27.5245 158.305,27.5315 C159.331,27.8035 160.248,28.1635 160.921,28.6795 C161.631,29.2205 162.018,30.2125 161.605,31.2835 C161.325,32.0185 160.836,32.6425 160.224,33.1785 C160.203,33.1955 160.185,33.2135 160.164,33.2305 C160.153,33.2395 160.148,33.2455 160.139,33.2565 C160.055,33.3255 159.966,33.3975 159.874,33.4665 C159.811,33.5115 159.754,33.5555 159.694,33.6005 C158.809,34.2385 157.747,34.7325 156.669,35.1345 C155.144,35.7015 152.248,36.4955 150.526,35.6605 C150.117,35.4615 149.836,35.1995 149.717,34.8225 C149.526,34.2125 149.749,33.6265 149.998,33.3325 C150.346,32.9235 151.032,32.7695 151.705,32.5885 C152.341,32.4175 153.003,32.1165 152.947,31.3765 C152.906,30.8065 152.329,30.6085 151.922,30.4475 C151.095,30.1205 150.279,30.0255 149.504,30.1065 C149.407,30.1025 149.32,30.1065 149.251,30.1325 C149.247,30.1325 149.247,30.1325 149.247,30.1385 C148.671,30.2185 148.12,30.3925 147.607,30.6335 C146.447,31.1745 145.2,32.0725 144.66,33.0235 C144.099,34.0135 144.48,35.2165 144.937,36.1265 C145.856,37.9535 147.405,39.1725 149.47,39.7885 C152.598,40.7175 156.381,39.9075 158.843,39.0745 C161.408,38.2095 163.953,36.8525 165.702,35.0095 C166.54,34.1285 167.386,33.0465 167.843,31.6895 C168.325,30.2655 168.418,28.4185 167.594,27.1265" id="Fill-40" fill="#DA2246"></path>
          <path d="M117.0311,21.0664 C117.0311,21.0664 117.0311,21.0684 117.0291,21.0684 C117.0311,21.0684 117.0311,21.0664 117.0311,21.0664" id="Fill-42" fill="#DA2246"></path>
          <path d="M133.952,26.5673 C133.628,26.6753 133.114,26.7493 132.896,26.5353 C132.994,26.1353 133.452,26.0073 133.736,25.8533 C134.692,25.3453 135.556,24.7173 136.404,24.0533 C137.267,23.3803 138.05,22.7133 138.701,21.8503 C138.989,21.4633 139.21,20.9893 139.602,20.6703 C140.069,20.6173 139.671,21.6343 139.602,21.7893 C139.16,22.7483 138.219,23.5313 137.49,24.1463 C136.721,24.7993 135.792,25.4443 134.884,26.0073 C134.567,26.2043 134.244,26.4683 133.952,26.5673 M133.114,18.4683 C134.389,18.5573 135.976,18.6063 137.15,18.9723 C137.198,18.9873 137.248,19.0053 137.299,19.0223 C137.464,19.0803 137.617,19.1413 137.762,19.2173 C137.813,19.2433 137.868,19.2693 137.92,19.2993 C138.132,19.4233 138.312,19.5683 138.453,19.7383 C139.171,20.6083 138.165,21.5493 137.553,22.1603 C136.114,23.6003 134.249,24.8803 132.401,25.7923 C132.64,23.3473 132.879,20.9113 133.114,18.4683 M114.306,16.7593 C113.223,16.9643 111.736,17.1593 111.141,17.8163 C110.968,18.0073 110.803,18.7583 110.52,18.7453 C110.191,18.7323 110.269,18.1613 110.334,17.9383 C110.709,16.6653 112.487,16.6703 113.935,16.4493 C116.946,15.9913 120.288,15.6233 123.462,15.4563 C123.516,15.4473 123.521,15.4803 123.523,15.5193 C120.645,15.8853 117.232,16.2093 114.306,16.7593 M114.889,33.3093 C114.878,33.2623 114.869,33.2103 114.859,33.1563 L114.859,33.1453 C114.867,33.2043 114.876,33.2603 114.889,33.3093 M114.839,32.8573 C114.839,32.8793 114.841,32.9003 114.841,32.9233 C114.841,32.9003 114.839,32.8793 114.839,32.8573 M110.769,24.9533 C110.505,25.2233 110.319,25.8363 109.962,25.2643 C109.921,24.6713 110.393,24.3553 110.738,24.0833 C111.224,23.7043 111.66,23.3303 112.041,22.8433 C112.232,22.5993 112.361,22.3303 112.723,22.2523 C113.305,23.6793 111.455,24.2583 110.769,24.9533 M118.652,34.3253 C119.831,34.1363 121.125,33.9393 122.469,34.0153 C121.614,34.3153 120.677,34.3963 119.738,34.5753 C119.285,34.6583 118.822,34.7333 118.373,34.8523 C117.762,35.0153 117.219,35.3053 116.511,35.1323 C116.925,34.6163 117.821,34.4583 118.652,34.3253 M144.501,21.7593 C144.49,21.7773 144.477,21.7963 144.464,21.8153 C144.477,21.7963 144.49,21.7773 144.501,21.7593 M144.879,21.1623 C144.875,21.1703 144.871,21.1753 144.869,21.1813 C144.871,21.1753 144.875,21.1703 144.879,21.1623 M137.055,28.7383 C139.719,26.6753 142.598,24.6763 144.473,21.8813 C144.803,21.3933 145.095,20.8663 145.306,20.2833 C145.385,20.0723 145.452,19.8623 145.498,19.6453 C145.518,19.5613 145.544,19.4833 145.559,19.3983 C145.747,18.3323 145.44,17.3883 144.815,16.6983 C143.724,15.4893 141.867,14.8413 139.911,14.4323 C136.943,13.8113 133.381,13.6233 130.012,13.9353 C129.466,13.9873 128.917,14.0113 128.369,14.0323 L128.341,14.0323 C128.255,14.0343 128.172,14.0363 128.09,14.0393 C128.078,14.0393 128.069,14.0393 128.062,14.0413 C127.569,14.0543 127.08,14.0673 126.597,14.0913 C121.984,14.3073 117.73,14.7893 113.716,15.5193 C112.688,15.7053 111.412,15.8593 110.644,16.2953 C110.215,16.5363 109.856,17.0983 109.62,17.5683 C109.572,17.6653 109.527,17.7593 109.49,17.8573 C109.479,17.8843 109.464,17.9123 109.458,17.9383 C109.434,17.9963 109.413,18.0533 109.399,18.1113 C109.36,18.2283 109.334,18.3433 109.309,18.4573 C109.237,18.8273 109.237,19.1763 109.304,19.5003 C109.306,19.5193 109.306,19.5353 109.309,19.5543 C109.321,19.6023 109.332,19.6503 109.343,19.6933 C109.354,19.7423 109.369,19.7863 109.386,19.8313 C109.417,19.9183 109.451,20.0003 109.49,20.0843 C109.888,20.8983 110.743,21.4623 111.793,21.6033 C111.684,21.9783 111.656,22.4343 111.544,22.8113 C111.312,22.9493 111.056,23.0853 110.795,23.2303 C110.789,23.2323 110.784,23.2343 110.778,23.2353 C110.704,23.2783 110.631,23.3153 110.559,23.3593 C109.836,23.7753 109.139,24.2733 108.969,25.0783 C108.772,26.0023 109.332,26.9593 109.713,27.4033 C109.784,27.4873 109.953,27.6123 110.122,27.7483 C110.124,27.7503 110.129,27.7533 110.133,27.7533 C110.256,27.8743 110.386,27.9873 110.515,28.0893 C110.52,28.0933 110.52,28.0933 110.524,28.0953 C110.572,28.1513 110.605,28.2013 110.613,28.2443 C110.658,28.4343 110.505,28.8563 110.458,29.1733 C110.204,30.9183 109.999,32.4513 109.806,34.1083 C109.698,35.0493 109.475,35.9973 109.713,36.7463 C110.05,37.7933 110.844,38.5273 111.762,39.2293 C112.682,39.9293 113.634,40.5303 114.741,40.8133 C115.59,41.0283 116.36,40.6623 117.07,40.3783 C117.587,40.1693 118.104,39.9293 118.528,39.7273 C120.454,38.8163 122.19,37.8903 124.02,36.7783 C124.784,36.3153 126.121,35.7033 126.193,34.7293 C126.229,34.2683 125.948,33.8233 125.76,33.6113 C125.474,33.2943 124.892,32.8793 124.423,32.7753 C123.787,32.6323 122.807,32.7823 122.034,32.8663 C120.535,33.0333 119.175,33.2423 117.844,33.5823 C117.14,33.7583 116.468,34.1453 115.828,34.0463 C115.432,33.9853 115.004,33.5453 114.928,33.2713 C114.826,32.9053 114.91,32.4333 114.928,32.0293 C114.992,30.6613 115.121,29.7023 115.3,28.4623 C117.2,28.1033 119.208,27.6123 121.041,27.1273 C122.296,26.7943 124.654,26.2453 123.709,24.4883 C122.748,22.6923 118.994,23.1103 116.479,23.0293 C116.661,22.3713 116.825,21.6973 117.031,21.0673 C116.75,21.5913 116.691,22.3433 116.447,22.9043 C116.691,22.3433 116.75,21.5903 117.031,21.0673 L117.031,21.0663 C117.035,21.0583 117.038,21.0493 117.042,21.0413 C120.261,20.4443 123.464,19.8333 126.66,19.2123 C126.556,24.7633 126.673,30.7983 127.218,36.0323 C127.311,36.9173 127.456,37.6573 127.59,38.5783 C127.699,39.3143 127.786,40.6083 128.333,40.7513 C128.713,40.8463 129.139,40.5503 129.421,40.3463 C129.758,40.1063 130.077,39.8683 130.291,39.6333 C131.782,37.9843 131.416,34.3203 131.81,31.5963 C132.331,31.9033 132.734,32.3813 133.208,32.7753 C134.677,33.9953 136.164,35.1193 137.676,36.2813 C139.124,37.3933 140.513,38.7493 142.084,39.8173 C142.571,40.1503 143.211,40.7473 143.821,40.7513 C144.436,40.7533 144.955,40.2703 145.095,39.6653 C145.41,38.2913 144.592,36.9023 143.977,36.0953 C141.924,33.3963 138.816,31.4233 137.055,28.7383" id="Fill-44" fill="#DA2246"></path>
          <path d="M45.0662,26.35 C44.4712,26.973 43.0622,27.08 42.0872,27.002 C42.4152,26.644 42.9172,26.657 43.3282,26.475 C43.7392,26.29 44.0292,25.98 44.3202,25.698 C44.5552,25.476 45.4922,24.389 45.5012,25.418 C45.5032,25.773 45.2262,26.183 45.0662,26.35 M43.3932,21.328 C43.4112,21.298 43.4322,21.274 43.4562,21.245 C43.7742,22.63 44.1352,24.13 44.4142,25.45 C43.2542,25.63 42.0302,25.755 40.9072,25.976 C41.6082,24.418 42.5042,22.799 43.3932,21.328 M37.8972,24.922 C36.5842,27.971 35.3982,31.095 34.3272,34.419 C34.1522,34.97 33.9822,35.529 33.8312,36.096 C33.6912,36.632 33.6432,37.245 33.2732,37.71 C33.0892,36.459 33.4902,35.233 33.8312,34.109 C34.8332,30.814 36.0522,27.681 37.3392,24.612 C38.8082,21.113 40.3832,17.545 42.0872,14.153 C42.3592,13.616 42.6122,13.079 42.9562,12.696 C42.9822,12.69 42.9872,12.707 42.9872,12.725 C43.1812,13.96 42.4052,14.964 41.9312,15.922 C40.4962,18.829 39.2232,21.852 37.8972,24.922 M42.7072,10.554 C42.7462,10.199 43.1142,9.955 43.3592,10.244 C43.6852,10.622 43.1812,11.091 43.0492,11.391 C42.8722,11.231 42.6712,10.903 42.7072,10.554 M51.6142,35.598 C50.9992,31.287 50.3372,27.282 49.5972,23.184 C49.1252,20.555 48.6042,17.69 47.9832,15.207 C47.3792,12.783 46.1702,10.39 44.1662,9.405 C43.9542,9.299 43.7052,9.193 43.4522,9.156 C41.5872,8.88 41.6522,11.396 41.9002,13.004 C39.6652,17.091 37.7302,21.663 35.8182,26.35 C34.9052,28.587 33.9982,30.933 33.1802,33.426 C32.8042,34.575 32.3662,35.903 32.1552,37.243 C31.9452,38.593 31.8922,40.806 33.0252,40.999 C33.5652,41.092 34.0782,40.705 34.3902,40.41 C35.4172,39.435 35.8502,37.786 36.3462,36.436 C37.0642,34.486 37.8492,32.643 38.6722,30.881 C40.7132,30.409 43.3182,30.334 45.6552,30.26 C46.3822,32.937 46.3942,36.499 48.0762,38.113 C48.4482,38.469 49.0872,38.805 49.6602,39.136 C50.1102,39.396 51.0032,39.958 51.5532,39.634 C51.9712,39.387 51.9812,38.559 51.8932,37.71 C51.8242,37.005 51.7042,36.2 51.6142,35.598" id="Fill-46" fill="#DA2246"></path>
          <g id="Group-50" transform="translate(0.000000, 0.084500)">
            <mask id="mask-4" fill="white">
              <use xlink:href="#path-3"></use>
            </mask>
            <g id="Clip-49"></g>
            <path d="M15.241,11.7416 C15.05,13.2436 14.659,14.5586 14.373,15.9916 C14.265,16.5446 14.235,17.1246 13.97,17.6056 C13.884,15.5386 14.323,13.7596 14.745,12.1756 C14.862,11.7436 14.804,11.1996 15.18,10.9036 C15.427,11.1226 15.275,11.4876 15.241,11.7416 M13.038,23.9386 C12.805,24.0966 12.49,24.1706 12.138,24.2786 C11.794,24.3886 11.495,24.6526 11.27,24.6526 C11.054,24.6526 10.87,24.4926 10.866,24.3426 C10.855,23.9776 11.409,23.9126 11.703,23.7826 C12.601,23.3896 13.118,22.4116 13.72,21.7336 C13.912,22.6766 13.652,23.5276 13.038,23.9386 M24.305,24.1546 C26.872,23.5426 29.221,22.4696 30.573,20.6476 C31.114,19.9206 31.457,19.0246 31.937,18.0726 C31.947,18.0386 32,18.0526 32,18.0096 C32.026,18.0056 32.032,18.0226 32.032,18.0406 C32.058,18.0486 32.062,18.0726 32.094,18.0726 C32.073,20.5546 30.532,22.2016 28.897,23.1316 C27.229,24.0796 25.035,24.5546 22.721,24.5576 C23.223,24.3046 23.786,24.2786 24.305,24.1546 M29.814,20.6696 C29.859,20.6306 29.898,20.5866 29.931,20.5356 C29.977,20.4786 30.033,20.4296 30.076,20.3686 C29.974,20.5126 29.849,20.6306 29.736,20.7626 C29.762,20.7336 29.79,20.7016 29.814,20.6696 M7.575,2.5236 C6.865,2.6426 6.179,2.7956 5.497,2.9586 C4.074,3.2976 2.84,3.8066 1.741,4.2626 C1.646,4.3016 1.228,4.3166 1.181,4.0756 C1.128,3.7936 1.669,3.6016 1.927,3.4846 C4.015,2.5496 6.819,2.0066 9.749,2.1496 C9.048,2.3896 8.293,2.4046 7.575,2.5236 M33.739,24.5266 C35.505,22.9396 36.632,20.6926 36.873,17.8846 C37.137,14.8056 35.763,12.5186 34.267,10.7466 C32.792,9.0016 30.89,7.5346 28.929,6.3086 C26.93,5.0676 24.723,4.0116 22.317,3.1446 C18.876,1.9026 14.698,0.7236 9.903,0.9416 C8.407,1.0086 6.901,1.1196 5.558,1.4996 C3.963,1.9546 2.318,2.3266 0.995,3.1136 C0.601,3.3486 0.036,3.7206 0.003,4.1696 C-0.038,4.7566 0.375,5.0936 0.715,5.3596 L0.717,5.3596 C0.737,5.3776 0.758,5.3946 0.778,5.4096 C1.503,5.9836 2.522,6.5506 3.665,6.5896 C4.296,6.6086 4.943,6.5336 5.433,6.3086 C6.051,6.0266 6.395,5.3756 6.954,5.0986 C7.484,4.8386 8.224,4.7816 9.016,4.8126 C9.885,4.8456 10.816,4.9816 11.61,5.0696 C15.661,5.5096 19.012,6.5786 22.038,8.0176 C23.457,8.6906 24.908,9.5386 26.227,10.5346 C26.262,10.5626 26.298,10.5896 26.333,10.6166 C26.759,10.9446 27.174,11.2826 27.564,11.6396 C27.57,11.6466 27.577,11.6526 27.583,11.6586 C27.771,11.8296 27.951,12.0056 28.131,12.1826 C28.654,12.7106 29.134,13.2666 29.548,13.8516 C30.147,14.6886 30.818,15.8026 30.914,16.9546 C30.972,17.6486 30.911,18.2676 30.757,18.8256 C30.656,19.1416 30.532,19.4406 30.405,19.7256 C30.403,19.7316 30.4,19.7326 30.396,19.7386 C29.658,21.1416 28.243,22.0346 26.724,22.5726 C24.266,23.4436 21.144,23.5336 17.848,23.3486 C17.694,20.7986 17.502,18.3996 17.197,15.9016 C16.985,14.1536 16.728,12.2926 16.297,10.7156 C16.284,10.6676 16.271,10.6186 16.256,10.5646 C16.238,10.4996 16.217,10.4276 16.193,10.3566 C16.059,9.9176 15.86,9.4716 15.49,9.4756 C15.036,9.4826 14.743,10.2226 14.559,10.5926 C12.973,13.8256 12.579,18.3186 12.48,22.9456 C11.339,22.9526 10.247,23.1746 9.935,24.0616 C9.487,25.3426 10.829,26.4816 11.61,26.9806 C11.776,27.0846 12.066,27.1866 12.278,27.2986 C12.322,27.3206 12.363,27.3406 12.396,27.3656 C12.467,27.4116 12.517,27.4576 12.541,27.5086 C12.599,27.6366 12.564,28.0216 12.573,28.3156 C12.668,31.4556 12.934,34.3316 13.256,37.1896 C13.372,38.2266 13.434,39.3316 13.689,40.2316 C13.864,40.8356 14.235,41.4586 14.869,41.5356 C15.953,41.6666 16.847,40.1696 17.259,39.5486 C17.859,38.6466 18.257,37.6986 18.314,36.4156 C18.376,35.0376 18.19,33.6956 18.19,32.3476 C18.19,30.9946 18.097,29.6466 18.097,28.2516 C24.745,28.6536 30.334,27.5886 33.739,24.5266" id="Fill-48" fill="#DA2246" mask="url(#mask-4)"></path>
          </g>
          <path d="M29.9315,20.6206 C29.8975,20.6706 29.8575,20.7156 29.8145,20.7546 C29.7895,20.7866 29.7625,20.8156 29.7365,20.8456 C29.8495,20.7156 29.9735,20.5966 30.0765,20.4536 C30.0335,20.5156 29.9755,20.5616 29.9315,20.6206" id="Fill-51" fill="#DA2246"></path>
          <path d="M90.4403,14.1225 C88.3953,14.8955 86.4993,16.3205 83.6743,16.1395 C84.3433,15.7815 85.0763,15.6895 85.7543,15.4575 C87.6643,14.8035 89.5333,13.4555 91.7433,13.2225 C92.0213,13.1925 92.3923,13.1375 92.6113,13.3155 C91.9483,13.7565 91.1613,13.8515 90.4403,14.1225 M65.7663,21.0745 C65.3233,22.0015 64.4203,22.7475 63.6563,23.3705 C63.1393,23.7965 62.5833,24.2365 61.9813,24.6435 C61.3913,25.0415 60.7743,25.5555 60.1813,25.7905 C59.8443,25.9235 59.3073,26.0235 59.0323,25.7595 C59.2113,25.3805 59.6253,25.2405 59.9323,25.0775 C61.5183,24.2345 63.1043,22.9985 64.3403,21.6955 C64.5743,21.4495 64.8403,21.1665 65.0543,20.8565 C65.3073,20.4865 65.4543,20.0725 65.8293,19.8935 C65.8553,19.8905 65.8613,19.9065 65.8613,19.9255 C66.1143,20.2895 65.9193,20.7605 65.7663,21.0745 M59.2503,17.7225 C60.8183,17.7635 62.4683,17.8945 63.6263,18.3745 C63.9513,18.5085 64.3553,18.7005 64.6133,18.9975 C64.6263,19.0065 64.6343,19.0185 64.6393,19.0305 C64.7343,19.1615 64.8073,19.3025 64.8493,19.4535 C64.8723,19.5495 64.8793,19.6575 64.8663,19.7705 C64.8053,20.3995 64.1023,21.0625 63.6883,21.4775 C62.2843,22.8855 60.2793,24.1435 58.5993,25.0475 C58.7273,22.6395 59.0973,20.2055 59.2503,17.7225 M53.7873,14.8365 C52.8983,15.0155 51.9303,15.1955 51.3353,15.5505 C51.1343,15.6695 50.5913,16.4115 50.4053,15.7995 C50.3013,15.4535 50.6343,15.1415 50.8703,15.0225 C51.4243,14.7435 52.1773,14.6805 53.0433,14.5555 C54.2573,14.3825 55.2953,14.2745 56.4863,14.3395 C55.6833,14.5965 54.7043,14.6525 53.7873,14.8365 M95.2523,14.3715 C95.3873,14.0745 95.5213,13.6745 95.4673,13.2845 C95.2283,11.4865 92.1543,12.1125 90.8143,12.5385 C88.1773,13.3765 86.2553,14.9605 82.8993,14.9605 C80.5243,14.9605 78.7313,14.5055 77.0333,13.9365 C75.7713,13.5105 74.5023,13.0405 73.3093,12.5085 C73.0193,12.3785 72.7323,12.2335 72.4373,12.1315 C72.4283,12.1255 72.4173,12.1225 72.4053,12.1205 C72.3503,12.1015 72.2943,12.0825 72.2383,12.0665 C72.1913,12.0515 72.1473,12.0415 72.1043,12.0345 C71.7733,11.9635 71.4243,11.9735 71.0443,12.1355 C70.2343,12.4865 69.6823,13.2115 69.6313,14.3305 L69.6313,14.3215 C69.6313,14.3215 69.5353,14.7095 69.5513,14.9225 C69.3993,14.7525 68.9643,14.5935 68.6533,14.4625 C65.0113,12.9605 59.1823,12.7055 54.5013,13.3475 C52.9463,13.5595 50.3773,13.9515 49.6913,14.9605 C49.1933,15.6975 49.4273,17.3985 50.0943,17.7225 C50.8033,18.0645 51.9053,17.6945 52.8573,17.8785 C52.6463,23.5995 52.8723,29.7065 53.3543,35.0725 C53.4303,35.9275 53.6223,36.8125 53.7573,37.6475 C53.8973,38.5175 53.8263,39.5235 54.4403,39.9755 C54.8953,40.0905 55.2963,39.8085 55.5883,39.6035 C55.9103,39.3725 56.1933,39.1085 56.4253,38.8555 C57.9893,37.1845 57.5543,33.5835 57.9783,30.8185 C59.8573,32.4675 61.8083,33.9475 63.8433,35.5375 C65.2813,36.6605 66.6953,37.9875 68.2503,39.0735 C68.7203,39.4045 69.4013,40.0085 69.9883,40.0045 C70.9503,40.0015 71.3663,39.0385 71.2923,38.0515 C71.1953,36.7685 70.5133,35.8035 69.8323,34.9775 C67.7873,32.4905 64.9223,30.5305 63.2233,27.9945 C65.7643,26.0825 68.4623,24.0565 70.3923,21.4145 C71.1353,20.3955 71.8943,19.2025 71.7563,17.5975 C73.0653,18.3695 74.6663,18.8485 76.3803,19.2135 C75.7483,23.5975 74.7833,28.4875 74.7053,33.5495 C74.6793,35.3365 74.7463,37.0095 75.2943,38.3285 C75.7573,39.4355 76.6783,40.6255 78.1823,40.6255 C79.2213,40.6255 80.0493,39.9645 80.1683,39.0735 C80.2253,38.6475 80.1683,38.1775 80.1993,37.7385 C80.5383,33.0705 81.0623,28.5395 81.7813,24.3015 C82.0513,22.7235 82.3993,21.1895 82.5883,19.6165 C86.7533,19.5255 90.6243,18.4435 93.2323,16.5735 C94.0243,16.0075 94.8523,15.2395 95.2523,14.3715" id="Fill-53" fill="#DA2246"></path>
          <path d="M104.7474,16.4492 C104.6444,16.8942 104.6354,17.3422 104.3754,17.5982 C104.2454,17.0372 104.1604,14.9342 104.7794,14.9302 C105.0094,14.9272 105.1044,15.1552 105.1214,15.2702 C105.1644,15.5922 104.8474,16.0292 104.7474,16.4492 M103.5684,28.5532 C103.3324,29.4952 103.1244,30.5532 102.6074,30.9732 C102.4734,31.0832 101.8804,31.3792 101.6124,31.3162 C101.3174,31.2432 101.3544,30.8042 101.5194,30.6322 L101.5514,30.5112 C103.3394,29.4642 103.4064,26.6962 104.1264,24.5802 C104.1224,25.9762 103.9184,27.1622 103.5684,28.5532 M90.6264,21.3542 C89.7824,22.0362 89.3564,23.1782 88.9804,24.3642 C88.2264,26.7532 87.4694,29.0422 86.8094,31.4722 C86.4744,32.7052 86.2664,33.9672 85.9093592,35.1962 C85.9024,32.1212 86.7984,29.6352 87.6164,26.9072 C87.9864,25.6772 88.4084,24.3552 88.7954,23.0592 C89.1704,21.8072 89.9124,20.6032 91.1224,20.3912 C91.1994,20.3782 91.5674,20.3612 91.5894,20.6092 C91.6154,20.8892 90.8294,21.1902 90.6264,21.3542 M106.1144,14.3392 C105.7864,14.1162 104.7434,13.6722 104.3144,13.9972 C104.1564,14.1162 103.9724,14.3562 103.8794,14.5252 C102.7914,16.5142 103.2654,19.9582 103.0724,22.8752 C102.8734,25.9152 102.3514,28.4622 101.4884,30.5112 C99.5084,28.3212 97.4444,26.1342 95.5604,23.8042 C94.7704,22.8232 94.2374,21.8842 93.6064,20.7012 C93.5774,20.6492 93.5494,20.5952 93.5174,20.5382 C93.2534,20.0412 92.9094,19.4372 92.4574,19.3052 C91.9954,19.1672 91.5174,19.3702 91.0914,19.5252 C90.7024,19.6642 90.2934,19.7862 90.0054,19.9582 C89.6224,20.1842 89.3364,20.5802 89.0444,20.9502 C88.7544,21.3212 88.4044,21.7262 88.2374,22.0972 C87.9514,22.7432 87.8154,23.5372 87.5864,24.2712 C86.4594,27.8932 85.1564,31.2772 84.6674,35.5682 C84.4664,37.3452 84.4874,39.3852 85.1644,40.5642 C85.6194,41.3502 86.7704,42.0442 88.0194,41.8672 C89.8524,41.6102 89.8254,39.2592 90.1294,37.5222 C90.7784,33.8312 91.4114,30.7302 92.5204,27.5922 C94.0774,30.1852 95.7374,32.5862 97.3604,34.9782 C98.1434,36.1282 98.8914,37.4202 99.7814,38.6712 C100.2224,39.2822 100.6664,39.8182 101.2404,40.2852 C101.7744,40.7182 102.5984,41.1852 103.5374,41.0622 C104.5354,40.9282 105.2014,39.5302 105.5544,38.5462 C106.6834,35.4302 107.1214,31.9202 107.6034,28.2742 C107.9214,25.8832 108.0994,23.3672 108.0994,20.5772 C108.0994,18.0022 107.5974,15.3502 106.1144,14.3392" id="Fill-55" fill="#DA2246"></path>
        </g>
      </g>
    </g>
  </g>
</svg>
