<?xml version="1.0" encoding="UTF-8"?>
<svg xmlns="http://www.w3.org/2000/svg" xmlns:xlink="http://www.w3.org/1999/xlink" width="221px" height="68px" viewBox="0 0 221 68">
  <!-- Generator: Sketch 50.2 (55047) - http://www.bohemiancoding.com/sketch -->
  <title>Page 1</title>
  <desc>Created with Sketch.</desc>
  <defs>
    <polygon id="path-1" points="0 0.074 42.4291302 0.074 42.4291302 46.7820188 0 46.7820188"></polygon>
  </defs>
  <g id="Design" stroke="none" stroke-width="1" fill="none" fill-rule="evenodd">
    <g id="customer_story" transform="translate(-875.000000, -302.000000)">
      <g id="top-part" transform="translate(0.000000, 97.000000)">
        <g id="Page-1" transform="translate(875.000000, 204.000000)">
          <path d="M11.1886,64.4107 C11.1886,65.8367 11.1886,66.9507 11.2636,67.5747 C11.3086,68.0037 11.3976,68.3307 11.8466,68.3907 C12.0586,68.4207 12.3876,68.4487 12.5976,68.4487 C12.7916,68.4487 12.8516,68.4947 12.8516,68.5677 C12.8516,68.6727 12.7466,68.7177 12.5216,68.7177 C11.5776,68.7177 10.6346,68.6727 10.2456,68.6727 C9.8546,68.6727 8.9126,68.7177 8.3436,68.7177 C8.1336,68.7177 8.0266,68.6877 8.0266,68.5677 C8.0266,68.4947 8.0866,68.4487 8.2536,68.4487 C8.4786,68.4487 8.6576,68.4207 8.7926,68.3907 C9.0916,68.3307 9.1666,68.0037 9.2266,67.5747 C9.3006,66.9507 9.3006,65.8367 9.3006,64.4107 L9.3006,61.7967 C9.3006,59.5397 9.3006,59.1247 9.2716,58.6507 C9.2416,58.1437 9.1216,57.9067 8.6276,57.8037 C8.5076,57.7737 8.2536,57.7587 8.0426,57.7587 C7.8926,57.7587 7.7876,57.7287 7.7876,57.6397 C7.7876,57.5197 7.9076,57.4917 8.1336,57.4917 C8.5226,57.4917 8.9576,57.5047 9.3456,57.5047 C9.7346,57.5197 10.0796,57.5347 10.2906,57.5347 C10.8596,57.5347 13.9006,57.5347 14.2456,57.5197 C14.5296,57.5047 14.7096,57.5047 14.8586,57.4617 C14.9486,57.4317 15.0226,57.3717 15.0976,57.3717 C15.1576,57.3717 15.2026,57.4317 15.2026,57.5047 C15.2026,57.6097 15.1276,57.7887 15.0836,58.1737 C15.0676,58.3237 15.0386,59.1977 15.0076,59.3767 C14.9936,59.4967 14.9626,59.5847 14.8586,59.5847 C14.7536,59.5847 14.7236,59.5097 14.7096,59.3477 C14.7096,59.2297 14.7096,58.9907 14.6196,58.7827 C14.5146,58.5757 14.2006,58.3527 13.6296,58.3387 L11.3236,58.2927 C11.2336,58.2927 11.1886,58.3387 11.1886,58.5007 L11.1886,62.2137 C11.1886,62.3007 11.2036,62.3457 11.2926,62.3457 L13.2106,62.3307 C13.4646,62.3307 13.6746,62.3307 13.8836,62.3157 C14.1696,62.3007 14.3796,62.2437 14.5296,62.0487 C14.6046,61.9607 14.6336,61.9017 14.7236,61.9017 C14.7836,61.9017 14.8136,61.9467 14.8136,62.0337 C14.8136,62.1237 14.7386,62.4957 14.6936,62.9547 C14.6646,63.2517 14.6336,63.9357 14.6336,64.0387 C14.6336,64.1737 14.6336,64.3207 14.4846,64.3207 C14.3946,64.3207 14.3646,64.2187 14.3646,64.1137 C14.3646,64.0087 14.3346,63.8317 14.2746,63.6537 C14.2006,63.4447 13.9756,63.1777 13.5096,63.1197 C13.1356,63.0747 11.5476,63.0747 11.2926,63.0747 C11.2186,63.0747 11.1886,63.1047 11.1886,63.2067 L11.1886,64.4107" id="Fill-1" fill="#FFFFFF"></path>
          <path d="M18.2003,61.7969 C18.2003,59.5399 18.2003,59.1229 18.1703,58.6489 C18.1403,58.1439 18.0203,57.9069 17.5273,57.8019 C17.4073,57.7729 17.1513,57.7569 16.9413,57.7569 C16.7773,57.7569 16.6873,57.7299 16.6873,57.6249 C16.6873,57.5199 16.7913,57.4899 17.0163,57.4899 C17.4223,57.4899 17.8563,57.5049 18.2303,57.5049 C18.6193,57.5199 18.9633,57.5349 19.1733,57.5349 C19.6543,57.5349 22.6333,57.5349 22.9203,57.5199 C23.2043,57.4899 23.4433,57.4609 23.5633,57.4329 C23.6383,57.4159 23.7273,57.3729 23.8033,57.3729 C23.8773,57.3729 23.8923,57.4329 23.8923,57.5049 C23.8923,57.6099 23.8173,57.7869 23.7723,58.4709 C23.7583,58.6189 23.7273,59.2729 23.6983,59.4499 C23.6823,59.5249 23.6533,59.6149 23.5483,59.6149 C23.4433,59.6149 23.4133,59.5399 23.4133,59.4069 C23.4133,59.3029 23.3983,59.0499 23.3243,58.8709 C23.2193,58.6039 23.0693,58.4259 22.3193,58.3369 C22.0653,58.3069 20.4923,58.2789 20.1923,58.2789 C20.1173,58.2789 20.0883,58.3219 20.0883,58.4259 L20.0883,62.1839 C20.0883,62.2869 20.1023,62.3469 20.1923,62.3469 C20.5213,62.3469 22.2443,62.3469 22.5883,62.3169 C22.9503,62.2869 23.1743,62.2419 23.3083,62.0939 C23.4133,61.9749 23.4733,61.9019 23.5483,61.9019 C23.6083,61.9019 23.6533,61.9299 23.6533,62.0199 C23.6533,62.1089 23.5933,62.3469 23.5333,63.1029 C23.5183,63.4009 23.4733,63.9949 23.4733,64.0989 C23.4733,64.2169 23.4733,64.3809 23.3393,64.3809 C23.2343,64.3809 23.2043,64.3209 23.2043,64.2469 C23.1893,64.0989 23.1893,63.9069 23.1443,63.7129 C23.0693,63.4149 22.8583,63.1929 22.3043,63.1329 C22.0203,63.1029 20.5363,63.0879 20.1773,63.0879 C20.1023,63.0879 20.0883,63.1479 20.0883,63.2379 L20.0883,64.4109 C20.0883,64.9159 20.0733,66.2819 20.0883,66.7109 C20.1173,67.7369 20.3573,67.9599 21.8853,67.9599 C22.2743,67.9599 22.9053,67.9599 23.2943,67.7819 C23.6823,67.6029 23.8623,67.2909 23.9673,66.6809 C23.9973,66.5189 24.0273,66.4589 24.1323,66.4589 C24.2513,66.4589 24.2513,66.5789 24.2513,66.7259 C24.2513,67.0679 24.1323,68.0789 24.0573,68.3759 C23.9523,68.7609 23.8173,68.7609 23.2493,68.7609 C22.1243,68.7609 21.3023,68.7309 20.6563,68.7159 C20.0123,68.6859 19.5493,68.6729 19.0983,68.6729 C18.9333,68.6729 18.6043,68.6729 18.2453,68.6859 C17.9013,68.6859 17.5123,68.7159 17.2103,68.7159 C17.0163,68.7159 16.9113,68.6729 16.9113,68.5679 C16.9113,68.4939 16.9713,68.4489 17.1513,68.4489 C17.3773,68.4489 17.5573,68.4189 17.6913,68.3889 C17.9913,68.3309 18.0653,68.0049 18.1253,67.5749 C18.2003,66.9509 18.2003,65.7769 18.2003,64.4109 L18.2003,61.7969" id="Fill-3" fill="#FFFFFF"></path>
          <path d="M29.1217,63.4302 C29.1217,65.0032 29.1367,66.1472 29.1517,66.4292 C29.1667,66.8012 29.1967,67.3952 29.3157,67.5572 C29.5107,67.8402 30.0947,68.1522 31.2787,68.1522 C32.8067,68.1522 33.8267,67.8552 34.7237,67.0832 C35.6817,66.2662 35.9827,64.9162 35.9827,63.3852 C35.9827,61.5002 35.1877,60.2822 34.5447,59.6732 C33.1657,58.3672 31.4577,58.1892 30.2907,58.1892 C29.9917,58.1892 29.4357,58.2322 29.3157,58.2922 C29.1817,58.3512 29.1367,58.4272 29.1367,58.5892 C29.1217,59.0932 29.1217,60.3872 29.1217,61.5602 L29.1217,63.4302 Z M27.2487,61.7972 C27.2487,59.5402 27.2487,59.1232 27.2197,58.6492 C27.1897,58.1442 27.0697,57.9072 26.5757,57.8022 C26.4557,57.7722 26.1997,57.7572 25.9907,57.7572 C25.8257,57.7572 25.7357,57.7272 25.7357,57.6252 C25.7357,57.5202 25.8407,57.4902 26.0647,57.4902 C26.8607,57.4902 27.8027,57.5352 28.2237,57.5352 C28.6877,57.5352 29.6307,57.4902 30.5307,57.4902 C32.4027,57.4902 34.9037,57.4902 36.5367,59.1832 C37.2847,59.9552 37.9897,61.1882 37.9897,62.9562 C37.9897,64.8262 37.1947,66.2522 36.3567,67.0982 C35.6687,67.7952 34.1107,68.8512 31.3377,68.8512 C30.7997,68.8512 30.1857,68.8062 29.6157,68.7612 C29.0467,68.7162 28.5227,68.6712 28.1487,68.6712 C27.9827,68.6712 27.6537,68.6712 27.2937,68.6862 C26.9497,68.6862 26.5607,68.7162 26.2597,68.7162 C26.0647,68.7162 25.9607,68.6712 25.9607,68.5692 C25.9607,68.4942 26.0197,68.4492 26.1997,68.4492 C26.4267,68.4492 26.6057,68.4192 26.7407,68.3892 C27.0397,68.3312 27.1147,68.0042 27.1747,67.5732 C27.2487,66.9492 27.2487,65.7772 27.2487,64.4112 L27.2487,61.7972 Z" id="Fill-5" fill="#FFFFFF"></path>
          <path d="M40.8527,61.7969 C40.8527,59.5399 40.8527,59.1229 40.8227,58.6489 C40.7927,58.1439 40.6727,57.9069 40.1797,57.8019 C40.0597,57.7729 39.8057,57.7569 39.5937,57.7569 C39.4297,57.7569 39.3397,57.7299 39.3397,57.6249 C39.3397,57.5199 39.4437,57.4899 39.6687,57.4899 C40.0747,57.4899 40.5087,57.5049 40.8827,57.5049 C41.2717,57.5199 41.6157,57.5349 41.8257,57.5349 C42.3067,57.5349 45.2857,57.5349 45.5727,57.5199 C45.8567,57.4899 46.0957,57.4609 46.2157,57.4329 C46.2897,57.4159 46.3797,57.3729 46.4547,57.3729 C46.5297,57.3729 46.5447,57.4329 46.5447,57.5049 C46.5447,57.6099 46.4697,57.7869 46.4247,58.4709 C46.4107,58.6189 46.3797,59.2729 46.3507,59.4499 C46.3347,59.5249 46.3057,59.6149 46.2007,59.6149 C46.0957,59.6149 46.0657,59.5399 46.0657,59.4069 C46.0657,59.3029 46.0507,59.0499 45.9767,58.8709 C45.8717,58.6039 45.7217,58.4259 44.9717,58.3369 C44.7177,58.3069 43.1447,58.2789 42.8447,58.2789 C42.7697,58.2789 42.7397,58.3219 42.7397,58.4259 L42.7397,62.1839 C42.7397,62.2869 42.7547,62.3469 42.8447,62.3469 C43.1737,62.3469 44.8967,62.3469 45.2407,62.3169 C45.6027,62.2869 45.8267,62.2419 45.9607,62.0939 C46.0657,61.9749 46.1257,61.9019 46.2007,61.9019 C46.2607,61.9019 46.3057,61.9299 46.3057,62.0199 C46.3057,62.1089 46.2457,62.3469 46.1857,63.1029 C46.1707,63.4009 46.1257,63.9949 46.1257,64.0989 C46.1257,64.2169 46.1257,64.3809 45.9917,64.3809 C45.8867,64.3809 45.8567,64.3209 45.8567,64.2469 C45.8417,64.0989 45.8417,63.9069 45.7967,63.7129 C45.7217,63.4149 45.5107,63.1929 44.9567,63.1329 C44.6727,63.1029 43.1887,63.0879 42.8297,63.0879 C42.7547,63.0879 42.7397,63.1479 42.7397,63.2379 L42.7397,64.4109 C42.7397,64.9159 42.7257,66.2819 42.7397,66.7109 C42.7697,67.7369 43.0097,67.9599 44.5377,67.9599 C44.9267,67.9599 45.5577,67.9599 45.9467,67.7819 C46.3347,67.6029 46.5147,67.2909 46.6197,66.6809 C46.6497,66.5189 46.6797,66.4589 46.7847,66.4589 C46.9037,66.4589 46.9037,66.5789 46.9037,66.7259 C46.9037,67.0679 46.7847,68.0789 46.7087,68.3759 C46.6047,68.7609 46.4697,68.7609 45.9017,68.7609 C44.7767,68.7609 43.9547,68.7309 43.3087,68.7159 C42.6647,68.6859 42.2017,68.6729 41.7507,68.6729 C41.5857,68.6729 41.2567,68.6729 40.8977,68.6859 C40.5537,68.6859 40.1647,68.7159 39.8627,68.7159 C39.6687,68.7159 39.5637,68.6729 39.5637,68.5679 C39.5637,68.4939 39.6237,68.4489 39.8057,68.4489 C40.0297,68.4489 40.2087,68.4189 40.3437,68.3889 C40.6437,68.3309 40.7177,68.0049 40.7777,67.5749 C40.8527,66.9509 40.8527,65.7769 40.8527,64.4109 L40.8527,61.7969" id="Fill-7" fill="#FFFFFF"></path>
          <path d="M51.6691,62.9703 C51.6691,63.1353 51.6991,63.1923 51.8041,63.2373 C52.1181,63.3423 52.5671,63.3873 52.9431,63.3873 C53.5421,63.3873 53.7361,63.3273 54.0051,63.1353 C54.4541,62.8073 54.8901,62.1233 54.8901,60.9063 C54.8901,58.7983 53.4821,58.1883 52.5971,58.1883 C52.2231,58.1883 51.9541,58.2033 51.8041,58.2483 C51.6991,58.2793 51.6691,58.3383 51.6691,58.4563 L51.6691,62.9703 Z M49.9011,61.7973 C49.9011,59.5393 49.9011,59.1253 49.8721,58.6483 C49.8421,58.1443 49.7221,57.9073 49.2281,57.8023 C49.1081,57.7723 48.8521,57.7593 48.6431,57.7593 C48.4781,57.7593 48.3881,57.7293 48.3881,57.6243 C48.3881,57.5193 48.4931,57.4913 48.7171,57.4913 C49.5121,57.4913 50.4551,57.5343 50.7721,57.5343 C51.2801,57.5343 52.4181,57.4913 52.8811,57.4913 C53.8261,57.4913 54.8311,57.5793 55.6381,58.1293 C56.0571,58.4113 56.6581,59.1673 56.6581,60.1633 C56.6581,61.2623 56.1921,62.2713 54.6791,63.4903 C56.0121,65.1533 57.0471,66.4753 57.9301,67.3943 C58.7701,68.2563 59.3831,68.3613 59.6071,68.4063 C59.7721,68.4353 59.9071,68.4493 60.0261,68.4493 C60.1471,68.4493 60.2061,68.4933 60.2061,68.5683 C60.2061,68.6883 60.1021,68.7183 59.9221,68.7183 L58.5011,68.7183 C57.6611,68.7183 57.2861,68.6433 56.8981,68.4353 C56.2521,68.0943 55.6831,67.3943 54.8451,66.2513 C54.2451,65.4343 53.5571,64.4263 53.3621,64.2033 C53.2871,64.1143 53.1971,64.0983 53.0931,64.0983 L51.7891,64.0693 C51.7141,64.0693 51.6691,64.0983 51.6691,64.1883 L51.6691,64.3963 C51.6691,65.7773 51.6691,66.9503 51.7441,67.5743 C51.7891,68.0043 51.8781,68.3313 52.3281,68.3903 C52.5521,68.4213 52.8811,68.4493 53.0631,68.4493 C53.1831,68.4493 53.2421,68.4933 53.2421,68.5683 C53.2421,68.6733 53.1381,68.7183 52.9431,68.7183 C52.0731,68.7183 50.9641,68.6733 50.7391,68.6733 C50.4551,68.6733 49.5121,68.7183 48.9121,68.7183 C48.7171,68.7183 48.6131,68.6733 48.6131,68.5683 C48.6131,68.4933 48.6721,68.4493 48.8521,68.4493 C49.0761,68.4493 49.2581,68.4213 49.3931,68.3903 C49.6921,68.3313 49.7671,68.0043 49.8271,67.5743 C49.9011,66.9503 49.9011,65.7773 49.9011,64.4103 L49.9011,61.7973 Z" id="Fill-9" fill="#FFFFFF"></path>
          <path d="M64.4484,64.0987 C64.5234,64.0987 64.5384,64.0537 64.5234,64.0087 L63.1744,60.3417 C63.1594,60.2837 63.1444,60.2087 63.0994,60.2087 C63.0544,60.2087 63.0244,60.2837 63.0104,60.3417 L61.6314,63.9947 C61.6164,64.0537 61.6314,64.0987 61.6914,64.0987 L64.4484,64.0987 Z M61.3914,64.8407 C61.3174,64.8407 61.2864,64.8707 61.2574,64.9607 L60.4484,67.0827 C60.2994,67.4547 60.2244,67.8117 60.2244,67.9887 C60.2244,68.2567 60.3594,68.4487 60.8234,68.4487 L61.0474,68.4487 C61.2274,68.4487 61.2724,68.4787 61.2724,68.5687 C61.2724,68.6877 61.1824,68.7177 61.0174,68.7177 C60.5384,68.7177 59.8934,68.6727 59.4294,68.6727 C59.2644,68.6727 58.4424,68.7177 57.6614,68.7177 C57.4674,68.7177 57.3774,68.6877 57.3774,68.5687 C57.3774,68.4787 57.4374,68.4487 57.5574,68.4487 C57.6914,68.4487 57.9014,68.4357 58.0214,68.4207 C58.7114,68.3307 58.9954,67.8267 59.2954,67.0827 L63.0544,57.7597 C63.2344,57.3277 63.3234,57.1647 63.4734,57.1647 C63.6084,57.1647 63.6984,57.2977 63.8494,57.6397 C64.2084,58.4557 66.6054,64.5137 67.5644,66.7707 C68.1334,68.1087 68.5674,68.3157 68.8814,68.3907 C69.1054,68.4357 69.3324,68.4487 69.5114,68.4487 C69.6314,68.4487 69.7064,68.4637 69.7064,68.5687 C69.7064,68.6877 69.5724,68.7177 69.0154,68.7177 C68.4774,68.7177 67.3834,68.7177 66.1864,68.6877 C65.9164,68.6727 65.7374,68.6727 65.7374,68.5687 C65.7374,68.4787 65.7974,68.4487 65.9464,68.4357 C66.0514,68.4057 66.1564,68.2707 66.0814,68.0937 L64.8824,64.9457 C64.8524,64.8707 64.8074,64.8407 64.7324,64.8407 L61.3914,64.8407 Z" id="Fill-11" fill="#FFFFFF"></path>
          <path d="M72.7331,64.4107 C72.7331,66.3107 72.7331,67.3367 73.0471,67.6037 C73.3021,67.8267 73.6931,67.9317 74.8601,67.9317 C75.6551,67.9317 76.2381,67.9137 76.6121,67.5147 C76.7921,67.3217 76.9721,66.9057 77.0021,66.6227 C77.0171,66.4907 77.0461,66.4007 77.1661,66.4007 C77.2711,66.4007 77.2861,66.4757 77.2861,66.6527 C77.2861,66.8177 77.1811,67.9317 77.0621,68.3607 C76.9721,68.6877 76.8971,68.7627 76.1191,68.7627 C75.0401,68.7627 74.2611,68.7327 73.5861,68.7177 C72.9131,68.6877 72.3741,68.6727 71.7611,68.6727 C71.5941,68.6727 71.2651,68.6727 70.9061,68.6877 C70.5621,68.6877 70.1721,68.7177 69.8711,68.7177 C69.6771,68.7177 69.5721,68.6727 69.5721,68.5677 C69.5721,68.4947 69.6321,68.4487 69.8141,68.4487 C70.0381,68.4487 70.2171,68.4207 70.3521,68.3907 C70.6511,68.3307 70.7261,68.0037 70.7861,67.5747 C70.8611,66.9507 70.8611,65.7767 70.8611,64.4107 L70.8611,61.7967 C70.8611,59.5397 70.8611,59.1247 70.8311,58.6507 C70.8011,58.1437 70.6811,57.9067 70.1881,57.8037 C70.0681,57.7737 69.8881,57.7587 69.6911,57.7587 C69.5271,57.7587 69.4371,57.7287 69.4371,57.6237 C69.4371,57.5197 69.5421,57.4917 69.7661,57.4917 C70.4721,57.4917 71.4141,57.5347 71.8201,57.5347 C72.1801,57.5347 73.2721,57.4917 73.8581,57.4917 C74.0671,57.4917 74.1711,57.5197 74.1711,57.6237 C74.1711,57.7287 74.0821,57.7587 73.9021,57.7587 C73.7381,57.7587 73.4961,57.7737 73.3161,57.8037 C72.9131,57.8767 72.7931,58.1287 72.7631,58.6507 C72.7331,59.1247 72.7331,59.5397 72.7331,61.7967 L72.7331,64.4107" id="Fill-13" fill="#FFFFFF"></path>
          <path d="M83.8053,67.3062 C82.3363,66.0302 81.9483,64.3672 81.9483,62.9262 C81.9483,61.9152 82.2623,60.1652 83.7003,58.8572 C84.7783,57.8782 86.2013,57.2842 88.4323,57.2842 C89.3623,57.2842 89.9163,57.3412 90.6063,57.4312 C91.1753,57.5062 91.6543,57.6382 92.1023,57.6832 C92.2673,57.6982 92.3293,57.7732 92.3293,57.8632 C92.3293,57.9802 92.2823,58.1602 92.2523,58.6792 C92.2223,59.1692 92.2373,59.9852 92.2073,60.2822 C92.1923,60.5052 92.1623,60.6242 92.0283,60.6242 C91.9083,60.6242 91.8783,60.5052 91.8783,60.2972 C91.8633,59.8382 91.6693,59.3162 91.2953,58.9312 C90.8013,58.4122 89.6323,58.0102 88.2533,58.0102 C86.9513,58.0102 86.0963,58.3372 85.4383,58.9312 C84.3443,59.9252 84.0593,61.3362 84.0593,62.7772 C84.0593,66.3122 86.7693,68.0622 88.7793,68.0622 C90.1103,68.0622 90.9203,67.9152 91.5193,67.2312 C91.7733,66.9492 91.9683,66.5192 92.0283,66.2522 C92.0733,66.0152 92.1023,65.9552 92.2223,65.9552 C92.3293,65.9552 92.3593,66.0572 92.3593,66.1782 C92.3593,66.3552 92.1773,67.6482 92.0283,68.1522 C91.9533,68.4052 91.8933,68.4792 91.6383,68.5822 C91.0403,68.8192 89.9013,68.9242 88.9433,68.9242 C86.8893,68.9242 85.1693,68.4792 83.8053,67.3062" id="Fill-15" fill="#FFFFFF"></path>
          <path d="M96.9137,62.9703 C96.9137,63.1353 96.9437,63.1923 97.0487,63.2373 C97.3627,63.3423 97.8117,63.3873 98.1877,63.3873 C98.7867,63.3873 98.9807,63.3273 99.2497,63.1353 C99.7007,62.8073 100.1347,62.1233 100.1347,60.9063 C100.1347,58.7983 98.7257,58.1883 97.8417,58.1883 C97.4677,58.1883 97.1977,58.2033 97.0487,58.2483 C96.9437,58.2793 96.9137,58.3383 96.9137,58.4563 L96.9137,62.9703 Z M95.1457,61.7973 C95.1457,59.5393 95.1457,59.1253 95.1167,58.6483 C95.0857,58.1443 94.9667,57.9073 94.4727,57.8023 C94.3527,57.7723 94.0987,57.7593 93.8877,57.7593 C93.7227,57.7593 93.6327,57.7293 93.6327,57.6243 C93.6327,57.5193 93.7377,57.4913 93.9617,57.4913 C94.7567,57.4913 95.6997,57.5343 96.0167,57.5343 C96.5247,57.5343 97.6617,57.4913 98.1277,57.4913 C99.0707,57.4913 100.0747,57.5793 100.8827,58.1293 C101.3017,58.4113 101.9027,59.1673 101.9027,60.1633 C101.9027,61.2623 101.4367,62.2713 99.9257,63.4903 C101.2567,65.1533 102.2917,66.4753 103.1747,67.3943 C104.0147,68.2563 104.6277,68.3613 104.8517,68.4063 C105.0167,68.4353 105.1517,68.4493 105.2737,68.4493 C105.3907,68.4493 105.4527,68.4933 105.4527,68.5683 C105.4527,68.6883 105.3487,68.7183 105.1667,68.7183 L103.7457,68.7183 C102.9047,68.7183 102.5307,68.6433 102.1427,68.4353 C101.4967,68.0943 100.9277,67.3943 100.0897,66.2513 C99.4897,65.4343 98.8007,64.4263 98.6067,64.2033 C98.5317,64.1143 98.4417,64.0983 98.3377,64.0983 L97.0337,64.0693 C96.9587,64.0693 96.9137,64.0983 96.9137,64.1883 L96.9137,64.3963 C96.9137,65.7773 96.9137,66.9503 96.9887,67.5743 C97.0337,68.0043 97.1227,68.3313 97.5717,68.3903 C97.7967,68.4213 98.1277,68.4493 98.3077,68.4493 C98.4267,68.4493 98.4867,68.4933 98.4867,68.5683 C98.4867,68.6733 98.3817,68.7183 98.1877,68.7183 C97.3177,68.7183 96.2107,68.6733 95.9857,68.6733 C95.6997,68.6733 94.7567,68.7183 94.1567,68.7183 C93.9617,68.7183 93.8597,68.6733 93.8597,68.5683 C93.8597,68.4933 93.9167,68.4493 94.0987,68.4493 C94.3237,68.4493 94.5027,68.4213 94.6377,68.3903 C94.9367,68.3313 95.0117,68.0043 95.0717,67.5743 C95.1457,66.9503 95.1457,65.7773 95.1457,64.4103 L95.1457,61.7973 Z" id="Fill-17" fill="#FFFFFF"></path>
          <path d="M106.0378,61.7969 C106.0378,59.5399 106.0378,59.1229 106.0078,58.6489 C105.9778,58.1439 105.8578,57.9069 105.3648,57.8019 C105.2448,57.7729 104.9908,57.7569 104.7788,57.7569 C104.6138,57.7569 104.5238,57.7299 104.5238,57.6249 C104.5238,57.5199 104.6308,57.4899 104.8528,57.4899 C105.2598,57.4899 105.6938,57.5049 106.0678,57.5049 C106.4568,57.5199 106.8028,57.5349 107.0128,57.5349 C107.4908,57.5349 110.4728,57.5349 110.7568,57.5199 C111.0408,57.4899 111.2808,57.4609 111.4008,57.4329 C111.4748,57.4159 111.5648,57.3729 111.6398,57.3729 C111.7148,57.3729 111.7298,57.4329 111.7298,57.5049 C111.7298,57.6099 111.6548,57.7869 111.6098,58.4709 C111.5948,58.6189 111.5648,59.2729 111.5348,59.4499 C111.5198,59.5249 111.4908,59.6149 111.3858,59.6149 C111.2808,59.6149 111.2508,59.5399 111.2508,59.4069 C111.2508,59.3029 111.2358,59.0499 111.1608,58.8709 C111.0568,58.6039 110.9068,58.4259 110.1568,58.3369 C109.9018,58.3069 108.3288,58.2789 108.0298,58.2789 C107.9548,58.2789 107.9248,58.3219 107.9248,58.4259 L107.9248,62.1839 C107.9248,62.2869 107.9398,62.3469 108.0298,62.3469 C108.3588,62.3469 110.0818,62.3469 110.4258,62.3169 C110.7868,62.2869 111.0118,62.2419 111.1458,62.0939 C111.2508,61.9749 111.3108,61.9019 111.3858,61.9019 C111.4458,61.9019 111.4908,61.9299 111.4908,62.0199 C111.4908,62.1089 111.4308,62.3469 111.3708,63.1029 C111.3558,63.4009 111.3108,63.9949 111.3108,64.0989 C111.3108,64.2169 111.3108,64.3809 111.1758,64.3809 C111.0718,64.3809 111.0408,64.3209 111.0408,64.2469 C111.0268,64.0989 111.0268,63.9069 110.9818,63.7129 C110.9068,63.4149 110.6968,63.1929 110.1418,63.1329 C109.8568,63.1029 108.3738,63.0879 108.0148,63.0879 C107.9398,63.0879 107.9248,63.1479 107.9248,63.2379 L107.9248,64.4109 C107.9248,64.9159 107.9098,66.2819 107.9248,66.7109 C107.9548,67.7369 108.1938,67.9599 109.7228,67.9599 C110.1118,67.9599 110.7418,67.9599 111.1308,67.7819 C111.5198,67.6029 111.6998,67.2909 111.8048,66.6809 C111.8338,66.5189 111.8648,66.4589 111.9688,66.4589 C112.0888,66.4589 112.0888,66.5789 112.0888,66.7259 C112.0888,67.0679 111.9688,68.0789 111.8938,68.3759 C111.7888,68.7609 111.6548,68.7609 111.0858,68.7609 C109.9618,68.7609 109.1388,68.7309 108.4938,68.7159 C107.8498,68.6859 107.3868,68.6729 106.9368,68.6729 C106.7708,68.6729 106.4418,68.6729 106.0818,68.6859 C105.7388,68.6859 105.3498,68.7159 105.0498,68.7159 C104.8528,68.7159 104.7488,68.6729 104.7488,68.5679 C104.7488,68.4939 104.8088,68.4489 104.9908,68.4489 C105.2148,68.4489 105.3938,68.4189 105.5288,68.3889 C105.8278,68.3309 105.9028,68.0049 105.9628,67.5749 C106.0378,66.9509 106.0378,65.7769 106.0378,64.4109 L106.0378,61.7969" id="Fill-19" fill="#FFFFFF"></path>
          <path d="M116.9591,63.4302 C116.9591,65.0032 116.9741,66.1472 116.9891,66.4292 C117.0041,66.8012 117.0341,67.3952 117.1531,67.5572 C117.3481,67.8402 117.9321,68.1522 119.1161,68.1522 C120.6441,68.1522 121.6611,67.8552 122.5611,67.0832 C123.5191,66.2662 123.8201,64.9162 123.8201,63.3852 C123.8201,61.5002 123.0251,60.2822 122.3811,59.6732 C121.0031,58.3672 119.2951,58.1892 118.1261,58.1892 C117.8271,58.1892 117.2731,58.2322 117.1531,58.2922 C117.0191,58.3512 116.9741,58.4272 116.9741,58.5892 C116.9591,59.0932 116.9591,60.3872 116.9591,61.5602 L116.9591,63.4302 Z M115.0861,61.7972 C115.0861,59.5402 115.0861,59.1232 115.0571,58.6492 C115.0261,58.1442 114.9071,57.9072 114.4111,57.8022 C114.2921,57.7722 114.0371,57.7572 113.8281,57.7572 C113.6631,57.7572 113.5731,57.7272 113.5731,57.6252 C113.5731,57.5202 113.6781,57.4902 113.9021,57.4902 C114.6971,57.4902 115.6401,57.5352 116.0591,57.5352 C116.5251,57.5352 117.4681,57.4902 118.3681,57.4902 C120.2401,57.4902 122.7411,57.4902 124.3741,59.1832 C125.1221,59.9552 125.8271,61.1882 125.8271,62.9562 C125.8271,64.8262 125.0321,66.2522 124.1941,67.0982 C123.5041,67.7952 121.9481,68.8512 119.1751,68.8512 C118.6371,68.8512 118.0231,68.8062 117.4531,68.7612 C116.8841,68.7162 116.3601,68.6712 115.9841,68.6712 C115.8201,68.6712 115.4901,68.6712 115.1311,68.6862 C114.7871,68.6862 114.3961,68.7162 114.0971,68.7162 C113.9021,68.7162 113.7971,68.6712 113.7971,68.5692 C113.7971,68.4942 113.8571,68.4492 114.0371,68.4492 C114.2641,68.4492 114.4431,68.4192 114.5781,68.3892 C114.8771,68.3312 114.9521,68.0042 115.0121,67.5732 C115.0861,66.9492 115.0861,65.7772 115.0861,64.4112 L115.0861,61.7972 Z" id="Fill-21" fill="#FFFFFF"></path>
          <path d="M128.6901,61.7969 C128.6901,59.5399 128.6901,59.1229 128.6601,58.6489 C128.6301,58.1439 128.4811,57.8919 128.1511,57.8179 C127.9871,57.7729 127.7921,57.7569 127.6131,57.7569 C127.4611,57.7569 127.3711,57.7299 127.3711,57.6099 C127.3711,57.5199 127.4911,57.4899 127.7301,57.4899 C128.3011,57.4899 129.2441,57.5349 129.6801,57.5349 C130.0541,57.5349 130.9371,57.4899 131.5071,57.4899 C131.7021,57.4899 131.8211,57.5199 131.8211,57.6099 C131.8211,57.7299 131.7321,57.7569 131.5821,57.7569 C131.4301,57.7569 131.3111,57.7729 131.1311,57.8019 C130.7271,57.8769 130.6071,58.1299 130.5771,58.6489 C130.5471,59.1229 130.5471,59.5399 130.5471,61.7969 L130.5471,64.4109 C130.5471,65.8499 130.5471,67.0229 130.6071,67.6619 C130.6521,68.0639 130.7571,68.3309 131.2061,68.3889 C131.4151,68.4189 131.7471,68.4489 131.9711,68.4489 C132.1351,68.4489 132.2111,68.4939 132.2111,68.5679 C132.2111,68.6729 132.0901,68.7159 131.9261,68.7159 C130.9371,68.7159 129.9941,68.6729 129.5871,68.6729 C129.2441,68.6729 128.3011,68.7159 127.7001,68.7159 C127.5061,68.7159 127.4011,68.6729 127.4011,68.5679 C127.4011,68.4939 127.4611,68.4489 127.6431,68.4489 C127.8671,68.4489 128.0461,68.4189 128.1811,68.3889 C128.4811,68.3309 128.5701,68.0789 128.6151,67.6479 C128.6901,67.0229 128.6901,65.8499 128.6901,64.4109 L128.6901,61.7969" id="Fill-23" fill="#FFFFFF"></path>
          <path d="M137.0343,58.3228 L134.8033,58.3828 C133.9323,58.4128 133.5743,58.4848 133.3493,58.8118 C133.2003,59.0338 133.1253,59.2138 133.0953,59.3318 C133.0653,59.4508 133.0203,59.5108 132.9303,59.5108 C132.8263,59.5108 132.7963,59.4368 132.7963,59.2738 C132.7963,59.0338 133.0803,57.6838 133.1103,57.5658 C133.1553,57.3718 133.2003,57.2838 133.2893,57.2838 C133.4093,57.2838 133.5583,57.4308 133.9323,57.4618 C134.3683,57.5068 134.9373,57.5358 135.4313,57.5358 L141.3633,57.5358 C141.8443,57.5358 142.1733,57.4908 142.3973,57.4618 C142.6213,57.4168 142.7413,57.3858 142.8013,57.3858 C142.9063,57.3858 142.9213,57.4758 142.9213,57.6978 C142.9213,58.0108 142.8763,59.0338 142.8763,59.4218 C142.8613,59.5688 142.8313,59.6588 142.7413,59.6588 C142.6213,59.6588 142.5923,59.5858 142.5763,59.3618 L142.5613,59.1988 C142.5323,58.8118 142.1283,58.3978 140.7943,58.3678 L138.9073,58.3228 L138.9073,64.4098 C138.9073,65.7758 138.9073,66.9488 138.9813,67.5888 C139.0263,68.0038 139.1163,68.3298 139.5653,68.3898 C139.7743,68.4198 140.1063,68.4498 140.3303,68.4498 C140.4943,68.4498 140.5703,68.4948 140.5703,68.5678 C140.5703,68.6728 140.4503,68.7178 140.2853,68.7178 C139.2963,68.7178 138.3533,68.6728 137.9323,68.6728 C137.5883,68.6728 136.6453,68.7178 136.0443,68.7178 C135.8503,68.7178 135.7453,68.6728 135.7453,68.5678 C135.7453,68.4948 135.8053,68.4498 135.9873,68.4498 C136.2113,68.4498 136.3913,68.4198 136.5253,68.3898 C136.8253,68.3298 136.9143,68.0038 136.9593,67.5728 C137.0343,66.9488 137.0343,65.7758 137.0343,64.4098 L137.0343,58.3228" id="Fill-25" fill="#FFFFFF"></path>
          <path d="M148.6906,61.7969 C148.6906,59.5399 148.6906,59.1229 148.6606,58.6489 C148.6306,58.1439 148.5106,57.9069 148.0176,57.8019 C147.8956,57.7729 147.6416,57.7569 147.4316,57.7569 C147.2676,57.7569 147.1776,57.7299 147.1776,57.6249 C147.1776,57.5199 147.2816,57.4899 147.5066,57.4899 C148.3016,57.4899 149.2446,57.5349 149.6946,57.5349 C150.0546,57.5349 150.9966,57.4899 151.5376,57.4899 C151.7616,57.4899 151.8666,57.5199 151.8666,57.6249 C151.8666,57.7299 151.7766,57.7569 151.6256,57.7569 C151.4606,57.7569 151.3706,57.7729 151.1916,57.8019 C150.7876,57.8769 150.6676,58.1299 150.6376,58.6489 C150.6076,59.1229 150.6076,59.5399 150.6076,61.7969 L150.6076,63.8769 C150.6076,66.0289 151.0416,66.9359 151.7766,67.5299 C152.4506,68.0789 153.1386,68.1369 153.6496,68.1369 C154.3076,68.1369 155.1156,67.9299 155.7166,67.3359 C156.5396,66.5189 156.5846,65.1829 156.5846,63.6519 L156.5846,61.7969 C156.5846,59.5399 156.5846,59.1229 156.5546,58.6489 C156.5236,58.1439 156.4046,57.9069 155.9106,57.8019 C155.7916,57.7729 155.5366,57.7569 155.3726,57.7569 C155.2056,57.7569 155.1156,57.7299 155.1156,57.6249 C155.1156,57.5199 155.2206,57.4899 155.4296,57.4899 C156.1946,57.4899 157.1396,57.5349 157.1526,57.5349 C157.3346,57.5349 158.2766,57.4899 158.8606,57.4899 C159.0696,57.4899 159.1746,57.5199 159.1746,57.6249 C159.1746,57.7299 159.0866,57.7569 158.9056,57.7569 C158.7406,57.7569 158.6506,57.7729 158.4716,57.8019 C158.0676,57.8769 157.9476,58.1299 157.9186,58.6489 C157.8876,59.1229 157.8876,59.5399 157.8876,61.7969 L157.8876,63.3849 C157.8876,65.0329 157.7236,66.7859 156.4646,67.8549 C155.4016,68.7609 154.3226,68.9249 153.3476,68.9249 C152.5546,68.9249 151.1166,68.8809 150.0236,67.8999 C149.2586,67.2179 148.6906,66.1189 148.6906,63.9639 L148.6906,61.7969" id="Fill-27" fill="#FFFFFF"></path>
          <path d="M162.5182,66.6973 C162.5482,67.8563 162.7432,68.2403 163.0422,68.3453 C163.2962,68.4353 163.5822,68.4503 163.8222,68.4503 C163.9872,68.4503 164.0772,68.4803 164.0772,68.5683 C164.0772,68.6873 163.9422,68.7173 163.7322,68.7173 C162.7582,68.7173 162.1592,68.6723 161.8752,68.6723 C161.7402,68.6723 161.0352,68.7173 160.2572,68.7173 C160.0622,68.7173 159.9282,68.7023 159.9282,68.5683 C159.9282,68.4803 160.0182,68.4503 160.1672,68.4503 C160.3612,68.4503 160.6312,68.4353 160.8402,68.3753 C161.2292,68.2563 161.2892,67.8263 161.3042,66.5353 L161.4392,57.7433 C161.4392,57.4473 161.4842,57.2393 161.6352,57.2393 C161.8002,57.2393 161.9332,57.4313 162.1892,57.6983 C162.3692,57.8913 164.6452,60.3133 166.8312,62.4653 C167.8512,63.4743 169.8732,65.6143 170.1272,65.8513 L170.2022,65.8513 L170.0532,59.1843 C170.0382,58.2783 169.9032,57.9963 169.5442,57.8463 C169.3202,57.7593 168.9582,57.7593 168.7492,57.7593 C168.5692,57.7593 168.5092,57.7143 168.5092,57.6243 C168.5092,57.5063 168.6742,57.4913 168.8982,57.4913 C169.6792,57.4913 170.3972,57.5363 170.7112,57.5363 C170.8752,57.5363 171.4462,57.4913 172.1802,57.4913 C172.3742,57.4913 172.5232,57.5063 172.5232,57.6243 C172.5232,57.7143 172.4342,57.7593 172.2542,57.7593 C172.1042,57.7593 171.9852,57.7593 171.8062,57.8033 C171.3872,57.9213 171.2652,58.2333 171.2522,59.0643 L171.0852,68.4353 C171.0852,68.7623 171.0252,68.8943 170.8932,68.8943 C170.7262,68.8943 170.5462,68.7323 170.3822,68.5683 C169.4392,67.6763 167.5222,65.7313 165.9642,64.2033 C164.3302,62.6003 162.6682,60.7423 162.3982,60.4603 L162.3532,60.4603 L162.5182,66.6973" id="Fill-29" fill="#FFFFFF"></path>
          <path d="M175.4474,61.7969 C175.4474,59.5399 175.4474,59.1229 175.4174,58.6489 C175.3874,58.1439 175.2384,57.8919 174.9084,57.8179 C174.7444,57.7729 174.5504,57.7569 174.3704,57.7569 C174.2184,57.7569 174.1284,57.7299 174.1284,57.6099 C174.1284,57.5199 174.2504,57.4899 174.4894,57.4899 C175.0584,57.4899 176.0014,57.5349 176.4374,57.5349 C176.8114,57.5349 177.6944,57.4899 178.2644,57.4899 C178.4594,57.4899 178.5784,57.5199 178.5784,57.6099 C178.5784,57.7299 178.4894,57.7569 178.3394,57.7569 C178.1874,57.7569 178.0684,57.7729 177.8884,57.8019 C177.4844,57.8769 177.3644,58.1299 177.3354,58.6489 C177.3044,59.1229 177.3044,59.5399 177.3044,61.7969 L177.3044,64.4109 C177.3044,65.8499 177.3044,67.0229 177.3644,67.6619 C177.4094,68.0639 177.5144,68.3309 177.9634,68.3889 C178.1734,68.4189 178.5044,68.4489 178.7284,68.4489 C178.8934,68.4489 178.9684,68.4939 178.9684,68.5679 C178.9684,68.6729 178.8484,68.7159 178.6834,68.7159 C177.6944,68.7159 176.7514,68.6729 176.3474,68.6729 C176.0014,68.6729 175.0584,68.7159 174.4604,68.7159 C174.2634,68.7159 174.1584,68.6729 174.1584,68.5679 C174.1584,68.4939 174.2184,68.4489 174.4004,68.4489 C174.6244,68.4489 174.8044,68.4189 174.9394,68.3889 C175.2384,68.3309 175.3274,68.0789 175.3724,67.6479 C175.4474,67.0229 175.4474,65.8499 175.4474,64.4109 L175.4474,61.7969" id="Fill-31" fill="#FFFFFF"></path>
          <path d="M190.3083,63.3858 C190.3083,60.0598 188.3763,57.9948 185.9203,57.9948 C184.1953,57.9948 182.2353,58.9468 182.2353,62.6448 C182.2353,65.7328 183.9553,68.1828 186.8333,68.1828 C187.8803,68.1828 190.3083,67.6778 190.3083,63.3858 M180.1683,63.1038 C180.1683,60.5648 181.8593,57.2838 186.3543,57.2838 C190.0843,57.2838 192.4053,59.4358 192.4053,62.8368 C192.4053,66.2378 190.0093,68.9248 186.2043,68.9248 C181.9043,68.9248 180.1683,65.7328 180.1683,63.1038" id="Fill-33" fill="#FFFFFF"></path>
          <path d="M196.1076,66.6973 C196.1376,67.8563 196.3316,68.2403 196.6306,68.3453 C196.8856,68.4353 197.1716,68.4503 197.4116,68.4503 C197.5756,68.4503 197.6656,68.4803 197.6656,68.5683 C197.6656,68.6873 197.5306,68.7173 197.3216,68.7173 C196.3466,68.7173 195.7486,68.6723 195.4636,68.6723 C195.3296,68.6723 194.6246,68.7173 193.8456,68.7173 C193.6516,68.7173 193.5166,68.7023 193.5166,68.5683 C193.5166,68.4803 193.6066,68.4503 193.7556,68.4503 C193.9506,68.4503 194.2196,68.4353 194.4296,68.3753 C194.8186,68.2563 194.8786,67.8263 194.8956,66.5353 L195.0276,57.7433 C195.0276,57.4473 195.0726,57.2393 195.2246,57.2393 C195.3896,57.2393 195.5236,57.4313 195.7776,57.6983 C195.9576,57.8913 198.2336,60.3133 200.4206,62.4653 C201.4406,63.4743 203.4626,65.6143 203.7166,65.8513 L203.7916,65.8513 L203.6416,59.1843 C203.6276,58.2783 203.4926,57.9963 203.1326,57.8463 C202.9086,57.7593 202.5476,57.7593 202.3376,57.7593 C202.1586,57.7593 202.0986,57.7143 202.0986,57.6243 C202.0986,57.5063 202.2636,57.4913 202.4876,57.4913 C203.2676,57.4913 203.9856,57.5363 204.2996,57.5363 C204.4666,57.5363 205.0356,57.4913 205.7686,57.4913 C205.9626,57.4913 206.1126,57.5063 206.1126,57.6243 C206.1126,57.7143 206.0236,57.7593 205.8436,57.7593 C205.6936,57.7593 205.5736,57.7593 205.3946,57.8033 C204.9756,57.9213 204.8536,58.2333 204.8406,59.0643 L204.6766,68.4353 C204.6766,68.7623 204.6146,68.8943 204.4826,68.8943 C204.3156,68.8943 204.1356,68.7323 203.9706,68.5683 C203.0286,67.6763 201.1106,65.7313 199.5526,64.2033 C197.9196,62.6003 196.2566,60.7423 195.9876,60.4603 L195.9426,60.4603 L196.1076,66.6973" id="Fill-35" fill="#FFFFFF"></path>
          <path d="M205.945,10.2335 C206.255,8.7315 207.307,7.6265 208.587,6.8095 C209.906,5.9675 211.808,5.2065 213.76,5.4185 C214.134,5.4585 214.805,5.5845 215.16,5.8115 C215.183,5.8265 215.209,5.8435 215.228,5.8625 C215.281,5.9025 215.324,5.9415 215.354,5.9905 C215.38,6.0355 215.399,6.0805 215.399,6.1295 C215.427,6.4735 214.762,6.7115 214.401,6.8455 C213.161,7.3055 211.612,7.4935 210.37,7.8785 C208.591,8.4295 207.328,9.3825 205.945,10.2335 M216.436,6.5255 C216.468,8.5295 213.495,8.7395 211.832,9.1645 C211.045,9.3655 210.308,9.6305 209.692,9.9135 C208.966,10.2465 208.395,10.7405 207.764,10.9835 C207.266,11.1765 206.916,11.2405 206.445,11.0185 C206.567,10.2785 207.478,10.0795 208.087,9.8065 C208.717,9.5245 209.378,9.1755 210.086,8.9485 C211.573,8.4725 213.388,8.4385 214.474,7.6295 C214.865,7.3375 215.072,6.9095 215.399,6.5935 C215.529,6.4845 215.662,6.3815 215.793,6.2735 C215.951,6.2065 216.102,6.1295 216.222,6.0255 C216.231,5.8375 216.113,5.7755 216.006,5.7025 C215.54,5.3495 215.2,4.7915 214.651,4.5975 C213.285,4.1035 211.543,4.4585 210.263,4.9175 C208.923,5.4025 207.783,6.1145 207.016,6.7735 L206.982,6.7735 C206.663,7.0385 206.36,7.3175 206.089,7.6295 C205.255,8.4295 204.949,9.5795 204.483,10.6635 C204.028,11.7255 203.498,12.7875 203.091,13.9075 C202.269,16.1885 201.685,18.6405 201.128,21.1885 C201.052,19.1535 201.448,17.1655 201.95,15.3725 C202.448,13.5935 203.043,11.9185 203.806,10.4835 C204.231,9.6905 204.562,8.9795 205.054,8.3435 C206.484,6.4905 208.628,5.1995 211.298,4.4875 C211.447,4.4965 211.573,4.4815 211.654,4.4175 L211.691,4.4175 C211.887,4.4215 212.06,4.4085 212.189,4.3475 L212.225,4.3475 C212.864,4.3165 213.593,4.2785 214.223,4.3475 L214.26,4.3475 C214.437,4.4175 214.664,4.4425 214.865,4.4875 C215.32,4.6655 216.374,5.1395 216.436,5.6315 C216.457,5.7855 216.301,5.8435 216.293,6.0255 C216.291,6.1705 216.436,6.3755 216.436,6.5255 M220.219,8.7345 C220.07,6.6685 218.87,5.3365 217.398,4.4875 C215.903,3.6295 213.736,3.3085 211.475,3.7395 C209.023,4.2125 206.736,5.5825 205.197,7.2005 C204.977,7.4335 204.787,7.6855 204.584,7.9295 C204.543,7.9765 204.503,8.0255 204.462,8.0745 C203.258,9.5625 202.333,11.2725 201.628,13.2665 C201.288,14.2265 200.976,15.2415 200.692,16.3145 C200.681,16.3535 200.67,16.3915 200.664,16.4305 C200.324,17.6875 200.052,18.9755 199.868,20.3135 C199.837,20.5425 199.802,20.7735 199.775,21.0085 C199.503,23.1265 199.443,25.7405 199.845,27.7155 C199.971,28.3445 200.095,29.1435 200.63,29.3595 C200.905,29.1135 200.875,28.7375 200.95,28.4295 C202.202,23.2705 205.501,20.5645 209.799,18.4395 C212.067,17.3185 214.508,16.5095 216.613,15.1945 C218.663,13.9145 220.471,12.1875 220.219,8.7345 M201.88,38.0635 C201.643,38.0615 201.602,37.8645 201.414,37.8155 C200.95,37.3515 200.445,36.9305 199.595,36.8515 C199.775,36.6585 200.326,36.7015 200.63,36.7445 C201.238,36.8875 202.254,37.4965 201.88,38.0635 M199.095,41.3465 C198.821,41.5855 198.646,41.9315 198.383,42.1305 C198.09,42.3535 197.612,42.3165 197.276,42.4535 C197.131,42.5115 197.026,42.7225 196.848,42.7375 C196.083,42.7995 195.846,41.2605 195.921,40.4185 C195.929,40.3375 196.021,39.8525 195.991,40.0985 C195.957,40.9425 196.124,41.5815 196.491,42.0245 L196.491,42.0195 C196.491,42.0215 196.493,42.0245 196.493,42.0275 C196.506,42.0585 196.579,42.2225 196.681,42.2505 C196.688,42.2505 196.696,42.2545 196.703,42.2545 C196.714,42.2635 196.731,42.2695 196.752,42.2755 C196.844,42.2975 197.007,42.2975 197.062,42.3105 C197.289,42.2525 197.359,41.9895 197.526,41.8445 C197.78,41.6265 198.129,41.5645 198.417,41.3825 C198.676,41.2175 198.896,40.9575 199.167,40.7755 C199.704,40.4165 200.225,40.1175 200.664,39.6345 C200.856,39.4265 201.025,39.0595 201.38,39.0995 C201.454,40.2195 199.826,40.7155 199.095,41.3465 M197.774,38.3135 C198.139,37.9645 198.661,37.6315 199.201,37.5655 C199.873,37.4855 200.689,37.8155 200.736,38.2765 C200.788,38.7595 200.168,39.1125 199.809,39.3115 C199.336,39.5765 198.875,39.7265 198.524,39.9545 C197.772,40.4485 197.301,41.1225 196.94,41.9215 C196.874,42.0195 196.754,42.1655 196.656,42.1545 C196.634,42.1415 196.611,42.1305 196.588,42.1095 C196.549,42.0645 196.521,41.9765 196.504,41.8315 C196.591,40.4275 196.945,39.1065 197.774,38.3135 M199.567,36.0625 C199.537,36.0705 199.509,36.0845 199.488,36.1015 C199.511,36.0845 199.537,36.0705 199.567,36.0625 M199.67,36.0395 C199.642,36.0415 199.618,36.0475 199.595,36.0535 C199.614,36.0495 199.633,36.0435 199.654,36.0395 C199.516,36.0605 199.379,36.0685 199.238,36.1015 C197.975,36.3895 197.032,37.0245 196.384,37.7425 C195.733,38.4695 195.128,39.4785 195.027,40.8485 C194.816,43.7635 196.44,45.6235 198.417,46.4145 C202.173,47.9145 205.473,45.2875 205.875,42.0585 C206.05,40.6705 205.672,39.3005 204.911,38.2425 C203.91,36.8495 202.036,35.6755 199.67,36.0395" id="Fill-37" fill="#FFFFFF"></path>
          <path d="M186.9289,37.0655 C186.1829,38.5765 184.6949,39.7695 183.2549,40.5605 C182.2479,41.1135 181.1189,41.6115 179.8989,41.9885 C178.6869,42.3625 177.3269,42.7555 175.9039,42.5955 C176.4289,42.2255 177.0769,42.1895 177.6519,42.0245 C181.0959,41.0455 184.4579,39.4485 186.1789,36.7085 C186.4799,36.2325 186.7539,35.6335 187.1789,35.2105 L187.2489,35.2105 C187.4819,35.8815 187.1899,36.5355 186.9289,37.0655 M170.7649,36.3515 C169.7969,36.7815 168.4929,37.5485 167.9479,38.3505 C167.7989,38.5655 167.6939,39.1005 167.4479,39.1005 C167.2829,39.1005 167.1379,38.8075 167.1279,38.5985 C167.0829,37.7795 168.0489,37.0465 168.5899,36.6725 C169.2879,36.1915 170.1389,35.7255 170.9429,35.6355 C171.2209,35.6075 171.6199,35.5975 171.8359,35.7815 C171.6199,36.1595 171.1289,36.1915 170.7649,36.3515 M185.8469,33.7615 C185.8649,33.7995 185.8839,33.8385 185.8989,33.8765 C185.8839,33.8385 185.8649,33.7995 185.8469,33.7615 M170.0879,23.9355 C169.9209,24.2685 169.8669,24.8095 169.5169,24.8995 C169.0299,24.2285 169.4849,23.4675 169.8019,22.9375 C170.7809,21.3125 172.5179,20.2245 174.2279,19.4035 C176.6289,18.2495 179.3789,17.2625 182.4679,17.0505 C182.8479,17.0235 183.2569,16.9785 183.6089,17.0855 C183.3589,17.3435 182.9709,17.3415 182.6479,17.4075 C180.1939,17.8925 177.8809,18.5535 175.7969,19.4765 C173.5329,20.4775 171.1369,21.8475 170.0879,23.9355 M192.6719,31.0355 C190.4859,27.5845 184.3599,27.8405 179.5419,26.8615 C178.0949,26.5665 176.0539,26.0985 176.1539,24.4695 C176.1899,23.8525 176.6009,23.4005 177.1159,23.0375 C177.4299,22.8195 177.7809,22.6375 178.1159,22.4735 C179.3409,21.8685 181.0269,21.3195 182.4339,21.9375 C183.4259,22.3755 184.1329,23.0845 185.2529,23.5075 C186.3179,23.9075 187.6659,23.7385 188.7479,23.4355 C189.3929,23.2555 189.9879,23.0285 190.5689,22.7575 C191.5929,22.2785 192.9729,21.5865 193.1359,20.2975 C193.2729,19.2115 191.9199,18.2415 191.3169,17.7985 C189.6349,16.5655 187.5679,15.7705 184.9669,15.6565 C183.6669,15.6015 182.2669,15.9025 181.1829,16.1205 C178.0579,16.7575 175.1599,17.8115 172.7279,19.2605 C171.6569,19.9015 170.4209,20.7465 169.5169,21.8305 C168.7199,22.7915 167.7969,24.3775 168.1619,26.1475 C168.1789,26.2315 168.2089,26.3015 168.2329,26.3805 C168.2329,26.3865 168.2349,26.3915 168.2369,26.3955 C168.3399,26.7655 168.5039,27.0835 168.7109,27.3655 C168.7239,27.3825 168.7369,27.3995 168.7499,27.4175 C169.3159,28.1715 170.1819,28.6935 171.0859,29.0735 C172.4519,29.6465 174.1619,30.0075 175.7259,30.3215 C176.8959,30.5595 178.2249,30.7475 179.5329,30.9765 C179.5739,30.9825 179.6079,30.9865 179.6439,30.9975 C179.7789,31.0215 179.9109,31.0445 180.0419,31.0675 L180.0419,31.0695 C180.0529,31.0695 180.0569,31.0695 180.0629,31.0745 C180.1059,31.0745 180.1379,31.0835 180.1699,31.0935 C180.1979,31.0935 180.2209,31.1005 180.2449,31.1065 C180.4569,31.1455 180.6659,31.1915 180.8759,31.2345 C180.8839,31.2345 180.8949,31.2385 180.8989,31.2415 C181.2469,31.3155 181.5899,31.3905 181.9209,31.4825 C181.9439,31.4865 181.9699,31.4935 181.9929,31.5025 C183.1729,31.8145 184.2269,32.2285 185.0009,32.8205 C185.8169,33.4425 186.2619,34.5845 185.7869,35.8155 C185.4649,36.6595 184.9029,37.3775 184.1999,37.9935 C184.1759,38.0125 184.1549,38.0335 184.1309,38.0535 C184.1179,38.0645 184.1119,38.0705 184.1009,38.0835 C184.0049,38.1625 183.9019,38.2455 183.7979,38.3245 C183.7249,38.3765 183.6579,38.4275 183.5899,38.4785 C182.5729,39.2115 181.3519,39.7805 180.1129,40.2415 C178.3599,40.8935 175.0299,41.8065 173.0509,40.8465 C172.5799,40.6185 172.2579,40.3165 172.1199,39.8825 C171.8999,39.1815 172.1569,38.5085 172.4429,38.1705 C172.8429,37.7005 173.6319,37.5235 174.4059,37.3155 C175.1369,37.1195 175.8969,36.7735 175.8329,35.9215 C175.7859,35.2665 175.1239,35.0395 174.6559,34.8535 C173.7039,34.4775 172.7659,34.3685 171.8749,34.4625 C171.7629,34.4585 171.6629,34.4625 171.5839,34.4925 C171.5799,34.4925 171.5799,34.4925 171.5799,34.4985 C170.9169,34.5905 170.2839,34.7915 169.6949,35.0665 C168.3609,35.6895 166.9269,36.7215 166.3069,37.8155 C165.6609,38.9535 166.0989,40.3365 166.6249,41.3835 C167.6809,43.4825 169.4619,44.8845 171.8359,45.5915 C175.4309,46.6605 179.7809,45.7285 182.6109,44.7715 C185.5609,43.7775 188.4869,42.2165 190.4959,40.0985 C191.4599,39.0855 192.4329,37.8415 192.9589,36.2815 C193.5119,34.6445 193.6189,32.5215 192.6719,31.0355" id="Fill-39" fill="#FFFFFF"></path>
          <path d="M134.5431,24.0689 C134.5431,24.0689 134.5431,24.0709 134.5411,24.0709 C134.5431,24.0709 134.5431,24.0689 134.5431,24.0689" id="Fill-41" fill="#FFFFFF"></path>
          <path d="M153.9958,30.3931 C153.6238,30.5171 153.0318,30.6021 152.7818,30.3561 C152.8948,29.8971 153.4208,29.7491 153.7478,29.5721 C154.8468,28.9891 155.8408,28.2661 156.8148,27.5031 C157.8068,26.7291 158.7068,25.9621 159.4548,24.9701 C159.7868,24.5251 160.0408,23.9801 160.4918,23.6131 C161.0278,23.5531 160.5708,24.7221 160.4918,24.9001 C159.9828,26.0021 158.9018,26.9021 158.0638,27.6101 C157.1788,28.3601 156.1118,29.1021 155.0668,29.7491 C154.7038,29.9761 154.3318,30.2801 153.9958,30.3931 M153.0318,21.0821 C154.4978,21.1851 156.3238,21.2401 157.6728,21.6621 C157.7278,21.6791 157.7858,21.7001 157.8438,21.7191 C158.0338,21.7851 158.2088,21.8561 158.3758,21.9441 C158.4348,21.9741 158.4968,22.0031 158.5578,22.0381 C158.8008,22.1811 159.0088,22.3481 159.1708,22.5421 C159.9958,23.5421 158.8398,24.6241 158.1368,25.3271 C156.4818,26.9811 154.3378,28.4541 152.2128,29.5011 C152.4868,26.6911 152.7628,23.8911 153.0318,21.0821 M131.4098,19.1181 C130.1658,19.3531 128.4558,19.5771 127.7718,20.3321 C127.5728,20.5521 127.3828,21.4151 127.0578,21.4011 C126.6798,21.3861 126.7688,20.7291 126.8438,20.4731 C127.2758,19.0091 129.3188,19.0151 130.9838,18.7611 C134.4448,18.2351 138.2878,17.8121 141.9358,17.6201 C141.9978,17.6091 142.0048,17.6471 142.0068,17.6921 C138.6988,18.1131 134.7738,18.4851 131.4098,19.1181 M132.0808,38.1431 C132.0678,38.0901 132.0578,38.0301 132.0468,37.9681 L132.0468,37.9551 C132.0548,38.0231 132.0658,38.0881 132.0808,38.1431 M132.0228,37.6241 C132.0228,37.6491 132.0248,37.6731 132.0248,37.7011 C132.0248,37.6731 132.0228,37.6491 132.0228,37.6241 M127.3438,28.5381 C127.0408,28.8481 126.8268,29.5531 126.4158,28.8941 C126.3698,28.2131 126.9128,27.8501 127.3078,27.5371 C127.8678,27.1011 128.3678,26.6711 128.8058,26.1111 C129.0258,25.8311 129.1738,25.5211 129.5908,25.4321 C130.2598,27.0731 128.1328,27.7381 127.3438,28.5381 M136.4068,39.3121 C137.7618,39.0951 139.2498,38.8681 140.7948,38.9561 C139.8118,39.3001 138.7348,39.3931 137.6548,39.5991 C137.1338,39.6951 136.6008,39.7811 136.0858,39.9171 C135.3828,40.1051 134.7588,40.4391 133.9448,40.2401 C134.4208,39.6461 135.4518,39.4641 136.4068,39.3121 M166.1238,24.8651 C166.1108,24.8871 166.0958,24.9081 166.0808,24.9301 C166.0958,24.9081 166.1108,24.8871 166.1238,24.8651 M166.5578,24.1791 C166.5538,24.1881 166.5488,24.1941 166.5468,24.2011 C166.5488,24.1941 166.5538,24.1881 166.5578,24.1791 M157.5628,32.8901 C160.6258,30.5171 163.9348,28.2191 166.0918,25.0061 C166.4698,24.4441 166.8058,23.8391 167.0498,23.1681 C167.1398,22.9271 167.2158,22.6851 167.2698,22.4351 C167.2928,22.3391 167.3228,22.2491 167.3398,22.1511 C167.5558,20.9261 167.2038,19.8401 166.4848,19.0471 C165.2298,17.6581 163.0948,16.9121 160.8468,16.4421 C157.4348,15.7281 153.3398,15.5121 149.4668,15.8711 C148.8378,15.9311 148.2078,15.9581 147.5778,15.9821 L147.5448,15.9821 C147.4468,15.9841 147.3508,15.9861 147.2568,15.9911 C147.2438,15.9911 147.2328,15.9911 147.2248,15.9931 C146.6578,16.0081 146.0958,16.0231 145.5398,16.0511 C140.2368,16.2981 135.3468,16.8521 130.7318,17.6921 C129.5498,17.9061 128.0838,18.0831 127.2008,18.5831 C126.7068,18.8611 126.2948,19.5071 126.0228,20.0481 C125.9678,20.1591 125.9158,20.2681 125.8738,20.3791 C125.8608,20.4111 125.8438,20.4431 125.8368,20.4731 C125.8088,20.5391 125.7858,20.6051 125.7688,20.6721 C125.7238,20.8061 125.6938,20.9391 125.6658,21.0691 C125.5828,21.4951 125.5828,21.8961 125.6598,22.2681 C125.6618,22.2901 125.6618,22.3091 125.6658,22.3301 C125.6788,22.3861 125.6918,22.4411 125.7048,22.4911 C125.7178,22.5461 125.7348,22.5981 125.7538,22.6491 C125.7898,22.7491 125.8288,22.8431 125.8738,22.9391 C126.3308,23.8761 127.3138,24.5231 128.5218,24.6861 C128.3958,25.1181 128.3638,25.6421 128.2358,26.0751 C127.9688,26.2331 127.6728,26.3901 127.3738,26.5561 C127.3678,26.5591 127.3608,26.5601 127.3548,26.5621 C127.2688,26.6121 127.1858,26.6541 127.1028,26.7051 C126.2708,27.1831 125.4698,27.7551 125.2748,28.6811 C125.0488,29.7431 125.6918,30.8441 126.1298,31.3541 C126.2108,31.4511 126.4058,31.5941 126.5998,31.7501 C126.6018,31.7521 126.6088,31.7561 126.6128,31.7561 C126.7538,31.8951 126.9038,32.0261 127.0518,32.1431 C127.0578,32.1481 127.0578,32.1481 127.0618,32.1501 C127.1178,32.2141 127.1558,32.2711 127.1648,32.3211 C127.2158,32.5391 127.0408,33.0241 126.9868,33.3901 C126.6948,35.3941 126.4588,37.1581 126.2368,39.0621 C126.1128,40.1441 125.8568,41.2341 126.1298,42.0951 C126.5168,43.2991 127.4298,44.1431 128.4858,44.9491 C129.5438,45.7551 130.6378,46.4451 131.9098,46.7701 C132.8868,47.0181 133.7708,46.5971 134.5878,46.2701 C135.1828,46.0301 135.7768,45.7551 136.2638,45.5211 C138.4778,44.4751 140.4748,43.4101 142.5778,42.1321 C143.4558,41.6001 144.9928,40.8961 145.0768,39.7761 C145.1168,39.2461 144.7938,38.7351 144.5788,38.4921 C144.2488,38.1261 143.5798,37.6491 143.0418,37.5301 C142.3108,37.3651 141.1838,37.5391 140.2948,37.6341 C138.5718,37.8271 137.0078,38.0661 135.4768,38.4571 C134.6688,38.6611 133.8948,39.1051 133.1598,38.9921 C132.7048,38.9211 132.2128,38.4151 132.1258,38.1011 C132.0078,37.6801 132.1038,37.1371 132.1258,36.6731 C132.1988,35.1001 132.3478,33.9971 132.5528,32.5711 C134.7378,32.1591 137.0458,31.5941 139.1538,31.0361 C140.5968,30.6541 143.3068,30.0231 142.2208,28.0031 C141.1158,25.9381 136.7998,26.4191 133.9088,26.3251 C134.1178,25.5691 134.3058,24.7951 134.5428,24.0701 C134.2208,24.6731 134.1518,25.5371 133.8718,26.1821 C134.1518,25.5371 134.2208,24.6711 134.5428,24.0701 L134.5428,24.0681 C134.5468,24.0601 134.5518,24.0491 134.5558,24.0401 C138.2558,23.3541 141.9388,22.6511 145.6128,21.9371 C145.4938,28.3191 145.6278,35.2581 146.2538,41.2741 C146.3608,42.2921 146.5278,43.1431 146.6818,44.2011 C146.8078,45.0471 146.9088,46.5351 147.5368,46.7001 C147.9728,46.8091 148.4618,46.4691 148.7868,46.2331 C149.1738,45.9581 149.5418,45.6841 149.7878,45.4151 C151.5018,43.5191 151.0798,39.3061 151.5338,36.1751 C152.1318,36.5271 152.5958,37.0771 153.1408,37.5301 C154.8298,38.9321 156.5398,40.2251 158.2768,41.5611 C159.9428,42.8391 161.5388,44.3971 163.3458,45.6261 C163.9048,46.0091 164.6408,46.6951 165.3418,46.7001 C166.0488,46.7021 166.6448,46.1461 166.8058,45.4511 C167.1688,43.8721 166.2288,42.2751 165.5208,41.3471 C163.1618,38.2441 159.5878,35.9761 157.5628,32.8901" id="Fill-43" fill="#FFFFFF"></path>
          <path d="M51.8097,30.1431 C51.1257,30.8591 49.5057,30.9831 48.3857,30.8931 C48.7617,30.4811 49.3387,30.4961 49.8107,30.2861 C50.2837,30.0751 50.6177,29.7181 50.9527,29.3931 C51.2227,29.1391 52.2997,27.8881 52.3097,29.0721 C52.3117,29.4801 51.9937,29.9511 51.8097,30.1431 M49.8867,24.3701 C49.9077,24.3361 49.9317,24.3081 49.9587,24.2741 C50.3247,25.8661 50.7387,27.5911 51.0597,29.1091 C49.7257,29.3161 48.3197,29.4591 47.0287,29.7131 C47.8337,27.9221 48.8647,26.0601 49.8867,24.3701 M43.5677,28.5011 C42.0587,32.0071 40.6947,35.5981 39.4637,39.4201 C39.2627,40.0521 39.0667,40.6961 38.8927,41.3481 C38.7327,41.9631 38.6777,42.6681 38.2517,43.2031 C38.0407,41.7651 38.5017,40.3561 38.8927,39.0631 C40.0457,35.2751 41.4477,31.6731 42.9267,28.1441 C44.6157,24.1221 46.4257,20.0201 48.3857,16.1221 C48.6977,15.5041 48.9887,14.8861 49.3837,14.4461 C49.4137,14.4391 49.4197,14.4581 49.4197,14.4801 C49.6427,15.8991 48.7507,17.0531 48.2057,18.1541 C46.5567,21.4971 45.0917,24.9731 43.5677,28.5011 M49.0977,11.9831 C49.1427,11.5751 49.5657,11.2951 49.8477,11.6261 C50.2217,12.0621 49.6427,12.6011 49.4907,12.9451 C49.2877,12.7611 49.0567,12.3851 49.0977,11.9831 M59.3377,40.7751 C58.6307,35.8181 57.8697,31.2141 57.0187,26.5031 C56.4767,23.4811 55.8777,20.1871 55.1637,17.3331 C54.4687,14.5461 53.0797,11.7951 50.7757,10.6631 C50.5317,10.5401 50.2457,10.4191 49.9547,10.3761 C47.8107,10.0601 47.8857,12.9521 48.1697,14.8011 C45.6007,19.4981 43.3757,24.7541 41.1787,30.1431 C40.1287,32.7141 39.0857,35.4121 38.1447,38.2781 C37.7137,39.5991 37.2087,41.1251 36.9677,42.6661 C36.7257,44.2181 36.6637,46.7621 37.9677,46.9841 C38.5877,47.0911 39.1777,46.6461 39.5367,46.3071 C40.7167,45.1861 41.2147,43.2901 41.7857,41.7391 C42.6107,39.4971 43.5127,37.3781 44.4587,35.3521 C46.8067,34.8091 49.8007,34.7241 52.4877,34.6381 C53.3237,37.7161 53.3357,41.8111 55.2707,43.6671 C55.6977,44.0751 56.4337,44.4621 57.0917,44.8421 C57.6087,45.1421 58.6347,45.7871 59.2677,45.4151 C59.7477,45.1311 59.7587,44.1801 59.6587,43.2031 C59.5797,42.3931 59.4407,41.4671 59.3377,40.7751" id="Fill-45" fill="#FFFFFF"></path>
          <g id="Group-49" transform="translate(0.000000, 0.925600)">
            <mask id="mask-2" fill="white">
              <use xlink:href="#path-1"></use>
            </mask>
            <g id="Clip-48"></g>
            <path d="M17.5216,12.5208 C17.3016,14.2478 16.8526,15.7588 16.5236,17.4068 C16.3996,18.0418 16.3656,18.7088 16.0596,19.2628 C15.9616,16.8858 16.4656,14.8398 16.9516,13.0188 C17.0856,12.5228 17.0196,11.8968 17.4516,11.5568 C17.7356,11.8088 17.5606,12.2278 17.5216,12.5208 M14.9886,26.5428 C14.7216,26.7238 14.3586,26.8098 13.9546,26.9338 C13.5586,27.0598 13.2146,27.3628 12.9566,27.3628 C12.7086,27.3628 12.4966,27.1798 12.4926,27.0058 C12.4796,26.5868 13.1166,26.5128 13.4546,26.3628 C14.4866,25.9118 15.0806,24.7878 15.7736,24.0078 C15.9936,25.0908 15.6946,26.0698 14.9886,26.5428 M27.9416,26.7908 C30.8936,26.0868 33.5936,24.8538 35.1466,22.7588 C35.7696,21.9238 36.1646,20.8938 36.7156,19.7988 C36.7266,19.7608 36.7886,19.7748 36.7886,19.7268 C36.8186,19.7218 36.8256,19.7408 36.8256,19.7628 C36.8546,19.7708 36.8596,19.7988 36.8956,19.7988 C36.8726,22.6518 35.1006,24.5458 33.2216,25.6148 C31.3036,26.7048 28.7816,27.2498 26.1206,27.2538 C26.6976,26.9638 27.3456,26.9338 27.9416,26.7908 M34.2746,22.7848 C34.3266,22.7398 34.3716,22.6888 34.4096,22.6308 C34.4626,22.5648 34.5276,22.5088 34.5766,22.4388 C34.4586,22.6038 34.3156,22.7398 34.1856,22.8918 C34.2156,22.8578 34.2476,22.8208 34.2746,22.7848 M8.7086,1.9238 C7.8926,2.0608 7.1036,2.2358 6.3196,2.4238 C4.6846,2.8128 3.2646,3.3978 2.0016,3.9218 C1.8926,3.9668 1.4116,3.9838 1.3586,3.7078 C1.2966,3.3828 1.9186,3.1628 2.2156,3.0288 C4.6156,1.9538 7.8386,1.3288 11.2076,1.4938 C10.4016,1.7698 9.5346,1.7868 8.7086,1.9238 M38.7876,27.2178 C40.8176,25.3948 42.1126,22.8108 42.3916,19.5828 C42.6946,16.0428 41.1146,13.4148 39.3946,11.3768 C37.6996,9.3698 35.5126,7.6838 33.2576,6.2748 C30.9596,4.8478 28.4226,3.6328 25.6566,2.6378 C21.7006,1.2088 16.8976,-0.1462 11.3856,0.1038 C9.6646,0.1818 7.9336,0.3098 6.3896,0.7458 C4.5556,1.2698 2.6646,1.6968 1.1446,2.6008 C0.6916,2.8728 0.0416,3.2998 0.0026,3.8148 C-0.0434,4.4908 0.4306,4.8768 0.8216,5.1828 L0.8236,5.1828 C0.8476,5.2048 0.8716,5.2238 0.8946,5.2408 C1.7286,5.9008 2.8996,6.5528 4.2136,6.5978 C4.9386,6.6198 5.6826,6.5338 6.2466,6.2748 C6.9566,5.9508 7.3516,5.2028 7.9956,4.8838 C8.6046,4.5838 9.4556,4.5188 10.3656,4.5548 C11.3636,4.5928 12.4346,4.7488 13.3476,4.8498 C18.0046,5.3558 21.8566,6.5848 25.3356,8.2398 C26.9666,9.0128 28.6346,9.9878 30.1516,11.1338 C30.1926,11.1658 30.2326,11.1958 30.2736,11.2278 C30.7636,11.6038 31.2396,11.9928 31.6886,12.4028 C31.6956,12.4118 31.7036,12.4178 31.7096,12.4248 C31.9256,12.6218 32.1336,12.8248 32.3406,13.0278 C32.9416,13.6348 33.4926,14.2738 33.9696,14.9468 C34.6576,15.9088 35.4296,17.1888 35.5406,18.5148 C35.6066,19.3118 35.5366,20.0228 35.3586,20.6648 C35.2436,21.0278 35.1006,21.3718 34.9546,21.6988 C34.9526,21.7058 34.9486,21.7078 34.9436,21.7138 C34.0956,23.3278 32.4686,24.3538 30.7226,24.9718 C27.8966,25.9738 24.3086,26.0768 20.5186,25.8648 C20.3406,22.9328 20.1206,20.1748 19.7706,17.3028 C19.5266,15.2928 19.2316,13.1538 18.7356,11.3408 C18.7206,11.2858 18.7056,11.2298 18.6886,11.1678 C18.6676,11.0928 18.6436,11.0098 18.6166,10.9288 C18.4616,10.4238 18.2336,9.9108 17.8086,9.9158 C17.2866,9.9238 16.9486,10.7748 16.7376,11.1998 C14.9146,14.9168 14.4606,20.0808 14.3476,25.4008 C13.0356,25.4098 11.7806,25.6638 11.4216,26.6838 C10.9066,28.1558 12.4496,29.4668 13.3476,30.0398 C13.5376,30.1588 13.8716,30.2768 14.1146,30.4048 C14.1666,30.4308 14.2126,30.4538 14.2516,30.4818 C14.3326,30.5358 14.3906,30.5888 14.4176,30.6458 C14.4846,30.7938 14.4436,31.2358 14.4546,31.5738 C14.5636,35.1848 14.8696,38.4908 15.2386,41.7758 C15.3736,42.9688 15.4436,44.2388 15.7366,45.2728 C15.9386,45.9678 16.3656,46.6838 17.0946,46.7728 C18.3406,46.9228 19.3686,45.2028 19.8406,44.4888 C20.5316,43.4518 20.9886,42.3618 21.0546,40.8868 C21.1256,39.3028 20.9116,37.7598 20.9116,36.2098 C20.9116,34.6538 20.8046,33.1038 20.8046,31.5008 C28.4486,31.9628 34.8736,30.7378 38.7876,27.2178" id="Fill-47" fill="#FFFFFF" mask="url(#mask-2)"></path>
          </g>
          <path d="M34.4103,23.5567 C34.3713,23.6147 34.3253,23.6657 34.2753,23.7107 C34.2473,23.7467 34.2153,23.7817 34.1853,23.8157 C34.3163,23.6657 34.4593,23.5287 34.5773,23.3647 C34.5283,23.4347 34.4613,23.4887 34.4103,23.5567" id="Fill-50" fill="#FFFFFF"></path>
          <path d="M103.9733,16.086 C101.6223,16.975 99.4423,18.612 96.1953,18.405 C96.9643,17.993 97.8063,17.888 98.5873,17.621 C100.7823,16.868 102.9303,15.319 105.4723,15.052 C105.7903,15.017 106.2173,14.953 106.4703,15.158 C105.7063,15.665 104.8033,15.774 103.9733,16.086 M75.6073,24.078 C75.0983,25.145 74.0593,26.002 73.1813,26.718 C72.5873,27.207 71.9483,27.714 71.2553,28.182 C70.5773,28.639 69.8683,29.23 69.1863,29.501 C68.7993,29.652 68.1813,29.768 67.8653,29.464 C68.0703,29.028 68.5473,28.868 68.9003,28.68 C70.7233,27.711 72.5463,26.29 73.9683,24.792 C74.2373,24.51 74.5423,24.185 74.7883,23.828 C75.0793,23.402 75.2483,22.926 75.6803,22.721 C75.7093,22.716 75.7163,22.736 75.7163,22.757 C76.0073,23.176 75.7823,23.717 75.6073,24.078 M68.1153,20.224 C69.9193,20.271 71.8153,20.423 73.1473,20.975 C73.5213,21.128 73.9853,21.349 74.2823,21.69 C74.2973,21.701 74.3053,21.714 74.3123,21.729 C74.4213,21.878 74.5043,22.041 74.5533,22.214 C74.5793,22.325 74.5873,22.449 74.5733,22.58 C74.5023,23.302 73.6943,24.065 73.2173,24.542 C71.6033,26.16 69.2993,27.607 67.3673,28.646 C67.5153,25.878 67.9403,23.08 68.1153,20.224 M61.8353,16.907 C60.8143,17.112 59.7003,17.319 59.0163,17.728 C58.7853,17.864 58.1613,18.717 57.9473,18.014 C57.8273,17.616 58.2103,17.257 58.4823,17.121 C59.1193,16.8 59.9843,16.728 60.9803,16.584 C62.3763,16.385 63.5693,16.261 64.9393,16.336 C64.0153,16.631 62.8893,16.695 61.8353,16.907 M109.5053,16.373 C109.6613,16.031 109.8153,15.571 109.7533,15.122 C109.4773,13.055 105.9443,13.775 104.4033,14.265 C101.3723,15.229 99.1613,17.05 95.3043,17.05 C92.5743,17.05 90.5123,16.526 88.5603,15.872 C87.1093,15.383 85.6513,14.842 84.2793,14.231 C83.9453,14.081 83.6163,13.915 83.2763,13.797 C83.2653,13.791 83.2533,13.786 83.2403,13.784 C83.1763,13.763 83.1123,13.741 83.0473,13.722 C82.9943,13.705 82.9433,13.694 82.8933,13.686 C82.5133,13.605 82.1113,13.615 81.6753,13.801 C80.7433,14.205 80.1083,15.039 80.0513,16.326 L80.0513,16.315 C80.0513,16.315 79.9403,16.762 79.9593,17.005 C79.7843,16.811 79.2843,16.627 78.9273,16.477 C74.7393,14.75 68.0383,14.458 62.6563,15.195 C60.8693,15.439 57.9153,15.889 57.1263,17.05 C56.5543,17.897 56.8233,19.852 57.5903,20.224 C58.4053,20.618 59.6723,20.192 60.7663,20.404 C60.5233,26.981 60.7843,34.002 61.3373,40.171 C61.4253,41.154 61.6453,42.171 61.8013,43.131 C61.9613,44.131 61.8803,45.288 62.5863,45.807 C63.1093,45.94 63.5713,45.615 63.9073,45.38 C64.2763,45.115 64.6013,44.811 64.8693,44.521 C66.6663,42.599 66.1663,38.459 66.6533,35.28 C68.8143,37.176 71.0563,38.878 73.3973,40.705 C75.0493,41.996 76.6763,43.523 78.4633,44.771 C79.0033,45.151 79.7863,45.846 80.4613,45.841 C81.5663,45.837 82.0453,44.73 81.9593,43.595 C81.8483,42.12 81.0643,41.011 80.2823,40.062 C77.9313,37.202 74.6373,34.949 72.6833,32.034 C75.6053,29.836 78.7063,27.506 80.9253,24.469 C81.7803,23.298 82.6523,21.926 82.4943,20.081 C83.9983,20.968 85.8393,21.52 87.8093,21.939 C87.0833,26.979 85.9733,32.6 85.8843,38.42 C85.8543,40.474 85.9313,42.398 86.5613,43.914 C87.0943,45.188 88.1523,46.555 89.8813,46.555 C91.0763,46.555 92.0273,45.794 92.1633,44.771 C92.2303,44.281 92.1633,43.74 92.2003,43.236 C92.5893,37.869 93.1923,32.66 94.0193,27.789 C94.3293,25.974 94.7283,24.211 94.9473,22.402 C99.7353,22.297 104.1853,21.054 107.1833,18.903 C108.0943,18.253 109.0453,17.371 109.5053,16.373" id="Fill-52" fill="#FFFFFF"></path>
          <path d="M120.4211,18.7613 C120.3041,19.2723 120.2931,19.7873 119.9941,20.0823 C119.8441,19.4363 119.7461,17.0193 120.4581,17.0143 C120.7231,17.0113 120.8321,17.2733 120.8511,17.4063 C120.9001,17.7763 120.5371,18.2783 120.4211,18.7613 M119.0661,32.6763 C118.7951,33.7603 118.5551,34.9763 117.9611,35.4593 C117.8071,35.5853 117.1251,35.9253 116.8171,35.8523 C116.4781,35.7693 116.5211,35.2643 116.7111,35.0653 L116.7471,34.9273 C118.8031,33.7233 118.8801,30.5403 119.7071,28.1083 C119.7031,29.7133 119.4681,31.0773 119.0661,32.6763 M104.1871,24.3993 C103.2171,25.1843 102.7281,26.4963 102.2961,27.8603 C101.4281,30.6073 100.5581,33.2383 99.7991,36.0323 C99.4141,37.4483 99.1751,38.9003 98.7650414,40.3133 C98.7561,36.7783 99.7861,33.9203 100.7271,30.7843 C101.1521,29.3693 101.6371,27.8493 102.0821,26.3603 C102.5141,24.9213 103.3661,23.5363 104.7581,23.2923 C104.8461,23.2773 105.2691,23.2583 105.2951,23.5423 C105.3241,23.8653 104.4211,24.2113 104.1871,24.3993 M121.9921,16.3353 C121.6161,16.0783 120.4171,15.5683 119.9231,15.9423 C119.7411,16.0783 119.5301,16.3543 119.4231,16.5493 C118.1721,18.8363 118.7181,22.7943 118.4951,26.1483 C118.2671,29.6423 117.6661,32.5713 116.6741,34.9273 C114.3981,32.4083 112.0251,29.8953 109.8601,27.2173 C108.9521,26.0883 108.3381,25.0093 107.6131,23.6493 C107.5791,23.5903 107.5471,23.5283 107.5111,23.4613 C107.2081,22.8903 106.8121,22.1963 106.2931,22.0443 C105.7601,21.8863 105.2111,22.1193 104.7221,22.2963 C104.2751,22.4563 103.8051,22.5973 103.4731,22.7943 C103.0331,23.0553 102.7041,23.5113 102.3681,23.9363 C102.0351,24.3613 101.6331,24.8273 101.4411,25.2553 C101.1111,25.9963 100.9561,26.9093 100.6921,27.7533 C99.3971,31.9173 97.8991,35.8073 97.3371,40.7403 C97.1061,42.7833 97.1291,45.1293 97.9071,46.4843 C98.4311,47.3883 99.7541,48.1853 101.1911,47.9823 C103.2981,47.6873 103.2661,44.9833 103.6171,42.9873 C104.3621,38.7443 105.0891,35.1783 106.3651,31.5713 C108.1541,34.5533 110.0631,37.3123 111.9291,40.0633 C112.8291,41.3843 113.6881,42.8693 114.7121,44.3083 C115.2191,45.0113 115.7301,45.6273 116.3901,46.1633 C117.0041,46.6613 117.9501,47.1983 119.0301,47.0563 C120.1771,46.9033 120.9431,45.2953 121.3491,44.1643 C122.6461,40.5823 123.1511,36.5473 123.7041,32.3553 C124.0701,29.6063 124.2751,26.7143 124.2751,23.5063 C124.2751,20.5463 123.6981,17.4983 121.9921,16.3353" id="Fill-54" fill="#FFFFFF"></path>
        </g>
      </g>
    </g>
  </g>
</svg>
