<?xml version="1.0" encoding="UTF-8"?>
<svg xmlns="http://www.w3.org/2000/svg" xmlns:xlink="http://www.w3.org/1999/xlink" width="208px" height="63px" viewBox="0 0 208 63">
  <!-- Generator: Sketch 50.2 (55047) - http://www.bohemiancoding.com/sketch -->
  <title>Partners-logo-grey</title>
  <desc>Created with Sketch.</desc>
  <defs>
    <polygon id="path-1" points="0 0 40.0214168 0 40.0214168 42.6620234 0 42.6620234"></polygon>
  </defs>
  <g id="Design" stroke="none" stroke-width="1" fill="none" fill-rule="evenodd">
    <g id="home" transform="translate(-802.000000, -945.000000)">
      <g id="Partners-logo-grey" transform="translate(802.000000, 945.000000)">
        <path d="M11.1613788,57.8578074 C11.1613788,59.160278 11.1613788,60.1777761 11.2321228,60.7477212 C11.2745692,61.1395583 11.3585187,61.4382314 11.7820395,61.4930339 C11.9820092,61.5204351 12.2923395,61.5460096 12.4904227,61.5460096 C12.6734138,61.5460096 12.730009,61.5880248 12.730009,61.654701 C12.730009,61.7506053 12.6309674,61.7917069 12.4187354,61.7917069 C11.5283043,61.7917069 10.6388165,61.7506053 10.2718909,61.7506053 C9.9030789,61.7506053 9.0145343,61.7917069 8.47782317,61.7917069 C8.27973999,61.7917069 8.17881188,61.7643059 8.17881188,61.654701 C8.17881188,61.5880248 8.23540707,61.5460096 8.39293038,61.5460096 C8.60516237,61.5460096 8.77400471,61.5204351 8.9013439,61.4930339 C9.18337664,61.4382314 9.25412063,61.1395583 9.31071583,60.7477212 C9.38051658,60.1777761 9.38051658,59.160278 9.38051658,57.8578074 L9.38051658,55.4702491 C9.38051658,53.4087652 9.38051658,53.0297151 9.35316223,52.5967761 C9.32486463,52.1336957 9.21167424,51.9172262 8.7457071,51.8231487 C8.63251671,51.7957475 8.39293038,51.7820469 8.19390393,51.7820469 C8.05241593,51.7820469 7.95337434,51.7546457 7.95337434,51.6733555 C7.95337434,51.5637506 8.06656473,51.5381763 8.27973999,51.5381763 C8.64666551,51.5381763 9.05698069,51.55005 9.42296297,51.55005 C9.78988851,51.5637506 10.1153109,51.5774513 10.3143373,51.5774513 C10.8510484,51.5774513 13.7194817,51.5774513 14.0449041,51.5637506 C14.312788,51.55005 14.4825736,51.55005 14.6231184,51.510775 C14.7080112,51.4833738 14.7778119,51.4285714 14.8485559,51.4285714 C14.9051511,51.4285714 14.9475975,51.4833738 14.9475975,51.55005 C14.9475975,51.6459543 14.8768535,51.8094481 14.8353504,52.161097 C14.8202583,52.2981031 14.792904,53.0963913 14.7636631,53.2598853 C14.7504576,53.36949 14.7212167,53.449867 14.6231184,53.449867 C14.5240768,53.449867 14.4957792,53.381364 14.4825736,53.2333974 C14.4825736,53.1256194 14.4825736,52.9073231 14.3976808,52.7173414 C14.2986392,52.5282731 14.0024577,52.3245908 13.4638601,52.3118035 L11.288718,52.2697883 C11.2038252,52.2697883 11.1613788,52.3118035 11.1613788,52.45977 L11.1613788,55.8511259 C11.1613788,55.9305893 11.1755276,55.9716912 11.2594771,55.9716912 L13.0686369,55.9579906 C13.3082233,55.9579906 13.5063065,55.9579906 13.7034464,55.94429 C13.9732169,55.9305893 14.1713,55.8785271 14.312788,55.7004192 C14.383532,55.6200423 14.4108864,55.5661532 14.4957792,55.5661532 C14.5523744,55.5661532 14.580672,55.6072551 14.580672,55.6867186 C14.580672,55.7689222 14.509928,56.1086971 14.4674816,56.5279357 C14.4401272,56.7992075 14.4108864,57.423955 14.4108864,57.5180325 C14.4108864,57.6413378 14.4108864,57.7756037 14.2703416,57.7756037 C14.1854489,57.7756037 14.1571513,57.6824396 14.1571513,57.5865355 C14.1571513,57.4906313 14.1288537,57.3289641 14.0722585,57.1663836 C14.0024577,56.9754886 13.7902257,56.731618 13.3506697,56.6786422 C12.997893,56.6375404 11.5000067,56.6375404 11.2594771,56.6375404 C11.1896764,56.6375404 11.1613788,56.6649416 11.1613788,56.7581057 L11.1613788,57.8578074" id="Fill-1" fill="#BFBFBF" fill-rule="nonzero"></path>
        <path d="M17.0997536,55.4693358 C17.0997536,53.4078518 17.0997536,53.0269751 17.0714559,52.594036 C17.0431583,52.1327824 16.9299678,51.9163128 16.4649441,51.8204087 C16.3517536,51.7939208 16.1102808,51.7793069 15.9121976,51.7793069 C15.7575041,51.7793069 15.6726113,51.7546457 15.6726113,51.6587416 C15.6726113,51.5628373 15.7707096,51.5354361 15.9829416,51.5354361 C16.3659025,51.5354361 16.7752745,51.5491367 17.1280512,51.5491367 C17.4949766,51.5628373 17.8194557,51.5765379 18.017539,51.5765379 C18.4712439,51.5765379 21.2811954,51.5765379 21.551909,51.5628373 C21.819793,51.5354361 22.0452306,51.5089484 22.1584209,51.4833738 C22.229165,51.4678465 22.3131144,51.4285714 22.3848016,51.4285714 C22.4546025,51.4285714 22.4687512,51.4833738 22.4687512,51.5491367 C22.4687512,51.645041 22.3980073,51.8067081 22.3555609,52.4314555 C22.3423553,52.5666347 22.3131144,53.163981 22.2857601,53.3256482 C22.2706681,53.3941512 22.2433137,53.4763547 22.1442721,53.4763547 C22.0452306,53.4763547 22.0169329,53.4078518 22.0169329,53.286373 C22.0169329,53.1913823 22.0027842,52.9602987 21.9329834,52.7968049 C21.8339418,52.5529341 21.6924538,52.3903536 20.9850139,52.3090635 C20.7454275,52.2816623 19.2616901,52.2560877 18.9787141,52.2560877 C18.9079702,52.2560877 18.8806158,52.2953629 18.8806158,52.3903536 L18.8806158,55.8228113 C18.8806158,55.9168887 18.8938213,55.9716912 18.9787141,55.9716912 C19.2890445,55.9716912 20.9142698,55.9716912 21.238749,55.94429 C21.5802066,55.9168887 21.7914954,55.8757869 21.9178914,55.7406077 C22.0169329,55.6319163 22.0735282,55.5652399 22.1442721,55.5652399 C22.2008674,55.5652399 22.2433137,55.5908144 22.2433137,55.6730179 C22.2433137,55.7543083 22.1867185,55.9716912 22.1301234,56.6622016 C22.1159745,56.9343868 22.0735282,57.4769306 22.0735282,57.5719216 C22.0735282,57.6796996 22.0735282,57.8294928 21.9471322,57.8294928 C21.8480907,57.8294928 21.819793,57.7746904 21.819793,57.7071008 C21.8056442,57.5719216 21.8056442,57.3965538 21.7631978,57.2193594 C21.6924538,56.947174 21.4934274,56.7444051 20.970865,56.6896026 C20.7029811,56.6622016 19.3031932,56.648501 18.9645652,56.648501 C18.8938213,56.648501 18.8806158,56.7033032 18.8806158,56.7855069 L18.8806158,57.856894 C18.8806158,58.3181476 18.8664669,59.5658158 18.8806158,59.957653 C18.9079702,60.8947742 19.1343509,61.0984565 20.5756419,61.0984565 C20.9425674,61.0984565 21.5377603,61.0984565 21.9046857,60.935876 C22.2706681,60.7723822 22.4404536,60.4874096 22.5394952,59.9302518 C22.5677928,59.7822854 22.5960904,59.727483 22.695132,59.727483 C22.8073792,59.727483 22.8073792,59.8370877 22.8073792,59.9713536 C22.8073792,60.2837274 22.695132,61.207148 22.624388,61.4784199 C22.5253465,61.8300687 22.3980073,61.8300687 21.8622394,61.8300687 C20.8010794,61.8300687 20.0257252,61.8026675 19.4163837,61.7889669 C18.8089284,61.7615657 18.3722023,61.7496918 17.9467949,61.7496918 C17.7911582,61.7496918 17.4808279,61.7496918 17.1421999,61.7615657 C16.8177208,61.7615657 16.4507952,61.7889669 16.1659328,61.7889669 C15.9829416,61.7889669 15.8839,61.7496918 15.8839,61.6537876 C15.8839,61.5861979 15.9404953,61.5450961 16.1102808,61.5450961 C16.323456,61.5450961 16.4932417,61.5176949 16.6196376,61.4902938 C16.9026135,61.4373181 16.9724144,61.1395583 17.0290096,60.7468077 C17.0997536,60.1768627 17.0997536,59.1045623 17.0997536,57.856894 L17.0997536,55.4693358" id="Fill-3" fill="#BFBFBF" fill-rule="nonzero"></path>
        <path d="M27.8722434,56.85401 C27.8722434,58.2907464 27.8863922,59.3356456 27.900541,59.593217 C27.9146898,59.9329919 27.9429874,60.4755358 28.0552344,60.6235023 C28.2391689,60.8819869 28.7900289,61.1669596 29.9068407,61.1669596 C31.3481318,61.1669596 32.3102502,60.8956875 33.1563483,60.1905634 C34.059985,59.4443372 34.3439043,58.2112829 34.3439043,56.8129081 C34.3439043,55.0911991 33.5940178,53.9787103 32.987506,53.4224658 C31.6867596,52.2296 30.0756831,52.0670195 28.9749065,52.0670195 C28.6928737,52.0670195 28.1684249,52.1062945 28.0552344,52.161097 C27.9288385,52.2149861 27.8863922,52.2844025 27.8863922,52.4323688 C27.8722434,52.8927092 27.8722434,54.0746144 27.8722434,55.1460015 L27.8722434,56.85401 Z M26.1055299,55.3624711 C26.1055299,53.3009871 26.1055299,52.9201104 26.0781756,52.4871713 C26.0498779,52.0259177 25.9366876,51.8094481 25.4707204,51.713544 C25.3575301,51.6861428 25.1160572,51.6724422 24.9189173,51.6724422 C24.7632805,51.6724422 24.6783878,51.645041 24.6783878,51.5518769 C24.6783878,51.4559726 24.7774294,51.4285714 24.988718,51.4285714 C25.7395477,51.4285714 26.6280923,51.4696732 27.0252019,51.4696732 C27.4628715,51.4696732 28.3523593,51.4285714 29.2012872,51.4285714 C30.9670575,51.4285714 33.326134,51.4285714 34.8664665,52.9749127 C35.57202,53.680037 36.2370136,54.8062266 36.2370136,56.421071 C36.2370136,58.1290794 35.4871273,59.4315499 34.696681,60.2042638 C34.0477227,60.8408853 32.578134,61.8054075 29.9624926,61.8054075 C29.4550224,61.8054075 28.8758649,61.7643059 28.3382105,61.723204 C27.8014993,61.6821022 27.3072347,61.6410004 26.954458,61.6410004 C26.7978779,61.6410004 26.4875475,61.6410004 26.1479764,61.654701 C25.8234972,61.654701 25.4565717,61.6821022 25.1726524,61.6821022 C24.988718,61.6821022 24.8906197,61.6410004 24.8906197,61.5478363 C24.8906197,61.4793332 24.9462717,61.4382314 25.1160572,61.4382314 C25.3301758,61.4382314 25.4990181,61.4108302 25.6263573,61.383429 C25.90839,61.3304534 25.979134,61.0317803 26.0357292,60.6381163 C26.1055299,60.0681712 26.1055299,58.9976976 26.1055299,57.7500293 L26.1055299,55.3624711 Z" id="Fill-5" fill="#BFBFBF" fill-rule="nonzero"></path>
        <path d="M38.9709248,55.4693358 C38.9709248,53.4078518 38.9709248,53.0269751 38.9426272,52.594036 C38.9143297,52.1327824 38.8011393,51.9163128 38.3361154,51.8204087 C38.222925,51.7939208 37.9833386,51.7793069 37.7833689,51.7793069 C37.6286754,51.7793069 37.5437827,51.7546457 37.5437827,51.6587416 C37.5437827,51.5628373 37.641881,51.5354361 37.8541129,51.5354361 C38.2370738,51.5354361 38.6464457,51.5491367 38.9992224,51.5491367 C39.366148,51.5628373 39.6906271,51.5765379 39.8887103,51.5765379 C40.3424151,51.5765379 43.1523668,51.5765379 43.4230804,51.5628373 C43.6909643,51.5354361 43.9164018,51.5089484 44.0295923,51.4833738 C44.099393,51.4678465 44.1842858,51.4285714 44.2550298,51.4285714 C44.3257738,51.4285714 44.3399226,51.4833738 44.3399226,51.5491367 C44.3399226,51.645041 44.2691787,51.8067081 44.2267322,52.4314555 C44.2135267,52.5666347 44.1842858,53.163981 44.1569315,53.3256482 C44.1418395,53.3941512 44.1144851,53.4763547 44.0154436,53.4763547 C43.9164018,53.4763547 43.8881044,53.4078518 43.8881044,53.286373 C43.8881044,53.1913823 43.8739555,52.9602987 43.8041548,52.7968049 C43.7051132,52.5529341 43.5636251,52.3903536 42.8561851,52.3090635 C42.6165989,52.2816623 41.1328614,52.2560877 40.8498854,52.2560877 C40.7791414,52.2560877 40.7508438,52.2953629 40.7508438,52.3903536 L40.7508438,55.8228113 C40.7508438,55.9168887 40.7649927,55.9716912 40.8498854,55.9716912 C41.1602157,55.9716912 42.7854412,55.9716912 43.1099203,55.94429 C43.4513781,55.9168887 43.6626667,55.8757869 43.7890626,55.7406077 C43.8881044,55.6319163 43.9446994,55.5652399 44.0154436,55.5652399 C44.0720386,55.5652399 44.1144851,55.5908144 44.1144851,55.6730179 C44.1144851,55.7543083 44.0578899,55.9716912 44.0012947,56.6622016 C43.9871459,56.9343868 43.9446994,57.4769306 43.9446994,57.5719216 C43.9446994,57.6796996 43.9446994,57.8294928 43.8183035,57.8294928 C43.7192619,57.8294928 43.6909643,57.7746904 43.6909643,57.7071008 C43.6768156,57.5719216 43.6768156,57.3965538 43.6343691,57.2193594 C43.5636251,56.947174 43.3645987,56.7444051 42.8420364,56.6896026 C42.5741524,56.6622016 41.1743646,56.648501 40.8357366,56.648501 C40.7649927,56.648501 40.7508438,56.7033032 40.7508438,56.7855069 L40.7508438,57.856894 C40.7508438,58.3181476 40.7376383,59.5658158 40.7508438,59.957653 C40.7791414,60.8947742 41.0055222,61.0984565 42.4468132,61.0984565 C42.8137388,61.0984565 43.4089316,61.0984565 43.7758572,60.935876 C44.1418395,60.7723822 44.311625,60.4874096 44.4106666,59.9302518 C44.4389642,59.7822854 44.4672618,59.727483 44.5663034,59.727483 C44.6785505,59.727483 44.6785505,59.8370877 44.6785505,59.9713536 C44.6785505,60.2837274 44.5663034,61.207148 44.4946162,61.4784199 C44.3965179,61.8300687 44.2691787,61.8300687 43.7334108,61.8300687 C42.6722507,61.8300687 41.8968966,61.8026675 41.2875549,61.7889669 C40.6800998,61.7615657 40.2433735,61.7496918 39.8179663,61.7496918 C39.6623295,61.7496918 39.3519991,61.7496918 39.0133713,61.7615657 C38.6888921,61.7615657 38.3219666,61.7889669 38.0371041,61.7889669 C37.8541129,61.7889669 37.7550713,61.7496918 37.7550713,61.6537876 C37.7550713,61.5861979 37.8116666,61.5450961 37.9833386,61.5450961 C38.1946274,61.5450961 38.3634697,61.5176949 38.4908089,61.4902938 C38.7737849,61.4373181 38.8435856,61.1395583 38.9001808,60.7468077 C38.9709248,60.1768627 38.9709248,59.1045623 38.9709248,57.856894 L38.9709248,55.4693358" id="Fill-7" fill="#BFBFBF" fill-rule="nonzero"></path>
        <path d="M48.3578337,56.4329447 C48.3578337,56.5836514 48.3861312,56.6357137 48.4851729,56.6768155 C48.7813544,56.7727196 49.204875,56.8138215 49.5595383,56.8138215 C50.1245471,56.8138215 50.3075382,56.759019 50.5612734,56.5836514 C50.984794,56.2840649 51.3960525,55.6593175 51.3960525,54.5477419 C51.3960525,52.6223505 50.0679518,52.0651927 49.2331727,52.0651927 C48.880396,52.0651927 48.6266608,52.0788933 48.4851729,52.1199951 C48.3861312,52.1483097 48.3578337,52.2021988 48.3578337,52.3099768 L48.3578337,56.4329447 Z M46.6901618,55.3615576 C46.6901618,53.2991603 46.6901618,52.9210238 46.6628074,52.4853446 C46.6345098,52.0250044 46.5213195,51.8085348 46.0553523,51.7126305 C45.942162,51.6852295 45.700689,51.6733555 45.5035492,51.6733555 C45.3479123,51.6733555 45.2630196,51.6459543 45.2630196,51.55005 C45.2630196,51.4541459 45.3620612,51.4285714 45.5733498,51.4285714 C46.3232363,51.4285714 47.2127242,51.4678465 47.5117355,51.4678465 C47.9909081,51.4678465 49.0643304,51.4285714 49.5010567,51.4285714 C50.3924309,51.4285714 51.3404006,51.5089484 52.1016059,52.0113037 C52.4968292,52.268875 53.0637243,52.9593854 53.0637243,53.8691054 C53.0637243,54.8729028 52.6241684,55.7944967 51.1970261,56.9078989 C52.4543827,58.4268391 53.4306499,59.6343189 54.2635425,60.4737091 C55.0558753,61.261037 55.6340896,61.3569413 55.8453783,61.3980431 C56.001015,61.4245308 56.1283542,61.4373181 56.2406014,61.4373181 C56.354735,61.4373181 56.4103869,61.4775066 56.4103869,61.5460096 C56.4103869,61.6556143 56.3122886,61.6830156 56.1425031,61.6830156 L54.8021402,61.6830156 C54.0098074,61.6830156 53.6560874,61.6145125 53.2901051,61.4245308 C52.6807634,61.1130705 52.1440523,60.4737091 51.3536062,59.4297232 C50.7876541,58.683497 50.1386958,57.7628166 49.9547615,57.5591343 C49.8840174,57.477844 49.7991247,57.46323 49.7010264,57.46323 L48.471024,57.4367422 C48.40028,57.4367422 48.3578337,57.46323 48.3578337,57.5454337 L48.3578337,57.7354154 C48.3578337,58.9967841 48.3578337,60.0681712 48.4285777,60.6381163 C48.471024,61.030867 48.5549736,61.32954 48.9794375,61.383429 C49.1907263,61.4117437 49.5010567,61.4373181 49.6727288,61.4373181 C49.7859191,61.4373181 49.841571,61.4775066 49.841571,61.5460096 C49.841571,61.6419137 49.7434727,61.6830156 49.5595383,61.6830156 C48.738908,61.6830156 47.6928401,61.6419137 47.480608,61.6419137 C47.2127242,61.6419137 46.3232363,61.6830156 45.7572843,61.6830156 C45.5733498,61.6830156 45.4752515,61.6419137 45.4752515,61.5460096 C45.4752515,61.4775066 45.5309035,61.4373181 45.700689,61.4373181 C45.9119778,61.4373181 46.0836499,61.4117437 46.2109891,61.383429 C46.4930219,61.32954 46.5637658,61.030867 46.6203611,60.6381163 C46.6901618,60.0681712 46.6901618,58.9967841 46.6901618,57.7482025 L46.6901618,55.3615576 Z" id="Fill-9" fill="#BFBFBF" fill-rule="nonzero"></path>
        <path d="M60.93854,57.7619031 C61.009284,57.7619031 61.0234329,57.7208014 61.009284,57.6796996 L59.7368354,54.3303589 C59.7226865,54.2773834 59.7085378,54.2088803 59.6660913,54.2088803 C59.6236449,54.2088803 59.5953473,54.2773834 59.5821419,54.3303589 L58.2813955,57.6669123 C58.2672468,57.7208014 58.2813955,57.7619031 58.3379908,57.7619031 L60.93854,57.7619031 Z M58.0550147,58.4396262 C57.985214,58.4396262 57.9559732,58.4670275 57.9286188,58.5492311 L57.1655269,60.4874096 C57.0249821,60.8271847 56.9542381,61.1532589 56.9542381,61.3149261 C56.9542381,61.5597101 57.0815773,61.7350778 57.5192469,61.7350778 L57.7305357,61.7350778 C57.9003212,61.7350778 57.9427675,61.762479 57.9427675,61.8446827 C57.9427675,61.9533741 57.8578748,61.9807753 57.702238,61.9807753 C57.2504197,61.9807753 56.6420214,61.9396735 56.2043518,61.9396735 C56.048715,61.9396735 55.2733607,61.9807753 54.53668,61.9807753 C54.3536888,61.9807753 54.268796,61.9533741 54.268796,61.8446827 C54.268796,61.762479 54.3253912,61.7350778 54.4385815,61.7350778 C54.5649775,61.7350778 54.7630608,61.723204 54.8762511,61.7095034 C55.5270958,61.6272998 55.7949799,61.1669596 56.0779559,60.4874096 L59.6236449,51.9720286 C59.7934305,51.5774513 59.8773801,51.4285714 60.0188682,51.4285714 C60.1462074,51.4285714 60.2311001,51.55005 60.3735313,51.8624239 C60.7121592,52.6077366 62.9731374,58.1409532 63.8777173,60.2024371 C64.4144284,61.4245308 64.8238003,61.6135992 65.1199818,61.6821022 C65.3312706,61.723204 65.5453892,61.7350778 65.7142315,61.7350778 C65.8274219,61.7350778 65.8981659,61.7487784 65.8981659,61.8446827 C65.8981659,61.9533741 65.77177,61.9807753 65.2463779,61.9807753 C64.7389075,61.9807753 63.7069884,61.9807753 62.5779143,61.9533741 C62.3232359,61.9396735 62.1543935,61.9396735 62.1543935,61.8446827 C62.1543935,61.762479 62.2109887,61.7350778 62.3515336,61.723204 C62.4505751,61.6958028 62.5496167,61.5724973 62.4788726,61.4108302 L61.347912,58.5355305 C61.3196143,58.4670275 61.277168,58.4396262 61.206424,58.4396262 L58.0550147,58.4396262 Z" id="Fill-11" fill="#BFBFBF" fill-rule="nonzero"></path>
        <path d="M68.9566143,57.7482025 C68.9566143,59.4836122 68.9566143,60.4207334 69.2527958,60.6646042 C69.4933254,60.8682865 69.8621374,60.9641906 70.962914,60.9641906 C71.7128003,60.9641906 72.2627171,60.94775 72.6154938,60.5833139 C72.7852794,60.4070328 72.9550649,60.0270694 72.9833625,59.7685848 C72.9975114,59.6480195 73.0248658,59.5658158 73.1380561,59.5658158 C73.2370977,59.5658158 73.2512466,59.6343189 73.2512466,59.795986 C73.2512466,59.9466926 73.152205,60.9641906 73.0399578,61.3560279 C72.9550649,61.654701 72.884321,61.723204 72.1504699,61.723204 C71.1326996,61.723204 70.3979053,61.6958028 69.7612093,61.6821022 C69.1263998,61.654701 68.6179863,61.6410004 68.0397721,61.6410004 C67.8822487,61.6410004 67.5719185,61.6410004 67.2332905,61.654701 C66.9088114,61.654701 66.5409426,61.6821022 66.2570233,61.6821022 C66.0740323,61.6821022 65.9749907,61.6410004 65.9749907,61.5450961 C65.9749907,61.4784199 66.0315858,61.4364047 66.2032579,61.4364047 C66.4145466,61.4364047 66.5833891,61.4108302 66.7107281,61.383429 C66.9927609,61.3286267 67.063505,61.0299535 67.1201001,60.6381163 C67.1908442,60.0681712 67.1908442,58.9958707 67.1908442,57.7482025 L67.1908442,55.3606443 C67.1908442,53.2991603 67.1908442,52.9201104 67.1625466,52.4871713 C67.1342489,52.024091 67.0210585,51.8076214 66.5560347,51.713544 C66.4428443,51.6861428 66.2730587,51.6724422 66.0872377,51.6724422 C65.9325442,51.6724422 65.8476515,51.645041 65.8476515,51.5491367 C65.8476515,51.4541459 65.9466931,51.4285714 66.1579817,51.4285714 C66.8239186,51.4285714 67.7124632,51.4678465 68.095424,51.4678465 C68.4349953,51.4678465 69.4650278,51.4285714 70.0177742,51.4285714 C70.2149141,51.4285714 70.3130126,51.4541459 70.3130126,51.5491367 C70.3130126,51.645041 70.229063,51.6724422 70.0592775,51.6724422 C69.9045839,51.6724422 69.6763166,51.6861428 69.5065309,51.713544 C69.1263998,51.7802202 69.0132095,52.0103904 68.9849119,52.4871713 C68.9566143,52.9201104 68.9566143,53.2991603 68.9566143,55.3606443 L68.9566143,57.7482025" id="Fill-13" fill="#BFBFBF" fill-rule="nonzero"></path>
        <path d="M79.1781282,60.5824005 C77.7924892,59.416936 77.4265068,57.8979959 77.4265068,56.5818246 C77.4265068,55.658404 77.7226883,54.0600004 79.0790866,52.865308 C80.0959137,51.9711153 81.4381631,51.4285714 83.5425612,51.4285714 C84.4197868,51.4285714 84.9423491,51.4806336 85.5931938,51.5628373 C86.129905,51.6313404 86.5817233,51.7519057 87.0043008,51.7930075 C87.1599376,51.8067081 87.2184193,51.875211 87.2184193,51.9574147 C87.2184193,52.0642793 87.1740864,52.2286867 87.1457887,52.7027275 C87.1174911,53.1502804 87.13164,53.8955933 87.1033424,54.1668651 C87.0891935,54.3705474 87.0608961,54.4792388 86.9345001,54.4792388 C86.8213097,54.4792388 86.793012,54.3705474 86.793012,54.1805657 C86.7788633,53.7613274 86.5958721,53.2845463 86.2430954,52.9328975 C85.7771282,52.4588567 84.6744652,52.0916806 83.3737189,52.0916806 C82.145603,52.0916806 81.3391215,52.3903536 80.7184608,52.9328975 C79.6865417,53.8407908 79.4177146,55.1295607 79.4177146,56.445732 C79.4177146,59.6745072 81.973931,61.2729109 83.8698701,61.2729109 C85.1253403,61.2729109 85.8893754,61.138645 86.4543841,60.5138975 C86.6939705,60.2563262 86.8779049,59.8635756 86.9345001,59.6197049 C86.9769465,59.4032353 87.0043008,59.3484329 87.1174911,59.3484329 C87.2184193,59.3484329 87.2467169,59.441597 87.2467169,59.5521152 C87.2467169,59.7137823 87.0750448,60.8947742 86.9345001,61.3551144 C86.863756,61.5861979 86.8071609,61.6537876 86.5666313,61.7478651 C86.0025658,61.9643347 84.9282004,62.0602388 84.0245636,62.0602388 C82.0871214,62.0602388 80.4647256,61.6537876 79.1781282,60.5824005" id="Fill-15" fill="#BFBFBF" fill-rule="nonzero"></path>
        <path d="M92.1001764,56.4329447 C92.1001764,56.5836514 92.128474,56.6357137 92.2275156,56.6768155 C92.5236971,56.7727196 92.9472177,56.8138215 93.301881,56.8138215 C93.8668897,56.8138215 94.0498809,56.759019 94.303616,56.5836514 C94.7290233,56.2840649 95.1383952,55.6593175 95.1383952,54.5477419 C95.1383952,52.6223505 93.8093512,52.0651927 92.9755153,52.0651927 C92.6227386,52.0651927 92.3680602,52.0788933 92.2275156,52.1199951 C92.128474,52.1483097 92.1001764,52.2021988 92.1001764,52.3099768 L92.1001764,56.4329447 Z M90.4325044,55.3615576 C90.4325044,53.2991603 90.4325044,52.9210238 90.4051501,52.4853446 C90.3759094,52.0250044 90.2636622,51.8085348 89.797695,51.7126305 C89.6845047,51.6852295 89.4449183,51.6733555 89.2458918,51.6733555 C89.090255,51.6733555 89.0053623,51.6459543 89.0053623,51.55005 C89.0053623,51.4541459 89.1044039,51.4285714 89.3156925,51.4285714 C90.065579,51.4285714 90.9550669,51.4678465 91.2540781,51.4678465 C91.7332508,51.4678465 92.8057298,51.4285714 93.2452857,51.4285714 C94.1347736,51.4285714 95.0818,51.5089484 95.8439486,52.0113037 C96.2391718,52.268875 96.806067,52.9593854 96.806067,53.8691054 C96.806067,54.8729028 96.366511,55.7944967 94.9412553,56.9078989 C96.1967253,58.4268391 97.1729926,59.6343189 98.0058852,60.4737091 C98.798218,61.261037 99.3764322,61.3569413 99.587721,61.3980431 C99.7433578,61.4245308 99.8706969,61.4373181 99.9857739,61.4373181 C100.096135,61.4373181 100.154616,61.4775066 100.154616,61.5460096 C100.154616,61.6556143 100.056518,61.6830156 99.8848458,61.6830156 L98.5444829,61.6830156 C97.7512068,61.6830156 97.3984301,61.6145125 97.0324478,61.4245308 C96.4231061,61.1130705 95.886395,60.4737091 95.0959488,59.4297232 C94.5299968,58.683497 93.8800954,57.7628166 93.6971042,57.5591343 C93.6263601,57.477844 93.5414674,57.46323 93.4433691,57.46323 L92.2133667,57.4367422 C92.1426227,57.4367422 92.1001764,57.46323 92.1001764,57.5454337 L92.1001764,57.7354154 C92.1001764,58.9967841 92.1001764,60.0681712 92.1709203,60.6381163 C92.2133667,61.030867 92.2973163,61.32954 92.7208369,61.383429 C92.933069,61.4117437 93.2452857,61.4373181 93.4150714,61.4373181 C93.5273185,61.4373181 93.5839137,61.4775066 93.5839137,61.5460096 C93.5839137,61.6419137 93.4848721,61.6830156 93.301881,61.6830156 C92.4812507,61.6830156 91.4370693,61.6419137 91.2248372,61.6419137 C90.9550669,61.6419137 90.065579,61.6830156 89.499627,61.6830156 C89.3156925,61.6830156 89.2194808,61.6419137 89.2194808,61.5460096 C89.2194808,61.4775066 89.2732462,61.4373181 89.4449183,61.4373181 C89.6571503,61.4373181 89.8259926,61.4117437 89.9533318,61.383429 C90.2353645,61.32954 90.3061085,61.030867 90.3627037,60.6381163 C90.4325044,60.0681712 90.4325044,58.9967841 90.4325044,57.7482025 L90.4325044,55.3615576 Z" id="Fill-17" fill="#BFBFBF" fill-rule="nonzero"></path>
        <path d="M100.725764,55.4693358 C100.725764,53.4078518 100.725764,53.0269751 100.697466,52.594036 C100.669169,52.1327824 100.555978,51.9163128 100.090954,51.8204087 C99.9777639,51.7939208 99.7381775,51.7793069 99.5382078,51.7793069 C99.3825709,51.7793069 99.2976782,51.7546457 99.2976782,51.6587416 C99.2976782,51.5628373 99.3986064,51.5354361 99.6080085,51.5354361 C99.9919126,51.5354361 100.401285,51.5491367 100.754061,51.5491367 C101.120987,51.5628373 101.447352,51.5765379 101.645436,51.5765379 C102.096311,51.5765379 104.909092,51.5765379 105.176976,51.5628373 C105.44486,51.5354361 105.671241,51.5089484 105.784431,51.4833738 C105.854232,51.4678465 105.939125,51.4285714 106.009869,51.4285714 C106.080613,51.4285714 106.094761,51.4833738 106.094761,51.5491367 C106.094761,51.645041 106.024018,51.8067081 105.981571,52.4314555 C105.967422,52.5666347 105.939125,53.163981 105.910827,53.3256482 C105.896678,53.3941512 105.869324,53.4763547 105.770282,53.4763547 C105.671241,53.4763547 105.642943,53.4078518 105.642943,53.286373 C105.642943,53.1913823 105.628794,52.9602987 105.55805,52.7968049 C105.459952,52.5529341 105.318464,52.3903536 104.611024,52.3090635 C104.370494,52.2816623 102.886757,52.2560877 102.604724,52.2560877 C102.53398,52.2560877 102.505683,52.2953629 102.505683,52.3903536 L102.505683,55.8228113 C102.505683,55.9168887 102.519831,55.9716912 102.604724,55.9716912 C102.915055,55.9716912 104.54028,55.9716912 104.864759,55.94429 C105.205274,55.9168887 105.417506,55.8757869 105.543901,55.7406077 C105.642943,55.6319163 105.699538,55.5652399 105.770282,55.5652399 C105.826877,55.5652399 105.869324,55.5908144 105.869324,55.6730179 C105.869324,55.7543083 105.812729,55.9716912 105.756133,56.6622016 C105.741985,56.9343868 105.699538,57.4769306 105.699538,57.5719216 C105.699538,57.6796996 105.699538,57.8294928 105.572199,57.8294928 C105.474101,57.8294928 105.44486,57.7746904 105.44486,57.7071008 C105.431654,57.5719216 105.431654,57.3965538 105.389208,57.2193594 C105.318464,56.947174 105.120381,56.7444051 104.596875,56.6896026 C104.328048,56.6622016 102.929203,56.648501 102.590575,56.648501 C102.519831,56.648501 102.505683,56.7033032 102.505683,56.7855069 L102.505683,57.856894 C102.505683,58.3181476 102.491534,59.5658158 102.505683,59.957653 C102.53398,60.8947742 102.759418,61.0984565 104.201652,61.0984565 C104.568578,61.0984565 105.162827,61.0984565 105.529753,60.935876 C105.896678,60.7723822 106.066464,60.4874096 106.165505,59.9302518 C106.19286,59.7822854 106.222101,59.727483 106.320199,59.727483 C106.433389,59.727483 106.433389,59.8370877 106.433389,59.9713536 C106.433389,60.2837274 106.320199,61.207148 106.249455,61.4784199 C106.150413,61.8300687 106.024018,61.8300687 105.487306,61.8300687 C104.42709,61.8300687 103.650792,61.8026675 103.042394,61.7889669 C102.434939,61.7615657 101.998212,61.7496918 101.573748,61.7496918 C101.417168,61.7496918 101.106838,61.7496918 100.767267,61.7615657 C100.443731,61.7615657 100.076805,61.7889669 99.7938294,61.7889669 C99.6080085,61.7889669 99.5099101,61.7496918 99.5099101,61.6537876 C99.5099101,61.5861979 99.5665054,61.5450961 99.7381775,61.5450961 C99.9494662,61.5450961 100.118309,61.5176949 100.245648,61.4902938 C100.52768,61.4373181 100.598424,61.1395583 100.65502,60.7468077 C100.725764,60.1768627 100.725764,59.1045623 100.725764,57.856894 L100.725764,55.4693358" id="Fill-19" fill="#BFBFBF" fill-rule="nonzero"></path>
        <path d="M110.210771,56.85401 C110.210771,58.2907464 110.22492,59.3356456 110.239068,59.593217 C110.253217,59.9329919 110.281515,60.4755358 110.393762,60.6235023 C110.577696,60.8819869 111.128556,61.1669596 112.245368,61.1669596 C113.686659,61.1669596 114.645948,60.8956875 115.494876,60.1905634 C116.398512,59.4443372 116.682432,58.2112829 116.682432,56.8129081 C116.682432,55.0911991 115.932545,53.9787103 115.32509,53.4224658 C114.025287,52.2296 112.41421,52.0670195 111.311547,52.0670195 C111.029515,52.0670195 110.506952,52.1062945 110.393762,52.161097 C110.267366,52.2149861 110.22492,52.2844025 110.22492,52.4323688 C110.210771,52.8927092 110.210771,54.0746144 110.210771,55.1460015 L110.210771,56.85401 Z M108.444057,55.3624711 C108.444057,53.3009871 108.444057,52.9201104 108.416703,52.4871713 C108.387462,52.0259177 108.275215,51.8094481 107.807361,51.713544 C107.695114,51.6861428 107.454585,51.6724422 107.257445,51.6724422 C107.101808,51.6724422 107.016915,51.645041 107.016915,51.5518769 C107.016915,51.4559726 107.115957,51.4285714 107.327245,51.4285714 C108.077132,51.4285714 108.96662,51.4696732 109.361843,51.4696732 C109.801399,51.4696732 110.690887,51.4285714 111.539815,51.4285714 C113.305585,51.4285714 115.664661,51.4285714 117.204994,52.9749127 C117.910547,53.680037 118.575541,54.8062266 118.575541,56.421071 C118.575541,58.1290794 117.825655,59.4315499 117.035208,60.2042638 C116.384364,60.8408853 114.916661,61.8054075 112.30102,61.8054075 C111.79355,61.8054075 111.214392,61.7643059 110.676738,61.723204 C110.140027,61.6821022 109.645762,61.6410004 109.291099,61.6410004 C109.136405,61.6410004 108.825132,61.6410004 108.486504,61.654701 C108.162025,61.654701 107.793213,61.6821022 107.51118,61.6821022 C107.327245,61.6821022 107.228204,61.6410004 107.228204,61.5478363 C107.228204,61.4793332 107.284799,61.4382314 107.454585,61.4382314 C107.668703,61.4382314 107.837545,61.4108302 107.964885,61.383429 C108.246917,61.3304534 108.317661,61.0317803 108.374257,60.6381163 C108.444057,60.0681712 108.444057,58.9976976 108.444057,57.7500293 L108.444057,55.3624711 Z" id="Fill-21" fill="#BFBFBF" fill-rule="nonzero"></path>
        <path d="M121.126461,55.3624711 C121.126461,53.3009871 121.126461,52.9201104 121.098164,52.4871713 C121.069866,52.0259177 120.929321,51.7957475 120.618048,51.728158 C120.463354,51.6870561 120.27942,51.6724422 120.110577,51.6724422 C119.967203,51.6724422 119.88231,51.647781 119.88231,51.5381763 C119.88231,51.4559726 119.9955,51.4285714 120.220938,51.4285714 C120.759536,51.4285714 121.649023,51.4696732 122.060282,51.4696732 C122.413059,51.4696732 123.245951,51.4285714 123.783606,51.4285714 C123.96754,51.4285714 124.079787,51.4559726 124.079787,51.5381763 C124.079787,51.647781 123.995838,51.6724422 123.85435,51.6724422 C123.710975,51.6724422 123.598728,51.6870561 123.428942,51.713544 C123.047868,51.7820469 122.934678,52.0131304 122.90638,52.4871713 C122.878083,52.9201104 122.878083,53.3009871 122.878083,55.3624711 L122.878083,57.7500293 C122.878083,59.0643738 122.878083,60.1357609 122.934678,60.7194065 C122.977124,61.0865827 123.076166,61.3304534 123.499686,61.383429 C123.696826,61.4108302 124.009986,61.4382314 124.221275,61.4382314 C124.375969,61.4382314 124.447656,61.4793332 124.447656,61.546923 C124.447656,61.6428271 124.333522,61.6821022 124.178829,61.6821022 C123.245951,61.6821022 122.356463,61.6428271 121.972559,61.6428271 C121.649023,61.6428271 120.759536,61.6821022 120.19264,61.6821022 C120.009649,61.6821022 119.910608,61.6428271 119.910608,61.546923 C119.910608,61.4793332 119.967203,61.4382314 120.138875,61.4382314 C120.350164,61.4382314 120.519006,61.4108302 120.646345,61.383429 C120.929321,61.3304534 121.013271,61.1002832 121.055717,60.7066193 C121.126461,60.1357609 121.126461,59.0643738 121.126461,57.7500293 L121.126461,55.3624711" id="Fill-23" fill="#BFBFBF" fill-rule="nonzero"></path>
        <path d="M129.025975,52.3775665 L126.921577,52.4323688 C126.100004,52.45977 125.762319,52.5255331 125.550087,52.8242061 C125.409542,53.0269751 125.338798,53.1913823 125.310501,53.2991603 C125.282203,53.4078518 125.239757,53.4626541 125.154864,53.4626541 C125.056766,53.4626541 125.028468,53.3950646 125.028468,53.2461847 C125.028468,53.0269751 125.296352,51.7939208 125.32465,51.6861428 C125.367096,51.5089484 125.409542,51.4285714 125.493492,51.4285714 C125.606682,51.4285714 125.747227,51.5628373 126.100004,51.5911519 C126.511262,51.6322537 127.047973,51.6587416 127.51394,51.6587416 L133.109319,51.6587416 C133.563024,51.6587416 133.873354,51.6176397 134.084643,51.5911519 C134.295932,51.55005 134.409122,51.5217355 134.465717,51.5217355 C134.564759,51.5217355 134.578908,51.6039391 134.578908,51.8067081 C134.578908,52.0925939 134.536461,53.0269751 134.536461,53.381364 C134.522312,53.5156299 134.494015,53.5978334 134.409122,53.5978334 C134.295932,53.5978334 134.268577,53.5311572 134.253485,53.3265615 L134.239336,53.1776817 C134.211982,52.8242061 133.830908,52.4460694 132.572608,52.4186684 L130.792689,52.3775665 L130.792689,57.9372709 C130.792689,59.1849391 130.792689,60.2563262 130.86249,60.8408853 C130.904936,61.2199352 130.989829,61.5176949 131.41335,61.5724973 C131.610489,61.5998986 131.92365,61.6272998 132.134938,61.6272998 C132.289632,61.6272998 132.361319,61.6684016 132.361319,61.7350778 C132.361319,61.8309821 132.248129,61.8720839 132.092492,61.8720839 C131.159614,61.8720839 130.270127,61.8309821 129.873017,61.8309821 C129.548538,61.8309821 128.65905,61.8720839 128.092155,61.8720839 C127.909164,61.8720839 127.810122,61.8309821 127.810122,61.7350778 C127.810122,61.6684016 127.866717,61.6272998 128.038389,61.6272998 C128.249678,61.6272998 128.419464,61.5998986 128.54586,61.5724973 C128.828836,61.5176949 128.912785,61.2199352 128.955231,60.8262712 C129.025975,60.2563262 129.025975,59.1849391 129.025975,57.9372709 L129.025975,52.3775665" id="Fill-25" fill="#BFBFBF" fill-rule="nonzero"></path>
        <path d="M140.607545,55.3624711 C140.607545,53.3009871 140.607545,52.9201104 140.579247,52.4871713 C140.550949,52.0259177 140.437759,51.8094481 139.972735,51.713544 C139.857658,51.6870561 139.618072,51.6724422 139.419989,51.6724422 C139.265295,51.6724422 139.180402,51.647781 139.180402,51.5518769 C139.180402,51.4559726 139.278501,51.4285714 139.490733,51.4285714 C140.240619,51.4285714 141.130107,51.4696732 141.554571,51.4696732 C141.894142,51.4696732 142.782687,51.4285714 143.292987,51.4285714 C143.504276,51.4285714 143.603317,51.4559726 143.603317,51.5518769 C143.603317,51.647781 143.518424,51.6724422 143.375993,51.6724422 C143.220356,51.6724422 143.135463,51.6870561 142.966621,51.713544 C142.585547,51.7820469 142.472356,52.0131304 142.444059,52.4871713 C142.415761,52.9201104 142.415761,53.3009871 142.415761,55.3624711 L142.415761,57.2622879 C142.415761,59.2278676 142.825133,60.0562974 143.518424,60.5988412 C144.154177,61.1002832 144.803135,61.153259 145.285138,61.153259 C145.905798,61.153259 146.667947,60.9641906 147.234842,60.4216467 C148.01114,59.6754207 148.053586,58.4551537 148.053586,57.0567789 L148.053586,55.3624711 C148.053586,53.3009871 148.053586,52.9201104 148.025289,52.4871713 C147.996048,52.0259177 147.883801,51.8094481 147.417833,51.713544 C147.305586,51.6870561 147.065057,51.6724422 146.910363,51.6724422 C146.75284,51.6724422 146.667947,51.647781 146.667947,51.5518769 C146.667947,51.4559726 146.766989,51.4285714 146.964129,51.4285714 C147.685717,51.4285714 148.577092,51.4696732 148.589354,51.4696732 C148.761026,51.4696732 149.649571,51.4285714 150.200431,51.4285714 C150.397571,51.4285714 150.496612,51.4559726 150.496612,51.5518769 C150.496612,51.647781 150.413606,51.6724422 150.242877,51.6724422 C150.08724,51.6724422 150.002347,51.6870561 149.833505,51.713544 C149.452431,51.7820469 149.33924,52.0131304 149.311886,52.4871713 C149.282645,52.9201104 149.282645,53.3009871 149.282645,55.3624711 L149.282645,56.8129081 C149.282645,58.3181476 149.127952,59.9192913 147.940396,60.8956875 C146.937717,61.723204 145.919947,61.8729973 145.000275,61.8729973 C144.252275,61.8729973 142.895877,61.8328088 141.864901,60.9367894 C141.143313,60.3138687 140.607545,59.3100713 140.607545,57.3417514 L140.607545,55.3624711" id="Fill-27" fill="#BFBFBF" fill-rule="nonzero"></path>
        <path d="M153.202284,60.0672579 C153.230581,61.1258577 153.414516,61.4765932 153.696549,61.5724973 C153.936135,61.654701 154.205905,61.6684016 154.432286,61.6684016 C154.587923,61.6684016 154.672816,61.6958028 154.672816,61.7761796 C154.672816,61.884871 154.545477,61.9122722 154.347393,61.9122722 C153.428665,61.9122722 152.863656,61.8711706 152.595772,61.8711706 C152.468433,61.8711706 151.803439,61.9122722 151.069588,61.9122722 C150.885654,61.9122722 150.759258,61.8985716 150.759258,61.7761796 C150.759258,61.6958028 150.844151,61.6684016 150.984695,61.6684016 C151.167687,61.6684016 151.422365,61.654701 151.619505,61.5998986 C151.98643,61.4912072 152.043026,61.0984565 152.057174,59.9192913 L152.184514,51.8889116 C152.184514,51.6185531 152.22696,51.4285714 152.369391,51.4285714 C152.525028,51.4285714 152.650481,51.6039391 152.891954,51.8478099 C153.061739,52.024091 155.208584,54.2362815 157.270535,56.2018612 C158.232653,57.1234551 160.139912,59.0780744 160.379499,59.294544 L160.450242,59.294544 L160.309697,53.2050829 C160.295549,52.3775665 160.16821,52.1199951 159.829582,51.9829892 C159.618293,51.9035257 159.276835,51.9035257 159.079694,51.9035257 C158.909909,51.9035257 158.853314,51.8624239 158.853314,51.7802202 C158.853314,51.6724422 159.008951,51.6587416 159.22024,51.6587416 C159.956921,51.6587416 160.634177,51.6998434 160.930359,51.6998434 C161.085051,51.6998434 161.62365,51.6587416 162.315997,51.6587416 C162.498988,51.6587416 162.639532,51.6724422 162.639532,51.7802202 C162.639532,51.8624239 162.555584,51.9035257 162.385799,51.9035257 C162.24431,51.9035257 162.132063,51.9035257 161.963221,51.943714 C161.567997,52.0514921 161.45292,52.3364647 161.440658,53.095478 L161.283135,61.654701 C161.283135,61.9533741 161.22654,62.0739394 161.10203,62.0739394 C160.944507,62.0739394 160.774721,61.9259729 160.620027,61.7761796 C159.730539,60.9614506 157.922323,59.1849391 156.452735,57.7893043 C154.911459,56.3251667 153.343772,54.6281187 153.089093,54.3705474 L153.046647,54.3705474 L153.202284,60.0672579" id="Fill-29" fill="#BFBFBF" fill-rule="nonzero"></path>
        <path d="M166.155343,55.3624711 C166.155343,53.3009871 166.155343,52.9201104 166.127046,52.4871713 C166.098748,52.0259177 165.958204,51.7957475 165.646929,51.728158 C165.492237,51.6870561 165.309246,51.6724422 165.13946,51.6724422 C164.996084,51.6724422 164.911192,51.647781 164.911192,51.5381763 C164.911192,51.4559726 165.02627,51.4285714 165.251707,51.4285714 C165.788418,51.4285714 166.677906,51.4696732 167.089164,51.4696732 C167.44194,51.4696732 168.274833,51.4285714 168.812487,51.4285714 C168.996423,51.4285714 169.108669,51.4559726 169.108669,51.5381763 C169.108669,51.647781 169.024719,51.6724422 168.883232,51.6724422 C168.739857,51.6724422 168.627609,51.6870561 168.457824,51.713544 C168.07675,51.7820469 167.963561,52.0131304 167.936205,52.4871713 C167.906964,52.9201104 167.906964,53.3009871 167.906964,55.3624711 L167.906964,57.7500293 C167.906964,59.0643738 167.906964,60.1357609 167.963561,60.7194065 C168.006007,61.0865827 168.105048,61.3304534 168.528568,61.383429 C168.726652,61.4108302 169.038869,61.4382314 169.250158,61.4382314 C169.405794,61.4382314 169.476538,61.4793332 169.476538,61.546923 C169.476538,61.6428271 169.363347,61.6821022 169.207712,61.6821022 C168.274833,61.6821022 167.385346,61.6428271 167.004271,61.6428271 C166.677906,61.6428271 165.788418,61.6821022 165.224353,61.6821022 C165.038532,61.6821022 164.93949,61.6428271 164.93949,61.546923 C164.93949,61.4793332 164.996084,61.4382314 165.167757,61.4382314 C165.379046,61.4382314 165.548831,61.4108302 165.67617,61.383429 C165.958204,61.3304534 166.042153,61.1002832 166.0846,60.7066193 C166.155343,60.1357609 166.155343,59.0643738 166.155343,57.7500293 L166.155343,55.3624711" id="Fill-31" fill="#BFBFBF" fill-rule="nonzero"></path>
        <path d="M179.621938,57.0019765 C179.621938,53.9640962 177.799574,52.07798 175.482942,52.07798 C173.855831,52.07798 172.007054,52.9475115 172.007054,56.3251667 C172.007054,59.1456639 173.62945,61.383429 176.344134,61.383429 C177.331719,61.383429 179.621938,60.9221754 179.621938,57.0019765 M170.057351,56.7444051 C170.057351,54.4253499 171.652391,51.4285714 175.892315,51.4285714 C179.410649,51.4285714 181.599941,53.3941512 181.599941,56.5005344 C181.599941,59.6069176 179.339906,62.0611521 175.750828,62.0611521 C171.694837,62.0611521 170.057351,59.1456639 170.057351,56.7444051" id="Fill-33" fill="#BFBFBF" fill-rule="nonzero"></path>
        <path d="M185.366714,60.0672579 C185.395012,61.1258577 185.578003,61.4765932 185.860036,61.5724973 C186.100566,61.654701 186.370336,61.6684016 186.596716,61.6684016 C186.751411,61.6684016 186.836303,61.6958028 186.836303,61.7761796 C186.836303,61.884871 186.708964,61.9122722 186.511824,61.9122722 C185.592152,61.9122722 185.028087,61.8711706 184.759259,61.8711706 C184.632863,61.8711706 183.96787,61.9122722 183.233075,61.9122722 C183.050084,61.9122722 182.922745,61.8985716 182.922745,61.7761796 C182.922745,61.6958028 183.007638,61.6684016 183.148182,61.6684016 C183.332117,61.6684016 183.585853,61.654701 183.783936,61.5998986 C184.150861,61.4912072 184.207457,61.0984565 184.223491,59.9192913 L184.348001,51.8889116 C184.348001,51.6185531 184.390448,51.4285714 184.533822,51.4285714 C184.689459,51.4285714 184.815854,51.6039391 185.055441,51.8478099 C185.225226,52.024091 187.372071,54.2362815 189.434967,56.2018612 C190.397084,57.1234551 192.304343,59.0780744 192.543929,59.294544 L192.614673,59.294544 L192.473184,53.2050829 C192.459979,52.3775665 192.33264,52.1199951 191.993069,51.9829892 C191.78178,51.9035257 191.441266,51.9035257 191.243183,51.9035257 C191.07434,51.9035257 191.017746,51.8624239 191.017746,51.7802202 C191.017746,51.6724422 191.173381,51.6587416 191.38467,51.6587416 C192.120408,51.6587416 192.797664,51.6998434 193.093845,51.6998434 C193.251368,51.6998434 193.78808,51.6587416 194.479484,51.6587416 C194.662476,51.6587416 194.803964,51.6724422 194.803964,51.7802202 C194.803964,51.8624239 194.720014,51.9035257 194.550228,51.9035257 C194.408741,51.9035257 194.29555,51.9035257 194.126708,51.943714 C193.731485,52.0514921 193.616407,52.3364647 193.604146,53.095478 L193.449452,61.654701 C193.449452,61.9533741 193.39097,62.0739394 193.266461,62.0739394 C193.108938,62.0739394 192.939151,61.9259729 192.783516,61.7761796 C191.894971,60.9614506 190.08581,59.1849391 188.616222,57.7893043 C187.075889,56.3251667 185.50726,54.6281187 185.253524,54.3705474 L185.211078,54.3705474 L185.366714,60.0672579" id="Fill-35" fill="#BFBFBF" fill-rule="nonzero"></path>
        <path d="M194.525163,8.67702506 C194.817572,7.30513808 195.809875,6.29586038 197.017238,5.54963425 C198.261389,4.78057378 200.055457,4.08549654 201.896687,4.27913174 C202.249465,4.31566667 202.882388,4.43075173 203.217243,4.63808752 C203.238937,4.65178811 203.263462,4.66731547 203.281383,4.68466956 C203.331376,4.7212045 203.371936,4.75682606 203.400234,4.80158137 C203.424759,4.84268317 203.44268,4.88378498 203.44268,4.92854027 C203.469091,5.24274076 202.841828,5.46012364 202.501313,5.5825157 C201.331679,6.0026675 199.870579,6.17438172 198.69906,6.5260305 C197.021011,7.02929929 195.829683,7.89974423 194.525163,8.67702506 M204.420833,5.29023617 C204.451018,7.12063665 201.646726,7.31244508 200.078096,7.7006288 C199.335755,7.88421688 198.640578,8.12626085 198.059533,8.38474555 C197.374732,8.68889892 196.836135,9.14010543 196.240941,9.36205518 C195.771202,9.53833627 195.441062,9.59679217 194.99679,9.39402326 C195.111867,8.71812687 195.971171,8.53636554 196.545611,8.28701458 C197.139862,8.02944327 197.763352,7.71067592 198.431175,7.50334013 C199.833793,7.06857436 201.545798,7.03751966 202.570171,6.2986005 C202.938982,6.03189545 203.134236,5.6409716 203.44268,5.35234557 C203.565304,5.25278787 203.690755,5.1587104 203.814322,5.06006607 C203.963356,4.99887004 204.105788,4.92854027 204.218977,4.83354944 C204.227467,4.66183522 204.116163,4.60520607 204.015235,4.5385298 C203.575679,4.21610896 203.254972,3.70644656 202.737126,3.52925209 C201.448643,3.07804559 199.805495,3.40229319 198.598132,3.82153162 C197.334172,4.26451775 196.258862,4.91483968 195.535387,5.5167528 L195.503316,5.5167528 C195.202419,5.75879678 194.916613,6.01362799 194.660992,6.2986005 C193.874318,7.02929929 193.585684,8.07967881 193.146128,9.06977566 C192.716947,10.0397783 192.217022,11.0097809 191.833119,12.0327593 C191.057764,14.1161642 190.506904,16.355756 189.981512,18.6830316 C189.909825,16.8243166 190.283354,15.0085301 190.756866,13.3708514 C191.226606,11.74596 191.787843,10.2160594 192.507545,8.90536843 C192.908428,8.18106326 193.220645,7.53165471 193.684725,6.95074918 C195.033577,5.25826811 197.055912,4.07910294 199.574398,3.42878102 C199.714942,3.43700138 199.833793,3.42330077 199.910196,3.36484487 L199.945097,3.36484487 C200.129975,3.36849836 200.293157,3.3566245 200.414836,3.30090872 L200.448794,3.30090872 C201.051533,3.27259414 201.739165,3.23788596 202.333413,3.30090872 L202.368314,3.30090872 C202.53527,3.36484487 202.749389,3.3876792 202.938982,3.42878102 C203.368163,3.59136149 204.362351,4.02430053 204.420833,4.47368029 C204.440641,4.61433981 204.293494,4.66731547 204.285949,4.83354944 C204.284061,4.96598859 204.420833,5.15323015 204.420833,5.29023617 M207.989161,7.30787821 C207.848617,5.42084859 206.716712,4.2042351 205.328243,3.42878102 C203.91808,2.64510657 201.874049,2.35191367 199.741355,2.74557764 C197.428496,3.17760331 195.271277,4.42892498 193.819609,5.90676328 C193.612095,6.11957931 193.432877,6.34974943 193.241396,6.57261256 C193.202722,6.61554111 193.164991,6.6602964 193.126319,6.70505171 C191.990642,8.06415145 191.118133,9.62602013 190.453139,11.4472868 C190.132432,12.3241254 189.838138,13.2511995 189.570254,14.2312492 C189.559879,14.2668708 189.549502,14.301579 189.543843,14.3372006 C189.223136,15.485311 188.966571,16.6617362 188.793013,17.8838298 C188.763772,18.0929924 188.730758,18.3039816 188.70529,18.5186243 C188.448725,20.4531494 188.39213,22.8407076 188.771318,24.6446204 C188.890168,25.2191323 189.007132,25.9489177 189.511772,26.1462063 C189.771166,25.9215165 189.74287,25.578088 189.813612,25.2967689 C190.994566,20.5846753 194.106358,18.1130865 198.160461,16.1721679 C200.29976,15.1482762 202.602241,14.4093571 204.58779,13.2082709 C206.521458,12.0391529 208.226861,10.4617569 207.989161,7.30787821 M190.690839,34.0962092 C190.467287,34.0943824 190.428614,33.9144479 190.251283,33.8696926 C189.813612,33.4458873 189.33727,33.061357 188.535505,32.9892005 C188.70529,32.8129194 189.225024,32.8521945 189.511772,32.8914695 C190.08527,33.0220819 191.043615,33.5783264 190.690839,34.0962092 M188.063878,37.0948144 C187.805427,37.3131106 187.640357,37.6291379 187.392282,37.8108992 C187.115908,38.0145815 186.665034,37.9807867 186.3481,38.1059189 C186.211328,38.1588945 186.112287,38.3516162 185.944389,38.3653168 C185.222799,38.4219461 184.999248,37.0162643 185.069992,36.2472037 C185.077538,36.1732205 185.164318,35.7302344 185.13602,35.9549242 C185.103949,36.7258114 185.261473,37.3094571 185.607647,37.7140815 L185.607647,37.7095147 C185.607647,37.7113415 185.609534,37.7140815 185.609534,37.7168217 C185.621795,37.7451363 185.690654,37.8949295 185.786865,37.920504 C185.793467,37.920504 185.801013,37.9241574 185.807617,37.9241574 C185.817993,37.9323778 185.834028,37.937858 185.853836,37.9433382 C185.940615,37.9634326 186.094366,37.9634326 186.146244,37.9753063 C186.360363,37.9223307 186.42639,37.6821135 186.583914,37.5496744 C186.8235,37.3505589 187.152695,37.2939298 187.424353,37.1276958 C187.668655,36.9769891 187.876172,36.739512 188.131792,36.573278 C188.63832,36.245377 189.129755,35.9722783 189.543843,35.5311189 C189.724947,35.3411372 189.884357,35.0059292 190.219212,35.0424642 C190.289012,36.0654424 188.753397,36.5184757 188.063878,37.0948144 M186.817841,34.3245526 C187.162128,34.0057852 187.654507,33.7016319 188.163863,33.6413492 C188.79773,33.5682793 189.567424,33.8696926 189.611758,34.2907578 C189.660807,34.7319172 189.075989,35.0543379 188.737361,35.2360992 C188.291202,35.4781433 187.856363,35.6151493 187.525281,35.8233985 C186.815954,36.2746049 186.371682,36.8902187 186.031167,37.6200041 C185.968913,37.7095147 185.855722,37.8428672 185.763284,37.8328202 C185.742533,37.8209462 185.720837,37.8108992 185.699142,37.7917183 C185.662356,37.7506165 185.635945,37.6702397 185.619909,37.5378005 C185.701972,36.2554241 186.035884,35.0488577 186.817841,34.3245526 M188.509094,32.2685488 C188.480796,32.2758559 188.454385,32.288643 188.434577,32.3041704 C188.456272,32.288643 188.480796,32.2758559 188.509094,32.2685488 M188.606249,32.2475413 C188.579838,32.249368 188.5572,32.2548482 188.535505,32.2603284 C188.553427,32.256675 188.571349,32.2511947 188.591157,32.2475413 C188.460988,32.2667221 188.331763,32.274029 188.198764,32.3041704 C187.007435,32.567222 186.117947,33.1472141 185.506718,33.8030163 C184.892661,34.4670389 184.321992,35.3886326 184.226724,36.6399544 C184.027697,39.302438 185.55954,41.0013127 187.424353,41.7237912 C190.967213,43.0938514 194.079947,40.6944192 194.459136,37.7451363 C194.624204,36.4773739 194.267655,35.2260522 193.54984,34.259703 C192.605643,32.9873738 190.837986,31.9150733 188.606249,32.2475413" id="Fill-37" fill="#BFBFBF" fill-rule="nonzero"></path>
        <path d="M176.948132,32.4175761 C176.244465,33.7976834 174.840904,34.887338 173.482619,35.6098165 C172.532763,36.1149119 171.46783,36.5697719 170.317061,36.9141138 C169.173838,37.2557154 167.891014,37.6146712 166.548764,37.4685315 C167.043972,37.1305833 167.655201,37.0977018 168.197571,36.9469953 C171.446134,36.0528026 174.617353,34.5941451 176.240692,32.0915018 C176.524611,31.656736 176.783062,31.1096252 177.183945,30.7232683 L177.249972,30.7232683 C177.469751,31.3361419 177.19432,31.9334882 176.948132,32.4175761 M161.701386,31.7654275 C160.788316,32.158178 159.558315,32.8587355 159.044241,33.5912611 C158.903697,33.7876363 158.804654,34.2762911 158.572614,34.2762911 C158.416977,34.2762911 158.280206,34.0086728 158.270773,33.8177777 C158.228326,33.0697247 159.13951,32.400222 159.64981,32.0586204 C160.308201,31.6192877 161.110908,31.1936556 161.869284,31.1114521 C162.13151,31.0858775 162.507867,31.0767438 162.71161,31.2448045 C162.507867,31.5900598 162.04473,31.6192877 161.701386,31.7654275 M175.927531,29.3997901 C175.944511,29.4344982 175.962432,29.4701198 175.97658,29.5048281 C175.962432,29.4701198 175.944511,29.4344982 175.927531,29.3997901 M161.062802,20.4249823 C160.905279,20.7291355 160.854343,21.2232707 160.524205,21.3054742 C160.064841,20.6926006 160.494021,19.9975235 160.793033,19.5134354 C161.716477,18.0292036 163.354908,17.0354533 164.967871,16.2855736 C167.232623,15.2315406 169.826569,14.330041 172.740279,14.1364058 C173.098715,14.1117447 173.484505,14.0706429 173.81653,14.1683738 C173.580718,14.4040242 173.214734,14.4021975 172.910064,14.4624801 C170.59532,14.9054663 168.413575,15.5092061 166.447836,16.3522499 C164.31231,17.2665368 162.052275,18.5178584 161.062802,20.4249823 M182.365235,26.909934 C180.303284,23.7578821 174.524914,23.9917057 169.980319,23.097513 C168.615432,22.8280678 166.690252,22.400609 166.784577,20.9127237 C166.818535,20.3491723 167.206212,19.9363275 167.691987,19.6047728 C167.988169,19.4056574 168.31925,19.2394234 168.63524,19.0896302 C169.790725,18.5370392 171.38105,18.0355972 172.708208,18.600062 C173.643915,19.0001196 174.310795,19.6477013 175.367239,20.0340584 C176.371804,20.3994077 177.643309,20.2450476 178.66391,19.9682954 C179.272307,19.8038882 179.833544,19.5965524 180.381574,19.3490282 C181.347464,18.9115224 182.649154,18.279468 182.802904,17.1021295 C182.932131,16.1102058 181.655909,15.2242336 181.087128,14.8196091 C179.500574,13.6934196 177.550871,12.9672877 175.097469,12.8631631 C173.871239,12.8129276 172.550685,13.087853 171.528199,13.2869684 C168.580532,13.8687874 165.846983,14.831483 163.552992,16.1549612 C162.542768,16.7404336 161.376906,17.5122341 160.524205,18.5023311 C159.772432,19.380083 158.90181,20.8286933 159.246098,22.4453644 C159.262133,22.5220878 159.29043,22.5860238 159.313068,22.6581804 C159.313068,22.6636606 159.314955,22.6682275 159.31684,22.671881 C159.413996,23.0098293 159.56869,23.3002819 159.763944,23.5578533 C159.776205,23.5733806 159.788467,23.5889079 159.80073,23.6053487 C160.334612,24.2940323 161.151469,24.7708133 162.004169,25.1178953 C163.292654,25.6412581 164.905616,25.970986 166.380865,26.2577853 C167.484471,26.4751682 168.738055,26.6468824 169.971831,26.8560449 C170.010504,26.8615251 170.042575,26.8651787 170.076531,26.8752258 C170.203871,26.8971468 170.32838,26.9181543 170.451946,26.9391619 L170.451946,26.9409886 C170.462321,26.9409886 170.466096,26.9409886 170.471754,26.9455555 C170.512315,26.9455555 170.542499,26.9537759 170.572682,26.9629096 C170.599093,26.9629096 170.620788,26.9693032 170.643427,26.9747836 C170.843396,27.010405 171.040536,27.0524202 171.23862,27.0916953 C171.246165,27.0916953 171.256541,27.0953489 171.260314,27.0980889 C171.588566,27.1656786 171.912103,27.2341816 172.224319,27.318212 C172.246014,27.3218654 172.270539,27.3282591 172.292233,27.3364795 C173.405272,27.6214519 174.399461,27.9995885 175.129539,28.5403057 C175.899234,29.1084239 176.318982,30.1514965 175.870936,31.2758592 C175.567209,32.0467464 175.0371,32.7025486 174.373993,33.2651868 C174.351355,33.2825407 174.331546,33.3017216 174.308908,33.319989 C174.296647,33.3300363 174.290987,33.3355165 174.280612,33.3473903 C174.190059,33.4195468 174.092904,33.4953568 173.994806,33.5675134 C173.925948,33.6150088 173.862749,33.6615908 173.798609,33.7081728 C172.83932,34.3776756 171.687609,34.8973851 170.518918,35.3184503 C168.865394,35.9139698 165.724361,36.7478798 163.857663,35.8710413 C163.41339,35.6627921 163.109663,35.3869534 162.979494,34.9905492 C162.771978,34.3502743 163.014395,33.7355741 163.284164,33.4268537 C163.661465,32.9975683 164.405693,32.8359011 165.135771,32.6459194 C165.825289,32.4668983 166.542162,32.1508711 166.481793,31.3726768 C166.437461,30.7744172 165.813027,30.5670814 165.371583,30.397194 C164.473607,30.0537655 163.588835,29.9542077 162.748397,30.0400649 C162.642753,30.0364114 162.548427,30.0400649 162.47391,30.0674662 C162.470138,30.0674662 162.470138,30.0674662 162.470138,30.0729464 C161.844761,30.1569767 161.24768,30.3405649 160.692105,30.5917425 C159.433804,31.1607741 158.081179,32.1033756 157.496362,33.1026063 C156.887021,34.1420252 157.300165,35.4052208 157.796317,36.3615229 C158.792392,38.2786937 160.472326,39.5592433 162.71161,40.2049984 C166.102606,41.1813947 170.205758,40.3301306 172.875164,39.4560322 C175.657762,38.548139 178.41772,37.1223629 180.312717,35.1878379 C181.222012,34.2625905 182.139798,33.126354 182.635949,31.7014913 C183.157568,30.2062989 183.258496,28.267207 182.365235,26.909934" id="Fill-39" fill="#BFBFBF" fill-rule="nonzero"></path>
        <path d="M127.603433,20.5714286 C127.603433,20.5714286 127.603433,20.5732553 127.601547,20.5732553 C127.603433,20.5732553 127.603433,20.5714286 127.603433,20.5714286" id="Fill-41" fill="#DA2246" fill-rule="nonzero"></path>
        <path d="M145.731078,26.2769055 C145.380188,26.3901639 144.821782,26.4678005 144.585968,26.2431107 C144.692556,25.8238723 145.188707,25.6886929 145.497151,25.5270259 C146.533787,24.9945291 147.47138,24.3341601 148.390109,23.6372562 C149.325816,22.930305 150.174744,22.2297475 150.880298,21.323681 C151.193458,20.9172299 151.433044,20.4194412 151.858451,20.0842332 C152.364035,20.0294308 151.932968,21.0971644 151.858451,21.2597449 C151.378335,22.2662825 150.358679,23.0883186 149.568232,23.7349871 C148.733453,24.4200172 147.727002,25.0977403 146.741302,25.6886929 C146.398901,25.8960287 146.048011,26.1736943 145.731078,26.2769055 M144.821782,17.7724849 C146.204591,17.8665625 147.926972,17.9167979 149.19942,18.3022415 C149.251299,18.317769 149.306008,18.3369498 149.360717,18.3543039 C149.539935,18.4145866 149.705004,18.4794361 149.862527,18.5598129 C149.918179,18.5872141 149.976661,18.6137019 150.034199,18.6456699 C150.26341,18.7762825 150.459607,18.9288157 150.612414,19.1060103 C151.390598,20.0193837 150.300197,21.0076538 149.63709,21.6497553 C148.076006,23.1604752 146.05367,24.5058743 144.049257,25.4621764 C144.307709,22.8955969 144.568047,20.3381511 144.821782,17.7724849 M124.426759,15.9786194 C123.253352,16.1932622 121.640389,16.3978578 120.995204,17.0874549 C120.807496,17.288397 120.628278,18.0766384 120.321721,18.0638511 C119.965171,18.0501505 120.049121,17.4500641 120.119865,17.2162404 C120.52735,15.8790616 122.454416,15.884542 124.024933,15.6525451 C127.289533,15.1721106 130.914455,14.7857537 134.355443,14.6103859 C134.413925,14.6003388 134.420528,14.635047 134.422414,14.6761488 C131.302132,15.0606791 127.599863,15.400454 124.426759,15.9786194 M125.059682,33.35555 C125.04742,33.3071411 125.037987,33.2523389 125.027611,33.1957096 L125.027611,33.1838358 C125.035157,33.2459451 125.045533,33.3053145 125.059682,33.35555 M125.004973,32.8815092 C125.004973,32.9043436 125.00686,32.9262644 125.00686,32.9518389 C125.00686,32.9262644 125.004973,32.9043436 125.004973,32.8815092 M120.591491,24.5825976 C120.305685,24.8657434 120.103829,25.5096718 119.716152,24.9077586 C119.672762,24.2857512 120.184949,23.9541967 120.557534,23.6683108 C121.085756,23.2700799 121.557382,22.8773294 121.970527,22.3658403 C122.178043,22.1100957 122.317645,21.8269499 122.710981,21.7456596 C123.342018,23.2445055 121.335718,23.8518989 120.591491,24.5825976 M129.140196,34.4232836 C130.418304,34.2250815 131.821865,34.0177457 133.279191,34.0981227 C132.351973,34.412323 131.336089,34.4972669 130.317376,34.6854217 C129.825941,34.7731056 129.323187,34.8516558 128.837411,34.9758746 C128.174304,35.1475888 127.585714,35.4526556 126.817906,35.2708941 C127.266895,34.7283504 128.239389,34.5621164 129.140196,34.4232836 M157.170854,21.2277769 C157.158592,21.2478711 157.144443,21.2670519 157.130294,21.2871461 C157.144443,21.2670519 157.158592,21.2478711 157.170854,21.2277769 M157.580225,20.6012027 C157.576452,20.6094229 157.571737,20.6149033 157.56985,20.6212969 C157.571737,20.6149033 157.576452,20.6094229 157.580225,20.6012027 M149.095662,28.557599 C151.984847,26.3901639 155.106072,24.2912315 157.140669,21.3565625 C157.49722,20.8432467 157.814152,20.2906557 158.044307,19.6777821 C158.129199,19.457659 158.200886,19.2366227 158.251823,19.0082792 C158.273517,18.9205955 158.301815,18.8383918 158.31785,18.7488813 C158.521592,17.6299988 158.189568,16.6380751 157.511368,15.9137699 C156.327585,14.6450941 154.31374,13.9637175 152.193306,13.534432 C148.974926,12.8822833 145.112304,12.6849946 141.459084,13.0128957 C140.865777,13.0676981 140.271528,13.0923592 139.677278,13.1142802 L139.646151,13.1142802 C139.553712,13.1161069 139.46316,13.1179337 139.374494,13.1225005 C139.362232,13.1225005 139.351856,13.1225005 139.34431,13.1243273 C138.809485,13.1380279 138.279377,13.1517285 137.754928,13.1773029 C132.752856,13.4029062 128.140347,13.9089151 123.787233,14.6761488 C122.672308,14.8716108 121.289499,15.0332779 120.456606,15.4899646 C119.990639,15.7438824 119.602018,16.3339216 119.345454,16.8280568 C119.293575,16.9294413 119.244525,17.0289989 119.204909,17.1303834 C119.192647,17.1596113 119.176611,17.1888394 119.170008,17.2162404 C119.143597,17.2765231 119.121903,17.3368057 119.105867,17.3980019 C119.063421,17.5203939 119.035123,17.6418725 119.008712,17.7606111 C118.930422,18.1497083 118.930422,18.5159709 119.003053,18.855746 C119.004939,18.8758401 119.004939,18.8931943 119.008712,18.9123751 C119.020974,18.963524 119.033237,19.0137596 119.045499,19.0594283 C119.057761,19.1096637 119.073797,19.1571592 119.091718,19.2037413 C119.125675,19.2950785 119.162462,19.3809357 119.204909,19.4686196 C119.635976,20.3244505 120.563194,20.9154031 121.702643,21.0642829 C121.583794,21.4588603 121.55361,21.937468 121.432873,22.3329588 C121.181024,22.4772718 120.901822,22.6206715 120.619789,22.7722914 C120.614129,22.7750316 120.607526,22.7759449 120.601867,22.7777716 C120.520747,22.8234403 120.442457,22.8618021 120.364167,22.9083841 C119.57938,23.3449767 118.823835,23.8674262 118.6399,24.71321 C118.426725,25.6832127 119.033237,26.6888369 119.446382,27.1546574 C119.522785,27.2432546 119.70672,27.373867 119.889711,27.5163533 C119.891597,27.51818 119.8982,27.5218335 119.901973,27.5218335 C120.034972,27.6487925 120.17646,27.7684443 120.316061,27.875309 C120.321721,27.8798759 120.321721,27.8798759 120.325494,27.8817027 C120.378316,27.9401585 120.414159,27.992221 120.422649,28.0378895 C120.470755,28.2370049 120.305685,28.6799912 120.25475,29.0142859 C119.97932,30.8446863 119.756712,32.4558771 119.54731,34.1949403 C119.430346,35.1832104 119.188873,36.1787875 119.446382,36.965202 C119.811421,38.0649037 120.672611,38.8357909 121.668686,39.57197 C122.666648,40.3081489 123.698568,40.9383767 124.898386,41.2352231 C125.819944,41.4617397 126.65378,41.0772094 127.424418,40.7785364 C127.985654,40.5593268 128.545946,40.3081489 129.005311,40.0944195 C131.093673,39.139031 132.97735,38.1662881 134.961012,36.9989969 C135.789188,36.5130821 137.238969,35.8700671 137.318202,34.8470889 C137.355932,34.363001 137.051261,33.8962671 136.848462,33.6743173 C136.537188,33.3400226 135.906152,32.9043436 135.398681,32.795652 C134.709163,32.6449455 133.646117,32.8038724 132.807565,32.8906429 C131.182339,33.066924 129.707091,33.2852203 128.26297,33.6423493 C127.500822,33.8286775 126.770743,34.2342153 126.077452,34.1310041 C125.648272,34.0661546 125.184191,33.6039875 125.102128,33.3171884 C124.990824,32.9326581 125.081377,32.4366963 125.102128,32.012891 C125.170986,30.5761545 125.311531,29.5687035 125.504898,28.266233 C127.565906,27.8899231 129.742935,27.373867 131.731312,26.8642047 C133.092427,26.5152959 135.648644,25.9389572 134.62427,24.0939429 C133.581976,22.2078267 129.510894,22.6471592 126.783949,22.5613022 C126.981089,21.8707918 127.158421,21.1638407 127.381972,20.5016449 C127.078244,21.0524092 127.01316,21.8415639 126.749049,22.4306898 C127.01316,21.8415639 127.078244,21.0505823 127.381972,20.5016449 L127.381972,20.4998182 C127.385745,20.4925112 127.390461,20.4824641 127.394234,20.4742437 C130.884271,19.8476695 134.358273,19.205568 137.823786,18.5534194 C137.711539,24.3825689 137.837934,30.7204675 138.428411,36.2153224 C138.529339,37.1451366 138.686862,37.9224175 138.832123,38.8887666 C138.950973,39.6614805 139.046242,41.0205803 139.638605,41.1712869 C140.049863,41.2708447 140.511114,40.9602977 140.817671,40.7447414 C141.182711,40.4935637 141.529828,40.2432994 141.761868,39.9976021 C143.378604,38.2658458 142.980551,34.4178034 143.408788,31.558031 C143.972854,31.8795385 144.410523,32.3818938 144.924596,32.795652 C146.517751,34.0762017 148.130714,35.2571935 149.769145,36.4774605 C151.340605,37.6447519 152.846038,39.0677877 154.550496,40.1903238 C155.077775,40.5401458 155.772009,41.16672 156.43323,41.1712869 C157.10011,41.1731137 157.662289,40.665278 157.814152,40.0304835 C158.156553,38.5882667 157.269895,37.1296093 156.602072,36.2819986 C154.376938,33.4478008 151.00575,31.3762697 149.095662,28.557599" id="Fill-43" fill="#BFBFBF" fill-rule="nonzero"></path>
        <path d="M49.1008261,25.7907507 C48.4556409,26.4447261 46.9275705,26.5579844 45.8711269,26.4757807 C46.2257901,26.0994708 46.7700473,26.1131715 47.2152628,25.9213631 C47.6614217,25.7286412 47.9764682,25.4025669 48.292458,25.1057205 C48.5471364,24.8737236 49.5630202,23.7310934 49.5724528,24.8125276 C49.5743393,25.185184 49.2743847,25.6153829 49.1008261,25.7907507 M47.2869501,20.5178455 C47.3067584,20.4867908 47.3293964,20.4612164 47.3548642,20.4301616 C47.7000949,21.8842522 48.0906018,23.4598216 48.3933862,24.8463224 C47.1350863,25.0353908 45.8088722,25.1660032 44.5911321,25.398 C45.350451,23.7621482 46.3229452,22.0614468 47.2869501,20.5178455 M41.3265325,24.2909914 C39.9031632,27.4932789 38.6165657,30.773203 37.4554209,34.2641165 C37.265827,34.8413685 37.0809493,35.4295811 36.9168233,36.0251005 C36.7659028,36.5868252 36.7140239,37.2307536 36.312198,37.7194084 C36.1131715,36.4059773 36.5480113,35.1190341 36.9168233,33.9380422 C38.0043944,30.4781835 39.3268355,27.1882121 40.7219071,23.9649171 C42.315062,20.2913289 44.0223503,16.5446708 45.8711269,12.984341 C46.1654218,12.4198762 46.4399086,11.8554114 46.8124936,11.4535271 C46.8407912,11.4471334 46.8464507,11.4644875 46.8464507,11.4845818 C47.0567962,12.7806587 46.2154143,13.8346917 45.7013412,14.8403159 C44.1459166,17.8937235 42.7640505,21.0686098 41.3265325,24.2909914 M46.5427232,9.20388815 C46.5851696,8.83123178 46.9841657,8.5754872 47.2501632,8.87781382 C47.6029399,9.27604467 47.0567962,9.76835297 46.9134217,10.0825535 C46.7219413,9.91449273 46.5040498,9.5710643 46.5427232,9.20388815 M56.201637,35.5017376 C55.5347568,30.9741451 54.8169411,26.7689737 54.0142326,22.4660712 C53.5029892,19.7058565 52.9379805,16.6972042 52.2644976,14.0904363 C51.6089367,11.5448644 50.2987578,9.03217394 48.1255021,7.99823515 C47.8953484,7.88589021 47.6255779,7.77537202 47.3510913,7.73609697 C45.3287563,7.44747094 45.3995002,10.0889471 45.6673841,11.7777746 C43.2441664,16.06789 41.1454278,20.868581 39.0731004,25.7907507 C38.0826844,28.1390339 37.0988712,30.6033155 36.2112698,33.2210439 C35.8047277,34.4276103 35.3283847,35.8214182 35.1010607,37.2289269 C34.8727935,38.6464825 34.8143117,40.9701046 36.0443139,41.1728735 C36.6291311,41.2706045 37.1856505,40.8641534 37.5242784,40.5545197 C38.6373174,39.530628 39.1070575,37.7988718 39.6456551,36.3822296 C40.4238391,34.3344462 41.2746535,32.3990078 42.1669712,30.5485132 C44.3817299,30.0525514 47.2058303,29.9749146 49.7403518,29.8963645 C50.5289117,32.7077281 50.5402306,36.4479924 52.3654257,38.1432138 C52.7681949,38.5158701 53.4624293,38.8693456 54.08309,39.2164276 C54.5707519,39.4904396 55.5385299,40.0795655 56.1356092,39.7397905 C56.5883708,39.4803925 56.5987466,38.6117742 56.5044212,37.7194084 C56.4299041,36.9795759 56.298792,36.1337921 56.201637,35.5017376" id="Fill-45" fill="#BFBFBF" fill-rule="nonzero"></path>
        <g id="Group-49" transform="translate(0.234137, 0.063995)">
          <g id="Fill-47-Clipped">
            <mask id="mask-2" fill="white">
              <use xlink:href="#path-1"></use>
            </mask>
            <g id="path-1"></g>
            <path d="M16.5277845,11.3687346 C16.3202688,12.9461306 15.8967479,14.3262379 15.5864176,15.8314774 C15.4694542,16.4114696 15.4373836,17.0206897 15.1487481,17.5266986 C15.0563093,15.3556099 15.5317089,13.4868477 15.99013,11.8235946 C16.116526,11.3705613 16.0542713,10.7987895 16.4617567,10.4882426 C16.7296405,10.7184127 16.5645713,11.1011162 16.5277845,11.3687346 M14.1385238,24.1760577 C13.8866752,24.3413782 13.5442742,24.4199283 13.1631999,24.5331866 C12.7896716,24.6482717 12.4651925,24.9250239 12.2218331,24.9250239 C11.9879063,24.9250239 11.7879366,24.7578766 11.7841636,24.5989496 C11.7719013,24.216246 12.3727537,24.1486565 12.6915733,24.0116504 C13.6650107,23.5997189 14.2253031,22.5730871 14.8789776,21.8606559 C15.0864934,22.8498393 14.8044606,23.7440319 14.1385238,24.1760577 M26.3564838,24.4025742 C29.1409675,23.7595593 31.6877513,22.6333698 33.1526237,20.7198523 C33.7402705,19.9571855 34.1128555,19.0164108 34.6325881,18.0162669 C34.642964,17.9815586 34.7014456,17.9943459 34.7014456,17.950504 C34.7297432,17.9459371 34.7363459,17.9632911 34.7363459,17.9833854 C34.7637003,17.9906923 34.7684166,18.0162669 34.8023737,18.0162669 C34.780679,20.6221214 33.1092341,22.3520508 31.3368611,23.328447 C29.5277012,24.3240241 27.1488164,24.8218127 24.6388195,24.8254661 C25.1830766,24.5605878 25.7943048,24.5331866 26.3564838,24.4025742 M32.3301069,20.7436 C32.379156,20.7024982 32.4216023,20.6559162 32.4574461,20.6029406 C32.5074385,20.5426579 32.5687499,20.491509 32.6149693,20.4275728 C32.5036654,20.5782795 32.3687802,20.7024982 32.2461573,20.841331 C32.2744549,20.8102764 32.3046389,20.7764815 32.3301069,20.7436 M8.21489313,1.68971575 C7.44519844,1.81484793 6.70097159,1.97468829 5.96146101,2.1464025 C4.41924188,2.50170478 3.0798222,3.03602827 1.88849328,3.51463598 C1.78567867,3.5557378 1.33197384,3.57126514 1.28198142,3.31917406 C1.22349971,3.02232768 1.81020325,2.82138551 2.09034949,2.69899346 C4.35415739,1.71711696 7.39426276,1.14625854 10.5720831,1.29696516 C9.81182095,1.54905624 8.99402034,1.56458359 8.21489313,1.68971575 M36.587009,24.7925847 C38.5018132,23.1275049 39.7233262,20.7673477 39.9864938,17.8189781 C40.2722995,14.585636 38.7819594,12.1852905 37.1595636,10.3238353 C35.5607494,8.49069473 33.4978544,6.95074703 31.3708182,5.66380379 C29.2032222,4.36041983 26.8101886,3.25067105 24.2011499,2.34186443 C20.4696399,1.03665372 15.9391944,-0.200967356 10.7399822,0.0273760154 C9.11664327,0.0986191472 7.48387182,0.215530954 6.02748874,0.613761794 C4.2975622,1.0923695 2.51387022,1.48237998 1.08012521,2.30806961 C0.65283147,2.55650719 0.039716829,2.94651767 0.00292995058,3.41690503 C-0.0404597009,4.03434551 0.406642361,4.38690766 0.775454398,4.66639995 L0.777340904,4.66639995 C0.799978984,4.68649416 0.822617062,4.70384827 0.844311888,4.71937561 C1.63098514,5.32220212 2.73553474,5.91772162 3.97496957,5.95882344 C4.65882821,5.97891765 5.36060867,5.90036753 5.89260351,5.66380379 C6.56231336,5.36787079 6.93489841,4.68466742 7.54235353,4.39330128 C8.11679479,4.11928924 8.91950333,4.05991996 9.77786384,4.09280139 C10.7192306,4.12750959 11.7294549,4.26999586 12.5906451,4.36224658 C16.9833757,4.82441356 20.6167874,5.94694957 23.8983657,7.45858269 C25.4368118,8.1646204 27.0101583,9.05515955 28.4410735,10.1018856 C28.4797469,10.1311135 28.5174771,10.1585147 28.5561503,10.1877427 C29.0183445,10.5311711 29.4673331,10.8864734 29.8908538,11.2609565 C29.8974567,11.2691769 29.9050027,11.2746571 29.9106621,11.2810507 C30.1144049,11.4609853 30.3106015,11.6464001 30.505855,11.8318149 C31.0727502,12.3862327 31.5924828,12.9698783 32.0424145,13.5845787 C32.6913729,14.463244 33.4195645,15.632362 33.5242655,16.8434953 C33.5865202,17.571454 33.5204924,18.2208625 33.3525934,18.8072482 C33.2441193,19.1388029 33.1092341,19.4530033 32.9715191,19.7516765 C32.9696326,19.7580701 32.9658595,19.7598968 32.9611433,19.765377 C32.1612645,21.2395619 30.6265913,22.1766831 28.9796712,22.7411478 C26.3140373,23.6563482 22.9296445,23.7504256 19.3547145,23.5567904 C19.1868155,20.8787793 18.9792998,18.3596953 18.6491611,15.7364866 C18.4190072,13.9006059 18.1407475,11.9469 17.6728938,10.2909539 C17.6587451,10.2407183 17.6445964,10.1895694 17.6285609,10.1329403 C17.6087527,10.0644373 17.5861146,9.98862726 17.5606468,9.91464401 C17.4144425,9.45339039 17.1993808,8.9848298 16.7984981,8.98939667 C16.3061199,8.99670364 15.9873002,9.77398449 15.7882738,10.1621682 C14.0687231,13.5571775 13.6404861,18.2738381 13.5338984,23.1329851 C12.2963501,23.1412055 11.1125672,23.3732024 10.7739393,24.3048432 C10.2881639,25.6493291 11.7436037,26.8467617 12.5906451,27.3701246 C12.7698633,27.4788162 13.0849099,27.5865942 13.3141204,27.703506 C13.3631696,27.7272537 13.4065592,27.7482613 13.4433461,27.7738357 C13.5197497,27.8231579 13.5744583,27.8715668 13.5999262,27.9236291 C13.6631242,28.0588083 13.6244508,28.4625194 13.6348266,28.7712396 C13.7376412,32.0694313 14.0262767,35.089044 14.3743371,38.0894759 C14.5016763,39.1791305 14.5677041,40.3391148 14.8440773,41.2835429 C15.0346144,41.9183376 15.4373836,42.572313 16.1250152,42.6536033 C17.3003089,42.7906093 18.2699733,41.2196069 18.7151888,40.5674582 C19.3669768,39.6202899 19.7980435,38.6247128 19.8602982,37.277487 C19.9272693,35.8307033 19.725413,34.421368 19.725413,33.005639 C19.725413,31.5844299 19.6244849,30.168701 19.6244849,28.7045634 C26.8347131,29.1265419 32.8951155,28.0076594 36.587009,24.7925847" id="Fill-47" fill="#BFBFBF" fill-rule="nonzero" mask="url(#mask-2)"></path>
          </g>
        </g>
        <path d="M32.6098566,20.7467963 C32.5730697,20.7997719 32.5296801,20.846354 32.4825174,20.8874558 C32.4561064,20.9203372 32.4259222,20.9523053 32.3976247,20.9833601 C32.5211909,20.846354 32.6560761,20.7212218 32.76738,20.5714286 C32.7211606,20.6353648 32.6579626,20.6846868 32.6098566,20.7467963" id="Fill-50" fill="#DA2246" fill-rule="nonzero"></path>
        <path d="M98.7468744,13.8076005 C96.5292858,14.6195896 94.4729937,16.114782 91.4102502,15.9257136 C92.135612,15.5494038 92.9298313,15.4534996 93.6665122,15.2096288 C95.7369532,14.5218586 97.7630611,13.1070431 100.160811,12.8631723 C100.460766,12.8312043 100.863535,12.7727484 101.102178,12.9599899 C100.381532,13.4230703 99.5297746,13.522628 98.7468744,13.8076005 M71.9905514,21.1072814 C71.5104355,22.0818509 70.5303954,22.864612 69.7022189,23.5185875 C69.1419265,23.9652271 68.5391876,24.4283075 67.8855131,24.8557663 C67.2459874,25.273178 66.5772209,25.8129817 65.933922,26.0605058 C65.5688831,26.1984253 64.9859525,26.3043766 64.6878845,26.026711 C64.8812513,25.6284802 65.3311832,25.4823405 65.6641516,25.3106263 C67.3837024,24.4255673 69.1032531,23.1276635 70.4445592,21.7594301 C70.6982944,21.5018587 70.9859867,21.2050123 71.218027,20.878938 C71.4925137,20.4898409 71.6519235,20.0550752 72.0594089,19.8678336 C72.0867632,19.8632667 72.0933661,19.8815342 72.0933661,19.900715 C72.3678527,20.2834186 72.1556208,20.7775536 71.9905514,21.1072814 M64.9236978,17.58714 C66.6253267,17.6300685 68.4137349,17.7689013 69.6701484,18.2730835 C70.0229251,18.4128297 70.4605947,18.6146851 70.7407409,18.9261455 C70.7548896,18.9361927 70.7624356,18.9480665 70.7690385,18.9617671 C70.871853,19.0978597 70.9501431,19.2467397 70.9963625,19.4047533 C71.0208871,19.5061376 71.0284331,19.6193961 71.0152276,19.739048 C70.9482566,20.3985037 70.1861079,21.0954076 69.736176,21.5310868 C68.2137652,23.008925 66.0405097,24.3305765 64.2181442,25.2795715 C64.3577458,22.7513536 64.7586285,20.1957347 64.9236978,17.58714 M59.000067,14.5574802 C58.0370054,14.7447217 56.9862213,14.93379 56.341036,15.3073598 C56.1231445,15.4315786 55.5345545,16.2106862 55.3326982,15.5685846 C55.2195079,15.205062 55.5807739,14.8771609 55.8373388,14.7529421 C56.4381912,14.4597492 57.2541053,14.3939863 58.1935855,14.2624605 C59.5103671,14.0806992 60.6356683,13.9674409 61.9279253,14.0359439 C61.0563593,14.3053891 59.9942561,14.363845 59.000067,14.5574802 M103.964952,14.0697387 C104.112099,13.757365 104.25736,13.3372132 104.198878,12.9271085 C103.938541,11.0391655 100.606027,11.6967944 99.1524732,12.1443474 C96.2934725,13.0248395 94.2079395,14.6880926 90.5698116,14.6880926 C87.9947301,14.6880926 86.0497418,14.2094849 84.2085114,13.6121386 C82.8398509,13.165499 81.4645875,12.6713639 80.170444,12.1132927 C79.8553975,11.9762867 79.5450671,11.8246667 79.224361,11.7168886 C79.2139851,11.7114084 79.2026661,11.7068415 79.1904039,11.7050148 C79.1300356,11.6858339 79.0696674,11.6657397 79.008356,11.6483856 C78.9583635,11.6328583 78.9102577,11.6228112 78.863095,11.6155042 C78.5046586,11.5415209 78.1254709,11.5506546 77.7142124,11.7205421 C76.8351003,12.089545 76.2361345,12.8512985 76.1823691,14.0268102 L76.1823691,14.0167631 C76.1823691,14.0167631 76.077668,14.425041 76.0955898,14.6469908 C75.9305205,14.4697963 75.4588938,14.3017356 75.1221524,14.1647296 C71.1718075,12.5873336 64.8510673,12.3206285 59.774478,12.9937848 C58.0888844,13.2166479 55.3025142,13.627666 54.5582874,14.6880926 C54.0187464,15.4617199 54.2724815,17.2473651 54.9959569,17.58714 C55.7647083,17.9470092 56.9598102,17.5579121 57.9917292,17.7515472 C57.7625188,23.7588046 58.0087079,30.1716 58.5303269,35.8062009 C58.6133332,36.7040471 58.8208489,37.6329479 58.9679965,38.5097865 C59.118917,39.4231599 59.0425135,40.4799331 59.7084503,40.9539739 C60.2017718,41.0754525 60.6375548,40.7786061 60.9544879,40.5639634 C61.3025484,40.3219195 61.6091057,40.0442539 61.8618976,39.7793756 C63.5569237,38.0238718 63.0852971,34.2425056 63.5446615,31.3388912 C65.5830318,33.0706473 67.6978057,34.625209 69.9059617,36.2939423 C71.4642161,37.4731075 72.9988892,38.8678289 74.6844828,40.0077189 C75.1938396,40.3548009 75.932407,40.9895955 76.569103,40.9850286 C77.6113979,40.9813751 78.0632162,39.9702706 77.9820964,38.9335918 C77.8773952,37.5863659 77.1378847,36.5734347 76.4002606,35.7066432 C74.1826722,33.094395 71.0755958,31.0365646 69.2324788,28.374081 C71.9886649,26.366486 74.9136934,24.2383258 77.0067724,21.4644104 C77.8132541,20.3948501 78.6357709,19.1417017 78.4867368,17.4565276 C79.9053898,18.2666898 81.6419192,18.7708721 83.5001282,19.1535755 C82.8153262,23.7569779 81.7683151,28.8910503 81.6843655,34.206884 C81.6560679,36.0829531 81.7286984,37.8402838 82.3229481,39.2249579 C82.825702,40.3885957 83.823664,41.6371772 85.454549,41.6371772 C86.5817366,41.6371772 87.4787706,40.9421001 87.6070529,40.0077189 C87.6702509,39.560166 87.6070529,39.066031 87.6419534,38.6056906 C88.0088789,33.7036151 88.5776605,28.9458527 89.3577312,24.4968104 C89.6501396,22.8390375 90.0264977,21.22876 90.2330701,19.5764675 C94.7493668,19.4805633 98.9468441,18.34524 101.774717,16.3805736 C102.634021,15.7868808 103.531055,14.9812855 103.964952,14.0697387" id="Fill-52" fill="#BFBFBF" fill-rule="nonzero"></path>
        <path d="M113.473087,15.5529897 C113.362727,16.0197236 113.352351,16.4901109 113.070318,16.7595561 C112.92883,16.1695168 112.836391,13.9618931 113.507988,13.9573262 C113.75795,13.9545861 113.860765,14.19389 113.878686,14.3153686 C113.924906,14.6533168 113.582505,15.1118303 113.473087,15.5529897 M112.194979,28.2625818 C111.939358,29.2526786 111.712977,30.3633408 111.152684,30.8045002 C111.007423,30.9195853 110.364125,31.2301323 110.073603,31.1634559 C109.75384,31.0876459 109.7944,30.6263924 109.973618,30.4446311 L110.007575,30.3185854 C111.946904,29.2188839 112.019534,26.3116159 112.799605,24.0902917 C112.795832,25.5562562 112.574167,26.8020976 112.194979,28.2625818 M98.1603135,20.7025894 C97.2453578,21.4195877 96.7841068,22.6179337 96.3766214,23.863775 C95.5578777,26.3728121 94.7372472,28.7758976 94.021318,31.3278632 C93.6581655,32.6212 93.432728,33.9474183 93.0458843,35.2380151 C93.0375048,32.0092399 94.0090557,29.3988183 94.896657,26.5344791 C95.2975397,25.2420557 95.7550176,23.853728 96.1747653,22.4937148 C96.5822507,21.1793704 97.3859025,19.914348 98.698911,19.6914849 C98.7819173,19.6777843 99.1809135,19.6604303 99.2054382,19.9198284 C99.2327925,20.214848 98.3810346,20.5308752 98.1603135,20.7025894 M114.954938,13.3371456 C114.600275,13.1024086 113.469314,12.6365882 113.003347,12.9781899 C112.831675,13.1024086 112.632649,13.3544997 112.531721,13.5326076 C111.351711,15.6214927 111.866727,19.2366249 111.656382,22.3000796 C111.44132,25.4914067 110.874425,28.1666776 109.938717,30.3185854 C107.791873,28.0177977 105.553533,25.72249 103.511389,23.276476 C102.654915,22.2452772 102.075758,21.2597472 101.391899,20.0175594 C101.359829,19.9636703 101.329645,19.9070411 101.295687,19.8458451 C101.009882,19.3243088 100.636353,18.6904277 100.146805,18.5515949 C99.6440508,18.4072819 99.1262048,18.6200979 98.6649539,18.7817649 C98.2433198,18.9279047 97.7999906,19.0566905 97.4868306,19.2366249 C97.0717992,19.4750155 96.7614688,19.8915137 96.4445357,20.2796975 C96.1304323,20.6678813 95.7512445,21.0935132 95.5701399,21.4844372 C95.2588662,22.1612468 95.1126621,22.9951569 94.8636432,23.7660441 C93.6421302,27.5693312 92.2291367,31.1223542 91.6990284,35.6280255 C91.4811369,37.4940476 91.5028316,39.6368219 92.2366827,40.8744428 C92.7309475,41.7001325 93.9788715,42.4280912 95.3343266,42.2426764 C97.3217612,41.9732312 97.2915771,39.5034693 97.6226591,37.6803758 C98.3253828,33.804932 99.0111279,30.5478423 100.214719,27.253304 C101.902199,29.9769838 103.70287,32.4969813 105.46298,35.0096717 C106.311908,36.2162381 107.122163,37.5725977 108.088054,38.8869422 C108.566284,39.5290437 109.048286,40.0916819 109.670833,40.58125 C110.249991,41.03611 111.142308,41.5265916 112.161022,41.3968925 C113.242934,41.2571464 113.965466,39.7884418 114.348426,38.7554164 C115.571826,35.4837125 116.048169,31.7982505 116.569788,27.9693888 C116.915019,25.4585252 117.108386,22.8170491 117.108386,19.8869468 C117.108386,17.1833614 116.564128,14.399399 114.954938,13.3371456" id="Fill-54" fill="#BFBFBF" fill-rule="nonzero"></path>
      </g>
    </g>
  </g>
</svg>
