<?xml version="1.0" encoding="UTF-8"?>
<svg xmlns="http://www.w3.org/2000/svg" xmlns:xlink="http://www.w3.org/1999/xlink" width="133px" height="40px" viewBox="0 0 133 40">
  <!-- Generator: Sketch 50.2 (55047) - http://www.bohemiancoding.com/sketch -->
  <title>Partners logo Copy 3</title>
  <desc>Created with Sketch.</desc>
  <defs>
    <polygon id="path-1" points="0 0 25.512195 0 25.512195 27.086999 0 27.086999"></polygon>
  </defs>
  <g id="Design" stroke="none" stroke-width="1" fill="none" fill-rule="evenodd">
    <g id="dropdown_menu" transform="translate(-992.000000, -937.000000)">
      <g id="Group-8" transform="translate(518.000000, 937.000000)">
        <g id="Partners-logo-Copy-3" transform="translate(473.919369, 0.000000)">
          <path d="M6.96571826,36.7351158 C6.96571826,37.5620813 6.96571826,38.2081118 7.01081498,38.5699817 C7.03787301,38.8187672 7.09138778,39.0084009 7.36136682,39.0431961 C7.48884021,39.0605937 7.68666449,39.0768315 7.81293531,39.0768315 C7.9295855,39.0768315 7.96566287,39.1035078 7.96566287,39.1458419 C7.96566287,39.2067335 7.90252746,39.2328298 7.7672373,39.2328298 C7.19961991,39.2328298 6.63260381,39.2067335 6.39870216,39.2067335 C6.16359792,39.2067335 5.59718311,39.2328298 5.25504932,39.2328298 C5.12877851,39.2328298 5.06444052,39.2154323 5.06444052,39.1458419 C5.06444052,39.1035078 5.10051789,39.0768315 5.20093326,39.0768315 C5.33622342,39.0768315 5.44385426,39.0605937 5.52502836,39.0431961 C5.70481395,39.0084009 5.74991067,38.8187672 5.78598805,38.5699817 C5.83048348,38.2081118 5.83048348,37.5620813 5.83048348,36.7351158 L5.83048348,35.2192058 C5.83048348,33.9103271 5.83048348,33.6696604 5.81304608,33.3947785 C5.79500739,33.1007592 5.72285264,32.9633182 5.42581557,32.9035865 C5.35366082,32.8861889 5.20093326,32.8774901 5.07406115,32.8774901 C4.98386771,32.8774901 4.9207323,32.8600925 4.9207323,32.8084797 C4.9207323,32.7388893 4.99288705,32.7226516 5.12877851,32.7226516 C5.36268016,32.7226516 5.62424114,32.7301905 5.85754151,32.7301905 C6.09144317,32.7388893 6.29888808,32.7475881 6.42576019,32.7475881 C6.76789397,32.7475881 8.59641567,32.7475881 8.80386058,32.7388893 C8.97462683,32.7301905 9.08285896,32.7301905 9.17245111,32.705254 C9.22656718,32.6878564 9.27106261,32.6530612 9.31615933,32.6530612 C9.35223671,32.6530612 9.37929474,32.6878564 9.37929474,32.7301905 C9.37929474,32.7910821 9.33419802,32.8948877 9.30774128,33.1181568 C9.29812064,33.2051448 9.28068324,33.7119945 9.26204327,33.8158002 C9.25362521,33.8853905 9.23498523,33.9364235 9.17245111,33.9364235 C9.1093157,33.9364235 9.09127702,33.8929295 9.08285896,33.7989825 C9.08285896,33.730552 9.08285896,33.5919512 9.0287429,33.4713279 C8.96560749,33.3512845 8.77680255,33.2219624 8.43346619,33.2138435 L7.04689235,33.1871672 C6.99277629,33.1871672 6.96571826,33.2138435 6.96571826,33.3077905 L6.96571826,35.4610323 C6.96571826,35.5114853 6.9747376,35.5375817 7.02825237,35.5375817 L8.18152584,35.5288829 C8.3342534,35.5288829 8.46052422,35.5288829 8.58619375,35.5201841 C8.75816257,35.5114853 8.88443339,35.4784299 8.97462683,35.3653455 C9.01972355,35.3143126 9.03716095,35.2800973 9.09127702,35.2800973 C9.12735439,35.2800973 9.14539308,35.3061937 9.14539308,35.3566467 C9.14539308,35.4088395 9.10029636,35.6245696 9.07323833,35.8907528 C9.05580093,36.0629889 9.03716095,36.459654 9.03716095,36.5193857 C9.03716095,36.5976748 9.03716095,36.682923 8.9475688,36.682923 C8.89345274,36.682923 8.87541405,36.6237712 8.87541405,36.5628797 C8.87541405,36.5019881 8.85737536,36.3993423 8.82129798,36.2961166 C8.77680255,36.1749134 8.64151239,36.0200749 8.36131143,35.9864395 C8.13642912,35.9603431 7.18158122,35.9603431 7.02825237,35.9603431 C6.98375694,35.9603431 6.96571826,35.9777407 6.96571826,36.0368925 L6.96571826,36.7351158" id="Fill-1" fill="#6D6E70"></path>
          <path d="M10.7512158,35.2186259 C10.7512158,33.9097472 10.7512158,33.6679207 10.7331771,33.3930387 C10.7151384,33.1001793 10.6429836,32.9627383 10.3465479,32.9018468 C10.2743931,32.8850291 10.120463,32.8757504 9.99419216,32.8757504 C9.89558067,32.8757504 9.8414646,32.8600925 9.8414646,32.799201 C9.8414646,32.7383094 9.90399872,32.7209118 10.0392889,32.7209118 C10.2834125,32.7209118 10.5443722,32.7296106 10.7692545,32.7296106 C11.0031561,32.7383094 11.2099997,32.7470082 11.3362706,32.7470082 C11.6254909,32.7470082 13.4167326,32.7470082 13.5893027,32.7383094 C13.760069,32.7209118 13.9037772,32.7040942 13.9759319,32.6878564 C14.0210287,32.6779978 14.0745434,32.6530612 14.1202414,32.6530612 C14.1647369,32.6530612 14.1737562,32.6878564 14.1737562,32.7296106 C14.1737562,32.7905022 14.1286595,32.893148 14.1016015,33.289813 C14.0931834,33.3756411 14.0745434,33.7549086 14.057106,33.8575544 C14.0474854,33.9010484 14.030048,33.9532411 13.9669126,33.9532411 C13.9037772,33.9532411 13.8857385,33.9097472 13.8857385,33.8326178 C13.8857385,33.7723062 13.8767192,33.6255865 13.8322237,33.5217809 C13.7690883,33.3669423 13.6788949,33.2637166 13.2279277,33.2121038 C13.0752001,33.1947062 12.1293716,33.1784684 11.9489847,33.1784684 C11.903888,33.1784684 11.8864506,33.203405 11.8864506,33.2637166 L11.8864506,35.4430548 C11.8864506,35.5027865 11.8948686,35.5375817 11.9489847,35.5375817 C12.146809,35.5375817 13.1828309,35.5375817 13.3896746,35.5201841 C13.6073414,35.5027865 13.7420303,35.4766901 13.8226031,35.390862 C13.8857385,35.3218516 13.9218159,35.2795174 13.9669126,35.2795174 C14.00299,35.2795174 14.030048,35.2957552 14.030048,35.3479479 C14.030048,35.3995608 13.9939706,35.5375817 13.9578933,35.976001 C13.9488739,36.148817 13.9218159,36.4932893 13.9218159,36.553601 C13.9218159,36.6220315 13.9218159,36.7171383 13.8412431,36.7171383 C13.7781077,36.7171383 13.760069,36.6823431 13.760069,36.6394291 C13.7510496,36.553601 13.7510496,36.4422564 13.7239916,36.329752 C13.6788949,36.1569359 13.5520228,36.0281937 13.2189083,35.9933985 C13.0481421,35.976001 12.1558283,35.9673022 11.9399653,35.9673022 C11.8948686,35.9673022 11.8864506,36.0020973 11.8864506,36.0542901 L11.8864506,36.7345359 C11.8864506,37.0273953 11.8774312,37.8195656 11.8864506,38.0683511 C11.903888,38.6633487 12.0481975,38.7926708 12.966968,38.7926708 C13.2008696,38.7926708 13.5802834,38.7926708 13.814185,38.6894451 C14.0474854,38.5856395 14.1557175,38.4047045 14.2188529,38.0509535 C14.2368916,37.9570066 14.2549303,37.9222114 14.3180657,37.9222114 C14.3896192,37.9222114 14.3896192,37.9918017 14.3896192,38.0770499 C14.3896192,38.2753825 14.3180657,38.8616813 14.272969,39.0339174 C14.2098336,39.2571865 14.1286595,39.2571865 13.787127,39.2571865 C13.1106762,39.2571865 12.6164161,39.2397889 12.2279831,39.2310901 C11.8407525,39.2136925 11.5623555,39.2061535 11.2911738,39.2061535 C11.1919611,39.2061535 10.9941368,39.2061535 10.7782738,39.2136925 C10.5714302,39.2136925 10.3375285,39.2310901 10.1559391,39.2310901 C10.0392889,39.2310901 9.97615347,39.2061535 9.97615347,39.145262 C9.97615347,39.1023479 10.0122309,39.0762515 10.120463,39.0762515 C10.2563544,39.0762515 10.3645866,39.0588539 10.4451594,39.0414564 C10.6255462,39.007821 10.6700417,38.8187672 10.7061191,38.5694017 C10.7512158,38.2075319 10.7512158,37.5267062 10.7512158,36.7345359 L10.7512158,35.2186259" id="Fill-3" fill="#6D6E70"></path>
          <path d="M17.6182856,36.0977841 C17.6182856,37.0099977 17.6273049,37.6734258 17.6363243,37.8369632 C17.6453436,38.0526933 17.6633823,38.3971656 17.7349357,38.4911126 C17.8521872,38.6552298 18.2033404,38.8361648 18.9152672,38.8361648 C19.8340378,38.8361648 20.4473532,38.6639286 20.9867099,38.2162307 C21.5627454,37.7424363 21.7437336,36.9595447 21.7437336,36.0716877 C21.7437336,34.9785391 21.2657083,34.272197 20.8790791,33.9190259 C20.0499007,33.1616508 19.0228981,33.0584251 18.3211931,33.0584251 C18.1414075,33.0584251 17.8070905,33.0833616 17.7349357,33.1181568 C17.6543629,33.1523721 17.6273049,33.196446 17.6273049,33.2903929 C17.6182856,33.5826725 17.6182856,34.3330885 17.6182856,35.0133343 L17.6182856,36.0977841 Z M16.4920701,35.1507753 C16.4920701,33.8418966 16.4920701,33.6000701 16.4746327,33.3251881 C16.456594,33.0323287 16.3844393,32.8948877 16.0874022,32.8339962 C16.0152475,32.8165986 15.8613173,32.8078998 15.7356478,32.8078998 C15.636435,32.8078998 15.582319,32.7905022 15.582319,32.7313504 C15.582319,32.6704588 15.6454544,32.6530612 15.7801432,32.6530612 C16.2587698,32.6530612 16.8251846,32.6791576 17.0783275,32.6791576 C17.3573259,32.6791576 17.924342,32.6530612 18.4655026,32.6530612 C19.5911168,32.6530612 21.0949421,32.6530612 22.076848,33.6348652 C22.5266126,34.0825632 22.9505218,34.7976042 22.9505218,35.8229022 C22.9505218,36.907352 22.4724966,37.7343174 21.9686159,38.2249294 C21.5549286,38.6291335 20.6181194,39.2415286 18.9507433,39.2415286 C18.6272495,39.2415286 18.2580577,39.2154323 17.9153226,39.1893359 C17.5731888,39.1632395 17.2581131,39.1371431 17.0332308,39.1371431 C16.9334167,39.1371431 16.7355924,39.1371431 16.5191282,39.1458419 C16.3122845,39.1458419 16.0783829,39.1632395 15.8973947,39.1632395 C15.7801432,39.1632395 15.7176091,39.1371431 15.7176091,39.0779913 C15.7176091,39.0344973 15.7530852,39.0084009 15.8613173,39.0084009 C15.9978101,39.0084009 16.1054409,38.9910033 16.186615,38.9736057 C16.3664006,38.9399704 16.4114973,38.7503367 16.4475747,38.5003913 C16.4920701,38.1385214 16.4920701,37.4588556 16.4920701,36.6666853 L16.4920701,35.1507753 Z" id="Fill-5" fill="#6D6E70"></path>
          <path d="M24.6932906,35.2186259 C24.6932906,33.9097472 24.6932906,33.6679207 24.6752519,33.3930387 C24.6572133,33.1001793 24.5850585,32.9627383 24.2886227,32.9018468 C24.216468,32.8850291 24.0637404,32.8757504 23.936267,32.8757504 C23.8376555,32.8757504 23.7835395,32.8600925 23.7835395,32.799201 C23.7835395,32.7383094 23.8460736,32.7209118 23.9813637,32.7209118 C24.2254873,32.7209118 24.486447,32.7296106 24.7113293,32.7296106 C24.945231,32.7383094 25.1520746,32.7470082 25.2783454,32.7470082 C25.5675657,32.7470082 27.3588075,32.7470082 27.5313776,32.7383094 C27.7021438,32.7209118 27.845852,32.7040942 27.9180068,32.6878564 C27.9625022,32.6779978 28.0166183,32.6530612 28.061715,32.6530612 C28.1068117,32.6530612 28.1158311,32.6878564 28.1158311,32.7296106 C28.1158311,32.7905022 28.0707344,32.893148 28.0436763,33.289813 C28.0352583,33.3756411 28.0166183,33.7549086 27.9991809,33.8575544 C27.9895603,33.9010484 27.9721229,33.9532411 27.9089875,33.9532411 C27.845852,33.9532411 27.8278134,33.9097472 27.8278134,33.8326178 C27.8278134,33.7723062 27.818794,33.6255865 27.7742986,33.5217809 C27.7111632,33.3669423 27.6209697,33.2637166 27.1700025,33.2121038 C27.017275,33.1947062 26.0714464,33.1784684 25.8910595,33.1784684 C25.8459628,33.1784684 25.8279241,33.203405 25.8279241,33.2637166 L25.8279241,35.4430548 C25.8279241,35.5027865 25.8369435,35.5375817 25.8910595,35.5375817 C26.0888838,35.5375817 27.1249058,35.5375817 27.3317494,35.5201841 C27.5494163,35.5027865 27.6841051,35.4766901 27.7646779,35.390862 C27.8278134,35.3218516 27.8638907,35.2795174 27.9089875,35.2795174 C27.9450648,35.2795174 27.9721229,35.2957552 27.9721229,35.3479479 C27.9721229,35.3995608 27.9360455,35.5375817 27.8999681,35.976001 C27.8909488,36.148817 27.8638907,36.4932893 27.8638907,36.553601 C27.8638907,36.6220315 27.8638907,36.7171383 27.7833179,36.7171383 C27.7201825,36.7171383 27.7021438,36.6823431 27.7021438,36.6394291 C27.6931245,36.553601 27.6931245,36.4422564 27.6660664,36.329752 C27.6209697,36.1569359 27.4940976,36.0281937 27.1609832,35.9933985 C26.9902169,35.976001 26.0979032,35.9673022 25.8820402,35.9673022 C25.8369435,35.9673022 25.8279241,36.0020973 25.8279241,36.0542901 L25.8279241,36.7345359 C25.8279241,37.0273953 25.8195061,37.8195656 25.8279241,38.0683511 C25.8459628,38.6633487 25.9902723,38.7926708 26.9090428,38.7926708 C27.1429445,38.7926708 27.5223582,38.7926708 27.7562599,38.6894451 C27.9895603,38.5856395 28.0977924,38.4047045 28.1609278,38.0509535 C28.1789665,37.9570066 28.1970052,37.9222114 28.2601406,37.9222114 C28.331694,37.9222114 28.331694,37.9918017 28.331694,38.0770499 C28.331694,38.2753825 28.2601406,38.8616813 28.2144426,39.0339174 C28.1519085,39.2571865 28.0707344,39.2571865 27.7292019,39.2571865 C27.052751,39.2571865 26.558491,39.2397889 26.1700579,39.2310901 C25.7828274,39.2136925 25.5044303,39.2061535 25.2332487,39.2061535 C25.1340359,39.2061535 24.9362116,39.2061535 24.7203487,39.2136925 C24.513505,39.2136925 24.2796034,39.2310901 24.0980139,39.2310901 C23.9813637,39.2310901 23.9182283,39.2061535 23.9182283,39.145262 C23.9182283,39.1023479 23.9543057,39.0762515 24.0637404,39.0762515 C24.1984293,39.0762515 24.3060601,39.0588539 24.3872342,39.0414564 C24.5676211,39.007821 24.6121165,38.8187672 24.6481939,38.5694017 C24.6932906,38.2075319 24.6932906,37.5267062 24.6932906,36.7345359 L24.6932906,35.2186259" id="Fill-7" fill="#6D6E70"></path>
          <path d="M30.677103,35.8304411 C30.677103,35.9261279 30.6951416,35.9591833 30.7582771,35.9852797 C30.947082,36.0461712 31.217061,36.0722676 31.4431459,36.0722676 C31.8033184,36.0722676 31.9199686,36.0374724 32.0817155,35.9261279 C32.3516945,35.7359142 32.6138568,35.3392492 32.6138568,34.6334869 C32.6138568,33.4110162 31.767241,33.0572652 31.2350997,33.0572652 C31.0102174,33.0572652 30.8484705,33.065964 30.7582771,33.0920604 C30.6951416,33.1100379 30.677103,33.1442532 30.677103,33.2126837 L30.677103,35.8304411 Z M29.6140229,35.1501953 C29.6140229,33.8407367 29.6140229,33.60065 29.5965855,33.3240283 C29.5785468,33.0317488 29.5063921,32.8943078 29.209355,32.8334162 C29.1372003,32.8160187 28.9832701,32.8084797 28.8576006,32.8084797 C28.7583878,32.8084797 28.7042718,32.7910821 28.7042718,32.7301905 C28.7042718,32.669299 28.7674072,32.6530612 28.902096,32.6530612 C29.3801213,32.6530612 29.9471374,32.6779978 30.1377462,32.6779978 C30.4432013,32.6779978 31.1274689,32.6530612 31.405866,32.6530612 C31.9740846,32.6530612 32.5783807,32.7040942 33.0636214,33.02305 C33.3155618,33.1865873 33.6769368,33.6250066 33.6769368,34.2026066 C33.6769368,34.8399383 33.3967359,35.4250773 32.4869847,36.1319993 C33.2885037,37.0964058 33.9108385,37.8630596 34.4417772,38.3960058 C34.9468605,38.8958965 35.315451,38.9567881 35.4501399,38.9828845 C35.5493526,38.9997021 35.6305267,39.007821 35.7020802,39.007821 C35.7748362,39.007821 35.8103123,39.0333375 35.8103123,39.0768315 C35.8103123,39.1464218 35.7477782,39.1638194 35.6395461,39.1638194 L34.7851136,39.1638194 C34.2800303,39.1638194 34.0545467,39.1203254 33.8212463,38.9997021 C33.4328132,38.8019495 33.0906794,38.3960058 32.5867988,37.7331576 C32.226025,37.2593632 31.8123377,36.6748042 31.6950863,36.5454821 C31.6499895,36.4938692 31.5958735,36.4845905 31.5333394,36.4845905 L30.7492577,36.4677728 C30.704161,36.4677728 30.677103,36.4845905 30.677103,36.5367833 L30.677103,36.6574066 C30.677103,37.4582756 30.677103,38.1385214 30.7221997,38.5003913 C30.7492577,38.7497568 30.8027725,38.9393905 31.0733528,38.9736057 C31.2080417,38.9915833 31.405866,39.007821 31.5153007,39.007821 C31.5874554,39.007821 31.6229315,39.0333375 31.6229315,39.0768315 C31.6229315,39.137723 31.5603974,39.1638194 31.4431459,39.1638194 C30.920024,39.1638194 30.2531938,39.137723 30.1179036,39.137723 C29.9471374,39.137723 29.3801213,39.1638194 29.0193475,39.1638194 C28.902096,39.1638194 28.8395619,39.137723 28.8395619,39.0768315 C28.8395619,39.0333375 28.875038,39.007821 28.9832701,39.007821 C29.117959,39.007821 29.2273937,38.9915833 29.3085678,38.9736057 C29.4883534,38.9393905 29.5334501,38.7497568 29.5695275,38.5003913 C29.6140229,38.1385214 29.6140229,37.4582756 29.6140229,36.6655254 L29.6140229,35.1501953 Z" id="Fill-9" fill="#6D6E70"></path>
          <path d="M38.6968449,36.6742242 C38.7419416,36.6742242 38.750961,36.6481279 38.7419416,36.6220315 L37.930802,34.495466 C37.9217826,34.4618307 37.9127633,34.4183367 37.8857052,34.4183367 C37.8586472,34.4183367 37.8406085,34.4618307 37.8321905,34.495466 L37.0030121,36.6139126 C36.9939928,36.6481279 37.0030121,36.6742242 37.0390895,36.6742242 L38.6968449,36.6742242 Z M36.8587026,37.1045246 C36.8142072,37.1045246 36.7955672,37.1219222 36.7781298,37.174115 L36.2916865,38.4047045 C36.2020943,38.6204347 36.1569976,38.827466 36.1569976,38.9301118 C36.1569976,39.0855302 36.2381717,39.1968748 36.5171701,39.1968748 L36.651859,39.1968748 C36.7600911,39.1968748 36.7871491,39.2142724 36.7871491,39.2664652 C36.7871491,39.3354756 36.7330331,39.3528732 36.6338203,39.3528732 C36.3458026,39.3528732 35.9579708,39.3267768 35.6789724,39.3267768 C35.5797596,39.3267768 35.0854995,39.3528732 34.6158924,39.3528732 C34.4992422,39.3528732 34.4451261,39.3354756 34.4451261,39.2664652 C34.4451261,39.2142724 34.4812035,39.1968748 34.5533582,39.1968748 C34.633931,39.1968748 34.7602019,39.1893359 34.8323566,39.1806371 C35.2472464,39.1284443 35.4180127,38.8361648 35.5983996,38.4047045 L37.8586472,32.9981134 C37.9668793,32.7475881 38.0203941,32.6530612 38.1105876,32.6530612 C38.1917617,32.6530612 38.2458777,32.7301905 38.3366724,32.9285231 C38.5525354,33.4017375 39.9938266,36.9148909 40.5704633,38.2237696 C40.9125971,38.9997021 41.1735568,39.1197455 41.3623617,39.1632395 C41.4970506,39.1893359 41.6335434,39.1968748 41.7411742,39.1968748 C41.813329,39.1968748 41.8584257,39.2055736 41.8584257,39.2664652 C41.8584257,39.3354756 41.7778529,39.3528732 41.4429346,39.3528732 C41.1194407,39.3528732 40.4616299,39.3528732 39.7418863,39.3354756 C39.5795381,39.3267768 39.4719072,39.3267768 39.4719072,39.2664652 C39.4719072,39.2142724 39.5079846,39.1968748 39.5975768,39.1893359 C39.6607122,39.1719383 39.7238476,39.0936491 39.6787508,38.9910033 L38.9578046,37.1654162 C38.9397659,37.1219222 38.9127079,37.1045246 38.8676112,37.1045246 L36.8587026,37.1045246 Z" id="Fill-11" fill="#6D6E70"></path>
          <path d="M43.8080751,36.6655254 C43.8080751,37.7673728 43.8080751,38.3623704 43.99688,38.517209 C44.1502089,38.6465311 44.3853131,38.7074226 45.0870181,38.7074226 C45.5650433,38.7074226 45.9155952,38.6969841 46.1404775,38.4655961 C46.2487096,38.3536716 46.3569417,38.112425 46.3749804,37.9483078 C46.3839998,37.8717584 46.4014372,37.8195656 46.4735919,37.8195656 C46.5367273,37.8195656 46.5457467,37.8630596 46.5457467,37.9657054 C46.5457467,38.0613921 46.4826113,38.7074226 46.4110578,38.9562082 C46.3569417,39.1458419 46.311845,39.1893359 45.8440417,39.1893359 C45.1952502,39.1893359 44.7268456,39.1719383 44.3209751,39.1632395 C43.9163072,39.1458419 43.5922121,39.1371431 43.2236216,39.1371431 C43.1232062,39.1371431 42.925382,39.1371431 42.709519,39.1458419 C42.5026754,39.1458419 42.2681724,39.1632395 42.0871842,39.1632395 C41.9705341,39.1632395 41.9073987,39.1371431 41.9073987,39.0762515 C41.9073987,39.0339174 41.943476,39.0072411 42.0529107,39.0072411 C42.1875996,39.0072411 42.2952305,38.9910033 42.3764045,38.9736057 C42.5561901,38.9388106 42.6012869,38.7491768 42.6373642,38.5003913 C42.682461,38.1385214 42.682461,37.4576957 42.682461,36.6655254 L42.682461,35.1496154 C42.682461,33.8407367 42.682461,33.6000701 42.6644223,33.3251881 C42.6463836,33.0311689 42.5742288,32.8937279 42.2777931,32.8339962 C42.2056383,32.8165986 42.0974062,32.8078998 41.9789521,32.8078998 C41.8803406,32.8078998 41.8262246,32.7905022 41.8262246,32.7296106 C41.8262246,32.669299 41.88936,32.6530612 42.0240488,32.6530612 C42.4485593,32.6530612 43.0149741,32.6779978 43.2590977,32.6779978 C43.475562,32.6779978 44.1321702,32.6530612 44.4845259,32.6530612 C44.6101954,32.6530612 44.6727296,32.669299 44.6727296,32.7296106 C44.6727296,32.7905022 44.6192148,32.8078998 44.5109827,32.8078998 C44.4123712,32.8078998 44.2668591,32.8165986 44.1586269,32.8339962 C43.9163072,32.8763303 43.8441525,33.0224701 43.8261138,33.3251881 C43.8080751,33.6000701 43.8080751,33.8407367 43.8080751,35.1496154 L43.8080751,36.6655254" id="Fill-13" fill="#6D6E70"></path>
          <path d="M50.3239178,38.4650162 C49.4406234,37.7250387 49.207323,36.7606323 49.207323,35.924968 C49.207323,35.3386692 49.3961279,34.3238098 50.2607824,33.5652749 C50.9089726,32.9975335 51.7646077,32.6530612 53.1060848,32.6530612 C53.6652842,32.6530612 53.9983986,32.6861166 54.4132884,32.7383094 C54.7554222,32.7818034 55.0434399,32.8583528 55.3128177,32.8844492 C55.4120305,32.893148 55.4493104,32.9366419 55.4493104,32.9888347 C55.4493104,33.0566853 55.4210498,33.1610709 55.4030111,33.4620492 C55.3849724,33.7462098 55.3939918,34.2194243 55.3759531,34.3916604 C55.3669337,34.5209825 55.3488951,34.5899929 55.2683223,34.5899929 C55.1961675,34.5899929 55.1781288,34.5209825 55.1781288,34.4003592 C55.1691095,34.1341761 55.0524593,33.831458 54.827577,33.6081889 C54.5305399,33.3072106 53.8276324,33.0740829 52.998454,33.0740829 C52.2155749,33.0740829 51.7014723,33.2637166 51.3058237,33.6081889 C50.6480129,34.1846291 50.4766454,35.0028957 50.4766454,35.83856 C50.4766454,37.888576 52.1061402,38.9034355 53.3147323,38.9034355 C54.1150488,38.9034355 54.6020934,38.8181873 54.9622658,38.4215222 C55.1149934,38.2579849 55.2322449,38.0086194 55.2683223,37.8537809 C55.2953803,37.7163399 55.3128177,37.6815447 55.3849724,37.6815447 C55.4493104,37.6815447 55.4673491,37.7406965 55.4673491,37.8108668 C55.4673491,37.9135126 55.3579144,38.6633487 55.2683223,38.9556282 C55.2232255,39.1023479 55.1871482,39.145262 55.0338193,39.2049937 C54.6742481,39.3424347 53.9893793,39.4033262 53.4133438,39.4033262 C52.178295,39.4033262 51.1440768,39.145262 50.3239178,38.4650162" id="Fill-15" fill="#6D6E70"></path>
          <path d="M58.5612527,35.8304411 C58.5612527,35.9261279 58.5792914,35.9591833 58.6424268,35.9852797 C58.8312317,36.0461712 59.1012107,36.0722676 59.3272956,36.0722676 C59.6874681,36.0722676 59.8041183,36.0374724 59.9658652,35.9261279 C60.2370468,35.7359142 60.4980065,35.3392492 60.4980065,34.6334869 C60.4980065,33.4110162 59.6507894,33.0572652 59.1192494,33.0572652 C58.8943671,33.0572652 58.7320189,33.065964 58.6424268,33.0920604 C58.5792914,33.1100379 58.5612527,33.1442532 58.5612527,33.2126837 L58.5612527,35.8304411 Z M57.4981726,35.1501953 C57.4981726,33.8407367 57.4981726,33.60065 57.4807352,33.3240283 C57.4620953,33.0317488 57.3905418,32.8943078 57.0935047,32.8334162 C57.02135,32.8160187 56.8686224,32.8084797 56.7417503,32.8084797 C56.6425375,32.8084797 56.5884215,32.7910821 56.5884215,32.7301905 C56.5884215,32.669299 56.6515569,32.6530612 56.7862457,32.6530612 C57.264271,32.6530612 57.8312871,32.6779978 58.0218959,32.6779978 C58.327351,32.6779978 59.0110173,32.6530612 59.2912182,32.6530612 C59.8582343,32.6530612 60.4619291,32.7040942 60.9477711,33.02305 C61.1997115,33.1865873 61.5610865,33.6250066 61.5610865,34.2026066 C61.5610865,34.8399383 61.2808856,35.4250773 60.372337,36.1319993 C61.1726534,37.0964058 61.7949882,37.8630596 62.3259269,38.3960058 C62.8310102,38.8958965 63.1996007,38.9567881 63.3342896,38.9828845 C63.4335024,38.9997021 63.5146764,39.007821 63.5880338,39.007821 C63.6583847,39.007821 63.6956646,39.0333375 63.6956646,39.0768315 C63.6956646,39.1464218 63.6331305,39.1638194 63.5236958,39.1638194 L62.6692633,39.1638194 C62.1635787,39.1638194 61.9386964,39.1203254 61.705396,38.9997021 C61.3169629,38.8019495 60.9748291,38.3960058 60.4709485,37.7331576 C60.1101747,37.2593632 59.6958862,36.6748042 59.579236,36.5454821 C59.5341392,36.4938692 59.4800232,36.4845905 59.4174891,36.4845905 L58.6334074,36.4677728 C58.5883107,36.4677728 58.5612527,36.4845905 58.5612527,36.5367833 L58.5612527,36.6574066 C58.5612527,37.4582756 58.5612527,38.1385214 58.6063494,38.5003913 C58.6334074,38.7497568 58.6869222,38.9393905 58.9569012,38.9736057 C59.0921914,38.9915833 59.2912182,39.007821 59.3994504,39.007821 C59.4710038,39.007821 59.5070812,39.0333375 59.5070812,39.0768315 C59.5070812,39.137723 59.4439458,39.1638194 59.3272956,39.1638194 C58.8041737,39.1638194 58.1385461,39.137723 58.0032559,39.137723 C57.8312871,39.137723 57.264271,39.1638194 56.9034972,39.1638194 C56.7862457,39.1638194 56.7249142,39.137723 56.7249142,39.0768315 C56.7249142,39.0333375 56.7591877,39.007821 56.8686224,39.007821 C57.0039126,39.007821 57.1115434,38.9915833 57.1927175,38.9736057 C57.3725031,38.9393905 57.4175998,38.7497568 57.4536772,38.5003913 C57.4981726,38.1385214 57.4981726,37.4582756 57.4981726,36.6655254 L57.4981726,35.1501953 Z" id="Fill-17" fill="#6D6E70"></path>
          <path d="M64.0597503,35.2186259 C64.0597503,33.9097472 64.0597503,33.6679207 64.0417116,33.3930387 C64.023673,33.1001793 63.9515182,32.9627383 63.6550824,32.9018468 C63.5829277,32.8850291 63.4302001,32.8757504 63.3027267,32.8757504 C63.2035139,32.8757504 63.1493979,32.8600925 63.1493979,32.799201 C63.1493979,32.7383094 63.2137359,32.7209118 63.3472221,32.7209118 C63.591947,32.7209118 63.8529067,32.7296106 64.077789,32.7296106 C64.3116907,32.7383094 64.5197369,32.7470082 64.6460077,32.7470082 C64.9334241,32.7470082 66.7264697,32.7470082 66.897236,32.7383094 C67.0680022,32.7209118 67.2123117,32.7040942 67.2844665,32.6878564 C67.3289619,32.6779978 67.383078,32.6530612 67.4281747,32.6530612 C67.4732714,32.6530612 67.4822908,32.6878564 67.4822908,32.7296106 C67.4822908,32.7905022 67.4371941,32.893148 67.410136,33.289813 C67.4011167,33.3756411 67.383078,33.7549086 67.3650393,33.8575544 C67.35602,33.9010484 67.3385826,33.9532411 67.2754471,33.9532411 C67.2123117,33.9532411 67.1942731,33.9097472 67.1942731,33.8326178 C67.1942731,33.7723062 67.1852537,33.6255865 67.140157,33.5217809 C67.0776229,33.3669423 66.9874294,33.2637166 66.5364622,33.2121038 C66.3831334,33.1947062 65.4373048,33.1784684 65.2575192,33.1784684 C65.2124225,33.1784684 65.1943838,33.203405 65.1943838,33.2637166 L65.1943838,35.4430548 C65.1943838,35.5027865 65.2034032,35.5375817 65.2575192,35.5375817 C65.4553435,35.5375817 66.4913655,35.5375817 66.6982091,35.5201841 C66.9152747,35.5027865 67.0505648,35.4766901 67.1311376,35.390862 C67.1942731,35.3218516 67.2303504,35.2795174 67.2754471,35.2795174 C67.3115245,35.2795174 67.3385826,35.2957552 67.3385826,35.3479479 C67.3385826,35.3995608 67.3025052,35.5375817 67.2664278,35.976001 C67.2574085,36.148817 67.2303504,36.4932893 67.2303504,36.553601 C67.2303504,36.6220315 67.2303504,36.7171383 67.1491763,36.7171383 C67.0866422,36.7171383 67.0680022,36.6823431 67.0680022,36.6394291 C67.0595842,36.553601 67.0595842,36.4422564 67.0325261,36.329752 C66.9874294,36.1569359 66.8611586,36.0281937 66.5274429,35.9933985 C66.3560753,35.976001 65.4643629,35.9673022 65.2484999,35.9673022 C65.2034032,35.9673022 65.1943838,36.0020973 65.1943838,36.0542901 L65.1943838,36.7345359 C65.1943838,37.0273953 65.1853645,37.8195656 65.1943838,38.0683511 C65.2124225,38.6633487 65.3561307,38.7926708 66.2755025,38.7926708 C66.5094042,38.7926708 66.8882166,38.7926708 67.1221183,38.6894451 C67.35602,38.5856395 67.4642521,38.4047045 67.5273875,38.0509535 C67.5448249,37.9570066 67.5634649,37.9222114 67.625999,37.9222114 C67.6981537,37.9222114 67.6981537,37.9918017 67.6981537,38.0770499 C67.6981537,38.2753825 67.625999,38.8616813 67.5809023,39.0339174 C67.5177669,39.2571865 67.4371941,39.2571865 67.0950603,39.2571865 C66.4192107,39.2571865 65.9243494,39.2397889 65.5365176,39.2310901 C65.1492871,39.2136925 64.87089,39.2061535 64.6003097,39.2061535 C64.5004956,39.2061535 64.3026713,39.2061535 64.0862071,39.2136925 C63.8799647,39.2136925 63.6460631,39.2310901 63.4656762,39.2310901 C63.3472221,39.2310901 63.284688,39.2061535 63.284688,39.145262 C63.284688,39.1023479 63.3207654,39.0762515 63.4302001,39.0762515 C63.564889,39.0762515 63.6725198,39.0588539 63.7536939,39.0414564 C63.9334795,39.007821 63.9785762,38.8187672 64.0146536,38.5694017 C64.0597503,38.2075319 64.0597503,37.5267062 64.0597503,36.7345359 L64.0597503,35.2186259" id="Fill-19" fill="#6D6E70"></path>
          <path d="M70.1060968,36.0977841 C70.1060968,37.0099977 70.1151161,37.6734258 70.1241355,37.8369632 C70.1331548,38.0526933 70.1511935,38.3971656 70.222747,38.4911126 C70.3399984,38.6552298 70.6911516,38.8361648 71.4030785,38.8361648 C72.321849,38.8361648 72.9333605,38.6639286 73.4745212,38.2162307 C74.0505566,37.7424363 74.2315448,36.9595447 74.2315448,36.0716877 C74.2315448,34.9785391 73.7535195,34.272197 73.366289,33.9190259 C72.5377119,33.1616508 71.5107093,33.0584251 70.8078017,33.0584251 C70.6280162,33.0584251 70.2949017,33.0833616 70.222747,33.1181568 C70.1421742,33.1523721 70.1151161,33.196446 70.1151161,33.2903929 C70.1060968,33.5826725 70.1060968,34.3330885 70.1060968,35.0133343 L70.1060968,36.0977841 Z M68.9798813,35.1507753 C68.9798813,33.8418966 68.9798813,33.6000701 68.9624439,33.3251881 C68.943804,33.0323287 68.8722505,32.8948877 68.5740109,32.8339962 C68.5024574,32.8165986 68.3491285,32.8078998 68.223459,32.8078998 C68.1242462,32.8078998 68.0701302,32.7905022 68.0701302,32.7313504 C68.0701302,32.6704588 68.1332656,32.6530612 68.2679544,32.6530612 C68.7459797,32.6530612 69.3129958,32.6791576 69.5649361,32.6791576 C69.8451371,32.6791576 70.4121532,32.6530612 70.9533138,32.6530612 C72.078928,32.6530612 73.5827533,32.6530612 74.5646592,33.6348652 C75.0144238,34.0825632 75.438333,34.7976042 75.438333,35.8229022 C75.438333,36.907352 74.9603078,37.7343174 74.4564271,38.2249294 C74.0415373,38.6291335 73.1059306,39.2415286 71.4385545,39.2415286 C71.1150607,39.2415286 70.7458689,39.2154323 70.4031338,39.1893359 C70.0610001,39.1632395 69.7459243,39.1371431 69.5198394,39.1371431 C69.4212279,39.1371431 69.2228023,39.1371431 69.0069394,39.1458419 C68.8000957,39.1458419 68.5649915,39.1632395 68.3852059,39.1632395 C68.2679544,39.1632395 68.204819,39.1371431 68.204819,39.0779913 C68.204819,39.0344973 68.2408964,39.0084009 68.3491285,39.0084009 C68.4856213,39.0084009 68.5932521,38.9910033 68.6744262,38.9736057 C68.8542118,38.9399704 68.8993085,38.7503367 68.9353859,38.5003913 C68.9798813,38.1385214 68.9798813,37.4588556 68.9798813,36.6666853 L68.9798813,35.1507753 Z" id="Fill-21" fill="#6D6E70"></path>
          <path d="M77.0644517,35.1507753 C77.0644517,33.8418966 77.0644517,33.6000701 77.046413,33.3251881 C77.0283743,33.0323287 76.9387821,32.8861889 76.7403566,32.8432749 C76.6417451,32.8171785 76.5244936,32.8078998 76.4168628,32.8078998 C76.3254667,32.8078998 76.2713507,32.7922419 76.2713507,32.7226516 C76.2713507,32.6704588 76.3435054,32.6530612 76.4872136,32.6530612 C76.83055,32.6530612 77.3975661,32.6791576 77.6597284,32.6791576 C77.8846107,32.6791576 78.4155494,32.6530612 78.7582845,32.6530612 C78.875536,32.6530612 78.9470894,32.6704588 78.9470894,32.7226516 C78.9470894,32.7922419 78.8935746,32.8078998 78.8033812,32.8078998 C78.7119852,32.8078998 78.6404317,32.8171785 78.5321996,32.8339962 C78.2892786,32.8774901 78.2171238,33.0242098 78.1990851,33.3251881 C78.1810465,33.6000701 78.1810465,33.8418966 78.1810465,35.1507753 L78.1810465,36.6666853 C78.1810465,37.5011897 78.1810465,38.1814355 78.2171238,38.5520041 C78.2441819,38.7851319 78.3073173,38.9399704 78.5772963,38.9736057 C78.7029658,38.9910033 78.902594,39.0084009 79.0372829,39.0084009 C79.1358944,39.0084009 79.1815924,39.0344973 79.1815924,39.0774114 C79.1815924,39.1383029 79.1088363,39.1632395 79.0102248,39.1632395 C78.4155494,39.1632395 77.8485333,39.1383029 77.6038084,39.1383029 C77.3975661,39.1383029 76.83055,39.1632395 76.4691749,39.1632395 C76.3525248,39.1632395 76.2893894,39.1383029 76.2893894,39.0774114 C76.2893894,39.0344973 76.3254667,39.0084009 76.4349014,39.0084009 C76.5695903,39.0084009 76.6772212,38.9910033 76.7583952,38.9736057 C76.9387821,38.9399704 76.9922969,38.7938306 77.0193549,38.5438853 C77.0644517,38.1814355 77.0644517,37.5011897 77.0644517,36.6666853 L77.0644517,35.1507753" id="Fill-23" fill="#6D6E70"></path>
          <path d="M82.1001042,33.2555978 L80.7586271,33.2903929 C80.2349039,33.3077905 80.0196422,33.3495448 79.884352,33.5391785 C79.7947599,33.6679207 79.7496631,33.7723062 79.7316245,33.8407367 C79.7135858,33.9097472 79.6865277,33.9445423 79.6324117,33.9445423 C79.5698776,33.9445423 79.5518389,33.9016283 79.5518389,33.8071014 C79.5518389,33.6679207 79.7226051,32.8850291 79.7406438,32.8165986 C79.7677018,32.7040942 79.7947599,32.6530612 79.8482746,32.6530612 C79.9204294,32.6530612 80.0100215,32.7383094 80.2349039,32.7562869 C80.4970661,32.7823833 80.8391999,32.799201 81.136237,32.799201 L84.7030869,32.799201 C84.9923072,32.799201 85.1901315,32.7731046 85.3248204,32.7562869 C85.4595093,32.7301905 85.531664,32.712213 85.5677414,32.712213 C85.6308768,32.712213 85.6398961,32.7644058 85.6398961,32.893148 C85.6398961,33.0746628 85.6128381,33.6679207 85.6128381,33.8929295 C85.6038188,33.9781777 85.5857801,34.0303704 85.531664,34.0303704 C85.4595093,34.0303704 85.4420719,33.9880363 85.4324512,33.8581343 L85.4234319,33.7636074 C85.4059945,33.5391785 85.1630735,33.2990917 84.3609531,33.2816942 L83.2263197,33.2555978 L83.2263197,36.7855688 C83.2263197,37.5777391 83.2263197,38.2579849 83.2708151,38.6291335 C83.2978731,38.8698001 83.3519892,39.0588539 83.6219682,39.0936491 C83.7476377,39.1110467 83.9472659,39.1284443 84.0819548,39.1284443 C84.1805663,39.1284443 84.2262643,39.1545407 84.2262643,39.1968748 C84.2262643,39.2577664 84.1541095,39.2838628 84.0548967,39.2838628 C83.4602213,39.2838628 82.8932052,39.2577664 82.6400623,39.2577664 C82.4332187,39.2577664 81.8662026,39.2838628 81.5048275,39.2838628 C81.3881773,39.2838628 81.3250419,39.2577664 81.3250419,39.1968748 C81.3250419,39.1545407 81.3611193,39.1284443 81.470554,39.1284443 C81.6052429,39.1284443 81.713475,39.1110467 81.7940478,39.0936491 C81.9744347,39.0588539 82.0279495,38.8698001 82.0550075,38.6198547 C82.1001042,38.2579849 82.1001042,37.5777391 82.1001042,36.7855688 L82.1001042,33.2555978" id="Fill-25" fill="#6D6E70"></path>
          <path d="M89.4829326,35.1507753 C89.4829326,33.8418966 89.4829326,33.6000701 89.4648939,33.3251881 C89.4468552,33.0323287 89.3747005,32.8948877 89.0782647,32.8339962 C89.0049074,32.8171785 88.8521798,32.8078998 88.725909,32.8078998 C88.6272975,32.8078998 88.5731814,32.7922419 88.5731814,32.7313504 C88.5731814,32.6704588 88.6357155,32.6530612 88.7710057,32.6530612 C89.2490309,32.6530612 89.816047,32.6791576 90.0866274,32.6791576 C90.3030916,32.6791576 90.8695064,32.6530612 91.1948041,32.6530612 C91.329493,32.6530612 91.3926284,32.6704588 91.3926284,32.7313504 C91.3926284,32.7922419 91.3385123,32.8078998 91.2477176,32.8078998 C91.1485048,32.8078998 91.0943887,32.8171785 90.9867579,32.8339962 C90.7438369,32.8774901 90.6716821,33.0242098 90.6536435,33.3251881 C90.6356048,33.6000701 90.6356048,33.8418966 90.6356048,35.1507753 L90.6356048,36.3570082 C90.6356048,37.6049953 90.8965645,38.1309825 91.3385123,38.4754547 C91.7437815,38.7938306 92.1574688,38.827466 92.4647278,38.827466 C92.8603763,38.827466 93.3462183,38.7074226 93.7075934,38.3629503 C94.2024547,37.889156 94.2295128,37.1143833 94.2295128,36.2265263 L94.2295128,35.1507753 C94.2295128,33.8418966 94.2295128,33.6000701 94.2114741,33.3251881 C94.1928341,33.0323287 94.1212806,32.8948877 93.8242436,32.8339962 C93.7526901,32.8171785 93.5993612,32.8078998 93.5007498,32.8078998 C93.4003344,32.8078998 93.3462183,32.7922419 93.3462183,32.7313504 C93.3462183,32.6704588 93.4093537,32.6530612 93.5350233,32.6530612 C93.9950098,32.6530612 94.5632285,32.6791576 94.5710453,32.6791576 C94.68048,32.6791576 95.2468948,32.6530612 95.5980479,32.6530612 C95.7237174,32.6530612 95.7868528,32.6704588 95.7868528,32.7313504 C95.7868528,32.7922419 95.7339394,32.8078998 95.6251059,32.8078998 C95.5258931,32.8078998 95.4717771,32.8171785 95.3641462,32.8339962 C95.1212252,32.8774901 95.0490705,33.0242098 95.0316331,33.3251881 C95.0129931,33.6000701 95.0129931,33.8418966 95.0129931,35.1507753 L95.0129931,36.0716877 C95.0129931,37.0273953 94.9143816,38.0439945 94.157358,38.6639286 C93.5181871,39.1893359 92.8693957,39.2844427 92.2831383,39.2844427 C91.8063156,39.2844427 90.9416612,39.2589262 90.2844516,38.690025 C89.8244651,38.2945198 89.4829326,37.6571881 89.4829326,36.4074612 L89.4829326,35.1507753" id="Fill-27" fill="#6D6E70"></path>
          <path d="M97.51162,38.1379415 C97.5296586,38.8100684 97.6469101,39.0327576 97.8266957,39.0936491 C97.9794233,39.1458419 98.1513921,39.1545407 98.2957016,39.1545407 C98.3949144,39.1545407 98.4490305,39.1719383 98.4490305,39.2229712 C98.4490305,39.2919816 98.3678564,39.3093792 98.2415855,39.3093792 C97.6559295,39.3093792 97.295757,39.2832829 97.1249907,39.2832829 C97.0438166,39.2832829 96.6199075,39.3093792 96.1521042,39.3093792 C96.0348527,39.3093792 95.9542799,39.3006804 95.9542799,39.2229712 C95.9542799,39.1719383 96.0083959,39.1545407 96.0979881,39.1545407 C96.2146383,39.1545407 96.3769865,39.1458419 96.502656,39.1110467 C96.7365577,39.0420363 96.772635,38.7926708 96.7816544,38.0439945 L96.8628285,32.9453407 C96.8628285,32.7736845 96.8898865,32.6530612 96.9806812,32.6530612 C97.079894,32.6530612 97.1598655,32.7644058 97.3137957,32.9192444 C97.4220278,33.0311689 98.7905629,34.4357343 100.104982,35.6837214 C100.718297,36.2688604 101.934105,37.5098885 102.086833,37.6473295 L102.131929,37.6473295 L102.042337,33.781005 C102.033318,33.2555978 101.952144,33.0920604 101.736281,33.0050725 C101.601592,32.9546195 101.383925,32.9546195 101.258255,32.9546195 C101.150023,32.9546195 101.113946,32.9285231 101.113946,32.8763303 C101.113946,32.8078998 101.213159,32.799201 101.347848,32.799201 C101.817455,32.799201 102.249181,32.8252974 102.437986,32.8252974 C102.536597,32.8252974 102.879934,32.799201 103.32128,32.799201 C103.43793,32.799201 103.527522,32.8078998 103.527522,32.8763303 C103.527522,32.9285231 103.474008,32.9546195 103.365776,32.9546195 C103.275582,32.9546195 103.204029,32.9546195 103.096398,32.9801359 C102.844457,33.0485664 102.7711,33.2295014 102.763283,33.7114146 L102.662868,39.1458419 C102.662868,39.3354756 102.626791,39.412025 102.54742,39.412025 C102.447005,39.412025 102.338773,39.318078 102.240161,39.2229712 C101.673145,38.7056829 100.520473,37.5777391 99.5836639,36.6916218 C98.6011567,35.7620106 97.6018134,34.6845198 97.4394652,34.5209825 L97.4124072,34.5209825 L97.51162,38.1379415" id="Fill-29" fill="#6D6E70"></path>
          <path d="M105.768723,35.1507753 C105.768723,33.8418966 105.768723,33.6000701 105.750685,33.3251881 C105.732646,33.0323287 105.643054,32.8861889 105.444628,32.8432749 C105.346017,32.8171785 105.229367,32.8078998 105.121135,32.8078998 C105.029738,32.8078998 104.975622,32.7922419 104.975622,32.7226516 C104.975622,32.6704588 105.04898,32.6530612 105.192688,32.6530612 C105.534822,32.6530612 106.101838,32.6791576 106.364,32.6791576 C106.588882,32.6791576 107.119821,32.6530612 107.462556,32.6530612 C107.579808,32.6530612 107.651361,32.6704588 107.651361,32.7226516 C107.651361,32.7922419 107.597846,32.8078998 107.507653,32.8078998 C107.416257,32.8078998 107.344703,32.8171785 107.236471,32.8339962 C106.99355,32.8774901 106.921396,33.0242098 106.903958,33.3251881 C106.885318,33.6000701 106.885318,33.8418966 106.885318,35.1507753 L106.885318,36.6666853 C106.885318,37.5011897 106.885318,38.1814355 106.921396,38.5520041 C106.948454,38.7851319 107.011589,38.9399704 107.281568,38.9736057 C107.407839,38.9910033 107.606866,39.0084009 107.741555,39.0084009 C107.840767,39.0084009 107.885864,39.0344973 107.885864,39.0774114 C107.885864,39.1383029 107.813709,39.1632395 107.714497,39.1632395 C107.119821,39.1632395 106.552805,39.1383029 106.309884,39.1383029 C106.101838,39.1383029 105.534822,39.1632395 105.175251,39.1632395 C105.056797,39.1632395 104.993661,39.1383029 104.993661,39.0774114 C104.993661,39.0344973 105.029738,39.0084009 105.139173,39.0084009 C105.273862,39.0084009 105.382094,38.9910033 105.463268,38.9736057 C105.643054,38.9399704 105.696569,38.7938306 105.723627,38.5438853 C105.768723,38.1814355 105.768723,37.5011897 105.768723,36.6666853 L105.768723,35.1507753" id="Fill-31" fill="#6D6E70"></path>
          <path d="M114.353187,36.1917311 C114.353187,34.2629182 113.191496,33.0653841 111.714728,33.0653841 C110.677504,33.0653841 109.498976,33.6174676 109.498976,35.7620106 C109.498976,37.5528025 110.533194,38.9736057 112.263706,38.9736057 C112.893256,38.9736057 114.353187,38.6807463 114.353187,36.1917311 M108.256111,36.0281937 C108.256111,34.5557777 109.272891,32.6530612 111.975688,32.6530612 C114.218498,32.6530612 115.614092,33.9010484 115.614092,35.8733552 C115.614092,37.845662 114.173402,39.4039061 111.885495,39.4039061 C109.299949,39.4039061 108.256111,37.5528025 108.256111,36.0281937" id="Fill-33" fill="#6D6E70"></path>
          <path d="M118.015272,38.1379415 C118.033311,38.8100684 118.149961,39.0327576 118.329747,39.0936491 C118.483076,39.1458419 118.655045,39.1545407 118.799354,39.1545407 C118.897966,39.1545407 118.952082,39.1719383 118.952082,39.2229712 C118.952082,39.2919816 118.870908,39.3093792 118.745238,39.3093792 C118.158981,39.3093792 117.79941,39.2832829 117.628042,39.2832829 C117.547469,39.2832829 117.12356,39.3093792 116.655155,39.3093792 C116.538505,39.3093792 116.457331,39.3006804 116.457331,39.2229712 C116.457331,39.1719383 116.511447,39.1545407 116.601039,39.1545407 C116.718291,39.1545407 116.880038,39.1458419 117.006309,39.1110467 C117.24021,39.0420363 117.276288,38.7926708 117.286509,38.0439945 L117.36588,32.9453407 C117.36588,32.7736845 117.392938,32.6530612 117.484334,32.6530612 C117.583547,32.6530612 117.664119,32.7644058 117.816847,32.9192444 C117.925079,33.0311689 119.293614,34.4357343 120.608635,35.6837214 C121.22195,36.2688604 122.437758,37.5098885 122.590485,37.6473295 L122.635582,37.6473295 L122.545388,33.781005 C122.53697,33.2555978 122.455796,33.0920604 122.239332,33.0050725 C122.104643,32.9546195 121.887578,32.9546195 121.761307,32.9546195 C121.653676,32.9546195 121.617599,32.9285231 121.617599,32.8763303 C121.617599,32.8078998 121.716811,32.799201 121.8515,32.799201 C122.320506,32.799201 122.752232,32.8252974 122.941037,32.8252974 C123.041452,32.8252974 123.383586,32.799201 123.824331,32.799201 C123.940982,32.799201 124.031175,32.8078998 124.031175,32.8763303 C124.031175,32.9285231 123.97766,32.9546195 123.869428,32.9546195 C123.779235,32.9546195 123.70708,32.9546195 123.599449,32.9801359 C123.347509,33.0485664 123.274151,33.2295014 123.266335,33.7114146 L123.167723,39.1458419 C123.167723,39.3354756 123.130443,39.412025 123.051073,39.412025 C122.950658,39.412025 122.842425,39.318078 122.743213,39.2229712 C122.176798,38.7056829 121.023524,37.5777391 120.086715,36.6916218 C119.104809,35.7620106 118.104865,34.6845198 117.943118,34.5209825 L117.91606,34.5209825 L118.015272,38.1379415" id="Fill-35" fill="#6D6E70"></path>
          <path d="M123.85345,5.50922226 C124.03985,4.63818291 124.672407,3.99737167 125.442057,3.5235773 C126.235158,3.03528494 127.378811,2.59396606 128.552528,2.71690904 C128.777411,2.74010582 129.180876,2.8131757 129.394334,2.94481747 C129.408163,2.95351626 129.423797,2.9633749 129.435221,2.97439337 C129.46709,2.99759016 129.492945,3.02020702 129.510984,3.04862309 C129.526618,3.07471947 129.538042,3.10081586 129.538042,3.12923192 C129.554878,3.32872429 129.155021,3.46674517 128.937955,3.54445441 C128.192356,3.81121746 127.260958,3.92024236 126.514157,4.14351143 C125.444462,4.46304717 124.685034,5.01571062 123.85345,5.50922226 M130.161579,3.35888011 C130.180821,4.52103914 128.393187,4.64282227 127.393242,4.88928813 C126.920027,5.00585199 126.476877,5.1595307 126.106482,5.32364797 C125.669946,5.51676122 125.32661,5.80324154 124.947196,5.94416202 C124.647754,6.05608652 124.437302,6.09320138 124.154095,5.96445921 C124.227452,5.53531865 124.775227,5.41991463 125.141412,5.26159656 C125.520225,5.09805922 125.917677,4.89566725 126.34339,4.76402548 C127.237508,4.48798372 128.328849,4.46826645 128.981849,3.99911143 C129.216953,3.82977489 129.34142,3.58156927 129.538042,3.39831465 C129.61621,3.33510341 129.696181,3.27537168 129.77495,3.21274036 C129.869954,3.17388574 129.960749,3.12923192 130.032903,3.06892028 C130.038315,2.95989538 129.967363,2.92394036 129.903025,2.88160622 C129.622824,2.67689458 129.418385,2.3532994 129.088277,2.24079498 C128.266916,1.95431466 127.219469,2.16018615 126.449819,2.42636928 C125.644091,2.70763032 124.95862,3.12053313 124.497431,3.50270019 L124.476987,3.50270019 C124.285176,3.65637891 124.102985,3.8181765 123.940036,3.99911143 C123.43856,4.46304717 123.254566,5.1299548 122.974365,5.75858772 C122.700778,6.37446242 122.382094,6.99033711 122.13737,7.63984715 C121.643109,8.96264392 121.291956,10.384607 120.957038,11.8622423 C120.91134,10.6821058 121.149451,9.52922544 121.451298,8.48942947 C121.75074,7.45775237 122.108508,6.48638691 122.567292,5.65420218 C122.82284,5.19432588 123.021867,4.78200299 123.317701,4.41317408 C124.177545,3.33858293 125.46671,2.58990663 127.072153,2.17700382 C127.161745,2.1822231 127.237508,2.1735243 127.286212,2.13640944 L127.30846,2.13640944 C127.426313,2.13872912 127.530336,2.13119016 127.607902,2.09581506 L127.629549,2.09581506 C128.013773,2.07783755 128.452113,2.05580061 128.830925,2.09581506 L128.853173,2.09581506 C128.959601,2.13640944 129.096094,2.15090743 129.216953,2.17700382 C129.49054,2.28022952 130.124299,2.55511145 130.161579,2.84043193 C130.174206,2.92973956 130.080405,2.9633749 130.075595,3.06892028 C130.074392,3.15300863 130.161579,3.27189216 130.161579,3.35888011 M132.436258,4.63992267 C132.346666,3.44180863 131.625118,2.66935562 130.74002,2.17700382 C129.841092,1.67943274 128.538097,1.49327852 127.178582,1.7432239 C125.704219,2.01752591 124.32907,2.81201586 123.403685,3.75032589 C123.271402,3.88544718 123.157157,4.03158694 123.035095,4.17308734 C123.010442,4.20034356 122.98639,4.22875962 122.961738,4.25717569 C122.237785,5.12009616 121.681592,6.11175881 121.257683,7.26811863 C121.053244,7.82484152 120.865642,8.41345999 120.694876,9.0357138 C120.688262,9.05833067 120.681647,9.08036761 120.67804,9.10298448 C120.473601,9.83194351 120.31005,10.5788801 120.199413,11.3548126 C120.180773,11.4876142 120.159728,11.6215756 120.143493,11.7578567 C119.979942,12.9861266 119.943865,14.5020366 120.185583,15.647378 C120.261346,16.0121475 120.335906,16.4755033 120.657596,16.6007659 C120.82295,16.4581057 120.804912,16.2400559 120.850008,16.0614406 C121.602823,13.0696351 123.586477,11.5003724 126.17082,10.2680431 C127.534545,9.61795315 129.002293,9.14879814 130.268008,8.38620377 C131.500651,7.64390658 132.587783,6.64238531 132.436258,4.63992267 M121.409208,21.6483868 C121.266702,21.6472269 121.242049,21.5329828 121.129007,21.5045667 C120.850008,21.235484 120.546357,20.9913378 120.035261,20.9455241 C120.143493,20.8335996 120.474804,20.8585362 120.657596,20.8834727 C121.02318,20.9664012 121.63409,21.3195723 121.409208,21.6483868 M119.734616,23.5522631 C119.569863,23.6908639 119.464637,23.8915161 119.306498,24.0069201 C119.13032,24.1362422 118.842904,24.1147852 118.64087,24.1942342 C118.553683,24.2278695 118.490548,24.3502325 118.383519,24.3589313 C117.923532,24.3948864 117.781026,23.50239 117.826123,23.0140976 C117.830933,22.9671241 117.886252,22.6858631 117.868213,22.8285233 C117.847769,23.3179755 117.948185,23.6885442 118.168858,23.9454486 L118.168858,23.942549 C118.168858,23.9437089 118.170061,23.9454486 118.170061,23.9471884 C118.177877,23.9651659 118.221772,24.0602727 118.283103,24.0765105 C118.287312,24.0765105 118.292122,24.0788301 118.296332,24.0788301 C118.302946,24.0840494 118.313168,24.0875289 118.325795,24.0910084 C118.381113,24.1037667 118.479124,24.1037667 118.512194,24.1113056 C118.648687,24.0776703 118.690777,23.9251514 118.791193,23.8410631 C118.94392,23.7146406 119.15377,23.6786856 119.326942,23.5731402 C119.482676,23.4774534 119.61496,23.3266743 119.777909,23.2211289 C120.100802,23.0129378 120.414074,22.8395418 120.67804,22.5594406 C120.793487,22.4388173 120.895105,22.2259868 121.108563,22.2491836 C121.153058,22.8986936 120.174159,23.1863338 119.734616,23.5522631 M118.940313,21.7933667 C119.159783,21.5909747 119.473657,21.3978615 119.798353,21.3595868 C120.20242,21.3131932 120.693072,21.5045667 120.721333,21.7719097 C120.7526,22.0520109 120.3798,22.2567225 120.163937,22.3721265 C119.879527,22.5258053 119.602333,22.6127932 119.39128,22.7450149 C118.93911,23.0314952 118.655903,23.4223611 118.438837,23.8857169 C118.399152,23.942549 118.326997,24.0272173 118.268071,24.0208382 C118.254843,24.0132992 118.241013,24.0069201 118.227183,23.9947418 C118.203733,23.9686454 118.186897,23.9176125 118.176675,23.8335241 C118.228987,23.0193169 118.441844,22.253243 118.940313,21.7933667 M120.018425,20.4879675 C120.000386,20.4926069 119.98355,20.5007257 119.970923,20.5105844 C119.984753,20.5007257 120.000386,20.4926069 120.018425,20.4879675 M120.080358,20.4746294 C120.063522,20.4757892 120.049091,20.4792687 120.035261,20.4827482 C120.046686,20.4804286 120.05811,20.476949 120.070737,20.4746294 C119.987759,20.4868077 119.905383,20.491447 119.820601,20.5105844 C119.061172,20.6776013 118.494156,21.0458502 118.10452,21.4622326 C117.713081,21.8838342 117.3493,22.4689731 117.28857,23.2634631 C117.161698,24.9539289 118.138192,26.0325795 119.326942,26.491296 C121.585386,27.3611755 123.569641,25.8377265 123.81136,23.9651659 C123.916585,23.1602374 123.689298,22.3657474 123.231717,21.7521924 C122.629826,20.9443643 121.503009,20.2635386 120.080358,20.4746294" id="Fill-37" fill="#DA2246"></path>
          <path d="M112.648733,20.582588 C112.200171,21.4588466 111.305452,22.1506908 110.439595,22.6094073 C109.834096,22.9301028 109.15524,23.2189028 108.421667,23.4375326 C107.692904,23.6544225 106.87515,23.8823309 106.019515,23.7895438 C106.335192,23.5749735 106.724828,23.5540964 107.070569,23.4584097 C109.14141,22.8906683 111.162946,21.9645366 112.197766,20.3755567 C112.378754,20.0995149 112.543507,19.752143 112.799055,19.506837 L112.841145,19.506837 C112.981246,19.8959631 112.805669,20.2752306 112.648733,20.582588 M102.929488,20.1685254 C102.347439,20.4178908 101.563358,20.8626892 101.235655,21.3277848 C101.146063,21.4524675 101.082927,21.7627245 100.93501,21.7627245 C100.835797,21.7627245 100.74861,21.5928081 100.742597,21.4716049 C100.715539,20.9966506 101.296385,20.5715695 101.621683,20.3546796 C102.041383,20.0757382 102.55308,19.8054956 103.036517,19.7533029 C103.203676,19.7370651 103.44359,19.7312659 103.573469,19.8379711 C103.44359,20.0571808 103.148357,20.0757382 102.929488,20.1685254 M111.998137,18.6665334 C112.008961,18.6885703 112.020385,18.7111872 112.029404,18.7332242 C112.020385,18.7111872 112.008961,18.6885703 111.998137,18.6665334 M102.522414,12.9682427 C102.421999,13.1613559 102.389529,13.4750925 102.179078,13.5272852 C101.88625,13.1381591 102.159837,12.6968403 102.350446,12.3894828 C102.939108,11.4471134 103.983548,10.8161608 105.011753,10.3400467 C106.45545,9.67081942 108.108996,9.0984387 109.96638,8.97549573 C110.19487,8.9598379 110.440797,8.93374151 110.652451,8.99579292 C110.502129,9.14541219 110.268828,9.14425236 110.074612,9.18252705 C108.599047,9.4637881 107.208264,9.847115 105.955177,10.3823809 C104.593857,10.9628805 103.153167,11.7573704 102.522414,12.9682427 M116.101939,17.0856724 C114.78752,15.0843696 111.10402,15.232829 108.207006,14.6650876 C107.33694,14.4940113 106.109708,14.2226089 106.169837,13.2779198 C106.191484,12.9201094 106.438614,12.6579857 106.748278,12.4474748 C106.937083,12.3210523 107.148135,12.2155069 107.349567,12.1204001 C108.086147,11.7695487 109.099921,11.4511728 109.945936,11.8095632 C110.542415,12.063568 110.967527,12.474731 111.640971,12.7200371 C112.281345,12.9520049 113.091883,12.8539985 113.742479,12.6782828 C114.13031,12.5738973 114.488078,12.4422555 114.837427,12.2850973 C115.453147,12.0073158 116.282927,11.6060114 116.380937,10.8584949 C116.463314,10.2287021 115.649769,9.66618006 115.287192,9.40927565 C114.275822,8.69423469 113.032957,8.23319855 111.469003,8.16708771 C110.687326,8.13519212 109.845521,8.30974794 109.193723,8.43617043 C107.314693,8.80557927 105.572155,9.4168146 104.109819,10.2571182 C103.465838,10.6288467 102.722644,11.1188788 102.179078,11.7475118 C101.69985,12.3048146 101.14486,13.2245672 101.364331,14.251025 C101.374553,14.2997383 101.392591,14.3403326 101.407022,14.3861463 C101.407022,14.3896258 101.408225,14.3925254 101.409427,14.3948451 C101.47136,14.6094154 101.569972,14.7938298 101.694439,14.9573672 C101.702255,14.9672258 101.710072,14.9770844 101.717889,14.987523 C102.058219,15.4247824 102.578936,15.7275005 103.122501,15.94787 C103.943863,16.2801639 104.972068,16.4895149 105.912485,16.6716097 C106.615994,16.8096306 107.415108,16.9186555 108.201595,17.0514571 C108.226248,17.0549366 108.246692,17.0572563 108.268338,17.0636354 C108.349512,17.0775535 108.428882,17.0908916 108.507651,17.1042298 L108.507651,17.1053896 C108.514265,17.1053896 108.516671,17.1053896 108.520278,17.1082892 C108.546134,17.1082892 108.565375,17.1135085 108.584616,17.1193077 C108.601452,17.1193077 108.615282,17.1233671 108.629713,17.1268467 C108.757186,17.1494635 108.882856,17.1761398 109.009127,17.2010764 C109.013937,17.2010764 109.020551,17.2033961 109.022956,17.2051358 C109.232205,17.2480499 109.438448,17.2915439 109.637474,17.3448965 C109.651304,17.3472161 109.666938,17.3512756 109.680767,17.3564949 C110.390289,17.5374298 111.024048,17.7775165 111.489446,18.120829 C111.980099,18.481539 112.247673,19.1438073 111.96206,19.8576884 C111.768445,20.3471406 111.43052,20.7635229 111.007813,21.1207535 C110.993382,21.1317719 110.980755,21.1439502 110.966324,21.1555486 C110.958508,21.1619278 110.9549,21.1654073 110.948286,21.1729462 C110.890562,21.2187599 110.828629,21.2668932 110.766095,21.3127069 C110.722201,21.3428627 110.681914,21.3724386 110.641027,21.4020145 C110.029515,21.8270956 109.295341,22.1570699 108.550343,22.4244129 C107.496282,22.8025205 105.493988,23.3319872 104.304036,22.7752643 C104.020828,22.6430426 103.827213,22.4679069 103.744235,22.2162217 C103.611951,21.809698 103.766483,21.4194121 103.938451,21.2233992 C104.178967,20.950837 104.653385,20.8481912 105.118783,20.7275679 C105.558326,20.6139037 106.015306,20.4132515 105.976823,19.9191599 C105.948563,19.5393125 105.550509,19.4076707 105.269105,19.2998057 C104.696678,19.0817559 104.132668,19.0185446 103.596919,19.0730571 C103.529575,19.0707374 103.469446,19.0730571 103.421944,19.0904547 C103.419539,19.0904547 103.419539,19.0904547 103.419539,19.0939342 C103.020884,19.1472868 102.640267,19.2638507 102.286108,19.4233286 C101.483987,19.7846185 100.621738,20.3830956 100.248938,21.0175278 C99.8605054,21.6774763 100.12387,22.4795053 100.440149,23.0866812 C101.07511,24.3039325 102.146007,25.1169799 103.573469,25.5269831 C105.735105,26.1469173 108.350715,25.6064321 110.052364,25.051449 C111.826169,24.4750089 113.585542,23.5697542 114.793533,22.3414844 C115.373176,21.7540257 115.958231,21.0326057 116.274509,20.127931 C116.607022,19.1786025 116.67136,17.947433 116.101939,17.0856724" id="Fill-39" fill="#DA2246"></path>
          <path d="M81.1932855,13.0612245 C81.1932855,13.0612245 81.1932855,13.0623843 81.192083,13.0623843 C81.1932855,13.0623843 81.1932855,13.0612245 81.1932855,13.0612245" id="Fill-41" fill="#DA2246"></path>
          <path d="M92.7489984,16.6837495 C92.5253187,16.7556596 92.1693552,16.8049527 92.0190328,16.6622925 C92.0869785,16.3961094 92.4032569,16.3102812 92.5998786,16.2076355 C93.2606959,15.8695423 93.8583777,15.4502604 94.4440338,15.0077817 C95.0405131,14.5589238 95.5816737,14.1141254 96.0314384,13.5388451 C96.2310665,13.2807809 96.3837941,12.9647246 96.6549757,12.7518941 C96.9772669,12.7170989 96.7024776,13.395025 96.6549757,13.4982507 C96.3489193,14.1373222 95.6989252,14.6592499 95.1950445,15.0698331 C94.6629032,15.5047728 94.0213272,15.9350732 93.3929796,16.3102812 C93.1747114,16.441923 92.9510317,16.6182186 92.7489984,16.6837495 M92.1693552,11.2841174 C93.0508458,11.3438492 94.1488006,11.3757447 94.9599403,11.6204708 C94.9930112,11.6303295 95.027886,11.6425078 95.0627608,11.6535263 C95.1770058,11.691801 95.2822315,11.7329753 95.3826469,11.7840082 C95.418123,11.8014058 95.4554029,11.8182234 95.4920816,11.8385206 C95.638195,11.9214492 95.7632632,12.0182957 95.8606721,12.1308002 C96.356736,12.7107198 95.6616453,13.3381929 95.2389387,13.7458764 C94.2438044,14.7050636 92.9546394,15.5592853 91.676899,16.1664612 C91.8416524,14.5368869 92.0076083,12.9131118 92.1693552,11.2841174 M79.1682713,10.1451552 C78.4202671,10.2814363 77.3920618,10.4113383 76.9807797,10.8491777 C76.8611231,10.97676 76.7468781,11.4772307 76.551459,11.4691118 C76.3241715,11.460413 76.3776863,11.0794058 76.422783,10.9309463 C76.6825401,10.0819439 77.9109748,10.0854235 78.912122,9.93812387 C80.9931853,9.63308612 83.3039412,9.3877801 85.4974457,9.27643552 C85.5347257,9.2700564 85.5389347,9.29209335 85.5401373,9.31818974 C83.5510713,9.56233592 81.1910096,9.77806604 79.1682713,10.1451552 M79.5717367,21.178127 C79.5639199,21.1473912 79.557907,21.1125961 79.5512928,21.076641 L79.5512928,21.0691021 C79.5561031,21.1085366 79.5627173,21.1462314 79.5717367,21.178127 M79.5368619,20.8771487 C79.5368619,20.8916467 79.5380644,20.9055647 79.5380644,20.9218025 C79.5380644,20.9055647 79.5368619,20.8916467 79.5368619,20.8771487 M76.7234278,15.6079985 C76.541237,15.7877736 76.4125611,16.196617 76.165431,15.8144499 C76.1377717,15.4195246 76.464272,15.2090138 76.7017814,15.0274989 C77.0385035,14.7746539 77.3391483,14.5252885 77.6025132,14.2005335 C77.7347969,14.038156 77.8237878,13.8583809 78.0745255,13.806768 C78.4767883,14.7584162 77.1978453,15.1440628 76.7234278,15.6079985 M82.1729155,21.8560531 C82.9876629,21.7302105 83.8823818,21.5985687 84.8113743,21.6496017 C84.2203066,21.849094 83.5727177,21.9030266 82.9233249,22.02249 C82.610053,22.0781623 82.2895657,22.1280354 81.9799015,22.2069045 C81.5571949,22.3159294 81.1819902,22.5096226 80.6925405,22.3942185 C80.9787543,22.0497463 81.5986839,21.9442009 82.1729155,21.8560531 M100.041439,13.4779536 C100.033622,13.4907118 100.024603,13.5028901 100.015583,13.5156483 C100.024603,13.5028901 100.033622,13.4907118 100.041439,13.4779536 M100.302398,13.0801287 C100.299993,13.0853479 100.296987,13.0888275 100.295784,13.0928869 C100.296987,13.0888275 100.299993,13.0853479 100.302398,13.0801287 M94.8937984,18.1318089 C96.7355485,16.7556596 98.7252158,15.4230041 100.022197,13.5597222 C100.249485,13.2338074 100.451518,12.882956 100.598233,12.4938299 C100.652349,12.3540692 100.698047,12.2137287 100.730517,12.0687487 C100.744346,12.0130765 100.762385,11.9608837 100.772607,11.9040516 C100.902485,11.19365 100.690832,10.5638572 100.258504,10.1039809 C99.5038858,9.29847247 98.2201325,8.86585239 96.8684335,8.59329014 C94.8168334,8.1792275 92.3545524,8.05396485 90.0257578,8.26215601 C89.6475466,8.29695119 89.2687342,8.31260902 88.8899217,8.32652709 L88.8700791,8.32652709 C88.8111528,8.32768693 88.753429,8.32884677 88.6969077,8.33174637 C88.689091,8.33174637 88.6824768,8.33174637 88.6776665,8.33290621 C88.3367353,8.34160501 87.9988105,8.3503038 87.6644935,8.36654155 C84.4758547,8.50978171 81.5355485,8.83105721 78.760597,9.31818974 C78.0498727,9.44229255 77.1683821,9.54493833 76.6374434,9.83489817 C76.3404063,9.99611583 76.092675,10.3707439 75.9291242,10.6844805 C75.8960533,10.7488516 75.8647862,10.8120628 75.8395321,10.8764339 C75.8317153,10.8949913 75.8214934,10.9135488 75.8172843,10.9309463 C75.8004482,10.969221 75.7866186,11.0074957 75.7763967,11.0463504 C75.7493386,11.1240596 75.7312999,11.2011889 75.7144638,11.2765785 C75.6645568,11.5236243 75.6645568,11.756172 75.7108561,11.9719022 C75.7120587,11.9846604 75.7120587,11.9956789 75.7144638,12.0078572 C75.7222806,12.0403327 75.7300974,12.0722283 75.7379141,12.1012243 C75.7457309,12.1331198 75.7559528,12.1632757 75.7673773,12.1928516 C75.7890237,12.2508435 75.812474,12.305356 75.8395321,12.3610283 C76.1143214,12.904413 76.7053891,13.279621 77.4317469,13.3741479 C77.3559845,13.6246732 77.3367432,13.9285511 77.2597781,14.1796564 C77.0992338,14.2712837 76.9212521,14.3623311 76.7414665,14.4585977 C76.7378587,14.4603375 76.7336497,14.4609174 76.730042,14.4620772 C76.6783311,14.4910732 76.628424,14.5154299 76.578517,14.5450058 C76.078244,14.8222074 75.5966111,15.1539214 75.4793596,15.690927 C75.3434681,16.3068017 75.7300974,16.9452933 75.9934622,17.2410523 C76.0421667,17.2973045 76.1594181,17.380233 76.2760683,17.4707005 C76.2772709,17.4718603 76.2814799,17.47418 76.2838851,17.47418 C76.3686669,17.5547889 76.4588604,17.6307583 76.5478512,17.6986089 C76.551459,17.7015085 76.551459,17.7015085 76.5538641,17.7026684 C76.5875363,17.7397832 76.6103853,17.7728387 76.6157969,17.8018346 C76.6464627,17.9282571 76.541237,18.2095182 76.5087674,18.4217688 C76.3331908,19.5839278 76.1912865,20.6069061 76.0578002,21.7110732 C75.9832403,22.3385463 75.8293101,22.9706587 75.9934622,23.4699695 C76.2261613,24.1681928 76.7751387,24.657645 77.4101005,25.1250603 C78.0462649,25.5924755 78.7040758,25.9926201 79.4689161,26.181094 C80.0563761,26.3249141 80.5879161,26.0807679 81.0791697,25.8911342 C81.436937,25.7519535 81.794103,25.5924755 82.0869311,25.4567743 C83.4181863,24.8501784 84.6189616,24.2325639 85.8834737,23.4914266 C86.4114059,23.1829093 87.3355881,22.7746458 87.3860964,22.1251358 C87.410148,21.8177784 87.2159314,21.5214394 87.0866542,21.3805189 C86.8882286,21.1682683 86.4859658,20.8916467 86.162472,20.8226362 C85.7229293,20.7269495 85.045276,20.8278555 84.5107295,20.8829479 C83.4747075,20.9948724 82.5342906,21.1334732 81.6137162,21.3602218 C81.1278742,21.4785254 80.662476,21.7360097 80.2205281,21.6704788 C79.9469414,21.6293045 79.6511069,21.3358651 79.5987947,21.1537704 C79.5278425,20.9096242 79.5855663,20.5947278 79.5987947,20.3256451 C79.6426888,19.4134314 79.732281,18.77378 79.8555454,17.9468146 C81.1693631,17.7078877 82.5571396,17.380233 83.824658,17.0566379 C84.692319,16.8351085 86.3218138,16.4691792 85.6688133,15.2977415 C85.0043883,14.1002074 82.4092223,14.3791487 80.6708941,14.3246363 C80.7965636,13.886217 80.909606,13.4373592 81.0521117,13.0169174 C80.8584964,13.366609 80.8170074,13.8676596 80.6486463,14.2417078 C80.8170074,13.8676596 80.8584964,13.3654491 81.0521117,13.0169174 L81.0521117,13.0157576 C81.0545168,13.0111182 81.0575233,13.0047391 81.0599284,12.9995198 C83.2847,12.6016949 85.4992496,12.1940114 87.7083876,11.7799488 C87.6368342,15.4809961 87.717407,19.5050587 88.0938143,22.9938555 C88.1581522,23.5842137 88.2585676,24.0777254 88.3511662,24.6912804 C88.4269287,25.1818924 88.487659,26.0448129 88.8652688,26.1404996 C89.1274311,26.2037109 89.4214617,26.0065382 89.6168808,25.8696771 C89.8495799,25.7101992 90.0708545,25.5513012 90.2187717,25.3953029 C91.2493821,24.2957751 90.9956379,21.8525736 91.2686234,20.0368451 C91.6281946,20.2409768 91.9071929,20.5599326 92.2348958,20.8226362 C93.2504739,21.6356836 94.2786792,22.3855197 95.3231192,23.1602924 C96.3248677,23.9014298 97.2845259,24.8049446 98.3710562,25.5176659 C98.7071771,25.7397751 99.1497263,26.1376 99.5712303,26.1404996 C99.996342,26.1416595 100.354711,25.8192241 100.451518,25.41618 C100.669786,24.5004868 100.104574,23.5743551 99.6788611,23.0361896 C98.2604189,21.2366989 96.1114099,19.9214411 94.8937984,18.1318089" id="Fill-43" fill="#DA2246"></path>
          <path d="M31.1507336,16.3750798 C30.7394515,16.7903023 29.7653623,16.8622123 29.091918,16.8100195 C29.3180029,16.5710926 29.664947,16.5797914 29.9487557,16.4580083 C30.2331657,16.3356452 30.4339964,16.1286139 30.6354284,15.94014 C30.7977766,15.7928404 31.4453655,15.0673609 31.4513784,15.7539858 C31.452581,15.990593 31.2613709,16.2637352 31.1507336,16.3750798 M29.9944537,13.0272035 C30.0070808,13.0074862 30.0215117,12.9912485 30.0377465,12.9715312 C30.2578185,13.8947633 30.5067524,14.8951248 30.6997664,15.7754428 C29.8976461,15.8954862 29.0522329,15.9784147 28.275968,16.1257143 C28.7600061,15.0870782 29.3799357,14.0072678 29.9944537,13.0272035 M26.1949047,15.4228517 C25.2875586,17.4560501 24.4673996,19.5385416 23.7272121,21.7549946 C23.6063529,22.1215038 23.4885001,22.4949721 23.3838757,22.8730797 C23.2876694,23.2297303 23.2545985,23.6385737 22.9984491,23.9488307 C22.871577,23.1149062 23.1487715,22.2977994 23.3838757,21.5479633 C24.0771627,19.3512276 24.9201707,17.2623569 25.809478,15.2158204 C26.8250562,12.8833834 27.9133903,10.5045529 29.091918,8.24402604 C29.2795203,7.88563568 29.4544956,7.52724533 29.692005,7.27208067 C29.7100437,7.26802123 29.7136514,7.27903971 29.7136514,7.29179794 C29.847739,8.11470395 29.3113887,8.78393126 28.9836858,9.42242282 C27.9921593,11.3610943 27.11127,13.3768951 26.1949047,15.4228517 M29.5200362,5.84373851 C29.5470942,5.60713129 29.8014397,5.44475378 29.9710034,5.63670719 C30.1958857,5.88955217 29.847739,6.20212887 29.756343,6.40162124 C29.6342812,6.29491602 29.4953833,6.07686622 29.5200362,5.84373851 M35.6772418,22.5407858 C35.25213,19.6661239 34.7945486,16.9961738 34.2828512,14.2641722 C33.9569522,12.5116549 33.5967797,10.6013995 33.1674589,8.94630877 C32.7495627,7.33007264 31.9143714,5.73471361 30.5290001,5.07824454 C30.3822855,5.00691442 30.2103166,4.93674414 30.0353414,4.9118076 C28.7461765,4.72855298 28.7912732,6.40568068 28.9620394,7.47795215 C27.4173264,10.2018349 26.079457,13.2498927 24.7584238,16.3750798 C24.1270697,17.8660533 23.4999246,19.4306765 22.9341111,21.0927263 C22.6749553,21.8588002 22.371304,22.7437576 22.2263932,23.6374139 C22.0808812,24.5374492 22.0436012,26.0127648 22.8276828,26.141507 C23.2004824,26.2035584 23.5552433,25.9454942 23.7711062,25.7489014 C24.480628,25.0988114 24.7800702,23.9992837 25.1234066,23.0998283 C25.6194705,21.7996484 26.1618337,20.5707986 26.7306537,19.3958814 C28.1424817,19.080985 29.9427428,19.0316918 31.5584079,18.9818187 C32.0610861,20.7668115 32.0683015,23.1415825 33.2317969,24.2179135 C33.4885476,24.4545207 33.9310967,24.6789496 34.3267453,24.8993191 C34.637612,25.073295 35.2545352,25.4473432 35.6351515,25.231613 C35.9237705,25.0669159 35.9303847,24.5154122 35.8702557,23.9488307 C35.8227538,23.4790958 35.7391746,22.9420902 35.6772418,22.5407858" id="Fill-45" fill="#DA2246"></path>
          <g id="Group-49" transform="translate(0.000000, 0.040632)">
            <mask id="mask-2" fill="white">
              <use xlink:href="#path-1"></use>
            </mask>
            <g id="Clip-48"></g>
            <path d="M10.5358604,7.21824419 C10.4035767,8.21976546 10.1335976,9.09602409 9.93577334,10.0517317 C9.86121343,10.4199807 9.84076958,10.8067871 9.65677496,11.1280626 C9.59784858,9.74959356 9.90089854,8.56307791 10.1931253,7.50704418 C10.2736981,7.21940403 10.234013,6.85637431 10.4937701,6.65920162 C10.6645363,6.80534138 10.5593107,7.04832772 10.5358604,7.21824419 M9.01279379,15.3498779 C8.85224947,15.4548433 8.63398134,15.5047164 8.39106034,15.5766264 C8.15294965,15.6496963 7.94610603,15.825412 7.79097331,15.825412 C7.64185349,15.825412 7.51438009,15.7192867 7.51197493,15.6183807 C7.50415817,15.3753943 7.88717965,15.3324803 8.09041553,15.2454923 C8.71094641,14.9839485 9.06811243,14.3321188 9.48480613,13.8797815 C9.61708985,14.5078345 9.43730425,15.0755758 9.01279379,15.3498779 M16.8012981,15.4936979 C18.576305,15.0854345 20.1997869,14.3703935 21.1335897,13.1554618 C21.5081931,12.6712289 21.7457025,12.0739116 22.0770131,11.4388996 C22.0836273,11.4168626 22.1209072,11.4249815 22.1209072,11.3971454 C22.1389459,11.3942458 22.1431549,11.4052642 22.1431549,11.4180225 C22.1605923,11.4226618 22.1635988,11.4388996 22.1852452,11.4388996 C22.1714156,13.0934104 21.1059304,14.1917783 19.9761072,14.8117124 C18.8228337,15.4438248 17.3063813,15.7598811 15.7063497,15.7622007 C16.0532938,15.594024 16.4429295,15.5766264 16.8012981,15.4936979 M20.6092652,13.1705397 C20.6405322,13.1444433 20.6675902,13.1148674 20.6904393,13.0812321 C20.7223076,13.0429574 20.7613914,13.0104819 20.7908546,12.9698875 C20.7199024,13.0655743 20.633918,13.1444433 20.5557504,13.2325911 C20.5737891,13.2128739 20.5930303,13.1914168 20.6092652,13.1705397 M5.23669506,1.0728354 C4.74604274,1.1522844 4.27162524,1.25377034 3.80021419,1.36279524 C2.81710568,1.58838399 1.96327444,1.927637 1.20384566,2.23151491 C1.13830509,2.2576113 0.849084793,2.26746993 0.817216444,2.1074121 C0.779936488,1.91893821 1.15393862,1.79135588 1.33252164,1.71364664 C2.77561669,1.09023299 4.7135731,0.727783197 6.73931779,0.823469944 C6.25467836,0.983527773 5.73336027,0.993386408 5.23669506,1.0728354 M23.3228852,15.7413236 C24.5435031,14.6841301 25.3221731,13.1856176 25.4899329,11.3136369 C25.6721236,9.26072128 24.7220861,7.73669237 23.6878679,6.55481608 C22.6686821,5.39091729 21.3536617,4.41317272 19.9977536,3.5960659 C18.6159901,2.76852053 17.0905184,2.06391813 15.4273513,1.48689805 C13.0486496,0.658192837 10.1606557,-0.127598321 6.84634734,0.0173815971 C5.81152792,0.0626153316 4.77069561,0.13684505 3.84230446,0.389690028 C2.73953932,0.693567937 1.60250067,0.941193637 0.688540468,1.46544102 C0.416156276,1.62317917 0.0253180314,1.87080487 0.00186773674,2.16946351 C-0.0257915852,2.56148921 0.259219689,2.7853382 0.494323925,2.96279362 L0.495526504,2.96279362 C0.509957455,2.97555185 0.524388405,2.98657033 0.538218066,2.99642896 C1.0396936,3.37917595 1.74380373,3.75728357 2.53389827,3.78337996 C2.96983324,3.79613819 3.41719271,3.7462651 3.75632004,3.5960659 C4.18323567,3.40817193 4.42074506,2.97439201 4.80797557,2.78939764 C5.17416094,2.61542174 5.68585839,2.57772696 6.23303194,2.59860406 C6.83311896,2.62064101 7.47710013,2.71110848 8.02607754,2.76968037 C10.8262832,3.06311972 13.1424508,3.775841 15.2343374,4.73560806 C16.2150407,5.18388597 17.2179918,5.74930765 18.1301481,6.4138956 C18.154801,6.43245303 18.1788526,6.44985062 18.2035054,6.46840805 C18.4981373,6.68645784 18.7843512,6.9120466 19.0543302,7.14981366 C19.0585393,7.15503294 19.0633496,7.15851246 19.0669573,7.1625719 C19.1968359,7.27681607 19.3219041,7.39453977 19.4463711,7.51226346 C19.8077461,7.8642747 20.1390567,8.23484337 20.4258718,8.62512931 C20.8395591,9.18301204 21.3037547,9.92530922 21.3704978,10.6942827 C21.4101829,11.1564787 21.3680926,11.5688016 21.2610631,11.94111 C21.1919148,12.1516209 21.1059304,12.3511132 21.0181421,12.540747 C21.0169395,12.5448064 21.0145343,12.5459662 21.0115279,12.5494457 C20.5016343,13.4854361 19.5233361,14.0804337 18.4734845,14.438824 C16.77424,15.0199036 14.6168129,15.0796353 12.3379253,14.9566923 C12.2308958,13.2563678 12.0986121,11.6569494 11.8881607,9.99142007 C11.741446,8.82578152 11.5640656,7.58533334 11.2658259,6.53393897 C11.2568066,6.50204339 11.2477873,6.46956789 11.2375653,6.43361287 C11.2249383,6.39011889 11.2105073,6.34198556 11.1942725,6.29501207 C11.1010726,6.00215263 10.9639786,5.70465384 10.7084305,5.70755344 C10.3945573,5.71219279 10.1913214,6.20570444 10.0644493,6.4521703 C8.96829836,8.60773172 8.69531288,11.6024369 8.62736715,14.6876096 C7.83847519,14.6928289 7.08385673,14.8401285 6.86799376,15.4316465 C6.55832961,16.2852883 7.48611948,17.045563 8.02607754,17.3778569 C8.14032257,17.4468674 8.3411533,17.5152979 8.48726667,17.5895276 C8.51853373,17.6046055 8.54619305,17.6179437 8.56964335,17.6341814 C8.61834781,17.6654971 8.65322261,17.6962329 8.66945742,17.7292883 C8.70974383,17.8151164 8.68509095,18.0714409 8.69170514,18.2674537 C8.75724571,20.3615437 8.94124033,22.2787581 9.16311619,24.1837942 C9.24429029,24.8756384 9.28638056,25.6121364 9.46255842,26.2117733 C9.58401892,26.6148175 9.84076958,27.03004 10.2791097,27.0816529 C11.0283166,27.1686408 11.6464423,26.171179 11.930251,25.7571163 C12.3457421,25.1557396 12.6205314,24.5236272 12.6602165,23.6682457 C12.7029081,22.7496529 12.5742321,21.8548368 12.5742321,20.9559613 C12.5742321,20.0536063 12.5098941,19.1547308 12.5098941,18.2251196 C17.1061519,18.4930425 20.9694376,17.7826409 23.3228852,15.7413236" id="Fill-47" fill="#DA2246" mask="url(#mask-2)"></path>
          </g>
          <path d="M20.6383414,13.1725691 C20.6148911,13.2062044 20.5872318,13.2357803 20.5571673,13.2618767 C20.5403312,13.2827538 20.5210899,13.303051 20.5030513,13.3227683 C20.5818202,13.2357803 20.6678046,13.1563313 20.7387568,13.0612245 C20.7092936,13.1018189 20.6690072,13.1331345 20.6383414,13.1725691" id="Fill-50" fill="#DA2246"></path>
          <path d="M62.7982805,8.7667305 C61.3846486,9.28227909 60.0738373,10.2316076 58.1214499,10.1115642 C58.5838416,9.87263731 59.0901275,9.81174575 59.5597347,9.65690719 C60.8795654,9.22022768 62.1711354,8.32193211 63.6996136,8.16709355 C63.8908237,8.14679636 64.1475744,8.10968151 64.2997007,8.22856504 C63.8403154,8.52258431 63.2973509,8.58579556 62.7982805,8.7667305 M45.7420995,13.4014485 C45.4360431,14.0202228 44.8113032,14.517214 44.2833709,14.9324365 C43.9262049,15.2160172 43.5419808,15.5100365 43.1252871,15.7814389 C42.7176128,16.0464622 42.2912985,16.3891947 41.8812189,16.5463529 C41.6485199,16.6339208 41.2769229,16.7011915 41.0869154,16.5248959 C41.2101797,16.2720509 41.4969949,16.1792638 41.7092501,16.0702389 C42.8054011,15.5082967 43.901552,14.6842308 44.7565858,13.8155112 C44.9183327,13.6519738 45.1017261,13.4634999 45.2496433,13.2564686 C45.4246186,13.0094228 45.5262365,12.7333811 45.7859936,12.6144975 C45.803431,12.6115979 45.8076401,12.6231963 45.8076401,12.6353746 C45.9826153,12.878361 45.8473252,13.1920975 45.7420995,13.4014485 M41.2372378,11.1664381 C42.3219642,11.1936943 43.4620093,11.2818421 44.2629271,11.6019578 C44.4878094,11.6906855 44.7668078,11.8188477 44.9453908,12.0166003 C44.9544101,12.0229795 44.9592204,12.0305184 44.9634295,12.0392172 C45.02897,12.1256252 45.0788771,12.2201522 45.1083403,12.3204783 C45.1239738,12.3848493 45.1287841,12.4567594 45.1203661,12.5327289 C45.0776745,12.9514309 44.5918325,13.3939096 44.3050173,13.6705313 C43.3345359,14.6088413 41.9491647,15.4479851 40.7874731,16.0505216 C40.876464,14.4453039 41.1320121,12.8226887 41.2372378,11.1664381 M37.461139,9.24284455 C36.8472223,9.36172808 36.1773857,9.48177145 35.7661036,9.7189586 C35.6272057,9.79782768 35.252001,10.2924992 35.123325,9.88481563 C35.0511703,9.6540076 35.2814642,9.44581643 35.445015,9.36694736 C35.8280365,9.18079314 36.348152,9.13903893 36.9470364,9.05553049 C37.7864367,8.94012648 38.5037752,8.86821644 39.327542,8.91171041 C38.7719504,9.08278672 38.0948983,9.11990158 37.461139,9.24284455 M66.1246146,8.93316744 C66.2184158,8.73483491 66.3110144,8.46807186 66.2737344,8.20768793 C66.1077785,7.00899396 63.9834223,7.42653613 63.056835,7.71069677 C61.2343262,8.26973934 59.9048749,9.32577306 57.5857009,9.32577306 C55.9441803,9.32577306 54.7043211,9.02189515 53.5306038,8.64262769 C52.6581326,8.35904696 51.7814523,8.04531042 50.956483,7.6909795 C50.7556523,7.60399155 50.557828,7.50772488 50.3533895,7.43929436 C50.3467753,7.43581484 50.3395598,7.43291525 50.3317431,7.43175541 C50.2932605,7.41957709 50.254778,7.40681886 50.2156942,7.39580039 C50.1838258,7.38594175 50.1531601,7.37956264 50.1230956,7.37492328 C49.8946055,7.32794978 49.6528871,7.33374898 49.3907248,7.44161404 C48.8303229,7.67590159 48.448504,8.1595546 48.4142305,8.90591122 L48.4142305,8.8995321 C48.4142305,8.8995321 48.3474874,9.15875619 48.3589119,9.29967668 C48.2536862,9.18717226 47.9530414,9.08046704 47.738381,8.99347909 C45.2201801,7.99195781 41.1909385,7.82262127 37.9547978,8.25002207 C36.8802933,8.39152247 35.1040838,8.65248632 34.6296663,9.32577306 C34.2857286,9.81696502 34.4474755,10.950708 34.9086647,11.1664381 C35.3987157,11.3949265 36.1605496,11.1478807 36.8183604,11.2708236 C36.6722471,15.0849553 36.8291837,19.1565714 37.1616968,22.7340958 C37.2146103,23.3041569 37.346894,23.8939352 37.4406952,24.4506581 C37.5369015,25.0305777 37.4881971,25.7015448 37.9127075,26.0025231 C38.227182,26.0796524 38.5049778,25.8911785 38.7070111,25.7548974 C38.928887,25.6012187 39.1243061,25.4249231 39.2854517,25.2567464 C40.3659691,24.1421408 40.0653243,21.7412734 40.3581524,19.8977087 C41.6575392,20.9972364 43.0056305,21.9842597 44.4132495,23.0437729 C45.4065799,23.7924492 46.3848781,24.6779866 47.4593826,25.4017263 C47.784079,25.6220958 48.2548888,26.02514 48.6607593,26.0222404 C49.3251843,26.0199207 49.613202,25.3779496 49.5614911,24.7197408 C49.4947479,23.8643593 49.0233369,23.2212284 48.5531284,22.6708846 C47.1394966,21.0123143 45.1588486,19.7057553 43.9839287,18.0152895 C45.7408969,16.740626 47.605496,15.3894132 48.9397576,13.6281971 C49.4538603,12.9491112 49.9781848,12.1534614 49.883181,11.0835096 C50.7875206,11.5978983 51.8944948,11.918014 53.0790353,12.1610003 C52.642499,15.0837955 51.9750676,18.343524 51.9215528,21.7186565 C51.9035141,22.9098115 51.9498134,24.025577 52.3286259,24.9047352 C52.6491132,25.6435528 53.2852776,26.436303 54.3249074,26.436303 C55.0434484,26.436303 55.6152749,25.9949842 55.6970502,25.4017263 C55.7373366,25.1175657 55.6970502,24.8038292 55.719298,24.5115496 C55.9531996,21.3991207 56.3157772,18.3783192 56.8130438,15.5535304 C56.9994435,14.5009762 57.2393581,13.4785778 57.3710405,12.4295032 C60.2500151,12.3686116 62.9257539,11.6477714 64.7284201,10.4003642 C65.276195,10.0234164 65.8480214,9.51192728 66.1246146,8.93316744" id="Fill-52" fill="#DA2246"></path>
          <path d="M72.1857048,9.8749141 C72.1153539,10.1712531 72.1087397,10.4699117 71.9289541,10.640988 C71.8387607,10.2663599 71.7798343,8.86469403 72.2079525,8.86179443 C72.3672942,8.86005467 72.4328348,9.01199362 72.4442593,9.08912294 C72.4737225,9.30369322 72.2554544,9.59481289 72.1857048,9.8749141 M71.3709573,17.9444964 C71.2080079,18.5731293 71.0636984,19.2783116 70.7065323,19.5584128 C70.6139337,19.6314827 70.2038542,19.8286554 70.018657,19.7863212 C69.8148198,19.7381879 69.8406753,19.4453285 69.9549203,19.3299245 L69.9765667,19.2498955 C71.2128182,18.5516723 71.2591175,16.7057879 71.756384,15.2954233 C71.7539788,16.2261944 71.6126758,17.0172048 71.3709573,17.9444964 M62.4243693,13.1445012 C61.8411184,13.5997382 61.5470877,14.3605928 61.2873306,15.1516032 C60.7654113,16.7446426 60.2422893,18.2704112 59.7859105,19.8907068 C59.554414,20.711873 59.4107058,21.5539164 59.1641418,22.3733429 C59.1587654,20.3233269 59.7780937,18.6659164 60.3439072,16.8472883 C60.5994553,16.026702 60.8910808,15.1452241 61.1586547,14.2817237 C61.4184118,13.4472193 61.9307105,12.6440305 62.7677056,12.5025301 C62.8206191,12.4938313 63.0749646,12.4828129 63.0905982,12.6475101 C63.1080356,12.8348241 62.565071,13.0354763 62.4243693,13.1445012 M73.1303307,8.46802897 C72.9042458,8.31898961 72.1832996,8.02323058 71.8862625,8.24012054 C71.7768278,8.31898961 71.6499557,8.47904744 71.5856177,8.59213178 C70.8334044,9.91840807 71.1617086,12.2137301 71.027621,14.1587807 C70.8905269,16.1850201 70.5291519,17.8836048 69.9326726,19.2498955 C68.5641375,17.7890779 67.1372772,16.3317397 65.8354852,14.7787149 C65.2895143,14.1239855 64.9203224,13.4982522 64.4843875,12.7095615 C64.4639436,12.6753462 64.4447024,12.6393912 64.4230559,12.6005366 C64.2408652,12.2694024 64.0027545,11.8669382 63.6906852,11.7787904 C63.3701978,11.6871631 63.0400898,11.8222844 62.7460592,11.9249301 C62.4772828,12.0177173 62.1946766,12.099486 61.9950485,12.2137301 C61.7304811,12.3650892 61.5326568,12.6295325 61.3306235,12.8759984 C61.130394,13.1224643 60.8886756,13.3927068 60.773228,13.6409125 C60.5748024,14.0706329 60.4816026,14.6000996 60.3228621,15.0895518 C59.5441921,17.5043373 58.6434602,19.7602249 58.3055355,22.6209686 C58.1666376,23.8057445 58.1804672,25.1662361 58.6482705,25.9520272 C58.9633463,26.4762746 59.7588524,26.9384706 60.6229056,26.8207469 C61.8898228,26.6496706 61.8705815,25.0815678 62.0816342,23.9240481 C62.529595,21.4634489 62.9667325,19.3954554 63.733978,17.3036851 C64.8096851,19.0330056 65.957547,20.633004 67.0795534,22.228363 C67.6207141,22.9944369 68.1372218,23.8556176 68.7529424,24.690122 C69.0577962,25.0978055 69.3650552,25.4550361 69.7619064,25.765873 C70.1310982,26.054673 70.6999181,26.3660899 71.3493109,26.2837413 C72.0389901,26.1950136 72.4995779,25.2625027 72.7437015,24.6066136 C73.5235741,22.5293413 73.8272254,20.1893654 74.1597385,17.7583421 C74.3798105,16.164143 74.5030749,14.4870153 74.5030749,12.6266329 C74.5030749,10.9100707 74.1561308,9.14247555 73.1303307,8.46802897" id="Fill-54" fill="#DA2246"></path>
        </g>
      </g>
    </g>
  </g>
</svg>
