<?xml version="1.0" encoding="UTF-8"?>
<svg xmlns="http://www.w3.org/2000/svg" xmlns:xlink="http://www.w3.org/1999/xlink" width="112px" height="47px" viewBox="0 0 112 47">
  <!-- Generator: Sketch 50.2 (55047) - http://www.bohemiancoding.com/sketch -->
  <title>psecu-logo</title>
  <desc>Created with Sketch.</desc>
  <defs></defs>
  <g id="Design" stroke="none" stroke-width="1" fill="none" fill-rule="evenodd">
    <g id="dropdown_menu" transform="translate(-1736.000000, -1096.000000)" fill-rule="nonzero">
      <g id="psecu-logo" transform="translate(1736.000000, 1096.000000)">
        <path d="M103.62567,0.735385977 C104.056049,0.726913683 104.483865,0.804586662 104.884761,0.963982653 C105.28994,1.13017232 105.65726,1.37914586 105.963981,1.69549201 C106.271056,1.99312818 106.515784,2.3508065 106.683461,2.74703672 C106.838032,3.15526321 106.914351,3.58978946 106.908299,4.02717809 C106.917822,4.46484724 106.841385,4.90005145 106.683461,5.30731947 C106.516889,5.70417242 106.272015,6.06206433 105.963981,6.35886417 C105.652773,6.66964167 105.28661,6.91783195 104.884761,7.09037353 C104.093838,7.42820885 103.20247,7.42820885 102.411547,7.09037353 C102.007535,6.92194335 101.640633,6.67325302 101.332327,6.35886417 C101.027089,6.05963152 100.782634,5.70235328 100.612847,5.30731947 C100.280567,4.50317316 100.280567,3.59690236 100.612847,2.79275605 C100.781582,2.38365875 101.025807,2.01119714 101.332327,1.69549201 C101.624246,1.3823083 101.976252,1.13334001 102.36658,0.963982653 C102.766815,0.802217084 103.195104,0.724458152 103.62567,0.735385977 Z M106.548559,4.07289743 C106.548559,2.43164148 105.239937,1.10114066 103.62567,1.10114066 C103.239654,1.0999138 102.85734,1.17765495 102.501482,1.32973733 C102.146264,1.47382968 101.824607,1.69185256 101.557164,1.96980802 C101.286344,2.26135269 101.072681,2.60272293 100.927619,2.97563338 C100.779197,3.33780189 100.702781,3.72626755 100.702781,4.11861676 C100.700328,4.51120895 100.776841,4.90016668 100.927619,5.26160014 C101.232118,5.97968856 101.795202,6.55218686 102.501482,6.86177685 C102.856972,7.01507627 103.239534,7.09286781 103.62567,7.09037353 C104.011686,7.09160038 104.394,7.01385923 104.749858,6.86177685 C105.116636,6.71428958 105.452393,6.49705397 105.739143,6.22170616 C106.012528,5.94979134 106.226966,5.62275703 106.368689,5.26160014 C106.508956,4.88230368 106.570206,4.47752018 106.548559,4.07289743 Z M103.715605,2.10696603 C104.122991,2.08421958 104.528375,2.17933378 104.884761,2.38128203 C105.138435,2.57238235 105.274974,2.8847304 105.2445,3.20423006 C105.248109,3.46026036 105.150977,3.70714881 104.974695,3.89002009 C104.799409,4.0819088 104.557425,4.19672299 104.300183,4.21005543 L105.154566,5.99310949 L104.569988,5.99310949 L103.760572,4.3014941 L102.816255,4.3014941 L102.816255,5.99310949 L102.321612,5.99310949 L102.321612,2.10696603 L103.715605,2.10696603 Z M103.62567,2.4727207 L102.861223,2.4727207 L102.861223,3.84430075 L103.62567,3.84430075 C103.936101,3.8655324 104.2465,3.80241477 104.52502,3.66142341 C104.683996,3.52715527 104.768029,3.32210505 104.749858,3.11279139 C104.759978,2.90693436 104.655764,2.71267872 104.480053,2.60987871 C104.214976,2.47666285 103.921074,2.41375416 103.62567,2.42700137 L103.62567,2.4727207 Z" id="Shape" fill="#000000"></path>
        <path d="M5.26515071,20.744638 L7.11020352,20.744638 C9.45027047,20.744638 11.2053207,20.1615574 12.1053465,18.9953963 C13.0053723,17.8292353 13.6353903,15.9454366 13.6353903,13.2542956 C13.6353903,10.5631546 13.1853774,8.90361765 12.1053465,7.73745652 C11.0253156,6.57129544 9.22526407,6.12277194 6.75019321,6.12277194 L5.26515071,6.12277194 L5.26515071,20.744638 Z M0,46.265625 L0,0.740489964 L6.30018033,0.740489964 C8.17759607,0.696249543 10.0529514,0.892208674 11.8803401,1.32357052 C13.1375791,1.72538591 14.2901222,2.39930664 15.2554367,3.2970739 C16.5391181,4.47275264 17.4732757,5.97797577 17.955514,7.6477518 C18.6462459,9.55873317 18.9669257,11.5829839 18.900541,13.6131144 C18.900541,17.6946782 17.8655113,20.879195 15.8854547,22.9872555 C13.905398,25.0953159 10.7103065,26.261477 6.75019321,26.261477 L5.26515071,26.261477 L5.26515071,46.265625 L0,46.265625 Z" id="Shape" fill="#000000"></path>
        <path d="M20.7290924,38.4092779 C21.7753041,39.1824528 22.9220054,39.8094 24.1375335,40.2728083 C25.0922365,40.7204916 26.1284636,40.9679819 27.1824073,41.0000397 C28.6555897,41.0197181 30.0708979,40.4271842 31.0907529,39.3637691 C32.0451164,38.3183741 32.4995753,36.7730075 32.4995753,35.000381 C32.4995753,32.2732634 30.6362942,29.2279822 26.955178,25.6827293 C26.6064698,25.3967026 26.286803,25.0769929 26.0008145,24.7282381 C23.6376287,22.5010921 22.0015771,20.36485 21.0472136,18.5013197 C20.0835943,16.5206185 19.6009071,14.3404491 19.6383913,12.1380454 C19.6383913,8.59279248 20.5927548,5.77477102 22.4560359,3.41126912 C24.3193169,1.04776723 26.7279486,0.00237215587 29.591039,0.00237215587 C30.78855,-0.021267428 31.9829984,0.13188747 33.1358175,0.456891751 C34.3353519,0.858994105 35.4802726,1.40862955 36.5442585,2.09316229 L36.5442585,8.27462877 C35.6215432,7.51393876 34.5965736,6.88663469 33.4993846,6.41109845 C32.5735507,5.9886618 31.5624722,5.78641906 30.5454024,5.82022298 C29.0429055,5.78619144 27.5940085,6.37900131 26.546165,7.45649353 C25.5150959,8.76157058 24.9689588,10.384136 25.0010052,12.0471414 C25.0010052,14.6379031 27.0006239,17.8195403 30.9089695,21.3647932 L31.6815494,22.1829284 C33.5920382,23.8944291 35.191201,25.9244074 36.4079209,28.1825871 C37.3668722,30.2777718 37.8480886,32.5599743 37.8167431,34.8640251 C37.8167431,38.4092779 36.8623796,41.2272995 34.9990986,43.5908014 C33.1599938,45.7728138 30.4447866,47.0223094 27.5914203,46.9996983 C26.4613486,46.9788015 25.3416824,46.7793822 24.2738711,46.4088228 C23.0046437,46.0124682 21.8076702,45.4139014 20.7290924,44.6361965 L20.7290924,38.4092779 Z" id="Shape" fill="#000000"></path>
        <polygon id="Shape" fill="#000000" points="40 46.265625 40 0.734375 55.2727273 0.734375 55.2727273 6.20709668 45.1794466 6.20709668 45.1794466 19.7094673 54.4758893 19.7094673 54.4758893 25.182189 45.1794466 25.182189 45.1794466 40.5237531 55.2727273 40.5237531 55.2727273 46.265625"></polygon>
        <path d="M75.6363636,45.3636383 C74.8033949,45.9060093 73.8865127,46.3053936 72.9232218,46.5454551 C72.0149856,46.8303511 71.0709295,46.9834111 70.119642,47 C66.1403674,47 63.1106924,45.0000024 61.1210551,41.2272797 C59.1314178,37.454557 58.1818182,31.5909277 58.1818182,23.9091188 C58.1818182,16.22731 59.2218559,10.1364082 61.3471503,6.00004957 C63.4724447,1.86369094 66.5925577,5.68305788e-05 70.7074894,5.68305788e-05 C71.5795142,-0.00302723155 72.4474852,0.119427585 73.2849738,0.363692755 C74.1065985,0.510804002 74.9000916,0.786904785 75.6363636,1.18187358 L75.6363636,7.09095735 C74.9340516,6.69367222 74.1911833,6.37364227 73.4206313,6.13641305 C72.8293425,5.90438721 72.2013414,5.7812124 71.566651,5.77277712 C68.7630711,5.77277712 66.6377767,7.18186633 65.3716439,10.1364082 C64.1055111,13.0909501 63.4724447,17.5454902 63.4724447,23.8182098 C63.4724447,30.0909296 64.0602921,34.0454702 65.3716439,36.9091031 C66.6829958,39.772736 68.4013189,41.0454618 70.9788036,41.0454618 C71.7315203,41.0386929 72.478764,40.9160587 73.194536,40.6818258 C74.0315273,40.28701 74.8466604,39.8469739 75.6363636,39.3636456 L75.6363636,45.3636383 Z" id="Shape" fill="#000000"></path>
        <path d="M77.6842102,12.929937 L73.9776713,12.929937 L73.9776713,10.28125 L67.6363636,13.066938 L67.6363636,37.453125 L77.8181818,37.453125 C77.7191178,36.4059416 77.6743978,35.354125 77.6842102,34.3021008 L77.6842102,12.929937 Z" id="Shape" fill="#ED1C24"></path>
        <rect id="Rectangle-path" fill="#000000" x="92.3636364" y="0" width="5.09090909" height="12.484375"></rect>
        <path d="M92.1954073,36.5538903 C92.0334225,37.3801559 91.6962109,38.1620782 91.2065098,38.8469388 C90.3974116,39.8810586 89.0938647,40.3756377 87.3857687,40.3756377 C85.6776727,40.3756377 84.3741258,39.9260204 83.5650276,38.8469388 C83.0753258,38.1620782 82.7381149,37.3801559 82.5761295,36.5538903 C82.3853753,35.682826 82.2948865,34.7927903 82.3064305,33.901148 L82.3064305,0 L77.0922422,0 L77.0922422,33.4515306 C77.0823651,34.4873073 77.1273782,35.5228797 77.2270916,36.5538903 C77.5417411,39.4314414 78.3058895,41.5896046 79.5195367,43.208227 C80.733184,44.8268495 83.8347265,46.265625 87.3408189,46.265625 C90.8469105,46.265625 93.4989542,45.1865433 95.1621004,43.208227 C96.8252465,41.2299107 97.139896,39.4314414 97.4545455,36.5538903 L92.1954073,36.5538903 Z" id="Shape" fill="#000000"></path>
        <rect id="Rectangle-path" fill="#000000" x="94.5454545" y="34.515625" width="1" height="5.140625"></rect>
        <rect id="Rectangle-path" fill="#000000" x="92.3636364" y="12.484375" width="5.09090909" height="1"></rect>
        <path d="M111.8328,31.1570884 C111.565281,30.8857879 111.565281,30.8857879 111.565281,30.478837 C111.565281,30.0718862 110.53979,30.0718862 110.272271,29.0771175 L109.514298,29.0771175 C109.380539,28.8058169 109.514298,28.2632158 109.246779,27.8110482 C107.686249,26.8614962 107.953769,27.4040973 107.953769,26.2736783 C107.953769,25.1432593 108.355047,26.0023777 108.355047,25.4597766 C108.510271,25.3480296 108.701271,25.2996044 108.890087,25.3241263 C108.890087,23.9224068 109.648058,25.188476 108.622567,23.2441554 C108.890087,22.9728548 109.023847,22.8372045 109.380539,22.8372045 C109.737231,22.8372045 109.648058,22.5659039 109.514298,22.1589531 C109.380539,21.7520022 110.049337,21.616352 110.183097,21.3450514 C110.316857,21.0737509 110.941069,19.2650804 111.877387,19.2650804 L111.877387,18.8581296 C111.743627,18.7224793 110.985655,18.3155285 110.851896,18.4511787 C110.718136,18.586829 110.450617,17.9085776 110.227684,18.3155285 C109.960164,18.0442279 109.469712,17.7729273 109.335952,17.3659765 L109.335952,16.0546904 C109.281297,15.8573699 109.129244,15.7031665 108.934673,15.6477396 C108.934673,15.1051385 109.068433,15.5120893 108.667153,14.9694882 L108.800913,14.6981876 L108.667153,14.2912368 C108.399634,14.2912368 108.533394,13.8842859 108.132115,13.7486356 C107.730836,13.6129853 107.597076,14.1555865 107.374143,13.6129853 C107.15121,13.0703842 107.641663,13.2060345 107.641663,13.0703842 C107.240383,12.2564825 107.641663,12.5277831 106.883691,12.5277831 L82.1827287,12.5277831 L82.1827287,34.0509611 C82.1716676,34.9476434 82.2614204,35.8426827 82.450248,36.71875 L103.940977,36.71875 C103.973096,36.3884889 104.063721,36.0668168 104.208496,35.7691981 C104.743535,35.0909466 105.902786,35.2265969 106.526998,35.9048483 C107.552489,35.9048483 106.928277,35.7691981 107.418729,35.0909466 C109.246779,35.0909466 108.042942,34.9552963 109.11302,33.689227 C109.554665,33.6426372 109.941846,33.369487 110.138511,32.9657589 C111.030242,32.9657589 111.431521,32.4231578 111.96656,31.6996895 C111.96656,31.7449063 112.10032,30.8857879 111.8328,31.1570884 Z" id="Shape" fill="#ED1C24"></path>
      </g>
    </g>
  </g>
</svg>
