<?xml version="1.0" encoding="UTF-8"?>
<svg xmlns="http://www.w3.org/2000/svg" xmlns:xlink="http://www.w3.org/1999/xlink" width="88px" height="37px" viewBox="0 0 88 37">
  <!-- Generator: Sketch 50.2 (55047) - http://www.bohemiancoding.com/sketch -->
  <title>psecu-logo_grey</title>
  <desc>Created with Sketch.</desc>
  <defs></defs>
  <g id="Design" stroke="none" stroke-width="1" fill="none" fill-rule="evenodd">
    <g id="Artboard" transform="translate(-1676.000000, -847.000000)" fill="#BFBFBF" fill-rule="nonzero">
      <g id="psecu-logo_grey" transform="translate(1676.000000, 847.000000)">
        <path d="M81.4201691,0.578920876 C81.758324,0.572251197 82.0944651,0.633398011 82.4094549,0.758879961 C82.7278103,0.889710123 83.0164183,1.08571057 83.2574137,1.33474903 C83.4986869,1.56905835 83.6909731,1.8506349 83.8227194,2.16256082 C83.944168,2.48393061 84.0041326,2.82600447 83.9993777,3.17033169 C84.00686,3.51487974 83.9468023,3.85748731 83.8227194,4.17810256 C83.6918411,4.49051871 83.49944,4.77226341 83.2574137,5.00591435 C83.0128931,5.25056897 82.7251937,5.44595281 82.4094549,5.58178342 C81.7880154,5.84773888 81.0876549,5.84773888 80.4662154,5.58178342 C80.1487771,5.44918945 79.8604977,5.25341195 79.6182566,5.00591435 C79.3784269,4.77034822 79.1863554,4.48908663 79.0529509,4.17810256 C78.7918737,3.54505122 78.7918737,2.83160398 79.0529509,2.19855263 C79.1855286,1.87649731 79.3774194,1.58328286 79.6182566,1.33474903 C79.8476217,1.08820015 80.1241983,0.892203836 80.430884,0.758879961 C80.7453543,0.631532598 81.0818674,0.57031812 81.4201691,0.578920876 Z M83.7167246,3.20632351 C83.7167246,1.91427095 82.6885217,0.866855413 81.4201691,0.866855413 C81.1168709,0.865889586 80.8164817,0.927090066 80.5368789,1.04681449 C80.2577789,1.1602489 80.0050486,1.33188393 79.7949149,1.55069993 C79.5821274,1.78021382 79.4142491,2.04895209 79.300272,2.3425199 C79.1836549,2.62763128 79.1236137,2.93344467 79.1236137,3.24231532 C79.1216863,3.55137726 79.1818034,3.85757802 79.300272,4.14211075 C79.5395211,4.7074144 79.9819446,5.15810455 80.5368789,5.40182433 C80.8161926,5.52250685 81.1167766,5.583747 81.4201691,5.58178342 C81.7234674,5.58274924 82.0238571,5.52154876 82.30346,5.40182433 C82.5916429,5.28571733 82.8554514,5.11470206 83.0807554,4.89793889 C83.2955577,4.68387829 83.4640446,4.42642575 83.5753983,4.14211075 C83.685608,3.84351566 83.7337331,3.52485631 83.7167246,3.20632351 Z M81.4908326,1.65867538 C81.8109211,1.6407686 82.1294371,1.71564574 82.4094549,1.87462628 C82.6087703,2.02506696 82.7160509,2.27095797 82.6921074,2.52247898 C82.6949429,2.72403475 82.6186251,2.91839374 82.4801177,3.06235624 C82.3423931,3.21341757 82.1522623,3.3038032 81.9501434,3.31429896 L82.6214446,4.71797981 L82.1621331,4.71797981 L81.526164,3.38628259 L80.7842,3.38628259 L80.7842,4.71797981 L80.395552,4.71797981 L80.395552,1.65867538 L81.4908326,1.65867538 Z M81.4201691,1.94660991 L80.819532,1.94660991 L80.819532,3.02636442 L81.4201691,3.02636442 C81.6640794,3.0430787 81.9079646,2.99339035 82.1268017,2.88239715 C82.2517114,2.7766967 82.3177371,2.61527419 82.30346,2.45049535 C82.3114114,2.28843769 82.2295286,2.13551304 82.0914703,2.05458537 C81.8831954,1.94971331 81.6522726,1.90018945 81.4201691,1.9106181 L81.4201691,1.94660991 Z" id="Shape"></path>
        <path d="M4.13690413,16.3308852 L5.58658848,16.3308852 C7.42521251,16.3308852 8.80418057,15.8718643 9.51134366,14.9538226 C10.2185068,14.035781 10.713521,12.5527905 10.713521,10.4342327 C10.713521,8.3156749 10.3599394,7.00923092 9.51134366,6.09118917 C8.66274794,5.17314747 7.24842177,4.82005451 5.30372324,4.82005451 L4.13690413,4.82005451 L4.13690413,16.3308852 Z M0,36.421875 L0,0.582938908 L4.95014169,0.582938908 C6.42525406,0.548111342 7.89874754,0.702377041 9.33455291,1.04195977 C10.3223836,1.35828252 11.2279531,1.88881587 11.9864145,2.59556882 C12.9950214,3.52110314 13.7290023,4.70606603 14.1079038,6.02057057 C14.6506218,7.52496016 14.9025845,9.11851923 14.8504251,10.7167071 C14.8504251,13.929853 14.0371875,16.4368131 12.4814287,18.0963501 C10.9256699,19.755887 8.41524086,20.6739287 5.30372324,20.6739287 L4.13690413,20.6739287 L4.13690413,36.421875 L0,36.421875 Z" id="Shape"></path>
        <path d="M16.2871441,30.2370911 C17.1091675,30.8457607 18.0101471,31.3393149 18.9652049,31.7041257 C19.7153287,32.0565572 20.5295071,32.25139 21.3576058,32.276627 C22.5151062,32.2921185 23.6271341,31.8256557 24.4284487,30.9884991 C25.1783058,30.1655285 25.5353806,28.9489633 25.5353806,27.5534914 C25.5353806,25.4066116 24.071374,23.0092626 21.1790684,20.2183188 C20.9050834,19.9931488 20.6539166,19.7414625 20.4292114,19.4669109 C18.5724226,17.7136257 17.2869534,16.0319032 16.5370964,14.5648687 C15.7799669,13.0055933 15.4007127,11.2892897 15.4301646,9.55548252 C15.4301646,6.76453876 16.1800217,4.54609633 17.6440282,2.68546718 C19.1080347,0.824838028 21.000531,0.00186744185 23.2501021,0.00186744185 C24.1910036,-0.0167424433 25.1294987,0.103826306 26.0352852,0.35968074 C26.9777765,0.676229402 27.877357,1.10892114 28.7133459,1.64780861 L28.7133459,6.51406946 C27.9883554,5.91522839 27.1830221,5.42139327 26.320945,5.04703495 C25.5935041,4.71447844 24.7990853,4.55526607 23.999959,4.58187766 C22.8194257,4.55508688 21.6810067,5.02176699 20.8577011,5.87000554 C20.0475753,6.89740663 19.6184676,8.17474537 19.6436469,9.48391984 C19.6436469,11.5234556 21.2147759,14.0281487 24.2856189,16.8190925 L24.8926459,17.4631564 C26.3937443,18.810508 27.6502294,20.408576 28.6062235,22.186292 C29.3596853,23.8356927 29.7377839,25.6323202 29.7131553,27.4461474 C29.7131553,30.2370911 28.9632983,32.4555336 27.4992918,34.3161628 C26.0542809,36.0339172 23.9209038,37.0175627 21.6789731,36.9997625 C20.7910596,36.9833118 19.9113219,36.8263222 19.0723273,36.5346052 C18.0750772,36.2225814 17.134598,35.7513692 16.2871441,35.1391334 L16.2871441,30.2370911 Z" id="Shape"></path>
        <polygon id="Shape" points="31.4285714 36.421875 31.4285714 0.578125 43.4285714 0.578125 43.4285714 4.88643781 35.4981366 4.88643781 35.4981366 15.5159636 42.8024845 15.5159636 42.8024845 19.8242765 35.4981366 19.8242765 35.4981366 31.901678 43.4285714 31.901678 43.4285714 36.421875"></polygon>
        <path d="M59.4285714,35.7118004 C58.774096,36.1387733 58.0536886,36.4531822 57.2968171,36.6421668 C56.583203,36.8664466 55.8414446,36.9869406 55.0940045,37 C51.9674315,37 49.5869726,35.4255338 48.0236862,32.4555181 C46.4603997,29.4855023 45.7142857,24.8694537 45.7142857,18.8220723 C45.7142857,12.7746908 46.5314582,7.9797256 48.2013323,4.72344328 C49.8712065,1.46716095 52.3227239,4.47389664e-05 55.5558845,4.47389664e-05 C56.2410469,-0.00238313973 56.9230241,0.0940174608 57.5810509,0.286311318 C58.2266131,0.402122299 58.850072,0.619478235 59.4285714,0.930411117 L59.4285714,5.58224302 C58.8767549,5.26948664 58.2930726,5.01754817 57.6876389,4.83079325 C57.2230549,4.64813461 56.7296254,4.55116721 56.2309401,4.54452667 C54.0281273,4.54452667 52.3582531,5.65380966 51.3634345,7.9797256 C50.3686158,10.3056416 49.8712065,13.8124072 49.8712065,18.7505056 C49.8712065,23.6886041 50.3330866,26.8017531 51.3634345,29.0561024 C52.3937824,31.3104517 53.7438934,32.3123848 55.7690599,32.3123848 C56.3604802,32.3070561 56.9476003,32.2105143 57.5099926,32.0261182 C58.1676286,31.7153058 58.8080903,31.3688943 59.4285714,30.9884019 L59.4285714,35.7118004 Z" id="Shape"></path>
        <path d="M61.0375937,10.1788866 L58.1253131,10.1788866 L58.1253131,8.09375 L53.1428571,10.2867384 L53.1428571,29.484375 L61.1428571,29.484375 C61.0650211,28.6599966 61.029884,27.8319707 61.0375937,27.0037815 L61.0375937,10.1788866 Z" id="Shape"></path>
        <rect id="Rectangle-path" x="72.5714286" y="0" width="4" height="9.828125"></rect>
        <path d="M72.4392486,28.7764668 C72.3119749,29.4269312 72.0470229,30.0424871 71.6622577,30.5816327 C71.0265377,31.395727 70.0023223,31.7850765 68.6602469,31.7850765 C67.3181714,31.7850765 66.293956,31.4311224 65.658236,30.5816327 C65.2734703,30.0424871 65.0085189,29.4269312 64.8812446,28.7764668 C64.7313663,28.0907354 64.660268,27.390069 64.6693383,26.6881378 L64.6693383,0 L60.572476,0 L60.572476,26.3341837 C60.5647154,27.1495823 60.6000829,27.9648201 60.6784291,28.7764668 C60.9256537,31.041773 61.526056,32.7407526 62.479636,34.0149872 C63.433216,35.2892219 65.8701423,36.421875 68.6249291,36.421875 C71.3797154,36.421875 73.463464,35.5723852 74.7702217,34.0149872 C76.0769794,32.4575893 76.324204,31.041773 76.5714286,28.7764668 L72.4392486,28.7764668 Z" id="Shape"></path>
        <rect id="Rectangle-path" x="74.2857143" y="27.171875" width="1" height="4.046875"></rect>
        <rect id="Rectangle-path" x="72.5714286" y="9.828125" width="4" height="1"></rect>
        <path d="M87.8686286,24.5279207 C87.6584349,24.3143437 87.6584349,24.3143437 87.6584349,23.9939781 C87.6584349,23.6736125 86.852692,23.6736125 86.6424983,22.8904967 L86.0469486,22.8904967 C85.941852,22.6769197 86.0469486,22.2497656 85.8367549,21.8938039 C84.610624,21.1462842 84.8208183,21.5734383 84.8208183,20.683534 C84.8208183,19.7936297 85.1361086,20.4699569 85.1361086,20.0428029 C85.2580697,19.9548318 85.4081417,19.9167099 85.5564966,19.9360143 C85.5564966,18.832533 86.1520457,19.8292258 85.3463029,18.2985904 C85.5564966,18.0850133 85.6615937,17.9782248 85.941852,17.9782248 C86.2221103,17.9782248 86.1520457,17.7646478 86.0469486,17.4442822 C85.941852,17.1239166 86.4673366,17.0171282 86.5724337,16.8035511 C86.6775303,16.5899741 87.1679829,15.1661271 87.9036611,15.1661271 L87.9036611,14.8457616 C87.798564,14.7389731 87.2030149,14.4186075 87.0979183,14.525396 C86.9928211,14.6321845 86.7826274,14.0982419 86.6074657,14.4186075 C86.397272,14.2050305 86.0119166,13.9914534 85.9068194,13.6710879 L85.9068194,12.6387988 C85.8638766,12.4834614 85.7444057,12.3620673 85.5915286,12.3184333 C85.5915286,11.8912792 85.6966257,12.2116448 85.3813349,11.7844907 L85.486432,11.5709136 L85.3813349,11.2505481 C85.1711411,11.2505481 85.2762383,10.9301825 84.9609474,10.823394 C84.6456566,10.7166055 84.5405594,11.1437596 84.3653983,10.7166055 C84.1902366,10.2894514 84.575592,10.3962399 84.575592,10.2894514 C84.2603011,9.64872027 84.575592,9.86229733 83.9800429,9.86229733 L64.572144,9.86229733 L64.572144,26.8060758 C64.5634531,27.5119746 64.6339731,28.21658 64.7823377,28.90625 L81.6679103,28.90625 C81.6931469,28.6462572 81.7643526,28.393026 81.878104,28.1587304 C82.298492,27.6247878 83.209332,27.7315763 83.699784,28.2655189 C84.5055274,28.2655189 84.0150749,28.1587304 84.4004303,27.6247878 C85.8367549,27.6247878 84.8908829,27.5179992 85.7316583,26.5213064 C86.0786657,26.4846293 86.3828789,26.2695962 86.5374011,25.9517676 C87.2380474,25.9517676 87.5533383,25.5246136 87.9737257,24.9550747 C87.9737257,24.9906709 88.0788229,24.3143437 87.8686286,24.5279207 Z" id="Shape"></path>
      </g>
    </g>
  </g>
</svg>
