<?xml version="1.0" encoding="UTF-8"?>
<svg xmlns="http://www.w3.org/2000/svg" xmlns:xlink="http://www.w3.org/1999/xlink" width="138px" height="58px" viewBox="0 0 138 58">
  <!-- Generator: Sketch 50.2 (55047) - http://www.bohemiancoding.com/sketch -->
  <title>psecu-logo_grey</title>
  <desc>Created with Sketch.</desc>
  <defs></defs>
  <g id="Design" stroke="none" stroke-width="1" fill="none" fill-rule="evenodd">
    <g id="home" transform="translate(-839.000000, -1100.000000)" fill="#BFBFBF" fill-rule="nonzero">
      <g id="psecu-logo_grey" transform="translate(839.000000, 1100.000000)">
        <path d="M127.681629,0.907497589 C128.211917,0.897042417 128.739048,0.992894179 129.233009,1.18959561 C129.732248,1.39468073 130.184838,1.70192468 130.562762,2.09230929 C130.941123,2.45960498 131.242662,2.90099525 131.449265,3.3899602 C131.639718,3.89372906 131.733753,4.42995295 131.726297,4.96970914 C131.73803,5.50981148 131.643849,6.046872 131.449265,6.54945807 C131.244024,7.03919149 130.942304,7.48084535 130.562762,7.84710898 C130.17931,8.23062163 129.728145,8.536899 129.233009,8.74982266 C128.258479,9.16672581 127.160186,9.16672581 126.185656,8.74982266 C125.687855,8.54197265 125.23578,8.23507819 124.855902,7.84710898 C124.479806,7.47784316 124.178603,7.03694661 123.9694,6.54945807 C123.559984,5.55710732 123.559984,4.43873056 123.9694,3.4463798 C124.177306,2.94153632 124.478226,2.48190286 124.855902,2.09230929 C125.215589,1.70582726 125.649311,1.3985898 126.13025,1.18959561 C126.623397,0.989970018 127.15111,0.894012188 127.681629,0.907497589 Z M131.283045,5.02612875 C131.283045,3.00074906 129.670636,1.35885443 127.681629,1.35885443 C127.206002,1.35734043 126.734937,1.45327632 126.296469,1.64095244 C125.85879,1.81876855 125.462463,2.08781805 125.132935,2.43082692 C124.799245,2.79060545 124.535982,3.21187084 124.357245,3.67205822 C124.174368,4.11898957 124.080212,4.59837273 124.080212,5.08254834 C124.07719,5.56702381 124.171464,6.04701419 124.357245,6.49303847 C124.732431,7.37919014 125.426231,8.0856774 126.296469,8.46772463 C126.734484,8.65690263 127.205854,8.7529007 127.681629,8.74982266 C128.157256,8.75133665 128.628321,8.65540076 129.06679,8.46772463 C129.518713,8.28571906 129.932412,8.01764107 130.28573,7.67785015 C130.622579,7.3422957 130.886797,6.93872145 131.06142,6.49303847 C131.234249,6.02497049 131.309718,5.52545043 131.283045,5.02612875 Z M127.792442,2.60008573 C128.294399,2.57201564 128.79389,2.68939062 129.233009,2.93860336 C129.545572,3.17442929 129.713807,3.55988006 129.676259,3.95415624 C129.680706,4.27010853 129.561026,4.57477938 129.343821,4.80045032 C129.127844,5.03724916 128.829684,5.17893475 128.512725,5.19538756 L129.565447,7.39575213 L128.845163,7.39575213 L127.847848,5.30822676 L126.684314,5.30822676 L126.684314,7.39575213 L126.074843,7.39575213 L126.074843,2.60008573 L127.792442,2.60008573 Z M127.681629,3.05144256 L126.739721,3.05144256 L126.739721,4.74403071 L127.681629,4.74403071 C128.064125,4.77023148 128.446581,4.69234163 128.789757,4.51835229 C128.985638,4.35265969 129.089179,4.099619 129.06679,3.84131704 C129.079259,3.5872807 128.950852,3.34756098 128.734351,3.22070139 C128.407738,3.05630735 128.045609,2.97867535 127.681629,2.99502297 L127.681629,3.05144256 Z" id="Shape"></path>
        <path d="M6.48741784,25.599766 L8.76078648,25.599766 C11.6440833,25.599766 13.8065559,24.8802197 14.9155162,23.4411273 C16.0244766,22.0020351 16.8007488,19.6773473 16.8007488,16.3563648 C16.8007488,13.0353823 16.2462686,10.9874431 14.9155162,9.54835059 C13.5847638,8.1092582 11.3668432,7.55576112 8.31720235,7.55576112 L6.48741784,7.55576112 L6.48741784,25.599766 Z M0,57.09375 L0,0.913796126 L7.7627222,0.913796126 C10.0759666,0.859201563 12.3866723,1.10102347 14.6382762,1.63334234 C16.1873743,2.12919963 17.6074719,2.9608465 18.7968773,4.0687295 C20.3785563,5.51956708 21.5295718,7.37707648 22.1237582,9.43765116 C22.9748387,11.7958835 23.3699621,14.293895 23.2881666,16.7991625 C23.2881666,21.8359858 22.0128622,25.7658151 19.5731496,28.3672515 C17.1334369,30.9686877 13.1966277,32.4077801 8.31720235,32.4077801 L6.48741784,32.4077801 L6.48741784,57.09375 L0,57.09375 Z" id="Shape"></path>
        <path d="M25.5412032,47.3986833 C26.8302854,48.3528141 28.2431852,49.1264936 29.7408895,49.6983592 C30.91722,50.2508194 32.1939998,50.556233 33.4926091,50.5957937 C35.3077802,50.6200776 37.0516421,49.8888657 38.3082491,48.5765662 C39.4841614,47.2865041 40.0441196,45.379456 40.0441196,43.1919595 C40.0441196,39.8265803 37.748291,36.0685738 33.21263,31.6935808 C32.7829717,31.3406116 32.3890965,30.9460764 32.0367179,30.5156982 C29.1249354,27.7673052 27.109086,25.1310915 25.9331739,22.8314158 C24.7458572,20.3871463 24.1511176,17.6967244 24.1973036,14.9788645 C24.1973036,10.6038716 25.3732158,7.12631317 27.6690442,4.20965126 C29.9648726,1.29298934 32.9326509,0.00292734128 36.4603874,0.00292734128 C37.935892,-0.0262449111 39.407623,0.16275475 40.8280609,0.563823863 C42.3060586,1.06003528 43.7167644,1.73830881 45.027747,2.58305133 L45.027747,10.211244 C43.8908301,9.27252018 42.627921,8.49840026 41.2760274,7.9115683 C40.1352678,7.3902635 38.8894747,7.14068735 37.6362993,7.18240282 C35.7850085,7.14040646 33.9997605,7.87195907 32.7086676,9.20163031 C31.4382431,10.8121509 30.7653242,12.8144657 30.8048099,14.8666852 C30.8048099,18.0637953 33.2686258,21.9900709 38.084266,26.3650639 L39.0361947,27.3746776 C41.3901899,29.4867423 43.360587,31.9918218 44.8597596,34.7785118 C46.0413247,37.3640588 46.634252,40.1803938 46.5956299,43.0236905 C46.5956299,47.3986833 45.4197178,50.8762419 43.1238894,53.7929038 C40.8578496,56.4855999 37.5123264,58.0275307 33.9965715,57.9996277 C32.6041616,57.9738401 31.224573,57.7277483 29.9088769,57.2704622 C28.3450074,56.7813438 26.870165,56.0426869 25.5412032,55.0829659 L25.5412032,47.3986833 Z" id="Shape"></path>
        <polygon id="Shape" points="49.2857142 57.09375 49.2857142 0.90625 68.1038961 0.90625 68.1038961 7.65982143 55.6675324 7.65982143 55.6675324 24.3223213 67.122078 24.3223213 67.122078 31.0758929 55.6675324 31.0758929 55.6675324 50.0080358 68.1038961 50.0080358 68.1038961 57.09375"></polygon>
        <path d="M93.1948052,55.9806601 C92.1684687,56.649969 91.0387389,57.1428262 89.8518268,57.4390723 C88.7327502,57.790646 87.5695381,57.9795285 86.3974161,58 C81.4943812,58 77.7613889,55.5319178 75.3098715,50.8762176 C72.8583541,46.2205171 71.6883117,38.984549 71.6883117,29.5048701 C71.6883117,20.025191 72.9697867,12.508759 75.5884529,7.40431649 C78.2071193,2.29987392 82.0515443,7.01313526e-05 87.121728,7.01313526e-05 C88.1961872,-0.00373573255 89.2656514,0.147378722 90.2975571,0.448812336 C91.309916,0.630353874 92.2876129,0.97107399 93.1948052,1.45848229 L93.1948052,8.75054311 C92.3294565,8.26027635 91.4141366,7.86534578 90.4647065,7.57259482 C89.7361543,7.28626506 88.9623671,7.13426211 88.1803379,7.12385262 C84.7259269,7.12385262 82.1072605,8.86272866 80.5472041,12.508759 C78.9871475,16.1547895 78.2071193,21.6518816 78.2071193,29.3926845 C78.2071193,37.1334875 78.9314313,42.0135589 80.5472041,45.5474038 C82.1629769,49.0812486 84.2801965,50.6518464 87.4560258,50.6518464 C88.3834803,50.6434933 89.3041914,50.4921576 90.1861248,50.2031042 C91.2174176,49.7158848 92.221778,49.1728613 93.1948052,48.5764138 L93.1948052,55.9806601 Z" id="Shape"></path>
        <path d="M95.7180447,15.9560925 L91.1510592,15.9560925 L91.1510592,12.6875 L83.3376623,16.1251575 L83.3376623,46.21875 L95.8831168,46.21875 C95.7610558,44.9264812 95.7059545,43.6284946 95.7180447,42.3302521 L95.7180447,15.9560925 Z" id="Shape"></path>
        <rect id="Rectangle-path" x="113.805195" y="0" width="6.27272727" height="15.40625"></rect>
        <path d="M113.597913,45.1090561 C113.398324,46.128703 112.982831,47.0936284 112.37945,47.9387756 C111.382525,49.2149234 109.776369,49.8252551 107.671751,49.8252551 C105.567132,49.8252551 103.960976,49.2704081 102.964052,47.9387756 C102.360669,47.0936284 101.945177,46.128703 101.745588,45.1090561 C101.510552,44.0341258 101.399057,42.9357838 101.413281,41.8354593 L101.413281,0 L94.9886555,0 L94.9886555,41.2806123 C94.9764855,42.5588047 95.0319482,43.836745 95.1548093,45.1090561 C95.5425024,48.6600766 96.4840424,51.3233419 97.9794292,53.3207907 C99.474816,55.3182397 103.29636,57.09375 107.616366,57.09375 C111.936372,57.09375 115.204069,55.7621173 117.253302,53.3207907 C119.302536,50.8794643 119.690229,48.6600766 120.077922,45.1090561 L113.597913,45.1090561 Z" id="Shape"></path>
        <rect id="Rectangle-path" x="116.493507" y="42.59375" width="1.56818182" height="6.34375"></rect>
        <rect id="Rectangle-path" x="113.805195" y="15.40625" width="6.27272727" height="1.56756757"></rect>
        <path d="M137.793986,38.449173 C137.464364,38.1143766 137.464364,38.1143766 137.464364,37.6121819 C137.464364,37.1099872 136.200812,37.1099872 135.871191,35.8824002 L134.93726,35.8824002 C134.77245,35.5476039 134.93726,34.8780109 134.607638,34.3200169 C132.684842,33.1482293 133.014465,33.8178222 133.014465,32.4228371 C133.014465,31.027852 133.508898,32.0880405 133.508898,31.4184478 C133.700155,31.2805471 133.935495,31.2207885 134.168142,31.2510494 C134.168142,29.5212679 135.102072,31.0836513 133.83852,28.6842768 C134.168142,28.3494803 134.332954,28.1820821 134.77245,28.1820821 C135.211946,28.1820821 135.102072,27.8472857 134.93726,27.345091 C134.77245,26.8428963 135.596505,26.6754983 135.761316,26.3407017 C135.926127,26.0059053 136.695246,23.773929 137.848923,23.773929 L137.848923,23.2717344 C137.684112,23.1043362 136.750182,22.6021415 136.585372,22.7695397 C136.42056,22.9369379 136.090938,22.0999468 135.816253,22.6021415 C135.486631,22.2673451 134.882324,21.9325486 134.717512,21.430354 L134.717512,19.8121711 C134.65017,19.5686692 134.462818,19.3783758 134.223079,19.3099765 C134.223079,18.6403836 134.38789,19.1425783 133.893457,18.4729854 L134.058268,18.1381889 L133.893457,17.6359943 C133.563835,17.6359943 133.728646,17.1337996 133.234213,16.9664014 C132.73978,16.7990032 132.574968,17.4685961 132.300284,16.7990032 C132.025598,16.1294103 132.629906,16.2968085 132.629906,16.1294103 C132.135472,15.125021 132.629906,15.4598174 131.695976,15.4598174 L101.260862,15.4598174 L101.260862,42.020335 C101.247233,43.1268791 101.357821,44.2313957 101.590484,45.3125 L128.070132,45.3125 C128.109708,44.9049437 128.221371,44.5079867 128.399754,44.1407125 C129.058999,43.3037214 130.487362,43.4711196 131.256479,44.3081107 C132.520032,44.3081107 131.750913,44.1407125 132.35522,43.3037214 C134.607638,43.3037214 133.124339,43.1363231 134.442828,41.5739398 C134.986998,41.5164459 135.46406,41.179367 135.706379,40.6811492 C136.80512,40.6811492 137.299553,40.0115565 137.958797,39.1187657 C137.958797,39.1745652 138.123609,38.1143766 137.793986,38.449173 Z" id="Shape"></path>
      </g>
    </g>
  </g>
</svg>
