<?xml version="1.0" encoding="UTF-8"?>
<svg xmlns="http://www.w3.org/2000/svg" viewBox="0 0 250.1 103.6">
  <title>psecu-logo</title>
  <path d="M232.2,1.6a7.3,7.3,0,0,1,2.8.5,7.1,7.1,0,0,1,2.4,1.6,7,7,0,0,1,1.6,2.3,7.5,7.5,0,0,1,.5,2.8,7.2,7.2,0,0,1-.5,2.8,6.9,6.9,0,0,1-1.6,2.3,7.7,7.7,0,0,1-2.4,1.6,7.1,7.1,0,0,1-5.5,0,7.3,7.3,0,0,1-2.4-1.6,7.2,7.2,0,0,1-1.6-2.3,7.1,7.1,0,0,1,0-5.5,7.6,7.6,0,0,1,1.6-2.4,6.9,6.9,0,0,1,2.3-1.6A7.1,7.1,0,0,1,232.2,1.6Zm6.5,7.3a6.5,6.5,0,0,0-6.5-6.5,6.4,6.4,0,0,0-2.5.5,6.1,6.1,0,0,0-2.1,1.4,6.9,6.9,0,0,0-1.4,2.2,6.5,6.5,0,0,0-.5,2.5,6.3,6.3,0,0,0,.5,2.5,6.7,6.7,0,0,0,3.5,3.5,6.3,6.3,0,0,0,2.5.5,6.4,6.4,0,0,0,2.5-.5,6.9,6.9,0,0,0,2.2-1.4,6.1,6.1,0,0,0,1.4-2.1A6.4,6.4,0,0,0,238.7,8.9Zm-6.3-4.3a4.8,4.8,0,0,1,2.6.6,2,2,0,0,1,.8,1.8,2.1,2.1,0,0,1-.6,1.5,2.2,2.2,0,0,1-1.5.7l1.9,3.9h-1.3l-1.8-3.7h-2.1v3.7h-1.1V4.6Zm-.2.8h-1.7V8.4h1.7a3.9,3.9,0,0,0,2-.4,1.4,1.4,0,0,0,.5-1.2,1.2,1.2,0,0,0-.6-1.1A3.9,3.9,0,0,0,232.2,5.3Z"></path>
  <path d="M11.7,45.4h4.1c5.2,0,9.1-1.3,11.1-3.9s3.4-6.8,3.4-12.8-1-9.7-3.4-12.3S20.5,12.8,15,12.8H11.7V45.4ZM0,102.3V.8H14A48.8,48.8,0,0,1,26.4,2.1a19.9,19.9,0,0,1,7.5,4.4,21.1,21.1,0,0,1,6,9.7A35.8,35.8,0,0,1,42,29.5c0,9.1-2.3,16.2-6.7,20.9S23.8,57.7,15,57.7H11.7v44.6H0Z"></path>
  <path d="M47.4,84.7a31.5,31.5,0,0,0,7.5,4.1,17,17,0,0,0,6.7,1.6,11.7,11.7,0,0,0,8.6-3.6c2.1-2.3,3.1-5.7,3.1-9.6,0-6-4.1-12.7-12.2-20.5a15.1,15.1,0,0,1-2.1-2.1c-5.2-4.9-8.8-9.6-10.9-13.7a30.8,30.8,0,0,1-3.1-14c0-7.8,2.1-14,6.2-19.2S60.6.2,66.9.2a26.8,26.8,0,0,1,7.8,1,33.6,33.6,0,0,1,7.5,3.6V18.4a28.1,28.1,0,0,0-6.7-4.1,14.5,14.5,0,0,0-6.5-1.3,11.9,11.9,0,0,0-8.8,3.6,15.8,15.8,0,0,0-3.4,10.1c0,5.7,4.4,12.7,13,20.5L71.5,49A48.8,48.8,0,0,1,81.9,62.2,34.2,34.2,0,0,1,85,76.9c0,7.8-2.1,14-6.2,19.2a21.1,21.1,0,0,1-16.3,7.5,23.6,23.6,0,0,1-7.3-1.3,27.2,27.2,0,0,1-7.8-3.9V84.7Z"></path>
  <polygon points="89.4 102.3 89.4 0.8 123.9 0.8 123.9 13 101.1 13 101.1 43.1 122.1 43.1 122.1 55.3 101.1 55.3 101.1 89.5 123.9 89.5 123.9 102.3 89.4 102.3"></polygon>
  <path d="M167.2,100a19.8,19.8,0,0,1-6,2.6,22.1,22.1,0,0,1-6.2,1c-8.8,0-15.5-4.4-19.9-12.7s-6.5-21.2-6.5-38.1,2.3-30.3,7-39.4S147.2.2,156.3.2A20.2,20.2,0,0,1,162,1a17.6,17.6,0,0,1,5.2,1.8v13a24.8,24.8,0,0,0-4.9-2.1,11.7,11.7,0,0,0-4.1-.8c-6.2,0-10.9,3.1-13.7,9.6s-4.2,16.3-4.2,30.1,1.3,22.5,4.2,28.8,6.7,9.1,12.4,9.1a16.3,16.3,0,0,0,4.9-.8,56.7,56.7,0,0,0,5.4-2.9Z"></path>
  <path d="M171.9,27.6h-8.3V21.8l-14.2,6.1V81.3h22.8a65.2,65.2,0,0,1-.3-6.9V27.6Z" style="fill:#ed1c24"></path>
  <rect x="206.1" width="11.4" height="27.61"></rect>
  <path d="M205.5,81.3a13.1,13.1,0,0,1-2.2,5.1c-1.8,2.3-4.7,3.4-8.5,3.4s-6.7-1-8.5-3.4a13.1,13.1,0,0,1-2.2-5.1,26,26,0,0,1-.6-5.9V0H171.9V74.4a65.2,65.2,0,0,0,.3,6.9c.7,6.4,2.4,11.2,5.1,14.8s9.6,6.8,17.4,6.8,13.7-2.4,17.4-6.8,4.4-8.4,5.1-14.8H205.5Z"></path>
  <rect x="211.3" y="75.5" height="11.67"></rect>
  <rect x="206.1" y="27.6" width="11.4" height="0.02"></rect>
  <path d="M249.8,69c-.6-.6-.6-.6-.6-1.5s-2.3-.9-2.9-3.1h-1.7c-.3-.6,0-1.8-.6-2.8-3.5-2.1-2.9-.9-2.9-3.4s.9-.6.9-1.8a1.7,1.7,0,0,1,1.2-.3c0-3.1,1.7-.3-.6-4.6.6-.6.9-.9,1.7-.9s.6-.6.3-1.5,1.2-1.2,1.5-1.8,1.7-4.6,3.8-4.6v-.9c-.3-.3-2-1.2-2.3-.9s-.9-1.2-1.4-.3c-.6-.6-1.7-1.2-2-2.1V35.6a1.3,1.3,0,0,0-.9-.9c0-1.2.3-.3-.6-1.5l.3-.6-.3-.9c-.6,0-.3-.9-1.2-1.2s-1.2.9-1.7-.3.6-.9.6-1.2c-.9-1.8,0-1.2-1.7-1.2H183.3V75.4a26.1,26.1,0,0,0,.6,5.9h48.2a6.1,6.1,0,0,1,.6-2.1c1.2-1.5,3.8-1.2,5.2.3,2.3,0,.9-.3,2-1.8,4.1,0,1.4-.3,3.8-3.1A2.9,2.9,0,0,0,246,73c2,0,2.9-1.2,4.1-2.8C250.1,70.3,250.4,68.4,249.8,69Z" style="fill:#ed1c24"></path>
</svg>
