<?xml version="1.0" encoding="UTF-8"?>
<svg xmlns="http://www.w3.org/2000/svg" xmlns:xlink="http://www.w3.org/1999/xlink" width="154px" height="64px" viewBox="0 0 154 64">
  <!-- Generator: Sketch 50.2 (55047) - http://www.bohemiancoding.com/sketch -->
  <title>psecu-logo</title>
  <desc>Created with Sketch.</desc>
  <defs></defs>
  <g id="Design" stroke="none" stroke-width="1" fill="none" fill-rule="evenodd">
    <g id="Artboard" transform="translate(-374.000000, -685.000000)" fill-rule="nonzero">
      <g id="psecu-logo" transform="translate(374.000000, 685.000000)">
        <path d="M142.485296,1.00137665 C143.077067,0.989839909 143.665314,1.09560737 144.216546,1.31265723 C144.773668,1.53895805 145.278732,1.87798585 145.700474,2.30875508 C146.122702,2.71404688 146.459203,3.20109821 146.689759,3.74064574 C146.902294,4.29652863 147.007232,4.88822395 146.998911,5.48381697 C147.012005,6.07979199 146.906904,6.67241048 146.689759,7.22698821 C146.460722,7.76738372 146.12402,8.2547259 145.700474,8.65887887 C145.272563,9.08206525 144.769089,9.42002648 144.216546,9.65497672 C143.129027,10.1150078 141.903396,10.1150078 140.815877,9.65497672 C140.26036,9.42562499 139.755871,9.08698284 139.331949,8.65887887 C138.912247,8.25141314 138.576122,7.7649066 138.342664,7.22698821 C137.885779,6.13198048 137.885779,4.89790959 138.342664,3.80290185 C138.574675,3.24583319 138.910484,2.73865143 139.331949,2.30875508 C139.733338,1.88229215 140.217347,1.5432715 140.754047,1.31265723 C141.30437,1.09238071 141.893268,0.986496207 142.485296,1.00137665 Z M146.504268,5.54607309 C146.504268,3.31117138 144.704913,1.49942558 142.485296,1.49942558 C141.954524,1.49775496 141.428843,1.60361525 140.939538,1.81070615 C140.451113,2.00691701 140.008835,2.30379923 139.641101,2.68229177 C139.268723,3.07928877 138.974936,3.54413335 138.775476,4.05192631 C138.571396,4.54509194 138.466324,5.07406645 138.466324,5.60832921 C138.462951,6.14292283 138.568156,6.67256739 138.775476,7.1647321 C139.194162,8.14255463 139.968403,8.92212679 140.939538,9.34369614 C141.428337,9.55244428 141.954359,9.65837319 142.485296,9.65497672 C143.016068,9.65664733 143.54175,9.55078704 144.031055,9.34369614 C144.535375,9.1428624 144.99704,8.84705221 145.391322,8.47211052 C145.767226,8.10184353 146.062078,7.65652021 146.256947,7.1647321 C146.449814,6.64824331 146.534033,6.09704876 146.504268,5.54607309 Z M142.608957,2.86906012 C143.169112,2.83808623 143.726515,2.96760345 144.216546,3.24259681 C144.565348,3.50281852 144.753089,3.92814352 144.711188,4.36320689 C144.71615,4.71184389 144.582594,5.04803242 144.340206,5.29704863 C144.099188,5.5583439 143.766459,5.71468662 143.412751,5.73284144 L144.587528,8.16082994 L143.783733,8.16082994 L142.670787,5.85735367 L141.37235,5.85735367 L141.37235,8.16082994 L140.692216,8.16082994 L140.692216,2.86906012 L142.608957,2.86906012 Z M142.485296,3.36710904 L141.434181,3.36710904 L141.434181,5.23479251 L142.485296,5.23479251 C142.912139,5.2637037 143.338938,5.17775628 143.721903,4.98576805 C143.940495,4.80293483 144.05604,4.52371751 144.031055,4.23869466 C144.04497,3.9583787 143.901675,3.69386039 143.660073,3.55387739 C143.295592,3.37247707 142.891477,3.28681418 142.485296,3.30485293 L142.485296,3.36710904 Z" id="Shape" fill="#000000"></path>
        <path d="M7.23958222,28.2480177 L9.77652984,28.2480177 C12.9941219,28.2480177 15.407316,27.4540356 16.6448514,25.8660716 C17.8823869,24.2781076 18.7486617,21.7129349 18.7486617,18.0484025 C18.7486617,14.3838701 18.1298939,12.1240751 16.6448514,10.536111 C15.1598089,8.94814698 12.6847381,8.33739158 9.28151567,8.33739158 L7.23958222,8.33739158 L7.23958222,28.2480177 Z M0,63 L0,1.00832676 L8.66274796,1.00832676 C11.2441946,0.948084484 13.8228082,1.21492245 16.3354676,1.80230879 C18.0641713,2.34946166 19.648918,3.26714096 20.9762254,4.48963255 C22.7412874,6.09055678 24.0257541,8.14022233 24.6888317,10.4139599 C25.6385881,13.0161473 26.0795229,15.7725738 25.9882439,18.5370068 C25.9882439,24.0948809 24.5650781,28.4312443 21.8425002,31.3017947 C19.1199223,34.1723451 14.7266715,35.7603091 9.28151567,35.7603091 L7.23958222,35.7603091 L7.23958222,63 L0,63 Z" id="Shape" fill="#000000"></path>
        <path d="M28.5025021,52.3019955 C29.9410432,53.3548293 31.5177574,54.2085447 33.1891085,54.8395688 C34.5018252,55.44918 35.9266375,55.7861881 37.3758101,55.8298413 C39.4014359,55.8566374 41.3474846,55.0497828 42.7497853,53.6017282 C44.0620351,52.1782115 44.686916,50.0738825 44.686916,47.6600933 C44.686916,43.9465715 42.1249045,39.7998055 37.0633697,34.9722271 C36.583896,34.5827439 36.1443541,34.1473946 35.7511199,33.6724945 C32.5017395,30.639785 30.2521685,27.7308596 28.9399187,25.1932864 C27.6149421,22.4961614 26.9512472,19.5274201 27.0027881,16.5284022 C27.0027881,11.7008238 28.3150379,7.86351798 30.8770493,4.64513242 C33.4390608,1.42674686 36.7509293,0.00323016969 40.6876786,0.00323016969 C42.3342563,-0.0289599019 43.9766228,0.179591448 45.5617491,0.62215047 C47.2111089,1.1696941 48.7853748,1.91813386 50.2483554,2.85026355 L50.2483554,11.2675796 C48.9796219,10.2317464 47.5702887,9.37754511 46.0616538,8.7300064 C44.7886322,8.15477351 43.3983993,7.87937915 41.9999283,7.92541001 C39.933995,7.87906919 37.9417617,8.68629965 36.5009769,10.1535231 C35.0832568,11.9306493 34.3323183,14.1401001 34.3763821,16.4046181 C34.3763821,19.9324638 37.1258578,24.2649059 42.499833,29.0924843 L43.5621304,30.2065408 C46.1890525,32.537095 48.3879014,35.3013207 50.0608912,38.3762888 C51.3794493,41.2293063 52.0411218,44.3369863 51.9980218,47.4744172 C51.9980218,52.3019955 50.685772,56.1393014 48.1237606,59.357687 C45.5949915,62.3289379 41.8615816,64.0303787 37.9382029,63.9995892 C36.3843543,63.971134 34.8448133,63.6995843 33.3765727,63.1949928 C31.6313851,62.6552759 29.9855465,61.8402061 28.5025021,60.7812037 L28.5025021,52.3019955 Z" id="Shape" fill="#000000"></path>
        <polygon id="Shape" fill="#000000" points="55 63 55 1 76 1 76 8.45221675 62.1217391 8.45221675 62.1217391 26.8384236 74.9043478 26.8384236 74.9043478 34.2906404 62.1217391 34.2906404 62.1217391 55.1812808 76 55.1812808 76 63"></polygon>
        <path d="M104,61.7717628 C102.854668,62.5103105 101.593955,63.054153 100.26943,63.3810452 C99.0206052,63.7689887 97.722528,63.9774108 96.4145078,64 C90.9430052,64 86.7772021,61.276599 84.0414508,56.1392745 C81.3056995,51.00195 80,43.0174335 80,32.557098 C80,22.0967625 81.4300518,13.8027686 84.3523316,8.17028027 C87.2746114,2.53779192 91.5647668,7.738632e-05 97.2227979,7.738632e-05 C98.421832,-0.00412218764 99.6152921,0.162624797 100.766839,0.495241198 C101.896573,0.695562896 102.987626,1.07152992 104,1.60935977 L104,9.65577171 C103.034321,9.11478771 102.012877,8.67900224 100.953368,8.3559667 C100.140346,8.04001663 99.2768444,7.87228923 98.4041451,7.86080289 C94.5492228,7.86080289 91.626943,9.77956266 89.8860104,13.8027686 C88.1450777,17.8259746 87.2746114,23.8917313 87.2746114,32.433307 C87.2746114,40.9748828 88.0829016,46.3597892 89.8860104,50.2592042 C91.6891192,54.1586192 94.0518135,55.8916926 97.5958549,55.8916926 C98.6308404,55.8824755 99.6583005,55.7154842 100.642487,55.3965288 C101.79335,54.8589073 102.914158,54.2597091 104,53.60156 L104,61.7717628 Z" id="Shape" fill="#000000"></path>
        <path d="M106.815789,17.6067227 L101.719298,17.6067227 L101.719298,14 L93,17.7932773 L93,51 L107,51 C106.863787,49.5740482 106.802297,48.1417872 106.815789,46.7092437 L106.815789,17.6067227 Z" id="Shape" fill="#ED1C24"></path>
        <rect id="Rectangle-path" fill="#000000" x="127" y="0" width="7" height="17"></rect>
        <path d="M126.768685,49.7755102 C126.545956,50.9006378 126.08229,51.9653831 125.408951,52.8979592 C124.296441,54.3061224 122.504064,54.9795918 120.155432,54.9795918 C117.8068,54.9795918 116.014423,54.3673469 114.901913,52.8979592 C114.228573,51.9653831 113.764908,50.9006378 113.542178,49.7755102 C113.279891,48.5893801 113.155469,47.3774166 113.171342,46.1632653 L113.171342,0 L106.001833,0 L106.001833,45.5510204 C105.988252,46.9614397 106.050145,48.3715808 106.187251,49.7755102 C106.619894,53.6938776 107.670598,56.6326531 109.339363,58.8367347 C111.008128,61.0408163 115.272749,63 120.093626,63 C124.914502,63 128.561062,61.5306122 130.847888,58.8367347 C133.134714,56.1428571 133.567357,53.6938776 134,49.7755102 L126.768685,49.7755102 Z" id="Shape" fill="#000000"></path>
        <rect id="Rectangle-path" fill="#000000" x="130" y="47" width="1" height="7"></rect>
        <rect id="Rectangle-path" fill="#000000" x="127" y="17" width="7" height="1"></rect>
        <path d="M153.7701,42.4266736 C153.402261,42.0572431 153.402261,42.0572431 153.402261,41.5030972 C153.402261,40.9489514 151.992211,40.9489514 151.624372,39.5943727 L150.58216,39.5943727 C150.398241,39.2249422 150.58216,38.4860811 150.214321,37.8703635 C148.068592,36.5773565 148.436432,37.3162176 148.436432,35.7769237 C148.436432,34.2376297 148.98819,35.4074931 148.98819,34.668632 C149.201622,34.5164658 149.464248,34.4505252 149.723869,34.4839167 C149.723869,32.5751922 150.76608,34.2992014 149.35603,31.6516158 C149.723869,31.2821852 149.907789,31.09747 150.398241,31.09747 C150.888693,31.09747 150.76608,30.7280394 150.58216,30.1738936 C150.398241,29.6197477 151.317839,29.4350325 151.501759,29.0656019 C151.685678,28.6961714 152.54397,26.233301 153.831407,26.233301 L153.831407,25.6791552 C153.647487,25.4944399 152.605276,24.9402941 152.421357,25.1250093 C152.237437,25.3097246 151.869598,24.3861482 151.563065,24.9402941 C151.195226,24.5708635 150.520854,24.2014329 150.336934,23.6472871 L150.336934,21.8617061 C150.261784,21.5930143 150.05271,21.3830353 149.785175,21.3075603 C149.785175,20.5686992 149.969095,21.122845 149.417336,20.3839839 L149.601256,20.0145533 L149.417336,19.4604075 C149.049497,19.4604075 149.233417,18.9062617 148.681658,18.7215464 C148.129899,18.5368311 147.945979,19.2756922 147.639447,18.5368311 C147.332914,17.79797 148.007286,17.9826853 148.007286,17.79797 C147.455527,16.6896783 148.007286,17.0591089 146.965075,17.0591089 L113.001252,17.0591089 L113.001252,46.3672662 C112.986043,47.5882804 113.109453,48.8070573 113.369091,50 L142.918843,50 C142.963007,49.5502828 143.087617,49.1122612 143.286682,48.7069931 C144.022361,47.7834167 145.616331,47.968132 146.474622,48.8917083 C147.884673,48.8917083 147.026381,48.7069931 147.700753,47.7834167 C150.214321,47.7834167 148.559045,47.5987014 150.030402,45.8746921 C150.637665,45.8112506 151.170038,45.4393015 151.440452,44.889544 C152.666583,44.889544 153.218342,44.1506829 153.95402,43.1655347 C153.95402,43.2271065 154.13794,42.0572431 153.7701,42.4266736 Z" id="Shape" fill="#ED1C24"></path>
      </g>
    </g>
  </g>
</svg>
