<?xml version="1.0" encoding="UTF-8"?>
<svg xmlns="http://www.w3.org/2000/svg" xmlns:xlink="http://www.w3.org/1999/xlink" width="257px" height="44px" viewBox="0 0 257 44">
  <!-- Generator: Sketch 50.2 (55047) - http://www.bohemiancoding.com/sketch -->
  <title>Regions-logo_grey</title>
  <desc>Created with Sketch.</desc>
  <defs>
    <polygon id="path-1" points="0 0.382173591 271.301977 0.382173591 271.301977 49.6825668 0 49.6825668"></polygon>
    <polygon id="path-3" points="0 0.810208014 256.56651 0.810208014 256.56651 44.0990108 0 44.0990108"></polygon>
  </defs>
  <g id="Design" stroke="none" stroke-width="1" fill="none" fill-rule="evenodd">
    <g id="home" transform="translate(-463.000000, -949.000000)">
      <g id="Regions-logo_grey" transform="translate(453.000000, 942.000000)">
        <g id="g2993" transform="translate(138.044880, 27.238235) scale(-1, 1) rotate(-180.000000) translate(-138.044880, -27.238235) translate(0.912805, 0.660110)">
          <g id="g3015" transform="translate(0.057361, 0.238709)">
            <g id="g3017-Clipped">
              <g>
                <mask id="mask-2" fill="white">
                  <use xlink:href="#path-1"></use>
                </mask>
                <g id="path-1"></g>
                <g id="g3017" mask="url(#mask-2)">
                  <g transform="translate(8.679245, 1.771875)" id="g3023">
                    <g transform="translate(0.740963, 0.138993)">
                      <g id="Group">
                        <g id="g3025-Clipped">
                          <g>
                            <mask id="mask-4" fill="white">
                              <use xlink:href="#path-3"></use>
                            </mask>
                            <g id="path-3"></g>
                            <g id="g3025" mask="url(#mask-4)" fill="#BFBFBF" fill-rule="nonzero">
                              <polyline id="path3031" points="25.7669052 1.54627435 0 1.54627435 16.0152948 23.292525 25.7669052 1.54627435"></polyline>
                              <polyline id="path3033" points="24.6430745 35.0294581 28.7320097 1.53366262 16.6095215 24.0045143 24.6430745 35.0294581"></polyline>
                              <polyline id="path3035" points="31.2315676 44.0990108 37.3362388 35.8465453 31.2315676 1.53366262 25.1679684 35.8696667 31.2315676 44.0990108"></polyline>
                              <polyline id="path3037" points="37.8722487 35.0764654 45.9868154 24.0773185 33.8856169 1.53366262 37.8722487 35.0764654"></polyline>
                              <polyline id="path3039" points="46.4992748 23.3494688 62.5878586 1.53366262 36.8980109 1.53366262 46.4992748 23.3494688"></polyline>
                              <path d="M77.8350298,26.9237473 C77.8350298,29.485457 77.2513538,30.4781528 73.9075569,31.1054908 L73.9075569,31.9942355 L88.6633699,31.9942355 C97.2625121,31.9942355 100.712192,28.5967123 100.712192,24.3106355 C100.712192,21.1743278 98.9076572,18.3000003 94.4488846,17.0453243 L94.4488846,16.9407999 C97.8993183,16.1567708 101.243115,6.38249007 104.056366,3.61230478 C104.852562,2.82846674 105.542498,2.51432006 106.869993,2.30565328 L106.869993,1.4167175 L97.8993183,1.4167175 C94.5020145,5.38941199 92.2728166,12.2364341 89.8842288,14.5885214 C88.50398,15.9473396 87.4428878,15.9998885 84.6823903,15.9998885 L84.6823903,6.5919212 C84.6823903,3.87371152 85.7973661,2.72375118 88.6633699,2.30565328 L88.6633699,1.4167175 L73.9075569,1.4167175 L73.9075569,2.30565328 C76.4551579,2.51432006 77.8350298,3.76899596 77.8350298,6.2257989 L77.8350298,26.9237473 M84.6823903,17.7246379 C90.5745416,17.30654 93.2815324,19.1354317 93.2815324,24.2057288 C93.2815324,28.1262565 91.0519577,30.2691038 86.805705,30.2691038 L84.6823903,30.2691038" id="path3041"></path>
                              <path d="M127.207091,9.58319389 L126.427098,9.58319389 C126.139593,11.6448293 125.072472,12.6151681 123.102141,12.6151681 L118.873222,12.6151681 L118.873222,5.66151958 C118.873222,3.51867226 119.776808,2.75088551 122.15786,2.75088551 L123.553558,2.75088551 C126.509242,2.75088551 127.823173,4.89335067 128.603166,7.15734703 L129.301015,7.15734703 L128.849598,1.4167175 L110.539353,1.4167175 L110.539353,2.10386562 C113.207909,2.67024688 113.577558,3.47854403 113.577558,5.90362656 L113.577558,21.1043901 C113.577558,23.1660255 113.084693,23.8940662 110.539353,24.3790446 L110.539353,25.0660016 L128.562094,25.0660016 L128.562094,19.8109235 L127.863868,19.8109235 C127.084252,22.8427067 126.180665,23.7318335 123.512486,23.7318335 L118.873222,23.7318335 L118.873222,13.9489539 L123.102141,13.9489539 C125.0314,13.9489539 125.934609,14.7572511 126.427098,16.9000984 L127.207091,16.9000984 L127.207091,9.58319389" id="path3043"></path>
                              <path d="M156.272953,2.50820528 C153.974045,1.4167175 150.566191,0.810208014 146.954107,0.810208014 C138.291661,0.810208014 133.89883,6.99568759 133.89883,13.0598271 C133.89883,20.2955196 139.441303,25.672702 146.954107,25.672702 C150.60764,25.672702 152.249771,24.2577044 153.809757,24.2577044 C154.466911,24.2577044 154.91795,24.4596831 155.534409,25.0660016 L156.272953,25.0660016 L156.272953,18.4358629 L155.534409,18.4358629 C154.097262,22.0342184 150.895145,24.338152 147.282684,24.338152 C142.355538,24.338152 139.646663,19.9720098 139.646663,12.6554874 C139.646663,5.09513831 142.930925,2.14475819 147.364074,2.14475819 C149.540142,2.14475819 150.977289,2.71037512 150.977289,4.65028826 L150.977289,8.16838725 C150.977289,9.70415184 150.361961,10.7151921 148.514093,11.0786392 L148.514093,11.7661694 L158.613309,11.7661694 L158.613309,11.0786392 C156.847962,10.593852 156.272953,9.70415184 156.272953,7.52155845 L156.272953,2.50820528" id="path3045"></path>
                              <path d="M171.709282,5.41883936 C171.709282,3.3168846 172.242842,2.71037512 174.747487,2.10386562 L174.747487,1.4167175 L163.375789,1.4167175 L163.375789,2.10386562 C166.331097,2.83190631 166.412864,3.64020345 166.412864,5.94471022 L166.412864,21.0636885 C166.412864,23.1660255 165.879304,23.7725349 163.375789,24.3790446 L163.375789,25.0660016 L174.747487,25.0660016 L174.747487,24.3790446 C171.87357,23.7318335 171.709282,22.8427067 171.709282,20.5790924 L171.709282,5.41883936" id="path3047"></path>
                              <path d="M193.303035,0.810208014 C185.708088,0.810208014 180.248134,5.9854117 180.248134,13.2214865 C180.248134,20.4575613 185.708088,25.672702 193.303035,25.672702 C200.939432,25.672702 206.399384,20.4575613 206.399384,13.2214865 C206.399384,5.9854117 200.939432,0.810208014 193.303035,0.810208014 M193.303035,24.338152 C188.582004,24.338152 185.995968,20.4978807 185.995968,13.0191256 C185.995968,7.31938863 187.884155,2.14475819 193.303035,2.14475819 C197.326217,2.14475819 200.65155,5.25679776 200.65155,13.0598271 C200.65155,19.6895834 198.55838,24.338152 193.303035,24.338152" id="path3049"></path>
                              <path d="M233.453843,1.13352687 L232.67385,1.13352687 L215.39003,20.3364122 L215.39003,5.86407159 C215.39003,3.27675638 216.170024,2.5483335 218.920725,2.10386562 L218.920725,1.4167175 L210.628305,1.4167175 L210.628305,2.10386562 C213.21434,2.50820528 213.829667,3.88326586 213.788972,6.18739044 L213.788972,22.0342184 C211.941858,23.8940662 211.572209,24.1764925 210.587231,24.3790446 L210.587231,25.0660016 L217.812531,25.0660016 L231.852785,9.21898245 L231.852785,19.8508607 C231.852785,22.7213665 231.35992,23.8128543 228.814957,24.3790446 L228.814957,25.0660016 L236.943089,25.0660016 L236.943089,24.3790446 C234.192765,24.2173851 233.453843,22.5998354 233.453843,20.4978807 L233.453843,1.13352687" id="path3051"></path>
                              <path d="M255.170436,19.4467121 L254.472963,19.4467121 C253.569754,22.1958779 250.983719,24.338152 248.520147,24.338152 C246.344079,24.338152 244.579108,22.9233452 244.579108,21.1447095 C244.579108,20.2552004 245.030524,19.3662645 245.769446,18.638415 C246.959783,17.4657153 252.461562,14.5961649 253.939027,13.1402746 C255.745445,11.3620209 256.56651,9.74485332 256.56651,7.68321788 C256.56651,2.46769488 251.804408,0.810208014 248.848724,0.810208014 C245.974807,0.810208014 244.209082,1.74003636 242.977673,1.74003636 C242.444113,1.74003636 241.99232,1.4572279 241.746263,0.971867443 L241.048039,0.971867443 L241.048039,8.08736646 L241.746263,8.08736646 C242.444113,4.56964962 244.743398,2.14475819 248.191193,2.14475819 C250.777605,2.14475819 252.625097,3.55956483 252.625097,5.49986015 C252.625097,6.26802908 252.297273,7.31938863 251.394064,8.20870657 C249.546195,10.0280439 245.31803,11.7661694 243.306627,13.7467841 C241.869481,15.1617818 241.171631,16.9000984 241.171631,18.7597551 C241.171631,22.8427067 244.291226,25.672702 248.72513,25.672702 C249.628717,25.672702 250.449783,25.5108515 251.188702,25.3491922 C251.927247,25.1873417 252.625097,25.0258734 253.241177,25.0258734 C253.610826,25.0258734 254.02117,25.2276609 254.472963,25.672702 L255.170436,25.672702 L255.170436,19.4467121" id="path3053"></path>
                            </g>
                          </g>
                        </g>
                      </g>
                    </g>
                  </g>
                </g>
              </g>
            </g>
          </g>
        </g>
      </g>
    </g>
  </g>
</svg>
