<?xml version="1.0" encoding="UTF-8"?>
<svg xmlns="http://www.w3.org/2000/svg" xmlns:xlink="http://www.w3.org/1999/xlink" width="148px" height="25px" viewBox="0 0 148 25">
  <!-- Generator: Sketch 50.2 (55047) - http://www.bohemiancoding.com/sketch -->
  <title>Regions-logo</title>
  <desc>Created with Sketch.</desc>
  <defs>
    <polygon id="path-1" points="0 0.215688799 156.29353 0.215688799 156.29353 28.0395439 0 28.0395439"></polygon>
    <polygon id="path-3" points="0 0.457260255 147.80462 0.457260255 147.80462 24.8883306 0 24.8883306"></polygon>
  </defs>
  <g id="Design" stroke="none" stroke-width="1" fill="none" fill-rule="evenodd">
    <g id="dropdown_menu" transform="translate(-804.000000, -942.000000)">
      <g id="Group-8" transform="translate(518.000000, 937.000000)">
        <g id="Regions-logo" transform="translate(280.525855, 1.352941)">
          <g id="g2993" transform="translate(79.000000, 15.019608) scale(-1, 1) rotate(-180.000000) translate(-79.000000, -15.019608) translate(0.000000, 0.019608)">
            <g id="g3015" transform="translate(0.033045, 0.134721)">
              <g id="g3017-Clipped">
                <mask id="mask-2" fill="white">
                  <use xlink:href="#path-1"></use>
                </mask>
                <g id="path3021"></g>
                <g id="g3017" mask="url(#mask-2)">
                  <g transform="translate(5.426859, 1.078444)" id="g3023">
                    <g>
                      <g id="g3025-Clipped">
                        <mask id="mask-4" fill="white">
                          <use xlink:href="#path-3"></use>
                        </mask>
                        <g id="path3029"></g>
                        <g id="g3025" mask="url(#mask-4)" fill-rule="nonzero">
                          <polyline id="path3031" fill="#8CC63E" points="14.843978 0.872676883 0 0.872676883 9.22620244 13.1456931 14.843978 0.872676883"></polyline>
                          <polyline id="path3033" fill="#8CC63E" points="14.1965538 19.7697118 16.552136 0.865559152 9.56852868 13.5475213 14.1965538 19.7697118"></polyline>
                          <polyline id="path3035" fill="#8CC63E" points="17.9920987 24.8883306 21.5089202 20.2308545 17.9920987 0.865559152 14.4989383 20.2439036 17.9920987 24.8883306"></polyline>
                          <polyline id="path3037" fill="#8CC63E" points="21.8177085 19.7962415 26.4924045 13.5886101 19.5210619 0.865559152 21.8177085 19.7962415"></polyline>
                          <polyline id="path3039" fill="#8CC63E" points="26.7876257 13.1778307 36.056049 0.865559152 21.2564628 0.865559152 26.7876257 13.1778307"></polyline>
                          <path d="M44.8397454,15.1950602 C44.8397454,16.6408223 44.5034973,17.2010739 42.5771795,17.5551271 L42.5771795,18.0567114 L51.0778109,18.0567114 C56.0316646,18.0567114 58.0189803,16.139238 58.0189803,13.7202881 C58.0189803,11.9502379 56.9794112,10.3280425 54.4107705,9.61993614 L54.4107705,9.56094526 C56.3985203,9.11845969 58.324838,3.6021108 59.9455151,2.03869053 C60.4041932,1.5963128 60.8016563,1.41901661 61.5664092,1.30125053 L61.5664092,0.79955838 L56.3985203,0.79955838 C54.4413779,3.04164345 53.1571661,6.90592398 51.7811318,8.2333807 C50.9859885,9.00026222 50.3747071,9.02991943 48.7844205,9.02991943 L48.7844205,3.72030826 C48.7844205,2.18622167 49.4267435,1.53721407 51.0778109,1.30125053 L51.0778109,0.79955838 L42.5771795,0.79955838 L42.5771795,1.30125053 C44.0448192,1.41901661 44.8397454,2.12712294 44.8397454,3.51367839 L44.8397454,15.1950602 M48.7844205,10.003323 C52.178812,9.76735944 53.7382741,10.7995382 53.7382741,13.6610815 C53.7382741,15.873725 52.4538452,17.0830921 50.0076344,17.0830921 L48.7844205,17.0830921" id="path3041" fill="#5E9732"></path>
                          <path d="M73.2823459,5.40850449 L72.833002,5.40850449 C72.6673743,6.57203772 72.0526197,7.11967158 70.917538,7.11967158 L68.4813126,7.11967158 L68.4813126,3.19521387 C68.4813126,1.98584678 69.0018569,1.55252798 70.3735497,1.55252798 L71.177593,1.55252798 C72.8803242,1.55252798 73.6372625,2.76167939 74.0866064,4.03941984 L74.488628,4.03941984 L74.228573,0.79955838 L63.6802792,0.79955838 L63.6802792,1.18736684 C65.2175998,1.50701764 65.4305497,1.96319945 65.4305497,3.33185273 L65.4305497,11.9107669 C65.4305497,13.0743001 65.1466164,13.4851873 63.6802792,13.7588964 L63.6802792,14.146597 L74.0629453,14.146597 L74.0629453,11.1807681 L73.6607065,11.1807681 C73.2115797,12.8918274 72.6910354,13.3936274 71.1539319,13.3936274 L68.4813126,13.3936274 L68.4813126,7.87242549 L70.917538,7.87242549 C72.0289586,7.87242549 72.5492858,8.3286073 72.833002,9.5379744 L73.2823459,9.5379744 L73.2823459,5.40850449" id="path3043" fill="#5E9732"></path>
                          <path d="M90.0268098,1.41556559 C88.7024392,0.79955838 86.7392188,0.457260255 84.6583441,0.457260255 C79.668022,0.457260255 77.1373692,3.94818347 77.1373692,7.3706255 C77.1373692,11.4542615 80.3303158,14.4890029 84.6583441,14.4890029 C86.763097,14.4890029 87.709107,13.6904152 88.6077948,13.6904152 C88.9863725,13.6904152 89.2462105,13.8044067 89.6013441,14.146597 L90.0268098,14.146597 L90.0268098,10.4047198 L89.6013441,10.4047198 C88.7734225,12.4355377 86.9287247,13.7358177 84.847633,13.7358177 C82.0091688,13.7358177 80.4486213,11.271681 80.4486213,7.14242675 C80.4486213,2.87556307 82.3406413,1.21044554 84.894521,1.21044554 C86.1481254,1.21044554 86.9760469,1.52966497 86.9760469,2.62450131 L86.9760469,4.61002455 C86.9760469,5.47677 86.6215645,6.04737471 85.5570319,6.25249476 L85.5570319,6.64051891 L91.3750586,6.64051891 L91.3750586,6.25249476 C90.3580653,5.97889352 90.0268098,5.47677 90.0268098,4.24497126 L90.0268098,1.41556559" id="path3045" fill="#5E9732"></path>
                          <path d="M98.9194775,3.05825149 C98.9194775,1.87196309 99.2268548,1.52966497 100.669748,1.18736684 L100.669748,0.79955838 L94.1186613,0.79955838 L94.1186613,1.18736684 C95.8211754,1.598254 95.8682805,2.05443581 95.8682805,3.35503928 L95.8682805,11.887796 C95.8682805,13.0743001 95.5609032,13.4165982 94.1186613,13.7588964 L94.1186613,14.146597 L100.669748,14.146597 L100.669748,13.7588964 C99.0141219,13.3936274 98.9194775,12.8918274 98.9194775,11.6143026 L98.9194775,3.05825149" id="path3047" fill="#5E9732"></path>
                          <path d="M111.359357,0.457260255 C106.984007,0.457260255 103.838599,3.37801013 103.838599,7.46186186 C103.838599,11.5457136 106.984007,14.4890029 111.359357,14.4890029 C115.758586,14.4890029 118.903993,11.5457136 118.903993,7.46186186 C118.903993,3.37801013 115.758586,0.457260255 111.359357,0.457260255 M111.359357,13.7358177 C108.639633,13.7358177 107.149851,11.5684688 107.149851,7.34765464 C107.149851,4.13087189 108.237611,1.21044554 111.359357,1.21044554 C113.67706,1.21044554 115.592741,2.96679944 115.592741,7.3706255 C115.592741,11.1122869 114.386893,13.7358177 111.359357,13.7358177" id="path3049" fill="#5E9732"></path>
                          <path d="M134.489714,0.639732979 L134.04037,0.639732979 L124.083387,11.4773402 L124.083387,3.30952894 C124.083387,1.84931577 124.532731,1.43821291 126.117374,1.18736684 L126.117374,0.79955838 L121.340219,0.79955838 L121.340219,1.18736684 C122.83,1.41556559 123.184482,2.19161389 123.161038,3.49200166 L123.161038,12.4355377 C122.09694,13.4851873 121.88399,13.6445813 121.316557,13.7588964 L121.316557,14.146597 L125.478958,14.146597 L133.567365,5.20295306 L133.567365,11.2033076 C133.567365,12.8233462 133.283432,13.4393534 131.817312,13.7588964 L131.817312,14.146597 L136.499823,14.146597 L136.499823,13.7588964 C134.915397,13.66766 134.489714,12.7547572 134.489714,11.5684688 L134.489714,0.639732979" id="path3051" fill="#5E9732"></path>
                          <path d="M147.00036,10.9752167 L146.598555,10.9752167 C146.078228,12.5267741 144.588447,13.7358177 143.169215,13.7358177 C141.915611,13.7358177 140.898834,12.9373377 140.898834,11.9335221 C140.898834,11.4315064 141.158889,10.9298142 141.584572,10.5190349 C142.27031,9.85719382 145.439813,8.23769447 146.290961,7.41602799 C147.331615,6.41242801 147.80462,5.49974085 147.80462,4.33620762 C147.80462,1.39270258 145.061235,0.457260255 143.358504,0.457260255 C141.702878,0.457260255 140.685667,0.982031104 139.976268,0.982031104 C139.668891,0.982031104 139.408619,0.822421392 139.266869,0.548496617 L138.864631,0.548496617 L138.864631,4.56429853 L139.266869,4.56429853 C139.668891,2.57899097 140.993479,1.21044554 142.979709,1.21044554 C144.469707,1.21044554 145.534023,2.00892548 145.534023,3.10397751 C145.534023,3.537512 145.345168,4.13087189 144.824841,4.63277972 C143.760308,5.65956625 141.324517,6.64051891 140.165774,7.75832612 C139.337853,8.5569139 138.935831,9.5379744 138.935831,10.5875161 C138.935831,12.8918274 140.732989,14.4890029 143.287303,14.4890029 C143.807848,14.4890029 144.280853,14.3976587 144.706535,14.3064224 C145.132001,14.2150782 145.534023,14.1239497 145.888939,14.1239497 C146.101889,14.1239497 146.338283,14.2378333 146.598555,14.4890029 L147.00036,14.4890029 L147.00036,10.9752167" id="path3053" fill="#5E9732"></path>
                        </g>
                      </g>
                    </g>
                  </g>
                </g>
              </g>
            </g>
          </g>
        </g>
      </g>
    </g>
  </g>
</svg>
