<?xml version="1.0" encoding="UTF-8"?>
<svg xmlns="http://www.w3.org/2000/svg" xmlns:xlink="http://www.w3.org/1999/xlink" width="188px" height="32px" viewBox="0 0 188 32">
  <!-- Generator: Sketch 50 (54983) - http://www.bohemiancoding.com/sketch -->
  <title>Regions-logo</title>
  <desc>Created with Sketch.</desc>
  <defs>
    <polygon id="path-1" points="0 0.275003219 198.808158 0.275003219 198.808158 35.7504185 0 35.7504185"></polygon>
    <polygon id="path-3" points="0 0.583006825 188.010114 0.583006825 188.010114 31.7326215 0 31.7326215"></polygon>
  </defs>
  <g id="Design" stroke="none" stroke-width="1" fill="none" fill-rule="evenodd">
    <g id="home" transform="translate(-379.000000, -916.000000)">
      <g id="featured-clients" transform="translate(90.000000, 800.000000)">
        <g id="row-1" transform="translate(60.000000, 110.000000)">
          <g id="Regions-logo" transform="translate(222.000000, 3.000000)">
            <g id="g2993" transform="translate(100.000000, 18.500000) scale(-1, 1) rotate(-180.000000) translate(-100.000000, -18.500000) ">
              <g id="g3015" transform="translate(0.042034, 0.171770)">
                <g id="g3017-Clipped">
                  <mask id="mask-2" fill="white">
                    <use xlink:href="#path-1"></use>
                  </mask>
                  <g id="path3021"></g>
                  <g id="g3017" mask="url(#mask-2)">
                    <g transform="translate(6.903061, 1.375016)" id="g3023">
                      <g>
                        <g id="g3025-Clipped">
                          <mask id="mask-4" fill="white">
                            <use xlink:href="#path-3"></use>
                          </mask>
                          <g id="path3029"></g>
                          <g id="g3025" mask="url(#mask-4)" fill-rule="nonzero">
                            <polyline id="path3031" fill="#8CC63E" points="18.8818048 1.11266303 0 1.11266303 11.7358941 16.7607587 18.8818048 1.11266303"></polyline>
                            <polyline id="path3033" fill="#8CC63E" points="18.0582696 25.2063826 21.0546123 1.10358792 12.1713392 17.2730897 18.0582696 25.2063826"></polyline>
                            <polyline id="path3035" fill="#8CC63E" points="22.8862705 31.7326215 27.3597302 25.7943395 22.8862705 1.10358792 18.4429082 25.8109772 22.8862705 31.7326215"></polyline>
                            <polyline id="path3037" fill="#8CC63E" points="27.7525143 25.240208 33.6988111 17.3254778 24.8311389 1.10358792 27.7525143 25.240208"></polyline>
                            <polyline id="path3039" fill="#8CC63E" points="34.0743376 16.8017342 45.8639375 1.10358792 27.0385998 1.10358792 34.0743376 16.8017342"></polyline>
                            <path d="M57.036956,19.3737018 C57.036956,21.2170484 56.6092423,21.9313692 54.1589318,22.382787 L54.1589318,23.022307 L64.9718866,23.022307 C71.2732768,23.022307 73.8011778,20.5775284 73.8011778,17.4933673 C73.8011778,15.2365534 72.4788274,13.1682542 69.2114706,12.2654186 L69.2114706,12.1902052 C71.7399238,11.6260361 74.1902343,4.59269126 76.2517645,2.59933043 C76.8352112,2.03529883 77.3407914,1.80924618 78.3135707,1.65909442 L78.3135707,1.01943693 L71.7399238,1.01943693 C69.2504038,3.8780954 67.6168635,8.80505308 65.8665233,10.4975604 C64.8550868,11.4753343 64.077526,11.5131473 62.054653,11.5131473 L62.054653,4.74339303 C62.054653,2.78743263 62.8716993,1.95994794 64.9718866,1.65909442 L64.9718866,1.01943693 L54.1589318,1.01943693 L54.1589318,1.65909442 C56.0257956,1.80924618 57.036956,2.71208175 57.036956,4.47993994 L57.036956,19.3737018 M62.054653,12.7542368 C66.3723796,12.4533833 68.3560432,13.7694112 68.3560432,17.4178789 C68.3560432,20.2389994 66.7222268,21.7809425 63.610603,21.7809425 L62.054653,21.7809425" id="path3041" fill="#5E9732"></path>
                            <path d="M93.2164511,6.89584323 L92.6448777,6.89584323 C92.4341963,8.37934809 91.6522175,9.07758127 90.2083733,9.07758127 L87.1094511,9.07758127 L87.1094511,4.07389769 C87.1094511,2.53195464 87.7715927,1.97947317 89.5164104,1.97947317 L90.5391679,1.97947317 C92.7050724,1.97947317 93.6679113,3.52114122 94.2394848,5.15026029 L94.7508635,5.15026029 L94.4200689,1.01943693 L81.0024511,1.01943693 L81.0024511,1.51389272 C82.9579502,1.92144749 83.2288263,2.5030793 83.2288263,4.24811223 L83.2288263,15.1862278 C83.2288263,16.6697326 82.8676582,17.1936138 81.0024511,17.5425929 L81.0024511,18.0369111 L94.2093874,18.0369111 L94.2093874,14.2554794 L93.6977326,14.2554794 C93.1264352,16.4370799 92.4642936,17.0768749 90.5090706,17.0768749 L87.1094511,17.0768749 L87.1094511,10.0373425 L90.2083733,10.0373425 C91.6221202,10.0373425 92.2839857,10.6189743 92.6448777,12.1609174 L93.2164511,12.1609174 L93.2164511,6.89584323" id="path3043" fill="#5E9732"></path>
                            <path d="M114.515708,1.80484613 C112.831085,1.01943693 110.333834,0.583006825 107.686924,0.583006825 C101.339145,0.583006825 98.1201096,5.03393393 98.1201096,9.39754751 C98.1201096,14.6041835 102.181595,18.4734788 107.686924,18.4734788 C110.364207,18.4734788 111.567549,17.4552793 112.710696,17.4552793 C113.192253,17.4552793 113.522772,17.6006185 113.974508,18.0369111 L114.515708,18.0369111 L114.515708,13.2660178 L113.974508,13.2660178 C112.921377,15.8553106 110.574888,17.5131675 107.927703,17.5131675 C104.317126,17.5131675 102.332081,14.3713932 102.332081,9.10659411 C102.332081,3.66634292 104.738765,1.54331807 107.987345,1.54331807 C109.581952,1.54331807 110.635083,1.95032283 110.635083,3.34623917 L110.635083,5.87778131 C110.635083,6.98288174 110.184175,7.71040276 108.830071,7.97193082 L108.830071,8.46666161 L116.230704,8.46666161 L116.230704,7.97193082 C114.937071,7.62308924 114.515708,6.98288174 114.515708,5.41233836 L114.515708,1.80484613" id="path3045" fill="#5E9732"></path>
                            <path d="M125.82734,3.89927065 C125.82734,2.38675294 126.218329,1.95032283 128.053715,1.51389272 L128.053715,1.01943693 L119.720616,1.01943693 L119.720616,1.51389272 C121.886244,2.03777385 121.946163,2.61940566 121.946163,4.27767508 L121.946163,15.1569399 C121.946163,16.6697326 121.555173,17.1061628 119.720616,17.5425929 L119.720616,18.0369111 L128.053715,18.0369111 L128.053715,17.5425929 C125.947729,17.0768749 125.82734,16.4370799 125.82734,14.8082359 L125.82734,3.89927065" id="path3047" fill="#5E9732"></path>
                            <path d="M141.651089,0.583006825 C136.085565,0.583006825 132.08455,4.30696292 132.08455,9.51387387 C132.08455,14.7207848 136.085565,18.4734788 141.651089,18.4734788 C147.246986,18.4734788 151.248,14.7207848 151.248,9.51387387 C151.248,4.30696292 147.246986,0.583006825 141.651089,0.583006825 M141.651089,17.5131675 C138.191551,17.5131675 136.296522,14.7497977 136.296522,9.36825967 C136.296522,5.26686166 137.680172,1.54331807 141.651089,1.54331807 C144.599248,1.54331807 147.036028,3.78266928 147.036028,9.39754751 C147.036028,14.1681659 145.502168,17.5131675 141.651089,17.5131675" id="path3049" fill="#5E9732"></path>
                            <path d="M171.073315,0.815659548 L170.501742,0.815659548 L157.836282,14.6336088 L157.836282,4.2196494 C157.836282,2.3578776 158.407855,1.83372147 160.423549,1.51389272 L160.423549,1.01943693 L154.346922,1.01943693 L154.346922,1.51389272 C156.241951,1.80484613 156.692859,2.79430771 156.663037,4.45230212 L156.663037,15.8553106 C155.309485,17.1936138 155.038609,17.3968412 154.316825,17.5425929 L154.316825,18.0369111 L159.611473,18.0369111 L169.900071,6.63376516 L169.900071,14.2842172 C169.900071,16.3497664 169.538903,17.1351756 167.673972,17.5425929 L167.673972,18.0369111 L173.630209,18.0369111 L173.630209,17.5425929 C171.614791,17.4262665 171.073315,16.2623154 171.073315,14.7497977 L171.073315,0.815659548" id="path3051" fill="#5E9732"></path>
                            <path d="M186.98708,13.9934013 L186.475977,13.9934013 C185.814112,15.971637 183.919084,17.5131675 182.113795,17.5131675 C180.519188,17.5131675 179.22583,16.4951056 179.22583,15.2152406 C179.22583,14.5751706 179.556625,13.9355131 180.098101,13.4117695 C180.970372,12.5679221 185.002036,10.5030605 186.084712,9.45543569 C187.408443,8.17584571 188.010114,7.01216959 188.010114,5.52866472 C188.010114,1.77569579 184.520478,0.583006825 182.354574,0.583006825 C180.248588,0.583006825 178.954678,1.25208966 178.05231,1.25208966 C177.661321,1.25208966 177.33025,1.04858728 177.149942,0.699333187 L176.638287,0.699333187 L176.638287,5.81948062 L177.149942,5.81948062 C177.661321,3.28821349 179.34622,1.54331807 181.87274,1.54331807 C183.768045,1.54331807 185.121873,2.56137998 185.121873,3.95757133 C185.121873,4.5103278 184.881646,5.26686166 184.219781,5.90679415 C182.865676,7.21594697 179.767307,8.46666161 178.293365,9.8918658 C177.240234,10.9100652 176.728855,12.1609174 176.728855,13.499083 C176.728855,16.4370799 179.014873,18.4734788 182.264006,18.4734788 C182.926147,18.4734788 183.527818,18.3570149 184.069294,18.2406885 C184.610494,18.1242247 185.121873,18.0080358 185.573333,18.0080358 C185.844209,18.0080358 186.144907,18.1532375 186.475977,18.4734788 L186.98708,18.4734788 L186.98708,13.9934013" id="path3053" fill="#5E9732"></path>
                          </g>
                        </g>
                      </g>
                    </g>
                  </g>
                </g>
              </g>
            </g>
          </g>
        </g>
      </g>
    </g>
  </g>
</svg>
