<?xml version="1.0" encoding="UTF-8"?>
<svg xmlns="http://www.w3.org/2000/svg" xmlns:xlink="http://www.w3.org/1999/xlink" width="169px" height="29px" viewBox="0 0 169 29">
  <!-- Generator: Sketch 50.2 (55047) - http://www.bohemiancoding.com/sketch -->
  <title>Scotiabank</title>
  <desc>Created with Sketch.</desc>
  <defs></defs>
  <g id="Design" stroke="none" stroke-width="1" fill="none" fill-rule="evenodd">
    <g id="dropdown_menu" transform="translate(-1352.000000, -943.000000)" fill="#CC2229">
      <g id="Group-8" transform="translate(518.000000, 937.000000)">
        <path d="M953.66945,22.3000235 C953.66945,20.8043013 952.763048,19.4761544 951.184523,19.4761544 C949.793302,19.4761544 948.675506,20.5920016 948.675506,22.3000235 C948.675506,23.9536966 949.591545,25.1306862 951.184523,25.1306862 C952.620312,25.1318185 953.66945,24.0080454 953.66945,22.3000235 Z M924.498966,11.0662556 C923.217356,11.0707847 922.178456,12.046231 922.173036,13.2515272 C922.179661,14.4556911 923.217356,15.4300052 924.498966,15.4345342 C925.778769,15.4283068 926.814657,14.4545588 926.821282,13.2515272 C926.815862,12.0473633 925.779372,11.072483 924.498966,11.0662556 Z M975.628468,27.897942 L979.651567,27.897942 L979.651567,22.1245224 C979.651567,20.7708995 980.604946,19.8452728 981.825728,19.8452728 C983.218154,19.8452728 984.008922,20.6956039 984.008922,22.1245224 L984.008922,27.897942 L988.03443,27.897942 L988.03443,21.1677584 C988.03443,18.6337492 986.29992,16.4654616 983.115167,16.4654616 C980.988586,16.4654616 979.882233,17.5513038 979.378141,17.9787339 L979.293825,17.9787339 L979.252871,16.740602 L975.627263,16.740602 L975.627263,27.897942 L975.628468,27.897942 Z M990.575367,27.8996404 L994.700851,27.8996404 L994.700851,22.7257552 L994.745418,22.7257552 L998.410173,27.8996404 L1003,27.8996404 L998.578204,21.973365 L1002.88858,16.7360729 L998.303573,16.7360729 L994.745418,21.3443918 L994.700851,21.3443918 L994.700851,12.1407751 L990.575367,12.1407751 L990.575367,27.8996404 Z M896.127681,16.8917594 C895.818119,16.8108024 894.683461,16.4439486 893.17781,16.4439486 C889.451624,16.4439486 886.65834,18.6360137 886.65834,22.2875686 C886.65834,25.6056714 889.165551,28.1306225 893.011586,28.1306225 C894.64853,28.1306225 895.854255,27.7196103 896.127681,27.6426163 L895.926526,24.3839574 C895.60793,24.5186969 894.782834,24.9625448 893.832467,24.9625448 C892.163603,24.9625448 890.944628,23.8523589 890.944628,22.2875686 C890.944628,20.6463504 892.249124,19.5876825 893.880045,19.5876825 C894.800299,19.5876825 895.619373,19.9902028 895.926526,20.132302 L896.127681,16.8917594 Z M932.80233,22.1964213 C932.80233,24.0437117 933.899649,25.1986221 935.320984,25.1986221 C936.609219,25.1986221 937.863125,24.066357 937.863125,22.3475786 C937.863125,20.6163453 936.75075,19.4325622 935.320984,19.4325622 C933.841832,19.4325622 932.80233,20.6723925 932.80233,22.1964213 Z M963.812118,22.1890615 C963.812118,24.0386165 964.908834,25.1929608 966.330169,25.1929608 C967.619006,25.1929608 968.872912,24.0606957 968.872912,22.3424835 C968.872912,20.6089856 967.759935,19.4252025 966.330169,19.4252025 C964.851017,19.4252025 963.812118,20.6678634 963.812118,22.1890615 Z M873.382111,27.4829669 C874.538451,27.8113238 876.295847,28.1153369 878.159843,28.1153369 C881.690294,28.1153369 885.212313,26.9394796 885.212313,23.2969829 C885.212313,18.2969003 877.878588,18.9887143 877.878588,16.9964939 C877.878588,15.9768892 879.004815,15.7560975 880.110565,15.7560975 C881.642113,15.7560975 883.581994,16.4473453 884.01261,16.6120899 L884.346263,13.1683057 C883.275444,12.8257955 881.651147,12.6310459 880.124417,12.6310459 C876.64034,12.6310459 873.201433,13.9099393 873.201433,17.155011 C873.201433,22.0667769 880.515886,21.0426431 880.515886,23.6208107 C880.515886,24.6109765 879.46193,24.9885869 878.11889,24.9885869 C876.272961,24.9885869 874.537247,24.1201396 873.786228,23.8065022 L873.382111,27.4829669 Z M920.417447,24.852149 C920.215087,24.9053654 919.657996,25.040105 919.274357,25.040105 C918.435408,25.040105 917.519972,24.6709866 917.519972,23.3032104 L917.519972,19.5259741 L920.119328,19.5259741 L920.119328,16.7156922 L917.519972,16.7156922 L917.519972,13.1162215 L913.38184,13.1162215 L913.38184,16.7156922 L911.573855,16.7156922 L911.573855,19.5259741 L913.38184,19.5259741 L913.38184,23.9469031 C913.38184,26.37731 914.582748,28.1209982 917.643435,28.1209982 C918.531167,28.1209982 919.34723,28.0083379 919.907935,27.9103969 L920.417447,24.852149 Z M904.094382,25.3299648 C905.774087,25.3299648 906.761794,23.9469031 906.761794,22.2943622 C906.761794,20.6237051 905.821063,19.2378126 904.094382,19.2378126 C902.289408,19.2378126 901.425164,20.6237051 901.425164,22.2943622 C901.425164,23.9469031 902.414678,25.3299648 904.094382,25.3299648 Z M944.610851,27.8888839 L944.610851,12.1266218 L948.738744,12.1266218 L948.738744,17.5280924 L948.783913,17.5280924 C949.075407,17.3571203 950.412426,16.4552712 952.373386,16.4552712 C955.589456,16.4552712 957.952124,18.8839798 957.952124,22.0996126 C957.952124,26.1151907 955.333496,28.1379822 952.348693,28.1379822 C950.092625,28.1379822 948.945319,27.1500809 948.662859,26.8624856 L948.596008,26.8624856 L948.536987,27.8888839 L944.610851,27.8888839 Z M922.423576,27.9132276 L926.568333,27.9132276 L926.568333,16.7281471 L922.423576,16.7281471 L922.423576,27.9132276 Z M941.942837,16.719089 L941.942837,27.8968098 L937.923351,27.8968098 L937.864329,26.7685076 L937.778206,26.7685076 C937.331329,27.1466842 936.403246,28.1425113 933.814128,28.1425113 C930.940743,28.1425113 928.423897,25.7964581 928.423897,22.2994574 C928.423897,19.0504228 930.655874,16.4592341 934.077316,16.4592341 C936.405655,16.4592341 937.356624,17.423924 937.714367,17.7313339 L937.820364,17.7313339 L937.859511,16.7185228 L941.942837,16.7185228 L941.942837,16.719089 Z M972.952625,16.7145599 L972.952625,27.8922807 L968.934945,27.8922807 L968.873515,26.765677 L968.787994,26.765677 C968.340514,27.1421551 967.413033,28.1379822 964.823916,28.1379822 C961.949929,28.1379822 959.433082,25.791929 959.433082,22.2926638 C959.433082,19.0458937 961.665662,16.4547051 965.087103,16.4547051 C967.41484,16.4547051 968.366411,17.4182626 968.723552,17.7268049 L968.82955,17.7268049 L968.870503,16.7145599 L972.952625,16.7145599 Z M904.094382,28.128358 C900.065862,28.128358 897.183444,25.8542036 897.183444,22.2954944 C897.183444,18.7815098 900.171258,16.4445147 904.094382,16.4445147 C908.016904,16.4445147 911.003514,18.7673565 911.003514,22.2954944 C911.003514,25.8536374 908.096403,28.128358 904.094382,28.128358 Z M858.782114,20.4023472 C858.887509,25.2297594 854.244684,28.8750868 850.367331,28.8750868 L840.779345,28.8750868 L834.763365,34.5098039 L850.263742,34.5098039 C855.210107,34.5098039 859.956522,30.3238199 859.956522,25.330531 C859.956522,23.861417 859.768014,21.9507197 858.782114,20.5019866 L858.782114,20.4023472 Z M857.137943,23.959358 C857.734783,22.9561711 858.028686,21.8499481 858.10156,20.7765609 L853.752035,20.7765609 C853.74541,21.8595724 853.55088,22.9346581 853.176876,23.959358 L857.137943,23.959358 Z M852.893211,24.5900296 C852.401165,25.770416 851.226154,27.3085981 850.084269,28.1453419 C852.295769,28.1453419 854.821047,27.2383976 856.666975,24.5900296 L852.893211,24.5900296 Z M852.401165,23.959358 C852.787816,22.9561711 852.966687,21.8499481 853.07148,20.7765609 L846.489978,20.7765609 C846.594169,21.8499481 846.773643,22.9561711 847.159692,23.959358 L852.401165,23.959358 Z M846.405662,23.959358 C846.020215,22.8548334 845.809424,21.772388 845.809424,20.7765609 L841.461104,20.7765609 C841.564693,21.8499481 841.848357,22.9561711 842.425323,23.959358 L846.405662,23.959358 Z M849.79157,27.5056122 C850.650996,26.7758673 851.615215,25.5932165 852.107261,24.5900296 L847.455402,24.5900296 C847.946846,25.5932165 848.911065,26.7764335 849.79157,27.5056122 Z M842.812576,24.5900296 C844.740412,27.2383976 847.265088,28.1453419 849.50911,28.1453419 C848.334702,27.3085981 847.087421,25.770416 846.688724,24.5900296 L842.812576,24.5900296 Z M853.176876,16.9551662 C853.57497,17.9306126 853.752035,19.034571 853.752035,20.1368311 L858.100355,20.1368311 C858.027482,19.034571 857.734181,17.9306126 857.136738,16.9551662 L853.176876,16.9551662 Z M856.666975,16.215231 C854.821047,13.6749943 852.295769,12.6689768 850.084269,12.6689768 C851.226154,13.4774141 852.401165,15.0138978 852.893211,16.215231 L856.666975,16.215231 Z M847.160897,16.9551662 C846.774245,17.9306126 846.595374,19.034571 846.491183,20.1368311 L853.072083,20.1368311 C852.967892,19.034571 852.788418,17.9306126 852.401767,16.9551662 L847.160897,16.9551662 Z M842.42472,16.9551662 C841.847153,17.9306126 841.564693,19.034571 841.459899,20.1368311 L845.80822,20.1368311 C845.80822,19.034571 846.019011,17.9306126 846.404457,16.9551662 L842.42472,16.9551662 Z M849.79157,13.378907 C848.91227,14.1086518 847.946846,15.2109119 847.456004,16.215231 L852.107864,16.215231 C851.615215,15.2120442 850.650996,14.1086518 849.79157,13.378907 Z M846.688724,16.215231 C847.087421,15.0138978 848.334702,13.4774141 849.50911,12.6689768 C847.265088,12.6689768 844.740412,13.6749943 842.812576,16.215231 L846.688724,16.215231 Z M840.779345,20.3044063 C839.815126,18.8664297 839.604937,16.954034 839.604937,15.4866184 C839.604937,10.4916311 844.351352,6.2745098 849.298319,6.2745098 L864.798093,6.2745098 L858.782114,11.9788612 L849.192923,11.9788612 C845.33665,11.9799935 840.673949,15.6536275 840.779345,20.3044063 Z" id="Scotiabank"></path>
      </g>
    </g>
  </g>
</svg>
