<?xml version="1.0" encoding="UTF-8"?>
<svg xmlns="http://www.w3.org/2000/svg" xmlns:xlink="http://www.w3.org/1999/xlink" width="265px" height="46px" viewBox="0 0 265 46">
  <!-- Generator: Sketch 50.2 (55047) - http://www.bohemiancoding.com/sketch -->
  <title>Scotiabank_logo_grey</title>
  <desc>Created with Sketch.</desc>
  <defs></defs>
  <g id="Design" stroke="none" stroke-width="1" fill="none" fill-rule="evenodd">
    <g id="home" transform="translate(-100.000000, -1292.000000)" fill="#BFBFBF" fill-rule="nonzero">
      <g id="Scotiabank_logo_grey" transform="translate(100.000000, 1292.000000)">
        <path d="M187.326397,25.8552097 C187.326397,23.4826848 185.899218,21.375969 183.413746,21.375969 C181.223194,21.375969 179.463164,23.1459336 179.463164,25.8552097 C179.463164,28.4782774 180.905516,30.3452264 183.413746,30.3452264 C185.674473,30.3470224 187.326397,28.5644858 187.326397,25.8552097 Z M141.395902,8.03612957 C139.377938,8.04331366 137.742134,9.59057331 137.7336,11.5024225 C137.744032,13.4124755 139.377938,14.9579393 141.395902,14.9651232 C143.411021,14.9552453 145.042082,13.4106795 145.052513,11.5024225 C145.043979,9.59236937 143.41197,8.04600752 141.395902,8.03612957 Z M221.902051,34.7346666 L228.236637,34.7346666 L228.236637,25.5768286 C228.236637,23.4297027 229.737784,21.9614672 231.65997,21.9614672 C233.85242,21.9614672 235.097527,23.3102683 235.097527,25.5768286 L235.097527,34.7346666 L241.435906,34.7346666 L241.435906,24.059203 C241.435906,20.0397401 238.704826,16.6003874 233.690261,16.6003874 C230.341845,16.6003874 228.599833,18.3227578 227.806113,19.0007503 L227.673353,19.0007503 L227.608869,17.036817 L221.900154,17.036817 L221.900154,34.7346666 L221.902051,34.7346666 Z M245.436747,34.7373606 L251.932544,34.7373606 L251.932544,26.5305082 L252.002717,26.5305082 L257.773071,34.7373606 L265,34.7373606 L258.037644,25.3370617 L264.824563,17.0296329 L257.605223,17.0296329 L252.002717,24.3393801 L251.932544,24.3393801 L251.932544,9.74053981 L245.436747,9.74053981 L245.436747,34.7373606 Z M96.7237885,17.2765839 C96.2363665,17.1481693 94.4497865,16.5662633 92.079058,16.5662633 C86.2119779,16.5662633 81.8138021,20.0433321 81.8138021,25.8354536 C81.8138021,31.0986512 85.7615406,35.103746 91.8173294,35.103746 C94.3947858,35.103746 96.2932646,34.4517956 96.7237885,34.3296672 L96.4070592,29.16076 C95.9054126,29.3744847 94.6062546,30.0785193 93.1098507,30.0785193 C90.4821346,30.0785193 88.5627929,28.3175348 88.5627929,25.8354536 C88.5627929,23.232142 90.616792,21.5528757 93.1847648,21.5528757 C94.6337542,21.5528757 95.9234302,22.1913562 96.4070592,22.4167549 L96.7237885,17.2765839 Z M154.469995,25.6908752 C154.469995,28.6210599 156.197783,30.4529868 158.435751,30.4529868 C160.464146,30.4529868 162.438489,28.6569801 162.438489,25.9306419 C162.438489,23.1845477 160.686994,21.3068228 158.435751,21.3068228 C156.106747,21.3068228 154.469995,23.2734502 154.469995,25.6908752 Z M203.296573,25.679201 C203.296573,28.6129779 205.023411,30.4440068 207.26138,30.4440068 C209.290723,30.4440068 211.265065,28.6480001 211.265065,25.92256 C211.265065,23.1728737 209.512623,21.2951488 207.26138,21.2951488 C204.932375,21.2951488 203.296573,23.2662661 203.296573,25.679201 Z M60.9096658,34.0764303 C62.7303853,34.5972722 65.4974998,35.0794999 68.4324617,35.0794999 C73.9913466,35.0794999 79.5369548,33.214347 79.5369548,27.4365936 C79.5369548,19.5054281 67.9896106,20.6027882 67.9896106,17.4427145 C67.9896106,15.8254105 69.7629155,15.4751891 71.5039783,15.4751891 C73.915483,15.4751891 76.9699299,16.5716512 77.6479579,16.8329702 L78.1733125,11.3704159 C76.4872505,10.8271239 73.9297075,10.5182107 71.525789,10.5182107 C66.0399225,10.5182107 60.6251786,12.5468003 60.6251786,17.6941554 C60.6251786,25.4852323 72.142178,23.8607442 72.142178,27.9502515 C72.142178,29.5208593 70.4826677,30.1198275 68.367979,30.1198275 C65.4614645,30.1198275 62.7284895,28.7422904 61.5459697,28.2447966 L60.9096658,34.0764303 Z M134.969331,29.9034088 C134.650704,29.987821 133.773534,30.2015459 133.169474,30.2015459 C131.848504,30.2015459 130.407101,29.6160477 130.407101,27.4464717 L130.407101,21.4549934 L134.499926,21.4549934 L134.499926,16.9973049 L130.407101,16.9973049 L130.407101,11.2877996 L123.891389,11.2877996 L123.891389,16.9973049 L121.04462,16.9973049 L121.04462,21.4549934 L123.891389,21.4549934 L123.891389,28.4675015 C123.891389,32.3226297 125.782284,35.0884799 130.6015,35.0884799 C131.999282,35.0884799 133.284217,34.9097774 134.167077,34.7544227 L134.969331,29.9034088 Z M109.267788,30.6613235 C111.912573,30.6613235 113.467771,28.4675015 113.467771,25.8462297 C113.467771,23.1962219 111.98654,20.9979096 109.267788,20.9979096 C106.425759,20.9979096 105.06496,23.1962219 105.06496,25.8462297 C105.06496,28.4675015 106.623003,30.6613235 109.267788,30.6613235 Z M173.063146,34.7202986 L173.063146,9.71808975 L179.562735,9.71808975 L179.562735,18.2859397 L179.633856,18.2859397 C180.092829,18.0147425 182.198038,16.5842233 185.285675,16.5842233 C190.34955,16.5842233 194.069698,20.4366576 194.069698,25.5373165 C194.069698,31.9068542 189.946527,35.11542 185.246794,35.11542 C181.694494,35.11542 179.887999,33.5484042 179.44325,33.0922185 L179.33799,33.0922185 L179.245058,34.7202986 L173.063146,34.7202986 Z M138.128089,34.7589127 L144.654232,34.7589127 L144.654232,17.0170609 L138.128089,17.0170609 L138.128089,34.7589127 Z M168.862215,17.0026929 L168.862215,34.7328707 L162.533318,34.7328707 L162.440384,32.94315 L162.304779,32.94315 C161.601147,33.5430163 160.139831,35.1226041 156.063125,35.1226041 C151.538826,35.1226041 147.575917,31.4012784 147.575917,25.8543117 C147.575917,20.7006706 151.090285,16.5905093 156.477529,16.5905093 C160.143624,16.5905093 161.640976,18.120707 162.204261,18.6083227 L162.371159,18.6083227 L162.432798,17.0017948 L168.862215,17.0017948 L168.862215,17.0026929 Z M217.688793,16.9955088 L217.688793,34.7256866 L211.36274,34.7256866 L211.266015,32.9386601 L211.131357,32.9386601 C210.426776,33.5358322 208.966407,35.11542 204.889703,35.11542 C200.364456,35.11542 196.401546,31.3940943 196.401546,25.8435357 C196.401546,20.6934866 199.916863,16.5833253 205.304106,16.5833253 C208.969253,16.5833253 210.467552,18.1117269 211.02989,18.6011388 L211.19679,18.6011388 L211.261272,16.9955088 L217.688793,16.9955088 Z M109.267788,35.1001541 C102.924666,35.1001541 98.3861441,31.4928747 98.3861441,25.8480256 C98.3861441,20.274119 103.090618,16.5671612 109.267788,16.5671612 C115.444009,16.5671612 120.146587,20.2516689 120.146587,25.8480256 C120.146587,31.4919766 115.569185,35.1001541 109.267788,35.1001541 Z M37.9211857,22.8451025 C38.0871358,30.502377 30.7767582,36.2846204 24.6716575,36.2846204 L9.57485808,36.2846204 L0.102374167,45.2224476 L24.508551,45.2224476 C32.2968686,45.2224476 39.7703542,38.5826109 39.7703542,30.6622216 C39.7703542,28.3319028 39.4735382,25.3011416 37.9211857,23.0031512 L37.9211857,22.8451025 Z M35.33235,28.4872575 C36.2721067,26.8959955 36.7348728,25.141297 36.8496168,23.4386828 L30.0010559,23.4386828 C29.9906245,25.1565631 29.6843265,26.8618715 29.0954371,28.4872575 L35.33235,28.4872575 Z M28.6487913,29.4876332 C27.8740384,31.3599702 26.0239205,33.7998453 24.2259611,35.127094 C27.7080868,35.127094 31.6842727,33.6884927 34.5907856,29.4876332 L28.6487913,29.4876332 Z M27.8740384,28.4872575 C28.4828412,26.8959955 28.7644832,25.141297 28.9294854,23.4386828 L18.5665567,23.4386828 C18.7306111,25.141297 19.0132025,26.8959955 19.6210574,28.4872575 L27.8740384,28.4872575 Z M18.4337967,28.4872575 C17.8268896,26.735253 17.4949879,25.0182706 17.4949879,23.4386828 L10.6483243,23.4386828 C10.8114307,25.141297 11.2580749,26.8959955 12.1665389,28.4872575 L18.4337967,28.4872575 Z M23.7650908,34.1123504 C25.1183033,32.954824 26.6365179,31.0788951 27.4112708,29.4876332 L20.0866687,29.4876332 C20.8604737,31.0788951 22.3786884,32.9557221 23.7650908,34.1123504 Z M12.7762896,29.4876332 C15.811771,33.6884927 19.7870091,35.127094 23.3203424,35.127094 C21.4711738,33.7998453 19.5072629,31.3599702 18.879493,29.4876332 L12.7762896,29.4876332 Z M29.0954371,17.3771602 C29.7222575,18.92442 30.0010559,20.6755264 30.0010559,22.423939 L36.8477195,22.423939 C36.732977,20.6755264 36.2711588,18.92442 35.3304527,17.3771602 L29.0954371,17.3771602 Z M34.5907856,16.2034699 C31.6842727,12.1741289 27.7080868,10.578377 24.2259611,10.578377 C26.0239205,11.8607258 27.8740384,14.2979069 28.6487913,16.2034699 L34.5907856,16.2034699 Z M19.6229548,17.3771602 C19.0141504,18.92442 18.7325084,20.6755264 18.5684541,22.423939 L28.9304349,22.423939 C28.7663806,20.6755264 28.4837891,18.92442 27.8749863,17.3771602 L19.6229548,17.3771602 Z M12.1655895,17.3771602 C11.2561792,18.92442 10.8114307,20.6755264 10.6464269,22.423939 L17.4930921,22.423939 C17.4930921,20.6755264 17.8249939,18.92442 18.4318993,17.3771602 L12.1655895,17.3771602 Z M23.7650908,11.7044732 C22.3805857,12.8619994 20.8604737,14.610412 20.0876166,16.2034699 L27.4122202,16.2034699 C26.6365179,14.612208 25.1183033,12.8619994 23.7650908,11.7044732 Z M18.879493,16.2034699 C19.5072629,14.2979069 21.4711738,11.8607258 23.3203424,10.578377 C19.7870091,10.578377 15.811771,12.1741289 12.7762896,16.2034699 L18.879493,16.2034699 Z M9.57485808,22.6897479 C8.05664343,20.4088195 7.72568955,17.3753643 7.72568955,15.0477395 C7.72568955,7.12465623 15.1991751,0.435429338 22.9884406,0.435429338 L47.393668,0.435429338 L37.9211857,9.48371087 L22.8224889,9.48371087 C16.7505798,9.48550693 9.40890641,15.3126505 9.57485808,22.6897479 Z" id="Scotiabank"></path>
      </g>
    </g>
  </g>
</svg>
