<?xml version="1.0" encoding="UTF-8"?>
<svg xmlns="http://www.w3.org/2000/svg" xmlns:xlink="http://www.w3.org/1999/xlink" width="214px" height="36px" viewBox="0 0 214 36">
  <!-- Generator: Sketch 50 (54983) - http://www.bohemiancoding.com/sketch -->
  <title>Scotiabank</title>
  <desc>Created with Sketch.</desc>
  <defs></defs>
  <g id="Design" stroke="none" stroke-width="1" fill="none" fill-rule="evenodd">
    <g id="home" transform="translate(-1077.000000, -918.000000)" fill="#CC2229">
      <g id="featured-clients" transform="translate(90.000000, 800.000000)">
        <g id="row-1" transform="translate(60.000000, 110.000000)">
          <path d="M1078.25066,28.43253 C1078.25066,26.5254842 1077.0977,24.8320969 1075.08979,24.8320969 C1073.32013,24.8320969 1071.89828,26.2548021 1071.89828,28.43253 C1071.89828,30.5409632 1073.06349,32.0416249 1075.08979,32.0416249 C1076.91614,32.0430685 1078.25066,30.6102578 1078.25066,28.43253 Z M1041.14528,14.1094759 C1039.51505,14.1152504 1038.19355,15.3589445 1038.18666,16.8956972 C1038.19509,18.4310061 1039.51505,19.6732566 1041.14528,19.6790312 C1042.77322,19.6710911 1044.09089,18.4295625 1044.09931,16.8956972 C1044.09242,15.3603882 1042.77398,14.1174159 1041.14528,14.1094759 Z M1106.18292,35.5698761 L1111.30038,35.5698761 L1111.30038,28.2087661 C1111.30038,26.4828969 1112.51309,25.3027229 1114.06595,25.3027229 C1115.83714,25.3027229 1116.84301,26.386895 1116.84301,28.2087661 L1116.84301,35.5698761 L1121.96353,35.5698761 L1121.96353,26.988892 C1121.96353,23.7580302 1119.7572,20.9934635 1115.70614,20.9934635 C1113.00109,20.9934635 1111.59379,22.3779123 1110.95257,22.9228857 L1110.84532,22.9228857 L1110.79323,21.3442676 L1106.18139,21.3442676 L1106.18139,35.5698761 L1106.18292,35.5698761 Z M1125.19565,35.5720415 L1130.44333,35.5720415 L1130.44333,28.9753379 L1130.50003,28.9753379 L1135.16166,35.5720415 L1141,35.5720415 L1135.3754,28.0160404 L1140.85827,21.338493 L1135.02606,21.338493 L1130.50003,27.2140995 L1130.44333,27.2140995 L1130.44333,15.4794883 L1125.19565,15.4794883 L1125.19565,35.5720415 Z M1005.0565,21.5369932 C1004.66274,21.4337731 1003.21943,20.9660344 1001.30421,20.9660344 C996.564441,20.9660344 993.011334,23.7609175 993.011334,28.41665 C993.011334,32.647231 996.20055,35.8665437 1001.09278,35.8665437 C1003.175,35.8665437 1004.7087,35.3425031 1005.0565,35.2443357 L1004.80063,31.0895457 C1004.39537,31.2613386 1003.34583,31.8272447 1002.13695,31.8272447 C1000.01413,31.8272447 998.463568,30.4117576 998.463568,28.41665 C998.463568,26.3240967 1000.12291,24.9742952 1002.19747,24.9742952 C1003.36805,24.9742952 1004.40993,25.4875085 1004.80063,25.6686851 L1005.0565,21.5369932 Z M1051.70731,28.3004371 C1051.70731,30.6557324 1053.10312,32.1282432 1054.91108,32.1282432 C1056.54974,32.1282432 1058.14473,30.6846052 1058.14473,28.4931628 C1058.14473,26.2858403 1056.72977,24.7765168 1054.91108,24.7765168 C1053.02958,24.7765168 1051.70731,26.3573004 1051.70731,28.3004371 Z M1091.15232,28.2910535 C1091.15232,30.6492361 1092.54736,32.121025 1094.35532,32.121025 C1095.99474,32.121025 1097.58974,30.677387 1097.58974,28.4866664 C1097.58974,26.2764567 1096.17401,24.7671332 1094.35532,24.7671332 C1092.47381,24.7671332 1091.15232,26.3515258 1091.15232,28.2910535 Z M976.123734,35.0407828 C977.594619,35.4594378 979.830058,35.8470546 982.201094,35.8470546 C986.69189,35.8470546 991.171961,34.3478365 991.171961,29.7036532 C991.171961,23.3285479 981.843332,24.2106107 981.843332,21.6705297 C981.843332,20.3705337 983.275913,20.0890243 984.682447,20.0890243 C986.630603,20.0890243 989.098166,20.9703653 989.645918,21.1804146 L990.07033,16.7895898 C988.708229,16.3528893 986.642095,16.1045836 984.700067,16.1045836 C980.268259,16.1045836 975.893908,17.7351726 975.893908,21.8726391 C975.893908,28.1351406 985.198022,26.82937 985.198022,30.1165337 C985.198022,31.3789951 983.857372,31.8604483 982.149,31.8604483 C979.800947,31.8604483 977.593087,30.753178 976.637777,30.3532903 L976.123734,35.0407828 Z M1035.95352,31.68649 C1035.69611,31.7543409 1034.98748,31.9261339 1034.49949,31.9261339 C1033.43233,31.9261339 1032.26788,31.4555079 1032.26788,29.7115932 L1032.26788,24.895617 L1035.57431,24.895617 L1035.57431,21.3125075 L1032.26788,21.3125075 L1032.26788,16.7231824 L1027.0041,16.7231824 L1027.0041,21.3125075 L1024.70431,21.3125075 L1024.70431,24.895617 L1027.0041,24.895617 L1027.0041,30.5323014 C1027.0041,33.6310703 1028.53168,35.8542728 1032.42493,35.8542728 C1033.55414,35.8542728 1034.59218,35.7106308 1035.30541,35.5857561 L1035.95352,31.68649 Z M1015.19029,32.2957052 C1017.3269,32.2957052 1018.58329,30.5323014 1018.58329,28.4253118 C1018.58329,26.295224 1017.38666,24.5282111 1015.19029,24.5282111 C1012.89433,24.5282111 1011.795,26.295224 1011.795,28.4253118 C1011.795,30.5323014 1013.05368,32.2957052 1015.19029,32.2957052 Z M1066.72796,35.558327 L1066.72796,15.4614428 L1071.97871,15.4614428 L1071.97871,22.3483178 L1072.03617,22.3483178 C1072.40696,22.1303284 1074.10767,20.9804708 1076.60204,20.9804708 C1080.69294,20.9804708 1083.6983,24.0770742 1083.6983,28.1770061 C1083.6983,33.2968681 1080.36736,35.8759273 1076.57063,35.8759273 C1073.70088,35.8759273 1072.24148,34.6163532 1071.88219,34.2496692 L1071.79715,34.2496692 L1071.72208,35.558327 L1066.72796,35.558327 Z M1038.50535,35.5893652 L1043.77756,35.5893652 L1043.77756,21.3283875 L1038.50535,21.3283875 L1038.50535,35.5893652 Z M1063.3342,21.3168384 L1063.3342,35.5684324 L1058.22134,35.5684324 L1058.14627,34.1298472 L1058.03671,34.1298472 C1057.46828,34.6120223 1056.28774,35.8817019 1052.99434,35.8817019 C1049.33934,35.8817019 1046.13787,32.890484 1046.13787,28.4318082 C1046.13787,24.289289 1048.97698,20.9855235 1053.32912,20.9855235 C1056.2908,20.9855235 1057.50045,22.2155031 1057.95551,22.6074508 L1058.09034,22.6074508 L1058.14014,21.3161166 L1063.3342,21.3161166 L1063.3342,21.3168384 Z M1102.7792,21.3110639 L1102.7792,35.5626579 L1097.66864,35.5626579 L1097.5905,34.1262381 L1097.48172,34.1262381 C1096.91252,34.6062477 1095.73274,35.8759273 1092.43934,35.8759273 C1088.78358,35.8759273 1085.5821,32.8847095 1085.5821,28.4231463 C1085.5821,24.2835145 1088.42198,20.979749 1092.77412,20.979749 C1095.73504,20.979749 1096.94546,22.2082849 1097.39975,22.6016762 L1097.53458,22.6016762 L1097.58667,21.3110639 L1102.7792,21.3110639 Z M1015.19029,35.8636564 C1010.06594,35.8636564 1006.39945,32.9641096 1006.39945,28.4267554 C1006.39945,23.946425 1010.20001,20.9667562 1015.19029,20.9667562 C1020.17981,20.9667562 1023.97883,23.9283795 1023.97883,28.4267554 C1023.97883,32.9633877 1020.28093,35.8636564 1015.19029,35.8636564 Z M957.552276,26.0129927 C957.686341,32.1679432 951.780584,36.8157357 946.848523,36.8157357 L934.652433,36.8157357 L927,44 L946.716756,44 C953.00862,44 959.046144,38.6628704 959.046144,32.296427 C959.046144,30.4233067 958.806359,27.9871677 957.552276,26.1400329 L957.552276,26.0129927 Z M955.460862,30.5481814 C956.220053,29.2691182 956.593903,27.8586839 956.686599,26.4901151 L951.153926,26.4901151 C951.145499,27.8709548 950.898053,29.2416891 950.422314,30.5481814 L955.460862,30.5481814 Z M950.061487,31.3522878 C949.435595,32.8572803 947.940961,34.8184625 946.488462,35.885311 C949.30153,35.885311 952.513729,34.728957 954.861782,31.3522878 L950.061487,31.3522878 Z M949.435595,30.5481814 C949.927422,29.2691182 950.15495,27.8586839 950.288249,26.4901151 L941.916461,26.4901151 C942.048994,27.8586839 942.277287,29.2691182 942.768348,30.5481814 L949.435595,30.5481814 Z M941.809209,30.5481814 C941.318914,29.1399126 941.050784,27.7597947 941.050784,26.4901151 L935.519643,26.4901151 C935.651409,27.8586839 936.012236,29.2691182 936.746146,30.5481814 L941.809209,30.5481814 Z M946.116144,35.0696555 C947.209349,34.1392309 948.435853,32.631351 949.061745,31.3522878 L943.144497,31.3522878 C943.769623,32.631351 944.996127,34.1399527 946.116144,35.0696555 Z M937.23874,31.3522878 C939.690981,34.728957 942.902414,35.885311 945.75685,35.885311 C944.262982,34.8184625 942.676418,32.8572803 942.169269,31.3522878 L937.23874,31.3522878 Z M950.422314,21.6178369 C950.928697,22.8615311 951.153926,24.2690781 951.153926,25.6744596 L956.685067,25.6744596 C956.592371,24.2690781 956.219287,22.8615311 955.459329,21.6178369 L950.422314,21.6178369 Z M954.861782,20.6744195 C952.513729,17.4356178 949.30153,16.1529454 946.488462,16.1529454 C947.940961,17.1837029 949.435595,19.1427197 950.061487,20.6744195 L954.861782,20.6744195 Z M942.769881,21.6178369 C942.278053,22.8615311 942.050526,24.2690781 941.917993,25.6744596 L950.289015,25.6744596 C950.156482,24.2690781 949.928188,22.8615311 949.436361,21.6178369 L942.769881,21.6178369 Z M936.74538,21.6178369 C936.010704,22.8615311 935.651409,24.2690781 935.51811,25.6744596 L941.049251,25.6744596 C941.049251,24.2690781 941.317382,22.8615311 941.807677,21.6178369 L936.74538,21.6178369 Z M946.116144,17.0581064 C944.997659,17.9885311 943.769623,19.3939127 943.145263,20.6744195 L949.062511,20.6744195 C948.435853,19.3953563 947.209349,17.9885311 946.116144,17.0581064 Z M942.169269,20.6744195 C942.676418,19.1427197 944.262982,17.1837029 945.75685,16.1529454 C942.902414,16.1529454 939.690981,17.4356178 937.23874,20.6744195 L942.169269,20.6744195 Z M934.652433,25.8881181 C933.42593,24.0546978 933.158565,21.6163933 933.158565,19.7454385 C933.158565,13.3768296 939.196089,8 945.48872,8 L965.20471,8 L957.552276,15.2730481 L945.354655,15.2730481 C940.449406,15.2744917 934.518368,19.9583751 934.652433,25.8881181 Z" id="Scotiabank"></path>
        </g>
      </g>
    </g>
  </g>
</svg>
