<?xml version="1.0" encoding="UTF-8"?>
<svg xmlns="http://www.w3.org/2000/svg" xmlns:xlink="http://www.w3.org/1999/xlink" width="169px" height="29px" viewBox="0 0 169 29">
  <!-- Generator: Sketch 50.2 (55047) - http://www.bohemiancoding.com/sketch -->
  <title>Scotiabank_logo_grey</title>
  <desc>Created with Sketch.</desc>
  <defs></defs>
  <g id="Design" stroke="none" stroke-width="1" fill="none" fill-rule="evenodd">
    <g id="Artboard" transform="translate(-1192.000000, -681.000000)" fill="#BFBFBF" fill-rule="nonzero">
      <g id="Scotiabank_logo_grey" transform="translate(1192.000000, 681.000000)">
        <path d="M119.66945,16.3000235 C119.66945,14.8043013 118.763048,13.4761544 117.184523,13.4761544 C115.793302,13.4761544 114.675506,14.5920016 114.675506,16.3000235 C114.675506,17.9536966 115.591545,19.1306862 117.184523,19.1306862 C118.620312,19.1318185 119.66945,18.0080454 119.66945,16.3000235 Z M90.498966,5.0662556 C89.217356,5.0707847 88.178456,6.046231 88.173036,7.2515272 C88.179661,8.4556911 89.217356,9.4300052 90.498966,9.4345342 C91.778769,9.4283068 92.814657,8.4545588 92.821282,7.2515272 C92.815862,6.0473633 91.779372,5.072483 90.498966,5.0662556 Z M141.628468,21.897942 L145.651567,21.897942 L145.651567,16.1245224 C145.651567,14.7708995 146.604946,13.8452728 147.825728,13.8452728 C149.218154,13.8452728 150.008922,14.6956039 150.008922,16.1245224 L150.008922,21.897942 L154.03443,21.897942 L154.03443,15.1677584 C154.03443,12.6337492 152.29992,10.4654616 149.115167,10.4654616 C146.988586,10.4654616 145.882233,11.5513038 145.378141,11.9787339 L145.293825,11.9787339 L145.252871,10.740602 L141.627263,10.740602 L141.627263,21.897942 L141.628468,21.897942 Z M156.575367,21.8996404 L160.700851,21.8996404 L160.700851,16.7257552 L160.745418,16.7257552 L164.410173,21.8996404 L169,21.8996404 L164.578204,15.973365 L168.88858,10.7360729 L164.303573,10.7360729 L160.745418,15.3443918 L160.700851,15.3443918 L160.700851,6.1407751 L156.575367,6.1407751 L156.575367,21.8996404 Z M62.127681,10.8917594 C61.818119,10.8108024 60.683461,10.4439486 59.17781,10.4439486 C55.451624,10.4439486 52.65834,12.6360137 52.65834,16.2875686 C52.65834,19.6056714 55.165551,22.1306225 59.011586,22.1306225 C60.64853,22.1306225 61.854255,21.7196103 62.127681,21.6426163 L61.926526,18.3839574 C61.60793,18.5186969 60.782834,18.9625448 59.832467,18.9625448 C58.163603,18.9625448 56.944628,17.8523589 56.944628,16.2875686 C56.944628,14.6463504 58.249124,13.5876825 59.880045,13.5876825 C60.800299,13.5876825 61.619373,13.9902028 61.926526,14.132302 L62.127681,10.8917594 Z M98.80233,16.1964213 C98.80233,18.0437117 99.899649,19.1986221 101.320984,19.1986221 C102.609219,19.1986221 103.863125,18.066357 103.863125,16.3475786 C103.863125,14.6163453 102.75075,13.4325622 101.320984,13.4325622 C99.841832,13.4325622 98.80233,14.6723925 98.80233,16.1964213 Z M129.812118,16.1890615 C129.812118,18.0386165 130.908834,19.1929608 132.330169,19.1929608 C133.619006,19.1929608 134.872912,18.0606957 134.872912,16.3424835 C134.872912,14.6089856 133.759935,13.4252025 132.330169,13.4252025 C130.851017,13.4252025 129.812118,14.6678634 129.812118,16.1890615 Z M39.382111,21.4829669 C40.538451,21.8113238 42.295847,22.1153369 44.159843,22.1153369 C47.690294,22.1153369 51.212313,20.9394796 51.212313,17.2969829 C51.212313,12.2969003 43.878588,12.9887143 43.878588,10.9964939 C43.878588,9.9768892 45.004815,9.7560975 46.110565,9.7560975 C47.642113,9.7560975 49.581994,10.4473453 50.01261,10.6120899 L50.346263,7.1683057 C49.275444,6.8257955 47.651147,6.6310459 46.124417,6.6310459 C42.64034,6.6310459 39.201433,7.9099393 39.201433,11.155011 C39.201433,16.0667769 46.515886,15.0426431 46.515886,17.6208107 C46.515886,18.6109765 45.46193,18.9885869 44.11889,18.9885869 C42.272961,18.9885869 40.537247,18.1201396 39.786228,17.8065022 L39.382111,21.4829669 Z M86.417447,18.852149 C86.215087,18.9053654 85.657996,19.040105 85.274357,19.040105 C84.435408,19.040105 83.519972,18.6709866 83.519972,17.3032104 L83.519972,13.5259741 L86.119328,13.5259741 L86.119328,10.7156922 L83.519972,10.7156922 L83.519972,7.1162215 L79.38184,7.1162215 L79.38184,10.7156922 L77.573855,10.7156922 L77.573855,13.5259741 L79.38184,13.5259741 L79.38184,17.9469031 C79.38184,20.37731 80.582748,22.1209982 83.643435,22.1209982 C84.531167,22.1209982 85.34723,22.0083379 85.907935,21.9103969 L86.417447,18.852149 Z M70.094382,19.3299648 C71.774087,19.3299648 72.761794,17.9469031 72.761794,16.2943622 C72.761794,14.6237051 71.821063,13.2378126 70.094382,13.2378126 C68.289408,13.2378126 67.425164,14.6237051 67.425164,16.2943622 C67.425164,17.9469031 68.414678,19.3299648 70.094382,19.3299648 Z M110.610851,21.8888839 L110.610851,6.1266218 L114.738744,6.1266218 L114.738744,11.5280924 L114.783913,11.5280924 C115.075407,11.3571203 116.412426,10.4552712 118.373386,10.4552712 C121.589456,10.4552712 123.952124,12.8839798 123.952124,16.0996126 C123.952124,20.1151907 121.333496,22.1379822 118.348693,22.1379822 C116.092625,22.1379822 114.945319,21.1500809 114.662859,20.8624856 L114.596008,20.8624856 L114.536987,21.8888839 L110.610851,21.8888839 Z M88.423576,21.9132276 L92.568333,21.9132276 L92.568333,10.7281471 L88.423576,10.7281471 L88.423576,21.9132276 Z M107.942837,10.719089 L107.942837,21.8968098 L103.923351,21.8968098 L103.864329,20.7685076 L103.778206,20.7685076 C103.331329,21.1466842 102.403246,22.1425113 99.814128,22.1425113 C96.940743,22.1425113 94.423897,19.7964581 94.423897,16.2994574 C94.423897,13.0504228 96.655874,10.4592341 100.077316,10.4592341 C102.405655,10.4592341 103.356624,11.423924 103.714367,11.7313339 L103.820364,11.7313339 L103.859511,10.7185228 L107.942837,10.7185228 L107.942837,10.719089 Z M138.952625,10.7145599 L138.952625,21.8922807 L134.934945,21.8922807 L134.873515,20.765677 L134.787994,20.765677 C134.340514,21.1421551 133.413033,22.1379822 130.823916,22.1379822 C127.949929,22.1379822 125.433082,19.791929 125.433082,16.2926638 C125.433082,13.0458937 127.665662,10.4547051 131.087103,10.4547051 C133.41484,10.4547051 134.366411,11.4182626 134.723552,11.7268049 L134.82955,11.7268049 L134.870503,10.7145599 L138.952625,10.7145599 Z M70.094382,22.128358 C66.065862,22.128358 63.183444,19.8542036 63.183444,16.2954944 C63.183444,12.7815098 66.171258,10.4445147 70.094382,10.4445147 C74.016904,10.4445147 77.003514,12.7673565 77.003514,16.2954944 C77.003514,19.8536374 74.096403,22.128358 70.094382,22.128358 Z M24.782114,14.4023472 C24.887509,19.2297594 20.244684,22.8750868 16.367331,22.8750868 L6.779345,22.8750868 L0.763365,28.5098039 L16.263742,28.5098039 C21.210107,28.5098039 25.956522,24.3238199 25.956522,19.330531 C25.956522,17.861417 25.768014,15.9507197 24.782114,14.5019866 L24.782114,14.4023472 Z M23.137943,17.959358 C23.734783,16.9561711 24.028686,15.8499481 24.10156,14.7765609 L19.752035,14.7765609 C19.74541,15.8595724 19.55088,16.9346581 19.176876,17.959358 L23.137943,17.959358 Z M18.893211,18.5900296 C18.401165,19.770416 17.226154,21.3085981 16.084269,22.1453419 C18.295769,22.1453419 20.821047,21.2383976 22.666975,18.5900296 L18.893211,18.5900296 Z M18.401165,17.959358 C18.787816,16.9561711 18.966687,15.8499481 19.07148,14.7765609 L12.489978,14.7765609 C12.594169,15.8499481 12.773643,16.9561711 13.159692,17.959358 L18.401165,17.959358 Z M12.405662,17.959358 C12.020215,16.8548334 11.809424,15.772388 11.809424,14.7765609 L7.461104,14.7765609 C7.564693,15.8499481 7.848357,16.9561711 8.425323,17.959358 L12.405662,17.959358 Z M15.79157,21.5056122 C16.650996,20.7758673 17.615215,19.5932165 18.107261,18.5900296 L13.455402,18.5900296 C13.946846,19.5932165 14.911065,20.7764335 15.79157,21.5056122 Z M8.812576,18.5900296 C10.740412,21.2383976 13.265088,22.1453419 15.50911,22.1453419 C14.334702,21.3085981 13.087421,19.770416 12.688724,18.5900296 L8.812576,18.5900296 Z M19.176876,10.9551662 C19.57497,11.9306126 19.752035,13.034571 19.752035,14.1368311 L24.100355,14.1368311 C24.027482,13.034571 23.734181,11.9306126 23.136738,10.9551662 L19.176876,10.9551662 Z M22.666975,10.215231 C20.821047,7.6749943 18.295769,6.6689768 16.084269,6.6689768 C17.226154,7.4774141 18.401165,9.0138978 18.893211,10.215231 L22.666975,10.215231 Z M13.160897,10.9551662 C12.774245,11.9306126 12.595374,13.034571 12.491183,14.1368311 L19.072083,14.1368311 C18.967892,13.034571 18.788418,11.9306126 18.401767,10.9551662 L13.160897,10.9551662 Z M8.42472,10.9551662 C7.847153,11.9306126 7.564693,13.034571 7.459899,14.1368311 L11.80822,14.1368311 C11.80822,13.034571 12.019011,11.9306126 12.404457,10.9551662 L8.42472,10.9551662 Z M15.79157,7.378907 C14.91227,8.1086518 13.946846,9.2109119 13.456004,10.215231 L18.107864,10.215231 C17.615215,9.2120442 16.650996,8.1086518 15.79157,7.378907 Z M12.688724,10.215231 C13.087421,9.0138978 14.334702,7.4774141 15.50911,6.6689768 C13.265088,6.6689768 10.740412,7.6749943 8.812576,10.215231 L12.688724,10.215231 Z M6.779345,14.3044063 C5.815126,12.8664297 5.604937,10.954034 5.604937,9.4866184 C5.604937,4.4916311 10.351352,0.2745098 15.298319,0.2745098 L30.798093,0.2745098 L24.782114,5.9788612 L15.192923,5.9788612 C11.33665,5.9799935 6.673949,9.6536275 6.779345,14.3044063 Z" id="Scotiabank"></path>
      </g>
    </g>
  </g>
</svg>
