<?xml version="1.0" encoding="UTF-8"?>
<svg xmlns="http://www.w3.org/2000/svg" xmlns:xlink="http://www.w3.org/1999/xlink" width="141px" height="54px" viewBox="0 0 141 54">
  <!-- Generator: Sketch 50.2 (55047) - http://www.bohemiancoding.com/sketch -->
  <title>TDECU-logo</title>
  <desc>Created with Sketch.</desc>
  <defs></defs>
  <g id="Design" stroke="none" stroke-width="1" fill="none" fill-rule="evenodd">
    <g id="dropdown_menu" transform="translate(-752.000000, -1093.000000)" fill="#BB062C" fill-rule="nonzero">
      <g id="TDECU-logo" transform="translate(752.000000, 1093.000000)">
        <g id="Group">
          <path d="M9.52113402,28.4594595 C10.6113402,28.4594595 10.9020619,28.1675676 10.9020619,27 L10.9020619,2.7 L4.86958763,2.7 C3.92474227,2.7 3.63402062,2.91891892 3.41597938,3.72162162 L2.03505155,9.34054054 L0,9.12162162 L1.09020619,0.437837838 L26.1649485,0.437837838 L27.2551546,9.12162162 L25.2201031,9.41351351 L23.8391753,3.79459459 C23.621134,2.99189189 23.3304124,2.77297297 22.385567,2.77297297 L16.3530928,2.77297297 L16.3530928,27 C16.3530928,28.1675676 16.6438144,28.4594595 17.7340206,28.4594595 L20.7139175,28.4594595 L20.7139175,30.0648649 L6.54123711,30.0648649 L6.54123711,28.4594595 L9.52113402,28.4594595 Z" id="Shape"></path>
          <path d="M63.45,27.8027027 L75.3695876,27.8027027 C76.6051546,27.8027027 76.8231959,27.6567568 77.1139175,26.8540541 L78.4221649,22.0378378 L80.3845361,22.3297297 L79.657732,30.0648649 L53.5654639,30.0648649 L53.5654639,28.4594595 L56.5453608,28.4594595 C57.635567,28.4594595 57.9262887,28.1675676 57.9262887,27 L57.9262887,3.57567568 C57.9262887,2.40810811 57.7082474,2.11621622 56.5453608,2.11621622 L53.5654639,2.11621622 L53.5654639,0.437837838 L78.8582474,0.437837838 L78.8582474,6.85945946 L77.3319588,6.85945946 L76.7505155,3.79459459 C76.6051546,2.91891892 76.314433,2.7 75.5876289,2.7 L63.45,2.7 L63.45,12.9162162 L72.2443299,12.9162162 C73.2618557,12.9162162 73.3345361,12.7702703 73.4798969,12.0405405 L73.843299,10.5081081 L75.0061856,10.8 L75.0061856,17.5135135 L73.843299,17.8054054 L73.4798969,16.272973 C73.3345361,15.4702703 73.1891753,15.3972973 72.2443299,15.3972973 L63.45,15.3972973 L63.45,27.8027027 Z" id="Shape"></path>
          <path d="M133.659278,0.437837838 L133.659278,2.48108108 C133.804639,2.7 133.804639,3.06486486 133.804639,3.57567568 L133.804639,18.9 C133.804639,25.3945946 130.170619,28.5324324 124.138144,28.5324324 C119.268557,28.5324324 116.579381,26.1972973 116.579381,19.9216216 L116.579381,3.57567568 C116.579381,2.40810811 116.797423,2.11621622 117.960309,2.11621622 L120.794845,2.11621622 L120.794845,0.437837838 L106.840206,0.437837838 L106.840206,1.45945946 C104.805155,0.72972973 101.752577,0 97.1737113,0 C85.3268041,0 79.8030928,6.27567568 79.8030928,15.1054054 C79.8030928,25.6135135 86.7804124,30.5756757 95.7927835,30.5756757 C102.18866,30.5756757 106.404124,28.3864865 108.221134,27.072973 L108.802577,22.6216216 C104.441753,26.1972973 101.752577,28.3135135 95.2113402,28.3135135 C90.0510309,28.3135135 85.9809278,24.6648649 85.9809278,15.4702703 C85.9809278,5.54594595 90.2690722,1.8972973 97.3917526,1.8972973 C103.496907,1.8972973 105.82268,4.74324324 106.694845,9.70540541 L108.439175,9.41351351 L108.075773,2.11621622 L109.820103,2.11621622 C110.910309,2.11621622 111.201031,2.40810811 111.201031,3.57567568 L111.201031,19.8486486 C111.201031,25.8324324 114.180928,30.5756757 123.556701,30.5756757 C131.769588,30.5756757 136.057732,26.3432432 136.057732,17.5135135 L136.057732,3.57567568 C136.057732,2.40810811 136.275773,2.11621622 137.365979,2.11621622 L140.345876,2.11621622 L140.345876,0.437837838 L133.659278,0.437837838 Z" id="Shape"></path>
          <path d="M41.5731959,0.437837838 L28.2,0.437837838 L28.2,9.34054054 L28.2,27 C28.2,28.1675676 27.9819588,28.4594595 26.8190722,28.4594595 L23.9845361,28.4594595 L23.9845361,30.0648649 L41.1371134,30.0648649 C50.2221649,30.0648649 56.0365979,25.3945946 56.0365979,15.2513514 C56.0365979,5.98378378 50.2948454,0.437837838 41.5731959,0.437837838 Z M36.7762887,28.4594595 C35.7587629,28.4594595 34.7412371,28.2405405 33.6510309,28.1675676 L33.6510309,2.26216216 C34.7412371,2.18918919 36.4128866,2.11621622 38.0118557,2.11621622 C46.3701031,2.11621622 50.0041237,5.91081081 50.0041237,15.2513514 C50.0768041,26.3432432 45.5706186,28.4594595 36.7762887,28.4594595 Z" id="Shape"></path>
        </g>
        <rect id="Rectangle-path" x="0" y="35.8297297" width="140.200515" height="1.09459459"></rect>
        <g id="Group" transform="translate(0.000000, 42.324324)">
          <polygon id="Shape" points="0.290721649 0.656756757 1.7443299 0.656756757 4.28814433 5.10810811 6.83195876 0.656756757 8.28556701 0.656756757 4.94226804 6.49459459 4.94226804 11.0189189 3.70670103 11.0189189 3.70670103 6.56756757"></polygon>
          <path d="M19.2603093,5.83783784 C19.2603093,8.9027027 16.8618557,11.2378378 13.8819588,11.2378378 C10.9020619,11.2378378 8.50360825,8.9027027 8.50360825,5.83783784 C8.50360825,2.84594595 10.9747423,0.437837838 13.8819588,0.437837838 C16.7891753,0.437837838 19.2603093,2.91891892 19.2603093,5.83783784 Z M18.0247423,5.83783784 C18.0247423,3.57567568 16.3530928,1.67837838 13.8819588,1.67837838 C11.4108247,1.67837838 9.73917526,3.57567568 9.73917526,5.83783784 C9.73917526,8.17297297 11.628866,9.9972973 13.8819588,9.9972973 C16.1350515,9.9972973 18.0247423,8.24594595 18.0247423,5.83783784 Z" id="Shape"></path>
          <path d="M22.1675258,0.656756757 L22.1675258,6.78648649 C22.1675258,8.46486486 22.6762887,10.0702703 24.6386598,10.0702703 C26.6010309,10.0702703 27.1097938,8.53783784 27.1097938,6.78648649 L27.1097938,0.656756757 L28.4180412,0.656756757 L28.4180412,7.22432432 C28.4180412,9.48648649 27.0371134,11.2378378 24.6386598,11.2378378 C22.2402062,11.2378378 20.8592784,9.48648649 20.8592784,7.22432432 L20.8592784,0.656756757 L22.1675258,0.656756757 Z" id="Shape"></path>
          <path d="M37.2123711,11.0189189 L35.6134021,11.0189189 L32.5608247,6.64054054 L32.0520619,6.64054054 L32.0520619,11.0189189 L30.7438144,11.0189189 L30.7438144,0.656756757 L32.2701031,0.656756757 C33.2149485,0.656756757 34.1597938,0.656756757 34.9592784,1.16756757 C35.8314433,1.67837838 36.3402062,2.62702703 36.3402062,3.64864865 C36.3402062,5.10810811 35.3226804,6.34864865 33.8690722,6.56756757 L37.2123711,11.0189189 Z M32.0520619,5.61891892 L32.4881443,5.61891892 C33.7963918,5.61891892 35.25,5.4 35.25,3.72162162 C35.25,2.11621622 33.7237113,1.8972973 32.4154639,1.8972973 L32.0520619,1.8972973 L32.0520619,5.61891892 Z" id="Shape"></path>
          <path d="M50.7309278,2.62702703 C50.0041237,1.97027027 48.9865979,1.60540541 48.0417526,1.60540541 C45.7159794,1.60540541 43.9716495,3.57567568 43.9716495,5.83783784 C43.9716495,8.1 45.7159794,10.0702703 48.0417526,10.0702703 C49.0592784,10.0702703 50.0041237,9.70540541 50.8036082,8.97567568 L50.8036082,10.5081081 C50.0041237,10.9459459 48.9865979,11.2378378 48.114433,11.2378378 C45.2072165,11.2378378 42.7360825,8.9027027 42.7360825,5.91081081 C42.7360825,2.84594595 45.2072165,0.437837838 48.1871134,0.437837838 C49.0592784,0.437837838 50.0041237,0.656756757 50.8036082,1.16756757 L50.8036082,2.62702703 L50.7309278,2.62702703 Z" id="Shape"></path>
          <path d="M59.2345361,11.0189189 L57.7082474,11.0189189 L54.6556701,6.64054054 L54.1469072,6.64054054 L54.1469072,11.0189189 L52.8386598,11.0189189 L52.8386598,0.656756757 L54.3649485,0.656756757 C55.3097938,0.656756757 56.2546392,0.656756757 57.0541237,1.16756757 C57.9262887,1.67837838 58.4350515,2.62702703 58.4350515,3.64864865 C58.4350515,5.10810811 57.4175258,6.34864865 55.9639175,6.56756757 L59.2345361,11.0189189 Z M54.0742268,5.61891892 L54.5103093,5.61891892 C55.8185567,5.61891892 57.2721649,5.4 57.2721649,3.72162162 C57.2721649,2.11621622 55.7458763,1.8972973 54.4376289,1.8972973 L54.0742268,1.8972973 L54.0742268,5.61891892 Z" id="Shape"></path>
          <polygon id="Shape" points="60.7608247 0.656756757 66.2845361 0.656756757 66.2845361 1.82432432 61.9963918 1.82432432 61.9963918 4.74324324 66.1391753 4.74324324 66.1391753 5.91081081 61.9963918 5.91081081 61.9963918 9.85135135 66.2845361 9.85135135 66.2845361 11.0189189 60.7608247 11.0189189"></polygon>
          <path d="M68.3195876,0.656756757 L70.5,0.656756757 C73.6252577,0.656756757 76.314433,2.33513514 76.314433,5.76486486 C76.314433,9.26756757 73.7706186,11.0189189 70.5,11.0189189 L68.3195876,11.0189189 L68.3195876,0.656756757 Z M69.6278351,9.85135135 L70.0639175,9.85135135 C72.6804124,9.85135135 74.9335052,8.82972973 74.9335052,5.83783784 C74.9335052,2.84594595 72.6804124,1.82432432 70.0639175,1.82432432 L69.6278351,1.82432432 L69.6278351,9.85135135 Z" id="Shape"></path>
          <polygon id="Shape" points="79.5850515 11.0189189 78.2768041 11.0189189 78.2768041 0.656756757 79.5850515 0.656756757"></polygon>
          <polygon id="Shape" points="85.1087629 11.0189189 83.8005155 11.0189189 83.8005155 1.8972973 81.4020619 1.8972973 81.4020619 0.72972973 87.5798969 0.72972973 87.5798969 1.8972973 85.1087629 1.8972973"></polygon>
          <path d="M94.7752577,0.656756757 L94.7752577,6.78648649 C94.7752577,8.46486486 95.2840206,10.0702703 97.2463918,10.0702703 C99.2087629,10.0702703 99.7175258,8.53783784 99.7175258,6.78648649 L99.7175258,0.656756757 L101.025773,0.656756757 L101.025773,7.22432432 C101.025773,9.48648649 99.6448454,11.2378378 97.2463918,11.2378378 C94.8479381,11.2378378 93.4670103,9.48648649 93.4670103,7.22432432 L93.4670103,0.656756757 L94.7752577,0.656756757 Z" id="Shape"></path>
          <polygon id="Shape" points="103.206186 0.218918919 110.910309 8.39189189 110.910309 0.656756757 112.218557 0.656756757 112.218557 11.4567568 104.514433 3.28378378 104.514433 11.0189189 103.206186 11.0189189"></polygon>
          <polygon id="Shape" points="116.143299 11.0189189 114.835052 11.0189189 114.835052 0.656756757 116.143299 0.656756757"></polygon>
          <path d="M128.935052,5.83783784 C128.935052,8.9027027 126.536598,11.2378378 123.556701,11.2378378 C120.576804,11.2378378 118.178351,8.9027027 118.178351,5.83783784 C118.178351,2.84594595 120.649485,0.437837838 123.556701,0.437837838 C126.536598,0.437837838 128.935052,2.91891892 128.935052,5.83783784 Z M127.699485,5.83783784 C127.699485,3.57567568 126.027835,1.67837838 123.556701,1.67837838 C121.158247,1.67837838 119.413918,3.57567568 119.413918,5.83783784 C119.413918,8.17297297 121.303608,9.9972973 123.556701,9.9972973 C125.809794,10.0702703 127.699485,8.24594595 127.699485,5.83783784 Z" id="Shape"></path>
          <polygon id="Shape" points="130.897423 0.218918919 138.601546 8.39189189 138.601546 0.656756757 139.909794 0.656756757 139.909794 11.4567568 132.20567 3.28378378 132.20567 11.0189189 130.897423 11.0189189"></polygon>
        </g>
      </g>
    </g>
  </g>
</svg>
