<?xml version="1.0" encoding="UTF-8"?>
<svg xmlns="http://www.w3.org/2000/svg" xmlns:xlink="http://www.w3.org/1999/xlink" width="174px" height="67px" viewBox="0 0 174 67">
  <!-- Generator: Sketch 50.2 (55047) - http://www.bohemiancoding.com/sketch -->
  <title>TDECU-logo_grey</title>
  <desc>Created with Sketch.</desc>
  <defs></defs>
  <g id="Design" stroke="none" stroke-width="1" fill="none" fill-rule="evenodd">
    <g id="home" transform="translate(-504.000000, -1271.000000)" fill="#BFBFBF" fill-rule="nonzero">
      <g id="TDECU-logo_grey" transform="translate(504.000000, 1271.000000)">
        <g id="Group">
          <path d="M11.7494845,35.3108108 C13.0948454,35.3108108 13.4536083,34.9486486 13.4536083,33.5 L13.4536083,3.35 L6.00927834,3.35 C4.84329897,3.35 4.48453608,3.62162162 4.21546392,4.61756756 L2.51134021,11.5891892 L0,11.3175676 L1.34536083,0.543243244 L32.2886597,0.543243244 L33.6340207,11.3175676 L31.1226804,11.6797297 L29.4185567,4.70810811 C29.1494845,3.71216217 28.7907216,3.44054055 27.6247422,3.44054055 L20.1804123,3.44054055 L20.1804123,33.5 C20.1804123,34.9486486 20.5391752,35.3108108 21.884536,35.3108108 L25.5618556,35.3108108 L25.5618556,37.3027027 L8.07216495,37.3027027 L8.07216495,35.3108108 L11.7494845,35.3108108 Z" id="Shape"></path>
          <path d="M78.3,34.4959459 L93.0092784,34.4959459 C94.5340207,34.4959459 94.8030929,34.3148648 95.1618556,33.3189189 L96.7762886,27.3432432 L99.1979381,27.7054055 L98.301031,37.3027027 L66.1020619,37.3027027 L66.1020619,35.3108108 L69.7793815,35.3108108 C71.1247422,35.3108108 71.4835052,34.9486486 71.4835052,33.5 L71.4835052,4.43648648 C71.4835052,2.98783783 71.214433,2.62567568 69.7793815,2.62567568 L66.1020619,2.62567568 L66.1020619,0.543243244 L97.314433,0.543243244 L97.314433,8.51081082 L95.4309278,8.51081082 L94.7134021,4.70810811 C94.5340207,3.62162162 94.1752578,3.35 93.2783505,3.35 L78.3,3.35 L78.3,16.0256756 L89.1525774,16.0256756 C90.4082474,16.0256756 90.4979381,15.8445946 90.6773196,14.9391892 L91.1257733,13.0378378 L92.5608248,13.4 L92.5608248,21.7297297 L91.1257733,22.0918918 L90.6773196,20.1905406 C90.4979381,19.1945945 90.3185567,19.1040541 89.1525774,19.1040541 L78.3,19.1040541 L78.3,34.4959459 Z" id="Shape"></path>
          <path d="M164.941237,0.543243244 L164.941237,3.07837838 C165.120619,3.35 165.120619,3.8027027 165.120619,4.43648648 L165.120619,23.45 C165.120619,31.5081082 160.636082,35.4013514 153.191753,35.4013514 C147.182474,35.4013514 143.863917,32.5040541 143.863917,24.7175676 L143.863917,4.43648648 C143.863917,2.98783783 144.13299,2.62567568 145.568041,2.62567568 L149.065979,2.62567568 L149.065979,0.543243244 L131.845361,0.543243244 L131.845361,1.81081082 C129.334021,0.905405406 125.56701,0 119.916495,0 C105.296907,0 98.4804123,7.78648648 98.4804123,18.7418918 C98.4804123,31.7797297 107.090722,37.9364865 118.212371,37.9364865 C126.105155,37.9364865 131.307217,35.2202703 133.549484,33.5905406 L134.26701,28.0675676 C128.885567,32.5040541 125.56701,35.1297297 117.494845,35.1297297 C111.126804,35.1297297 106.104124,30.6027027 106.104124,19.1945945 C106.104124,6.88108108 111.395876,2.35405406 120.185567,2.35405406 C127.719588,2.35405406 130.589691,5.88513514 131.665979,12.0418919 L133.818557,11.6797297 L133.370103,2.62567568 L135.52268,2.62567568 C136.868041,2.62567568 137.226804,2.98783783 137.226804,4.43648648 L137.226804,24.627027 C137.226804,32.0513514 140.904124,37.9364865 152.474227,37.9364865 C162.609278,37.9364865 167.90103,32.6851352 167.90103,21.7297297 L167.90103,4.43648648 C167.90103,2.98783783 168.170103,2.62567568 169.515464,2.62567568 L173.192784,2.62567568 L173.192784,0.543243244 L164.941237,0.543243244 Z" id="Shape"></path>
          <path d="M51.3030929,0.543243244 L34.8,0.543243244 L34.8,11.5891892 L34.8,33.5 C34.8,34.9486486 34.5309278,35.3108108 33.0958763,35.3108108 L29.5979381,35.3108108 L29.5979381,37.3027027 L50.7649485,37.3027027 C61.9762886,37.3027027 69.1515464,31.5081082 69.1515464,18.922973 C69.1515464,7.42432432 62.0659793,0.543243244 51.3030929,0.543243244 Z M45.3835052,35.3108108 C44.1278351,35.3108108 42.8721649,35.0391892 41.5268041,34.9486486 L41.5268041,2.80675676 C42.8721649,2.71621621 44.9350515,2.62567568 46.9082474,2.62567568 C57.2226804,2.62567568 61.7072166,7.33378379 61.7072166,18.922973 C61.7969071,32.6851352 56.2360825,35.3108108 45.3835052,35.3108108 Z" id="Shape"></path>
        </g>
        <rect id="Rectangle-path" x="0" y="44.4554055" width="173.013403" height="1.5952381"></rect>
        <g id="Group" transform="translate(0.000000, 52.513514)">
          <polygon id="Shape" points="0.358762886 0.814864865 2.15257733 0.814864865 5.29175258 6.33783783 8.43092784 0.814864865 10.2247423 0.814864865 6.09896907 8.05810811 6.09896907 13.6716216 4.57422681 13.6716216 4.57422681 8.14864865"></polygon>
          <path d="M23.7680412,7.24324324 C23.7680412,11.0459459 20.8082474,13.9432432 17.1309278,13.9432432 C13.4536083,13.9432432 10.4938144,11.0459459 10.4938144,7.24324324 C10.4938144,3.53108108 13.543299,0.543243244 17.1309278,0.543243244 C20.7185567,0.543243244 23.7680412,3.62162162 23.7680412,7.24324324 Z M22.2432989,7.24324324 C22.2432989,4.43648648 20.1804123,2.08243244 17.1309278,2.08243244 C14.0814433,2.08243244 12.0185567,4.43648648 12.0185567,7.24324324 C12.0185567,10.1405405 14.3505155,12.4040541 17.1309278,12.4040541 C19.9113403,12.4040541 22.2432989,10.2310811 22.2432989,7.24324324 Z" id="Shape"></path>
          <path d="M27.3556701,0.814864865 L27.3556701,8.42027027 C27.3556701,10.5027027 27.9835052,12.4945946 30.4051547,12.4945946 C32.8268041,12.4945946 33.4546392,10.5932432 33.4546392,8.42027027 L33.4546392,0.814864865 L35.0690722,0.814864865 L35.0690722,8.96351352 C35.0690722,11.7702703 33.3649485,13.9432432 30.4051547,13.9432432 C27.4453608,13.9432432 25.7412371,11.7702703 25.7412371,8.96351352 L25.7412371,0.814864865 L27.3556701,0.814864865 Z" id="Shape"></path>
          <path d="M45.9216495,13.6716216 L43.9484536,13.6716216 L40.1814433,8.23918918 L39.5536082,8.23918918 L39.5536082,13.6716216 L37.9391752,13.6716216 L37.9391752,0.814864865 L39.8226804,0.814864865 C40.9886597,0.814864865 42.1546392,0.814864865 43.1412371,1.44864865 C44.2175258,2.08243244 44.8453608,3.25945945 44.8453608,4.52702703 C44.8453608,6.33783783 43.5896907,7.87702703 41.7958763,8.14864865 L45.9216495,13.6716216 Z M39.5536082,6.97162162 L40.0917526,6.97162162 C41.7061856,6.97162162 43.5,6.7 43.5,4.61756756 C43.5,2.62567568 41.6164948,2.35405406 40.0020619,2.35405406 L39.5536082,2.35405406 L39.5536082,6.97162162 Z" id="Shape"></path>
          <path d="M62.6041237,3.25945945 C61.7072166,2.44459459 60.4515464,1.99189189 59.285567,1.99189189 C56.415464,1.99189189 54.2628866,4.43648648 54.2628866,7.24324324 C54.2628866,10.05 56.415464,12.4945946 59.285567,12.4945946 C60.5412371,12.4945946 61.7072166,12.0418919 62.6938144,11.1364865 L62.6938144,13.0378378 C61.7072166,13.5810811 60.4515464,13.9432432 59.3752578,13.9432432 C55.7876289,13.9432432 52.7381444,11.0459459 52.7381444,7.33378379 C52.7381444,3.53108108 55.7876289,0.543243244 59.4649485,0.543243244 C60.5412371,0.543243244 61.7072166,0.814864865 62.6938144,1.44864865 L62.6938144,3.25945945 L62.6041237,3.25945945 Z" id="Shape"></path>
          <path d="M73.0979381,13.6716216 L71.214433,13.6716216 L67.4474226,8.23918918 L66.8195877,8.23918918 L66.8195877,13.6716216 L65.2051547,13.6716216 L65.2051547,0.814864865 L67.0886597,0.814864865 C68.2546392,0.814864865 69.4206185,0.814864865 70.4072166,1.44864865 C71.4835052,2.08243244 72.1113403,3.25945945 72.1113403,4.52702703 C72.1113403,6.33783783 70.8556701,7.87702703 69.0618556,8.14864865 L73.0979381,13.6716216 Z M66.729897,6.97162162 L67.2680412,6.97162162 C68.8824742,6.97162162 70.6762886,6.7 70.6762886,4.61756756 C70.6762886,2.62567568 68.7927834,2.35405406 67.1783505,2.35405406 L66.729897,2.35405406 L66.729897,6.97162162 Z" id="Shape"></path>
          <polygon id="Shape" points="74.9814433 0.814864865 81.7979381 0.814864865 81.7979381 2.26351352 76.5061856 2.26351352 76.5061856 5.88513514 81.6185567 5.88513514 81.6185567 7.33378379 76.5061856 7.33378379 76.5061856 12.222973 81.7979381 12.222973 81.7979381 13.6716216 74.9814433 13.6716216"></polygon>
          <path d="M84.3092784,0.814864865 L87,0.814864865 C90.8567011,0.814864865 94.1752578,2.8972973 94.1752578,7.1527027 C94.1752578,11.4986487 91.0360825,13.6716216 87,13.6716216 L84.3092784,13.6716216 L84.3092784,0.814864865 Z M85.9237114,12.222973 L86.4618556,12.222973 C89.6907216,12.222973 92.471134,10.9554054 92.471134,7.24324324 C92.471134,3.53108108 89.6907216,2.26351352 86.4618556,2.26351352 L85.9237114,2.26351352 L85.9237114,12.222973 Z" id="Shape"></path>
          <polygon id="Shape" points="98.2113403 13.6716216 96.5969071 13.6716216 96.5969071 0.814864865 98.2113403 0.814864865"></polygon>
          <polygon id="Shape" points="105.027835 13.6716216 103.413402 13.6716216 103.413402 2.35405406 100.453608 2.35405406 100.453608 0.905405406 108.07732 0.905405406 108.07732 2.35405406 105.027835 2.35405406"></polygon>
          <path d="M116.956701,0.814864865 L116.956701,8.42027027 C116.956701,10.5027027 117.584536,12.4945946 120.006186,12.4945946 C122.427835,12.4945946 123.05567,10.5932432 123.05567,8.42027027 L123.05567,0.814864865 L124.670103,0.814864865 L124.670103,8.96351352 C124.670103,11.7702703 122.965979,13.9432432 120.006186,13.9432432 C117.046392,13.9432432 115.342268,11.7702703 115.342268,8.96351352 L115.342268,0.814864865 L116.956701,0.814864865 Z" id="Shape"></path>
          <polygon id="Shape" points="127.360825 0.271621621 136.868041 10.4121622 136.868041 0.814864865 138.482474 0.814864865 138.482474 14.2148649 128.975258 4.07432432 128.975258 13.6716216 127.360825 13.6716216"></polygon>
          <polygon id="Shape" points="143.325773 13.6716216 141.71134 13.6716216 141.71134 0.814864865 143.325773 0.814864865"></polygon>
          <path d="M159.11134,7.24324324 C159.11134,11.0459459 156.151546,13.9432432 152.474227,13.9432432 C148.796907,13.9432432 145.837113,11.0459459 145.837113,7.24324324 C145.837113,3.53108108 148.886598,0.543243244 152.474227,0.543243244 C156.151546,0.543243244 159.11134,3.62162162 159.11134,7.24324324 Z M157.586597,7.24324324 C157.586597,4.43648648 155.523711,2.08243244 152.474227,2.08243244 C149.514433,2.08243244 147.361856,4.43648648 147.361856,7.24324324 C147.361856,10.1405405 149.693814,12.4040541 152.474227,12.4040541 C155.254639,12.4945946 157.586597,10.2310811 157.586597,7.24324324 Z" id="Shape"></path>
          <polygon id="Shape" points="161.532989 0.271621621 171.040207 10.4121622 171.040207 0.814864865 172.65464 0.814864865 172.65464 14.2148649 163.147422 4.07432432 163.147422 13.6716216 161.532989 13.6716216"></polygon>
        </g>
      </g>
    </g>
  </g>
</svg>
