<?xml version="1.0" encoding="UTF-8"?>
<!-- Generator: Adobe Illustrator 20.1.0, SVG Export Plug-In . SVG Version: 6.00 Build 0)  -->
<svg xmlns="http://www.w3.org/2000/svg" xmlns:xlink="http://www.w3.org/1999/xlink" id="Layer_1" x="0px" y="0px" viewBox="0 0 192.9 73.7" xml:space="preserve">
<g>
	<g>
		<g>
			<path fill="#bb062c" d="M13.1,39c1.5,0,1.9-0.4,1.9-2V3.7H6.7c-1.3,0-1.7,0.3-2,1.4l-1.9,7.7L0,12.5L1.5,0.6H36l1.5,11.9     l-2.8,0.4l-1.9-7.7c-0.3-1.1-0.7-1.4-2-1.4h-8.3V37c0,1.6,0.4,2,1.9,2h4.1v2.2H9V39H13.1z"></path>
			<path fill="#bb062c" d="M87.3,38.1h16.4c1.7,0,2-0.2,2.4-1.3l1.8-6.6l2.7,0.4l-1,10.6H73.7V39h4.1c1.5,0,1.9-0.4,1.9-2V4.9     c0-1.6-0.3-2-1.9-2h-4.1V0.6h34.8v8.8h-2.1l-0.8-4.2c-0.2-1.2-0.6-1.5-1.6-1.5H87.3v14h12.1c1.4,0,1.5-0.2,1.7-1.2l0.5-2.1     l1.6,0.4V24l-1.6,0.4l-0.5-2.1c-0.2-1.1-0.4-1.2-1.7-1.2H87.3V38.1z"></path>
			<path fill="#bb062c" d="M183.9,0.6v2.8c0.2,0.3,0.2,0.8,0.2,1.5v21c0,8.9-5,13.2-13.3,13.2c-6.7,0-10.4-3.2-10.4-11.8V4.9     c0-1.6,0.3-2,1.9-2h3.9V0.6H147V2c-2.8-1-7-2-13.3-2c-16.3,0-23.9,8.6-23.9,20.7c0,14.4,9.6,21.2,22,21.2c8.8,0,14.6-3,17.1-4.8     l0.8-6.1c-6,4.9-9.7,7.8-18.7,7.8c-7.1,0-12.7-5-12.7-17.6c0-13.6,5.9-18.6,15.7-18.6c8.4,0,11.6,3.9,12.8,10.7l2.4-0.4l-0.5-10     h2.4c1.5,0,1.9,0.4,1.9,2v22.3c0,8.2,4.1,14.7,17,14.7c11.3,0,17.2-5.8,17.2-17.9V4.9c0-1.6,0.3-2,1.8-2h4.1V0.6H183.9z"></path>
			<path fill="#bb062c" d="M57.2,0.6H38.8v12.2l0,0V37c0,1.6-0.3,2-1.9,2H33v2.2h23.6c12.5,0,20.5-6.4,20.5-20.3     C77.1,8.2,69.2,0.6,57.2,0.6z M50.6,39c-1.4,0-2.8-0.3-4.3-0.4V3.1c1.5-0.1,3.8-0.2,6-0.2c11.5,0,16.5,5.2,16.5,18     C68.9,36.1,62.7,39,50.6,39z"></path>
		</g>
	</g>
	<rect y="49.1" fill="#bb062c" width="192.9" height="1.5"></rect>
	<g>
		<path fill="#bb062c" d="M0.4,58.9h2L5.9,65l3.5-6.1h2l-4.6,8v6.2H5.1V67L0.4,58.9z"></path>
		<path fill="#bb062c" d="M26.5,66c0,4.2-3.3,7.4-7.4,7.4s-7.4-3.2-7.4-7.4c0-4.1,3.4-7.4,7.4-7.4S26.5,62,26.5,66z M24.8,66    c0-3.1-2.3-5.7-5.7-5.7s-5.7,2.6-5.7,5.7c0,3.2,2.6,5.7,5.7,5.7S24.8,69.3,24.8,66z"></path>
		<path fill="#bb062c" d="M30.5,58.9v8.4c0,2.3,0.7,4.5,3.4,4.5c2.7,0,3.4-2.1,3.4-4.5v-8.4h1.8v9c0,3.1-1.9,5.5-5.2,5.5    c-3.3,0-5.2-2.4-5.2-5.5v-9H30.5z"></path>
		<path fill="#bb062c" d="M51.2,73.1H49l-4.2-6h-0.7v6h-1.8V58.9h2.1c1.3,0,2.6,0,3.7,0.7c1.2,0.7,1.9,2,1.9,3.4c0,2-1.4,3.7-3.4,4    L51.2,73.1z M44.1,65.7h0.6c1.8,0,3.8-0.3,3.8-2.6c0-2.2-2.1-2.5-3.9-2.5h-0.5V65.7z"></path>
		<path fill="#bb062c" d="M69.8,61.6c-1-0.9-2.4-1.4-3.7-1.4c-3.2,0-5.6,2.7-5.6,5.8c0,3.1,2.4,5.8,5.6,5.8c1.4,0,2.7-0.5,3.8-1.5    v2.1c-1.1,0.6-2.5,1-3.7,1c-4,0-7.4-3.2-7.4-7.3c0-4.2,3.4-7.5,7.5-7.5c1.2,0,2.5,0.3,3.6,1V61.6z"></path>
		<path fill="#bb062c" d="M81.5,73.1h-2.1l-4.2-6h-0.7v6h-1.8V58.9h2.1c1.3,0,2.6,0,3.7,0.7c1.2,0.7,1.9,2,1.9,3.4    c0,2-1.4,3.7-3.4,4L81.5,73.1z M74.4,65.7H75c1.8,0,3.8-0.3,3.8-2.6c0-2.2-2.1-2.5-3.9-2.5h-0.5V65.7z"></path>
		<path fill="#bb062c" d="M83.6,58.9h7.6v1.6h-5.9v4h5.7v1.6h-5.7v5.4h5.9v1.6h-7.6V58.9z"></path>
		<path fill="#bb062c" d="M94,58.9H97c4.3,0,8,2.3,8,7c0,4.8-3.5,7.2-8,7.2H94V58.9z M95.8,71.5h0.6c3.6,0,6.7-1.4,6.7-5.5    c0-4.1-3.1-5.5-6.7-5.5h-0.6V71.5z"></path>
		<path fill="#bb062c" d="M109.5,73.1h-1.8V58.9h1.8V73.1z"></path>
		<path fill="#bb062c" d="M117.1,73.1h-1.8V60.6H112v-1.6h8.5v1.6h-3.4V73.1z"></path>
		<path fill="#bb062c" d="M130.4,58.9v8.4c0,2.3,0.7,4.5,3.4,4.5c2.7,0,3.4-2.1,3.4-4.5v-8.4h1.8v9c0,3.1-1.9,5.5-5.2,5.5    s-5.2-2.4-5.2-5.5v-9H130.4z"></path>
		<path fill="#bb062c" d="M142,58.3l10.6,11.2V58.9h1.8v14.8l-10.6-11.2v10.6H142V58.3z"></path>
		<path fill="#bb062c" d="M159.8,73.1H158V58.9h1.8V73.1z"></path>
		<path fill="#bb062c" d="M177.4,66c0,4.2-3.3,7.4-7.4,7.4c-4.1,0-7.4-3.2-7.4-7.4c0-4.1,3.4-7.4,7.4-7.4    C174.1,58.6,177.4,62,177.4,66z M175.7,66c0-3.1-2.3-5.7-5.7-5.7c-3.3,0-5.7,2.6-5.7,5.7c0,3.2,2.6,5.7,5.7,5.7    C173.1,71.8,175.7,69.3,175.7,66z"></path>
		<path fill="#bb062c" d="M180.1,58.3l10.6,11.2V58.9h1.8v14.8l-10.6-11.2v10.6h-1.8V58.3z"></path>
	</g>
</g>
</svg>
