<?xml version="1.0" encoding="UTF-8"?>
<svg xmlns="http://www.w3.org/2000/svg" xmlns:xlink="http://www.w3.org/1999/xlink" width="111px" height="42px" viewBox="0 0 111 42">
  <!-- Generator: Sketch 50.2 (55047) - http://www.bohemiancoding.com/sketch -->
  <title>TDECU-logo_grey</title>
  <desc>Created with Sketch.</desc>
  <defs></defs>
  <g id="Design" stroke="none" stroke-width="1" fill="none" fill-rule="evenodd">
    <g id="Artboard" transform="translate(-1201.000000, -799.000000)" fill="#BFBFBF" fill-rule="nonzero">
      <g id="TDECU-logo_grey" transform="translate(1201.000000, 799.000000)">
        <g id="Group">
          <path d="M7.49536082,22.1351351 C8.35360825,22.1351351 8.58247423,21.9081081 8.58247423,21 L8.58247423,2.1 L3.83350515,2.1 C3.08969072,2.1 2.86082474,2.27027027 2.68917526,2.89459459 L1.60206186,7.26486486 L0,7.09459459 L0.858247423,0.340540541 L20.5979381,0.340540541 L21.4561856,7.09459459 L19.8541237,7.32162162 L18.7670103,2.95135135 C18.5953608,2.32702703 18.3664948,2.15675676 17.6226804,2.15675676 L12.8737113,2.15675676 L12.8737113,21 C12.8737113,21.9081081 13.1025773,22.1351351 13.9608247,22.1351351 L16.306701,22.1351351 L16.306701,23.3837838 L5.14948454,23.3837838 L5.14948454,22.1351351 L7.49536082,22.1351351 Z" id="Shape"></path>
          <path d="M49.95,21.6243243 L59.3335052,21.6243243 C60.3061856,21.6243243 60.4778351,21.5108108 60.706701,20.8864865 L61.7365979,17.1405405 L63.2814433,17.3675676 L62.7092784,23.3837838 L42.1685567,23.3837838 L42.1685567,22.1351351 L44.514433,22.1351351 C45.3726804,22.1351351 45.6015464,21.9081081 45.6015464,21 L45.6015464,2.78108108 C45.6015464,1.87297297 45.4298969,1.64594595 44.514433,1.64594595 L42.1685567,1.64594595 L42.1685567,0.340540541 L62.0798969,0.340540541 L62.0798969,5.33513514 L60.8783505,5.33513514 L60.4206186,2.95135135 C60.3061856,2.27027027 60.0773196,2.1 59.5051546,2.1 L49.95,2.1 L49.95,10.0459459 L56.8731959,10.0459459 C57.6742268,10.0459459 57.7314433,9.93243243 57.8458763,9.36486486 L58.1319588,8.17297297 L59.0474227,8.4 L59.0474227,13.6216216 L58.1319588,13.8486486 L57.8458763,12.6567568 C57.7314433,12.0324324 57.6170103,11.9756757 56.8731959,11.9756757 L49.95,11.9756757 L49.95,21.6243243 Z" id="Shape"></path>
          <path d="M105.221134,0.340540541 L105.221134,1.92972973 C105.335567,2.1 105.335567,2.38378378 105.335567,2.78108108 L105.335567,14.7 C105.335567,19.7513514 102.474742,22.1918919 97.7257732,22.1918919 C93.892268,22.1918919 91.7752577,20.3756757 91.7752577,15.4945946 L91.7752577,2.78108108 C91.7752577,1.87297297 91.9469072,1.64594595 92.8623711,1.64594595 L95.0938144,1.64594595 L95.0938144,0.340540541 L84.1082474,0.340540541 L84.1082474,1.13513514 C82.5061856,0.567567568 80.1030928,0 76.4984536,0 C67.1721649,0 62.8237113,4.88108108 62.8237113,11.7486486 C62.8237113,19.9216216 68.3164948,23.7810811 75.4113402,23.7810811 C80.4463918,23.7810811 83.7649485,22.0783784 85.1953608,21.0567568 L85.6530928,17.5945946 C82.2201031,20.3756757 80.1030928,22.0216216 74.9536082,22.0216216 C70.8912371,22.0216216 67.6871134,19.1837838 67.6871134,12.0324324 C67.6871134,4.31351351 71.0628866,1.47567568 76.6701031,1.47567568 C81.4762887,1.47567568 83.3072165,3.68918919 83.9938144,7.54864865 L85.3670103,7.32162162 L85.0809278,1.64594595 L86.4541237,1.64594595 C87.3123711,1.64594595 87.5412371,1.87297297 87.5412371,2.78108108 L87.5412371,15.4378378 C87.5412371,20.0918919 89.8871134,23.7810811 97.2680412,23.7810811 C103.733505,23.7810811 107.109278,20.4891892 107.109278,13.6216216 L107.109278,2.78108108 C107.109278,1.87297297 107.280928,1.64594595 108.139175,1.64594595 L110.485052,1.64594595 L110.485052,0.340540541 L105.221134,0.340540541 Z" id="Shape"></path>
          <path d="M32.7278351,0.340540541 L22.2,0.340540541 L22.2,7.26486486 L22.2,21 C22.2,21.9081081 22.0283505,22.1351351 21.1128866,22.1351351 L18.8814433,22.1351351 L18.8814433,23.3837838 L32.3845361,23.3837838 C39.5365979,23.3837838 44.1139175,19.7513514 44.1139175,11.8621622 C44.1139175,4.65405405 39.5938144,0.340540541 32.7278351,0.340540541 Z M28.9515464,22.1351351 C28.1505155,22.1351351 27.3494845,21.9648649 26.4912371,21.9081081 L26.4912371,1.75945946 C27.3494845,1.7027027 28.6654639,1.64594595 29.9242268,1.64594595 C36.5041237,1.64594595 39.3649485,4.5972973 39.3649485,11.8621622 C39.4221649,20.4891892 35.8747423,22.1351351 28.9515464,22.1351351 Z" id="Shape"></path>
        </g>
        <rect id="Rectangle-path" x="0" y="27.8675676" width="110.370619" height="1"></rect>
        <g id="Group" transform="translate(0.000000, 32.918919)">
          <polygon id="Shape" points="0.228865979 0.510810811 1.37319588 0.510810811 3.3757732 3.97297297 5.37835052 0.510810811 6.52268041 0.510810811 3.89072165 5.05135135 3.89072165 8.57027027 2.91804124 8.57027027 2.91804124 5.10810811"></polygon>
          <path d="M15.1623711,4.54054054 C15.1623711,6.92432432 13.2742268,8.74054054 10.9283505,8.74054054 C8.58247423,8.74054054 6.6943299,6.92432432 6.6943299,4.54054054 C6.6943299,2.21351351 8.63969072,0.340540541 10.9283505,0.340540541 C13.2170103,0.340540541 15.1623711,2.27027027 15.1623711,4.54054054 Z M14.1896907,4.54054054 C14.1896907,2.78108108 12.8737113,1.30540541 10.9283505,1.30540541 C8.98298969,1.30540541 7.66701031,2.78108108 7.66701031,4.54054054 C7.66701031,6.35675676 9.15463918,7.77567568 10.9283505,7.77567568 C12.7020619,7.77567568 14.1896907,6.41351351 14.1896907,4.54054054 Z" id="Shape"></path>
          <path d="M17.4510309,0.510810811 L17.4510309,5.27837838 C17.4510309,6.58378378 17.8515464,7.83243243 19.3963918,7.83243243 C20.9412371,7.83243243 21.3417526,6.64054054 21.3417526,5.27837838 L21.3417526,0.510810811 L22.3716495,0.510810811 L22.3716495,5.61891892 C22.3716495,7.37837838 21.2845361,8.74054054 19.3963918,8.74054054 C17.5082474,8.74054054 16.421134,7.37837838 16.421134,5.61891892 L16.421134,0.510810811 L17.4510309,0.510810811 Z" id="Shape"></path>
          <path d="M29.2948454,8.57027027 L28.0360825,8.57027027 L25.6329897,5.16486486 L25.2324742,5.16486486 L25.2324742,8.57027027 L24.2025773,8.57027027 L24.2025773,0.510810811 L25.4041237,0.510810811 C26.1479381,0.510810811 26.8917526,0.510810811 27.521134,0.908108108 C28.207732,1.30540541 28.6082474,2.04324324 28.6082474,2.83783784 C28.6082474,3.97297297 27.8072165,4.93783784 26.6628866,5.10810811 L29.2948454,8.57027027 Z M25.2324742,4.37027027 L25.5757732,4.37027027 C26.6056701,4.37027027 27.75,4.2 27.75,2.89459459 C27.75,1.64594595 26.5484536,1.47567568 25.5185567,1.47567568 L25.2324742,1.47567568 L25.2324742,4.37027027 Z" id="Shape"></path>
          <path d="M39.9371134,2.04324324 C39.3649485,1.53243243 38.5639175,1.24864865 37.8201031,1.24864865 C35.9891753,1.24864865 34.6159794,2.78108108 34.6159794,4.54054054 C34.6159794,6.3 35.9891753,7.83243243 37.8201031,7.83243243 C38.621134,7.83243243 39.3649485,7.54864865 39.9943299,6.98108108 L39.9943299,8.17297297 C39.3649485,8.51351351 38.5639175,8.74054054 37.8773196,8.74054054 C35.5886598,8.74054054 33.643299,6.92432432 33.643299,4.5972973 C33.643299,2.21351351 35.5886598,0.340540541 37.9345361,0.340540541 C38.621134,0.340540541 39.3649485,0.510810811 39.9943299,0.908108108 L39.9943299,2.04324324 L39.9371134,2.04324324 Z" id="Shape"></path>
          <path d="M46.6314433,8.57027027 L45.4298969,8.57027027 L43.0268041,5.16486486 L42.6262887,5.16486486 L42.6262887,8.57027027 L41.5963918,8.57027027 L41.5963918,0.510810811 L42.7979381,0.510810811 C43.5417526,0.510810811 44.285567,0.510810811 44.9149485,0.908108108 C45.6015464,1.30540541 46.0020619,2.04324324 46.0020619,2.83783784 C46.0020619,3.97297297 45.2010309,4.93783784 44.056701,5.10810811 L46.6314433,8.57027027 Z M42.5690722,4.37027027 L42.9123711,4.37027027 C43.942268,4.37027027 45.0865979,4.2 45.0865979,2.89459459 C45.0865979,1.64594595 43.8850515,1.47567568 42.8551546,1.47567568 L42.5690722,1.47567568 L42.5690722,4.37027027 Z" id="Shape"></path>
          <polygon id="Shape" points="47.8329897 0.510810811 52.1814433 0.510810811 52.1814433 1.41891892 48.8056701 1.41891892 48.8056701 3.68918919 52.0670103 3.68918919 52.0670103 4.5972973 48.8056701 4.5972973 48.8056701 7.66216216 52.1814433 7.66216216 52.1814433 8.57027027 47.8329897 8.57027027"></polygon>
          <path d="M53.7835052,0.510810811 L55.5,0.510810811 C57.9603093,0.510810811 60.0773196,1.81621622 60.0773196,4.48378378 C60.0773196,7.20810811 58.0747423,8.57027027 55.5,8.57027027 L53.7835052,8.57027027 L53.7835052,0.510810811 Z M54.8134021,7.66216216 L55.156701,7.66216216 C57.2164948,7.66216216 58.9902062,6.86756757 58.9902062,4.54054054 C58.9902062,2.21351351 57.2164948,1.41891892 55.156701,1.41891892 L54.8134021,1.41891892 L54.8134021,7.66216216 Z" id="Shape"></path>
          <polygon id="Shape" points="62.6520619 8.57027027 61.6221649 8.57027027 61.6221649 0.510810811 62.6520619 0.510810811"></polygon>
          <polygon id="Shape" points="67.0005155 8.57027027 65.9706186 8.57027027 65.9706186 1.47567568 64.0824742 1.47567568 64.0824742 0.567567568 68.9458763 0.567567568 68.9458763 1.47567568 67.0005155 1.47567568"></polygon>
          <path d="M74.6103093,0.510810811 L74.6103093,5.27837838 C74.6103093,6.58378378 75.0108247,7.83243243 76.5556701,7.83243243 C78.1005155,7.83243243 78.5010309,6.64054054 78.5010309,5.27837838 L78.5010309,0.510810811 L79.5309278,0.510810811 L79.5309278,5.61891892 C79.5309278,7.37837838 78.4438144,8.74054054 76.5556701,8.74054054 C74.6675258,8.74054054 73.5804124,7.37837838 73.5804124,5.61891892 L73.5804124,0.510810811 L74.6103093,0.510810811 Z" id="Shape"></path>
          <polygon id="Shape" points="81.2474227 0.17027027 87.3123711 6.52702703 87.3123711 0.510810811 88.342268 0.510810811 88.342268 8.91081081 82.2773196 2.55405405 82.2773196 8.57027027 81.2474227 8.57027027"></polygon>
          <polygon id="Shape" points="91.4319588 8.57027027 90.4020619 8.57027027 90.4020619 0.510810811 91.4319588 0.510810811"></polygon>
          <path d="M101.502062,4.54054054 C101.502062,6.92432432 99.6139175,8.74054054 97.2680412,8.74054054 C94.9221649,8.74054054 93.0340206,6.92432432 93.0340206,4.54054054 C93.0340206,2.21351351 94.9793814,0.340540541 97.2680412,0.340540541 C99.6139175,0.340540541 101.502062,2.27027027 101.502062,4.54054054 Z M100.529381,4.54054054 C100.529381,2.78108108 99.2134021,1.30540541 97.2680412,1.30540541 C95.3798969,1.30540541 94.006701,2.78108108 94.006701,4.54054054 C94.006701,6.35675676 95.4943299,7.77567568 97.2680412,7.77567568 C99.0417526,7.83243243 100.529381,6.41351351 100.529381,4.54054054 Z" id="Shape"></path>
          <polygon id="Shape" points="103.046907 0.17027027 109.111856 6.52702703 109.111856 0.510810811 110.141753 0.510810811 110.141753 8.91081081 104.076804 2.55405405 104.076804 8.57027027 103.046907 8.57027027"></polygon>
        </g>
      </g>
    </g>
  </g>
</svg>
