<?xml version="1.0" encoding="UTF-8"?>
<svg xmlns="http://www.w3.org/2000/svg" xmlns:xlink="http://www.w3.org/1999/xlink" width="194px" height="74px" viewBox="0 0 194 74">
  <!-- Generator: Sketch 50.2 (55047) - http://www.bohemiancoding.com/sketch -->
  <title>TDECU-logo</title>
  <desc>Created with Sketch.</desc>
  <defs></defs>
  <g id="Design" stroke="none" stroke-width="1" fill="none" fill-rule="evenodd">
    <g id="Artboard" transform="translate(-104.000000, -685.000000)" fill="#BB062C" fill-rule="nonzero">
      <g id="TDECU-logo" transform="translate(104.000000, 685.000000)">
        <g id="Group">
          <path d="M13.1,39 C14.6,39 15,38.6 15,37 L15,3.7 L6.7,3.7 C5.4,3.7 5,4 4.7,5.1 L2.8,12.8 L0,12.5 L1.5,0.6 L36,0.6 L37.5,12.5 L34.7,12.9 L32.8,5.2 C32.5,4.1 32.1,3.8 30.8,3.8 L22.5,3.8 L22.5,37 C22.5,38.6 22.9,39 24.4,39 L28.5,39 L28.5,41.2 L9,41.2 L9,39 L13.1,39 Z" id="Shape"></path>
          <path d="M87.3,38.1 L103.7,38.1 C105.4,38.1 105.7,37.9 106.1,36.8 L107.9,30.2 L110.6,30.6 L109.6,41.2 L73.7,41.2 L73.7,39 L77.8,39 C79.3,39 79.7,38.6 79.7,37 L79.7,4.9 C79.7,3.3 79.4,2.9 77.8,2.9 L73.7,2.9 L73.7,0.6 L108.5,0.6 L108.5,9.4 L106.4,9.4 L105.6,5.2 C105.4,4 105,3.7 104,3.7 L87.3,3.7 L87.3,17.7 L99.4,17.7 C100.8,17.7 100.9,17.5 101.1,16.5 L101.6,14.4 L103.2,14.8 L103.2,24 L101.6,24.4 L101.1,22.3 C100.9,21.2 100.7,21.1 99.4,21.1 L87.3,21.1 L87.3,38.1 Z" id="Shape"></path>
          <path d="M183.9,0.6 L183.9,3.4 C184.1,3.7 184.1,4.2 184.1,4.9 L184.1,25.9 C184.1,34.8 179.1,39.1 170.8,39.1 C164.1,39.1 160.4,35.9 160.4,27.3 L160.4,4.9 C160.4,3.3 160.7,2.9 162.3,2.9 L166.2,2.9 L166.2,0.6 L147,0.6 L147,2 C144.2,1 140,0 133.7,0 C117.4,0 109.8,8.6 109.8,20.7 C109.8,35.1 119.4,41.9 131.8,41.9 C140.6,41.9 146.4,38.9 148.9,37.1 L149.7,31 C143.7,35.9 140,38.8 131,38.8 C123.9,38.8 118.3,33.8 118.3,21.2 C118.3,7.6 124.2,2.6 134,2.6 C142.4,2.6 145.6,6.5 146.8,13.3 L149.2,12.9 L148.7,2.9 L151.1,2.9 C152.6,2.9 153,3.3 153,4.9 L153,27.2 C153,35.4 157.1,41.9 170,41.9 C181.3,41.9 187.2,36.1 187.2,24 L187.2,4.9 C187.2,3.3 187.5,2.9 189,2.9 L193.1,2.9 L193.1,0.6 L183.9,0.6 Z" id="Shape"></path>
          <path d="M57.2,0.6 L38.8,0.6 L38.8,12.8 L38.8,37 C38.8,38.6 38.5,39 36.9,39 L33,39 L33,41.2 L56.6,41.2 C69.1,41.2 77.1,34.8 77.1,20.9 C77.1,8.2 69.2,0.6 57.2,0.6 Z M50.6,39 C49.2,39 47.8,38.7 46.3,38.6 L46.3,3.1 C47.8,3 50.1,2.9 52.3,2.9 C63.8,2.9 68.8,8.1 68.8,20.9 C68.9,36.1 62.7,39 50.6,39 Z" id="Shape"></path>
        </g>
        <rect id="Rectangle-path" x="0" y="49.1" width="192.9" height="1.5"></rect>
        <g id="Group" transform="translate(0.000000, 58.000000)">
          <polygon id="Shape" points="0.4 0.9 2.4 0.9 5.9 7 9.4 0.9 11.4 0.9 6.8 8.9 6.8 15.1 5.1 15.1 5.1 9"></polygon>
          <path d="M26.5,8 C26.5,12.2 23.2,15.4 19.1,15.4 C15,15.4 11.7,12.2 11.7,8 C11.7,3.9 15.1,0.6 19.1,0.6 C23.1,0.6 26.5,4 26.5,8 Z M24.8,8 C24.8,4.9 22.5,2.3 19.1,2.3 C15.7,2.3 13.4,4.9 13.4,8 C13.4,11.2 16,13.7 19.1,13.7 C22.2,13.7 24.8,11.3 24.8,8 Z" id="Shape"></path>
          <path d="M30.5,0.9 L30.5,9.3 C30.5,11.6 31.2,13.8 33.9,13.8 C36.6,13.8 37.3,11.7 37.3,9.3 L37.3,0.9 L39.1,0.9 L39.1,9.9 C39.1,13 37.2,15.4 33.9,15.4 C30.6,15.4 28.7,13 28.7,9.9 L28.7,0.9 L30.5,0.9 Z" id="Shape"></path>
          <path d="M51.2,15.1 L49,15.1 L44.8,9.1 L44.1,9.1 L44.1,15.1 L42.3,15.1 L42.3,0.9 L44.4,0.9 C45.7,0.9 47,0.9 48.1,1.6 C49.3,2.3 50,3.6 50,5 C50,7 48.6,8.7 46.6,9 L51.2,15.1 Z M44.1,7.7 L44.7,7.7 C46.5,7.7 48.5,7.4 48.5,5.1 C48.5,2.9 46.4,2.6 44.6,2.6 L44.1,2.6 L44.1,7.7 Z" id="Shape"></path>
          <path d="M69.8,3.6 C68.8,2.7 67.4,2.2 66.1,2.2 C62.9,2.2 60.5,4.9 60.5,8 C60.5,11.1 62.9,13.8 66.1,13.8 C67.5,13.8 68.8,13.3 69.9,12.3 L69.9,14.4 C68.8,15 67.4,15.4 66.2,15.4 C62.2,15.4 58.8,12.2 58.8,8.1 C58.8,3.9 62.2,0.6 66.3,0.6 C67.5,0.6 68.8,0.9 69.9,1.6 L69.9,3.6 L69.8,3.6 Z" id="Shape"></path>
          <path d="M81.5,15.1 L79.4,15.1 L75.2,9.1 L74.5,9.1 L74.5,15.1 L72.7,15.1 L72.7,0.9 L74.8,0.9 C76.1,0.9 77.4,0.9 78.5,1.6 C79.7,2.3 80.4,3.6 80.4,5 C80.4,7 79,8.7 77,9 L81.5,15.1 Z M74.4,7.7 L75,7.7 C76.8,7.7 78.8,7.4 78.8,5.1 C78.8,2.9 76.7,2.6 74.9,2.6 L74.4,2.6 L74.4,7.7 Z" id="Shape"></path>
          <polygon id="Shape" points="83.6 0.9 91.2 0.9 91.2 2.5 85.3 2.5 85.3 6.5 91 6.5 91 8.1 85.3 8.1 85.3 13.5 91.2 13.5 91.2 15.1 83.6 15.1"></polygon>
          <path d="M94,0.9 L97,0.9 C101.3,0.9 105,3.2 105,7.9 C105,12.7 101.5,15.1 97,15.1 L94,15.1 L94,0.9 Z M95.8,13.5 L96.4,13.5 C100,13.5 103.1,12.1 103.1,8 C103.1,3.9 100,2.5 96.4,2.5 L95.8,2.5 L95.8,13.5 Z" id="Shape"></path>
          <polygon id="Shape" points="109.5 15.1 107.7 15.1 107.7 0.9 109.5 0.9"></polygon>
          <polygon id="Shape" points="117.1 15.1 115.3 15.1 115.3 2.6 112 2.6 112 1 120.5 1 120.5 2.6 117.1 2.6"></polygon>
          <path d="M130.4,0.9 L130.4,9.3 C130.4,11.6 131.1,13.8 133.8,13.8 C136.5,13.8 137.2,11.7 137.2,9.3 L137.2,0.9 L139,0.9 L139,9.9 C139,13 137.1,15.4 133.8,15.4 C130.5,15.4 128.6,13 128.6,9.9 L128.6,0.9 L130.4,0.9 Z" id="Shape"></path>
          <polygon id="Shape" points="142 0.3 152.6 11.5 152.6 0.9 154.4 0.9 154.4 15.7 143.8 4.5 143.8 15.1 142 15.1"></polygon>
          <polygon id="Shape" points="159.8 15.1 158 15.1 158 0.9 159.8 0.9"></polygon>
          <path d="M177.4,8 C177.4,12.2 174.1,15.4 170,15.4 C165.9,15.4 162.6,12.2 162.6,8 C162.6,3.9 166,0.6 170,0.6 C174.1,0.6 177.4,4 177.4,8 Z M175.7,8 C175.7,4.9 173.4,2.3 170,2.3 C166.7,2.3 164.3,4.9 164.3,8 C164.3,11.2 166.9,13.7 170,13.7 C173.1,13.8 175.7,11.3 175.7,8 Z" id="Shape"></path>
          <polygon id="Shape" points="180.1 0.3 190.7 11.5 190.7 0.9 192.5 0.9 192.5 15.7 181.9 4.5 181.9 15.1 180.1 15.1"></polygon>
        </g>
      </g>
    </g>
  </g>
</svg>
