<?xml version="1.0" encoding="UTF-8"?>
<svg xmlns="http://www.w3.org/2000/svg" xmlns:xlink="http://www.w3.org/1999/xlink" width="122px" height="58px" viewBox="0 0 122 58">
  <!-- Generator: Sketch 50.2 (55047) - http://www.bohemiancoding.com/sketch -->
  <title>tmb-logo</title>
  <desc>Created with Sketch.</desc>
  <defs></defs>
  <g id="Design" stroke="none" stroke-width="1" fill="none" fill-rule="evenodd">
    <g id="dropdown_menu" transform="translate(-518.000000, -1082.000000)" fill-rule="nonzero">
      <g id="tmb-logo" transform="translate(518.000000, 1082.000000)">
        <path d="M45.5952922,0 C42.0711596,-2.37120131e-15 39.2142857,2.8387929 39.2142857,6.34062141 C39.2142857,9.84244993 42.0711596,12.6812428 45.5952922,12.6812428 C49.1194248,12.6812428 51.9762988,9.84244993 51.9762988,6.34062141 C51.9762988,2.8387929 49.1194248,-2.37120131e-15 45.5952922,0 Z M77.1308981,0 C73.6067654,-2.37120131e-15 70.7498917,2.8387929 70.7498917,6.34062141 C70.7498917,9.84244993 73.6067654,12.6812428 77.1308981,12.6812428 C80.6550308,12.6812428 83.5119048,9.84244993 83.5119048,6.34062141 C83.5119048,2.8387929 80.6550308,-2.37120131e-15 77.1308981,0 Z M39.4157912,17.9873418 L39.4157912,58 L48.2484476,58 L48.2484476,29.9344073 L48.3827845,29.9344073 L57.9542944,58 L64.7718961,58 L74.477743,29.9010357 L74.477743,58 L83.3103993,58 L83.3103993,17.9873418 L70.5483862,17.9873418 L61.6485613,45.4856156 L61.5478086,45.4856156 L52.14422,17.9873418 L39.4157912,17.9873418 Z" id="Shape" fill="#0F6DB6"></path>
        <polygon id="Shape" fill="#C7303A" points="0 25.5080275 0 18.125 32.6785714 18.125 32.6785714 25.5080275 20.6755442 25.5080275 20.6755442 58 12.0030272 58 12.0030272 25.5080275"></polygon>
        <path d="M107.686313,18.1259737 C109.386309,18.1105699 111.082989,18.2779633 112.74671,18.6252292 C114.161704,18.917978 115.505195,19.483366 116.701193,20.2894141 C117.804255,21.0582855 118.682949,22.1032217 119.248148,23.3182305 C119.891817,24.797983 120.200695,26.3999922 120.152987,28.0112319 C120.152987,30.0304429 119.706152,31.7057223 118.812484,33.0370702 C117.817487,34.4693782 116.451128,35.607901 114.858002,36.3321563 C117.248565,37.0422085 119.035901,38.2847999 120.220012,40.0599304 C121.392952,41.8239664 121.996178,43.9874067 121.996178,46.4504003 C122.043391,48.2577555 121.652612,50.0499153 120.85675,51.6759408 C120.129941,53.0995972 119.073259,54.331579 117.773595,55.2705802 C116.438822,56.2218542 114.939354,56.9213404 113.349936,57.3341694 C111.689897,57.782871 109.976432,58.0067872 108.256027,57.9998433 L89.3214286,58 L89.3214286,18.1259737 L107.686313,18.1259737 Z M106.613911,34.2352834 C108.155489,34.2352834 109.395454,33.8691626 110.400831,33.1369213 C111.406208,32.40468 111.875383,31.1731832 111.875383,29.5089983 C111.903751,28.7137752 111.730919,27.9241789 111.372695,27.2124232 C111.069064,26.6399328 110.618093,26.1575873 110.065705,25.8145079 C109.491382,25.4634902 108.854104,25.2261432 108.189002,25.1155502 C107.459176,24.9837607 106.718963,24.9169282 105.977173,24.9158481 L97.8671321,24.9158481 L97.8671321,34.2352834 L106.613911,34.2352834 Z M107.083087,51.1766853 C107.894685,51.1742939 108.70366,51.0850217 109.495992,50.9104157 C110.212215,50.7587059 110.893959,50.4765856 111.506745,50.0783233 C112.104137,49.6722689 112.588345,49.1226679 112.914273,48.4807058 C113.2823,47.6657625 113.454399,46.7769624 113.416962,45.8845774 C113.416962,43.8542719 112.847248,42.3565055 111.741334,41.4911294 C110.635419,40.6257532 109.127354,40.1597815 107.25065,40.1597815 L97.8671321,40.1597815 L97.8671321,51.1434017 L107.049575,51.1434017 L107.083087,51.1766853 Z" id="Shape" fill="#C7303A"></path>
      </g>
    </g>
  </g>
</svg>
