<?xml version="1.0" encoding="UTF-8"?>
<svg xmlns="http://www.w3.org/2000/svg" xmlns:xlink="http://www.w3.org/1999/xlink" width="152px" height="73px" viewBox="0 0 152 73">
  <!-- Generator: Sketch 50.2 (55047) - http://www.bohemiancoding.com/sketch -->
  <title>tmb-logo_grey</title>
  <desc>Created with Sketch.</desc>
  <defs></defs>
  <g id="Design" stroke="none" stroke-width="1" fill="none" fill-rule="evenodd">
    <g id="home" transform="translate(-515.000000, -1086.000000)" fill="#BFBFBF" fill-rule="nonzero">
      <g id="tmb-logo_grey" transform="translate(515.000000, 1086.000000)">
        <path d="M56.8072493,0 C52.4165268,-2.98444302e-15 48.8571429,3.57296348 48.8571429,7.98043728 C48.8571429,12.3879111 52.4165268,15.9608746 56.8072493,15.9608746 C61.1979719,15.9608746 64.7573558,12.3879111 64.7573558,7.98043728 C64.7573558,3.57296348 61.1979719,-2.98444302e-15 56.8072493,0 Z M96.0975124,0 C91.7067897,-2.98444302e-15 88.147406,3.57296348 88.147406,7.98043728 C88.147406,12.3879111 91.7067897,15.9608746 96.0975124,15.9608746 C100.488235,15.9608746 104.047619,12.3879111 104.047619,7.98043728 C104.047619,3.57296348 100.488235,-2.98444302e-15 96.0975124,0 Z M49.1081988,22.6392405 L49.1081988,73 L60.1128199,73 L60.1128199,37.6760644 L60.2801906,37.6760644 L72.2053504,73 L80.6994115,73 L92.7919421,37.6340621 L92.7919421,73 L103.796563,73 L103.796563,22.6392405 L87.89635,22.6392405 L76.8080436,57.2491369 L76.6825156,57.2491369 L64.9665692,22.6392405 L49.1081988,22.6392405 Z" id="Shape"></path>
        <polygon id="Shape" points="0 32.1049312 0 22.8125 40.7142857 22.8125 40.7142857 32.1049312 25.7596944 32.1049312 25.7596944 73 14.9545913 73 14.9545913 32.1049312"></polygon>
        <path d="M134.166554,22.8137256 C136.284582,22.7943379 138.398478,23.0050227 140.471311,23.4420988 C142.234254,23.8105585 143.908112,24.5221676 145.398208,25.5366764 C146.772515,26.5043939 147.867281,27.8195721 148.571463,29.3488073 C149.373412,31.2112544 149.758242,33.2275765 149.698803,35.255516 C149.698803,37.7969367 149.142091,39.9054781 148.028669,41.5811401 C146.789,43.3838725 145.086652,44.816841 143.101773,45.7284035 C146.080179,46.62209 148.307024,48.1860412 149.78231,50.4202572 C151.243678,52.6405095 151.995238,55.3634601 151.995238,58.4634349 C152.054061,60.7382095 151.567188,62.9938589 150.575623,65.0404082 C149.670091,66.8322516 148.353569,68.3828493 146.734315,69.5646957 C145.07132,70.7619889 143.203129,71.6423768 141.222872,72.1619717 C139.154626,72.7267169 137.019817,73.0085424 134.876361,72.9998027 L111.285714,73 L111.285714,22.8137256 L134.166554,22.8137256 Z M132.830447,43.089236 C134.751102,43.089236 136.295975,42.6284289 137.548576,41.7068148 C138.801177,40.7852006 139.385724,39.2352134 139.385724,37.1406358 C139.421066,36.1397515 139.205735,35.1459493 138.759424,34.2501189 C138.381129,33.5295706 137.819263,32.9224806 137.131042,32.4906737 C136.415492,32.0488756 135.621507,31.7501458 134.792854,31.6109512 C133.883563,31.4450782 132.96133,31.3609614 132.037133,31.3596018 L121.93282,31.3596018 L121.93282,43.089236 L132.830447,43.089236 Z M133.414993,64.412035 C134.426165,64.409025 135.434068,64.2966653 136.421236,64.0769026 C137.313579,63.8859575 138.162966,63.530875 138.926437,63.0296138 C139.670728,62.5185454 140.274003,61.8268062 140.680078,61.0188195 C141.138604,59.9931149 141.353022,58.8744527 141.306378,57.7512785 C141.306378,55.195894 140.596571,53.3107742 139.218711,52.2215939 C137.84085,51.1324136 135.961949,50.5459319 133.623761,50.5459319 L121.93282,50.5459319 L121.93282,64.3701434 L133.373241,64.3701434 L133.414993,64.412035 Z" id="Shape"></path>
      </g>
    </g>
  </g>
</svg>
