<?xml version="1.0" encoding="UTF-8"?>
<svg xmlns="http://www.w3.org/2000/svg" xmlns:xlink="http://www.w3.org/1999/xlink" width="96px" height="46px" viewBox="0 0 96 46">
  <!-- Generator: Sketch 50.2 (55047) - http://www.bohemiancoding.com/sketch -->
  <title>tmb-logo</title>
  <desc>Created with Sketch.</desc>
  <defs></defs>
  <g id="Design" stroke="none" stroke-width="1" fill="none" fill-rule="evenodd">
    <g id="dropdown_menu" transform="translate(-518.000000, -1051.000000)" fill-rule="nonzero">
      <g id="Group-8" transform="translate(518.000000, 937.000000)">
        <g id="tmb-logo" transform="translate(0.000000, 114.000000)">
          <path d="M35.8782627,0 C33.1051748,-1.88060793e-15 30.8571429,2.25145644 30.8571429,5.0287687 C30.8571429,7.80608098 33.1051748,10.0575374 35.8782627,10.0575374 C38.6513507,10.0575374 40.8993826,7.80608098 40.8993826,5.0287687 C40.8993826,2.25145644 38.6513507,-1.88060793e-15 35.8782627,0 Z M60.6931657,0 C57.9200777,-1.88060793e-15 55.6720459,2.25145644 55.6720459,5.0287687 C55.6720459,7.80608098 57.9200777,10.0575374 60.6931657,10.0575374 C63.4662537,10.0575374 65.7142857,7.80608098 65.7142857,5.0287687 C65.7142857,2.25145644 63.4662537,-1.88060793e-15 60.6931657,0 Z M31.0157045,14.2658228 L31.0157045,46 L37.9659915,46 L37.9659915,23.7410817 L38.0716993,23.7410817 L45.6033792,46 L50.9680494,46 L58.6054371,23.7146145 L58.6054371,46 L65.555724,46 L65.555724,14.2658228 L55.5134842,14.2658228 L48.5103433,36.0747986 L48.4310625,36.0747986 L41.0315174,14.2658228 L31.0157045,14.2658228 Z" id="Shape" fill="#0F6DB6"></path>
          <polygon id="Shape" fill="#C7303A" points="0 20.2305046 0 14.375 25.7142857 14.375 25.7142857 20.2305046 16.2692807 20.2305046 16.2692807 46 9.44500503 46 9.44500503 20.2305046"></polygon>
          <path d="M84.7367709,14.3757723 C86.0744726,14.3635554 87.4095651,14.4963157 88.7187229,14.7717335 C89.8321606,15.0039136 90.8893337,15.4523248 91.8304469,16.0916043 C92.6984303,16.7013989 93.3898617,17.5301413 93.834608,18.493769 C94.3411023,19.6673658 94.5841531,20.9379249 94.5466126,22.2158046 C94.5466126,23.8172478 94.1950051,25.1459177 93.4917909,26.2018143 C92.7088423,27.3377827 91.6336749,28.2407491 90.3800669,28.8151584 C92.2611657,29.3783033 93.6675943,30.3638068 94.5993537,31.7716689 C95.5223229,33.170732 95.9969926,34.8865639 95.9969926,36.8399727 C96.034144,38.2733923 95.7266451,39.6947604 95.1003937,40.9843668 C94.5284783,42.1134736 93.6969909,43.0905626 92.674304,43.8352877 C91.6239914,44.5897464 90.4440817,45.1445114 89.1933926,45.4719274 C87.887132,45.8277942 86.538832,46.0053829 85.1850703,45.9998757 L70.2857143,46 L70.2857143,14.3757723 L84.7367709,14.3757723 Z M83.8929137,27.1521213 C85.1059589,27.1521213 86.0816686,26.8617497 86.8727851,26.2810066 C87.6639011,25.7002634 88.0330886,24.7235591 88.0330886,23.4036883 C88.0554103,22.7729941 87.9194114,22.1467626 87.6375309,21.5822667 C87.398608,21.1282226 87.0437451,20.7456727 86.6090794,20.4735752 C86.1571531,20.1951819 85.6556886,20.0069412 85.1323291,19.9192295 C84.55804,19.8147068 83.9755771,19.7617017 83.3918737,19.760845 L77.0102023,19.760845 L77.0102023,27.1521213 L83.8929137,27.1521213 Z M84.2621011,40.5884056 C84.900736,40.5865089 85.5373063,40.5157069 86.1607806,40.3772263 C86.7243657,40.2569047 87.2608206,40.0331541 87.7430126,39.7172909 C88.2130914,39.3952478 88.5941074,38.9593573 88.8505754,38.450215 C89.1401709,37.8038806 89.2755926,37.0989702 89.2461337,36.3912166 C89.2461337,34.7809743 88.7978343,33.5930906 87.9276069,32.9067578 C87.0573789,32.220425 85.8707046,31.8508612 84.3939543,31.8508612 L77.0102023,31.8508612 L77.0102023,40.5620082 L84.2357309,40.5620082 L84.2621011,40.5884056 Z" id="Shape" fill="#C7303A"></path>
        </g>
      </g>
    </g>
  </g>
</svg>
