<?xml version="1.0" encoding="UTF-8"?>
<svg xmlns="http://www.w3.org/2000/svg" xmlns:xlink="http://www.w3.org/1999/xlink" width="168px" height="80px" viewBox="0 0 168 80">
  <!-- Generator: Sketch 50.2 (55047) - http://www.bohemiancoding.com/sketch -->
  <title>tmb-logo</title>
  <desc>Created with Sketch.</desc>
  <defs></defs>
  <g id="Design" stroke="none" stroke-width="1" fill="none" fill-rule="evenodd">
    <g id="Artboard" transform="translate(-962.000000, -666.000000)" fill-rule="nonzero">
      <g id="tmb-logo" transform="translate(962.000000, 666.000000)">
        <path d="M62.7869598,3.27062249e-15 C57.9340559,0 54,3.91557641 54,8.7456847 C54,13.575793 57.9340559,17.4913694 62.7869598,17.4913694 C67.6398637,17.4913694 71.5739196,13.575793 71.5739196,8.7456847 C71.5739196,3.91557641 67.6398637,0 62.7869598,3.27062249e-15 Z M106.21304,3.27062249e-15 C101.360136,0 97.4260804,3.91557641 97.4260804,8.7456847 C97.4260804,13.575793 101.360136,17.4913694 106.21304,17.4913694 C111.065944,17.4913694 115,13.575793 115,8.7456847 C115,3.91557641 111.065944,0 106.21304,3.27062249e-15 Z M54.2774829,24.8101266 L54.2774829,80 L66.4404852,80 L66.4404852,41.2888377 L66.6254738,41.2888377 L79.8059136,80 L89.1940864,80 L102.559515,41.2428078 L102.559515,80 L114.722517,80 L114.722517,24.8101266 L97.1485974,24.8101266 L84.8931008,62.7387802 L84.7543594,62.7387802 L71.8051554,24.8101266 L54.2774829,24.8101266 Z" id="Shape" fill="#0F6DB6"></path>
        <polygon id="Shape" fill="#C7303A" points="0 35.1834862 0 25 45 25 45 35.1834862 28.4712412 35.1834862 28.4712412 80 16.5287588 80 16.5287588 35.1834862 0 35.1834862"></polygon>
        <path d="M148.289349,25.0013431 C150.630327,24.9800964 152.966739,25.2109838 155.257765,25.6899713 C157.206281,26.0937627 159.056334,26.8736083 160.703282,27.9853987 C162.222253,29.0459111 163.432258,30.4872023 164.210564,32.1630766 C165.096929,34.2041145 165.522268,36.4137824 165.456572,38.6361819 C165.456572,41.4213005 164.841259,43.7320308 163.610634,45.5683727 C162.240474,47.5439699 160.358931,49.1143462 158.165117,50.113319 C161.45704,51.0927014 163.91829,52.8066205 165.548869,55.2550764 C167.164065,57.6882295 167.994737,60.6722851 167.994737,64.0695177 C168.059752,66.5624214 167.521629,69.0343659 166.425689,71.2771597 C165.424837,73.2408237 163.969734,74.9401089 162.180032,76.235283 C160.341985,77.5473851 158.277143,78.5121937 156.088437,79.0816129 C153.802481,79.7005117 151.442956,80.0093616 149.073873,79.9997839 L123,80 L123,25.0013431 L148.289349,25.0013431 Z M146.812599,47.2210805 C148.935428,47.2210805 150.64292,46.7160864 152.027374,45.7060984 C153.411827,44.6961103 154.057905,42.997494 154.057905,40.7020666 C154.096968,39.6052072 153.85897,38.5161088 153.365679,37.5343768 C152.947564,36.7447349 152.326554,36.0794308 151.565889,35.6062178 C150.775018,35.1220555 149.897455,34.7946803 148.981576,34.6421382 C147.97657,34.4603596 146.95726,34.3681768 145.935779,34.366687 L134.767854,34.366687 L134.767854,47.2210805 L146.812599,47.2210805 Z M147.458677,70.5885315 C148.576288,70.5852329 149.690286,70.4620989 150.781366,70.2212631 C151.76764,70.0120082 152.706436,69.6228767 153.550272,69.0735494 C154.37291,68.5134744 155.039688,67.755404 155.488507,66.8699391 C155.995299,65.7458793 156.232287,64.5199481 156.180734,63.2890723 C156.180734,60.4886509 155.39621,58.4227662 153.873312,57.229144 C152.350413,56.0355217 150.273733,55.392802 147.68942,55.392802 L134.767854,55.392802 L134.767854,70.542623 L147.412529,70.542623 L147.458677,70.5885315 Z" id="Shape" fill="#C7303A"></path>
      </g>
    </g>
  </g>
</svg>
